<?xml version="1.0" encoding="utf-8" standalone="no"?>
<!DOCTYPE svg PUBLIC "-//W3C//DTD SVG 1.1//EN"
  "http://www.w3.org/Graphics/SVG/1.1/DTD/svg11.dtd">
<svg xmlns:xlink="http://www.w3.org/1999/xlink" width="1080pt" height="720pt" viewBox="0 0 1080 720" xmlns="http://www.w3.org/2000/svg" version="1.1">
 <metadata>
  <rdf:RDF xmlns:dc="http://purl.org/dc/elements/1.1/" xmlns:cc="http://creativecommons.org/ns#" xmlns:rdf="http://www.w3.org/1999/02/22-rdf-syntax-ns#">
   <cc:Work>
    <dc:type rdf:resource="http://purl.org/dc/dcmitype/StillImage"/>
    <dc:date>2023-01-10T19:25:22.955610</dc:date>
    <dc:format>image/svg+xml</dc:format>
    <dc:creator>
     <cc:Agent>
      <dc:title>Matplotlib v3.6.2, https://matplotlib.org/</dc:title>
     </cc:Agent>
    </dc:creator>
   </cc:Work>
  </rdf:RDF>
 </metadata>
 <defs>
  <style type="text/css">*{stroke-linejoin: round; stroke-linecap: butt}</style>
 </defs>
 <g id="figure_1">
  <g id="patch_1">
   <path d="M 0 720 
L 1080 720 
L 1080 0 
L 0 0 
z
" style="fill: #ffffff"/>
  </g>
  <g id="axes_1">
   <g id="patch_2">
    <path d="M 135 640.8 
L 972 640.8 
L 972 86.4 
L 135 86.4 
z
" style="fill: #ffffff"/>
   </g>
   <g id="PathCollection_1">
    <defs>
     <path id="m80f1702e56" d="M 0 3 
C 0.795609 3 1.55874 2.683901 2.12132 2.12132 
C 2.683901 1.55874 3 0.795609 3 0 
C 3 -0.795609 2.683901 -1.55874 2.12132 -2.12132 
C 1.55874 -2.683901 0.795609 -3 0 -3 
C -0.795609 -3 -1.55874 -2.683901 -2.12132 -2.12132 
C -2.683901 -1.55874 -3 -0.795609 -3 0 
C -3 0.795609 -2.683901 1.55874 -2.12132 2.12132 
C -1.55874 2.683901 -0.795609 3 0 3 
z
" style="stroke: #1f77b4"/>
    </defs>
    <g clip-path="url(#p294e5309c2)">
     <use xlink:href="#m80f1702e56" x="173.045455" y="615.6" style="fill: #1f77b4; stroke: #1f77b4"/>
     <use xlink:href="#m80f1702e56" x="213.093301" y="611.763493" style="fill: #1f77b4; stroke: #1f77b4"/>
     <use xlink:href="#m80f1702e56" x="253.141148" y="607.926986" style="fill: #1f77b4; stroke: #1f77b4"/>
     <use xlink:href="#m80f1702e56" x="293.188995" y="604.090479" style="fill: #1f77b4; stroke: #1f77b4"/>
     <use xlink:href="#m80f1702e56" x="333.236842" y="600.253972" style="fill: #1f77b4; stroke: #1f77b4"/>
     <use xlink:href="#m80f1702e56" x="373.284689" y="596.417466" style="fill: #1f77b4; stroke: #1f77b4"/>
     <use xlink:href="#m80f1702e56" x="413.332536" y="592.580959" style="fill: #1f77b4; stroke: #1f77b4"/>
     <use xlink:href="#m80f1702e56" x="453.380383" y="588.744452" style="fill: #1f77b4; stroke: #1f77b4"/>
     <use xlink:href="#m80f1702e56" x="493.42823" y="584.907945" style="fill: #1f77b4; stroke: #1f77b4"/>
     <use xlink:href="#m80f1702e56" x="533.476077" y="574.503077" style="fill: #1f77b4; stroke: #1f77b4"/>
     <use xlink:href="#m80f1702e56" x="573.523923" y="572.397655" style="fill: #1f77b4; stroke: #1f77b4"/>
     <use xlink:href="#m80f1702e56" x="613.57177" y="533.008677" style="fill: #1f77b4; stroke: #1f77b4"/>
     <use xlink:href="#m80f1702e56" x="653.619617" y="493.6197" style="fill: #1f77b4; stroke: #1f77b4"/>
     <use xlink:href="#m80f1702e56" x="693.667464" y="282.013022" style="fill: #1f77b4; stroke: #1f77b4"/>
     <use xlink:href="#m80f1702e56" x="733.715311" y="282.013022" style="fill: #1f77b4; stroke: #1f77b4"/>
     <use xlink:href="#m80f1702e56" x="773.763158" y="282.013022" style="fill: #1f77b4; stroke: #1f77b4"/>
     <use xlink:href="#m80f1702e56" x="813.811005" y="282.013022" style="fill: #1f77b4; stroke: #1f77b4"/>
     <use xlink:href="#m80f1702e56" x="853.858852" y="282.013022" style="fill: #1f77b4; stroke: #1f77b4"/>
     <use xlink:href="#m80f1702e56" x="893.906699" y="282.013022" style="fill: #1f77b4; stroke: #1f77b4"/>
     <use xlink:href="#m80f1702e56" x="933.954545" y="282.013022" style="fill: #1f77b4; stroke: #1f77b4"/>
    </g>
   </g>
   <g id="PathCollection_2">
    <defs>
     <path id="m62fcbac0dc" d="M 0 3 
C 0.795609 3 1.55874 2.683901 2.12132 2.12132 
C 2.683901 1.55874 3 0.795609 3 0 
C 3 -0.795609 2.683901 -1.55874 2.12132 -2.12132 
C 1.55874 -2.683901 0.795609 -3 0 -3 
C -0.795609 -3 -1.55874 -2.683901 -2.12132 -2.12132 
C -2.683901 -1.55874 -3 -0.795609 -3 0 
C -3 0.795609 -2.683901 1.55874 -2.12132 2.12132 
C -1.55874 2.683901 -0.795609 3 0 3 
z
" style="stroke: #ff7f0e"/>
    </defs>
    <g clip-path="url(#p294e5309c2)">
     <use xlink:href="#m62fcbac0dc" x="173.045455" y="156.22457" style="fill: #ff7f0e; stroke: #ff7f0e"/>
     <use xlink:href="#m62fcbac0dc" x="213.093301" y="153.881767" style="fill: #ff7f0e; stroke: #ff7f0e"/>
     <use xlink:href="#m62fcbac0dc" x="253.141148" y="151.538963" style="fill: #ff7f0e; stroke: #ff7f0e"/>
     <use xlink:href="#m62fcbac0dc" x="293.188995" y="149.19616" style="fill: #ff7f0e; stroke: #ff7f0e"/>
     <use xlink:href="#m62fcbac0dc" x="333.236842" y="146.853356" style="fill: #ff7f0e; stroke: #ff7f0e"/>
     <use xlink:href="#m62fcbac0dc" x="373.284689" y="144.510553" style="fill: #ff7f0e; stroke: #ff7f0e"/>
     <use xlink:href="#m62fcbac0dc" x="413.332536" y="142.167749" style="fill: #ff7f0e; stroke: #ff7f0e"/>
     <use xlink:href="#m62fcbac0dc" x="453.380383" y="139.824946" style="fill: #ff7f0e; stroke: #ff7f0e"/>
     <use xlink:href="#m62fcbac0dc" x="493.42823" y="137.482142" style="fill: #ff7f0e; stroke: #ff7f0e"/>
     <use xlink:href="#m62fcbac0dc" x="533.476077" y="166.726691" style="fill: #ff7f0e; stroke: #ff7f0e"/>
     <use xlink:href="#m62fcbac0dc" x="573.523923" y="111.6" style="fill: #ff7f0e; stroke: #ff7f0e"/>
     <use xlink:href="#m62fcbac0dc" x="613.57177" y="145.771767" style="fill: #ff7f0e; stroke: #ff7f0e"/>
     <use xlink:href="#m62fcbac0dc" x="653.619617" y="179.943533" style="fill: #ff7f0e; stroke: #ff7f0e"/>
     <use xlink:href="#m62fcbac0dc" x="693.667464" y="307.727781" style="fill: #ff7f0e; stroke: #ff7f0e"/>
     <use xlink:href="#m62fcbac0dc" x="733.715311" y="307.727781" style="fill: #ff7f0e; stroke: #ff7f0e"/>
     <use xlink:href="#m62fcbac0dc" x="773.763158" y="307.727781" style="fill: #ff7f0e; stroke: #ff7f0e"/>
     <use xlink:href="#m62fcbac0dc" x="813.811005" y="307.727781" style="fill: #ff7f0e; stroke: #ff7f0e"/>
     <use xlink:href="#m62fcbac0dc" x="853.858852" y="307.727781" style="fill: #ff7f0e; stroke: #ff7f0e"/>
     <use xlink:href="#m62fcbac0dc" x="893.906699" y="307.727781" style="fill: #ff7f0e; stroke: #ff7f0e"/>
     <use xlink:href="#m62fcbac0dc" x="933.954545" y="307.727781" style="fill: #ff7f0e; stroke: #ff7f0e"/>
    </g>
   </g>
   <g id="matplotlib.axis_1">
    <g id="xtick_1">
     <g id="line2d_1">
      <defs>
       <path id="m3385fdae1e" d="M 0 0 
L 0 3.5 
" style="stroke: #000000; stroke-width: 0.8"/>
      </defs>
      <g>
       <use xlink:href="#m3385fdae1e" x="173.045455" y="640.8" style="stroke: #000000; stroke-width: 0.8"/>
      </g>
     </g>
     <g id="text_1">
      <!-- 0.0 -->
      <g transform="translate(155.552017 664.516562) scale(0.22 -0.22)">
       <defs>
        <path id="DejaVuSans-30" d="M 2034 4250 
Q 1547 4250 1301 3770 
Q 1056 3291 1056 2328 
Q 1056 1369 1301 889 
Q 1547 409 2034 409 
Q 2525 409 2770 889 
Q 3016 1369 3016 2328 
Q 3016 3291 2770 3770 
Q 2525 4250 2034 4250 
z
M 2034 4750 
Q 2819 4750 3233 4129 
Q 3647 3509 3647 2328 
Q 3647 1150 3233 529 
Q 2819 -91 2034 -91 
Q 1250 -91 836 529 
Q 422 1150 422 2328 
Q 422 3509 836 4129 
Q 1250 4750 2034 4750 
z
" transform="scale(0.015625)"/>
        <path id="DejaVuSans-2e" d="M 684 794 
L 1344 794 
L 1344 0 
L 684 0 
L 684 794 
z
" transform="scale(0.015625)"/>
       </defs>
       <use xlink:href="#DejaVuSans-30"/>
       <use xlink:href="#DejaVuSans-2e" x="63.623047"/>
       <use xlink:href="#DejaVuSans-30" x="95.410156"/>
      </g>
     </g>
    </g>
    <g id="xtick_2">
     <g id="line2d_2">
      <g>
       <use xlink:href="#m3385fdae1e" x="273.165072" y="640.8" style="stroke: #000000; stroke-width: 0.8"/>
      </g>
     </g>
     <g id="text_2">
      <!-- 2.5 -->
      <g transform="translate(255.671634 664.516562) scale(0.22 -0.22)">
       <defs>
        <path id="DejaVuSans-32" d="M 1228 531 
L 3431 531 
L 3431 0 
L 469 0 
L 469 531 
Q 828 903 1448 1529 
Q 2069 2156 2228 2338 
Q 2531 2678 2651 2914 
Q 2772 3150 2772 3378 
Q 2772 3750 2511 3984 
Q 2250 4219 1831 4219 
Q 1534 4219 1204 4116 
Q 875 4013 500 3803 
L 500 4441 
Q 881 4594 1212 4672 
Q 1544 4750 1819 4750 
Q 2544 4750 2975 4387 
Q 3406 4025 3406 3419 
Q 3406 3131 3298 2873 
Q 3191 2616 2906 2266 
Q 2828 2175 2409 1742 
Q 1991 1309 1228 531 
z
" transform="scale(0.015625)"/>
        <path id="DejaVuSans-35" d="M 691 4666 
L 3169 4666 
L 3169 4134 
L 1269 4134 
L 1269 2991 
Q 1406 3038 1543 3061 
Q 1681 3084 1819 3084 
Q 2600 3084 3056 2656 
Q 3513 2228 3513 1497 
Q 3513 744 3044 326 
Q 2575 -91 1722 -91 
Q 1428 -91 1123 -41 
Q 819 9 494 109 
L 494 744 
Q 775 591 1075 516 
Q 1375 441 1709 441 
Q 2250 441 2565 725 
Q 2881 1009 2881 1497 
Q 2881 1984 2565 2268 
Q 2250 2553 1709 2553 
Q 1456 2553 1204 2497 
Q 953 2441 691 2322 
L 691 4666 
z
" transform="scale(0.015625)"/>
       </defs>
       <use xlink:href="#DejaVuSans-32"/>
       <use xlink:href="#DejaVuSans-2e" x="63.623047"/>
       <use xlink:href="#DejaVuSans-35" x="95.410156"/>
      </g>
     </g>
    </g>
    <g id="xtick_3">
     <g id="line2d_3">
      <g>
       <use xlink:href="#m3385fdae1e" x="373.284689" y="640.8" style="stroke: #000000; stroke-width: 0.8"/>
      </g>
     </g>
     <g id="text_3">
      <!-- 5.0 -->
      <g transform="translate(355.791251 664.516562) scale(0.22 -0.22)">
       <use xlink:href="#DejaVuSans-35"/>
       <use xlink:href="#DejaVuSans-2e" x="63.623047"/>
       <use xlink:href="#DejaVuSans-30" x="95.410156"/>
      </g>
     </g>
    </g>
    <g id="xtick_4">
     <g id="line2d_4">
      <g>
       <use xlink:href="#m3385fdae1e" x="473.404306" y="640.8" style="stroke: #000000; stroke-width: 0.8"/>
      </g>
     </g>
     <g id="text_4">
      <!-- 7.5 -->
      <g transform="translate(455.910869 664.516562) scale(0.22 -0.22)">
       <defs>
        <path id="DejaVuSans-37" d="M 525 4666 
L 3525 4666 
L 3525 4397 
L 1831 0 
L 1172 0 
L 2766 4134 
L 525 4134 
L 525 4666 
z
" transform="scale(0.015625)"/>
       </defs>
       <use xlink:href="#DejaVuSans-37"/>
       <use xlink:href="#DejaVuSans-2e" x="63.623047"/>
       <use xlink:href="#DejaVuSans-35" x="95.410156"/>
      </g>
     </g>
    </g>
    <g id="xtick_5">
     <g id="line2d_5">
      <g>
       <use xlink:href="#m3385fdae1e" x="573.523923" y="640.8" style="stroke: #000000; stroke-width: 0.8"/>
      </g>
     </g>
     <g id="text_5">
      <!-- 10.0 -->
      <g transform="translate(549.031736 664.516562) scale(0.22 -0.22)">
       <defs>
        <path id="DejaVuSans-31" d="M 794 531 
L 1825 531 
L 1825 4091 
L 703 3866 
L 703 4441 
L 1819 4666 
L 2450 4666 
L 2450 531 
L 3481 531 
L 3481 0 
L 794 0 
L 794 531 
z
" transform="scale(0.015625)"/>
       </defs>
       <use xlink:href="#DejaVuSans-31"/>
       <use xlink:href="#DejaVuSans-30" x="63.623047"/>
       <use xlink:href="#DejaVuSans-2e" x="127.246094"/>
       <use xlink:href="#DejaVuSans-30" x="159.033203"/>
      </g>
     </g>
    </g>
    <g id="xtick_6">
     <g id="line2d_6">
      <g>
       <use xlink:href="#m3385fdae1e" x="673.643541" y="640.8" style="stroke: #000000; stroke-width: 0.8"/>
      </g>
     </g>
     <g id="text_6">
      <!-- 12.5 -->
      <g transform="translate(649.151353 664.516562) scale(0.22 -0.22)">
       <use xlink:href="#DejaVuSans-31"/>
       <use xlink:href="#DejaVuSans-32" x="63.623047"/>
       <use xlink:href="#DejaVuSans-2e" x="127.246094"/>
       <use xlink:href="#DejaVuSans-35" x="159.033203"/>
      </g>
     </g>
    </g>
    <g id="xtick_7">
     <g id="line2d_7">
      <g>
       <use xlink:href="#m3385fdae1e" x="773.763158" y="640.8" style="stroke: #000000; stroke-width: 0.8"/>
      </g>
     </g>
     <g id="text_7">
      <!-- 15.0 -->
      <g transform="translate(749.27097 664.516562) scale(0.22 -0.22)">
       <use xlink:href="#DejaVuSans-31"/>
       <use xlink:href="#DejaVuSans-35" x="63.623047"/>
       <use xlink:href="#DejaVuSans-2e" x="127.246094"/>
       <use xlink:href="#DejaVuSans-30" x="159.033203"/>
      </g>
     </g>
    </g>
    <g id="xtick_8">
     <g id="line2d_8">
      <g>
       <use xlink:href="#m3385fdae1e" x="873.882775" y="640.8" style="stroke: #000000; stroke-width: 0.8"/>
      </g>
     </g>
     <g id="text_8">
      <!-- 17.5 -->
      <g transform="translate(849.390588 664.516562) scale(0.22 -0.22)">
       <use xlink:href="#DejaVuSans-31"/>
       <use xlink:href="#DejaVuSans-37" x="63.623047"/>
       <use xlink:href="#DejaVuSans-2e" x="127.246094"/>
       <use xlink:href="#DejaVuSans-35" x="159.033203"/>
      </g>
     </g>
    </g>
    <g id="text_9">
     <!-- Time (days) -->
     <g transform="translate(488.541562 689.808437) scale(0.22 -0.22)">
      <defs>
       <path id="DejaVuSans-54" d="M -19 4666 
L 3928 4666 
L 3928 4134 
L 2272 4134 
L 2272 0 
L 1638 0 
L 1638 4134 
L -19 4134 
L -19 4666 
z
" transform="scale(0.015625)"/>
       <path id="DejaVuSans-69" d="M 603 3500 
L 1178 3500 
L 1178 0 
L 603 0 
L 603 3500 
z
M 603 4863 
L 1178 4863 
L 1178 4134 
L 603 4134 
L 603 4863 
z
" transform="scale(0.015625)"/>
       <path id="DejaVuSans-6d" d="M 3328 2828 
Q 3544 3216 3844 3400 
Q 4144 3584 4550 3584 
Q 5097 3584 5394 3201 
Q 5691 2819 5691 2113 
L 5691 0 
L 5113 0 
L 5113 2094 
Q 5113 2597 4934 2840 
Q 4756 3084 4391 3084 
Q 3944 3084 3684 2787 
Q 3425 2491 3425 1978 
L 3425 0 
L 2847 0 
L 2847 2094 
Q 2847 2600 2669 2842 
Q 2491 3084 2119 3084 
Q 1678 3084 1418 2786 
Q 1159 2488 1159 1978 
L 1159 0 
L 581 0 
L 581 3500 
L 1159 3500 
L 1159 2956 
Q 1356 3278 1631 3431 
Q 1906 3584 2284 3584 
Q 2666 3584 2933 3390 
Q 3200 3197 3328 2828 
z
" transform="scale(0.015625)"/>
       <path id="DejaVuSans-65" d="M 3597 1894 
L 3597 1613 
L 953 1613 
Q 991 1019 1311 708 
Q 1631 397 2203 397 
Q 2534 397 2845 478 
Q 3156 559 3463 722 
L 3463 178 
Q 3153 47 2828 -22 
Q 2503 -91 2169 -91 
Q 1331 -91 842 396 
Q 353 884 353 1716 
Q 353 2575 817 3079 
Q 1281 3584 2069 3584 
Q 2775 3584 3186 3129 
Q 3597 2675 3597 1894 
z
M 3022 2063 
Q 3016 2534 2758 2815 
Q 2500 3097 2075 3097 
Q 1594 3097 1305 2825 
Q 1016 2553 972 2059 
L 3022 2063 
z
" transform="scale(0.015625)"/>
       <path id="DejaVuSans-20" transform="scale(0.015625)"/>
       <path id="DejaVuSans-28" d="M 1984 4856 
Q 1566 4138 1362 3434 
Q 1159 2731 1159 2009 
Q 1159 1288 1364 580 
Q 1569 -128 1984 -844 
L 1484 -844 
Q 1016 -109 783 600 
Q 550 1309 550 2009 
Q 550 2706 781 3412 
Q 1013 4119 1484 4856 
L 1984 4856 
z
" transform="scale(0.015625)"/>
       <path id="DejaVuSans-64" d="M 2906 2969 
L 2906 4863 
L 3481 4863 
L 3481 0 
L 2906 0 
L 2906 525 
Q 2725 213 2448 61 
Q 2172 -91 1784 -91 
Q 1150 -91 751 415 
Q 353 922 353 1747 
Q 353 2572 751 3078 
Q 1150 3584 1784 3584 
Q 2172 3584 2448 3432 
Q 2725 3281 2906 2969 
z
M 947 1747 
Q 947 1113 1208 752 
Q 1469 391 1925 391 
Q 2381 391 2643 752 
Q 2906 1113 2906 1747 
Q 2906 2381 2643 2742 
Q 2381 3103 1925 3103 
Q 1469 3103 1208 2742 
Q 947 2381 947 1747 
z
" transform="scale(0.015625)"/>
       <path id="DejaVuSans-61" d="M 2194 1759 
Q 1497 1759 1228 1600 
Q 959 1441 959 1056 
Q 959 750 1161 570 
Q 1363 391 1709 391 
Q 2188 391 2477 730 
Q 2766 1069 2766 1631 
L 2766 1759 
L 2194 1759 
z
M 3341 1997 
L 3341 0 
L 2766 0 
L 2766 531 
Q 2569 213 2275 61 
Q 1981 -91 1556 -91 
Q 1019 -91 701 211 
Q 384 513 384 1019 
Q 384 1609 779 1909 
Q 1175 2209 1959 2209 
L 2766 2209 
L 2766 2266 
Q 2766 2663 2505 2880 
Q 2244 3097 1772 3097 
Q 1472 3097 1187 3025 
Q 903 2953 641 2809 
L 641 3341 
Q 956 3463 1253 3523 
Q 1550 3584 1831 3584 
Q 2591 3584 2966 3190 
Q 3341 2797 3341 1997 
z
" transform="scale(0.015625)"/>
       <path id="DejaVuSans-79" d="M 2059 -325 
Q 1816 -950 1584 -1140 
Q 1353 -1331 966 -1331 
L 506 -1331 
L 506 -850 
L 844 -850 
Q 1081 -850 1212 -737 
Q 1344 -625 1503 -206 
L 1606 56 
L 191 3500 
L 800 3500 
L 1894 763 
L 2988 3500 
L 3597 3500 
L 2059 -325 
z
" transform="scale(0.015625)"/>
       <path id="DejaVuSans-73" d="M 2834 3397 
L 2834 2853 
Q 2591 2978 2328 3040 
Q 2066 3103 1784 3103 
Q 1356 3103 1142 2972 
Q 928 2841 928 2578 
Q 928 2378 1081 2264 
Q 1234 2150 1697 2047 
L 1894 2003 
Q 2506 1872 2764 1633 
Q 3022 1394 3022 966 
Q 3022 478 2636 193 
Q 2250 -91 1575 -91 
Q 1294 -91 989 -36 
Q 684 19 347 128 
L 347 722 
Q 666 556 975 473 
Q 1284 391 1588 391 
Q 1994 391 2212 530 
Q 2431 669 2431 922 
Q 2431 1156 2273 1281 
Q 2116 1406 1581 1522 
L 1381 1569 
Q 847 1681 609 1914 
Q 372 2147 372 2553 
Q 372 3047 722 3315 
Q 1072 3584 1716 3584 
Q 2034 3584 2315 3537 
Q 2597 3491 2834 3397 
z
" transform="scale(0.015625)"/>
       <path id="DejaVuSans-29" d="M 513 4856 
L 1013 4856 
Q 1481 4119 1714 3412 
Q 1947 2706 1947 2009 
Q 1947 1309 1714 600 
Q 1481 -109 1013 -844 
L 513 -844 
Q 928 -128 1133 580 
Q 1338 1288 1338 2009 
Q 1338 2731 1133 3434 
Q 928 4138 513 4856 
z
" transform="scale(0.015625)"/>
      </defs>
      <use xlink:href="#DejaVuSans-54"/>
      <use xlink:href="#DejaVuSans-69" x="57.958984"/>
      <use xlink:href="#DejaVuSans-6d" x="85.742188"/>
      <use xlink:href="#DejaVuSans-65" x="183.154297"/>
      <use xlink:href="#DejaVuSans-20" x="244.677734"/>
      <use xlink:href="#DejaVuSans-28" x="276.464844"/>
      <use xlink:href="#DejaVuSans-64" x="315.478516"/>
      <use xlink:href="#DejaVuSans-61" x="378.955078"/>
      <use xlink:href="#DejaVuSans-79" x="440.234375"/>
      <use xlink:href="#DejaVuSans-73" x="499.414062"/>
      <use xlink:href="#DejaVuSans-29" x="551.513672"/>
     </g>
    </g>
   </g>
   <g id="matplotlib.axis_2">
    <g id="ytick_1">
     <g id="line2d_9">
      <defs>
       <path id="ma600d9e374" d="M 0 0 
L -3.5 0 
" style="stroke: #000000; stroke-width: 0.8"/>
      </defs>
      <g>
       <use xlink:href="#ma600d9e374" x="135" y="615.908529" style="stroke: #000000; stroke-width: 0.8"/>
      </g>
     </g>
     <g id="text_10">
      <!-- 0.00 -->
      <g transform="translate(79.015625 624.26681) scale(0.22 -0.22)">
       <use xlink:href="#DejaVuSans-30"/>
       <use xlink:href="#DejaVuSans-2e" x="63.623047"/>
       <use xlink:href="#DejaVuSans-30" x="95.410156"/>
       <use xlink:href="#DejaVuSans-30" x="159.033203"/>
      </g>
     </g>
    </g>
    <g id="ytick_2">
     <g id="line2d_10">
      <g>
       <use xlink:href="#ma600d9e374" x="135" y="544.201469" style="stroke: #000000; stroke-width: 0.8"/>
      </g>
     </g>
     <g id="text_11">
      <!-- 0.25 -->
      <g transform="translate(79.015625 552.559751) scale(0.22 -0.22)">
       <use xlink:href="#DejaVuSans-30"/>
       <use xlink:href="#DejaVuSans-2e" x="63.623047"/>
       <use xlink:href="#DejaVuSans-32" x="95.410156"/>
       <use xlink:href="#DejaVuSans-35" x="159.033203"/>
      </g>
     </g>
    </g>
    <g id="ytick_3">
     <g id="line2d_11">
      <g>
       <use xlink:href="#ma600d9e374" x="135" y="472.49441" style="stroke: #000000; stroke-width: 0.8"/>
      </g>
     </g>
     <g id="text_12">
      <!-- 0.50 -->
      <g transform="translate(79.015625 480.852691) scale(0.22 -0.22)">
       <use xlink:href="#DejaVuSans-30"/>
       <use xlink:href="#DejaVuSans-2e" x="63.623047"/>
       <use xlink:href="#DejaVuSans-35" x="95.410156"/>
       <use xlink:href="#DejaVuSans-30" x="159.033203"/>
      </g>
     </g>
    </g>
    <g id="ytick_4">
     <g id="line2d_12">
      <g>
       <use xlink:href="#ma600d9e374" x="135" y="400.78735" style="stroke: #000000; stroke-width: 0.8"/>
      </g>
     </g>
     <g id="text_13">
      <!-- 0.75 -->
      <g transform="translate(79.015625 409.145632) scale(0.22 -0.22)">
       <use xlink:href="#DejaVuSans-30"/>
       <use xlink:href="#DejaVuSans-2e" x="63.623047"/>
       <use xlink:href="#DejaVuSans-37" x="95.410156"/>
       <use xlink:href="#DejaVuSans-35" x="159.033203"/>
      </g>
     </g>
    </g>
    <g id="ytick_5">
     <g id="line2d_13">
      <g>
       <use xlink:href="#ma600d9e374" x="135" y="329.080291" style="stroke: #000000; stroke-width: 0.8"/>
      </g>
     </g>
     <g id="text_14">
      <!-- 1.00 -->
      <g transform="translate(79.015625 337.438572) scale(0.22 -0.22)">
       <use xlink:href="#DejaVuSans-31"/>
       <use xlink:href="#DejaVuSans-2e" x="63.623047"/>
       <use xlink:href="#DejaVuSans-30" x="95.410156"/>
       <use xlink:href="#DejaVuSans-30" x="159.033203"/>
      </g>
     </g>
    </g>
    <g id="ytick_6">
     <g id="line2d_14">
      <g>
       <use xlink:href="#ma600d9e374" x="135" y="257.373231" style="stroke: #000000; stroke-width: 0.8"/>
      </g>
     </g>
     <g id="text_15">
      <!-- 1.25 -->
      <g transform="translate(79.015625 265.731513) scale(0.22 -0.22)">
       <use xlink:href="#DejaVuSans-31"/>
       <use xlink:href="#DejaVuSans-2e" x="63.623047"/>
       <use xlink:href="#DejaVuSans-32" x="95.410156"/>
       <use xlink:href="#DejaVuSans-35" x="159.033203"/>
      </g>
     </g>
    </g>
    <g id="ytick_7">
     <g id="line2d_15">
      <g>
       <use xlink:href="#ma600d9e374" x="135" y="185.666172" style="stroke: #000000; stroke-width: 0.8"/>
      </g>
     </g>
     <g id="text_16">
      <!-- 1.50 -->
      <g transform="translate(79.015625 194.024453) scale(0.22 -0.22)">
       <use xlink:href="#DejaVuSans-31"/>
       <use xlink:href="#DejaVuSans-2e" x="63.623047"/>
       <use xlink:href="#DejaVuSans-35" x="95.410156"/>
       <use xlink:href="#DejaVuSans-30" x="159.033203"/>
      </g>
     </g>
    </g>
    <g id="ytick_8">
     <g id="line2d_16">
      <g>
       <use xlink:href="#ma600d9e374" x="135" y="113.959112" style="stroke: #000000; stroke-width: 0.8"/>
      </g>
     </g>
     <g id="text_17">
      <!-- 1.75 -->
      <g transform="translate(79.015625 122.317393) scale(0.22 -0.22)">
       <use xlink:href="#DejaVuSans-31"/>
       <use xlink:href="#DejaVuSans-2e" x="63.623047"/>
       <use xlink:href="#DejaVuSans-37" x="95.410156"/>
       <use xlink:href="#DejaVuSans-35" x="159.033203"/>
      </g>
     </g>
    </g>
    <g id="text_18">
     <!-- X:A -->
     <g transform="translate(70.440313 382.365312) rotate(-90) scale(0.22 -0.22)">
      <defs>
       <path id="DejaVuSans-58" d="M 403 4666 
L 1081 4666 
L 2241 2931 
L 3406 4666 
L 4084 4666 
L 2584 2425 
L 4184 0 
L 3506 0 
L 2194 1984 
L 872 0 
L 191 0 
L 1856 2491 
L 403 4666 
z
" transform="scale(0.015625)"/>
       <path id="DejaVuSans-3a" d="M 750 794 
L 1409 794 
L 1409 0 
L 750 0 
L 750 794 
z
M 750 3309 
L 1409 3309 
L 1409 2516 
L 750 2516 
L 750 3309 
z
" transform="scale(0.015625)"/>
       <path id="DejaVuSans-41" d="M 2188 4044 
L 1331 1722 
L 3047 1722 
L 2188 4044 
z
M 1831 4666 
L 2547 4666 
L 4325 0 
L 3669 0 
L 3244 1197 
L 1141 1197 
L 716 0 
L 50 0 
L 1831 4666 
z
" transform="scale(0.015625)"/>
      </defs>
      <use xlink:href="#DejaVuSans-58"/>
      <use xlink:href="#DejaVuSans-3a" x="68.505859"/>
      <use xlink:href="#DejaVuSans-41" x="102.197266"/>
     </g>
    </g>
   </g>
   <g id="line2d_17">
    <path d="M 173.045455 615.6 
L 180.731405 594.763837 
L 188.417355 583.044144 
L 196.103306 575.673403 
L 203.789256 570.651466 
L 211.475207 567.051167 
L 219.161157 564.365001 
L 226.847107 562.226718 
L 234.533058 560.49656 
L 242.219008 559.054524 
L 249.904959 557.787289 
L 257.590909 556.656032 
L 265.27686 555.640463 
L 272.96281 554.711235 
L 280.64876 553.832741 
L 288.334711 552.993693 
L 296.020661 552.19533 
L 303.706612 551.433272 
L 311.392562 550.699303 
L 319.078512 549.981372 
L 326.764463 549.268791 
L 334.450413 548.565034 
L 342.136364 547.871 
L 349.822314 547.185674 
L 357.508264 546.506313 
L 365.194215 545.828451 
L 372.880165 545.145896 
L 380.566116 544.450699 
L 388.252066 543.736525 
L 395.938017 543.007379 
L 403.623967 542.267157 
L 411.309917 541.517143 
L 418.995868 540.756005 
L 426.681818 539.979801 
L 434.367769 539.181976 
L 442.053719 538.353359 
L 449.739669 537.482169 
L 457.42562 536.554011 
L 465.11157 535.557917 
L 472.797521 534.502124 
L 480.483471 533.391679 
L 488.169421 532.224621 
L 495.855372 530.992061 
L 503.541322 529.678186 
L 511.227273 528.260256 
L 518.913223 526.708604 
L 526.599174 524.987892 
L 534.285124 523.082859 
L 541.971074 520.987919 
L 549.657025 518.682214 
L 557.342975 516.129622 
L 565.028926 513.278752 
L 572.714876 510.062946 
L 580.400826 506.400281 
L 588.086777 502.193565 
L 595.772727 497.365761 
L 603.458678 491.810072 
L 611.144628 485.372111 
L 618.830579 477.929436 
L 626.516529 469.391928 
L 634.202479 459.701791 
L 641.88843 448.833553 
L 649.57438 436.790047 
L 657.260331 423.676352 
L 664.946281 410.0012 
L 672.632231 396.28178 
L 680.318182 382.951393 
L 688.004132 370.359453 
L 695.690083 358.771487 
L 703.376033 348.369132 
L 711.061983 339.247198 
L 718.747934 331.423438 
L 726.433884 324.869727 
L 734.119835 319.487241 
L 741.805785 315.104213 
L 749.491736 311.485315 
L 757.177686 308.50957 
L 764.863636 306.121792 
L 772.549587 304.238258 
L 780.235537 302.756511 
L 787.921488 301.555682 
L 795.607438 300.552475 
L 803.293388 299.744614 
L 810.979339 299.121937 
L 818.665289 298.659766 
L 826.35124 298.318902 
L 834.03719 298.045633 
L 841.72314 297.782265 
L 849.409091 297.540995 
L 857.095041 297.346926 
L 864.780992 297.211729 
L 872.466942 297.135399 
L 880.152893 297.106257 
L 887.838843 297.100945 
L 895.524793 297.084434 
L 903.210744 297.024853 
L 910.896694 296.971086 
L 918.582645 296.932688 
L 926.268595 296.906224 
L 933.954545 296.885649 
" clip-path="url(#p294e5309c2)" style="fill: none; stroke: #d0e1f2; stroke-width: 1.5; stroke-linecap: square"/>
   </g>
   <g id="line2d_18">
    <path d="M 173.045455 156.22457 
L 180.731405 189.343598 
L 188.417355 210.598075 
L 196.103306 224.380108 
L 203.789256 233.427046 
L 211.475207 239.383743 
L 219.161157 243.284682 
L 226.847107 245.93297 
L 234.533058 247.667914 
L 242.219008 248.774542 
L 249.904959 249.548343 
L 257.590909 250.079334 
L 265.27686 250.397018 
L 272.96281 250.571113 
L 280.64876 250.703633 
L 288.334711 250.815078 
L 296.020661 250.879363 
L 303.706612 250.894039 
L 311.392562 250.874739 
L 319.078512 250.855183 
L 326.764463 250.866126 
L 334.450413 250.881193 
L 342.136364 250.88393 
L 349.822314 250.866566 
L 357.508264 250.829263 
L 365.194215 250.78011 
L 372.880165 250.735132 
L 380.566116 250.718487 
L 388.252066 250.748962 
L 395.938017 250.796452 
L 403.623967 250.82938 
L 411.309917 250.827153 
L 418.995868 250.78016 
L 426.681818 250.689775 
L 434.367769 250.568354 
L 442.053719 250.439237 
L 449.739669 250.336748 
L 457.42562 250.306193 
L 465.11157 250.37418 
L 472.797521 250.469306 
L 480.483471 250.52873 
L 488.169421 250.516369 
L 495.855372 250.422485 
L 503.541322 250.263692 
L 511.227273 250.082948 
L 518.913223 249.949559 
L 526.599174 249.949758 
L 534.285124 250.032688 
L 541.971074 250.099528 
L 549.657025 250.092287 
L 557.342975 249.983721 
L 565.028926 249.777341 
L 572.714876 249.50741 
L 580.400826 249.238942 
L 588.086777 249.067704 
L 595.772727 249.023753 
L 603.458678 248.963637 
L 611.144628 248.804544 
L 618.830579 248.500932 
L 626.516529 248.044038 
L 634.202479 247.461879 
L 641.88843 246.819256 
L 649.57438 246.21597 
L 657.260331 245.654455 
L 664.946281 244.972152 
L 672.632231 244.062427 
L 680.318182 242.895947 
L 688.004132 241.520679 
L 695.690083 240.061891 
L 703.376033 238.72215 
L 711.061983 237.701473 
L 718.747934 236.788691 
L 726.433884 235.855062 
L 734.119835 234.89172 
L 741.805785 233.98823 
L 749.491736 233.312246 
L 757.177686 232.793955 
L 764.863636 232.329975 
L 772.549587 231.893125 
L 780.235537 231.498105 
L 787.921488 231.200644 
L 795.607438 231.003473 
L 803.293388 230.844863 
L 810.979339 230.695181 
L 818.665289 230.543799 
L 826.35124 230.399095 
L 834.03719 230.288449 
L 841.72314 230.248247 
L 849.409091 230.249637 
L 857.095041 230.251049 
L 864.780992 230.22808 
L 872.466942 230.172093 
L 880.152893 230.090217 
L 887.838843 230.005346 
L 895.524793 229.956141 
L 903.210744 229.977794 
L 910.896694 230.001914 
L 918.582645 230.013069 
L 926.268595 230.01453 
L 933.954545 230.014796 
" clip-path="url(#p294e5309c2)" style="fill: none; stroke: #fdd9b4; stroke-width: 1.5; stroke-linecap: square"/>
   </g>
   <g id="line2d_19">
    <path d="M 173.045455 615.6 
L 180.731405 612.374801 
L 188.417355 610.005609 
L 196.103306 608.134601 
L 203.789256 606.595087 
L 211.475207 605.29237 
L 219.161157 604.161777 
L 226.847107 603.166081 
L 234.533058 602.273556 
L 242.219008 601.461386 
L 249.904959 600.716015 
L 257.590909 600.02776 
L 265.27686 599.382224 
L 272.96281 598.769148 
L 280.64876 598.183999 
L 288.334711 597.627878 
L 296.020661 597.097089 
L 303.706612 596.57852 
L 311.392562 596.067291 
L 319.078512 595.567928 
L 326.764463 595.084001 
L 334.450413 594.601768 
L 342.136364 594.115225 
L 349.822314 593.628418 
L 357.508264 593.149399 
L 365.194215 592.665193 
L 372.880165 592.166259 
L 380.566116 591.65481 
L 388.252066 591.142379 
L 395.938017 590.619842 
L 403.623967 590.072114 
L 411.309917 589.498121 
L 418.995868 588.909441 
L 426.681818 588.300487 
L 434.367769 587.65337 
L 442.053719 586.963948 
L 449.739669 586.239658 
L 457.42562 585.472682 
L 465.11157 584.644811 
L 472.797521 583.748086 
L 480.483471 582.782368 
L 488.169421 581.73361 
L 495.855372 580.578425 
L 503.541322 579.299144 
L 511.227273 577.882638 
L 518.913223 576.302898 
L 526.599174 574.517476 
L 534.285124 572.483182 
L 541.971074 570.155587 
L 549.657025 567.476548 
L 557.342975 564.352368 
L 565.028926 560.672754 
L 572.714876 556.308721 
L 580.400826 551.106293 
L 588.086777 544.841993 
L 595.772727 537.250378 
L 603.458678 528.045932 
L 611.144628 516.929563 
L 618.830579 503.587395 
L 626.516529 487.817818 
L 634.202479 469.689089 
L 641.88843 449.541418 
L 649.57438 428.062267 
L 657.260331 406.15898 
L 664.946281 384.810604 
L 672.632231 364.926906 
L 680.318182 347.069637 
L 688.004132 331.552978 
L 695.690083 318.448502 
L 703.376033 307.606137 
L 711.061983 298.788152 
L 718.747934 291.720942 
L 726.433884 286.108435 
L 734.119835 281.692345 
L 741.805785 278.243365 
L 749.491736 275.554698 
L 757.177686 273.464765 
L 764.863636 271.855256 
L 772.549587 270.620329 
L 780.235537 269.666472 
L 787.921488 268.928803 
L 795.607438 268.361443 
L 803.293388 267.92633 
L 810.979339 267.593957 
L 818.665289 267.342823 
L 826.35124 267.1504 
L 834.03719 266.997319 
L 841.72314 266.877443 
L 849.409091 266.79202 
L 857.095041 266.726371 
L 864.780992 266.672432 
L 872.466942 266.630406 
L 880.152893 266.603036 
L 887.838843 266.581694 
L 895.524793 266.561482 
L 903.210744 266.543871 
L 910.896694 266.534831 
L 918.582645 266.528806 
L 926.268595 266.522104 
L 933.954545 266.516618 
" clip-path="url(#p294e5309c2)" style="fill: none; stroke: #79b5d9; stroke-width: 1.5; stroke-linecap: square"/>
   </g>
   <g id="line2d_20">
    <path d="M 173.045455 156.22457 
L 180.731405 149.573538 
L 188.417355 146.773852 
L 196.103306 145.854095 
L 203.789256 145.63048 
L 211.475207 145.656075 
L 219.161157 145.932014 
L 226.847107 146.093816 
L 234.533058 146.298584 
L 242.219008 146.620698 
L 249.904959 146.872576 
L 257.590909 146.881261 
L 265.27686 146.981591 
L 272.96281 147.343413 
L 280.64876 147.829992 
L 288.334711 148.003647 
L 296.020661 147.811518 
L 303.706612 147.905979 
L 311.392562 148.395725 
L 319.078512 148.746443 
L 326.764463 148.507218 
L 334.450413 148.484708 
L 342.136364 148.946214 
L 349.822314 149.432529 
L 357.508264 149.191682 
L 365.194215 149.011896 
L 372.880165 149.439436 
L 380.566116 150.13809 
L 388.252066 150.066078 
L 395.938017 149.707903 
L 403.623967 150.000443 
L 411.309917 150.795318 
L 418.995868 150.954016 
L 426.681818 150.610811 
L 434.367769 150.826106 
L 442.053719 151.548933 
L 449.739669 151.768428 
L 457.42562 151.59153 
L 465.11157 151.878196 
L 472.797521 152.563282 
L 480.483471 152.828595 
L 488.169421 152.807181 
L 495.855372 153.220001 
L 503.541322 154.034023 
L 511.227273 154.526692 
L 518.913223 154.616679 
L 526.599174 155.170823 
L 534.285124 156.319864 
L 541.971074 157.399888 
L 549.657025 157.790065 
L 557.342975 158.612558 
L 565.028926 160.35473 
L 572.714876 162.479927 
L 580.400826 163.924341 
L 588.086777 165.79909 
L 595.772727 168.966266 
L 603.458678 173.08268 
L 611.144628 177.083447 
L 618.830579 182.083623 
L 626.516529 188.995535 
L 634.202479 197.340327 
L 641.88843 205.970513 
L 649.57438 215.818029 
L 657.260331 227.103084 
L 664.946281 238.363906 
L 672.632231 248.386105 
L 680.318182 258.209512 
L 688.004132 267.554481 
L 695.690083 275.000329 
L 703.376033 281.202318 
L 711.061983 286.6976 
L 718.747934 291.065131 
L 726.433884 294.357111 
L 734.119835 297.138245 
L 741.805785 299.452867 
L 749.491736 301.044117 
L 757.177686 302.237864 
L 764.863636 303.339506 
L 772.549587 304.323296 
L 780.235537 304.860647 
L 787.921488 305.008725 
L 795.607438 305.33042 
L 803.293388 305.962242 
L 810.979339 306.549561 
L 818.665289 306.463865 
L 826.35124 306.309687 
L 834.03719 306.518819 
L 841.72314 306.833747 
L 849.409091 306.707714 
L 857.095041 306.615932 
L 864.780992 306.747585 
L 872.466942 306.889419 
L 880.152893 306.73552 
L 887.838843 306.635577 
L 895.524793 306.765283 
L 903.210744 306.979317 
L 910.896694 306.909815 
L 918.582645 306.808304 
L 926.268595 306.837602 
L 933.954545 306.878179 
" clip-path="url(#p294e5309c2)" style="fill: none; stroke: #fd9649; stroke-width: 1.5; stroke-linecap: square"/>
   </g>
   <g id="line2d_21">
    <path d="M 173.045455 615.6 
L 180.731405 606.171187 
L 188.417355 599.865005 
L 196.103306 595.644336 
L 203.789256 592.819459 
L 211.475207 590.932426 
L 219.161157 589.658509 
L 226.847107 588.813879 
L 234.533058 588.242531 
L 242.219008 587.85051 
L 249.904959 587.591984 
L 257.590909 587.416383 
L 265.27686 587.285057 
L 272.96281 587.192197 
L 280.64876 587.128903 
L 288.334711 587.080198 
L 296.020661 587.032239 
L 303.706612 586.988332 
L 311.392562 586.949472 
L 319.078512 586.913634 
L 326.764463 586.875859 
L 334.450413 586.829382 
L 342.136364 586.775589 
L 349.822314 586.716517 
L 357.508264 586.652354 
L 365.194215 586.582015 
L 372.880165 586.503147 
L 380.566116 586.412125 
L 388.252066 586.304388 
L 395.938017 586.180735 
L 403.623967 586.040393 
L 411.309917 585.880456 
L 418.995868 585.697581 
L 426.681818 585.487993 
L 434.367769 585.247479 
L 442.053719 584.971391 
L 449.739669 584.654646 
L 457.42562 584.291726 
L 465.11157 583.876492 
L 472.797521 583.399635 
L 480.483471 582.850269 
L 488.169421 582.216992 
L 495.855372 581.487597 
L 503.541322 580.645699 
L 511.227273 579.670662 
L 518.913223 578.541146 
L 526.599174 577.241725 
L 534.285124 575.73684 
L 541.971074 573.9672 
L 549.657025 571.885015 
L 557.342975 569.454514 
L 565.028926 566.650058 
L 572.714876 563.389013 
L 580.400826 559.529631 
L 588.086777 554.96062 
L 595.772727 549.606418 
L 603.458678 543.418261 
L 611.144628 536.158781 
L 618.830579 527.536359 
L 626.516529 517.385103 
L 634.202479 505.665998 
L 641.88843 492.254875 
L 649.57438 476.678117 
L 657.260331 458.67136 
L 664.946281 438.275971 
L 672.632231 415.626656 
L 680.318182 390.530792 
L 688.004132 363.232472 
L 695.690083 334.542579 
L 703.376033 305.882868 
L 711.061983 281.108217 
L 718.747934 264.120977 
L 726.433884 257.421138 
L 734.119835 260.609018 
L 741.805785 268.480448 
L 749.491736 276.527856 
L 757.177686 282.080127 
L 764.863636 283.822741 
L 772.549587 283.304908 
L 780.235537 281.673145 
L 787.921488 279.694911 
L 795.607438 277.934838 
L 803.293388 277.008094 
L 810.979339 276.915536 
L 818.665289 277.102022 
L 826.35124 277.602335 
L 834.03719 278.267287 
L 841.72314 278.826108 
L 849.409091 279.009129 
L 857.095041 278.976131 
L 864.780992 278.801266 
L 872.466942 278.542185 
L 880.152893 278.340334 
L 887.838843 278.347627 
L 895.524793 278.421205 
L 903.210744 278.555789 
L 910.896694 278.733729 
L 918.582645 278.892057 
L 926.268595 278.922487 
L 933.954545 278.671411 
" clip-path="url(#p294e5309c2)" style="fill: none; stroke: #2575b7; stroke-width: 1.5; stroke-linecap: square"/>
   </g>
   <g id="line2d_22">
    <path d="M 173.045455 156.22457 
L 180.731405 156.232166 
L 188.417355 156.240827 
L 196.103306 156.250704 
L 203.789256 156.261967 
L 211.475207 156.274809 
L 219.161157 156.289453 
L 226.847107 156.306151 
L 234.533058 156.325191 
L 242.219008 156.346899 
L 249.904959 156.37165 
L 257.590909 156.399871 
L 265.27686 156.432045 
L 272.96281 156.468724 
L 280.64876 156.510537 
L 288.334711 156.558203 
L 296.020661 156.61254 
L 303.706612 156.67447 
L 311.392562 156.745043 
L 319.078512 156.825472 
L 326.764463 156.91713 
L 334.450413 157.021566 
L 342.136364 157.140551 
L 349.822314 157.27604 
L 357.508264 157.430309 
L 365.194215 157.605981 
L 372.880165 157.806019 
L 380.566116 158.03373 
L 388.252066 158.292776 
L 395.938017 158.587359 
L 403.623967 158.922123 
L 411.309917 159.302413 
L 418.995868 159.734373 
L 426.681818 160.22494 
L 434.367769 160.781845 
L 442.053719 161.413615 
L 449.739669 162.129572 
L 457.42562 162.939831 
L 465.11157 163.855392 
L 472.797521 164.889111 
L 480.483471 166.054821 
L 488.169421 167.367316 
L 495.855372 168.842462 
L 503.541322 170.497149 
L 511.227273 172.349052 
L 518.913223 174.41633 
L 526.599174 176.717292 
L 534.285124 179.270515 
L 541.971074 182.093956 
L 549.657025 185.203484 
L 557.342975 188.612859 
L 565.028926 192.333582 
L 572.714876 196.373497 
L 580.400826 200.73613 
L 588.086777 205.41977 
L 595.772727 210.417345 
L 603.458678 215.716537 
L 611.144628 221.29938 
L 618.830579 227.143168 
L 626.516529 233.2215 
L 634.202479 239.504234 
L 641.88843 245.957811 
L 649.57438 252.551782 
L 657.260331 259.251596 
L 664.946281 266.016089 
L 672.632231 272.74794 
L 680.318182 279.457682 
L 688.004132 286.040945 
L 695.690083 292.010113 
L 703.376033 296.532453 
L 711.061983 298.612666 
L 718.747934 297.473213 
L 726.433884 293.361706 
L 734.119835 289.441336 
L 741.805785 287.050345 
L 749.491736 285.714182 
L 757.177686 286.363955 
L 764.863636 287.704821 
L 772.549587 288.556672 
L 780.235537 289.207747 
L 787.921488 289.554903 
L 795.607438 289.60249 
L 803.293388 289.478735 
L 810.979339 289.269536 
L 818.665289 288.996531 
L 826.35124 288.742194 
L 834.03719 288.643153 
L 841.72314 288.703807 
L 849.409091 288.799552 
L 857.095041 288.897878 
L 864.780992 288.964768 
L 872.466942 288.972701 
L 880.152893 288.934694 
L 887.838843 288.879756 
L 895.524793 288.78982 
L 903.210744 288.735763 
L 910.896694 288.7601 
L 918.582645 288.862509 
L 926.268595 288.999831 
L 933.954545 289.086073 
" clip-path="url(#p294e5309c2)" style="fill: none; stroke: #dc4c03; stroke-width: 1.5; stroke-linecap: square"/>
   </g>
   <g id="line2d_23">
    <path d="M 173.045455 615.6 
L 180.731405 525.591929 
L 188.417355 490.891877 
L 196.103306 477.89288 
L 203.789256 472.971541 
L 211.475207 471.034349 
L 219.161157 470.309417 
L 226.847107 469.978781 
L 234.533058 469.875988 
L 242.219008 469.784436 
L 249.904959 469.794004 
L 257.590909 469.765614 
L 265.27686 469.700811 
L 272.96281 469.755995 
L 280.64876 469.839449 
L 288.334711 469.724323 
L 296.020661 469.693811 
L 303.706612 469.845701 
L 311.392562 469.780249 
L 319.078512 469.634045 
L 326.764463 469.8069 
L 334.450413 469.898645 
L 342.136364 469.641378 
L 349.822314 469.741581 
L 357.508264 469.962291 
L 365.194215 469.719682 
L 372.880165 469.744053 
L 380.566116 469.905584 
L 388.252066 469.733319 
L 395.938017 469.760815 
L 403.623967 469.84695 
L 411.309917 469.712158 
L 418.995868 469.750312 
L 426.681818 469.851919 
L 434.367769 469.690242 
L 442.053719 469.696458 
L 449.739669 469.891094 
L 457.42562 469.743806 
L 465.11157 469.617183 
L 472.797521 469.871956 
L 480.483471 469.878538 
L 488.169421 469.649692 
L 495.855372 469.82664 
L 503.541322 469.883698 
L 511.227273 469.709253 
L 518.913223 469.817909 
L 526.599174 469.813723 
L 534.285124 469.711733 
L 541.971074 469.807826 
L 549.657025 469.788737 
L 557.342975 469.679384 
L 565.028926 469.788073 
L 572.714876 469.846609 
L 580.400826 469.636831 
L 588.086777 469.709509 
L 595.772727 469.951725 
L 603.458678 469.719331 
L 611.144628 469.642608 
L 618.830579 469.943341 
L 626.516529 469.818297 
L 634.202479 469.698808 
L 641.88843 469.887296 
L 649.57438 469.783013 
L 657.260331 469.731698 
L 664.946281 469.844737 
L 672.632231 469.741025 
L 680.318182 469.718184 
L 688.004132 469.84042 
L 695.690083 469.735112 
L 703.376033 469.650498 
L 711.061983 469.833813 
L 718.747934 469.852415 
L 726.433884 469.596746 
L 734.119835 469.74562 
L 741.805785 469.999163 
L 749.491736 469.707017 
L 757.177686 469.724753 
L 764.863636 469.951718 
L 772.549587 469.752096 
L 780.235537 469.765786 
L 787.921488 469.848317 
L 795.607438 469.725145 
L 803.293388 469.7681 
L 810.979339 469.821176 
L 818.665289 469.688541 
L 826.35124 469.732663 
L 834.03719 469.874334 
L 841.72314 469.686406 
L 849.409091 469.618677 
L 857.095041 469.896401 
L 864.780992 469.881511 
L 872.466942 469.708867 
L 880.152893 469.845593 
L 887.838843 469.802269 
L 895.524793 469.732421 
L 903.210744 469.821301 
L 910.896694 469.749456 
L 918.582645 469.704128 
L 926.268595 469.819167 
L 933.954545 469.810669 
" clip-path="url(#p294e5309c2)" style="fill: none; stroke: #08306b; stroke-width: 1.5; stroke-linecap: square"/>
   </g>
   <g id="line2d_24">
    <path d="M 173.045455 156.22457 
L 180.731405 169.955726 
L 188.417355 185.533029 
L 196.103306 195.573843 
L 203.789256 201.259013 
L 211.475207 204.287917 
L 219.161157 205.860898 
L 226.847107 206.654424 
L 234.533058 207.048725 
L 242.219008 207.250572 
L 249.904959 207.341784 
L 257.590909 207.38165 
L 265.27686 207.394964 
L 272.96281 207.425072 
L 280.64876 207.452438 
L 288.334711 207.405496 
L 296.020661 207.397355 
L 303.706612 207.47908 
L 311.392562 207.445194 
L 319.078512 207.368064 
L 326.764463 207.462769 
L 334.450413 207.512724 
L 342.136364 207.373002 
L 349.822314 207.42802 
L 357.508264 207.548389 
L 365.194215 207.415953 
L 372.880165 207.429469 
L 380.566116 207.517731 
L 388.252066 207.423485 
L 395.938017 207.438611 
L 403.623967 207.485736 
L 411.309917 207.411944 
L 418.995868 207.43286 
L 426.681818 207.48846 
L 434.367769 207.400007 
L 442.053719 207.403442 
L 449.739669 207.509864 
L 457.42562 207.429347 
L 465.11157 207.360288 
L 472.797521 207.499403 
L 480.483471 207.502833 
L 488.169421 207.377974 
L 495.855372 207.474706 
L 503.541322 207.505706 
L 511.227273 207.410359 
L 518.913223 207.469885 
L 526.599174 207.467527 
L 534.285124 207.411713 
L 541.971074 207.46435 
L 549.657025 207.45387 
L 557.342975 207.394038 
L 565.028926 207.453534 
L 572.714876 207.485526 
L 580.400826 207.370906 
L 588.086777 207.41066 
L 595.772727 207.542923 
L 603.458678 207.415993 
L 611.144628 207.374265 
L 618.830579 207.538363 
L 626.516529 207.469885 
L 634.202479 207.404737 
L 641.88843 207.507828 
L 649.57438 207.450685 
L 657.260331 207.422655 
L 664.946281 207.484556 
L 672.632231 207.427741 
L 680.318182 207.415258 
L 688.004132 207.482183 
L 695.690083 207.424548 
L 703.376033 207.378309 
L 711.061983 207.47855 
L 718.747934 207.488665 
L 726.433884 207.349178 
L 734.119835 207.430488 
L 741.805785 207.568696 
L 749.491736 207.409194 
L 757.177686 207.419072 
L 764.863636 207.542937 
L 772.549587 207.433735 
L 780.235537 207.44134 
L 787.921488 207.486491 
L 795.607438 207.419038 
L 803.293388 207.442591 
L 810.979339 207.471638 
L 818.665289 207.399038 
L 826.35124 207.423205 
L 834.03719 207.500714 
L 841.72314 207.398009 
L 849.409091 207.361083 
L 857.095041 207.512721 
L 864.780992 207.504415 
L 872.466942 207.410145 
L 880.152893 207.485027 
L 887.838843 207.461239 
L 895.524793 207.423023 
L 903.210744 207.471727 
L 910.896694 207.432358 
L 918.582645 207.40755 
L 926.268595 207.470546 
L 933.954545 207.465857 
" clip-path="url(#p294e5309c2)" style="fill: none; stroke: #7f2704; stroke-width: 1.5; stroke-linecap: square"/>
   </g>
   <g id="patch_3">
    <path d="M 135 640.8 
L 135 86.4 
" style="fill: none; stroke: #000000; stroke-width: 0.8; stroke-linejoin: miter; stroke-linecap: square"/>
   </g>
   <g id="patch_4">
    <path d="M 972 640.8 
L 972 86.4 
" style="fill: none; stroke: #000000; stroke-width: 0.8; stroke-linejoin: miter; stroke-linecap: square"/>
   </g>
   <g id="patch_5">
    <path d="M 135 640.8 
L 972 640.8 
" style="fill: none; stroke: #000000; stroke-width: 0.8; stroke-linejoin: miter; stroke-linecap: square"/>
   </g>
   <g id="patch_6">
    <path d="M 135 86.4 
L 972 86.4 
" style="fill: none; stroke: #000000; stroke-width: 0.8; stroke-linejoin: miter; stroke-linecap: square"/>
   </g>
   <g id="legend_1">
    <g id="patch_7">
     <path d="M 788.193437 629.8 
L 956.6 629.8 
Q 961 629.8 961 625.4 
L 961 304.68125 
Q 961 300.28125 956.6 300.28125 
L 788.193437 300.28125 
Q 783.793437 300.28125 783.793437 304.68125 
L 783.793437 625.4 
Q 783.793437 629.8 788.193437 629.8 
z
" style="fill: #ffffff; opacity: 0.8; stroke: #cccccc; stroke-linejoin: miter"/>
    </g>
    <g id="PathCollection_3">
     <g>
      <use xlink:href="#m80f1702e56" x="814.593437" y="320.022812" style="fill: #1f77b4; stroke: #1f77b4"/>
     </g>
    </g>
    <g id="text_19">
     <!-- Xi -->
     <g transform="translate(854.193437 325.797812) scale(0.22 -0.22)">
      <use xlink:href="#DejaVuSans-58"/>
      <use xlink:href="#DejaVuSans-69" x="68.505859"/>
     </g>
    </g>
    <g id="PathCollection_4">
     <g>
      <use xlink:href="#m62fcbac0dc" x="814.593437" y="352.314687" style="fill: #ff7f0e; stroke: #ff7f0e"/>
     </g>
    </g>
    <g id="text_20">
     <!-- Xa -->
     <g transform="translate(854.193437 358.089687) scale(0.22 -0.22)">
      <use xlink:href="#DejaVuSans-58"/>
      <use xlink:href="#DejaVuSans-61" x="68.505859"/>
     </g>
    </g>
    <g id="line2d_25">
     <path d="M 792.593437 382.681562 
L 814.593437 382.681562 
L 836.593437 382.681562 
" style="fill: none; stroke: #d0e1f2; stroke-width: 1.5; stroke-linecap: square"/>
    </g>
    <g id="text_21">
     <!-- Xi-AAAA -->
     <g transform="translate(854.193437 390.381562) scale(0.22 -0.22)">
      <defs>
       <path id="DejaVuSans-2d" d="M 313 2009 
L 1997 2009 
L 1997 1497 
L 313 1497 
L 313 2009 
z
" transform="scale(0.015625)"/>
      </defs>
      <use xlink:href="#DejaVuSans-58"/>
      <use xlink:href="#DejaVuSans-69" x="68.505859"/>
      <use xlink:href="#DejaVuSans-2d" x="96.289062"/>
      <use xlink:href="#DejaVuSans-41" x="130.123047"/>
      <use xlink:href="#DejaVuSans-41" x="201.28125"/>
      <use xlink:href="#DejaVuSans-41" x="272.439453"/>
      <use xlink:href="#DejaVuSans-41" x="343.597656"/>
     </g>
    </g>
    <g id="line2d_26">
     <path d="M 792.593437 414.973437 
L 814.593437 414.973437 
L 836.593437 414.973437 
" style="fill: none; stroke: #fdd9b4; stroke-width: 1.5; stroke-linecap: square"/>
    </g>
    <g id="text_22">
     <!-- Xa-AAAA -->
     <g transform="translate(854.193437 422.673437) scale(0.22 -0.22)">
      <use xlink:href="#DejaVuSans-58"/>
      <use xlink:href="#DejaVuSans-61" x="68.505859"/>
      <use xlink:href="#DejaVuSans-2d" x="129.785156"/>
      <use xlink:href="#DejaVuSans-41" x="163.619141"/>
      <use xlink:href="#DejaVuSans-41" x="234.777344"/>
      <use xlink:href="#DejaVuSans-41" x="305.935547"/>
      <use xlink:href="#DejaVuSans-41" x="377.09375"/>
     </g>
    </g>
    <g id="line2d_27">
     <path d="M 792.593437 447.265312 
L 814.593437 447.265312 
L 836.593437 447.265312 
" style="fill: none; stroke: #79b5d9; stroke-width: 1.5; stroke-linecap: square"/>
    </g>
    <g id="text_23">
     <!-- Xi-AIAA -->
     <g transform="translate(854.193437 454.965312) scale(0.22 -0.22)">
      <defs>
       <path id="DejaVuSans-49" d="M 628 4666 
L 1259 4666 
L 1259 0 
L 628 0 
L 628 4666 
z
" transform="scale(0.015625)"/>
      </defs>
      <use xlink:href="#DejaVuSans-58"/>
      <use xlink:href="#DejaVuSans-69" x="68.505859"/>
      <use xlink:href="#DejaVuSans-2d" x="96.289062"/>
      <use xlink:href="#DejaVuSans-41" x="130.123047"/>
      <use xlink:href="#DejaVuSans-49" x="198.53125"/>
      <use xlink:href="#DejaVuSans-41" x="228.023438"/>
      <use xlink:href="#DejaVuSans-41" x="299.181641"/>
     </g>
    </g>
    <g id="line2d_28">
     <path d="M 792.593437 479.557187 
L 814.593437 479.557187 
L 836.593437 479.557187 
" style="fill: none; stroke: #fd9649; stroke-width: 1.5; stroke-linecap: square"/>
    </g>
    <g id="text_24">
     <!-- Xa-AIAA -->
     <g transform="translate(854.193437 487.257187) scale(0.22 -0.22)">
      <use xlink:href="#DejaVuSans-58"/>
      <use xlink:href="#DejaVuSans-61" x="68.505859"/>
      <use xlink:href="#DejaVuSans-2d" x="129.785156"/>
      <use xlink:href="#DejaVuSans-41" x="163.619141"/>
      <use xlink:href="#DejaVuSans-49" x="232.027344"/>
      <use xlink:href="#DejaVuSans-41" x="261.519531"/>
      <use xlink:href="#DejaVuSans-41" x="332.677734"/>
     </g>
    </g>
    <g id="line2d_29">
     <path d="M 792.593437 511.849063 
L 814.593437 511.849063 
L 836.593437 511.849063 
" style="fill: none; stroke: #2575b7; stroke-width: 1.5; stroke-linecap: square"/>
    </g>
    <g id="text_25">
     <!-- Xi-IAAA -->
     <g transform="translate(854.193437 519.549062) scale(0.22 -0.22)">
      <use xlink:href="#DejaVuSans-58"/>
      <use xlink:href="#DejaVuSans-69" x="68.505859"/>
      <use xlink:href="#DejaVuSans-2d" x="96.289062"/>
      <use xlink:href="#DejaVuSans-49" x="132.373047"/>
      <use xlink:href="#DejaVuSans-41" x="161.865234"/>
      <use xlink:href="#DejaVuSans-41" x="233.023438"/>
      <use xlink:href="#DejaVuSans-41" x="304.181641"/>
     </g>
    </g>
    <g id="line2d_30">
     <path d="M 792.593437 544.140937 
L 814.593437 544.140937 
L 836.593437 544.140937 
" style="fill: none; stroke: #dc4c03; stroke-width: 1.5; stroke-linecap: square"/>
    </g>
    <g id="text_26">
     <!-- Xa-IAAA -->
     <g transform="translate(854.193437 551.840937) scale(0.22 -0.22)">
      <use xlink:href="#DejaVuSans-58"/>
      <use xlink:href="#DejaVuSans-61" x="68.505859"/>
      <use xlink:href="#DejaVuSans-2d" x="129.785156"/>
      <use xlink:href="#DejaVuSans-49" x="165.869141"/>
      <use xlink:href="#DejaVuSans-41" x="195.361328"/>
      <use xlink:href="#DejaVuSans-41" x="266.519531"/>
      <use xlink:href="#DejaVuSans-41" x="337.677734"/>
     </g>
    </g>
    <g id="line2d_31">
     <path d="M 792.593437 576.432812 
L 814.593437 576.432812 
L 836.593437 576.432812 
" style="fill: none; stroke: #08306b; stroke-width: 1.5; stroke-linecap: square"/>
    </g>
    <g id="text_27">
     <!-- Xi-IIAA -->
     <g transform="translate(854.193437 584.132812) scale(0.22 -0.22)">
      <use xlink:href="#DejaVuSans-58"/>
      <use xlink:href="#DejaVuSans-69" x="68.505859"/>
      <use xlink:href="#DejaVuSans-2d" x="96.289062"/>
      <use xlink:href="#DejaVuSans-49" x="132.373047"/>
      <use xlink:href="#DejaVuSans-49" x="161.865234"/>
      <use xlink:href="#DejaVuSans-41" x="191.357422"/>
      <use xlink:href="#DejaVuSans-41" x="262.515625"/>
     </g>
    </g>
    <g id="line2d_32">
     <path d="M 792.593437 608.724687 
L 814.593437 608.724687 
L 836.593437 608.724687 
" style="fill: none; stroke: #7f2704; stroke-width: 1.5; stroke-linecap: square"/>
    </g>
    <g id="text_28">
     <!-- Xa-IIAA -->
     <g transform="translate(854.193437 616.424688) scale(0.22 -0.22)">
      <use xlink:href="#DejaVuSans-58"/>
      <use xlink:href="#DejaVuSans-61" x="68.505859"/>
      <use xlink:href="#DejaVuSans-2d" x="129.785156"/>
      <use xlink:href="#DejaVuSans-49" x="165.869141"/>
      <use xlink:href="#DejaVuSans-49" x="195.361328"/>
      <use xlink:href="#DejaVuSans-41" x="224.853516"/>
      <use xlink:href="#DejaVuSans-41" x="296.011719"/>
     </g>
    </g>
   </g>
  </g>
 </g>
 <defs>
  <clipPath id="p294e5309c2">
   <rect x="135" y="86.4" width="837" height="554.4"/>
  </clipPath>
 </defs>
</svg>
