<?xml version="1.0" encoding="utf-8" standalone="no"?>
<!DOCTYPE svg PUBLIC "-//W3C//DTD SVG 1.1//EN"
  "http://www.w3.org/Graphics/SVG/1.1/DTD/svg11.dtd">
<svg xmlns:xlink="http://www.w3.org/1999/xlink" width="1080pt" height="720pt" viewBox="0 0 1080 720" xmlns="http://www.w3.org/2000/svg" version="1.1">
 <metadata>
  <rdf:RDF xmlns:dc="http://purl.org/dc/elements/1.1/" xmlns:cc="http://creativecommons.org/ns#" xmlns:rdf="http://www.w3.org/1999/02/22-rdf-syntax-ns#">
   <cc:Work>
    <dc:type rdf:resource="http://purl.org/dc/dcmitype/StillImage"/>
    <dc:date>2023-01-11T19:55:44.899470</dc:date>
    <dc:format>image/svg+xml</dc:format>
    <dc:creator>
     <cc:Agent>
      <dc:title>Matplotlib v3.6.2, https://matplotlib.org/</dc:title>
     </cc:Agent>
    </dc:creator>
   </cc:Work>
  </rdf:RDF>
 </metadata>
 <defs>
  <style type="text/css">*{stroke-linejoin: round; stroke-linecap: butt}</style>
 </defs>
 <g id="figure_1">
  <g id="patch_1">
   <path d="M 0 720 
L 1080 720 
L 1080 0 
L 0 0 
z
" style="fill: #ffffff"/>
  </g>
  <g id="axes_1">
   <g id="patch_2">
    <path d="M 104.42 643.48 
L 886.39 643.48 
L 886.39 23.76 
L 104.42 23.76 
z
" style="fill: #ffffff"/>
   </g>
   <g id="PathCollection_1">
    <defs>
     <path id="m80f1702e56" d="M 0 3 
C 0.795609 3 1.55874 2.683901 2.12132 2.12132 
C 2.683901 1.55874 3 0.795609 3 0 
C 3 -0.795609 2.683901 -1.55874 2.12132 -2.12132 
C 1.55874 -2.683901 0.795609 -3 0 -3 
C -0.795609 -3 -1.55874 -2.683901 -2.12132 -2.12132 
C -2.683901 -1.55874 -3 -0.795609 -3 0 
C -3 0.795609 -2.683901 1.55874 -2.12132 2.12132 
C -1.55874 2.683901 -0.795609 3 0 3 
z
" style="stroke: #1f77b4"/>
    </defs>
    <g clip-path="url(#p6bcd6ea3a9)">
     <use xlink:href="#m80f1702e56" x="139.964091" y="615.310909" style="fill: #1f77b4; stroke: #1f77b4"/>
     <use xlink:href="#m80f1702e56" x="228.824318" y="581.002683" style="fill: #1f77b4; stroke: #1f77b4"/>
     <use xlink:href="#m80f1702e56" x="317.684545" y="569.371903" style="fill: #1f77b4; stroke: #1f77b4"/>
     <use xlink:href="#m80f1702e56" x="406.544773" y="567.018417" style="fill: #1f77b4; stroke: #1f77b4"/>
     <use xlink:href="#m80f1702e56" x="495.405" y="522.988588" style="fill: #1f77b4; stroke: #1f77b4"/>
     <use xlink:href="#m80f1702e56" x="584.265227" y="478.95876" style="fill: #1f77b4; stroke: #1f77b4"/>
     <use xlink:href="#m80f1702e56" x="673.125455" y="242.420357" style="fill: #1f77b4; stroke: #1f77b4"/>
     <use xlink:href="#m80f1702e56" x="761.985682" y="242.420357" style="fill: #1f77b4; stroke: #1f77b4"/>
     <use xlink:href="#m80f1702e56" x="850.845909" y="242.420357" style="fill: #1f77b4; stroke: #1f77b4"/>
    </g>
   </g>
   <g id="PathCollection_2">
    <defs>
     <path id="m62fcbac0dc" d="M 0 3 
C 0.795609 3 1.55874 2.683901 2.12132 2.12132 
C 2.683901 1.55874 3 0.795609 3 0 
C 3 -0.795609 2.683901 -1.55874 2.12132 -2.12132 
C 1.55874 -2.683901 0.795609 -3 0 -3 
C -0.795609 -3 -1.55874 -2.683901 -2.12132 -2.12132 
C -2.683901 -1.55874 -3 -0.795609 -3 0 
C -3 0.795609 -2.683901 1.55874 -2.12132 2.12132 
C -1.55874 2.683901 -0.795609 3 0 3 
z
" style="stroke: #ff7f0e"/>
    </defs>
    <g clip-path="url(#p6bcd6ea3a9)">
     <use xlink:href="#m62fcbac0dc" x="139.964091" y="101.811376" style="fill: #ff7f0e; stroke: #ff7f0e"/>
     <use xlink:href="#m62fcbac0dc" x="228.824318" y="80.860695" style="fill: #ff7f0e; stroke: #ff7f0e"/>
     <use xlink:href="#m62fcbac0dc" x="317.684545" y="113.550867" style="fill: #ff7f0e; stroke: #ff7f0e"/>
     <use xlink:href="#m62fcbac0dc" x="406.544773" y="51.929091" style="fill: #ff7f0e; stroke: #ff7f0e"/>
     <use xlink:href="#m62fcbac0dc" x="495.405" y="90.127012" style="fill: #ff7f0e; stroke: #ff7f0e"/>
     <use xlink:href="#m62fcbac0dc" x="584.265227" y="128.324932" style="fill: #ff7f0e; stroke: #ff7f0e"/>
     <use xlink:href="#m62fcbac0dc" x="673.125455" y="271.164856" style="fill: #ff7f0e; stroke: #ff7f0e"/>
     <use xlink:href="#m62fcbac0dc" x="761.985682" y="271.164856" style="fill: #ff7f0e; stroke: #ff7f0e"/>
     <use xlink:href="#m62fcbac0dc" x="850.845909" y="271.164856" style="fill: #ff7f0e; stroke: #ff7f0e"/>
    </g>
   </g>
   <g id="matplotlib.axis_1">
    <g id="xtick_1">
     <g id="line2d_1">
      <defs>
       <path id="m3385fdae1e" d="M 0 0 
L 0 3.5 
" style="stroke: #000000; stroke-width: 0.8"/>
      </defs>
      <g>
       <use xlink:href="#m3385fdae1e" x="139.964091" y="643.48" style="stroke: #000000; stroke-width: 0.8"/>
      </g>
     </g>
     <g id="text_1">
      <!-- 7 -->
      <g transform="translate(132.965341 667.196563) scale(0.22 -0.22)">
       <defs>
        <path id="DejaVuSans-37" d="M 525 4666 
L 3525 4666 
L 3525 4397 
L 1831 0 
L 1172 0 
L 2766 4134 
L 525 4134 
L 525 4666 
z
" transform="scale(0.015625)"/>
       </defs>
       <use xlink:href="#DejaVuSans-37"/>
      </g>
     </g>
    </g>
    <g id="xtick_2">
     <g id="line2d_2">
      <g>
       <use xlink:href="#m3385fdae1e" x="228.824318" y="643.48" style="stroke: #000000; stroke-width: 0.8"/>
      </g>
     </g>
     <g id="text_2">
      <!-- 8 -->
      <g transform="translate(221.825568 667.196563) scale(0.22 -0.22)">
       <defs>
        <path id="DejaVuSans-38" d="M 2034 2216 
Q 1584 2216 1326 1975 
Q 1069 1734 1069 1313 
Q 1069 891 1326 650 
Q 1584 409 2034 409 
Q 2484 409 2743 651 
Q 3003 894 3003 1313 
Q 3003 1734 2745 1975 
Q 2488 2216 2034 2216 
z
M 1403 2484 
Q 997 2584 770 2862 
Q 544 3141 544 3541 
Q 544 4100 942 4425 
Q 1341 4750 2034 4750 
Q 2731 4750 3128 4425 
Q 3525 4100 3525 3541 
Q 3525 3141 3298 2862 
Q 3072 2584 2669 2484 
Q 3125 2378 3379 2068 
Q 3634 1759 3634 1313 
Q 3634 634 3220 271 
Q 2806 -91 2034 -91 
Q 1263 -91 848 271 
Q 434 634 434 1313 
Q 434 1759 690 2068 
Q 947 2378 1403 2484 
z
M 1172 3481 
Q 1172 3119 1398 2916 
Q 1625 2713 2034 2713 
Q 2441 2713 2670 2916 
Q 2900 3119 2900 3481 
Q 2900 3844 2670 4047 
Q 2441 4250 2034 4250 
Q 1625 4250 1398 4047 
Q 1172 3844 1172 3481 
z
" transform="scale(0.015625)"/>
       </defs>
       <use xlink:href="#DejaVuSans-38"/>
      </g>
     </g>
    </g>
    <g id="xtick_3">
     <g id="line2d_3">
      <g>
       <use xlink:href="#m3385fdae1e" x="317.684545" y="643.48" style="stroke: #000000; stroke-width: 0.8"/>
      </g>
     </g>
     <g id="text_3">
      <!-- 9 -->
      <g transform="translate(310.685795 667.196563) scale(0.22 -0.22)">
       <defs>
        <path id="DejaVuSans-39" d="M 703 97 
L 703 672 
Q 941 559 1184 500 
Q 1428 441 1663 441 
Q 2288 441 2617 861 
Q 2947 1281 2994 2138 
Q 2813 1869 2534 1725 
Q 2256 1581 1919 1581 
Q 1219 1581 811 2004 
Q 403 2428 403 3163 
Q 403 3881 828 4315 
Q 1253 4750 1959 4750 
Q 2769 4750 3195 4129 
Q 3622 3509 3622 2328 
Q 3622 1225 3098 567 
Q 2575 -91 1691 -91 
Q 1453 -91 1209 -44 
Q 966 3 703 97 
z
M 1959 2075 
Q 2384 2075 2632 2365 
Q 2881 2656 2881 3163 
Q 2881 3666 2632 3958 
Q 2384 4250 1959 4250 
Q 1534 4250 1286 3958 
Q 1038 3666 1038 3163 
Q 1038 2656 1286 2365 
Q 1534 2075 1959 2075 
z
" transform="scale(0.015625)"/>
       </defs>
       <use xlink:href="#DejaVuSans-39"/>
      </g>
     </g>
    </g>
    <g id="xtick_4">
     <g id="line2d_4">
      <g>
       <use xlink:href="#m3385fdae1e" x="406.544773" y="643.48" style="stroke: #000000; stroke-width: 0.8"/>
      </g>
     </g>
     <g id="text_4">
      <!-- 10 -->
      <g transform="translate(392.547273 667.196563) scale(0.22 -0.22)">
       <defs>
        <path id="DejaVuSans-31" d="M 794 531 
L 1825 531 
L 1825 4091 
L 703 3866 
L 703 4441 
L 1819 4666 
L 2450 4666 
L 2450 531 
L 3481 531 
L 3481 0 
L 794 0 
L 794 531 
z
" transform="scale(0.015625)"/>
        <path id="DejaVuSans-30" d="M 2034 4250 
Q 1547 4250 1301 3770 
Q 1056 3291 1056 2328 
Q 1056 1369 1301 889 
Q 1547 409 2034 409 
Q 2525 409 2770 889 
Q 3016 1369 3016 2328 
Q 3016 3291 2770 3770 
Q 2525 4250 2034 4250 
z
M 2034 4750 
Q 2819 4750 3233 4129 
Q 3647 3509 3647 2328 
Q 3647 1150 3233 529 
Q 2819 -91 2034 -91 
Q 1250 -91 836 529 
Q 422 1150 422 2328 
Q 422 3509 836 4129 
Q 1250 4750 2034 4750 
z
" transform="scale(0.015625)"/>
       </defs>
       <use xlink:href="#DejaVuSans-31"/>
       <use xlink:href="#DejaVuSans-30" x="63.623047"/>
      </g>
     </g>
    </g>
    <g id="xtick_5">
     <g id="line2d_5">
      <g>
       <use xlink:href="#m3385fdae1e" x="495.405" y="643.48" style="stroke: #000000; stroke-width: 0.8"/>
      </g>
     </g>
     <g id="text_5">
      <!-- 11 -->
      <g transform="translate(481.4075 667.196563) scale(0.22 -0.22)">
       <use xlink:href="#DejaVuSans-31"/>
       <use xlink:href="#DejaVuSans-31" x="63.623047"/>
      </g>
     </g>
    </g>
    <g id="xtick_6">
     <g id="line2d_6">
      <g>
       <use xlink:href="#m3385fdae1e" x="584.265227" y="643.48" style="stroke: #000000; stroke-width: 0.8"/>
      </g>
     </g>
     <g id="text_6">
      <!-- 12 -->
      <g transform="translate(570.267727 667.196563) scale(0.22 -0.22)">
       <defs>
        <path id="DejaVuSans-32" d="M 1228 531 
L 3431 531 
L 3431 0 
L 469 0 
L 469 531 
Q 828 903 1448 1529 
Q 2069 2156 2228 2338 
Q 2531 2678 2651 2914 
Q 2772 3150 2772 3378 
Q 2772 3750 2511 3984 
Q 2250 4219 1831 4219 
Q 1534 4219 1204 4116 
Q 875 4013 500 3803 
L 500 4441 
Q 881 4594 1212 4672 
Q 1544 4750 1819 4750 
Q 2544 4750 2975 4387 
Q 3406 4025 3406 3419 
Q 3406 3131 3298 2873 
Q 3191 2616 2906 2266 
Q 2828 2175 2409 1742 
Q 1991 1309 1228 531 
z
" transform="scale(0.015625)"/>
       </defs>
       <use xlink:href="#DejaVuSans-31"/>
       <use xlink:href="#DejaVuSans-32" x="63.623047"/>
      </g>
     </g>
    </g>
    <g id="xtick_7">
     <g id="line2d_7">
      <g>
       <use xlink:href="#m3385fdae1e" x="673.125455" y="643.48" style="stroke: #000000; stroke-width: 0.8"/>
      </g>
     </g>
     <g id="text_7">
      <!-- 13 -->
      <g transform="translate(659.127955 667.196563) scale(0.22 -0.22)">
       <defs>
        <path id="DejaVuSans-33" d="M 2597 2516 
Q 3050 2419 3304 2112 
Q 3559 1806 3559 1356 
Q 3559 666 3084 287 
Q 2609 -91 1734 -91 
Q 1441 -91 1130 -33 
Q 819 25 488 141 
L 488 750 
Q 750 597 1062 519 
Q 1375 441 1716 441 
Q 2309 441 2620 675 
Q 2931 909 2931 1356 
Q 2931 1769 2642 2001 
Q 2353 2234 1838 2234 
L 1294 2234 
L 1294 2753 
L 1863 2753 
Q 2328 2753 2575 2939 
Q 2822 3125 2822 3475 
Q 2822 3834 2567 4026 
Q 2313 4219 1838 4219 
Q 1578 4219 1281 4162 
Q 984 4106 628 3988 
L 628 4550 
Q 988 4650 1302 4700 
Q 1616 4750 1894 4750 
Q 2613 4750 3031 4423 
Q 3450 4097 3450 3541 
Q 3450 3153 3228 2886 
Q 3006 2619 2597 2516 
z
" transform="scale(0.015625)"/>
       </defs>
       <use xlink:href="#DejaVuSans-31"/>
       <use xlink:href="#DejaVuSans-33" x="63.623047"/>
      </g>
     </g>
    </g>
    <g id="xtick_8">
     <g id="line2d_8">
      <g>
       <use xlink:href="#m3385fdae1e" x="761.985682" y="643.48" style="stroke: #000000; stroke-width: 0.8"/>
      </g>
     </g>
     <g id="text_8">
      <!-- 14 -->
      <g transform="translate(747.988182 667.196563) scale(0.22 -0.22)">
       <defs>
        <path id="DejaVuSans-34" d="M 2419 4116 
L 825 1625 
L 2419 1625 
L 2419 4116 
z
M 2253 4666 
L 3047 4666 
L 3047 1625 
L 3713 1625 
L 3713 1100 
L 3047 1100 
L 3047 0 
L 2419 0 
L 2419 1100 
L 313 1100 
L 313 1709 
L 2253 4666 
z
" transform="scale(0.015625)"/>
       </defs>
       <use xlink:href="#DejaVuSans-31"/>
       <use xlink:href="#DejaVuSans-34" x="63.623047"/>
      </g>
     </g>
    </g>
    <g id="xtick_9">
     <g id="line2d_9">
      <g>
       <use xlink:href="#m3385fdae1e" x="850.845909" y="643.48" style="stroke: #000000; stroke-width: 0.8"/>
      </g>
     </g>
     <g id="text_9">
      <!-- 15 -->
      <g transform="translate(836.848409 667.196563) scale(0.22 -0.22)">
       <defs>
        <path id="DejaVuSans-35" d="M 691 4666 
L 3169 4666 
L 3169 4134 
L 1269 4134 
L 1269 2991 
Q 1406 3038 1543 3061 
Q 1681 3084 1819 3084 
Q 2600 3084 3056 2656 
Q 3513 2228 3513 1497 
Q 3513 744 3044 326 
Q 2575 -91 1722 -91 
Q 1428 -91 1123 -41 
Q 819 9 494 109 
L 494 744 
Q 775 591 1075 516 
Q 1375 441 1709 441 
Q 2250 441 2565 725 
Q 2881 1009 2881 1497 
Q 2881 1984 2565 2268 
Q 2250 2553 1709 2553 
Q 1456 2553 1204 2497 
Q 953 2441 691 2322 
L 691 4666 
z
" transform="scale(0.015625)"/>
       </defs>
       <use xlink:href="#DejaVuSans-31"/>
       <use xlink:href="#DejaVuSans-35" x="63.623047"/>
      </g>
     </g>
    </g>
    <g id="text_10">
     <!-- Time (days) -->
     <g transform="translate(430.446563 692.488438) scale(0.22 -0.22)">
      <defs>
       <path id="DejaVuSans-54" d="M -19 4666 
L 3928 4666 
L 3928 4134 
L 2272 4134 
L 2272 0 
L 1638 0 
L 1638 4134 
L -19 4134 
L -19 4666 
z
" transform="scale(0.015625)"/>
       <path id="DejaVuSans-69" d="M 603 3500 
L 1178 3500 
L 1178 0 
L 603 0 
L 603 3500 
z
M 603 4863 
L 1178 4863 
L 1178 4134 
L 603 4134 
L 603 4863 
z
" transform="scale(0.015625)"/>
       <path id="DejaVuSans-6d" d="M 3328 2828 
Q 3544 3216 3844 3400 
Q 4144 3584 4550 3584 
Q 5097 3584 5394 3201 
Q 5691 2819 5691 2113 
L 5691 0 
L 5113 0 
L 5113 2094 
Q 5113 2597 4934 2840 
Q 4756 3084 4391 3084 
Q 3944 3084 3684 2787 
Q 3425 2491 3425 1978 
L 3425 0 
L 2847 0 
L 2847 2094 
Q 2847 2600 2669 2842 
Q 2491 3084 2119 3084 
Q 1678 3084 1418 2786 
Q 1159 2488 1159 1978 
L 1159 0 
L 581 0 
L 581 3500 
L 1159 3500 
L 1159 2956 
Q 1356 3278 1631 3431 
Q 1906 3584 2284 3584 
Q 2666 3584 2933 3390 
Q 3200 3197 3328 2828 
z
" transform="scale(0.015625)"/>
       <path id="DejaVuSans-65" d="M 3597 1894 
L 3597 1613 
L 953 1613 
Q 991 1019 1311 708 
Q 1631 397 2203 397 
Q 2534 397 2845 478 
Q 3156 559 3463 722 
L 3463 178 
Q 3153 47 2828 -22 
Q 2503 -91 2169 -91 
Q 1331 -91 842 396 
Q 353 884 353 1716 
Q 353 2575 817 3079 
Q 1281 3584 2069 3584 
Q 2775 3584 3186 3129 
Q 3597 2675 3597 1894 
z
M 3022 2063 
Q 3016 2534 2758 2815 
Q 2500 3097 2075 3097 
Q 1594 3097 1305 2825 
Q 1016 2553 972 2059 
L 3022 2063 
z
" transform="scale(0.015625)"/>
       <path id="DejaVuSans-20" transform="scale(0.015625)"/>
       <path id="DejaVuSans-28" d="M 1984 4856 
Q 1566 4138 1362 3434 
Q 1159 2731 1159 2009 
Q 1159 1288 1364 580 
Q 1569 -128 1984 -844 
L 1484 -844 
Q 1016 -109 783 600 
Q 550 1309 550 2009 
Q 550 2706 781 3412 
Q 1013 4119 1484 4856 
L 1984 4856 
z
" transform="scale(0.015625)"/>
       <path id="DejaVuSans-64" d="M 2906 2969 
L 2906 4863 
L 3481 4863 
L 3481 0 
L 2906 0 
L 2906 525 
Q 2725 213 2448 61 
Q 2172 -91 1784 -91 
Q 1150 -91 751 415 
Q 353 922 353 1747 
Q 353 2572 751 3078 
Q 1150 3584 1784 3584 
Q 2172 3584 2448 3432 
Q 2725 3281 2906 2969 
z
M 947 1747 
Q 947 1113 1208 752 
Q 1469 391 1925 391 
Q 2381 391 2643 752 
Q 2906 1113 2906 1747 
Q 2906 2381 2643 2742 
Q 2381 3103 1925 3103 
Q 1469 3103 1208 2742 
Q 947 2381 947 1747 
z
" transform="scale(0.015625)"/>
       <path id="DejaVuSans-61" d="M 2194 1759 
Q 1497 1759 1228 1600 
Q 959 1441 959 1056 
Q 959 750 1161 570 
Q 1363 391 1709 391 
Q 2188 391 2477 730 
Q 2766 1069 2766 1631 
L 2766 1759 
L 2194 1759 
z
M 3341 1997 
L 3341 0 
L 2766 0 
L 2766 531 
Q 2569 213 2275 61 
Q 1981 -91 1556 -91 
Q 1019 -91 701 211 
Q 384 513 384 1019 
Q 384 1609 779 1909 
Q 1175 2209 1959 2209 
L 2766 2209 
L 2766 2266 
Q 2766 2663 2505 2880 
Q 2244 3097 1772 3097 
Q 1472 3097 1187 3025 
Q 903 2953 641 2809 
L 641 3341 
Q 956 3463 1253 3523 
Q 1550 3584 1831 3584 
Q 2591 3584 2966 3190 
Q 3341 2797 3341 1997 
z
" transform="scale(0.015625)"/>
       <path id="DejaVuSans-79" d="M 2059 -325 
Q 1816 -950 1584 -1140 
Q 1353 -1331 966 -1331 
L 506 -1331 
L 506 -850 
L 844 -850 
Q 1081 -850 1212 -737 
Q 1344 -625 1503 -206 
L 1606 56 
L 191 3500 
L 800 3500 
L 1894 763 
L 2988 3500 
L 3597 3500 
L 2059 -325 
z
" transform="scale(0.015625)"/>
       <path id="DejaVuSans-73" d="M 2834 3397 
L 2834 2853 
Q 2591 2978 2328 3040 
Q 2066 3103 1784 3103 
Q 1356 3103 1142 2972 
Q 928 2841 928 2578 
Q 928 2378 1081 2264 
Q 1234 2150 1697 2047 
L 1894 2003 
Q 2506 1872 2764 1633 
Q 3022 1394 3022 966 
Q 3022 478 2636 193 
Q 2250 -91 1575 -91 
Q 1294 -91 989 -36 
Q 684 19 347 128 
L 347 722 
Q 666 556 975 473 
Q 1284 391 1588 391 
Q 1994 391 2212 530 
Q 2431 669 2431 922 
Q 2431 1156 2273 1281 
Q 2116 1406 1581 1522 
L 1381 1569 
Q 847 1681 609 1914 
Q 372 2147 372 2553 
Q 372 3047 722 3315 
Q 1072 3584 1716 3584 
Q 2034 3584 2315 3537 
Q 2597 3491 2834 3397 
z
" transform="scale(0.015625)"/>
       <path id="DejaVuSans-29" d="M 513 4856 
L 1013 4856 
Q 1481 4119 1714 3412 
Q 1947 2706 1947 2009 
Q 1947 1309 1714 600 
Q 1481 -109 1013 -844 
L 513 -844 
Q 928 -128 1133 580 
Q 1338 1288 1338 2009 
Q 1338 2731 1133 3434 
Q 928 4138 513 4856 
z
" transform="scale(0.015625)"/>
      </defs>
      <use xlink:href="#DejaVuSans-54"/>
      <use xlink:href="#DejaVuSans-69" x="57.958984"/>
      <use xlink:href="#DejaVuSans-6d" x="85.742188"/>
      <use xlink:href="#DejaVuSans-65" x="183.154297"/>
      <use xlink:href="#DejaVuSans-20" x="244.677734"/>
      <use xlink:href="#DejaVuSans-28" x="276.464844"/>
      <use xlink:href="#DejaVuSans-64" x="315.478516"/>
      <use xlink:href="#DejaVuSans-61" x="378.955078"/>
      <use xlink:href="#DejaVuSans-79" x="440.234375"/>
      <use xlink:href="#DejaVuSans-73" x="499.414062"/>
      <use xlink:href="#DejaVuSans-29" x="551.513672"/>
     </g>
    </g>
   </g>
   <g id="matplotlib.axis_2">
    <g id="ytick_1">
     <g id="line2d_10">
      <defs>
       <path id="ma600d9e374" d="M 0 0 
L -3.5 0 
" style="stroke: #000000; stroke-width: 0.8"/>
      </defs>
      <g>
       <use xlink:href="#ma600d9e374" x="104.42" y="615.655789" style="stroke: #000000; stroke-width: 0.8"/>
      </g>
     </g>
     <g id="text_11">
      <!-- 0.00 -->
      <g transform="translate(48.435625 624.01407) scale(0.22 -0.22)">
       <defs>
        <path id="DejaVuSans-2e" d="M 684 794 
L 1344 794 
L 1344 0 
L 684 0 
L 684 794 
z
" transform="scale(0.015625)"/>
       </defs>
       <use xlink:href="#DejaVuSans-30"/>
       <use xlink:href="#DejaVuSans-2e" x="63.623047"/>
       <use xlink:href="#DejaVuSans-30" x="95.410156"/>
       <use xlink:href="#DejaVuSans-30" x="159.033203"/>
      </g>
     </g>
    </g>
    <g id="ytick_2">
     <g id="line2d_11">
      <g>
       <use xlink:href="#ma600d9e374" x="104.42" y="535.500127" style="stroke: #000000; stroke-width: 0.8"/>
      </g>
     </g>
     <g id="text_12">
      <!-- 0.25 -->
      <g transform="translate(48.435625 543.858409) scale(0.22 -0.22)">
       <use xlink:href="#DejaVuSans-30"/>
       <use xlink:href="#DejaVuSans-2e" x="63.623047"/>
       <use xlink:href="#DejaVuSans-32" x="95.410156"/>
       <use xlink:href="#DejaVuSans-35" x="159.033203"/>
      </g>
     </g>
    </g>
    <g id="ytick_3">
     <g id="line2d_12">
      <g>
       <use xlink:href="#ma600d9e374" x="104.42" y="455.344465" style="stroke: #000000; stroke-width: 0.8"/>
      </g>
     </g>
     <g id="text_13">
      <!-- 0.50 -->
      <g transform="translate(48.435625 463.702747) scale(0.22 -0.22)">
       <use xlink:href="#DejaVuSans-30"/>
       <use xlink:href="#DejaVuSans-2e" x="63.623047"/>
       <use xlink:href="#DejaVuSans-35" x="95.410156"/>
       <use xlink:href="#DejaVuSans-30" x="159.033203"/>
      </g>
     </g>
    </g>
    <g id="ytick_4">
     <g id="line2d_13">
      <g>
       <use xlink:href="#ma600d9e374" x="104.42" y="375.188804" style="stroke: #000000; stroke-width: 0.8"/>
      </g>
     </g>
     <g id="text_14">
      <!-- 0.75 -->
      <g transform="translate(48.435625 383.547085) scale(0.22 -0.22)">
       <use xlink:href="#DejaVuSans-30"/>
       <use xlink:href="#DejaVuSans-2e" x="63.623047"/>
       <use xlink:href="#DejaVuSans-37" x="95.410156"/>
       <use xlink:href="#DejaVuSans-35" x="159.033203"/>
      </g>
     </g>
    </g>
    <g id="ytick_5">
     <g id="line2d_14">
      <g>
       <use xlink:href="#ma600d9e374" x="104.42" y="295.033142" style="stroke: #000000; stroke-width: 0.8"/>
      </g>
     </g>
     <g id="text_15">
      <!-- 1.00 -->
      <g transform="translate(48.435625 303.391423) scale(0.22 -0.22)">
       <use xlink:href="#DejaVuSans-31"/>
       <use xlink:href="#DejaVuSans-2e" x="63.623047"/>
       <use xlink:href="#DejaVuSans-30" x="95.410156"/>
       <use xlink:href="#DejaVuSans-30" x="159.033203"/>
      </g>
     </g>
    </g>
    <g id="ytick_6">
     <g id="line2d_15">
      <g>
       <use xlink:href="#ma600d9e374" x="104.42" y="214.87748" style="stroke: #000000; stroke-width: 0.8"/>
      </g>
     </g>
     <g id="text_16">
      <!-- 1.25 -->
      <g transform="translate(48.435625 223.235761) scale(0.22 -0.22)">
       <use xlink:href="#DejaVuSans-31"/>
       <use xlink:href="#DejaVuSans-2e" x="63.623047"/>
       <use xlink:href="#DejaVuSans-32" x="95.410156"/>
       <use xlink:href="#DejaVuSans-35" x="159.033203"/>
      </g>
     </g>
    </g>
    <g id="ytick_7">
     <g id="line2d_16">
      <g>
       <use xlink:href="#ma600d9e374" x="104.42" y="134.721818" style="stroke: #000000; stroke-width: 0.8"/>
      </g>
     </g>
     <g id="text_17">
      <!-- 1.50 -->
      <g transform="translate(48.435625 143.080099) scale(0.22 -0.22)">
       <use xlink:href="#DejaVuSans-31"/>
       <use xlink:href="#DejaVuSans-2e" x="63.623047"/>
       <use xlink:href="#DejaVuSans-35" x="95.410156"/>
       <use xlink:href="#DejaVuSans-30" x="159.033203"/>
      </g>
     </g>
    </g>
    <g id="ytick_8">
     <g id="line2d_17">
      <g>
       <use xlink:href="#ma600d9e374" x="104.42" y="54.566156" style="stroke: #000000; stroke-width: 0.8"/>
      </g>
     </g>
     <g id="text_18">
      <!-- 1.75 -->
      <g transform="translate(48.435625 62.924438) scale(0.22 -0.22)">
       <use xlink:href="#DejaVuSans-31"/>
       <use xlink:href="#DejaVuSans-2e" x="63.623047"/>
       <use xlink:href="#DejaVuSans-37" x="95.410156"/>
       <use xlink:href="#DejaVuSans-35" x="159.033203"/>
      </g>
     </g>
    </g>
    <g id="text_19">
     <!-- X:A -->
     <g transform="translate(39.860313 352.385312) rotate(-90) scale(0.22 -0.22)">
      <defs>
       <path id="DejaVuSans-58" d="M 403 4666 
L 1081 4666 
L 2241 2931 
L 3406 4666 
L 4084 4666 
L 2584 2425 
L 4184 0 
L 3506 0 
L 2194 1984 
L 872 0 
L 191 0 
L 1856 2491 
L 403 4666 
z
" transform="scale(0.015625)"/>
       <path id="DejaVuSans-3a" d="M 750 794 
L 1409 794 
L 1409 0 
L 750 0 
L 750 794 
z
M 750 3309 
L 1409 3309 
L 1409 2516 
L 750 2516 
L 750 3309 
z
" transform="scale(0.015625)"/>
       <path id="DejaVuSans-41" d="M 2188 4044 
L 1331 1722 
L 3047 1722 
L 2188 4044 
z
M 1831 4666 
L 2547 4666 
L 4325 0 
L 3669 0 
L 3244 1197 
L 1141 1197 
L 716 0 
L 50 0 
L 1831 4666 
z
" transform="scale(0.015625)"/>
      </defs>
      <use xlink:href="#DejaVuSans-58"/>
      <use xlink:href="#DejaVuSans-3a" x="68.505859"/>
      <use xlink:href="#DejaVuSans-41" x="102.197266"/>
     </g>
    </g>
   </g>
   <g id="line2d_18">
    <path d="M 139.964091 615.310909 
L 147.144715 611.684987 
L 154.32534 608.059074 
L 161.505964 604.433168 
L 168.686589 600.807271 
L 175.867213 597.181381 
L 183.047837 593.555499 
L 190.228462 589.929624 
L 197.409086 586.303756 
L 204.589711 582.677895 
L 211.770335 579.052042 
L 218.95096 575.426195 
L 226.131584 571.800354 
L 233.312208 568.17452 
L 240.492833 564.548692 
L 247.673457 560.922871 
L 254.854082 557.297055 
L 262.034706 553.671245 
L 269.215331 550.045441 
L 276.395955 546.419643 
L 283.576579 542.79385 
L 290.757204 539.168062 
L 297.937828 535.54228 
L 305.118453 531.916503 
L 312.299077 528.290753 
L 319.479702 524.665045 
L 326.660326 521.039372 
L 333.84095 517.41373 
L 341.021575 513.788113 
L 348.202199 510.162517 
L 355.382824 506.536937 
L 362.563448 502.911369 
L 369.744073 499.28581 
L 376.924697 495.660255 
L 384.105321 492.034702 
L 391.285946 488.409147 
L 398.46657 484.783587 
L 405.647195 481.15802 
L 412.827819 477.532443 
L 420.008444 473.906855 
L 427.189068 470.281254 
L 434.369692 466.655637 
L 441.550317 463.030005 
L 448.730941 459.404355 
L 455.911566 455.778688 
L 463.09219 452.153002 
L 470.272815 448.527298 
L 477.453439 444.901576 
L 484.634063 441.275835 
L 491.814688 437.650077 
L 498.995312 434.024303 
L 506.175937 430.398513 
L 513.356561 426.772709 
L 520.537185 423.146893 
L 527.71781 419.521066 
L 534.898434 415.895231 
L 542.079059 412.269391 
L 549.259683 408.643547 
L 556.440308 405.017703 
L 563.620932 401.391863 
L 570.801556 397.766029 
L 577.982181 394.140206 
L 585.162805 390.514397 
L 592.34343 386.888608 
L 599.524054 383.262842 
L 606.704679 379.637104 
L 613.885303 376.011399 
L 621.065927 372.385734 
L 628.246552 368.760113 
L 635.427176 365.134542 
L 642.607801 361.509028 
L 649.788425 357.883577 
L 656.96905 354.258195 
L 664.149674 350.632891 
L 671.330298 347.00767 
L 678.510923 343.38254 
L 685.691547 339.75751 
L 692.872172 336.132587 
L 700.052796 332.507779 
L 707.233421 328.883096 
L 714.414045 325.258545 
L 721.594669 321.634136 
L 728.775294 318.009879 
L 735.955918 314.385782 
L 743.136543 310.761856 
L 750.317167 307.138111 
L 757.497792 303.514558 
L 764.678416 299.891207 
L 771.85904 296.268068 
L 779.039665 292.645154 
L 786.220289 289.022476 
L 793.400914 285.400044 
L 800.581538 281.777873 
L 807.762163 278.155973 
L 814.942787 274.534357 
L 822.123411 270.913038 
L 829.304036 267.29203 
L 836.48466 263.671344 
L 843.665285 260.050996 
L 850.845909 256.430999 
" clip-path="url(#p6bcd6ea3a9)" style="fill: none; stroke: #d0e1f2; stroke-width: 1.5; stroke-linecap: square"/>
   </g>
   <g id="line2d_19">
    <path d="M 139.964091 101.811376 
L 147.144715 103.303481 
L 154.32534 104.791254 
L 161.505964 106.274706 
L 168.686589 107.75385 
L 175.867213 109.2287 
L 183.047837 110.699267 
L 190.228462 112.165563 
L 197.409086 113.627602 
L 204.589711 115.085395 
L 211.770335 116.538955 
L 218.95096 117.988294 
L 226.131584 119.433425 
L 233.312208 120.874359 
L 240.492833 122.311109 
L 247.673457 123.743687 
L 254.854082 125.172105 
L 262.034706 126.596375 
L 269.215331 128.01651 
L 276.395955 129.43252 
L 283.576579 130.844419 
L 290.757204 132.252218 
L 297.937828 133.655929 
L 305.118453 135.055564 
L 312.299077 136.451135 
L 319.479702 137.842654 
L 326.660326 139.230133 
L 333.84095 140.613584 
L 341.021575 141.993018 
L 348.202199 143.368447 
L 355.382824 144.739883 
L 362.563448 146.107336 
L 369.744073 147.470819 
L 376.924697 148.830343 
L 384.105321 150.185919 
L 391.285946 151.537558 
L 398.46657 152.885273 
L 405.647195 154.229075 
L 412.827819 155.568974 
L 420.008444 156.904982 
L 427.189068 158.237111 
L 434.369692 159.565371 
L 441.550317 160.889774 
L 448.730941 162.210331 
L 455.911566 163.527054 
L 463.09219 164.839952 
L 470.272815 166.149038 
L 477.453439 167.454322 
L 484.634063 168.755816 
L 491.814688 170.05353 
L 498.995312 171.347475 
L 506.175937 172.637663 
L 513.356561 173.924104 
L 520.537185 175.206809 
L 527.71781 176.485789 
L 534.898434 177.761055 
L 542.079059 179.032617 
L 549.259683 180.300487 
L 556.440308 181.564674 
L 563.620932 182.82519 
L 570.801556 184.082046 
L 577.982181 185.335252 
L 585.162805 186.584818 
L 592.34343 187.830756 
L 599.524054 189.073075 
L 606.704679 190.311786 
L 613.885303 191.546901 
L 621.065927 192.778428 
L 628.246552 194.00638 
L 635.427176 195.230765 
L 642.607801 196.451594 
L 649.788425 197.668879 
L 656.96905 198.882628 
L 664.149674 200.092853 
L 671.330298 201.299564 
L 678.510923 202.50277 
L 685.691547 203.702482 
L 692.872172 204.89871 
L 700.052796 206.091465 
L 707.233421 207.280756 
L 714.414045 208.466594 
L 721.594669 209.648988 
L 728.775294 210.827948 
L 735.955918 212.003486 
L 743.136543 213.175609 
L 750.317167 214.344329 
L 757.497792 215.509655 
L 764.678416 216.671598 
L 771.85904 217.830166 
L 779.039665 218.98537 
L 786.220289 220.137219 
L 793.400914 221.285724 
L 800.581538 222.430894 
L 807.762163 223.572739 
L 814.942787 224.711267 
L 822.123411 225.84649 
L 829.304036 226.978417 
L 836.48466 228.107056 
L 843.665285 229.232418 
L 850.845909 230.354512 
" clip-path="url(#p6bcd6ea3a9)" style="fill: none; stroke: #fdd9b4; stroke-width: 1.5; stroke-linecap: square"/>
   </g>
   <g id="line2d_20">
    <path d="M 139.964091 615.310909 
L 147.144715 611.63796 
L 154.32534 607.964892 
L 161.505964 604.291763 
L 168.686589 600.61863 
L 175.867213 596.945527 
L 183.047837 593.272464 
L 190.228462 589.59944 
L 197.409086 585.926467 
L 204.589711 582.253546 
L 211.770335 578.580669 
L 218.95096 574.907838 
L 226.131584 571.235062 
L 233.312208 567.562348 
L 240.492833 563.889676 
L 247.673457 560.217035 
L 254.854082 556.544436 
L 262.034706 552.871901 
L 269.215331 549.199441 
L 276.395955 545.527018 
L 283.576579 541.854625 
L 290.757204 538.182287 
L 297.937828 534.510018 
L 305.118453 530.837791 
L 312.299077 527.1656 
L 319.479702 523.493462 
L 326.660326 519.821392 
L 333.84095 516.149365 
L 341.021575 512.477372 
L 348.202199 508.805424 
L 355.382824 505.133549 
L 362.563448 501.461741 
L 369.744073 497.789959 
L 376.924697 494.118199 
L 384.105321 490.446492 
L 391.285946 486.774884 
L 398.46657 483.103324 
L 405.647195 479.431791 
L 412.827819 475.760311 
L 420.008444 472.088911 
L 427.189068 468.41756 
L 434.369692 464.746253 
L 441.550317 461.075014 
L 448.730941 457.403856 
L 455.911566 453.732753 
L 463.09219 450.061702 
L 470.272815 446.390729 
L 477.453439 442.719863 
L 484.634063 439.049072 
L 491.814688 435.378355 
L 498.995312 431.707741 
L 506.175937 428.037246 
L 513.356561 424.366848 
L 520.537185 420.696551 
L 527.71781 417.026388 
L 534.898434 413.356356 
L 542.079059 409.686439 
L 549.259683 406.016644 
L 556.440308 402.346993 
L 563.620932 398.677466 
L 570.801556 395.008056 
L 577.982181 391.338766 
L 585.162805 387.669594 
L 592.34343 384.000524 
L 599.524054 380.331553 
L 606.704679 376.662678 
L 613.885303 372.993888 
L 621.065927 369.325178 
L 628.246552 365.656543 
L 635.427176 361.987979 
L 642.607801 358.319482 
L 649.788425 354.651049 
L 656.96905 350.982678 
L 664.149674 347.314363 
L 671.330298 343.646105 
L 678.510923 339.977904 
L 685.691547 336.309757 
L 692.872172 332.641663 
L 700.052796 328.973622 
L 707.233421 325.305634 
L 714.414045 321.637696 
L 721.594669 317.969811 
L 728.775294 314.301977 
L 735.955918 310.634193 
L 743.136543 306.966459 
L 750.317167 303.298777 
L 757.497792 299.631144 
L 764.678416 295.963562 
L 771.85904 292.29603 
L 779.039665 288.628547 
L 786.220289 284.961115 
L 793.400914 281.293733 
L 800.581538 277.6264 
L 807.762163 273.959117 
L 814.942787 270.291884 
L 822.123411 266.6247 
L 829.304036 262.957566 
L 836.48466 259.290482 
L 843.665285 255.623448 
L 850.845909 251.956463 
" clip-path="url(#p6bcd6ea3a9)" style="fill: none; stroke: #79b5d9; stroke-width: 1.5; stroke-linecap: square"/>
   </g>
   <g id="line2d_21">
    <path d="M 139.964091 101.811376 
L 147.144715 89.779848 
L 154.32534 84.671618 
L 161.505964 82.065063 
L 168.686589 80.958647 
L 175.867213 80.401272 
L 183.047837 80.078295 
L 190.228462 80.085027 
L 197.409086 80.010299 
L 204.589711 79.867891 
L 211.770335 79.890973 
L 218.95096 80.031498 
L 226.131584 79.97466 
L 233.312208 79.610233 
L 240.492833 79.475717 
L 247.673457 79.790467 
L 254.854082 80.338171 
L 262.034706 80.466851 
L 269.215331 79.940352 
L 276.395955 79.747868 
L 283.576579 80.086659 
L 290.757204 80.296575 
L 297.937828 79.935253 
L 305.118453 79.808117 
L 312.299077 80.04593 
L 319.479702 80.189172 
L 326.660326 79.839878 
L 333.84095 79.664591 
L 341.021575 79.939014 
L 348.202199 80.361465 
L 355.382824 80.126684 
L 362.563448 79.495622 
L 369.744073 79.531514 
L 376.924697 80.356795 
L 384.105321 81.077199 
L 391.285946 80.558303 
L 398.46657 80.243795 
L 405.647195 80.683037 
L 412.827819 81.184395 
L 420.008444 81.025813 
L 427.189068 81.182302 
L 434.369692 81.820834 
L 441.550317 82.372118 
L 448.730941 82.508811 
L 455.911566 83.139875 
L 463.09219 84.506759 
L 470.272815 85.929072 
L 477.453439 86.707934 
L 484.634063 88.053409 
L 491.814688 90.315654 
L 498.995312 92.616025 
L 506.175937 94.587913 
L 513.356561 97.545909 
L 520.537185 101.539761 
L 527.71781 105.256785 
L 534.898434 109.046897 
L 542.079059 114.230506 
L 549.259683 120.304978 
L 556.440308 125.759961 
L 563.620932 131.886157 
L 570.801556 139.239519 
L 577.982181 146.643877 
L 585.162805 153.835777 
L 592.34343 161.767326 
L 599.524054 170.113246 
L 606.704679 177.97908 
L 613.885303 185.888207 
L 621.065927 193.914099 
L 628.246552 201.693254 
L 635.427176 209.416775 
L 642.607801 216.641385 
L 649.788425 222.84728 
L 656.96905 228.48346 
L 664.149674 234.647734 
L 671.330298 240.421723 
L 678.510923 245.201946 
L 685.691547 249.750601 
L 692.872172 254.172567 
L 700.052796 257.838877 
L 707.233421 261.11674 
L 714.414045 264.490522 
L 721.594669 267.258438 
L 728.775294 269.402705 
L 735.955918 271.74027 
L 743.136543 274.003723 
L 750.317167 275.612909 
L 757.497792 276.917077 
L 764.678416 278.618016 
L 771.85904 280.031376 
L 779.039665 280.915446 
L 786.220289 281.806983 
L 793.400914 283.003286 
L 800.581538 283.850266 
L 807.762163 284.297699 
L 814.942787 284.922322 
L 822.123411 285.784657 
L 829.304036 286.300733 
L 836.48466 286.47173 
L 843.665285 286.851457 
L 850.845909 287.332204 
" clip-path="url(#p6bcd6ea3a9)" style="fill: none; stroke: #fd9649; stroke-width: 1.5; stroke-linecap: square"/>
   </g>
   <g id="line2d_22">
    <path d="M 139.964091 615.310909 
L 147.144715 608.527377 
L 154.32534 606.077764 
L 161.505964 603.777998 
L 168.686589 601.599561 
L 175.867213 599.526016 
L 183.047837 597.542975 
L 190.228462 595.636758 
L 197.409086 593.794393 
L 204.589711 592.003615 
L 211.770335 590.252868 
L 218.95096 588.531303 
L 226.131584 586.829755 
L 233.312208 585.14152 
L 240.492833 583.459735 
L 247.673457 581.777842 
L 254.854082 580.089596 
L 262.034706 578.389061 
L 269.215331 576.670617 
L 276.395955 574.928955 
L 283.576579 573.159076 
L 290.757204 571.356296 
L 297.937828 569.518019 
L 305.118453 567.644875 
L 312.299077 565.730123 
L 319.479702 563.76706 
L 326.660326 561.749684 
L 333.84095 559.672698 
L 341.021575 557.531511 
L 348.202199 555.322236 
L 355.382824 553.041688 
L 362.563448 550.68739 
L 369.744073 548.257566 
L 376.924697 545.751148 
L 384.105321 543.167771 
L 391.285946 540.507772 
L 398.46657 537.77234 
L 405.647195 534.962693 
L 412.827819 532.069901 
L 420.008444 529.083685 
L 427.189068 525.995107 
L 434.369692 522.796572 
L 441.550317 519.481822 
L 448.730941 516.045945 
L 455.911566 512.485366 
L 463.09219 508.797852 
L 470.272815 504.982512 
L 477.453439 501.039795 
L 484.634063 496.97149 
L 491.814688 492.780728 
L 498.995312 488.471982 
L 506.175937 484.047352 
L 513.356561 479.494469 
L 520.537185 474.799156 
L 527.71781 469.949209 
L 534.898434 464.934377 
L 542.079059 459.746365 
L 549.259683 454.378831 
L 556.440308 448.827385 
L 563.620932 443.089593 
L 570.801556 437.164973 
L 577.982181 431.054998 
L 585.162805 424.763094 
L 592.34343 418.294642 
L 599.524054 411.656935 
L 606.704679 404.847684 
L 613.885303 397.849297 
L 621.065927 390.647804 
L 628.246552 383.232908 
L 635.427176 375.59799 
L 642.607801 367.740101 
L 649.788425 359.65997 
L 656.96905 351.362001 
L 664.149674 342.85427 
L 671.330298 334.14853 
L 678.510923 325.260209 
L 685.691547 316.208408 
L 692.872172 307.015904 
L 700.052796 297.706977 
L 707.233421 288.275971 
L 714.414045 278.852239 
L 721.594669 269.608018 
L 728.775294 260.706333 
L 735.955918 252.301 
L 743.136543 244.536622 
L 750.317167 237.548594 
L 757.497792 231.4631 
L 764.678416 226.397114 
L 771.85904 222.48365 
L 779.039665 219.875213 
L 786.220289 218.602664 
L 793.400914 218.615088 
L 800.581538 219.782601 
L 807.762163 221.896352 
L 814.942787 224.668521 
L 822.123411 227.73232 
L 829.304036 230.641991 
L 836.48466 232.926232 
L 843.665285 235.038248 
L 850.845909 237.16541 
" clip-path="url(#p6bcd6ea3a9)" style="fill: none; stroke: #2575b7; stroke-width: 1.5; stroke-linecap: square"/>
   </g>
   <g id="line2d_23">
    <path d="M 139.964091 101.811376 
L 147.144715 103.686672 
L 154.32534 105.555125 
L 161.505964 107.416758 
L 168.686589 109.271597 
L 175.867213 111.119667 
L 183.047837 112.960993 
L 190.228462 114.795598 
L 197.409086 116.623508 
L 204.589711 118.444747 
L 211.770335 120.259339 
L 218.95096 122.067309 
L 226.131584 123.86868 
L 233.312208 125.663478 
L 240.492833 127.451725 
L 247.673457 129.233446 
L 254.854082 131.008664 
L 262.034706 132.777404 
L 269.215331 134.539689 
L 276.395955 136.295542 
L 283.576579 138.044987 
L 290.757204 139.788047 
L 297.937828 141.524746 
L 305.118453 143.255107 
L 312.299077 144.979152 
L 319.479702 146.696906 
L 326.660326 148.408391 
L 333.84095 150.11363 
L 341.021575 151.812645 
L 348.202199 153.50546 
L 355.382824 155.192096 
L 362.563448 156.872578 
L 369.744073 158.546926 
L 376.924697 160.215163 
L 384.105321 161.877313 
L 391.285946 163.533396 
L 398.46657 165.183435 
L 405.647195 166.827451 
L 412.827819 168.465466 
L 420.008444 170.097502 
L 427.189068 171.723583 
L 434.369692 173.343731 
L 441.550317 174.957966 
L 448.730941 176.566311 
L 455.911566 178.168786 
L 463.09219 179.765412 
L 470.272815 181.356209 
L 477.453439 182.941198 
L 484.634063 184.520397 
L 491.814688 186.093826 
L 498.995312 187.661505 
L 506.175937 189.223384 
L 513.356561 190.779434 
L 520.537185 192.329763 
L 527.71781 193.874453 
L 534.898434 195.413557 
L 542.079059 196.947099 
L 549.259683 198.475078 
L 556.440308 199.997462 
L 563.620932 201.514192 
L 570.801556 203.025181 
L 577.982181 204.530312 
L 585.162805 206.029441 
L 592.34343 207.522398 
L 599.524054 209.008924 
L 606.704679 210.481937 
L 613.885303 211.941539 
L 621.065927 213.393242 
L 628.246552 214.840599 
L 635.427176 216.285213 
L 642.607801 217.726728 
L 649.788425 219.162836 
L 656.96905 220.589274 
L 664.149674 221.999823 
L 671.330298 223.38631 
L 678.510923 224.738609 
L 685.691547 226.044637 
L 692.872172 227.290357 
L 700.052796 228.460001 
L 707.233421 229.539847 
L 714.414045 230.503219 
L 721.594669 231.320122 
L 728.775294 231.962495 
L 735.955918 232.404217 
L 743.136543 232.621101 
L 750.317167 232.590894 
L 757.497792 232.293284 
L 764.678416 231.709891 
L 771.85904 230.801939 
L 779.039665 229.625465 
L 786.220289 228.37811 
L 793.400914 227.211608 
L 800.581538 226.226126 
L 807.762163 225.470257 
L 814.942787 224.941025 
L 822.123411 224.583883 
L 829.304036 224.292712 
L 836.48466 223.924458 
L 843.665285 223.584057 
L 850.845909 223.339952 
" clip-path="url(#p6bcd6ea3a9)" style="fill: none; stroke: #dc4c03; stroke-width: 1.5; stroke-linecap: square"/>
   </g>
   <g id="line2d_24">
    <path d="M 139.964091 615.310909 
L 147.144715 599.998929 
L 154.32534 588.428766 
L 161.505964 579.495689 
L 168.686589 572.47371 
L 175.867213 566.901394 
L 183.047837 562.387141 
L 190.228462 558.691268 
L 197.409086 555.661032 
L 204.589711 553.129865 
L 211.770335 550.95834 
L 218.95096 549.107167 
L 226.131584 547.530547 
L 233.312208 546.15705 
L 240.492833 544.910176 
L 247.673457 543.790322 
L 254.854082 542.799397 
L 262.034706 541.918521 
L 269.215331 541.108563 
L 276.395955 540.327355 
L 283.576579 539.592707 
L 290.757204 538.920324 
L 297.937828 538.30939 
L 305.118453 537.743058 
L 312.299077 537.188451 
L 319.479702 536.616906 
L 326.660326 536.058666 
L 333.84095 535.540593 
L 341.021575 535.07055 
L 348.202199 534.637447 
L 355.382824 534.211242 
L 362.563448 533.744064 
L 369.744073 533.237926 
L 376.924697 532.746976 
L 384.105321 532.296793 
L 391.285946 531.885912 
L 398.46657 531.485816 
L 405.647195 531.040939 
L 412.827819 530.518403 
L 420.008444 529.987857 
L 427.189068 529.49574 
L 434.369692 529.049032 
L 441.550317 528.615257 
L 448.730941 528.122481 
L 455.911566 527.508356 
L 463.09219 526.865393 
L 470.272815 526.244265 
L 477.453439 525.640515 
L 484.634063 524.997018 
L 491.814688 524.216312 
L 498.995312 523.328758 
L 506.175937 522.416098 
L 513.356561 521.484857 
L 520.537185 520.466556 
L 527.71781 519.2203 
L 534.898434 517.714349 
L 542.079059 516.037049 
L 549.259683 514.132187 
L 556.440308 511.793762 
L 563.620932 508.755629 
L 570.801556 504.943146 
L 577.982181 500.033218 
L 585.162805 493.311358 
L 592.34343 483.867225 
L 599.524054 470.805353 
L 606.704679 453.394962 
L 613.885303 432.599041 
L 621.065927 411.04333 
L 628.246552 390.177321 
L 635.427176 370.136127 
L 642.607801 351.449623 
L 649.788425 334.90927 
L 656.96905 320.412502 
L 664.149674 307.567252 
L 671.330298 296.246058 
L 678.510923 286.399663 
L 685.691547 277.867604 
L 692.872172 270.444966 
L 700.052796 263.984803 
L 707.233421 258.382388 
L 714.414045 253.568438 
L 721.594669 249.426046 
L 728.775294 245.849971 
L 735.955918 242.759157 
L 743.136543 240.087148 
L 750.317167 237.782092 
L 757.497792 235.806699 
L 764.678416 234.114087 
L 771.85904 232.655186 
L 779.039665 231.39836 
L 786.220289 230.315697 
L 793.400914 229.383012 
L 800.581538 228.579842 
L 807.762163 227.889452 
L 814.942787 227.298828 
L 822.123411 226.797407 
L 829.304036 226.366088 
L 836.48466 225.993349 
L 843.665285 225.671427 
L 850.845909 225.393864 
" clip-path="url(#p6bcd6ea3a9)" style="fill: none; stroke: #08306b; stroke-width: 1.5; stroke-linecap: square"/>
   </g>
   <g id="line2d_25">
    <path d="M 139.964091 101.811376 
L 147.144715 90.107507 
L 154.32534 81.951887 
L 161.505964 76.267339 
L 168.686589 72.304149 
L 175.867213 69.591571 
L 183.047837 67.732828 
L 190.228462 66.494404 
L 197.409086 65.753722 
L 204.589711 65.355409 
L 211.770335 65.155279 
L 218.95096 65.149642 
L 226.131584 65.321536 
L 233.312208 65.595835 
L 240.492833 65.87261 
L 247.673457 66.183333 
L 254.854082 66.566817 
L 262.034706 67.013146 
L 269.215331 67.464178 
L 276.395955 67.848276 
L 283.576579 68.219364 
L 290.757204 68.630544 
L 297.937828 69.094844 
L 305.118453 69.586029 
L 312.299077 70.038597 
L 319.479702 70.392245 
L 326.660326 70.726364 
L 333.84095 71.116674 
L 341.021575 71.591182 
L 348.202199 72.130256 
L 355.382824 72.666622 
L 362.563448 73.087967 
L 369.744073 73.401486 
L 376.924697 73.750418 
L 384.105321 74.208272 
L 391.285946 74.778943 
L 398.46657 75.396708 
L 405.647195 75.926229 
L 412.827819 76.285311 
L 420.008444 76.662536 
L 427.189068 77.193771 
L 434.369692 77.910017 
L 441.550317 78.737431 
L 448.730941 79.497318 
L 455.911566 80.03524 
L 463.09219 80.614865 
L 470.272815 81.399028 
L 477.453439 82.404394 
L 484.634063 83.507729 
L 491.814688 84.478803 
L 498.995312 85.443913 
L 506.175937 86.696043 
L 513.356561 88.33948 
L 520.537185 90.288757 
L 527.71781 92.276962 
L 534.898434 94.400836 
L 542.079059 97.157481 
L 549.259683 100.771196 
L 556.440308 105.202497 
L 563.620932 110.500732 
L 570.801556 117.639252 
L 577.982181 127.538384 
L 585.162805 140.880516 
L 592.34343 158.402168 
L 599.524054 179.691854 
L 606.704679 201.735791 
L 613.885303 221.900664 
L 621.065927 238.17833 
L 628.246552 250.418999 
L 635.427176 259.186804 
L 642.607801 265.221569 
L 649.788425 269.581946 
L 656.96905 272.805134 
L 664.149674 275.032603 
L 671.330298 276.534151 
L 678.510923 277.625829 
L 685.691547 278.454018 
L 692.872172 279.021087 
L 700.052796 279.371063 
L 707.233421 279.58669 
L 714.414045 279.780068 
L 721.594669 279.95545 
L 728.775294 280.079584 
L 735.955918 280.144925 
L 743.136543 280.160964 
L 750.317167 280.154226 
L 757.497792 280.168222 
L 764.678416 280.217381 
L 771.85904 280.268075 
L 779.039665 280.303437 
L 786.220289 280.31433 
L 793.400914 280.299353 
L 800.581538 280.264832 
L 807.762163 280.224829 
L 814.942787 280.201135 
L 822.123411 280.216758 
L 829.304036 280.236769 
L 836.48466 280.250348 
L 843.665285 280.259118 
L 850.845909 280.265316 
" clip-path="url(#p6bcd6ea3a9)" style="fill: none; stroke: #7f2704; stroke-width: 1.5; stroke-linecap: square"/>
   </g>
   <g id="patch_3">
    <path d="M 104.42 643.48 
L 104.42 23.76 
" style="fill: none; stroke: #000000; stroke-width: 0.8; stroke-linejoin: miter; stroke-linecap: square"/>
   </g>
   <g id="patch_4">
    <path d="M 886.39 643.48 
L 886.39 23.76 
" style="fill: none; stroke: #000000; stroke-width: 0.8; stroke-linejoin: miter; stroke-linecap: square"/>
   </g>
   <g id="patch_5">
    <path d="M 104.42 643.48 
L 886.39 643.48 
" style="fill: none; stroke: #000000; stroke-width: 0.8; stroke-linejoin: miter; stroke-linecap: square"/>
   </g>
   <g id="patch_6">
    <path d="M 104.42 23.76 
L 886.39 23.76 
" style="fill: none; stroke: #000000; stroke-width: 0.8; stroke-linejoin: miter; stroke-linecap: square"/>
   </g>
   <g id="legend_1">
    <g id="patch_7">
     <path d="M 901.79 364.27875 
L 1051.867813 364.27875 
Q 1056.267813 364.27875 1056.267813 359.87875 
L 1056.267813 39.16 
Q 1056.267813 34.76 1051.867813 34.76 
L 901.79 34.76 
Q 897.39 34.76 897.39 39.16 
L 897.39 359.87875 
Q 897.39 364.27875 901.79 364.27875 
z
" style="fill: #ffffff; opacity: 0.8; stroke: #cccccc; stroke-linejoin: miter"/>
    </g>
    <g id="PathCollection_3">
     <g>
      <use xlink:href="#m80f1702e56" x="928.19" y="54.501563" style="fill: #1f77b4; stroke: #1f77b4"/>
     </g>
    </g>
    <g id="text_20">
     <!-- Xi -->
     <g transform="translate(967.79 60.276563) scale(0.22 -0.22)">
      <use xlink:href="#DejaVuSans-58"/>
      <use xlink:href="#DejaVuSans-69" x="68.505859"/>
     </g>
    </g>
    <g id="PathCollection_4">
     <g>
      <use xlink:href="#m62fcbac0dc" x="928.19" y="86.793438" style="fill: #ff7f0e; stroke: #ff7f0e"/>
     </g>
    </g>
    <g id="text_21">
     <!-- Xa -->
     <g transform="translate(967.79 92.568438) scale(0.22 -0.22)">
      <use xlink:href="#DejaVuSans-58"/>
      <use xlink:href="#DejaVuSans-61" x="68.505859"/>
     </g>
    </g>
    <g id="line2d_26">
     <path d="M 906.19 117.160313 
L 928.19 117.160313 
L 950.19 117.160313 
" style="fill: none; stroke: #d0e1f2; stroke-width: 1.5; stroke-linecap: square"/>
    </g>
    <g id="text_22">
     <!-- Xi-AAII -->
     <g transform="translate(967.79 124.860313) scale(0.22 -0.22)">
      <defs>
       <path id="DejaVuSans-2d" d="M 313 2009 
L 1997 2009 
L 1997 1497 
L 313 1497 
L 313 2009 
z
" transform="scale(0.015625)"/>
       <path id="DejaVuSans-49" d="M 628 4666 
L 1259 4666 
L 1259 0 
L 628 0 
L 628 4666 
z
" transform="scale(0.015625)"/>
      </defs>
      <use xlink:href="#DejaVuSans-58"/>
      <use xlink:href="#DejaVuSans-69" x="68.505859"/>
      <use xlink:href="#DejaVuSans-2d" x="96.289062"/>
      <use xlink:href="#DejaVuSans-41" x="130.123047"/>
      <use xlink:href="#DejaVuSans-41" x="201.28125"/>
      <use xlink:href="#DejaVuSans-49" x="269.689453"/>
      <use xlink:href="#DejaVuSans-49" x="299.181641"/>
     </g>
    </g>
    <g id="line2d_27">
     <path d="M 906.19 149.452188 
L 928.19 149.452188 
L 950.19 149.452188 
" style="fill: none; stroke: #fdd9b4; stroke-width: 1.5; stroke-linecap: square"/>
    </g>
    <g id="text_23">
     <!-- Xa-AAII -->
     <g transform="translate(967.79 157.152188) scale(0.22 -0.22)">
      <use xlink:href="#DejaVuSans-58"/>
      <use xlink:href="#DejaVuSans-61" x="68.505859"/>
      <use xlink:href="#DejaVuSans-2d" x="129.785156"/>
      <use xlink:href="#DejaVuSans-41" x="163.619141"/>
      <use xlink:href="#DejaVuSans-41" x="234.777344"/>
      <use xlink:href="#DejaVuSans-49" x="303.185547"/>
      <use xlink:href="#DejaVuSans-49" x="332.677734"/>
     </g>
    </g>
    <g id="line2d_28">
     <path d="M 906.19 181.744063 
L 928.19 181.744063 
L 950.19 181.744063 
" style="fill: none; stroke: #79b5d9; stroke-width: 1.5; stroke-linecap: square"/>
    </g>
    <g id="text_24">
     <!-- Xi-AIII -->
     <g transform="translate(967.79 189.444063) scale(0.22 -0.22)">
      <use xlink:href="#DejaVuSans-58"/>
      <use xlink:href="#DejaVuSans-69" x="68.505859"/>
      <use xlink:href="#DejaVuSans-2d" x="96.289062"/>
      <use xlink:href="#DejaVuSans-41" x="130.123047"/>
      <use xlink:href="#DejaVuSans-49" x="198.53125"/>
      <use xlink:href="#DejaVuSans-49" x="228.023438"/>
      <use xlink:href="#DejaVuSans-49" x="257.515625"/>
     </g>
    </g>
    <g id="line2d_29">
     <path d="M 906.19 214.035938 
L 928.19 214.035938 
L 950.19 214.035938 
" style="fill: none; stroke: #fd9649; stroke-width: 1.5; stroke-linecap: square"/>
    </g>
    <g id="text_25">
     <!-- Xa-AIII -->
     <g transform="translate(967.79 221.735938) scale(0.22 -0.22)">
      <use xlink:href="#DejaVuSans-58"/>
      <use xlink:href="#DejaVuSans-61" x="68.505859"/>
      <use xlink:href="#DejaVuSans-2d" x="129.785156"/>
      <use xlink:href="#DejaVuSans-41" x="163.619141"/>
      <use xlink:href="#DejaVuSans-49" x="232.027344"/>
      <use xlink:href="#DejaVuSans-49" x="261.519531"/>
      <use xlink:href="#DejaVuSans-49" x="291.011719"/>
     </g>
    </g>
    <g id="line2d_30">
     <path d="M 906.19 246.327813 
L 928.19 246.327813 
L 950.19 246.327813 
" style="fill: none; stroke: #2575b7; stroke-width: 1.5; stroke-linecap: square"/>
    </g>
    <g id="text_26">
     <!-- Xi-IAII -->
     <g transform="translate(967.79 254.027813) scale(0.22 -0.22)">
      <use xlink:href="#DejaVuSans-58"/>
      <use xlink:href="#DejaVuSans-69" x="68.505859"/>
      <use xlink:href="#DejaVuSans-2d" x="96.289062"/>
      <use xlink:href="#DejaVuSans-49" x="132.373047"/>
      <use xlink:href="#DejaVuSans-41" x="161.865234"/>
      <use xlink:href="#DejaVuSans-49" x="230.273438"/>
      <use xlink:href="#DejaVuSans-49" x="259.765625"/>
     </g>
    </g>
    <g id="line2d_31">
     <path d="M 906.19 278.619688 
L 928.19 278.619688 
L 950.19 278.619688 
" style="fill: none; stroke: #dc4c03; stroke-width: 1.5; stroke-linecap: square"/>
    </g>
    <g id="text_27">
     <!-- Xa-IAII -->
     <g transform="translate(967.79 286.319688) scale(0.22 -0.22)">
      <use xlink:href="#DejaVuSans-58"/>
      <use xlink:href="#DejaVuSans-61" x="68.505859"/>
      <use xlink:href="#DejaVuSans-2d" x="129.785156"/>
      <use xlink:href="#DejaVuSans-49" x="165.869141"/>
      <use xlink:href="#DejaVuSans-41" x="195.361328"/>
      <use xlink:href="#DejaVuSans-49" x="263.769531"/>
      <use xlink:href="#DejaVuSans-49" x="293.261719"/>
     </g>
    </g>
    <g id="line2d_32">
     <path d="M 906.19 310.911563 
L 928.19 310.911563 
L 950.19 310.911563 
" style="fill: none; stroke: #08306b; stroke-width: 1.5; stroke-linecap: square"/>
    </g>
    <g id="text_28">
     <!-- Xi-IIII -->
     <g transform="translate(967.79 318.611563) scale(0.22 -0.22)">
      <use xlink:href="#DejaVuSans-58"/>
      <use xlink:href="#DejaVuSans-69" x="68.505859"/>
      <use xlink:href="#DejaVuSans-2d" x="96.289062"/>
      <use xlink:href="#DejaVuSans-49" x="132.373047"/>
      <use xlink:href="#DejaVuSans-49" x="161.865234"/>
      <use xlink:href="#DejaVuSans-49" x="191.357422"/>
      <use xlink:href="#DejaVuSans-49" x="220.849609"/>
     </g>
    </g>
    <g id="line2d_33">
     <path d="M 906.19 343.203438 
L 928.19 343.203438 
L 950.19 343.203438 
" style="fill: none; stroke: #7f2704; stroke-width: 1.5; stroke-linecap: square"/>
    </g>
    <g id="text_29">
     <!-- Xa-IIII -->
     <g transform="translate(967.79 350.903438) scale(0.22 -0.22)">
      <use xlink:href="#DejaVuSans-58"/>
      <use xlink:href="#DejaVuSans-61" x="68.505859"/>
      <use xlink:href="#DejaVuSans-2d" x="129.785156"/>
      <use xlink:href="#DejaVuSans-49" x="165.869141"/>
      <use xlink:href="#DejaVuSans-49" x="195.361328"/>
      <use xlink:href="#DejaVuSans-49" x="224.853516"/>
      <use xlink:href="#DejaVuSans-49" x="254.345703"/>
     </g>
    </g>
   </g>
  </g>
 </g>
 <defs>
  <clipPath id="p6bcd6ea3a9">
   <rect x="104.42" y="23.76" width="781.97" height="619.72"/>
  </clipPath>
 </defs>
</svg>
