<?xml version="1.0" encoding="utf-8" standalone="no"?>
<!DOCTYPE svg PUBLIC "-//W3C//DTD SVG 1.1//EN"
  "http://www.w3.org/Graphics/SVG/1.1/DTD/svg11.dtd">
<svg xmlns:xlink="http://www.w3.org/1999/xlink" width="1080pt" height="720pt" viewBox="0 0 1080 720" xmlns="http://www.w3.org/2000/svg" version="1.1">
 <metadata>
  <rdf:RDF xmlns:dc="http://purl.org/dc/elements/1.1/" xmlns:cc="http://creativecommons.org/ns#" xmlns:rdf="http://www.w3.org/1999/02/22-rdf-syntax-ns#">
   <cc:Work>
    <dc:type rdf:resource="http://purl.org/dc/dcmitype/StillImage"/>
    <dc:date>2023-01-11T19:55:53.708877</dc:date>
    <dc:format>image/svg+xml</dc:format>
    <dc:creator>
     <cc:Agent>
      <dc:title>Matplotlib v3.6.2, https://matplotlib.org/</dc:title>
     </cc:Agent>
    </dc:creator>
   </cc:Work>
  </rdf:RDF>
 </metadata>
 <defs>
  <style type="text/css">*{stroke-linejoin: round; stroke-linecap: butt}</style>
 </defs>
 <g id="figure_1">
  <g id="patch_1">
   <path d="M 0 720 
L 1080 720 
L 1080 0 
L 0 0 
z
" style="fill: #ffffff"/>
  </g>
  <g id="axes_1">
   <g id="patch_2">
    <path d="M 104.42 595.44 
L 883.87 595.44 
L 883.87 23.76 
L 104.42 23.76 
z
" style="fill: #ffffff"/>
   </g>
   <g id="PathCollection_1">
    <defs>
     <path id="m80f1702e56" d="M 0 3 
C 0.795609 3 1.55874 2.683901 2.12132 2.12132 
C 2.683901 1.55874 3 0.795609 3 0 
C 3 -0.795609 2.683901 -1.55874 2.12132 -2.12132 
C 1.55874 -2.683901 0.795609 -3 0 -3 
C -0.795609 -3 -1.55874 -2.683901 -2.12132 -2.12132 
C -2.683901 -1.55874 -3 -0.795609 -3 0 
C -3 0.795609 -2.683901 1.55874 -2.12132 2.12132 
C -1.55874 2.683901 -0.795609 3 0 3 
z
" style="stroke: #1f77b4"/>
    </defs>
    <g clip-path="url(#p13386ddcbc)">
     <use xlink:href="#m80f1702e56" x="139.849545" y="569.454545" style="fill: #1f77b4; stroke: #1f77b4"/>
     <use xlink:href="#m80f1702e56" x="228.423409" y="537.805855" style="fill: #1f77b4; stroke: #1f77b4"/>
     <use xlink:href="#m80f1702e56" x="316.997273" y="527.076679" style="fill: #1f77b4; stroke: #1f77b4"/>
     <use xlink:href="#m80f1702e56" x="405.571136" y="524.905633" style="fill: #1f77b4; stroke: #1f77b4"/>
     <use xlink:href="#m80f1702e56" x="494.145" y="484.288948" style="fill: #1f77b4; stroke: #1f77b4"/>
     <use xlink:href="#m80f1702e56" x="582.718864" y="443.672262" style="fill: #1f77b4; stroke: #1f77b4"/>
     <use xlink:href="#m80f1702e56" x="671.292727" y="443.672262" style="fill: #1f77b4; stroke: #1f77b4"/>
     <use xlink:href="#m80f1702e56" x="759.866591" y="443.672262" style="fill: #1f77b4; stroke: #1f77b4"/>
     <use xlink:href="#m80f1702e56" x="848.440455" y="443.672262" style="fill: #1f77b4; stroke: #1f77b4"/>
    </g>
   </g>
   <g id="PathCollection_2">
    <defs>
     <path id="m62fcbac0dc" d="M 0 3 
C 0.795609 3 1.55874 2.683901 2.12132 2.12132 
C 2.683901 1.55874 3 0.795609 3 0 
C 3 -0.795609 2.683901 -1.55874 2.12132 -2.12132 
C 1.55874 -2.683901 0.795609 -3 0 -3 
C -0.795609 -3 -1.55874 -2.683901 -2.12132 -2.12132 
C -2.683901 -1.55874 -3 -0.795609 -3 0 
C -3 0.795609 -2.683901 1.55874 -2.12132 2.12132 
C -1.55874 2.683901 -0.795609 3 0 3 
z
" style="stroke: #ff7f0e"/>
    </defs>
    <g clip-path="url(#p13386ddcbc)">
     <use xlink:href="#m62fcbac0dc" x="139.849545" y="95.760921" style="fill: #ff7f0e; stroke: #ff7f0e"/>
     <use xlink:href="#m62fcbac0dc" x="228.423409" y="76.434313" style="fill: #ff7f0e; stroke: #ff7f0e"/>
     <use xlink:href="#m62fcbac0dc" x="316.997273" y="106.59038" style="fill: #ff7f0e; stroke: #ff7f0e"/>
     <use xlink:href="#m62fcbac0dc" x="405.571136" y="49.745455" style="fill: #ff7f0e; stroke: #ff7f0e"/>
     <use xlink:href="#m62fcbac0dc" x="494.145" y="84.982315" style="fill: #ff7f0e; stroke: #ff7f0e"/>
     <use xlink:href="#m62fcbac0dc" x="582.718864" y="120.219176" style="fill: #ff7f0e; stroke: #ff7f0e"/>
     <use xlink:href="#m62fcbac0dc" x="671.292727" y="120.219176" style="fill: #ff7f0e; stroke: #ff7f0e"/>
     <use xlink:href="#m62fcbac0dc" x="759.866591" y="120.219176" style="fill: #ff7f0e; stroke: #ff7f0e"/>
     <use xlink:href="#m62fcbac0dc" x="848.440455" y="120.219176" style="fill: #ff7f0e; stroke: #ff7f0e"/>
    </g>
   </g>
   <g id="matplotlib.axis_1">
    <g id="xtick_1">
     <g id="line2d_1">
      <defs>
       <path id="m3385fdae1e" d="M 0 0 
L 0 3.5 
" style="stroke: #000000; stroke-width: 0.8"/>
      </defs>
      <g>
       <use xlink:href="#m3385fdae1e" x="139.849545" y="595.44" style="stroke: #000000; stroke-width: 0.8"/>
      </g>
     </g>
     <g id="text_1">
      <!-- 7 -->
      <g transform="translate(132.850795 619.156562) scale(0.22 -0.22)">
       <defs>
        <path id="DejaVuSans-37" d="M 525 4666 
L 3525 4666 
L 3525 4397 
L 1831 0 
L 1172 0 
L 2766 4134 
L 525 4134 
L 525 4666 
z
" transform="scale(0.015625)"/>
       </defs>
       <use xlink:href="#DejaVuSans-37"/>
      </g>
     </g>
    </g>
    <g id="xtick_2">
     <g id="line2d_2">
      <g>
       <use xlink:href="#m3385fdae1e" x="228.423409" y="595.44" style="stroke: #000000; stroke-width: 0.8"/>
      </g>
     </g>
     <g id="text_2">
      <!-- 8 -->
      <g transform="translate(221.424659 619.156562) scale(0.22 -0.22)">
       <defs>
        <path id="DejaVuSans-38" d="M 2034 2216 
Q 1584 2216 1326 1975 
Q 1069 1734 1069 1313 
Q 1069 891 1326 650 
Q 1584 409 2034 409 
Q 2484 409 2743 651 
Q 3003 894 3003 1313 
Q 3003 1734 2745 1975 
Q 2488 2216 2034 2216 
z
M 1403 2484 
Q 997 2584 770 2862 
Q 544 3141 544 3541 
Q 544 4100 942 4425 
Q 1341 4750 2034 4750 
Q 2731 4750 3128 4425 
Q 3525 4100 3525 3541 
Q 3525 3141 3298 2862 
Q 3072 2584 2669 2484 
Q 3125 2378 3379 2068 
Q 3634 1759 3634 1313 
Q 3634 634 3220 271 
Q 2806 -91 2034 -91 
Q 1263 -91 848 271 
Q 434 634 434 1313 
Q 434 1759 690 2068 
Q 947 2378 1403 2484 
z
M 1172 3481 
Q 1172 3119 1398 2916 
Q 1625 2713 2034 2713 
Q 2441 2713 2670 2916 
Q 2900 3119 2900 3481 
Q 2900 3844 2670 4047 
Q 2441 4250 2034 4250 
Q 1625 4250 1398 4047 
Q 1172 3844 1172 3481 
z
" transform="scale(0.015625)"/>
       </defs>
       <use xlink:href="#DejaVuSans-38"/>
      </g>
     </g>
    </g>
    <g id="xtick_3">
     <g id="line2d_3">
      <g>
       <use xlink:href="#m3385fdae1e" x="316.997273" y="595.44" style="stroke: #000000; stroke-width: 0.8"/>
      </g>
     </g>
     <g id="text_3">
      <!-- 9 -->
      <g transform="translate(309.998523 619.156562) scale(0.22 -0.22)">
       <defs>
        <path id="DejaVuSans-39" d="M 703 97 
L 703 672 
Q 941 559 1184 500 
Q 1428 441 1663 441 
Q 2288 441 2617 861 
Q 2947 1281 2994 2138 
Q 2813 1869 2534 1725 
Q 2256 1581 1919 1581 
Q 1219 1581 811 2004 
Q 403 2428 403 3163 
Q 403 3881 828 4315 
Q 1253 4750 1959 4750 
Q 2769 4750 3195 4129 
Q 3622 3509 3622 2328 
Q 3622 1225 3098 567 
Q 2575 -91 1691 -91 
Q 1453 -91 1209 -44 
Q 966 3 703 97 
z
M 1959 2075 
Q 2384 2075 2632 2365 
Q 2881 2656 2881 3163 
Q 2881 3666 2632 3958 
Q 2384 4250 1959 4250 
Q 1534 4250 1286 3958 
Q 1038 3666 1038 3163 
Q 1038 2656 1286 2365 
Q 1534 2075 1959 2075 
z
" transform="scale(0.015625)"/>
       </defs>
       <use xlink:href="#DejaVuSans-39"/>
      </g>
     </g>
    </g>
    <g id="xtick_4">
     <g id="line2d_4">
      <g>
       <use xlink:href="#m3385fdae1e" x="405.571136" y="595.44" style="stroke: #000000; stroke-width: 0.8"/>
      </g>
     </g>
     <g id="text_4">
      <!-- 10 -->
      <g transform="translate(391.573636 619.156562) scale(0.22 -0.22)">
       <defs>
        <path id="DejaVuSans-31" d="M 794 531 
L 1825 531 
L 1825 4091 
L 703 3866 
L 703 4441 
L 1819 4666 
L 2450 4666 
L 2450 531 
L 3481 531 
L 3481 0 
L 794 0 
L 794 531 
z
" transform="scale(0.015625)"/>
        <path id="DejaVuSans-30" d="M 2034 4250 
Q 1547 4250 1301 3770 
Q 1056 3291 1056 2328 
Q 1056 1369 1301 889 
Q 1547 409 2034 409 
Q 2525 409 2770 889 
Q 3016 1369 3016 2328 
Q 3016 3291 2770 3770 
Q 2525 4250 2034 4250 
z
M 2034 4750 
Q 2819 4750 3233 4129 
Q 3647 3509 3647 2328 
Q 3647 1150 3233 529 
Q 2819 -91 2034 -91 
Q 1250 -91 836 529 
Q 422 1150 422 2328 
Q 422 3509 836 4129 
Q 1250 4750 2034 4750 
z
" transform="scale(0.015625)"/>
       </defs>
       <use xlink:href="#DejaVuSans-31"/>
       <use xlink:href="#DejaVuSans-30" x="63.623047"/>
      </g>
     </g>
    </g>
    <g id="xtick_5">
     <g id="line2d_5">
      <g>
       <use xlink:href="#m3385fdae1e" x="494.145" y="595.44" style="stroke: #000000; stroke-width: 0.8"/>
      </g>
     </g>
     <g id="text_5">
      <!-- 11 -->
      <g transform="translate(480.1475 619.156562) scale(0.22 -0.22)">
       <use xlink:href="#DejaVuSans-31"/>
       <use xlink:href="#DejaVuSans-31" x="63.623047"/>
      </g>
     </g>
    </g>
    <g id="xtick_6">
     <g id="line2d_6">
      <g>
       <use xlink:href="#m3385fdae1e" x="582.718864" y="595.44" style="stroke: #000000; stroke-width: 0.8"/>
      </g>
     </g>
     <g id="text_6">
      <!-- 12 -->
      <g transform="translate(568.721364 619.156562) scale(0.22 -0.22)">
       <defs>
        <path id="DejaVuSans-32" d="M 1228 531 
L 3431 531 
L 3431 0 
L 469 0 
L 469 531 
Q 828 903 1448 1529 
Q 2069 2156 2228 2338 
Q 2531 2678 2651 2914 
Q 2772 3150 2772 3378 
Q 2772 3750 2511 3984 
Q 2250 4219 1831 4219 
Q 1534 4219 1204 4116 
Q 875 4013 500 3803 
L 500 4441 
Q 881 4594 1212 4672 
Q 1544 4750 1819 4750 
Q 2544 4750 2975 4387 
Q 3406 4025 3406 3419 
Q 3406 3131 3298 2873 
Q 3191 2616 2906 2266 
Q 2828 2175 2409 1742 
Q 1991 1309 1228 531 
z
" transform="scale(0.015625)"/>
       </defs>
       <use xlink:href="#DejaVuSans-31"/>
       <use xlink:href="#DejaVuSans-32" x="63.623047"/>
      </g>
     </g>
    </g>
    <g id="xtick_7">
     <g id="line2d_7">
      <g>
       <use xlink:href="#m3385fdae1e" x="671.292727" y="595.44" style="stroke: #000000; stroke-width: 0.8"/>
      </g>
     </g>
     <g id="text_7">
      <!-- 13 -->
      <g transform="translate(657.295227 619.156562) scale(0.22 -0.22)">
       <defs>
        <path id="DejaVuSans-33" d="M 2597 2516 
Q 3050 2419 3304 2112 
Q 3559 1806 3559 1356 
Q 3559 666 3084 287 
Q 2609 -91 1734 -91 
Q 1441 -91 1130 -33 
Q 819 25 488 141 
L 488 750 
Q 750 597 1062 519 
Q 1375 441 1716 441 
Q 2309 441 2620 675 
Q 2931 909 2931 1356 
Q 2931 1769 2642 2001 
Q 2353 2234 1838 2234 
L 1294 2234 
L 1294 2753 
L 1863 2753 
Q 2328 2753 2575 2939 
Q 2822 3125 2822 3475 
Q 2822 3834 2567 4026 
Q 2313 4219 1838 4219 
Q 1578 4219 1281 4162 
Q 984 4106 628 3988 
L 628 4550 
Q 988 4650 1302 4700 
Q 1616 4750 1894 4750 
Q 2613 4750 3031 4423 
Q 3450 4097 3450 3541 
Q 3450 3153 3228 2886 
Q 3006 2619 2597 2516 
z
" transform="scale(0.015625)"/>
       </defs>
       <use xlink:href="#DejaVuSans-31"/>
       <use xlink:href="#DejaVuSans-33" x="63.623047"/>
      </g>
     </g>
    </g>
    <g id="xtick_8">
     <g id="line2d_8">
      <g>
       <use xlink:href="#m3385fdae1e" x="759.866591" y="595.44" style="stroke: #000000; stroke-width: 0.8"/>
      </g>
     </g>
     <g id="text_8">
      <!-- 14 -->
      <g transform="translate(745.869091 619.156562) scale(0.22 -0.22)">
       <defs>
        <path id="DejaVuSans-34" d="M 2419 4116 
L 825 1625 
L 2419 1625 
L 2419 4116 
z
M 2253 4666 
L 3047 4666 
L 3047 1625 
L 3713 1625 
L 3713 1100 
L 3047 1100 
L 3047 0 
L 2419 0 
L 2419 1100 
L 313 1100 
L 313 1709 
L 2253 4666 
z
" transform="scale(0.015625)"/>
       </defs>
       <use xlink:href="#DejaVuSans-31"/>
       <use xlink:href="#DejaVuSans-34" x="63.623047"/>
      </g>
     </g>
    </g>
    <g id="xtick_9">
     <g id="line2d_9">
      <g>
       <use xlink:href="#m3385fdae1e" x="848.440455" y="595.44" style="stroke: #000000; stroke-width: 0.8"/>
      </g>
     </g>
     <g id="text_9">
      <!-- 15 -->
      <g transform="translate(834.442955 619.156562) scale(0.22 -0.22)">
       <defs>
        <path id="DejaVuSans-35" d="M 691 4666 
L 3169 4666 
L 3169 4134 
L 1269 4134 
L 1269 2991 
Q 1406 3038 1543 3061 
Q 1681 3084 1819 3084 
Q 2600 3084 3056 2656 
Q 3513 2228 3513 1497 
Q 3513 744 3044 326 
Q 2575 -91 1722 -91 
Q 1428 -91 1123 -41 
Q 819 9 494 109 
L 494 744 
Q 775 591 1075 516 
Q 1375 441 1709 441 
Q 2250 441 2565 725 
Q 2881 1009 2881 1497 
Q 2881 1984 2565 2268 
Q 2250 2553 1709 2553 
Q 1456 2553 1204 2497 
Q 953 2441 691 2322 
L 691 4666 
z
" transform="scale(0.015625)"/>
       </defs>
       <use xlink:href="#DejaVuSans-31"/>
       <use xlink:href="#DejaVuSans-35" x="63.623047"/>
      </g>
     </g>
    </g>
    <g id="text_10">
     <!-- Time (days) -->
     <g transform="translate(429.186563 644.448437) scale(0.22 -0.22)">
      <defs>
       <path id="DejaVuSans-54" d="M -19 4666 
L 3928 4666 
L 3928 4134 
L 2272 4134 
L 2272 0 
L 1638 0 
L 1638 4134 
L -19 4134 
L -19 4666 
z
" transform="scale(0.015625)"/>
       <path id="DejaVuSans-69" d="M 603 3500 
L 1178 3500 
L 1178 0 
L 603 0 
L 603 3500 
z
M 603 4863 
L 1178 4863 
L 1178 4134 
L 603 4134 
L 603 4863 
z
" transform="scale(0.015625)"/>
       <path id="DejaVuSans-6d" d="M 3328 2828 
Q 3544 3216 3844 3400 
Q 4144 3584 4550 3584 
Q 5097 3584 5394 3201 
Q 5691 2819 5691 2113 
L 5691 0 
L 5113 0 
L 5113 2094 
Q 5113 2597 4934 2840 
Q 4756 3084 4391 3084 
Q 3944 3084 3684 2787 
Q 3425 2491 3425 1978 
L 3425 0 
L 2847 0 
L 2847 2094 
Q 2847 2600 2669 2842 
Q 2491 3084 2119 3084 
Q 1678 3084 1418 2786 
Q 1159 2488 1159 1978 
L 1159 0 
L 581 0 
L 581 3500 
L 1159 3500 
L 1159 2956 
Q 1356 3278 1631 3431 
Q 1906 3584 2284 3584 
Q 2666 3584 2933 3390 
Q 3200 3197 3328 2828 
z
" transform="scale(0.015625)"/>
       <path id="DejaVuSans-65" d="M 3597 1894 
L 3597 1613 
L 953 1613 
Q 991 1019 1311 708 
Q 1631 397 2203 397 
Q 2534 397 2845 478 
Q 3156 559 3463 722 
L 3463 178 
Q 3153 47 2828 -22 
Q 2503 -91 2169 -91 
Q 1331 -91 842 396 
Q 353 884 353 1716 
Q 353 2575 817 3079 
Q 1281 3584 2069 3584 
Q 2775 3584 3186 3129 
Q 3597 2675 3597 1894 
z
M 3022 2063 
Q 3016 2534 2758 2815 
Q 2500 3097 2075 3097 
Q 1594 3097 1305 2825 
Q 1016 2553 972 2059 
L 3022 2063 
z
" transform="scale(0.015625)"/>
       <path id="DejaVuSans-20" transform="scale(0.015625)"/>
       <path id="DejaVuSans-28" d="M 1984 4856 
Q 1566 4138 1362 3434 
Q 1159 2731 1159 2009 
Q 1159 1288 1364 580 
Q 1569 -128 1984 -844 
L 1484 -844 
Q 1016 -109 783 600 
Q 550 1309 550 2009 
Q 550 2706 781 3412 
Q 1013 4119 1484 4856 
L 1984 4856 
z
" transform="scale(0.015625)"/>
       <path id="DejaVuSans-64" d="M 2906 2969 
L 2906 4863 
L 3481 4863 
L 3481 0 
L 2906 0 
L 2906 525 
Q 2725 213 2448 61 
Q 2172 -91 1784 -91 
Q 1150 -91 751 415 
Q 353 922 353 1747 
Q 353 2572 751 3078 
Q 1150 3584 1784 3584 
Q 2172 3584 2448 3432 
Q 2725 3281 2906 2969 
z
M 947 1747 
Q 947 1113 1208 752 
Q 1469 391 1925 391 
Q 2381 391 2643 752 
Q 2906 1113 2906 1747 
Q 2906 2381 2643 2742 
Q 2381 3103 1925 3103 
Q 1469 3103 1208 2742 
Q 947 2381 947 1747 
z
" transform="scale(0.015625)"/>
       <path id="DejaVuSans-61" d="M 2194 1759 
Q 1497 1759 1228 1600 
Q 959 1441 959 1056 
Q 959 750 1161 570 
Q 1363 391 1709 391 
Q 2188 391 2477 730 
Q 2766 1069 2766 1631 
L 2766 1759 
L 2194 1759 
z
M 3341 1997 
L 3341 0 
L 2766 0 
L 2766 531 
Q 2569 213 2275 61 
Q 1981 -91 1556 -91 
Q 1019 -91 701 211 
Q 384 513 384 1019 
Q 384 1609 779 1909 
Q 1175 2209 1959 2209 
L 2766 2209 
L 2766 2266 
Q 2766 2663 2505 2880 
Q 2244 3097 1772 3097 
Q 1472 3097 1187 3025 
Q 903 2953 641 2809 
L 641 3341 
Q 956 3463 1253 3523 
Q 1550 3584 1831 3584 
Q 2591 3584 2966 3190 
Q 3341 2797 3341 1997 
z
" transform="scale(0.015625)"/>
       <path id="DejaVuSans-79" d="M 2059 -325 
Q 1816 -950 1584 -1140 
Q 1353 -1331 966 -1331 
L 506 -1331 
L 506 -850 
L 844 -850 
Q 1081 -850 1212 -737 
Q 1344 -625 1503 -206 
L 1606 56 
L 191 3500 
L 800 3500 
L 1894 763 
L 2988 3500 
L 3597 3500 
L 2059 -325 
z
" transform="scale(0.015625)"/>
       <path id="DejaVuSans-73" d="M 2834 3397 
L 2834 2853 
Q 2591 2978 2328 3040 
Q 2066 3103 1784 3103 
Q 1356 3103 1142 2972 
Q 928 2841 928 2578 
Q 928 2378 1081 2264 
Q 1234 2150 1697 2047 
L 1894 2003 
Q 2506 1872 2764 1633 
Q 3022 1394 3022 966 
Q 3022 478 2636 193 
Q 2250 -91 1575 -91 
Q 1294 -91 989 -36 
Q 684 19 347 128 
L 347 722 
Q 666 556 975 473 
Q 1284 391 1588 391 
Q 1994 391 2212 530 
Q 2431 669 2431 922 
Q 2431 1156 2273 1281 
Q 2116 1406 1581 1522 
L 1381 1569 
Q 847 1681 609 1914 
Q 372 2147 372 2553 
Q 372 3047 722 3315 
Q 1072 3584 1716 3584 
Q 2034 3584 2315 3537 
Q 2597 3491 2834 3397 
z
" transform="scale(0.015625)"/>
       <path id="DejaVuSans-29" d="M 513 4856 
L 1013 4856 
Q 1481 4119 1714 3412 
Q 1947 2706 1947 2009 
Q 1947 1309 1714 600 
Q 1481 -109 1013 -844 
L 513 -844 
Q 928 -128 1133 580 
Q 1338 1288 1338 2009 
Q 1338 2731 1133 3434 
Q 928 4138 513 4856 
z
" transform="scale(0.015625)"/>
      </defs>
      <use xlink:href="#DejaVuSans-54"/>
      <use xlink:href="#DejaVuSans-69" x="57.958984"/>
      <use xlink:href="#DejaVuSans-6d" x="85.742188"/>
      <use xlink:href="#DejaVuSans-65" x="183.154297"/>
      <use xlink:href="#DejaVuSans-20" x="244.677734"/>
      <use xlink:href="#DejaVuSans-28" x="276.464844"/>
      <use xlink:href="#DejaVuSans-64" x="315.478516"/>
      <use xlink:href="#DejaVuSans-61" x="378.955078"/>
      <use xlink:href="#DejaVuSans-79" x="440.234375"/>
      <use xlink:href="#DejaVuSans-73" x="499.414062"/>
      <use xlink:href="#DejaVuSans-29" x="551.513672"/>
     </g>
    </g>
   </g>
   <g id="matplotlib.axis_2">
    <g id="ytick_1">
     <g id="line2d_10">
      <defs>
       <path id="ma600d9e374" d="M 0 0 
L -3.5 0 
" style="stroke: #000000; stroke-width: 0.8"/>
      </defs>
      <g>
       <use xlink:href="#ma600d9e374" x="104.42" y="569.772691" style="stroke: #000000; stroke-width: 0.8"/>
      </g>
     </g>
     <g id="text_11">
      <!-- 0.00 -->
      <g transform="translate(48.435625 578.130972) scale(0.22 -0.22)">
       <defs>
        <path id="DejaVuSans-2e" d="M 684 794 
L 1344 794 
L 1344 0 
L 684 0 
L 684 794 
z
" transform="scale(0.015625)"/>
       </defs>
       <use xlink:href="#DejaVuSans-30"/>
       <use xlink:href="#DejaVuSans-2e" x="63.623047"/>
       <use xlink:href="#DejaVuSans-30" x="95.410156"/>
       <use xlink:href="#DejaVuSans-30" x="159.033203"/>
      </g>
     </g>
    </g>
    <g id="ytick_2">
     <g id="line2d_11">
      <g>
       <use xlink:href="#ma600d9e374" x="104.42" y="495.830606" style="stroke: #000000; stroke-width: 0.8"/>
      </g>
     </g>
     <g id="text_12">
      <!-- 0.25 -->
      <g transform="translate(48.435625 504.188887) scale(0.22 -0.22)">
       <use xlink:href="#DejaVuSans-30"/>
       <use xlink:href="#DejaVuSans-2e" x="63.623047"/>
       <use xlink:href="#DejaVuSans-32" x="95.410156"/>
       <use xlink:href="#DejaVuSans-35" x="159.033203"/>
      </g>
     </g>
    </g>
    <g id="ytick_3">
     <g id="line2d_12">
      <g>
       <use xlink:href="#ma600d9e374" x="104.42" y="421.888521" style="stroke: #000000; stroke-width: 0.8"/>
      </g>
     </g>
     <g id="text_13">
      <!-- 0.50 -->
      <g transform="translate(48.435625 430.246803) scale(0.22 -0.22)">
       <use xlink:href="#DejaVuSans-30"/>
       <use xlink:href="#DejaVuSans-2e" x="63.623047"/>
       <use xlink:href="#DejaVuSans-35" x="95.410156"/>
       <use xlink:href="#DejaVuSans-30" x="159.033203"/>
      </g>
     </g>
    </g>
    <g id="ytick_4">
     <g id="line2d_13">
      <g>
       <use xlink:href="#ma600d9e374" x="104.42" y="347.946437" style="stroke: #000000; stroke-width: 0.8"/>
      </g>
     </g>
     <g id="text_14">
      <!-- 0.75 -->
      <g transform="translate(48.435625 356.304718) scale(0.22 -0.22)">
       <use xlink:href="#DejaVuSans-30"/>
       <use xlink:href="#DejaVuSans-2e" x="63.623047"/>
       <use xlink:href="#DejaVuSans-37" x="95.410156"/>
       <use xlink:href="#DejaVuSans-35" x="159.033203"/>
      </g>
     </g>
    </g>
    <g id="ytick_5">
     <g id="line2d_14">
      <g>
       <use xlink:href="#ma600d9e374" x="104.42" y="274.004352" style="stroke: #000000; stroke-width: 0.8"/>
      </g>
     </g>
     <g id="text_15">
      <!-- 1.00 -->
      <g transform="translate(48.435625 282.362633) scale(0.22 -0.22)">
       <use xlink:href="#DejaVuSans-31"/>
       <use xlink:href="#DejaVuSans-2e" x="63.623047"/>
       <use xlink:href="#DejaVuSans-30" x="95.410156"/>
       <use xlink:href="#DejaVuSans-30" x="159.033203"/>
      </g>
     </g>
    </g>
    <g id="ytick_6">
     <g id="line2d_15">
      <g>
       <use xlink:href="#ma600d9e374" x="104.42" y="200.062267" style="stroke: #000000; stroke-width: 0.8"/>
      </g>
     </g>
     <g id="text_16">
      <!-- 1.25 -->
      <g transform="translate(48.435625 208.420548) scale(0.22 -0.22)">
       <use xlink:href="#DejaVuSans-31"/>
       <use xlink:href="#DejaVuSans-2e" x="63.623047"/>
       <use xlink:href="#DejaVuSans-32" x="95.410156"/>
       <use xlink:href="#DejaVuSans-35" x="159.033203"/>
      </g>
     </g>
    </g>
    <g id="ytick_7">
     <g id="line2d_16">
      <g>
       <use xlink:href="#ma600d9e374" x="104.42" y="126.120182" style="stroke: #000000; stroke-width: 0.8"/>
      </g>
     </g>
     <g id="text_17">
      <!-- 1.50 -->
      <g transform="translate(48.435625 134.478464) scale(0.22 -0.22)">
       <use xlink:href="#DejaVuSans-31"/>
       <use xlink:href="#DejaVuSans-2e" x="63.623047"/>
       <use xlink:href="#DejaVuSans-35" x="95.410156"/>
       <use xlink:href="#DejaVuSans-30" x="159.033203"/>
      </g>
     </g>
    </g>
    <g id="ytick_8">
     <g id="line2d_17">
      <g>
       <use xlink:href="#ma600d9e374" x="104.42" y="52.178098" style="stroke: #000000; stroke-width: 0.8"/>
      </g>
     </g>
     <g id="text_18">
      <!-- 1.75 -->
      <g transform="translate(48.435625 60.536379) scale(0.22 -0.22)">
       <use xlink:href="#DejaVuSans-31"/>
       <use xlink:href="#DejaVuSans-2e" x="63.623047"/>
       <use xlink:href="#DejaVuSans-37" x="95.410156"/>
       <use xlink:href="#DejaVuSans-35" x="159.033203"/>
      </g>
     </g>
    </g>
    <g id="text_19">
     <!-- X:A -->
     <g transform="translate(39.860313 328.365312) rotate(-90) scale(0.22 -0.22)">
      <defs>
       <path id="DejaVuSans-58" d="M 403 4666 
L 1081 4666 
L 2241 2931 
L 3406 4666 
L 4084 4666 
L 2584 2425 
L 4184 0 
L 3506 0 
L 2194 1984 
L 872 0 
L 191 0 
L 1856 2491 
L 403 4666 
z
" transform="scale(0.015625)"/>
       <path id="DejaVuSans-3a" d="M 750 794 
L 1409 794 
L 1409 0 
L 750 0 
L 750 794 
z
M 750 3309 
L 1409 3309 
L 1409 2516 
L 750 2516 
L 750 3309 
z
" transform="scale(0.015625)"/>
       <path id="DejaVuSans-41" d="M 2188 4044 
L 1331 1722 
L 3047 1722 
L 2188 4044 
z
M 1831 4666 
L 2547 4666 
L 4325 0 
L 3669 0 
L 3244 1197 
L 1141 1197 
L 716 0 
L 50 0 
L 1831 4666 
z
" transform="scale(0.015625)"/>
      </defs>
      <use xlink:href="#DejaVuSans-58"/>
      <use xlink:href="#DejaVuSans-3a" x="68.505859"/>
      <use xlink:href="#DejaVuSans-41" x="102.197266"/>
     </g>
    </g>
   </g>
   <g id="line2d_18">
    <path d="M 139.849545 569.454545 
L 147.007029 567.170794 
L 154.164513 564.91383 
L 161.321997 562.683137 
L 168.479481 560.478204 
L 175.636965 558.298662 
L 182.794449 556.144191 
L 189.951933 554.014433 
L 197.109417 551.909025 
L 204.266901 549.827697 
L 211.424385 547.770175 
L 218.581869 545.736169 
L 225.739353 543.725373 
L 232.896837 541.737478 
L 240.05432 539.772227 
L 247.211804 537.829374 
L 254.369288 535.908656 
L 261.526772 534.009804 
L 268.684256 532.132538 
L 275.84174 530.276567 
L 282.999224 528.441599 
L 290.156708 526.62742 
L 297.314192 524.83383 
L 304.471676 523.060608 
L 311.62916 521.30751 
L 318.786644 519.574273 
L 325.944128 517.860608 
L 333.101612 516.166208 
L 340.259096 514.490807 
L 347.416579 512.834284 
L 354.574063 511.196457 
L 361.731547 509.577116 
L 368.889031 507.976019 
L 376.046515 506.392894 
L 383.203999 504.827449 
L 390.361483 503.27952 
L 397.518967 501.748948 
L 404.676451 500.235539 
L 411.833935 498.739086 
L 418.991419 497.259357 
L 426.148903 495.796105 
L 433.306387 494.349111 
L 440.463871 492.91823 
L 447.621354 491.503304 
L 454.778838 490.104153 
L 461.936322 488.720581 
L 469.093806 487.352373 
L 476.25129 485.999295 
L 483.408774 484.661124 
L 490.566258 483.337736 
L 497.723742 482.029017 
L 504.881226 480.734818 
L 512.03871 479.454969 
L 519.196194 478.189268 
L 526.353678 476.937487 
L 533.511162 475.699377 
L 540.668646 474.474801 
L 547.826129 473.263697 
L 554.983613 472.065955 
L 562.141097 470.88143 
L 569.298581 469.709939 
L 576.456065 468.551266 
L 583.613549 467.40516 
L 590.771033 466.271498 
L 597.928517 465.150231 
L 605.086001 464.041252 
L 612.243485 462.944419 
L 619.400969 461.859566 
L 626.558453 460.786492 
L 633.715937 459.724999 
L 640.873421 458.675017 
L 648.030904 457.636455 
L 655.188388 456.609195 
L 662.345872 455.5931 
L 669.503356 454.588014 
L 676.66084 453.593761 
L 683.818324 452.6102 
L 690.975808 451.637258 
L 698.133292 450.674841 
L 705.290776 449.722838 
L 712.44826 448.78112 
L 719.605744 447.849544 
L 726.763228 446.92795 
L 733.920712 446.016193 
L 741.078196 445.114215 
L 748.23568 444.221942 
L 755.393163 443.339284 
L 762.550647 442.466126 
L 769.708131 441.602337 
L 776.865615 440.747763 
L 784.023099 439.902236 
L 791.180583 439.065688 
L 798.338067 438.238084 
L 805.495551 437.419359 
L 812.653035 436.609421 
L 819.810519 435.808149 
L 826.968003 435.015397 
L 834.125487 434.230992 
L 841.282971 433.454878 
L 848.440455 432.687022 
" clip-path="url(#p13386ddcbc)" style="fill: none; stroke: #d0e1f2; stroke-width: 1.5; stroke-linecap: square"/>
   </g>
   <g id="line2d_19">
    <path d="M 139.849545 95.760921 
L 147.007029 88.927076 
L 154.164513 84.636891 
L 161.321997 82.053202 
L 168.479481 80.311642 
L 175.636965 79.183741 
L 182.794449 78.590556 
L 189.951933 78.29129 
L 197.109417 78.006863 
L 204.266901 77.820049 
L 211.424385 77.781143 
L 218.581869 77.865089 
L 225.739353 77.975898 
L 232.896837 77.997688 
L 240.05432 78.007239 
L 247.211804 78.088337 
L 254.369288 78.274993 
L 261.526772 78.552964 
L 268.684256 78.859753 
L 275.84174 79.084536 
L 282.999224 79.099511 
L 290.156708 79.055059 
L 297.314192 79.142258 
L 304.471676 79.461221 
L 311.62916 80.021094 
L 318.786644 80.740056 
L 325.944128 81.44532 
L 333.101612 81.873134 
L 340.259096 81.907334 
L 347.416579 81.953088 
L 354.574063 82.195393 
L 361.731547 82.687555 
L 368.889031 83.357037 
L 376.046515 84.005459 
L 383.203999 84.358624 
L 390.361483 84.603381 
L 397.518967 84.938817 
L 404.676451 85.433727 
L 411.833935 86.074597 
L 418.991419 86.765598 
L 426.148903 87.32869 
L 433.306387 87.686914 
L 440.463871 88.040544 
L 447.621354 88.521427 
L 454.778838 89.180806 
L 461.936322 89.989315 
L 469.093806 90.836984 
L 476.25129 91.533232 
L 483.408774 91.911928 
L 490.566258 92.200362 
L 497.723742 92.631165 
L 504.881226 93.31953 
L 512.03871 94.264182 
L 519.196194 95.347377 
L 526.353678 96.334901 
L 533.511162 96.894771 
L 540.668646 97.14242 
L 547.826129 97.464727 
L 554.983613 98.062716 
L 562.141097 98.984821 
L 569.298581 100.126881 
L 576.456065 101.232144 
L 583.613549 101.902499 
L 590.771033 102.249389 
L 597.928517 102.672421 
L 605.086001 103.320936 
L 612.243485 104.215051 
L 619.400969 105.245658 
L 626.558453 106.174424 
L 633.715937 106.74708 
L 640.873421 107.242726 
L 648.030904 107.842279 
L 655.188388 108.610861 
L 662.345872 109.525371 
L 669.503356 110.474488 
L 676.66084 111.258741 
L 683.818324 111.815484 
L 690.975808 112.366436 
L 698.133292 113.032521 
L 705.290776 113.85825 
L 712.44826 114.811714 
L 719.605744 115.784588 
L 726.763228 116.592127 
L 733.920712 117.117549 
L 741.078196 117.58946 
L 748.23568 118.185148 
L 755.393163 118.986973 
L 762.550647 119.982787 
L 769.708131 121.065934 
L 776.865615 122.035252 
L 784.023099 122.627645 
L 791.180583 122.991542 
L 798.338067 123.430439 
L 805.495551 124.104952 
L 812.653035 125.050068 
L 819.810519 126.175144 
L 826.968003 127.26391 
L 834.125487 127.97985 
L 841.282971 128.504783 
L 848.440455 129.102489 
" clip-path="url(#p13386ddcbc)" style="fill: none; stroke: #fdd9b4; stroke-width: 1.5; stroke-linecap: square"/>
   </g>
   <g id="line2d_20">
    <path d="M 139.849545 569.454545 
L 147.007029 567.060073 
L 154.164513 564.741597 
L 161.321997 562.485248 
L 168.479481 560.279166 
L 175.636965 558.117468 
L 182.794449 555.99717 
L 189.951933 553.913886 
L 197.109417 551.861796 
L 204.266901 549.836388 
L 211.424385 547.838566 
L 218.581869 545.868214 
L 225.739353 543.92449 
L 232.896837 542.005841 
L 240.05432 540.11 
L 247.211804 538.234648 
L 254.369288 536.380354 
L 261.526772 534.547793 
L 268.684256 532.73715 
L 275.84174 530.948168 
L 282.999224 529.18015 
L 290.156708 527.43196 
L 297.314192 525.702021 
L 304.471676 523.988448 
L 311.62916 522.291205 
L 318.786644 520.611639 
L 325.944128 518.950667 
L 333.101612 517.308727 
L 340.259096 515.685782 
L 347.416579 514.081317 
L 354.574063 512.49434 
L 361.731547 510.923384 
L 368.889031 509.366504 
L 376.046515 507.821297 
L 383.203999 506.287005 
L 390.361483 504.766189 
L 397.518967 503.261064 
L 404.676451 501.773071 
L 411.833935 500.302879 
L 418.991419 498.85038 
L 426.148903 497.414697 
L 433.306387 495.994177 
L 440.463871 494.586393 
L 447.621354 493.188146 
L 454.778838 491.795511 
L 461.936322 490.409039 
L 469.093806 489.033587 
L 476.25129 487.672209 
L 483.408774 486.326833 
L 490.566258 484.998269 
L 497.723742 483.686197 
L 504.881226 482.38918 
L 512.03871 481.104653 
L 519.196194 479.82893 
L 526.353678 478.557201 
L 533.511162 477.287354 
L 540.668646 476.026504 
L 547.826129 474.777484 
L 554.983613 473.541909 
L 562.141097 472.320407 
L 569.298581 471.112619 
L 576.456065 469.917199 
L 583.613549 468.731814 
L 590.771033 467.553143 
L 597.928517 466.377347 
L 605.086001 465.20756 
L 612.243485 464.047019 
L 619.400969 462.897059 
L 626.558453 461.758362 
L 633.715937 460.630952 
L 640.873421 459.514203 
L 648.030904 458.406832 
L 655.188388 457.306902 
L 662.345872 456.211822 
L 669.503356 455.120575 
L 676.66084 454.036114 
L 683.818324 452.960076 
L 690.975808 451.893523 
L 698.133292 450.836959 
L 705.290776 449.790323 
L 712.44826 448.752997 
L 719.605744 447.723801 
L 726.763228 446.700995 
L 733.920712 445.682279 
L 741.078196 444.665456 
L 748.23568 443.652541 
L 755.393163 442.64625 
L 762.550647 441.648487 
L 769.708131 440.660415 
L 776.865615 439.682456 
L 784.023099 438.714291 
L 791.180583 437.754861 
L 798.338067 436.802365 
L 805.495551 435.854262 
L 812.653035 434.90727 
L 819.810519 433.960032 
L 826.968003 433.019334 
L 834.125487 432.085608 
L 841.282971 431.158489 
L 848.440455 430.23753 
" clip-path="url(#p13386ddcbc)" style="fill: none; stroke: #b7d4ea; stroke-width: 1.5; stroke-linecap: square"/>
   </g>
   <g id="line2d_21">
    <path d="M 139.849545 95.760921 
L 147.007029 89.962991 
L 154.164513 85.744777 
L 161.321997 82.69864 
L 168.479481 80.466453 
L 175.636965 78.863542 
L 182.794449 77.79982 
L 189.951933 77.1462 
L 197.109417 76.733777 
L 204.266901 76.429999 
L 211.424385 76.268182 
L 218.581869 76.259405 
L 225.739353 76.390012 
L 232.896837 76.621953 
L 240.05432 76.892785 
L 247.211804 77.137303 
L 254.369288 77.387586 
L 261.526772 77.681123 
L 268.684256 78.038051 
L 275.84174 78.462791 
L 282.999224 78.944055 
L 290.156708 79.454838 
L 297.314192 79.952424 
L 304.471676 80.383158 
L 311.62916 80.757747 
L 318.786644 81.133962 
L 325.944128 81.554331 
L 333.101612 82.044711 
L 340.259096 82.614288 
L 347.416579 83.255576 
L 354.574063 83.944418 
L 361.731547 84.639984 
L 368.889031 85.284774 
L 376.046515 85.80534 
L 383.203999 86.186144 
L 390.361483 86.522947 
L 397.518967 86.898643 
L 404.676451 87.369993 
L 411.833935 87.96762 
L 418.991419 88.696017 
L 426.148903 89.533541 
L 433.306387 90.432416 
L 440.463871 91.31873 
L 447.621354 92.092437 
L 454.778838 92.629028 
L 461.936322 92.956004 
L 469.093806 93.240624 
L 476.25129 93.588137 
L 483.408774 94.067395 
L 490.566258 94.710849 
L 497.723742 95.514548 
L 504.881226 96.438145 
L 512.03871 97.404891 
L 519.196194 98.301637 
L 526.353678 98.978834 
L 533.511162 99.374738 
L 540.668646 99.723776 
L 547.826129 100.118747 
L 554.983613 100.61437 
L 562.141097 101.2348 
L 569.298581 101.973634 
L 576.456065 102.793905 
L 583.613549 103.628083 
L 590.771033 104.378078 
L 597.928517 104.92983 
L 605.086001 105.385218 
L 612.243485 105.846894 
L 619.400969 106.358647 
L 626.558453 106.944635 
L 633.715937 107.609376 
L 640.873421 108.337754 
L 648.030904 109.09502 
L 655.188388 109.826786 
L 662.345872 110.45903 
L 669.503356 110.965658 
L 676.66084 111.438587 
L 683.818324 111.928635 
L 690.975808 112.469855 
L 698.133292 113.079959 
L 705.290776 113.760323 
L 712.44826 114.495981 
L 719.605744 115.25563 
L 726.763228 115.991627 
L 733.920712 116.639992 
L 741.078196 117.140437 
L 748.23568 117.555516 
L 755.393163 117.964917 
L 762.550647 118.424994 
L 769.708131 118.97118 
L 776.865615 119.617984 
L 784.023099 120.358996 
L 791.180583 121.166882 
L 798.338067 121.993387 
L 805.495551 122.769333 
L 812.653035 123.404623 
L 819.810519 123.863279 
L 826.968003 124.338372 
L 834.125487 124.843999 
L 841.282971 125.371962 
L 848.440455 125.912003 
" clip-path="url(#p13386ddcbc)" style="fill: none; stroke: #fdc38d; stroke-width: 1.5; stroke-linecap: square"/>
   </g>
   <g id="line2d_22">
    <path d="M 139.849545 569.454545 
L 147.007029 567.17743 
L 154.164513 564.930647 
L 161.321997 562.712309 
L 168.479481 560.520535 
L 175.636965 558.354533 
L 182.794449 556.213841 
L 189.951933 554.097706 
L 197.109417 552.005315 
L 204.266901 549.936537 
L 211.424385 547.891187 
L 218.581869 545.868935 
L 225.739353 543.869315 
L 232.896837 541.891831 
L 240.05432 539.936378 
L 247.211804 538.002853 
L 254.369288 536.091057 
L 261.526772 534.200698 
L 268.684256 532.331389 
L 275.84174 530.482649 
L 282.999224 528.654004 
L 290.156708 526.845535 
L 297.314192 525.057353 
L 304.471676 523.289395 
L 311.62916 521.541422 
L 318.786644 519.813024 
L 325.944128 518.103614 
L 333.101612 516.412433 
L 340.259096 514.739187 
L 347.416579 513.084411 
L 354.574063 511.448196 
L 361.731547 509.8304 
L 368.889031 508.230643 
L 376.046515 506.648307 
L 383.203999 505.082691 
L 390.361483 503.534026 
L 397.518967 502.002454 
L 404.676451 500.48789 
L 411.833935 498.990098 
L 418.991419 497.508683 
L 426.148903 496.043096 
L 433.306387 494.593053 
L 440.463871 493.158754 
L 447.621354 491.740253 
L 454.778838 490.337454 
L 461.936322 488.950109 
L 469.093806 487.57782 
L 476.25129 486.220038 
L 483.408774 484.876317 
L 490.566258 483.546949 
L 497.723742 482.232182 
L 504.881226 480.932045 
L 512.03871 479.646354 
L 519.196194 478.374715 
L 526.353678 477.116515 
L 533.511162 475.870993 
L 540.668646 474.63831 
L 547.826129 473.418993 
L 554.983613 472.213234 
L 562.141097 471.020952 
L 569.298581 469.841789 
L 576.456065 468.675113 
L 583.613549 467.520058 
L 590.771033 466.376794 
L 597.928517 465.245864 
L 605.086001 464.127384 
L 612.243485 463.021241 
L 619.400969 461.92709 
L 626.558453 460.844357 
L 633.715937 459.772479 
L 640.873421 458.711858 
L 648.030904 457.662673 
L 655.188388 456.62491 
L 662.345872 455.598395 
L 669.503356 454.582801 
L 676.66084 453.577646 
L 683.818324 452.582724 
L 690.975808 451.598309 
L 698.133292 450.624493 
L 705.290776 449.661237 
L 712.44826 448.708366 
L 719.605744 447.765575 
L 726.763228 446.832425 
L 733.920712 445.908618 
L 741.078196 444.994448 
L 748.23568 444.090112 
L 755.393163 443.195643 
L 762.550647 442.310914 
L 769.708131 441.435636 
L 776.865615 440.569359 
L 784.023099 439.711532 
L 791.180583 438.862319 
L 798.338067 438.022139 
L 805.495551 437.191168 
L 812.653035 436.36937 
L 819.810519 435.556499 
L 826.968003 434.752095 
L 834.125487 433.955494 
L 841.282971 433.166894 
L 848.440455 432.386669 
" clip-path="url(#p13386ddcbc)" style="fill: none; stroke: #94c4df; stroke-width: 1.5; stroke-linecap: square"/>
   </g>
   <g id="line2d_23">
    <path d="M 139.849545 95.760921 
L 147.007029 88.79509 
L 154.164513 84.421396 
L 161.321997 81.789766 
L 168.479481 80.019623 
L 175.636965 78.875773 
L 182.794449 78.275696 
L 189.951933 77.974292 
L 197.109417 77.692718 
L 204.266901 77.514546 
L 211.424385 77.488765 
L 218.581869 77.587868 
L 225.739353 77.71166 
L 232.896837 77.745437 
L 240.05432 77.772124 
L 247.211804 77.874668 
L 254.369288 78.085279 
L 261.526772 78.386652 
L 268.684256 78.71197 
L 275.84174 78.944373 
L 282.999224 78.969151 
L 290.156708 78.955253 
L 297.314192 79.083688 
L 304.471676 79.444933 
L 311.62916 80.03893 
L 318.786644 80.775088 
L 325.944128 81.472286 
L 333.101612 81.858867 
L 340.259096 81.899766 
L 347.416579 81.984881 
L 354.574063 82.277233 
L 361.731547 82.815131 
L 368.889031 83.512403 
L 376.046515 84.158393 
L 383.203999 84.49657 
L 390.361483 84.755733 
L 397.518967 85.115763 
L 404.676451 85.639046 
L 411.833935 86.304771 
L 418.991419 87.008932 
L 426.148903 87.565292 
L 433.306387 87.923764 
L 440.463871 88.28924 
L 447.621354 88.788363 
L 454.778838 89.466771 
L 461.936322 90.289094 
L 469.093806 91.138954 
L 476.25129 91.818964 
L 483.408774 92.184621 
L 490.566258 92.48248 
L 497.723742 92.933155 
L 504.881226 93.641624 
L 512.03871 94.597671 
L 519.196194 95.67588 
L 526.353678 96.635639 
L 533.511162 97.153441 
L 540.668646 97.398483 
L 547.826129 97.737843 
L 554.983613 98.357604 
L 562.141097 99.293778 
L 569.298581 100.432308 
L 576.456065 101.509066 
L 583.613549 102.131983 
L 590.771033 102.470322 
L 597.928517 102.897238 
L 605.086001 103.553201 
L 612.243485 104.450527 
L 619.400969 105.473377 
L 626.558453 106.37776 
L 633.715937 106.925037 
L 640.873421 107.409002 
L 648.030904 108.001246 
L 655.188388 108.76334 
L 662.345872 109.668808 
L 669.503356 110.603127 
L 676.66084 111.364072 
L 683.818324 111.902563 
L 690.975808 112.439601 
L 698.133292 113.093272 
L 705.290776 113.905801 
L 712.44826 114.843549 
L 719.605744 115.797014 
L 726.763228 116.58083 
L 733.920712 117.086283 
L 741.078196 117.543156 
L 748.23568 118.124594 
L 755.393163 118.910331 
L 762.550647 119.886927 
L 769.708131 120.947767 
L 776.865615 121.893069 
L 784.023099 122.463467 
L 791.180583 122.809462 
L 798.338067 123.230514 
L 805.495551 123.885408 
L 812.653035 124.808895 
L 819.810519 125.911697 
L 826.968003 126.980507 
L 834.125487 127.681991 
L 841.282971 128.185049 
L 848.440455 128.760992 
" clip-path="url(#p13386ddcbc)" style="fill: none; stroke: #fda762; stroke-width: 1.5; stroke-linecap: square"/>
   </g>
   <g id="line2d_24">
    <path d="M 139.849545 569.454545 
L 147.007029 567.201062 
L 154.164513 564.972103 
L 161.321997 562.767391 
L 168.479481 560.586651 
L 175.636965 558.429619 
L 182.794449 556.296037 
L 189.951933 554.185647 
L 197.109417 552.098194 
L 204.266901 550.03343 
L 211.424385 547.991112 
L 218.581869 545.970995 
L 225.739353 543.972837 
L 232.896837 541.9964 
L 240.05432 540.041448 
L 247.211804 538.107752 
L 254.369288 536.195081 
L 261.526772 534.303208 
L 268.684256 532.431907 
L 275.84174 530.580954 
L 282.999224 528.750126 
L 290.156708 526.939208 
L 297.314192 525.147987 
L 304.471676 523.376254 
L 311.62916 521.623795 
L 318.786644 519.890403 
L 325.944128 518.175867 
L 333.101612 516.47998 
L 340.259096 514.802538 
L 347.416579 513.143349 
L 354.574063 511.502218 
L 361.731547 509.878949 
L 368.889031 508.273349 
L 376.046515 506.685224 
L 383.203999 505.114379 
L 390.361483 503.560632 
L 397.518967 502.0238 
L 404.676451 500.503702 
L 411.833935 499.000156 
L 418.991419 497.512981 
L 426.148903 496.041997 
L 433.306387 494.587029 
L 440.463871 493.147906 
L 447.621354 491.724459 
L 454.778838 490.316518 
L 461.936322 488.923915 
L 469.093806 487.546483 
L 476.25129 486.184055 
L 483.408774 484.836465 
L 490.566258 483.503557 
L 497.723742 482.185175 
L 504.881226 480.881163 
L 512.03871 479.591365 
L 519.196194 478.315627 
L 526.353678 477.053792 
L 533.511162 475.805704 
L 540.668646 474.571217 
L 547.826129 473.35019 
L 554.983613 472.142479 
L 562.141097 470.94794 
L 569.298581 469.766429 
L 576.456065 468.597801 
L 583.613549 467.44191 
L 590.771033 466.298622 
L 597.928517 465.167805 
L 605.086001 464.049325 
L 612.243485 462.94305 
L 619.400969 461.848844 
L 626.558453 460.766574 
L 633.715937 459.696107 
L 640.873421 458.637319 
L 648.030904 457.590086 
L 655.188388 456.554284 
L 662.345872 455.529787 
L 669.503356 454.516472 
L 676.66084 453.514214 
L 683.818324 452.522894 
L 690.975808 451.542395 
L 698.133292 450.572601 
L 705.290776 449.613397 
L 712.44826 448.664668 
L 719.605744 447.726297 
L 726.763228 446.798171 
L 733.920712 445.880176 
L 741.078196 444.972206 
L 748.23568 444.074154 
L 755.393163 443.185914 
L 762.550647 442.307378 
L 769.708131 441.43844 
L 776.865615 440.578992 
L 784.023099 439.728929 
L 791.180583 438.88815 
L 798.338067 438.056559 
L 805.495551 437.234058 
L 812.653035 436.420548 
L 819.810519 435.61593 
L 826.968003 434.820104 
L 834.125487 434.032971 
L 841.282971 433.254439 
L 848.440455 432.484418 
" clip-path="url(#p13386ddcbc)" style="fill: none; stroke: #6aaed6; stroke-width: 1.5; stroke-linecap: square"/>
   </g>
   <g id="line2d_25">
    <path d="M 139.849545 95.760921 
L 147.007029 88.779458 
L 154.164513 84.399529 
L 161.321997 81.778683 
L 168.479481 80.017682 
L 175.636965 78.871034 
L 182.794449 78.265469 
L 189.951933 77.964993 
L 197.109417 77.686843 
L 204.266901 77.505898 
L 211.424385 77.47547 
L 218.581869 77.571489 
L 225.739353 77.697315 
L 232.896837 77.733375 
L 240.05432 77.755953 
L 247.211804 77.851482 
L 254.369288 78.055039 
L 261.526772 78.352012 
L 268.684256 78.678104 
L 275.84174 78.919215 
L 282.999224 78.950027 
L 290.156708 78.927005 
L 297.314192 79.039358 
L 304.471676 79.384551 
L 311.62916 79.968306 
L 318.786644 80.704601 
L 325.944128 81.41567 
L 333.101612 81.832002 
L 340.259096 81.875766 
L 347.416579 81.949025 
L 354.574063 82.225511 
L 361.731547 82.750819 
L 368.889031 83.444473 
L 376.046515 84.099924 
L 383.203999 84.450413 
L 390.361483 84.708887 
L 397.518967 85.064577 
L 404.676451 85.582939 
L 411.833935 86.245825 
L 418.991419 86.951482 
L 426.148903 87.515138 
L 433.306387 87.877781 
L 440.463871 88.244161 
L 447.621354 88.742916 
L 454.778838 89.421238 
L 461.936322 90.244872 
L 469.093806 91.098113 
L 476.25129 91.783811 
L 483.408774 92.153604 
L 490.566258 92.452811 
L 497.723742 92.904932 
L 504.881226 93.616541 
L 512.03871 94.577779 
L 519.196194 95.66235 
L 526.353678 96.627526 
L 533.511162 97.147006 
L 540.668646 97.392207 
L 547.826129 97.733923 
L 554.983613 98.35979 
L 562.141097 99.305033 
L 569.298581 100.452461 
L 576.456065 101.532472 
L 583.613549 102.148898 
L 590.771033 102.487477 
L 597.928517 102.920093 
L 605.086001 103.585962 
L 612.243485 104.493971 
L 619.400969 105.522686 
L 626.558453 106.420347 
L 633.715937 106.95947 
L 640.873421 107.447475 
L 648.030904 108.049449 
L 655.188388 108.823262 
L 662.345872 109.737341 
L 669.503356 110.670665 
L 676.66084 111.414648 
L 683.818324 111.948909 
L 690.975808 112.492512 
L 698.133292 113.159273 
L 705.290776 113.98595 
L 712.44826 114.932239 
L 719.605744 115.880775 
L 726.763228 116.637244 
L 733.920712 117.126805 
L 741.078196 117.588773 
L 748.23568 118.188897 
L 755.393163 118.998071 
L 762.550647 119.992334 
L 769.708131 121.052869 
L 776.865615 121.966003 
L 784.023099 122.484736 
L 791.180583 122.822414 
L 798.338067 123.264042 
L 805.495551 123.954398 
L 812.653035 124.911464 
L 819.810519 126.026429 
L 826.968003 127.063686 
L 834.125487 127.690209 
L 841.282971 128.201476 
L 848.440455 128.781327 
" clip-path="url(#p13386ddcbc)" style="fill: none; stroke: #fd8c3b; stroke-width: 1.5; stroke-linecap: square"/>
   </g>
   <g id="line2d_26">
    <path d="M 139.849545 569.454545 
L 147.007029 567.675755 
L 154.164513 565.897443 
L 161.321997 564.119609 
L 168.479481 562.342254 
L 175.636965 560.565376 
L 182.794449 558.788977 
L 189.951933 557.013056 
L 197.109417 555.237612 
L 204.266901 553.462647 
L 211.424385 551.688158 
L 218.581869 549.914147 
L 225.739353 548.140614 
L 232.896837 546.367558 
L 240.05432 544.594978 
L 247.211804 542.822876 
L 254.369288 541.051251 
L 261.526772 539.280104 
L 268.684256 537.509435 
L 275.84174 535.739245 
L 282.999224 533.969534 
L 290.156708 532.200305 
L 297.314192 530.431561 
L 304.471676 528.663307 
L 311.62916 526.89555 
L 318.786644 525.128299 
L 325.944128 523.361567 
L 333.101612 521.59537 
L 340.259096 519.829733 
L 347.416579 518.064689 
L 354.574063 516.30028 
L 361.731547 514.536563 
L 368.889031 512.773608 
L 376.046515 511.011506 
L 383.203999 509.25038 
L 390.361483 507.490382 
L 397.518967 505.7317 
L 404.676451 503.974569 
L 411.833935 502.219268 
L 418.991419 500.46616 
L 426.148903 498.715692 
L 433.306387 496.968397 
L 440.463871 495.224897 
L 447.621354 493.485951 
L 454.778838 491.752448 
L 461.936322 490.025442 
L 469.093806 488.306158 
L 476.25129 486.595989 
L 483.408774 484.896526 
L 490.566258 483.209568 
L 497.723742 481.537096 
L 504.881226 479.881271 
L 512.03871 478.244432 
L 519.196194 476.62904 
L 526.353678 475.037695 
L 533.511162 473.472982 
L 540.668646 471.937442 
L 547.826129 470.433573 
L 554.983613 468.963722 
L 562.141097 467.53001 
L 569.298581 466.134273 
L 576.456065 464.778003 
L 583.613549 463.462349 
L 590.771033 462.188117 
L 597.928517 460.955744 
L 605.086001 459.765267 
L 612.243485 458.616443 
L 619.400969 457.508765 
L 626.558453 456.441465 
L 633.715937 455.413523 
L 640.873421 454.423793 
L 648.030904 453.470984 
L 655.188388 452.553744 
L 662.345872 451.670679 
L 669.503356 450.820349 
L 676.66084 450.001283 
L 683.818324 449.212051 
L 690.975808 448.451242 
L 698.133292 447.717491 
L 705.290776 447.009478 
L 712.44826 446.325931 
L 719.605744 445.665626 
L 726.763228 445.027404 
L 733.920712 444.410166 
L 741.078196 443.812867 
L 748.23568 443.234517 
L 755.393163 442.674181 
L 762.550647 442.130975 
L 769.708131 441.60407 
L 776.865615 441.092683 
L 784.023099 440.596078 
L 791.180583 440.113556 
L 798.338067 439.644463 
L 805.495551 439.188184 
L 812.653035 438.744137 
L 819.810519 438.311779 
L 826.968003 437.890593 
L 834.125487 437.480092 
L 841.282971 437.079818 
L 848.440455 436.689341 
" clip-path="url(#p13386ddcbc)" style="fill: none; stroke: #4a98c9; stroke-width: 1.5; stroke-linecap: square"/>
   </g>
   <g id="line2d_27">
    <path d="M 139.849545 95.760921 
L 147.007029 87.411919 
L 154.164513 82.473779 
L 161.321997 80.336453 
L 168.479481 79.087856 
L 175.636965 78.031514 
L 182.794449 77.496806 
L 189.951933 77.213501 
L 197.109417 76.949604 
L 204.266901 76.807404 
L 211.424385 76.813791 
L 218.581869 76.87171 
L 225.739353 76.805326 
L 232.896837 76.69134 
L 240.05432 76.640741 
L 247.211804 76.689271 
L 254.369288 76.805105 
L 261.526772 76.888852 
L 268.684256 76.763698 
L 275.84174 76.431991 
L 282.999224 76.18604 
L 290.156708 76.200791 
L 297.314192 76.509971 
L 304.471676 77.006085 
L 311.62916 77.440417 
L 318.786644 77.423424 
L 325.944128 76.992877 
L 333.101612 76.71008 
L 340.259096 76.744922 
L 347.416579 77.015938 
L 354.574063 77.190318 
L 361.731547 77.027244 
L 368.889031 76.91411 
L 376.046515 76.977078 
L 383.203999 77.20208 
L 390.361483 77.440139 
L 397.518967 77.44748 
L 404.676451 77.367148 
L 411.833935 77.524669 
L 418.991419 78.049722 
L 426.148903 78.86889 
L 433.306387 79.705661 
L 440.463871 80.156446 
L 447.621354 80.550774 
L 454.778838 81.328393 
L 461.936322 82.579799 
L 469.093806 84.082147 
L 476.25129 85.355388 
L 483.408774 86.560672 
L 490.566258 88.121466 
L 497.723742 90.1232 
L 504.881226 92.33798 
L 512.03871 94.272294 
L 519.196194 96.036006 
L 526.353678 97.957912 
L 533.511162 100.101534 
L 540.668646 102.323132 
L 547.826129 104.274798 
L 554.983613 105.953555 
L 562.141097 107.569251 
L 569.298581 109.114129 
L 576.456065 110.569861 
L 583.613549 111.907543 
L 590.771033 113.11024 
L 597.928517 114.2985 
L 605.086001 115.336771 
L 612.243485 116.131257 
L 619.400969 116.712608 
L 626.558453 117.235925 
L 633.715937 117.952073 
L 640.873421 118.766319 
L 648.030904 119.396375 
L 655.188388 119.733456 
L 662.345872 119.845669 
L 669.503356 119.978012 
L 676.66084 120.47239 
L 683.818324 121.097814 
L 690.975808 121.523501 
L 698.133292 121.630312 
L 705.290776 121.496947 
L 712.44826 121.399943 
L 719.605744 121.743812 
L 726.763228 122.280413 
L 733.920712 122.631511 
L 741.078196 122.661791 
L 748.23568 122.444706 
L 755.393163 122.262471 
L 762.550647 122.529351 
L 769.708131 122.976678 
L 776.865615 123.251325 
L 784.023099 123.238499 
L 791.180583 123.015466 
L 798.338067 122.851554 
L 805.495551 123.100674 
L 812.653035 123.469384 
L 819.810519 123.671774 
L 826.968003 123.620015 
L 834.125487 123.394566 
L 841.282971 123.244165 
L 848.440455 123.417183 
" clip-path="url(#p13386ddcbc)" style="fill: none; stroke: #f3701b; stroke-width: 1.5; stroke-linecap: square"/>
   </g>
   <g id="line2d_28">
    <path d="M 139.849545 569.454545 
L 147.007029 567.393154 
L 154.164513 565.339432 
L 161.321997 563.293351 
L 168.479481 561.254888 
L 175.636965 559.22402 
L 182.794449 557.200732 
L 189.951933 555.185016 
L 197.109417 553.176875 
L 204.266901 551.176322 
L 211.424385 549.183382 
L 218.581869 547.198099 
L 225.739353 545.220536 
L 232.896837 543.250772 
L 240.05432 541.288913 
L 247.211804 539.335085 
L 254.369288 537.389441 
L 261.526772 535.452165 
L 268.684256 533.523471 
L 275.84174 531.603605 
L 282.999224 529.692842 
L 290.156708 527.791493 
L 297.314192 525.899903 
L 304.471676 524.018456 
L 311.62916 522.147568 
L 318.786644 520.287691 
L 325.944128 518.439309 
L 333.101612 516.602939 
L 340.259096 514.779135 
L 347.416579 512.968474 
L 354.574063 511.171567 
L 361.731547 509.389046 
L 368.889031 507.621559 
L 376.046515 505.869768 
L 383.203999 504.134346 
L 390.361483 502.415982 
L 397.518967 500.715358 
L 404.676451 499.03316 
L 411.833935 497.37006 
L 418.991419 495.72671 
L 426.148903 494.10374 
L 433.306387 492.50176 
L 440.463871 490.921355 
L 447.621354 489.363068 
L 454.778838 487.827407 
L 461.936322 486.314834 
L 469.093806 484.825765 
L 476.25129 483.360567 
L 483.408774 481.919558 
L 490.566258 480.503011 
L 497.723742 479.111141 
L 504.881226 477.744109 
L 512.03871 476.402031 
L 519.196194 475.084972 
L 526.353678 473.792948 
L 533.511162 472.525925 
L 540.668646 471.283828 
L 547.826129 470.066538 
L 554.983613 468.873895 
L 562.141097 467.705709 
L 569.298581 466.561755 
L 576.456065 465.441776 
L 583.613549 464.345483 
L 590.771033 463.272568 
L 597.928517 462.222698 
L 605.086001 461.195523 
L 612.243485 460.190679 
L 619.400969 459.207788 
L 626.558453 458.246455 
L 633.715937 457.306279 
L 640.873421 456.386852 
L 648.030904 455.48776 
L 655.188388 454.608588 
L 662.345872 453.748917 
L 669.503356 452.908329 
L 676.66084 452.086403 
L 683.818324 451.282722 
L 690.975808 450.496872 
L 698.133292 449.728444 
L 705.290776 448.977031 
L 712.44826 448.242235 
L 719.605744 447.52366 
L 726.763228 446.820916 
L 733.920712 446.133622 
L 741.078196 445.461403 
L 748.23568 444.803892 
L 755.393163 444.160728 
L 762.550647 443.53156 
L 769.708131 442.916042 
L 776.865615 442.313837 
L 784.023099 441.724615 
L 791.180583 441.148057 
L 798.338067 440.583849 
L 805.495551 440.031685 
L 812.653035 439.491266 
L 819.810519 438.962304 
L 826.968003 438.444515 
L 834.125487 437.937623 
L 841.282971 437.441362 
L 848.440455 436.955469 
" clip-path="url(#p13386ddcbc)" style="fill: none; stroke: #2e7ebc; stroke-width: 1.5; stroke-linecap: square"/>
   </g>
   <g id="line2d_29">
    <path d="M 139.849545 95.760921 
L 147.007029 90.24662 
L 154.164513 86.795364 
L 161.321997 84.837674 
L 168.479481 83.563431 
L 175.636965 82.646993 
L 182.794449 82.130841 
L 189.951933 81.89237 
L 197.109417 81.693696 
L 204.266901 81.495338 
L 211.424385 81.383659 
L 218.581869 81.374079 
L 225.739353 81.424553 
L 232.896837 81.435703 
L 240.05432 81.355636 
L 247.211804 81.274871 
L 254.369288 81.251943 
L 261.526772 81.309229 
L 268.684256 81.432955 
L 275.84174 81.57319 
L 282.999224 81.643848 
L 290.156708 81.551653 
L 297.314192 81.396869 
L 304.471676 81.32628 
L 311.62916 81.417763 
L 318.786644 81.679807 
L 325.944128 82.05151 
L 333.101612 82.402585 
L 340.259096 82.533359 
L 347.416579 82.400868 
L 354.574063 82.29057 
L 361.731547 82.364273 
L 368.889031 82.670613 
L 376.046515 83.145047 
L 383.203999 83.609858 
L 390.361483 83.791611 
L 397.518967 83.776082 
L 404.676451 83.844878 
L 411.833935 84.131816 
L 418.991419 84.653679 
L 426.148903 85.310216 
L 433.306387 85.884145 
L 440.463871 86.115833 
L 447.621354 86.222312 
L 454.778838 86.475995 
L 461.936322 87.002261 
L 469.093806 87.790773 
L 476.25129 88.695481 
L 483.408774 89.43462 
L 490.566258 89.751948 
L 497.723742 89.993519 
L 504.881226 90.432484 
L 512.03871 91.177985 
L 519.196194 92.184876 
L 526.353678 93.253721 
L 533.511162 94.030901 
L 540.668646 94.436578 
L 547.826129 94.882202 
L 554.983613 95.55686 
L 562.141097 96.504509 
L 569.298581 97.623969 
L 576.456065 98.668932 
L 583.613549 99.334377 
L 590.771033 99.877815 
L 597.928517 100.548925 
L 605.086001 101.44297 
L 612.243485 102.53241 
L 619.400969 103.666896 
L 626.558453 104.574288 
L 633.715937 105.204681 
L 640.873421 105.85566 
L 648.030904 106.676461 
L 655.188388 107.704722 
L 662.345872 108.866493 
L 669.503356 109.976228 
L 676.66084 110.769748 
L 683.818324 111.377278 
L 690.975808 112.059134 
L 698.133292 112.939071 
L 705.290776 114.026993 
L 712.44826 115.218959 
L 719.605744 116.297177 
L 726.763228 117.003641 
L 733.920712 117.563273 
L 741.078196 118.227347 
L 748.23568 119.108475 
L 755.393163 120.199659 
L 762.550647 121.374292 
L 769.708131 122.386156 
L 776.865615 123.003349 
L 784.023099 123.525852 
L 791.180583 124.174527 
L 798.338067 125.039322 
L 805.495551 126.092939 
L 812.653035 127.190827 
L 819.810519 128.071191 
L 826.968003 128.693127 
L 834.125487 129.367678 
L 841.282971 130.087156 
L 848.440455 130.819034 
" clip-path="url(#p13386ddcbc)" style="fill: none; stroke: #e25508; stroke-width: 1.5; stroke-linecap: square"/>
   </g>
   <g id="line2d_30">
    <path d="M 139.849545 569.454545 
L 147.007029 567.177797 
L 154.164513 564.931818 
L 161.321997 562.71579 
L 168.479481 560.528862 
L 175.636965 558.370121 
L 182.794449 556.238972 
L 189.951933 554.134847 
L 197.109417 552.057188 
L 204.266901 550.005447 
L 211.424385 547.979085 
L 218.581869 545.97757 
L 225.739353 544.000384 
L 232.896837 542.047013 
L 240.05432 540.116957 
L 247.211804 538.209722 
L 254.369288 536.324826 
L 261.526772 534.461793 
L 268.684256 532.620159 
L 275.84174 530.799469 
L 282.999224 528.999276 
L 290.156708 527.219144 
L 297.314192 525.458645 
L 304.471676 523.71736 
L 311.62916 521.99488 
L 318.786644 520.290782 
L 325.944128 518.604773 
L 333.101612 516.936635 
L 340.259096 515.286146 
L 347.416579 513.653085 
L 354.574063 512.037232 
L 361.731547 510.438366 
L 368.889031 508.856264 
L 376.046515 507.290704 
L 383.203999 505.741466 
L 390.361483 504.208325 
L 397.518967 502.691061 
L 404.676451 501.189449 
L 411.833935 499.703267 
L 418.991419 498.232291 
L 426.148903 496.776298 
L 433.306387 495.335063 
L 440.463871 493.908363 
L 447.621354 492.495974 
L 454.778838 491.09767 
L 461.936322 489.713226 
L 469.093806 488.342418 
L 476.25129 486.98502 
L 483.408774 485.640806 
L 490.566258 484.309551 
L 497.723742 482.991028 
L 504.881226 481.68501 
L 512.03871 480.391271 
L 519.196194 479.109585 
L 526.353678 477.839722 
L 533.511162 476.581592 
L 540.668646 475.335228 
L 547.826129 474.100526 
L 554.983613 472.877378 
L 562.141097 471.665679 
L 569.298581 470.465323 
L 576.456065 469.276202 
L 583.613549 468.098211 
L 590.771033 466.931242 
L 597.928517 465.775189 
L 605.086001 464.629945 
L 612.243485 463.495403 
L 619.400969 462.371455 
L 626.558453 461.257996 
L 633.715937 460.154917 
L 640.873421 459.062112 
L 648.030904 457.979472 
L 655.188388 456.906891 
L 662.345872 455.84426 
L 669.503356 454.791473 
L 676.66084 453.748421 
L 683.818324 452.714996 
L 690.975808 451.691091 
L 698.133292 450.676598 
L 705.290776 449.671407 
L 712.44826 448.675412 
L 719.605744 447.688503 
L 726.763228 446.710573 
L 733.920712 445.741512 
L 741.078196 444.781212 
L 748.23568 443.829565 
L 755.393163 442.886462 
L 762.550647 441.951794 
L 769.708131 441.025451 
L 776.865615 440.107325 
L 784.023099 439.197307 
L 791.180583 438.295287 
L 798.338067 437.401156 
L 805.495551 436.514876 
L 812.653035 435.636541 
L 819.810519 434.766083 
L 826.968003 433.903427 
L 834.125487 433.048498 
L 841.282971 432.201221 
L 848.440455 431.361525 
" clip-path="url(#p13386ddcbc)" style="fill: none; stroke: #1764ab; stroke-width: 1.5; stroke-linecap: square"/>
   </g>
   <g id="line2d_31">
    <path d="M 139.849545 95.760921 
L 147.007029 93.746782 
L 154.164513 91.902119 
L 161.321997 90.214483 
L 168.479481 88.673228 
L 175.636965 87.26794 
L 182.794449 85.991947 
L 189.951933 84.838993 
L 197.109417 83.803017 
L 204.266901 82.878144 
L 211.424385 82.058688 
L 218.581869 81.339155 
L 225.739353 80.71424 
L 232.896837 80.178827 
L 240.05432 79.72799 
L 247.211804 79.356992 
L 254.369288 79.061287 
L 261.526772 78.836518 
L 268.684256 78.678518 
L 275.84174 78.583308 
L 282.999224 78.5471 
L 290.156708 78.566297 
L 297.314192 78.637489 
L 304.471676 78.757456 
L 311.62916 78.923165 
L 318.786644 79.130617 
L 325.944128 79.376965 
L 333.101612 79.660587 
L 340.259096 79.979878 
L 347.416579 80.333258 
L 354.574063 80.719163 
L 361.731547 81.136052 
L 368.889031 81.582403 
L 376.046515 82.056714 
L 383.203999 82.557504 
L 390.361483 83.083312 
L 397.518967 83.632697 
L 404.676451 84.204237 
L 411.833935 84.796534 
L 418.991419 85.408206 
L 426.148903 86.037893 
L 433.306387 86.684255 
L 440.463871 87.345974 
L 447.621354 88.021748 
L 454.778838 88.710299 
L 461.936322 89.410369 
L 469.093806 90.120717 
L 476.25129 90.840126 
L 483.408774 91.567397 
L 490.566258 92.301352 
L 497.723742 93.040833 
L 504.881226 93.784703 
L 512.03871 94.531843 
L 519.196194 95.281156 
L 526.353678 96.031565 
L 533.511162 96.782731 
L 540.668646 97.535134 
L 547.826129 98.288602 
L 554.983613 99.042949 
L 562.141097 99.797992 
L 569.298581 100.553542 
L 576.456065 101.30941 
L 583.613549 102.065401 
L 590.771033 102.821322 
L 597.928517 103.576974 
L 605.086001 104.332157 
L 612.243485 105.08667 
L 619.400969 105.840306 
L 626.558453 106.592859 
L 633.715937 107.344118 
L 640.873421 108.093872 
L 648.030904 108.841905 
L 655.188388 109.588001 
L 662.345872 110.331939 
L 669.503356 111.073498 
L 676.66084 111.812453 
L 683.818324 112.548576 
L 690.975808 113.281639 
L 698.133292 114.01141 
L 705.290776 114.737653 
L 712.44826 115.460133 
L 719.605744 116.17861 
L 726.763228 116.892842 
L 733.920712 117.602586 
L 741.078196 118.307594 
L 748.23568 119.007617 
L 755.393163 119.702404 
L 762.550647 120.391702 
L 769.708131 121.075253 
L 776.865615 121.752798 
L 784.023099 122.424077 
L 791.180583 123.088826 
L 798.338067 123.746778 
L 805.495551 124.398224 
L 812.653035 125.044485 
L 819.810519 125.685605 
L 826.968003 126.321557 
L 834.125487 126.952318 
L 841.282971 127.577872 
L 848.440455 128.198202 
" clip-path="url(#p13386ddcbc)" style="fill: none; stroke: #c54102; stroke-width: 1.5; stroke-linecap: square"/>
   </g>
   <g id="line2d_32">
    <path d="M 139.849545 569.454545 
L 147.007029 567.170402 
L 154.164513 564.913366 
L 161.321997 562.68259 
L 168.479481 560.477665 
L 175.636965 558.298197 
L 182.794449 556.143895 
L 189.951933 554.014451 
L 197.109417 551.909532 
L 204.266901 549.828909 
L 211.424385 547.772305 
L 218.581869 545.739376 
L 225.739353 543.729855 
L 232.896837 541.743568 
L 240.05432 539.780223 
L 247.211804 537.839421 
L 254.369288 535.920975 
L 261.526772 534.024732 
L 268.684256 532.15033 
L 275.84174 530.297445 
L 282.999224 528.465982 
L 290.156708 526.65567 
L 297.314192 524.866114 
L 304.471676 523.097193 
L 311.62916 521.348742 
L 318.786644 519.620382 
L 325.944128 517.91184 
L 333.101612 516.22307 
L 340.259096 514.553806 
L 347.416579 512.903617 
L 354.574063 511.272446 
L 361.731547 509.66016 
L 368.889031 508.06636 
L 376.046515 506.490833 
L 383.203999 504.933527 
L 390.361483 503.394142 
L 397.518967 501.872364 
L 404.676451 500.368147 
L 411.833935 498.881276 
L 418.991419 497.411404 
L 426.148903 495.95844 
L 433.306387 494.522255 
L 440.463871 493.102532 
L 447.621354 491.699043 
L 454.778838 490.311763 
L 461.936322 488.940468 
L 469.093806 487.584795 
L 476.25129 486.244707 
L 483.408774 484.920108 
L 490.566258 483.61066 
L 497.723742 482.316166 
L 504.881226 481.036617 
L 512.03871 479.771776 
L 519.196194 478.521343 
L 526.353678 477.285304 
L 533.511162 476.063502 
L 540.668646 474.855637 
L 547.826129 473.661619 
L 554.983613 472.481367 
L 562.141097 471.314628 
L 569.298581 470.16119 
L 576.456065 469.021042 
L 583.613549 467.894019 
L 590.771033 466.779818 
L 597.928517 465.67838 
L 605.086001 464.58966 
L 612.243485 463.513407 
L 619.400969 462.449385 
L 626.558453 461.397624 
L 633.715937 460.357976 
L 640.873421 459.330145 
L 648.030904 458.314097 
L 655.188388 457.309763 
L 662.345872 456.316901 
L 669.503356 455.335367 
L 676.66084 454.365139 
L 683.818324 453.406049 
L 690.975808 452.457867 
L 698.133292 451.520575 
L 705.290776 450.594085 
L 712.44826 449.678168 
L 719.605744 448.772686 
L 726.763228 447.877648 
L 733.920712 446.99291 
L 741.078196 446.118209 
L 748.23568 445.253532 
L 755.393163 444.398846 
L 762.550647 443.553932 
L 769.708131 442.718619 
L 776.865615 441.892938 
L 784.023099 441.076758 
L 791.180583 440.269851 
L 798.338067 439.472203 
L 805.495551 438.683751 
L 812.653035 437.904301 
L 819.810519 437.133745 
L 826.968003 436.37207 
L 834.125487 435.619149 
L 841.282971 434.874803 
L 848.440455 434.138995 
" clip-path="url(#p13386ddcbc)" style="fill: none; stroke: #084a91; stroke-width: 1.5; stroke-linecap: square"/>
   </g>
   <g id="line2d_33">
    <path d="M 139.849545 95.760921 
L 147.007029 85.109263 
L 154.164513 81.825471 
L 161.321997 80.220041 
L 168.479481 79.61826 
L 175.636965 79.269512 
L 182.794449 79.202271 
L 189.951933 79.270165 
L 197.109417 79.085975 
L 204.266901 79.103846 
L 211.424385 79.352534 
L 218.581869 79.281953 
L 225.739353 78.95567 
L 232.896837 79.182729 
L 240.05432 79.765845 
L 247.211804 79.581721 
L 254.369288 79.265653 
L 261.526772 79.719751 
L 268.684256 80.045057 
L 275.84174 79.648359 
L 282.999224 79.861456 
L 290.156708 80.479206 
L 297.314192 80.222277 
L 304.471676 80.148671 
L 311.62916 80.86807 
L 318.786644 81.192249 
L 325.944128 80.778626 
L 333.101612 81.229305 
L 340.259096 82.196499 
L 347.416579 81.959536 
L 354.574063 81.946836 
L 361.731547 82.908106 
L 368.889031 83.287381 
L 376.046515 83.119702 
L 383.203999 83.802673 
L 390.361483 84.567895 
L 397.518967 84.485869 
L 404.676451 84.972184 
L 411.833935 85.923585 
L 418.991419 86.057985 
L 426.148903 86.327955 
L 433.306387 87.335962 
L 440.463871 87.982602 
L 447.621354 87.970406 
L 454.778838 88.751524 
L 461.936322 89.997712 
L 469.093806 90.119117 
L 476.25129 90.427979 
L 483.408774 91.693228 
L 490.566258 92.465488 
L 497.723742 92.552973 
L 504.881226 93.477747 
L 512.03871 94.642721 
L 519.196194 94.839301 
L 526.353678 95.501189 
L 533.511162 96.715024 
L 540.668646 97.19728 
L 547.826129 97.648511 
L 554.983613 98.789427 
L 562.141097 99.731445 
L 569.298581 99.959398 
L 576.456065 100.819177 
L 583.613549 102.195114 
L 590.771033 102.63303 
L 597.928517 102.994638 
L 605.086001 104.27373 
L 612.243485 105.424669 
L 619.400969 105.563827 
L 626.558453 106.377443 
L 633.715937 107.774658 
L 640.873421 108.212493 
L 648.030904 108.705602 
L 655.188388 109.908567 
L 662.345872 110.73831 
L 669.503356 111.089955 
L 676.66084 112.041696 
L 683.818324 113.200308 
L 690.975808 113.535178 
L 698.133292 114.141758 
L 705.290776 115.385791 
L 712.44826 116.185355 
L 719.605744 116.373002 
L 726.763228 117.28587 
L 733.920712 118.652758 
L 741.078196 118.973811 
L 748.23568 119.315439 
L 755.393163 120.53465 
L 762.550647 121.50563 
L 769.708131 121.637673 
L 776.865615 122.406144 
L 784.023099 123.589012 
L 791.180583 123.911408 
L 798.338067 124.377608 
L 805.495551 125.424961 
L 812.653035 126.103212 
L 819.810519 126.349811 
L 826.968003 127.14649 
L 834.125487 128.210053 
L 841.282971 128.656939 
L 848.440455 129.183271 
" clip-path="url(#p13386ddcbc)" style="fill: none; stroke: #9e3303; stroke-width: 1.5; stroke-linecap: square"/>
   </g>
   <g id="line2d_34">
    <path d="M 139.849545 569.454545 
L 147.007029 567.222059 
L 154.164513 565.01454 
L 161.321997 562.831602 
L 168.479481 560.672852 
L 175.636965 558.537854 
L 182.794449 556.42629 
L 189.951933 554.337856 
L 197.109417 552.272249 
L 204.266901 550.229172 
L 211.424385 548.20833 
L 218.581869 546.209433 
L 225.739353 544.232193 
L 232.896837 542.276326 
L 240.05432 540.341551 
L 247.211804 538.42759 
L 254.369288 536.534169 
L 261.526772 534.661018 
L 268.684256 532.807869 
L 275.84174 530.97446 
L 282.999224 529.160529 
L 290.156708 527.365819 
L 297.314192 525.590076 
L 304.471676 523.833052 
L 311.62916 522.094498 
L 318.786644 520.374172 
L 325.944128 518.671833 
L 333.101612 516.987245 
L 340.259096 515.320174 
L 347.416579 513.670398 
L 354.574063 512.037723 
L 361.731547 510.421969 
L 368.889031 508.822957 
L 376.046515 507.240508 
L 383.203999 505.674445 
L 390.361483 504.124592 
L 397.518967 502.590773 
L 404.676451 501.072815 
L 411.833935 499.570546 
L 418.991419 498.083794 
L 426.148903 496.61239 
L 433.306387 495.156164 
L 440.463871 493.714949 
L 447.621354 492.288579 
L 454.778838 490.876888 
L 461.936322 489.479712 
L 469.093806 488.096888 
L 476.25129 486.728255 
L 483.408774 485.373653 
L 490.566258 484.032922 
L 497.723742 482.705903 
L 504.881226 481.392442 
L 512.03871 480.092381 
L 519.196194 478.805566 
L 526.353678 477.531845 
L 533.511162 476.271065 
L 540.668646 475.023075 
L 547.826129 473.787726 
L 554.983613 472.56487 
L 562.141097 471.35436 
L 569.298581 470.156048 
L 576.456065 468.969792 
L 583.613549 467.795455 
L 590.771033 466.632959 
L 597.928517 465.482195 
L 605.086001 464.343047 
L 612.243485 463.215399 
L 619.400969 462.099136 
L 626.558453 460.994144 
L 633.715937 459.90031 
L 640.873421 458.817521 
L 648.030904 457.745667 
L 655.188388 456.684635 
L 662.345872 455.634317 
L 669.503356 454.594603 
L 676.66084 453.565386 
L 683.818324 452.546557 
L 690.975808 451.538012 
L 698.133292 450.539642 
L 705.290776 449.551345 
L 712.44826 448.573017 
L 719.605744 447.604553 
L 726.763228 446.645852 
L 733.920712 445.696813 
L 741.078196 444.757334 
L 748.23568 443.827317 
L 755.393163 442.906662 
L 762.550647 441.995271 
L 769.708131 441.093047 
L 776.865615 440.199894 
L 784.023099 439.315716 
L 791.180583 438.440419 
L 798.338067 437.573909 
L 805.495551 436.716092 
L 812.653035 435.866877 
L 819.810519 435.026173 
L 826.968003 434.193888 
L 834.125487 433.369934 
L 841.282971 432.554222 
L 848.440455 431.746663 
" clip-path="url(#p13386ddcbc)" style="fill: none; stroke: #08306b; stroke-width: 1.5; stroke-linecap: square"/>
   </g>
   <g id="line2d_35">
    <path d="M 139.849545 95.760921 
L 147.007029 93.709489 
L 154.164513 91.839433 
L 161.321997 90.133165 
L 168.479481 88.577263 
L 175.636965 87.15808 
L 182.794449 85.868716 
L 189.951933 84.703081 
L 197.109417 83.655251 
L 204.266901 82.719477 
L 211.424385 81.890176 
L 218.581869 81.161941 
L 225.739353 80.52953 
L 232.896837 79.987876 
L 240.05432 79.53208 
L 247.211804 79.157414 
L 254.369288 78.859323 
L 261.526772 78.633418 
L 268.684256 78.475486 
L 275.84174 78.38148 
L 282.999224 78.347525 
L 290.156708 78.369919 
L 297.314192 78.445127 
L 304.471676 78.569787 
L 311.62916 78.740707 
L 318.786644 78.954864 
L 325.944128 79.209408 
L 333.101612 79.501659 
L 340.259096 79.829106 
L 347.416579 80.188991 
L 354.574063 80.578925 
L 361.731547 80.99765 
L 368.889031 81.443939 
L 376.046515 81.916574 
L 383.203999 82.414356 
L 390.361483 82.936096 
L 397.518967 83.480619 
L 404.676451 84.046764 
L 411.833935 84.633383 
L 418.991419 85.239341 
L 426.148903 85.863518 
L 433.306387 86.504806 
L 440.463871 87.162111 
L 447.621354 87.834352 
L 454.778838 88.520462 
L 461.936322 89.219388 
L 469.093806 89.930088 
L 476.25129 90.651537 
L 483.408774 91.382721 
L 490.566258 92.12264 
L 497.723742 92.870307 
L 504.881226 93.624749 
L 512.03871 94.385007 
L 519.196194 95.150135 
L 526.353678 95.919199 
L 533.511162 96.691281 
L 540.668646 97.465475 
L 547.826129 98.240888 
L 554.983613 99.016641 
L 562.141097 99.791869 
L 569.298581 100.56572 
L 576.456065 101.337355 
L 583.613549 102.106216 
L 590.771033 102.873472 
L 597.928517 103.639247 
L 605.086001 104.403381 
L 612.243485 105.165711 
L 619.400969 105.926081 
L 626.558453 106.684329 
L 633.715937 107.4403 
L 640.873421 108.193837 
L 648.030904 108.944784 
L 655.188388 109.692986 
L 662.345872 110.43829 
L 669.503356 111.180544 
L 676.66084 111.919595 
L 683.818324 112.655294 
L 690.975808 113.38749 
L 698.133292 114.116035 
L 705.290776 114.840781 
L 712.44826 115.561581 
L 719.605744 116.278291 
L 726.763228 116.990764 
L 733.920712 117.698858 
L 741.078196 118.40243 
L 748.23568 119.101337 
L 755.393163 119.795439 
L 762.550647 120.484596 
L 769.708131 121.16867 
L 776.865615 121.847522 
L 784.023099 122.521016 
L 791.180583 123.189016 
L 798.338067 123.851386 
L 805.495551 124.507994 
L 812.653035 125.158706 
L 819.810519 125.803389 
L 826.968003 126.441914 
L 834.125487 127.07415 
L 841.282971 127.699968 
L 848.440455 128.31924 
" clip-path="url(#p13386ddcbc)" style="fill: none; stroke: #7f2704; stroke-width: 1.5; stroke-linecap: square"/>
   </g>
   <g id="patch_3">
    <path d="M 104.42 595.44 
L 104.42 23.76 
" style="fill: none; stroke: #000000; stroke-width: 0.8; stroke-linejoin: miter; stroke-linecap: square"/>
   </g>
   <g id="patch_4">
    <path d="M 883.87 595.44 
L 883.87 23.76 
" style="fill: none; stroke: #000000; stroke-width: 0.8; stroke-linejoin: miter; stroke-linecap: square"/>
   </g>
   <g id="patch_5">
    <path d="M 104.42 595.44 
L 883.87 595.44 
" style="fill: none; stroke: #000000; stroke-width: 0.8; stroke-linejoin: miter; stroke-linecap: square"/>
   </g>
   <g id="patch_6">
    <path d="M 104.42 23.76 
L 883.87 23.76 
" style="fill: none; stroke: #000000; stroke-width: 0.8; stroke-linejoin: miter; stroke-linecap: square"/>
   </g>
   <g id="legend_1">
    <g id="patch_7">
     <path d="M 899.27 687.1975 
L 1052.056562 687.1975 
Q 1056.456563 687.1975 1056.456563 682.7975 
L 1056.456563 39.16 
Q 1056.456563 34.76 1052.056562 34.76 
L 899.27 34.76 
Q 894.87 34.76 894.87 39.16 
L 894.87 682.7975 
Q 894.87 687.1975 899.27 687.1975 
z
" style="fill: #ffffff; opacity: 0.8; stroke: #cccccc; stroke-linejoin: miter"/>
    </g>
    <g id="PathCollection_3">
     <g>
      <use xlink:href="#m80f1702e56" x="925.67" y="54.501563" style="fill: #1f77b4; stroke: #1f77b4"/>
     </g>
    </g>
    <g id="text_20">
     <!-- Xi -->
     <g transform="translate(965.27 60.276563) scale(0.22 -0.22)">
      <use xlink:href="#DejaVuSans-58"/>
      <use xlink:href="#DejaVuSans-69" x="68.505859"/>
     </g>
    </g>
    <g id="PathCollection_4">
     <g>
      <use xlink:href="#m62fcbac0dc" x="925.67" y="86.793438" style="fill: #ff7f0e; stroke: #ff7f0e"/>
     </g>
    </g>
    <g id="text_21">
     <!-- Xa -->
     <g transform="translate(965.27 92.568438) scale(0.22 -0.22)">
      <use xlink:href="#DejaVuSans-58"/>
      <use xlink:href="#DejaVuSans-61" x="68.505859"/>
     </g>
    </g>
    <g id="line2d_36">
     <path d="M 903.67 117.160313 
L 925.67 117.160313 
L 947.67 117.160313 
" style="fill: none; stroke: #d0e1f2; stroke-width: 1.5; stroke-linecap: square"/>
    </g>
    <g id="text_22">
     <!-- Xi-IIAA -->
     <g transform="translate(965.27 124.860313) scale(0.22 -0.22)">
      <defs>
       <path id="DejaVuSans-2d" d="M 313 2009 
L 1997 2009 
L 1997 1497 
L 313 1497 
L 313 2009 
z
" transform="scale(0.015625)"/>
       <path id="DejaVuSans-49" d="M 628 4666 
L 1259 4666 
L 1259 0 
L 628 0 
L 628 4666 
z
" transform="scale(0.015625)"/>
      </defs>
      <use xlink:href="#DejaVuSans-58"/>
      <use xlink:href="#DejaVuSans-69" x="68.505859"/>
      <use xlink:href="#DejaVuSans-2d" x="96.289062"/>
      <use xlink:href="#DejaVuSans-49" x="132.373047"/>
      <use xlink:href="#DejaVuSans-49" x="161.865234"/>
      <use xlink:href="#DejaVuSans-41" x="191.357422"/>
      <use xlink:href="#DejaVuSans-41" x="262.515625"/>
     </g>
    </g>
    <g id="line2d_37">
     <path d="M 903.67 149.452188 
L 925.67 149.452188 
L 947.67 149.452188 
" style="fill: none; stroke: #fdd9b4; stroke-width: 1.5; stroke-linecap: square"/>
    </g>
    <g id="text_23">
     <!-- Xa-IIAA -->
     <g transform="translate(965.27 157.152188) scale(0.22 -0.22)">
      <use xlink:href="#DejaVuSans-58"/>
      <use xlink:href="#DejaVuSans-61" x="68.505859"/>
      <use xlink:href="#DejaVuSans-2d" x="129.785156"/>
      <use xlink:href="#DejaVuSans-49" x="165.869141"/>
      <use xlink:href="#DejaVuSans-49" x="195.361328"/>
      <use xlink:href="#DejaVuSans-41" x="224.853516"/>
      <use xlink:href="#DejaVuSans-41" x="296.011719"/>
     </g>
    </g>
    <g id="line2d_38">
     <path d="M 903.67 181.744063 
L 925.67 181.744063 
L 947.67 181.744063 
" style="fill: none; stroke: #b7d4ea; stroke-width: 1.5; stroke-linecap: square"/>
    </g>
    <g id="text_24">
     <!-- Xi-IIAI -->
     <g transform="translate(965.27 189.444063) scale(0.22 -0.22)">
      <use xlink:href="#DejaVuSans-58"/>
      <use xlink:href="#DejaVuSans-69" x="68.505859"/>
      <use xlink:href="#DejaVuSans-2d" x="96.289062"/>
      <use xlink:href="#DejaVuSans-49" x="132.373047"/>
      <use xlink:href="#DejaVuSans-49" x="161.865234"/>
      <use xlink:href="#DejaVuSans-41" x="191.357422"/>
      <use xlink:href="#DejaVuSans-49" x="259.765625"/>
     </g>
    </g>
    <g id="line2d_39">
     <path d="M 903.67 214.035938 
L 925.67 214.035938 
L 947.67 214.035938 
" style="fill: none; stroke: #fdc38d; stroke-width: 1.5; stroke-linecap: square"/>
    </g>
    <g id="text_25">
     <!-- Xa-IIAI -->
     <g transform="translate(965.27 221.735938) scale(0.22 -0.22)">
      <use xlink:href="#DejaVuSans-58"/>
      <use xlink:href="#DejaVuSans-61" x="68.505859"/>
      <use xlink:href="#DejaVuSans-2d" x="129.785156"/>
      <use xlink:href="#DejaVuSans-49" x="165.869141"/>
      <use xlink:href="#DejaVuSans-49" x="195.361328"/>
      <use xlink:href="#DejaVuSans-41" x="224.853516"/>
      <use xlink:href="#DejaVuSans-49" x="293.261719"/>
     </g>
    </g>
    <g id="line2d_40">
     <path d="M 903.67 246.327813 
L 925.67 246.327813 
L 947.67 246.327813 
" style="fill: none; stroke: #94c4df; stroke-width: 1.5; stroke-linecap: square"/>
    </g>
    <g id="text_26">
     <!-- Xi-IIAN -->
     <g transform="translate(965.27 254.027813) scale(0.22 -0.22)">
      <defs>
       <path id="DejaVuSans-4e" d="M 628 4666 
L 1478 4666 
L 3547 763 
L 3547 4666 
L 4159 4666 
L 4159 0 
L 3309 0 
L 1241 3903 
L 1241 0 
L 628 0 
L 628 4666 
z
" transform="scale(0.015625)"/>
      </defs>
      <use xlink:href="#DejaVuSans-58"/>
      <use xlink:href="#DejaVuSans-69" x="68.505859"/>
      <use xlink:href="#DejaVuSans-2d" x="96.289062"/>
      <use xlink:href="#DejaVuSans-49" x="132.373047"/>
      <use xlink:href="#DejaVuSans-49" x="161.865234"/>
      <use xlink:href="#DejaVuSans-41" x="191.357422"/>
      <use xlink:href="#DejaVuSans-4e" x="259.765625"/>
     </g>
    </g>
    <g id="line2d_41">
     <path d="M 903.67 278.619688 
L 925.67 278.619688 
L 947.67 278.619688 
" style="fill: none; stroke: #fda762; stroke-width: 1.5; stroke-linecap: square"/>
    </g>
    <g id="text_27">
     <!-- Xa-IIAN -->
     <g transform="translate(965.27 286.319688) scale(0.22 -0.22)">
      <use xlink:href="#DejaVuSans-58"/>
      <use xlink:href="#DejaVuSans-61" x="68.505859"/>
      <use xlink:href="#DejaVuSans-2d" x="129.785156"/>
      <use xlink:href="#DejaVuSans-49" x="165.869141"/>
      <use xlink:href="#DejaVuSans-49" x="195.361328"/>
      <use xlink:href="#DejaVuSans-41" x="224.853516"/>
      <use xlink:href="#DejaVuSans-4e" x="293.261719"/>
     </g>
    </g>
    <g id="line2d_42">
     <path d="M 903.67 310.911563 
L 925.67 310.911563 
L 947.67 310.911563 
" style="fill: none; stroke: #6aaed6; stroke-width: 1.5; stroke-linecap: square"/>
    </g>
    <g id="text_28">
     <!-- Xi-IIIA -->
     <g transform="translate(965.27 318.611563) scale(0.22 -0.22)">
      <use xlink:href="#DejaVuSans-58"/>
      <use xlink:href="#DejaVuSans-69" x="68.505859"/>
      <use xlink:href="#DejaVuSans-2d" x="96.289062"/>
      <use xlink:href="#DejaVuSans-49" x="132.373047"/>
      <use xlink:href="#DejaVuSans-49" x="161.865234"/>
      <use xlink:href="#DejaVuSans-49" x="191.357422"/>
      <use xlink:href="#DejaVuSans-41" x="220.849609"/>
     </g>
    </g>
    <g id="line2d_43">
     <path d="M 903.67 343.203438 
L 925.67 343.203438 
L 947.67 343.203438 
" style="fill: none; stroke: #fd8c3b; stroke-width: 1.5; stroke-linecap: square"/>
    </g>
    <g id="text_29">
     <!-- Xa-IIIA -->
     <g transform="translate(965.27 350.903438) scale(0.22 -0.22)">
      <use xlink:href="#DejaVuSans-58"/>
      <use xlink:href="#DejaVuSans-61" x="68.505859"/>
      <use xlink:href="#DejaVuSans-2d" x="129.785156"/>
      <use xlink:href="#DejaVuSans-49" x="165.869141"/>
      <use xlink:href="#DejaVuSans-49" x="195.361328"/>
      <use xlink:href="#DejaVuSans-49" x="224.853516"/>
      <use xlink:href="#DejaVuSans-41" x="254.345703"/>
     </g>
    </g>
    <g id="line2d_44">
     <path d="M 903.67 375.495313 
L 925.67 375.495313 
L 947.67 375.495313 
" style="fill: none; stroke: #4a98c9; stroke-width: 1.5; stroke-linecap: square"/>
    </g>
    <g id="text_30">
     <!-- Xi-IIII -->
     <g transform="translate(965.27 383.195313) scale(0.22 -0.22)">
      <use xlink:href="#DejaVuSans-58"/>
      <use xlink:href="#DejaVuSans-69" x="68.505859"/>
      <use xlink:href="#DejaVuSans-2d" x="96.289062"/>
      <use xlink:href="#DejaVuSans-49" x="132.373047"/>
      <use xlink:href="#DejaVuSans-49" x="161.865234"/>
      <use xlink:href="#DejaVuSans-49" x="191.357422"/>
      <use xlink:href="#DejaVuSans-49" x="220.849609"/>
     </g>
    </g>
    <g id="line2d_45">
     <path d="M 903.67 407.787188 
L 925.67 407.787188 
L 947.67 407.787188 
" style="fill: none; stroke: #f3701b; stroke-width: 1.5; stroke-linecap: square"/>
    </g>
    <g id="text_31">
     <!-- Xa-IIII -->
     <g transform="translate(965.27 415.487188) scale(0.22 -0.22)">
      <use xlink:href="#DejaVuSans-58"/>
      <use xlink:href="#DejaVuSans-61" x="68.505859"/>
      <use xlink:href="#DejaVuSans-2d" x="129.785156"/>
      <use xlink:href="#DejaVuSans-49" x="165.869141"/>
      <use xlink:href="#DejaVuSans-49" x="195.361328"/>
      <use xlink:href="#DejaVuSans-49" x="224.853516"/>
      <use xlink:href="#DejaVuSans-49" x="254.345703"/>
     </g>
    </g>
    <g id="line2d_46">
     <path d="M 903.67 440.079063 
L 925.67 440.079063 
L 947.67 440.079063 
" style="fill: none; stroke: #2e7ebc; stroke-width: 1.5; stroke-linecap: square"/>
    </g>
    <g id="text_32">
     <!-- Xi-IIIN -->
     <g transform="translate(965.27 447.779063) scale(0.22 -0.22)">
      <use xlink:href="#DejaVuSans-58"/>
      <use xlink:href="#DejaVuSans-69" x="68.505859"/>
      <use xlink:href="#DejaVuSans-2d" x="96.289062"/>
      <use xlink:href="#DejaVuSans-49" x="132.373047"/>
      <use xlink:href="#DejaVuSans-49" x="161.865234"/>
      <use xlink:href="#DejaVuSans-49" x="191.357422"/>
      <use xlink:href="#DejaVuSans-4e" x="220.849609"/>
     </g>
    </g>
    <g id="line2d_47">
     <path d="M 903.67 472.370938 
L 925.67 472.370938 
L 947.67 472.370938 
" style="fill: none; stroke: #e25508; stroke-width: 1.5; stroke-linecap: square"/>
    </g>
    <g id="text_33">
     <!-- Xa-IIIN -->
     <g transform="translate(965.27 480.070938) scale(0.22 -0.22)">
      <use xlink:href="#DejaVuSans-58"/>
      <use xlink:href="#DejaVuSans-61" x="68.505859"/>
      <use xlink:href="#DejaVuSans-2d" x="129.785156"/>
      <use xlink:href="#DejaVuSans-49" x="165.869141"/>
      <use xlink:href="#DejaVuSans-49" x="195.361328"/>
      <use xlink:href="#DejaVuSans-49" x="224.853516"/>
      <use xlink:href="#DejaVuSans-4e" x="254.345703"/>
     </g>
    </g>
    <g id="line2d_48">
     <path d="M 903.67 504.662813 
L 925.67 504.662813 
L 947.67 504.662813 
" style="fill: none; stroke: #1764ab; stroke-width: 1.5; stroke-linecap: square"/>
    </g>
    <g id="text_34">
     <!-- Xi-IINA -->
     <g transform="translate(965.27 512.362813) scale(0.22 -0.22)">
      <use xlink:href="#DejaVuSans-58"/>
      <use xlink:href="#DejaVuSans-69" x="68.505859"/>
      <use xlink:href="#DejaVuSans-2d" x="96.289062"/>
      <use xlink:href="#DejaVuSans-49" x="132.373047"/>
      <use xlink:href="#DejaVuSans-49" x="161.865234"/>
      <use xlink:href="#DejaVuSans-4e" x="191.357422"/>
      <use xlink:href="#DejaVuSans-41" x="266.162109"/>
     </g>
    </g>
    <g id="line2d_49">
     <path d="M 903.67 536.954688 
L 925.67 536.954688 
L 947.67 536.954688 
" style="fill: none; stroke: #c54102; stroke-width: 1.5; stroke-linecap: square"/>
    </g>
    <g id="text_35">
     <!-- Xa-IINA -->
     <g transform="translate(965.27 544.654688) scale(0.22 -0.22)">
      <use xlink:href="#DejaVuSans-58"/>
      <use xlink:href="#DejaVuSans-61" x="68.505859"/>
      <use xlink:href="#DejaVuSans-2d" x="129.785156"/>
      <use xlink:href="#DejaVuSans-49" x="165.869141"/>
      <use xlink:href="#DejaVuSans-49" x="195.361328"/>
      <use xlink:href="#DejaVuSans-4e" x="224.853516"/>
      <use xlink:href="#DejaVuSans-41" x="299.658203"/>
     </g>
    </g>
    <g id="line2d_50">
     <path d="M 903.67 569.246563 
L 925.67 569.246563 
L 947.67 569.246563 
" style="fill: none; stroke: #084a91; stroke-width: 1.5; stroke-linecap: square"/>
    </g>
    <g id="text_36">
     <!-- Xi-IINI -->
     <g transform="translate(965.27 576.946563) scale(0.22 -0.22)">
      <use xlink:href="#DejaVuSans-58"/>
      <use xlink:href="#DejaVuSans-69" x="68.505859"/>
      <use xlink:href="#DejaVuSans-2d" x="96.289062"/>
      <use xlink:href="#DejaVuSans-49" x="132.373047"/>
      <use xlink:href="#DejaVuSans-49" x="161.865234"/>
      <use xlink:href="#DejaVuSans-4e" x="191.357422"/>
      <use xlink:href="#DejaVuSans-49" x="266.162109"/>
     </g>
    </g>
    <g id="line2d_51">
     <path d="M 903.67 601.538438 
L 925.67 601.538438 
L 947.67 601.538438 
" style="fill: none; stroke: #9e3303; stroke-width: 1.5; stroke-linecap: square"/>
    </g>
    <g id="text_37">
     <!-- Xa-IINI -->
     <g transform="translate(965.27 609.238438) scale(0.22 -0.22)">
      <use xlink:href="#DejaVuSans-58"/>
      <use xlink:href="#DejaVuSans-61" x="68.505859"/>
      <use xlink:href="#DejaVuSans-2d" x="129.785156"/>
      <use xlink:href="#DejaVuSans-49" x="165.869141"/>
      <use xlink:href="#DejaVuSans-49" x="195.361328"/>
      <use xlink:href="#DejaVuSans-4e" x="224.853516"/>
      <use xlink:href="#DejaVuSans-49" x="299.658203"/>
     </g>
    </g>
    <g id="line2d_52">
     <path d="M 903.67 633.830313 
L 925.67 633.830313 
L 947.67 633.830313 
" style="fill: none; stroke: #08306b; stroke-width: 1.5; stroke-linecap: square"/>
    </g>
    <g id="text_38">
     <!-- Xi-IINN -->
     <g transform="translate(965.27 641.530313) scale(0.22 -0.22)">
      <use xlink:href="#DejaVuSans-58"/>
      <use xlink:href="#DejaVuSans-69" x="68.505859"/>
      <use xlink:href="#DejaVuSans-2d" x="96.289062"/>
      <use xlink:href="#DejaVuSans-49" x="132.373047"/>
      <use xlink:href="#DejaVuSans-49" x="161.865234"/>
      <use xlink:href="#DejaVuSans-4e" x="191.357422"/>
      <use xlink:href="#DejaVuSans-4e" x="266.162109"/>
     </g>
    </g>
    <g id="line2d_53">
     <path d="M 903.67 666.122188 
L 925.67 666.122188 
L 947.67 666.122188 
" style="fill: none; stroke: #7f2704; stroke-width: 1.5; stroke-linecap: square"/>
    </g>
    <g id="text_39">
     <!-- Xa-IINN -->
     <g transform="translate(965.27 673.822188) scale(0.22 -0.22)">
      <use xlink:href="#DejaVuSans-58"/>
      <use xlink:href="#DejaVuSans-61" x="68.505859"/>
      <use xlink:href="#DejaVuSans-2d" x="129.785156"/>
      <use xlink:href="#DejaVuSans-49" x="165.869141"/>
      <use xlink:href="#DejaVuSans-49" x="195.361328"/>
      <use xlink:href="#DejaVuSans-4e" x="224.853516"/>
      <use xlink:href="#DejaVuSans-4e" x="299.658203"/>
     </g>
    </g>
   </g>
  </g>
 </g>
 <defs>
  <clipPath id="p13386ddcbc">
   <rect x="104.42" y="23.76" width="779.45" height="571.68"/>
  </clipPath>
 </defs>
</svg>
