<?xml version="1.0" encoding="utf-8" standalone="no"?>
<!DOCTYPE svg PUBLIC "-//W3C//DTD SVG 1.1//EN"
  "http://www.w3.org/Graphics/SVG/1.1/DTD/svg11.dtd">
<svg xmlns:xlink="http://www.w3.org/1999/xlink" width="1080pt" height="720pt" viewBox="0 0 1080 720" xmlns="http://www.w3.org/2000/svg" version="1.1">
 <metadata>
  <rdf:RDF xmlns:dc="http://purl.org/dc/elements/1.1/" xmlns:cc="http://creativecommons.org/ns#" xmlns:rdf="http://www.w3.org/1999/02/22-rdf-syntax-ns#">
   <cc:Work>
    <dc:type rdf:resource="http://purl.org/dc/dcmitype/StillImage"/>
    <dc:date>2023-01-10T19:23:31.693751</dc:date>
    <dc:format>image/svg+xml</dc:format>
    <dc:creator>
     <cc:Agent>
      <dc:title>Matplotlib v3.6.2, https://matplotlib.org/</dc:title>
     </cc:Agent>
    </dc:creator>
   </cc:Work>
  </rdf:RDF>
 </metadata>
 <defs>
  <style type="text/css">*{stroke-linejoin: round; stroke-linecap: butt}</style>
 </defs>
 <g id="figure_1">
  <g id="patch_1">
   <path d="M 0 720 
L 1080 720 
L 1080 0 
L 0 0 
z
" style="fill: #ffffff"/>
  </g>
  <g id="axes_1">
   <g id="patch_2">
    <path d="M 135 640.8 
L 972 640.8 
L 972 86.4 
L 135 86.4 
z
" style="fill: #ffffff"/>
   </g>
   <g id="PathCollection_1">
    <defs>
     <path id="m80f1702e56" d="M 0 3 
C 0.795609 3 1.55874 2.683901 2.12132 2.12132 
C 2.683901 1.55874 3 0.795609 3 0 
C 3 -0.795609 2.683901 -1.55874 2.12132 -2.12132 
C 1.55874 -2.683901 0.795609 -3 0 -3 
C -0.795609 -3 -1.55874 -2.683901 -2.12132 -2.12132 
C -2.683901 -1.55874 -3 -0.795609 -3 0 
C -3 0.795609 -2.683901 1.55874 -2.12132 2.12132 
C -1.55874 2.683901 -0.795609 3 0 3 
z
" style="stroke: #1f77b4"/>
    </defs>
    <g clip-path="url(#p294e5309c2)">
     <use xlink:href="#m80f1702e56" x="173.045455" y="615.6" style="fill: #1f77b4; stroke: #1f77b4"/>
     <use xlink:href="#m80f1702e56" x="213.093301" y="611.763493" style="fill: #1f77b4; stroke: #1f77b4"/>
     <use xlink:href="#m80f1702e56" x="253.141148" y="607.926986" style="fill: #1f77b4; stroke: #1f77b4"/>
     <use xlink:href="#m80f1702e56" x="293.188995" y="604.090479" style="fill: #1f77b4; stroke: #1f77b4"/>
     <use xlink:href="#m80f1702e56" x="333.236842" y="600.253972" style="fill: #1f77b4; stroke: #1f77b4"/>
     <use xlink:href="#m80f1702e56" x="373.284689" y="596.417466" style="fill: #1f77b4; stroke: #1f77b4"/>
     <use xlink:href="#m80f1702e56" x="413.332536" y="592.580959" style="fill: #1f77b4; stroke: #1f77b4"/>
     <use xlink:href="#m80f1702e56" x="453.380383" y="588.744452" style="fill: #1f77b4; stroke: #1f77b4"/>
     <use xlink:href="#m80f1702e56" x="493.42823" y="584.907945" style="fill: #1f77b4; stroke: #1f77b4"/>
     <use xlink:href="#m80f1702e56" x="533.476077" y="574.503077" style="fill: #1f77b4; stroke: #1f77b4"/>
     <use xlink:href="#m80f1702e56" x="573.523923" y="572.397655" style="fill: #1f77b4; stroke: #1f77b4"/>
     <use xlink:href="#m80f1702e56" x="613.57177" y="533.008677" style="fill: #1f77b4; stroke: #1f77b4"/>
     <use xlink:href="#m80f1702e56" x="653.619617" y="493.6197" style="fill: #1f77b4; stroke: #1f77b4"/>
     <use xlink:href="#m80f1702e56" x="693.667464" y="282.013022" style="fill: #1f77b4; stroke: #1f77b4"/>
     <use xlink:href="#m80f1702e56" x="733.715311" y="282.013022" style="fill: #1f77b4; stroke: #1f77b4"/>
     <use xlink:href="#m80f1702e56" x="773.763158" y="282.013022" style="fill: #1f77b4; stroke: #1f77b4"/>
     <use xlink:href="#m80f1702e56" x="813.811005" y="282.013022" style="fill: #1f77b4; stroke: #1f77b4"/>
     <use xlink:href="#m80f1702e56" x="853.858852" y="282.013022" style="fill: #1f77b4; stroke: #1f77b4"/>
     <use xlink:href="#m80f1702e56" x="893.906699" y="282.013022" style="fill: #1f77b4; stroke: #1f77b4"/>
     <use xlink:href="#m80f1702e56" x="933.954545" y="282.013022" style="fill: #1f77b4; stroke: #1f77b4"/>
    </g>
   </g>
   <g id="PathCollection_2">
    <defs>
     <path id="m62fcbac0dc" d="M 0 3 
C 0.795609 3 1.55874 2.683901 2.12132 2.12132 
C 2.683901 1.55874 3 0.795609 3 0 
C 3 -0.795609 2.683901 -1.55874 2.12132 -2.12132 
C 1.55874 -2.683901 0.795609 -3 0 -3 
C -0.795609 -3 -1.55874 -2.683901 -2.12132 -2.12132 
C -2.683901 -1.55874 -3 -0.795609 -3 0 
C -3 0.795609 -2.683901 1.55874 -2.12132 2.12132 
C -1.55874 2.683901 -0.795609 3 0 3 
z
" style="stroke: #ff7f0e"/>
    </defs>
    <g clip-path="url(#p294e5309c2)">
     <use xlink:href="#m62fcbac0dc" x="173.045455" y="156.22457" style="fill: #ff7f0e; stroke: #ff7f0e"/>
     <use xlink:href="#m62fcbac0dc" x="213.093301" y="153.881767" style="fill: #ff7f0e; stroke: #ff7f0e"/>
     <use xlink:href="#m62fcbac0dc" x="253.141148" y="151.538963" style="fill: #ff7f0e; stroke: #ff7f0e"/>
     <use xlink:href="#m62fcbac0dc" x="293.188995" y="149.19616" style="fill: #ff7f0e; stroke: #ff7f0e"/>
     <use xlink:href="#m62fcbac0dc" x="333.236842" y="146.853356" style="fill: #ff7f0e; stroke: #ff7f0e"/>
     <use xlink:href="#m62fcbac0dc" x="373.284689" y="144.510553" style="fill: #ff7f0e; stroke: #ff7f0e"/>
     <use xlink:href="#m62fcbac0dc" x="413.332536" y="142.167749" style="fill: #ff7f0e; stroke: #ff7f0e"/>
     <use xlink:href="#m62fcbac0dc" x="453.380383" y="139.824946" style="fill: #ff7f0e; stroke: #ff7f0e"/>
     <use xlink:href="#m62fcbac0dc" x="493.42823" y="137.482142" style="fill: #ff7f0e; stroke: #ff7f0e"/>
     <use xlink:href="#m62fcbac0dc" x="533.476077" y="166.726691" style="fill: #ff7f0e; stroke: #ff7f0e"/>
     <use xlink:href="#m62fcbac0dc" x="573.523923" y="111.6" style="fill: #ff7f0e; stroke: #ff7f0e"/>
     <use xlink:href="#m62fcbac0dc" x="613.57177" y="145.771767" style="fill: #ff7f0e; stroke: #ff7f0e"/>
     <use xlink:href="#m62fcbac0dc" x="653.619617" y="179.943533" style="fill: #ff7f0e; stroke: #ff7f0e"/>
     <use xlink:href="#m62fcbac0dc" x="693.667464" y="307.727781" style="fill: #ff7f0e; stroke: #ff7f0e"/>
     <use xlink:href="#m62fcbac0dc" x="733.715311" y="307.727781" style="fill: #ff7f0e; stroke: #ff7f0e"/>
     <use xlink:href="#m62fcbac0dc" x="773.763158" y="307.727781" style="fill: #ff7f0e; stroke: #ff7f0e"/>
     <use xlink:href="#m62fcbac0dc" x="813.811005" y="307.727781" style="fill: #ff7f0e; stroke: #ff7f0e"/>
     <use xlink:href="#m62fcbac0dc" x="853.858852" y="307.727781" style="fill: #ff7f0e; stroke: #ff7f0e"/>
     <use xlink:href="#m62fcbac0dc" x="893.906699" y="307.727781" style="fill: #ff7f0e; stroke: #ff7f0e"/>
     <use xlink:href="#m62fcbac0dc" x="933.954545" y="307.727781" style="fill: #ff7f0e; stroke: #ff7f0e"/>
    </g>
   </g>
   <g id="matplotlib.axis_1">
    <g id="xtick_1">
     <g id="line2d_1">
      <defs>
       <path id="m3385fdae1e" d="M 0 0 
L 0 3.5 
" style="stroke: #000000; stroke-width: 0.8"/>
      </defs>
      <g>
       <use xlink:href="#m3385fdae1e" x="173.045455" y="640.8" style="stroke: #000000; stroke-width: 0.8"/>
      </g>
     </g>
     <g id="text_1">
      <!-- 0.0 -->
      <g transform="translate(155.552017 664.516562) scale(0.22 -0.22)">
       <defs>
        <path id="DejaVuSans-30" d="M 2034 4250 
Q 1547 4250 1301 3770 
Q 1056 3291 1056 2328 
Q 1056 1369 1301 889 
Q 1547 409 2034 409 
Q 2525 409 2770 889 
Q 3016 1369 3016 2328 
Q 3016 3291 2770 3770 
Q 2525 4250 2034 4250 
z
M 2034 4750 
Q 2819 4750 3233 4129 
Q 3647 3509 3647 2328 
Q 3647 1150 3233 529 
Q 2819 -91 2034 -91 
Q 1250 -91 836 529 
Q 422 1150 422 2328 
Q 422 3509 836 4129 
Q 1250 4750 2034 4750 
z
" transform="scale(0.015625)"/>
        <path id="DejaVuSans-2e" d="M 684 794 
L 1344 794 
L 1344 0 
L 684 0 
L 684 794 
z
" transform="scale(0.015625)"/>
       </defs>
       <use xlink:href="#DejaVuSans-30"/>
       <use xlink:href="#DejaVuSans-2e" x="63.623047"/>
       <use xlink:href="#DejaVuSans-30" x="95.410156"/>
      </g>
     </g>
    </g>
    <g id="xtick_2">
     <g id="line2d_2">
      <g>
       <use xlink:href="#m3385fdae1e" x="273.165072" y="640.8" style="stroke: #000000; stroke-width: 0.8"/>
      </g>
     </g>
     <g id="text_2">
      <!-- 2.5 -->
      <g transform="translate(255.671634 664.516562) scale(0.22 -0.22)">
       <defs>
        <path id="DejaVuSans-32" d="M 1228 531 
L 3431 531 
L 3431 0 
L 469 0 
L 469 531 
Q 828 903 1448 1529 
Q 2069 2156 2228 2338 
Q 2531 2678 2651 2914 
Q 2772 3150 2772 3378 
Q 2772 3750 2511 3984 
Q 2250 4219 1831 4219 
Q 1534 4219 1204 4116 
Q 875 4013 500 3803 
L 500 4441 
Q 881 4594 1212 4672 
Q 1544 4750 1819 4750 
Q 2544 4750 2975 4387 
Q 3406 4025 3406 3419 
Q 3406 3131 3298 2873 
Q 3191 2616 2906 2266 
Q 2828 2175 2409 1742 
Q 1991 1309 1228 531 
z
" transform="scale(0.015625)"/>
        <path id="DejaVuSans-35" d="M 691 4666 
L 3169 4666 
L 3169 4134 
L 1269 4134 
L 1269 2991 
Q 1406 3038 1543 3061 
Q 1681 3084 1819 3084 
Q 2600 3084 3056 2656 
Q 3513 2228 3513 1497 
Q 3513 744 3044 326 
Q 2575 -91 1722 -91 
Q 1428 -91 1123 -41 
Q 819 9 494 109 
L 494 744 
Q 775 591 1075 516 
Q 1375 441 1709 441 
Q 2250 441 2565 725 
Q 2881 1009 2881 1497 
Q 2881 1984 2565 2268 
Q 2250 2553 1709 2553 
Q 1456 2553 1204 2497 
Q 953 2441 691 2322 
L 691 4666 
z
" transform="scale(0.015625)"/>
       </defs>
       <use xlink:href="#DejaVuSans-32"/>
       <use xlink:href="#DejaVuSans-2e" x="63.623047"/>
       <use xlink:href="#DejaVuSans-35" x="95.410156"/>
      </g>
     </g>
    </g>
    <g id="xtick_3">
     <g id="line2d_3">
      <g>
       <use xlink:href="#m3385fdae1e" x="373.284689" y="640.8" style="stroke: #000000; stroke-width: 0.8"/>
      </g>
     </g>
     <g id="text_3">
      <!-- 5.0 -->
      <g transform="translate(355.791251 664.516562) scale(0.22 -0.22)">
       <use xlink:href="#DejaVuSans-35"/>
       <use xlink:href="#DejaVuSans-2e" x="63.623047"/>
       <use xlink:href="#DejaVuSans-30" x="95.410156"/>
      </g>
     </g>
    </g>
    <g id="xtick_4">
     <g id="line2d_4">
      <g>
       <use xlink:href="#m3385fdae1e" x="473.404306" y="640.8" style="stroke: #000000; stroke-width: 0.8"/>
      </g>
     </g>
     <g id="text_4">
      <!-- 7.5 -->
      <g transform="translate(455.910869 664.516562) scale(0.22 -0.22)">
       <defs>
        <path id="DejaVuSans-37" d="M 525 4666 
L 3525 4666 
L 3525 4397 
L 1831 0 
L 1172 0 
L 2766 4134 
L 525 4134 
L 525 4666 
z
" transform="scale(0.015625)"/>
       </defs>
       <use xlink:href="#DejaVuSans-37"/>
       <use xlink:href="#DejaVuSans-2e" x="63.623047"/>
       <use xlink:href="#DejaVuSans-35" x="95.410156"/>
      </g>
     </g>
    </g>
    <g id="xtick_5">
     <g id="line2d_5">
      <g>
       <use xlink:href="#m3385fdae1e" x="573.523923" y="640.8" style="stroke: #000000; stroke-width: 0.8"/>
      </g>
     </g>
     <g id="text_5">
      <!-- 10.0 -->
      <g transform="translate(549.031736 664.516562) scale(0.22 -0.22)">
       <defs>
        <path id="DejaVuSans-31" d="M 794 531 
L 1825 531 
L 1825 4091 
L 703 3866 
L 703 4441 
L 1819 4666 
L 2450 4666 
L 2450 531 
L 3481 531 
L 3481 0 
L 794 0 
L 794 531 
z
" transform="scale(0.015625)"/>
       </defs>
       <use xlink:href="#DejaVuSans-31"/>
       <use xlink:href="#DejaVuSans-30" x="63.623047"/>
       <use xlink:href="#DejaVuSans-2e" x="127.246094"/>
       <use xlink:href="#DejaVuSans-30" x="159.033203"/>
      </g>
     </g>
    </g>
    <g id="xtick_6">
     <g id="line2d_6">
      <g>
       <use xlink:href="#m3385fdae1e" x="673.643541" y="640.8" style="stroke: #000000; stroke-width: 0.8"/>
      </g>
     </g>
     <g id="text_6">
      <!-- 12.5 -->
      <g transform="translate(649.151353 664.516562) scale(0.22 -0.22)">
       <use xlink:href="#DejaVuSans-31"/>
       <use xlink:href="#DejaVuSans-32" x="63.623047"/>
       <use xlink:href="#DejaVuSans-2e" x="127.246094"/>
       <use xlink:href="#DejaVuSans-35" x="159.033203"/>
      </g>
     </g>
    </g>
    <g id="xtick_7">
     <g id="line2d_7">
      <g>
       <use xlink:href="#m3385fdae1e" x="773.763158" y="640.8" style="stroke: #000000; stroke-width: 0.8"/>
      </g>
     </g>
     <g id="text_7">
      <!-- 15.0 -->
      <g transform="translate(749.27097 664.516562) scale(0.22 -0.22)">
       <use xlink:href="#DejaVuSans-31"/>
       <use xlink:href="#DejaVuSans-35" x="63.623047"/>
       <use xlink:href="#DejaVuSans-2e" x="127.246094"/>
       <use xlink:href="#DejaVuSans-30" x="159.033203"/>
      </g>
     </g>
    </g>
    <g id="xtick_8">
     <g id="line2d_8">
      <g>
       <use xlink:href="#m3385fdae1e" x="873.882775" y="640.8" style="stroke: #000000; stroke-width: 0.8"/>
      </g>
     </g>
     <g id="text_8">
      <!-- 17.5 -->
      <g transform="translate(849.390588 664.516562) scale(0.22 -0.22)">
       <use xlink:href="#DejaVuSans-31"/>
       <use xlink:href="#DejaVuSans-37" x="63.623047"/>
       <use xlink:href="#DejaVuSans-2e" x="127.246094"/>
       <use xlink:href="#DejaVuSans-35" x="159.033203"/>
      </g>
     </g>
    </g>
    <g id="text_9">
     <!-- Time (days) -->
     <g transform="translate(488.541562 689.808437) scale(0.22 -0.22)">
      <defs>
       <path id="DejaVuSans-54" d="M -19 4666 
L 3928 4666 
L 3928 4134 
L 2272 4134 
L 2272 0 
L 1638 0 
L 1638 4134 
L -19 4134 
L -19 4666 
z
" transform="scale(0.015625)"/>
       <path id="DejaVuSans-69" d="M 603 3500 
L 1178 3500 
L 1178 0 
L 603 0 
L 603 3500 
z
M 603 4863 
L 1178 4863 
L 1178 4134 
L 603 4134 
L 603 4863 
z
" transform="scale(0.015625)"/>
       <path id="DejaVuSans-6d" d="M 3328 2828 
Q 3544 3216 3844 3400 
Q 4144 3584 4550 3584 
Q 5097 3584 5394 3201 
Q 5691 2819 5691 2113 
L 5691 0 
L 5113 0 
L 5113 2094 
Q 5113 2597 4934 2840 
Q 4756 3084 4391 3084 
Q 3944 3084 3684 2787 
Q 3425 2491 3425 1978 
L 3425 0 
L 2847 0 
L 2847 2094 
Q 2847 2600 2669 2842 
Q 2491 3084 2119 3084 
Q 1678 3084 1418 2786 
Q 1159 2488 1159 1978 
L 1159 0 
L 581 0 
L 581 3500 
L 1159 3500 
L 1159 2956 
Q 1356 3278 1631 3431 
Q 1906 3584 2284 3584 
Q 2666 3584 2933 3390 
Q 3200 3197 3328 2828 
z
" transform="scale(0.015625)"/>
       <path id="DejaVuSans-65" d="M 3597 1894 
L 3597 1613 
L 953 1613 
Q 991 1019 1311 708 
Q 1631 397 2203 397 
Q 2534 397 2845 478 
Q 3156 559 3463 722 
L 3463 178 
Q 3153 47 2828 -22 
Q 2503 -91 2169 -91 
Q 1331 -91 842 396 
Q 353 884 353 1716 
Q 353 2575 817 3079 
Q 1281 3584 2069 3584 
Q 2775 3584 3186 3129 
Q 3597 2675 3597 1894 
z
M 3022 2063 
Q 3016 2534 2758 2815 
Q 2500 3097 2075 3097 
Q 1594 3097 1305 2825 
Q 1016 2553 972 2059 
L 3022 2063 
z
" transform="scale(0.015625)"/>
       <path id="DejaVuSans-20" transform="scale(0.015625)"/>
       <path id="DejaVuSans-28" d="M 1984 4856 
Q 1566 4138 1362 3434 
Q 1159 2731 1159 2009 
Q 1159 1288 1364 580 
Q 1569 -128 1984 -844 
L 1484 -844 
Q 1016 -109 783 600 
Q 550 1309 550 2009 
Q 550 2706 781 3412 
Q 1013 4119 1484 4856 
L 1984 4856 
z
" transform="scale(0.015625)"/>
       <path id="DejaVuSans-64" d="M 2906 2969 
L 2906 4863 
L 3481 4863 
L 3481 0 
L 2906 0 
L 2906 525 
Q 2725 213 2448 61 
Q 2172 -91 1784 -91 
Q 1150 -91 751 415 
Q 353 922 353 1747 
Q 353 2572 751 3078 
Q 1150 3584 1784 3584 
Q 2172 3584 2448 3432 
Q 2725 3281 2906 2969 
z
M 947 1747 
Q 947 1113 1208 752 
Q 1469 391 1925 391 
Q 2381 391 2643 752 
Q 2906 1113 2906 1747 
Q 2906 2381 2643 2742 
Q 2381 3103 1925 3103 
Q 1469 3103 1208 2742 
Q 947 2381 947 1747 
z
" transform="scale(0.015625)"/>
       <path id="DejaVuSans-61" d="M 2194 1759 
Q 1497 1759 1228 1600 
Q 959 1441 959 1056 
Q 959 750 1161 570 
Q 1363 391 1709 391 
Q 2188 391 2477 730 
Q 2766 1069 2766 1631 
L 2766 1759 
L 2194 1759 
z
M 3341 1997 
L 3341 0 
L 2766 0 
L 2766 531 
Q 2569 213 2275 61 
Q 1981 -91 1556 -91 
Q 1019 -91 701 211 
Q 384 513 384 1019 
Q 384 1609 779 1909 
Q 1175 2209 1959 2209 
L 2766 2209 
L 2766 2266 
Q 2766 2663 2505 2880 
Q 2244 3097 1772 3097 
Q 1472 3097 1187 3025 
Q 903 2953 641 2809 
L 641 3341 
Q 956 3463 1253 3523 
Q 1550 3584 1831 3584 
Q 2591 3584 2966 3190 
Q 3341 2797 3341 1997 
z
" transform="scale(0.015625)"/>
       <path id="DejaVuSans-79" d="M 2059 -325 
Q 1816 -950 1584 -1140 
Q 1353 -1331 966 -1331 
L 506 -1331 
L 506 -850 
L 844 -850 
Q 1081 -850 1212 -737 
Q 1344 -625 1503 -206 
L 1606 56 
L 191 3500 
L 800 3500 
L 1894 763 
L 2988 3500 
L 3597 3500 
L 2059 -325 
z
" transform="scale(0.015625)"/>
       <path id="DejaVuSans-73" d="M 2834 3397 
L 2834 2853 
Q 2591 2978 2328 3040 
Q 2066 3103 1784 3103 
Q 1356 3103 1142 2972 
Q 928 2841 928 2578 
Q 928 2378 1081 2264 
Q 1234 2150 1697 2047 
L 1894 2003 
Q 2506 1872 2764 1633 
Q 3022 1394 3022 966 
Q 3022 478 2636 193 
Q 2250 -91 1575 -91 
Q 1294 -91 989 -36 
Q 684 19 347 128 
L 347 722 
Q 666 556 975 473 
Q 1284 391 1588 391 
Q 1994 391 2212 530 
Q 2431 669 2431 922 
Q 2431 1156 2273 1281 
Q 2116 1406 1581 1522 
L 1381 1569 
Q 847 1681 609 1914 
Q 372 2147 372 2553 
Q 372 3047 722 3315 
Q 1072 3584 1716 3584 
Q 2034 3584 2315 3537 
Q 2597 3491 2834 3397 
z
" transform="scale(0.015625)"/>
       <path id="DejaVuSans-29" d="M 513 4856 
L 1013 4856 
Q 1481 4119 1714 3412 
Q 1947 2706 1947 2009 
Q 1947 1309 1714 600 
Q 1481 -109 1013 -844 
L 513 -844 
Q 928 -128 1133 580 
Q 1338 1288 1338 2009 
Q 1338 2731 1133 3434 
Q 928 4138 513 4856 
z
" transform="scale(0.015625)"/>
      </defs>
      <use xlink:href="#DejaVuSans-54"/>
      <use xlink:href="#DejaVuSans-69" x="57.958984"/>
      <use xlink:href="#DejaVuSans-6d" x="85.742188"/>
      <use xlink:href="#DejaVuSans-65" x="183.154297"/>
      <use xlink:href="#DejaVuSans-20" x="244.677734"/>
      <use xlink:href="#DejaVuSans-28" x="276.464844"/>
      <use xlink:href="#DejaVuSans-64" x="315.478516"/>
      <use xlink:href="#DejaVuSans-61" x="378.955078"/>
      <use xlink:href="#DejaVuSans-79" x="440.234375"/>
      <use xlink:href="#DejaVuSans-73" x="499.414062"/>
      <use xlink:href="#DejaVuSans-29" x="551.513672"/>
     </g>
    </g>
   </g>
   <g id="matplotlib.axis_2">
    <g id="ytick_1">
     <g id="line2d_9">
      <defs>
       <path id="ma600d9e374" d="M 0 0 
L -3.5 0 
" style="stroke: #000000; stroke-width: 0.8"/>
      </defs>
      <g>
       <use xlink:href="#ma600d9e374" x="135" y="615.908529" style="stroke: #000000; stroke-width: 0.8"/>
      </g>
     </g>
     <g id="text_10">
      <!-- 0.00 -->
      <g transform="translate(79.015625 624.26681) scale(0.22 -0.22)">
       <use xlink:href="#DejaVuSans-30"/>
       <use xlink:href="#DejaVuSans-2e" x="63.623047"/>
       <use xlink:href="#DejaVuSans-30" x="95.410156"/>
       <use xlink:href="#DejaVuSans-30" x="159.033203"/>
      </g>
     </g>
    </g>
    <g id="ytick_2">
     <g id="line2d_10">
      <g>
       <use xlink:href="#ma600d9e374" x="135" y="544.201469" style="stroke: #000000; stroke-width: 0.8"/>
      </g>
     </g>
     <g id="text_11">
      <!-- 0.25 -->
      <g transform="translate(79.015625 552.559751) scale(0.22 -0.22)">
       <use xlink:href="#DejaVuSans-30"/>
       <use xlink:href="#DejaVuSans-2e" x="63.623047"/>
       <use xlink:href="#DejaVuSans-32" x="95.410156"/>
       <use xlink:href="#DejaVuSans-35" x="159.033203"/>
      </g>
     </g>
    </g>
    <g id="ytick_3">
     <g id="line2d_11">
      <g>
       <use xlink:href="#ma600d9e374" x="135" y="472.49441" style="stroke: #000000; stroke-width: 0.8"/>
      </g>
     </g>
     <g id="text_12">
      <!-- 0.50 -->
      <g transform="translate(79.015625 480.852691) scale(0.22 -0.22)">
       <use xlink:href="#DejaVuSans-30"/>
       <use xlink:href="#DejaVuSans-2e" x="63.623047"/>
       <use xlink:href="#DejaVuSans-35" x="95.410156"/>
       <use xlink:href="#DejaVuSans-30" x="159.033203"/>
      </g>
     </g>
    </g>
    <g id="ytick_4">
     <g id="line2d_12">
      <g>
       <use xlink:href="#ma600d9e374" x="135" y="400.78735" style="stroke: #000000; stroke-width: 0.8"/>
      </g>
     </g>
     <g id="text_13">
      <!-- 0.75 -->
      <g transform="translate(79.015625 409.145632) scale(0.22 -0.22)">
       <use xlink:href="#DejaVuSans-30"/>
       <use xlink:href="#DejaVuSans-2e" x="63.623047"/>
       <use xlink:href="#DejaVuSans-37" x="95.410156"/>
       <use xlink:href="#DejaVuSans-35" x="159.033203"/>
      </g>
     </g>
    </g>
    <g id="ytick_5">
     <g id="line2d_13">
      <g>
       <use xlink:href="#ma600d9e374" x="135" y="329.080291" style="stroke: #000000; stroke-width: 0.8"/>
      </g>
     </g>
     <g id="text_14">
      <!-- 1.00 -->
      <g transform="translate(79.015625 337.438572) scale(0.22 -0.22)">
       <use xlink:href="#DejaVuSans-31"/>
       <use xlink:href="#DejaVuSans-2e" x="63.623047"/>
       <use xlink:href="#DejaVuSans-30" x="95.410156"/>
       <use xlink:href="#DejaVuSans-30" x="159.033203"/>
      </g>
     </g>
    </g>
    <g id="ytick_6">
     <g id="line2d_14">
      <g>
       <use xlink:href="#ma600d9e374" x="135" y="257.373231" style="stroke: #000000; stroke-width: 0.8"/>
      </g>
     </g>
     <g id="text_15">
      <!-- 1.25 -->
      <g transform="translate(79.015625 265.731513) scale(0.22 -0.22)">
       <use xlink:href="#DejaVuSans-31"/>
       <use xlink:href="#DejaVuSans-2e" x="63.623047"/>
       <use xlink:href="#DejaVuSans-32" x="95.410156"/>
       <use xlink:href="#DejaVuSans-35" x="159.033203"/>
      </g>
     </g>
    </g>
    <g id="ytick_7">
     <g id="line2d_15">
      <g>
       <use xlink:href="#ma600d9e374" x="135" y="185.666172" style="stroke: #000000; stroke-width: 0.8"/>
      </g>
     </g>
     <g id="text_16">
      <!-- 1.50 -->
      <g transform="translate(79.015625 194.024453) scale(0.22 -0.22)">
       <use xlink:href="#DejaVuSans-31"/>
       <use xlink:href="#DejaVuSans-2e" x="63.623047"/>
       <use xlink:href="#DejaVuSans-35" x="95.410156"/>
       <use xlink:href="#DejaVuSans-30" x="159.033203"/>
      </g>
     </g>
    </g>
    <g id="ytick_8">
     <g id="line2d_16">
      <g>
       <use xlink:href="#ma600d9e374" x="135" y="113.959112" style="stroke: #000000; stroke-width: 0.8"/>
      </g>
     </g>
     <g id="text_17">
      <!-- 1.75 -->
      <g transform="translate(79.015625 122.317393) scale(0.22 -0.22)">
       <use xlink:href="#DejaVuSans-31"/>
       <use xlink:href="#DejaVuSans-2e" x="63.623047"/>
       <use xlink:href="#DejaVuSans-37" x="95.410156"/>
       <use xlink:href="#DejaVuSans-35" x="159.033203"/>
      </g>
     </g>
    </g>
    <g id="text_18">
     <!-- X:A -->
     <g transform="translate(70.440313 382.365312) rotate(-90) scale(0.22 -0.22)">
      <defs>
       <path id="DejaVuSans-58" d="M 403 4666 
L 1081 4666 
L 2241 2931 
L 3406 4666 
L 4084 4666 
L 2584 2425 
L 4184 0 
L 3506 0 
L 2194 1984 
L 872 0 
L 191 0 
L 1856 2491 
L 403 4666 
z
" transform="scale(0.015625)"/>
       <path id="DejaVuSans-3a" d="M 750 794 
L 1409 794 
L 1409 0 
L 750 0 
L 750 794 
z
M 750 3309 
L 1409 3309 
L 1409 2516 
L 750 2516 
L 750 3309 
z
" transform="scale(0.015625)"/>
       <path id="DejaVuSans-41" d="M 2188 4044 
L 1331 1722 
L 3047 1722 
L 2188 4044 
z
M 1831 4666 
L 2547 4666 
L 4325 0 
L 3669 0 
L 3244 1197 
L 1141 1197 
L 716 0 
L 50 0 
L 1831 4666 
z
" transform="scale(0.015625)"/>
      </defs>
      <use xlink:href="#DejaVuSans-58"/>
      <use xlink:href="#DejaVuSans-3a" x="68.505859"/>
      <use xlink:href="#DejaVuSans-41" x="102.197266"/>
     </g>
    </g>
   </g>
   <g id="line2d_17">
    <path d="M 173.045455 615.6 
L 180.731405 525.591929 
L 188.417355 490.891877 
L 196.103306 477.89288 
L 203.789256 472.971541 
L 211.475207 471.034349 
L 219.161157 470.309417 
L 226.847107 469.978781 
L 234.533058 469.875988 
L 242.219008 469.784436 
L 249.904959 469.794004 
L 257.590909 469.765614 
L 265.27686 469.700811 
L 272.96281 469.755995 
L 280.64876 469.839449 
L 288.334711 469.724323 
L 296.020661 469.693811 
L 303.706612 469.845701 
L 311.392562 469.780249 
L 319.078512 469.634045 
L 326.764463 469.8069 
L 334.450413 469.898645 
L 342.136364 469.641378 
L 349.822314 469.741581 
L 357.508264 469.962291 
L 365.194215 469.719682 
L 372.880165 469.744053 
L 380.566116 469.905584 
L 388.252066 469.733319 
L 395.938017 469.760815 
L 403.623967 469.84695 
L 411.309917 469.712158 
L 418.995868 469.750312 
L 426.681818 469.851919 
L 434.367769 469.690242 
L 442.053719 469.696458 
L 449.739669 469.891094 
L 457.42562 469.743806 
L 465.11157 469.617183 
L 472.797521 469.871956 
L 480.483471 469.878538 
L 488.169421 469.649692 
L 495.855372 469.82664 
L 503.541322 469.883698 
L 511.227273 469.709253 
L 518.913223 469.817909 
L 526.599174 469.813723 
L 534.285124 469.711733 
L 541.971074 469.807826 
L 549.657025 469.788737 
L 557.342975 469.679384 
L 565.028926 469.788073 
L 572.714876 469.846609 
L 580.400826 469.636831 
L 588.086777 469.709509 
L 595.772727 469.951725 
L 603.458678 469.719331 
L 611.144628 469.642608 
L 618.830579 469.943341 
L 626.516529 469.818297 
L 634.202479 469.698808 
L 641.88843 469.887296 
L 649.57438 469.783013 
L 657.260331 469.731698 
L 664.946281 469.844737 
L 672.632231 469.741025 
L 680.318182 469.718184 
L 688.004132 469.84042 
L 695.690083 469.735112 
L 703.376033 469.650498 
L 711.061983 469.833813 
L 718.747934 469.852415 
L 726.433884 469.596746 
L 734.119835 469.74562 
L 741.805785 469.999163 
L 749.491736 469.707017 
L 757.177686 469.724753 
L 764.863636 469.951718 
L 772.549587 469.752096 
L 780.235537 469.765786 
L 787.921488 469.848317 
L 795.607438 469.725145 
L 803.293388 469.7681 
L 810.979339 469.821176 
L 818.665289 469.688541 
L 826.35124 469.732663 
L 834.03719 469.874334 
L 841.72314 469.686406 
L 849.409091 469.618677 
L 857.095041 469.896401 
L 864.780992 469.881511 
L 872.466942 469.708867 
L 880.152893 469.845593 
L 887.838843 469.802269 
L 895.524793 469.732421 
L 903.210744 469.821301 
L 910.896694 469.749456 
L 918.582645 469.704128 
L 926.268595 469.819167 
L 933.954545 469.810669 
" clip-path="url(#p294e5309c2)" style="fill: none; stroke: #d0e1f2; stroke-width: 1.5; stroke-linecap: square"/>
   </g>
   <g id="line2d_18">
    <path d="M 173.045455 156.22457 
L 180.731405 169.955726 
L 188.417355 185.533029 
L 196.103306 195.573843 
L 203.789256 201.259013 
L 211.475207 204.287917 
L 219.161157 205.860898 
L 226.847107 206.654424 
L 234.533058 207.048725 
L 242.219008 207.250572 
L 249.904959 207.341784 
L 257.590909 207.38165 
L 265.27686 207.394964 
L 272.96281 207.425072 
L 280.64876 207.452438 
L 288.334711 207.405496 
L 296.020661 207.397355 
L 303.706612 207.47908 
L 311.392562 207.445194 
L 319.078512 207.368064 
L 326.764463 207.462769 
L 334.450413 207.512724 
L 342.136364 207.373002 
L 349.822314 207.42802 
L 357.508264 207.548389 
L 365.194215 207.415953 
L 372.880165 207.429469 
L 380.566116 207.517731 
L 388.252066 207.423485 
L 395.938017 207.438611 
L 403.623967 207.485736 
L 411.309917 207.411944 
L 418.995868 207.43286 
L 426.681818 207.48846 
L 434.367769 207.400007 
L 442.053719 207.403442 
L 449.739669 207.509864 
L 457.42562 207.429347 
L 465.11157 207.360288 
L 472.797521 207.499403 
L 480.483471 207.502833 
L 488.169421 207.377974 
L 495.855372 207.474706 
L 503.541322 207.505706 
L 511.227273 207.410359 
L 518.913223 207.469885 
L 526.599174 207.467527 
L 534.285124 207.411713 
L 541.971074 207.46435 
L 549.657025 207.45387 
L 557.342975 207.394038 
L 565.028926 207.453534 
L 572.714876 207.485526 
L 580.400826 207.370906 
L 588.086777 207.41066 
L 595.772727 207.542923 
L 603.458678 207.415993 
L 611.144628 207.374265 
L 618.830579 207.538363 
L 626.516529 207.469885 
L 634.202479 207.404737 
L 641.88843 207.507828 
L 649.57438 207.450685 
L 657.260331 207.422655 
L 664.946281 207.484556 
L 672.632231 207.427741 
L 680.318182 207.415258 
L 688.004132 207.482183 
L 695.690083 207.424548 
L 703.376033 207.378309 
L 711.061983 207.47855 
L 718.747934 207.488665 
L 726.433884 207.349178 
L 734.119835 207.430488 
L 741.805785 207.568696 
L 749.491736 207.409194 
L 757.177686 207.419072 
L 764.863636 207.542937 
L 772.549587 207.433735 
L 780.235537 207.44134 
L 787.921488 207.486491 
L 795.607438 207.419038 
L 803.293388 207.442591 
L 810.979339 207.471638 
L 818.665289 207.399038 
L 826.35124 207.423205 
L 834.03719 207.500714 
L 841.72314 207.398009 
L 849.409091 207.361083 
L 857.095041 207.512721 
L 864.780992 207.504415 
L 872.466942 207.410145 
L 880.152893 207.485027 
L 887.838843 207.461239 
L 895.524793 207.423023 
L 903.210744 207.471727 
L 910.896694 207.432358 
L 918.582645 207.40755 
L 926.268595 207.470546 
L 933.954545 207.465857 
" clip-path="url(#p294e5309c2)" style="fill: none; stroke: #fdd9b4; stroke-width: 1.5; stroke-linecap: square"/>
   </g>
   <g id="line2d_19">
    <path d="M 173.045455 615.6 
L 180.731405 503.791814 
L 188.417355 474.599153 
L 196.103306 466.402407 
L 203.789256 464.005198 
L 211.475207 463.290263 
L 219.161157 463.033251 
L 226.847107 463.006957 
L 234.533058 462.940402 
L 242.219008 462.963368 
L 249.904959 462.950629 
L 257.590909 462.84778 
L 265.27686 462.958 
L 272.96281 463.076558 
L 280.64876 462.891172 
L 288.334711 462.969381 
L 296.020661 463.027393 
L 303.706612 462.88018 
L 311.392562 463.018807 
L 319.078512 462.960147 
L 326.764463 462.85829 
L 334.450413 463.068828 
L 342.136364 462.928894 
L 349.822314 462.845762 
L 357.508264 463.128302 
L 365.194215 462.917737 
L 372.880165 462.896589 
L 380.566116 463.132482 
L 388.252066 462.8943 
L 395.938017 462.986928 
L 403.623967 463.018223 
L 411.309917 462.887286 
L 418.995868 463.038497 
L 426.681818 462.929673 
L 434.367769 462.893342 
L 442.053719 463.071303 
L 449.739669 462.874077 
L 457.42562 462.895506 
L 465.11157 463.122721 
L 472.797521 462.853376 
L 480.483471 462.93095 
L 488.169421 463.125601 
L 495.855372 462.864571 
L 503.541322 463.015984 
L 511.227273 463.013182 
L 518.913223 462.891947 
L 526.599174 463.056971 
L 534.285124 462.916752 
L 541.971074 462.925655 
L 549.657025 463.049777 
L 557.342975 462.856083 
L 565.028926 462.952337 
L 572.714876 463.065578 
L 580.400826 462.815561 
L 588.086777 462.988163 
L 595.772727 463.078669 
L 603.458678 462.832306 
L 611.144628 463.056654 
L 618.830579 463.000909 
L 626.516529 462.892762 
L 634.202479 463.079093 
L 641.88843 462.911456 
L 649.57438 462.951816 
L 657.260331 463.021325 
L 664.946281 462.862717 
L 672.632231 462.996568 
L 680.318182 462.992352 
L 688.004132 462.820334 
L 695.690083 463.045474 
L 703.376033 462.997916 
L 711.061983 462.818379 
L 718.747934 463.104911 
L 726.433884 462.968133 
L 734.119835 462.893017 
L 741.805785 463.10559 
L 749.491736 462.905536 
L 757.177686 462.974314 
L 764.863636 463.004426 
L 772.549587 462.877696 
L 780.235537 463.023811 
L 787.921488 462.938699 
L 795.607438 462.856112 
L 803.293388 463.076239 
L 810.979339 462.912184 
L 818.665289 462.842397 
L 826.35124 463.139647 
L 834.03719 462.909913 
L 841.72314 462.903419 
L 849.409091 463.127929 
L 857.095041 462.89178 
L 864.780992 462.997682 
L 872.466942 462.998984 
L 880.152893 462.891297 
L 887.838843 463.040197 
L 895.524793 462.912827 
L 903.210744 462.899375 
L 910.896694 463.070961 
L 918.582645 462.880633 
L 926.268595 462.925943 
L 933.954545 463.079825 
" clip-path="url(#p294e5309c2)" style="fill: none; stroke: #b7d4ea; stroke-width: 1.5; stroke-linecap: square"/>
   </g>
   <g id="line2d_20">
    <path d="M 173.045455 156.22457 
L 180.731405 159.024844 
L 188.417355 161.713617 
L 196.103306 164.295398 
L 203.789256 166.774443 
L 211.475207 169.154854 
L 219.161157 171.440584 
L 226.847107 173.635431 
L 234.533058 175.743038 
L 242.219008 177.7669 
L 249.904959 179.710371 
L 257.590909 181.576667 
L 265.27686 183.368872 
L 272.96281 185.089948 
L 280.64876 186.742731 
L 288.334711 188.329952 
L 296.020661 189.854221 
L 303.706612 191.318048 
L 311.392562 192.723844 
L 319.078512 194.073917 
L 326.764463 195.370485 
L 334.450413 196.615682 
L 342.136364 197.811544 
L 349.822314 198.960036 
L 357.508264 200.063045 
L 365.194215 201.12237 
L 372.880165 202.139752 
L 380.566116 203.116858 
L 388.252066 204.05528 
L 395.938017 204.956561 
L 403.623967 205.822171 
L 411.309917 206.653524 
L 418.995868 207.451983 
L 426.681818 208.218848 
L 434.367769 208.955375 
L 442.053719 209.662766 
L 449.739669 210.342173 
L 457.42562 210.994708 
L 465.11157 211.621437 
L 472.797521 212.223376 
L 480.483471 212.801514 
L 488.169421 213.356791 
L 495.855372 213.890109 
L 503.541322 214.402343 
L 511.227273 214.894324 
L 518.913223 215.366854 
L 526.599174 215.820707 
L 534.285124 216.256615 
L 541.971074 216.675294 
L 549.657025 217.077425 
L 557.342975 217.463659 
L 565.028926 217.834629 
L 572.714876 218.190938 
L 580.400826 218.533162 
L 588.086777 218.861865 
L 595.772727 219.177578 
L 603.458678 219.480812 
L 611.144628 219.772067 
L 618.830579 220.05181 
L 626.516529 220.3205 
L 634.202479 220.578575 
L 641.88843 220.826451 
L 649.57438 221.064534 
L 657.260331 221.293211 
L 664.946281 221.512851 
L 672.632231 221.723816 
L 680.318182 221.926445 
L 688.004132 222.121068 
L 695.690083 222.308005 
L 703.376033 222.487555 
L 711.061983 222.66001 
L 718.747934 222.825658 
L 726.433884 222.984757 
L 734.119835 223.137572 
L 741.805785 223.284354 
L 749.491736 223.425334 
L 757.177686 223.560747 
L 764.863636 223.690811 
L 772.549587 223.815736 
L 780.235537 223.935729 
L 787.921488 224.05098 
L 795.607438 224.161679 
L 803.293388 224.268008 
L 810.979339 224.370134 
L 818.665289 224.468227 
L 826.35124 224.56245 
L 834.03719 224.652945 
L 841.72314 224.739869 
L 849.409091 224.823361 
L 857.095041 224.903552 
L 864.780992 224.980579 
L 872.466942 225.054562 
L 880.152893 225.125623 
L 887.838843 225.193879 
L 895.524793 225.259437 
L 903.210744 225.322407 
L 910.896694 225.382892 
L 918.582645 225.440984 
L 926.268595 225.496785 
L 933.954545 225.550383 
" clip-path="url(#p294e5309c2)" style="fill: none; stroke: #fdc38d; stroke-width: 1.5; stroke-linecap: square"/>
   </g>
   <g id="line2d_21">
    <path d="M 173.045455 615.6 
L 180.731405 501.609623 
L 188.417355 478.156582 
L 196.103306 473.09716 
L 203.789256 471.920478 
L 211.475207 471.605572 
L 219.161157 471.54689 
L 226.847107 471.512458 
L 234.533058 471.507021 
L 242.219008 471.380201 
L 249.904959 471.688033 
L 257.590909 471.482989 
L 265.27686 471.615241 
L 272.96281 471.487425 
L 280.64876 471.564159 
L 288.334711 471.44739 
L 296.020661 471.607667 
L 303.706612 471.323693 
L 311.392562 471.67756 
L 319.078512 471.517352 
L 326.764463 471.621426 
L 334.450413 471.494671 
L 342.136364 471.564562 
L 349.822314 471.459422 
L 357.508264 471.591678 
L 365.194215 471.341278 
L 372.880165 471.667691 
L 380.566116 471.505385 
L 388.252066 471.616693 
L 395.938017 471.49008 
L 403.623967 471.572955 
L 411.309917 471.452614 
L 418.995868 471.599073 
L 426.681818 471.347839 
L 434.367769 471.655674 
L 442.053719 471.506964 
L 449.739669 471.613789 
L 457.42562 471.489155 
L 465.11157 471.577318 
L 472.797521 471.451007 
L 480.483471 471.600002 
L 488.169421 471.355639 
L 495.855372 471.646443 
L 503.541322 471.505902 
L 511.227273 471.610647 
L 518.913223 471.487857 
L 526.599174 471.580781 
L 534.285124 471.449116 
L 541.971074 471.601135 
L 549.657025 471.362571 
L 557.342975 471.638319 
L 565.028926 471.505544 
L 572.714876 471.607719 
L 580.400826 471.487006 
L 588.086777 471.583176 
L 595.772727 471.447967 
L 603.458678 471.601466 
L 611.144628 471.368978 
L 618.830579 471.631419 
L 626.516529 471.505075 
L 634.202479 471.604986 
L 641.88843 471.486316 
L 649.57438 471.584881 
L 657.260331 471.44718 
L 664.946281 471.601435 
L 672.632231 471.374877 
L 680.318182 471.625458 
L 688.004132 471.504627 
L 695.690083 471.602471 
L 703.376033 471.485779 
L 711.061983 471.586064 
L 718.747934 471.446717 
L 726.433884 471.601124 
L 734.119835 471.38031 
L 741.805785 471.620306 
L 749.491736 471.504144 
L 757.177686 471.600178 
L 764.863636 471.485344 
L 772.549587 471.586869 
L 780.235537 471.446494 
L 787.921488 471.600635 
L 795.607438 471.38532 
L 803.293388 471.61584 
L 810.979339 471.503623 
L 818.665289 471.598102 
L 826.35124 471.48498 
L 834.03719 471.587395 
L 841.72314 471.446456 
L 849.409091 471.600034 
L 857.095041 471.389941 
L 864.780992 471.611963 
L 872.466942 471.503056 
L 880.152893 471.596236 
L 887.838843 471.484662 
L 895.524793 471.58772 
L 903.210744 471.446558 
L 910.896694 471.59937 
L 918.582645 471.394206 
L 926.268595 471.608595 
L 933.954545 471.585393 
" clip-path="url(#p294e5309c2)" style="fill: none; stroke: #94c4df; stroke-width: 1.5; stroke-linecap: square"/>
   </g>
   <g id="line2d_22">
    <path d="M 173.045455 156.22457 
L 180.731405 189.991366 
L 188.417355 201.452278 
L 196.103306 205.330353 
L 203.789256 206.632065 
L 211.475207 207.071472 
L 219.161157 207.209702 
L 226.847107 207.261359 
L 234.533058 207.269842 
L 242.219008 207.280035 
L 249.904959 207.28156 
L 257.590909 207.278345 
L 265.27686 207.28543 
L 272.96281 207.281705 
L 280.64876 207.284906 
L 288.334711 207.280629 
L 296.020661 207.286766 
L 303.706612 207.275878 
L 311.392562 207.289515 
L 319.078512 207.28338 
L 326.764463 207.287347 
L 334.450413 207.282498 
L 342.136364 207.28517 
L 349.822314 207.281145 
L 357.508264 207.286211 
L 365.194215 207.276578 
L 372.880165 207.289144 
L 380.566116 207.28292 
L 388.252066 207.287168 
L 395.938017 207.282323 
L 403.623967 207.285491 
L 411.309917 207.280883 
L 418.995868 207.286494 
L 426.681818 207.276829 
L 434.367769 207.28868 
L 442.053719 207.282981 
L 449.739669 207.287056 
L 457.42562 207.282287 
L 465.11157 207.285658 
L 472.797521 207.280821 
L 480.483471 207.28653 
L 488.169421 207.277131 
L 495.855372 207.288324 
L 503.541322 207.282938 
L 511.227273 207.286935 
L 518.913223 207.282238 
L 526.599174 207.285791 
L 534.285124 207.280749 
L 541.971074 207.286573 
L 549.657025 207.277399 
L 557.342975 207.28801 
L 565.028926 207.282924 
L 572.714876 207.286823 
L 580.400826 207.282205 
L 588.086777 207.285882 
L 595.772727 207.280704 
L 603.458678 207.286586 
L 611.144628 207.277646 
L 618.830579 207.287744 
L 626.516529 207.282905 
L 634.202479 207.286718 
L 641.88843 207.282178 
L 649.57438 207.285948 
L 657.260331 207.280674 
L 664.946281 207.286585 
L 672.632231 207.277874 
L 680.318182 207.287514 
L 688.004132 207.282887 
L 695.690083 207.286622 
L 703.376033 207.282157 
L 711.061983 207.285993 
L 718.747934 207.280655 
L 726.433884 207.286573 
L 734.119835 207.278083 
L 741.805785 207.287315 
L 749.491736 207.282868 
L 757.177686 207.286534 
L 764.863636 207.282141 
L 772.549587 207.286024 
L 780.235537 207.280647 
L 787.921488 207.286554 
L 795.607438 207.278277 
L 803.293388 207.287143 
L 810.979339 207.282847 
L 818.665289 207.286454 
L 826.35124 207.282126 
L 834.03719 207.286044 
L 841.72314 207.280645 
L 849.409091 207.286531 
L 857.095041 207.278455 
L 864.780992 207.286993 
L 872.466942 207.282824 
L 880.152893 207.286382 
L 887.838843 207.282114 
L 895.524793 207.286056 
L 903.210744 207.280648 
L 910.896694 207.286505 
L 918.582645 207.27862 
L 926.268595 207.286863 
L 933.954545 207.285993 
" clip-path="url(#p294e5309c2)" style="fill: none; stroke: #fda762; stroke-width: 1.5; stroke-linecap: square"/>
   </g>
   <g id="line2d_23">
    <path d="M 173.045455 615.6 
L 180.731405 612.833322 
L 188.417355 610.222633 
L 196.103306 607.668754 
L 203.789256 605.135805 
L 211.475207 602.611762 
L 219.161157 600.088035 
L 226.847107 597.561696 
L 234.533058 595.034097 
L 242.219008 592.499813 
L 249.904959 589.9597 
L 257.590909 587.417441 
L 265.27686 584.869971 
L 272.96281 582.309903 
L 280.64876 579.743106 
L 288.334711 577.174802 
L 296.020661 574.59887 
L 303.706612 572.004047 
L 311.392562 569.402224 
L 319.078512 566.8005 
L 326.764463 564.188001 
L 334.450413 561.550558 
L 342.136364 558.907204 
L 349.822314 556.262536 
L 357.508264 553.59894 
L 365.194215 550.914074 
L 372.880165 548.223831 
L 380.566116 545.523272 
L 388.252066 542.798261 
L 395.938017 540.060406 
L 403.623967 537.312712 
L 411.309917 534.544378 
L 418.995868 531.754195 
L 426.681818 528.95238 
L 434.367769 526.136115 
L 442.053719 523.291798 
L 449.739669 520.425829 
L 457.42562 517.548971 
L 465.11157 514.654162 
L 472.797521 511.723363 
L 480.483471 508.77083 
L 488.169421 505.807182 
L 495.855372 502.818754 
L 503.541322 499.790052 
L 511.227273 496.742327 
L 518.913223 493.676952 
L 526.599174 490.574552 
L 534.285124 487.439781 
L 541.971074 484.283772 
L 549.657025 481.097848 
L 557.342975 477.870468 
L 565.028926 474.61497 
L 572.714876 471.332507 
L 580.400826 468.008792 
L 588.086777 464.642164 
L 595.772727 461.24702 
L 603.458678 457.819855 
L 611.144628 454.340332 
L 618.830579 450.814248 
L 626.516529 447.258855 
L 634.202479 443.66503 
L 641.88843 440.006466 
L 649.57438 436.301322 
L 657.260331 432.561714 
L 664.946281 428.768179 
L 672.632231 424.906864 
L 680.318182 421.000022 
L 688.004132 417.044351 
L 695.690083 413.017287 
L 703.376033 408.9284 
L 711.061983 404.785945 
L 718.747934 400.576361 
L 726.433884 396.285974 
L 734.119835 391.931268 
L 741.805785 387.512692 
L 749.491736 383.009226 
L 757.177686 378.412478 
L 764.863636 373.745201 
L 772.549587 369.004398 
L 780.235537 364.157663 
L 787.921488 359.201766 
L 795.607438 354.166911 
L 803.293388 349.0426 
L 810.979339 343.784913 
L 818.665289 338.411854 
L 826.35124 332.941631 
L 834.03719 327.34641 
L 841.72314 321.602686 
L 849.409091 315.735055 
L 857.095041 309.735695 
L 864.780992 303.572923 
L 872.466942 297.252003 
L 880.152893 290.777682 
L 887.838843 284.131986 
L 895.524793 277.288961 
L 903.210744 270.255758 
L 910.896694 263.029882 
L 918.582645 255.592261 
L 926.268595 247.914515 
L 933.954545 239.996266 
" clip-path="url(#p294e5309c2)" style="fill: none; stroke: #6aaed6; stroke-width: 1.5; stroke-linecap: square"/>
   </g>
   <g id="line2d_24">
    <path d="M 173.045455 156.22457 
L 180.731405 132.949927 
L 188.417355 123.485126 
L 196.103306 119.685771 
L 203.789256 118.188549 
L 211.475207 117.866224 
L 219.161157 117.939313 
L 226.847107 118.172775 
L 234.533058 118.742787 
L 242.219008 119.174137 
L 249.904959 119.598236 
L 257.590909 120.421854 
L 265.27686 121.398035 
L 272.96281 121.861588 
L 280.64876 122.424493 
L 288.334711 123.635596 
L 296.020661 124.961296 
L 303.706612 125.37753 
L 311.392562 126.053064 
L 319.078512 127.706826 
L 326.764463 129.375062 
L 334.450413 129.784676 
L 342.136364 130.735427 
L 349.822314 132.699903 
L 357.508264 134.136822 
L 365.194215 134.880727 
L 372.880165 136.392596 
L 380.566116 138.291239 
L 388.252066 139.393131 
L 395.938017 140.753229 
L 403.623967 142.678452 
L 411.309917 144.303501 
L 418.995868 145.580755 
L 426.681818 147.412762 
L 434.367769 149.621425 
L 442.053719 151.146249 
L 449.739669 152.565228 
L 457.42562 154.793256 
L 465.11157 157.329843 
L 472.797521 158.813006 
L 480.483471 160.41272 
L 488.169421 162.997287 
L 495.855372 165.598169 
L 503.541322 167.11808 
L 511.227273 169.187529 
L 518.913223 171.966151 
L 526.599174 174.136908 
L 534.285124 176.097772 
L 541.971074 178.681787 
L 549.657025 181.365485 
L 557.342975 183.444788 
L 565.028926 185.874531 
L 572.714876 188.797516 
L 580.400826 191.370219 
L 588.086777 193.57304 
L 595.772727 196.366476 
L 603.458678 199.614882 
L 611.144628 202.176382 
L 618.830579 204.487842 
L 626.516529 207.616845 
L 634.202479 211.133168 
L 641.88843 213.65562 
L 649.57438 216.279083 
L 657.260331 219.727856 
L 664.946281 223.079541 
L 672.632231 225.725485 
L 680.318182 228.877309 
L 688.004132 232.466882 
L 695.690083 235.518075 
L 703.376033 238.591321 
L 711.061983 242.15767 
L 718.747934 245.721753 
L 726.433884 248.81148 
L 734.119835 252.234637 
L 741.805785 256.117972 
L 749.491736 259.735476 
L 757.177686 262.903367 
L 764.863636 266.595617 
L 772.549587 270.824915 
L 780.235537 274.554793 
L 787.921488 277.835712 
L 795.607438 281.809367 
L 803.293388 286.271031 
L 810.979339 289.965575 
L 818.665289 293.624743 
L 826.35124 297.925239 
L 834.03719 302.224549 
L 841.72314 306.04061 
L 849.409091 310.203991 
L 857.095041 314.674564 
L 864.780992 318.841247 
L 872.466942 323.026192 
L 880.152893 327.510806 
L 887.838843 332.088933 
L 895.524793 336.414708 
L 903.210744 340.846852 
L 910.896694 345.528373 
L 918.582645 350.320876 
L 926.268595 354.93907 
L 933.954545 359.622975 
" clip-path="url(#p294e5309c2)" style="fill: none; stroke: #fd8c3b; stroke-width: 1.5; stroke-linecap: square"/>
   </g>
   <g id="line2d_25">
    <path d="M 173.045455 615.6 
L 180.731405 613.157482 
L 188.417355 610.997922 
L 196.103306 608.911094 
L 203.789256 606.843027 
L 211.475207 604.785353 
L 219.161157 602.726788 
L 226.847107 600.675571 
L 234.533058 598.618505 
L 242.219008 596.561752 
L 249.904959 594.527675 
L 257.590909 592.485523 
L 265.27686 590.427 
L 272.96281 588.394477 
L 280.64876 586.344527 
L 288.334711 584.306961 
L 296.020661 582.267598 
L 303.706612 580.225306 
L 311.392562 578.201738 
L 319.078512 576.156379 
L 326.764463 574.119871 
L 334.450413 572.118586 
L 342.136364 570.074495 
L 349.822314 568.049005 
L 357.508264 566.026372 
L 365.194215 563.997907 
L 372.880165 561.981119 
L 380.566116 559.952676 
L 388.252066 557.941137 
L 395.938017 555.921172 
L 403.623967 553.892624 
L 411.309917 551.900394 
L 418.995868 549.884223 
L 426.681818 547.861821 
L 434.367769 545.860179 
L 442.053719 543.837143 
L 449.739669 541.830961 
L 457.42562 539.809108 
L 465.11157 537.795024 
L 472.797521 535.784301 
L 480.483471 533.742324 
L 488.169421 531.729757 
L 495.855372 529.70681 
L 503.541322 527.644781 
L 511.227273 525.602364 
L 518.913223 523.518996 
L 526.599174 521.434227 
L 534.285124 519.312087 
L 541.971074 517.166663 
L 549.657025 514.995884 
L 557.342975 512.749558 
L 565.028926 510.475666 
L 572.714876 508.099718 
L 580.400826 505.650172 
L 588.086777 503.084134 
L 595.772727 500.349175 
L 603.458678 497.470621 
L 611.144628 494.291937 
L 618.830579 490.861358 
L 626.516529 486.987171 
L 634.202479 482.661641 
L 641.88843 477.738448 
L 649.57438 472.218777 
L 657.260331 466.129191 
L 664.946281 459.579424 
L 672.632231 452.723136 
L 680.318182 445.670593 
L 688.004132 438.504683 
L 695.690083 431.267048 
L 703.376033 423.995252 
L 711.061983 416.697109 
L 718.747934 409.391268 
L 726.433884 402.076387 
L 734.119835 394.763419 
L 741.805785 387.448126 
L 749.491736 380.138334 
L 757.177686 372.830359 
L 764.863636 365.526576 
L 772.549587 358.230237 
L 780.235537 350.934818 
L 787.921488 343.649 
L 795.607438 336.367483 
L 803.293388 329.088605 
L 810.979339 321.821513 
L 818.665289 314.555191 
L 826.35124 307.297051 
L 834.03719 300.045842 
L 841.72314 292.797248 
L 849.409091 285.559138 
L 857.095041 278.323471 
L 864.780992 271.09553 
L 872.466942 263.874304 
L 880.152893 256.655714 
L 887.838843 249.44795 
L 895.524793 242.242957 
L 903.210744 235.043112 
L 910.896694 227.853951 
L 918.582645 220.665057 
L 926.268595 213.485417 
L 933.954545 206.312118 
" clip-path="url(#p294e5309c2)" style="fill: none; stroke: #4a98c9; stroke-width: 1.5; stroke-linecap: square"/>
   </g>
   <g id="line2d_26">
    <path d="M 173.045455 156.22457 
L 180.731405 141.920317 
L 188.417355 138.006555 
L 196.103306 136.942231 
L 203.789256 136.577388 
L 211.475207 136.56184 
L 219.161157 136.442838 
L 226.847107 136.552978 
L 234.533058 136.349899 
L 242.219008 136.084083 
L 249.904959 136.693923 
L 257.590909 136.907582 
L 265.27686 136.35855 
L 272.96281 136.794211 
L 280.64876 136.46327 
L 288.334711 136.563187 
L 296.020661 136.523094 
L 303.706612 136.28993 
L 311.392562 136.760158 
L 319.078512 136.251773 
L 326.764463 136.022399 
L 334.450413 137.228115 
L 342.136364 136.592299 
L 349.822314 136.604958 
L 357.508264 136.685468 
L 365.194215 136.472764 
L 372.880165 136.671698 
L 380.566116 136.335586 
L 388.252066 136.633525 
L 395.938017 136.530302 
L 403.623967 136.000993 
L 411.309917 136.960873 
L 418.995868 136.912953 
L 426.681818 136.546551 
L 434.367769 137.019287 
L 442.053719 136.652326 
L 449.739669 137.000091 
L 457.42562 136.779998 
L 465.11157 136.973957 
L 472.797521 137.456691 
L 480.483471 136.837036 
L 488.169421 137.703227 
L 495.855372 138.530799 
L 503.541322 138.190956 
L 511.227273 139.187383 
L 518.913223 139.303149 
L 526.599174 140.247645 
L 534.285124 140.846949 
L 541.971074 141.903296 
L 549.657025 143.683301 
L 557.342975 144.663936 
L 565.028926 147.145492 
L 572.714876 149.030192 
L 580.400826 152.079825 
L 588.086777 155.795846 
L 595.772727 159.567056 
L 603.458678 165.808382 
L 611.144628 171.408124 
L 618.830579 180.3249 
L 626.516529 189.529989 
L 634.202479 202.007565 
L 641.88843 215.678617 
L 649.57438 231.486742 
L 657.260331 247.762663 
L 664.946281 262.31553 
L 672.632231 275.034752 
L 680.318182 284.972405 
L 688.004132 292.527172 
L 695.690083 297.499975 
L 703.376033 301.376115 
L 711.061983 303.558164 
L 718.747934 305.493108 
L 726.433884 306.377856 
L 734.119835 307.431626 
L 741.805785 307.724741 
L 749.491736 308.326346 
L 757.177686 308.513179 
L 764.863636 308.58108 
L 772.549587 309.03872 
L 780.235537 308.716925 
L 787.921488 309.070439 
L 795.607438 309.193507 
L 803.293388 308.747254 
L 810.979339 309.320267 
L 818.665289 309.016043 
L 826.35124 309.067882 
L 834.03719 309.293538 
L 841.72314 308.931781 
L 849.409091 309.325702 
L 857.095041 309.110795 
L 864.780992 309.175316 
L 872.466942 309.365361 
L 880.152893 308.961692 
L 887.838843 309.385601 
L 895.524793 309.255125 
L 903.210744 308.951544 
L 910.896694 309.472803 
L 918.582645 308.999955 
L 926.268595 309.058736 
L 933.954545 309.175915 
" clip-path="url(#p294e5309c2)" style="fill: none; stroke: #f3701b; stroke-width: 1.5; stroke-linecap: square"/>
   </g>
   <g id="line2d_27">
    <path d="M 173.045455 615.6 
L 180.731405 612.839468 
L 188.417355 610.227789 
L 196.103306 607.661846 
L 203.789256 605.108121 
L 211.475207 602.558255 
L 219.161157 600.005613 
L 226.847107 597.451818 
L 234.533058 594.890673 
L 242.219008 592.326624 
L 249.904959 589.760392 
L 257.590909 587.182789 
L 265.27686 584.598939 
L 272.96281 582.014826 
L 280.64876 579.417487 
L 288.334711 576.808499 
L 296.020661 574.201408 
L 303.706612 571.581653 
L 311.392562 568.94345 
L 319.078512 566.307044 
L 326.764463 563.658507 
L 334.450413 560.989526 
L 342.136364 558.318968 
L 349.822314 555.633412 
L 357.508264 552.930454 
L 365.194215 550.221949 
L 372.880165 547.495166 
L 380.566116 544.751972 
L 388.252066 542.0014 
L 395.938017 539.230129 
L 403.623967 536.439265 
L 411.309917 533.641849 
L 418.995868 530.823253 
L 426.681818 527.978163 
L 434.367769 525.127012 
L 442.053719 522.25553 
L 449.739669 519.352751 
L 457.42562 516.441129 
L 465.11157 513.506765 
L 472.797521 510.542578 
L 480.483471 507.565107 
L 488.169421 504.560473 
L 495.855372 501.527766 
L 503.541322 498.4784 
L 511.227273 495.398262 
L 518.913223 492.28754 
L 526.599174 489.159466 
L 534.285124 485.998725 
L 541.971074 482.800021 
L 549.657025 479.584272 
L 557.342975 476.33626 
L 565.028926 473.042081 
L 572.714876 469.728207 
L 580.400826 466.380201 
L 588.086777 462.984108 
L 595.772727 459.562965 
L 603.458678 456.101497 
L 611.144628 452.593699 
L 618.830579 449.055214 
L 626.516529 445.470268 
L 634.202479 441.836824 
L 641.88843 438.169275 
L 649.57438 434.450839 
L 657.260331 430.675404 
L 664.946281 426.864609 
L 672.632231 423.001616 
L 680.318182 419.068576 
L 688.004132 415.096679 
L 695.690083 411.071235 
L 703.376033 406.966881 
L 711.061983 402.816106 
L 718.747934 398.60318 
L 726.433884 394.31056 
L 734.119835 389.962046 
L 741.805785 385.539611 
L 749.491736 381.034965 
L 757.177686 376.465475 
L 764.863636 371.812111 
L 772.549587 367.06531 
L 780.235537 362.247203 
L 787.921488 357.339217 
L 795.607438 352.316365 
L 803.293388 347.214417 
L 810.979339 342.020642 
L 818.665289 336.689357 
L 826.35124 331.263192 
L 834.03719 325.735461 
L 841.72314 320.056691 
L 849.409091 314.265312 
L 857.095041 308.347226 
L 864.780992 302.270639 
L 872.466942 296.060835 
L 880.152893 289.697311 
L 887.838843 283.157907 
L 895.524793 276.461276 
L 903.210744 269.588629 
L 910.896694 262.503981 
L 918.582645 255.23317 
L 926.268595 247.770997 
L 933.954545 240.062253 
" clip-path="url(#p294e5309c2)" style="fill: none; stroke: #2e7ebc; stroke-width: 1.5; stroke-linecap: square"/>
   </g>
   <g id="line2d_28">
    <path d="M 173.045455 156.22457 
L 180.731405 131.849672 
L 188.417355 123.699961 
L 196.103306 121.143712 
L 203.789256 120.372735 
L 211.475207 120.431759 
L 219.161157 120.616806 
L 226.847107 121.173458 
L 234.533058 121.436805 
L 242.219008 121.989247 
L 249.904959 122.977751 
L 257.590909 123.38445 
L 265.27686 123.863688 
L 272.96281 125.173991 
L 280.64876 125.872006 
L 288.334711 126.188367 
L 296.020661 127.743755 
L 303.706612 128.936859 
L 311.392562 129.152358 
L 319.078512 130.737472 
L 326.764463 132.200998 
L 334.450413 132.662014 
L 342.136364 134.260252 
L 349.822314 135.594635 
L 357.508264 136.454451 
L 365.194215 138.174656 
L 372.880165 139.456336 
L 380.566116 140.55213 
L 388.252066 142.472954 
L 395.938017 143.88891 
L 403.623967 144.970951 
L 411.309917 147.121866 
L 418.995868 148.916853 
L 426.681818 149.874791 
L 434.367769 152.101739 
L 442.053719 154.260315 
L 449.739669 155.333414 
L 457.42562 157.555936 
L 465.11157 159.678442 
L 472.797521 161.095221 
L 480.483471 163.412527 
L 488.169421 165.429306 
L 495.855372 167.130695 
L 503.541322 169.609201 
L 511.227273 171.691082 
L 518.913223 173.466101 
L 526.599174 176.147513 
L 534.285124 178.511219 
L 541.971074 180.189691 
L 549.657025 182.990236 
L 557.342975 185.758239 
L 565.028926 187.454433 
L 572.714876 190.253387 
L 580.400826 193.126478 
L 588.086777 195.0901 
L 595.772727 197.961263 
L 603.458678 200.708888 
L 611.144628 202.989091 
L 618.830579 206.004379 
L 626.516529 208.751787 
L 634.202479 211.191126 
L 641.88843 214.384019 
L 649.57438 217.326642 
L 657.260331 219.732495 
L 664.946281 223.072284 
L 672.632231 226.410216 
L 680.318182 228.772282 
L 688.004132 232.127093 
L 695.690083 235.738612 
L 703.376033 238.276664 
L 711.061983 241.67345 
L 718.747934 245.200946 
L 726.433884 248.056912 
L 734.119835 251.598775 
L 741.805785 255.052712 
L 749.491736 258.151733 
L 757.177686 261.857279 
L 764.863636 265.428074 
L 772.549587 268.586964 
L 780.235537 272.444263 
L 787.921488 276.359374 
L 795.607438 279.462861 
L 803.293388 283.350094 
L 810.979339 287.687597 
L 818.665289 290.909827 
L 826.35124 294.768338 
L 834.03719 299.199397 
L 841.72314 302.68426 
L 849.409091 306.699991 
L 857.095041 310.983891 
L 864.780992 314.757042 
L 872.466942 318.977209 
L 880.152893 323.265483 
L 887.838843 327.239281 
L 895.524793 331.605232 
L 903.210744 336.1148 
L 910.896694 340.149102 
L 918.582645 344.543346 
L 926.268595 349.419736 
L 933.954545 353.855889 
" clip-path="url(#p294e5309c2)" style="fill: none; stroke: #e25508; stroke-width: 1.5; stroke-linecap: square"/>
   </g>
   <g id="line2d_29">
    <path d="M 173.045455 615.6 
L 180.731405 612.682118 
L 188.417355 609.886471 
L 196.103306 607.143645 
L 203.789256 604.431903 
L 211.475207 601.730712 
L 219.161157 599.036186 
L 226.847107 596.345431 
L 234.533058 593.651403 
L 242.219008 590.956025 
L 249.904959 588.260142 
L 257.590909 585.560936 
L 265.27686 582.854307 
L 272.96281 580.143601 
L 280.64876 577.431605 
L 288.334711 574.717162 
L 296.020661 571.995167 
L 303.706612 569.260409 
L 311.392562 566.519531 
L 319.078512 563.776916 
L 326.764463 561.030688 
L 334.450413 558.272745 
L 342.136364 555.497804 
L 349.822314 552.715979 
L 357.508264 549.931714 
L 365.194215 547.141498 
L 372.880165 544.334005 
L 380.566116 541.506726 
L 388.252066 538.671961 
L 395.938017 535.833099 
L 403.623967 532.984211 
L 411.309917 530.111687 
L 418.995868 527.220119 
L 426.681818 524.320038 
L 434.367769 521.411701 
L 442.053719 518.486112 
L 449.739669 515.533233 
L 457.42562 512.564117 
L 465.11157 509.583832 
L 472.797521 506.588944 
L 480.483471 503.568162 
L 488.169421 500.520978 
L 495.855372 497.457329 
L 503.541322 494.378742 
L 511.227273 491.27865 
L 518.913223 488.145359 
L 526.599174 484.985423 
L 534.285124 481.807293 
L 541.971074 478.610084 
L 549.657025 475.383892 
L 557.342975 472.117836 
L 565.028926 468.823941 
L 572.714876 465.509026 
L 580.400826 462.169437 
L 588.086777 458.791261 
L 595.772727 455.369543 
L 603.458678 451.918343 
L 611.144628 448.440996 
L 618.830579 444.930063 
L 626.516529 441.369988 
L 634.202479 437.766795 
L 641.88843 434.130464 
L 649.57438 430.459809 
L 657.260331 426.743423 
L 664.946281 422.97079 
L 672.632231 419.154128 
L 680.318182 415.298117 
L 688.004132 411.397516 
L 695.690083 407.437721 
L 703.376033 403.417001 
L 711.061983 399.347395 
L 718.747934 395.230456 
L 726.433884 391.057278 
L 734.119835 386.811206 
L 741.805785 382.497951 
L 749.491736 378.128607 
L 757.177686 373.702013 
L 764.863636 369.205288 
L 772.549587 364.621655 
L 780.235537 359.963695 
L 787.921488 355.239717 
L 795.607438 350.445113 
L 803.293388 345.562785 
L 810.979339 340.582061 
L 818.665289 335.518115 
L 826.35124 330.374312 
L 834.03719 325.142255 
L 841.72314 319.802911 
L 849.409091 314.356196 
L 857.095041 308.812783 
L 864.780992 303.171848 
L 872.466942 297.422733 
L 880.152893 291.54838 
L 887.838843 285.553759 
L 895.524793 279.444435 
L 903.210744 273.217594 
L 910.896694 266.863261 
L 918.582645 260.367686 
L 926.268595 253.73581 
L 933.954545 246.965215 
" clip-path="url(#p294e5309c2)" style="fill: none; stroke: #1764ab; stroke-width: 1.5; stroke-linecap: square"/>
   </g>
   <g id="line2d_30">
    <path d="M 173.045455 156.22457 
L 180.731405 140.239533 
L 188.417355 132.283526 
L 196.103306 128.135009 
L 203.789256 126.235844 
L 211.475207 125.235809 
L 219.161157 124.857979 
L 226.847107 124.920332 
L 234.533058 124.961111 
L 242.219008 125.139482 
L 249.904959 125.545748 
L 257.590909 126.010355 
L 265.27686 126.272425 
L 272.96281 126.601083 
L 280.64876 127.227105 
L 288.334711 128.101101 
L 296.020661 128.893457 
L 303.706612 129.268511 
L 311.392562 129.728164 
L 319.078512 130.612841 
L 326.764463 131.826707 
L 334.450413 132.839535 
L 342.136364 133.320164 
L 349.822314 134.001368 
L 357.508264 135.22333 
L 365.194215 136.783624 
L 372.880165 137.947428 
L 380.566116 138.583753 
L 388.252066 139.555186 
L 395.938017 141.125044 
L 403.623967 142.940108 
L 411.309917 144.140139 
L 418.995868 145.069669 
L 426.681818 146.448911 
L 434.367769 148.334739 
L 442.053719 150.193546 
L 449.739669 151.429964 
L 457.42562 152.786074 
L 465.11157 154.616222 
L 472.797521 156.75204 
L 480.483471 158.544074 
L 488.169421 160.012391 
L 495.855372 161.79802 
L 503.541322 164.036389 
L 511.227273 166.386987 
L 518.913223 168.212683 
L 526.599174 169.9505 
L 534.285124 172.127134 
L 541.971074 174.742462 
L 549.657025 177.291859 
L 557.342975 179.226281 
L 565.028926 181.265803 
L 572.714876 183.824748 
L 580.400826 186.763449 
L 588.086777 189.400775 
L 595.772727 191.545111 
L 603.458678 193.977613 
L 611.144628 196.919934 
L 618.830579 200.060972 
L 626.516529 202.692745 
L 634.202479 205.18446 
L 641.88843 208.068737 
L 649.57438 211.351847 
L 657.260331 214.568808 
L 664.946281 217.31042 
L 672.632231 220.201984 
L 680.318182 223.510071 
L 688.004132 227.076617 
L 695.690083 230.345068 
L 703.376033 233.330774 
L 711.061983 236.599612 
L 718.747934 240.283961 
L 726.433884 244.104823 
L 734.119835 247.48514 
L 741.805785 250.742689 
L 749.491736 254.363576 
L 757.177686 258.382241 
L 764.863636 262.412249 
L 772.549587 265.941231 
L 780.235537 269.510453 
L 787.921488 273.474773 
L 795.607438 277.764286 
L 803.293388 281.902602 
L 810.979339 285.64552 
L 818.665289 289.566081 
L 826.35124 293.846099 
L 834.03719 298.322309 
L 841.72314 302.521845 
L 849.409091 306.550857 
L 857.095041 310.796334 
L 864.780992 315.321232 
L 872.466942 319.929921 
L 880.152893 324.263833 
L 887.838843 328.558592 
L 895.524793 333.037111 
L 903.210744 337.716786 
L 910.896694 342.447132 
L 918.582645 346.991018 
L 926.268595 351.559234 
L 933.954545 356.184392 
" clip-path="url(#p294e5309c2)" style="fill: none; stroke: #c54102; stroke-width: 1.5; stroke-linecap: square"/>
   </g>
   <g id="line2d_31">
    <path d="M 173.045455 615.6 
L 180.731405 611.214896 
L 188.417355 608.134182 
L 196.103306 605.67729 
L 203.789256 603.620848 
L 211.475207 601.862597 
L 219.161157 600.344715 
L 226.847107 599.03081 
L 234.533058 597.896605 
L 242.219008 596.895076 
L 249.904959 596.032054 
L 257.590909 595.301187 
L 265.27686 594.638763 
L 272.96281 594.041027 
L 280.64876 593.547018 
L 288.334711 593.087189 
L 296.020661 592.666071 
L 303.706612 592.3217 
L 311.392562 591.981181 
L 319.078512 591.667619 
L 326.764463 591.422993 
L 334.450413 591.158595 
L 342.136364 590.907198 
L 349.822314 590.72971 
L 357.508264 590.512967 
L 365.194215 590.305791 
L 372.880165 590.166022 
L 380.566116 589.971514 
L 388.252066 589.807309 
L 395.938017 589.675442 
L 403.623967 589.49876 
L 411.309917 589.36775 
L 418.995868 589.228885 
L 426.681818 589.070946 
L 434.367769 588.960982 
L 442.053719 588.813087 
L 449.739669 588.664609 
L 457.42562 588.570311 
L 465.11157 588.406116 
L 472.797521 588.266926 
L 480.483471 588.169527 
L 488.169421 587.985762 
L 495.855372 587.860896 
L 503.541322 587.710131 
L 511.227273 587.533689 
L 518.913223 587.393392 
L 526.599174 587.186208 
L 534.285124 587.010509 
L 541.971074 586.800492 
L 549.657025 586.551264 
L 557.342975 586.337477 
L 565.028926 586.003669 
L 572.714876 585.69216 
L 580.400826 585.316797 
L 588.086777 584.811195 
L 595.772727 584.216566 
L 603.458678 583.393057 
L 611.144628 582.249049 
L 618.830579 580.376426 
L 626.516529 576.628696 
L 634.202479 566.152164 
L 641.88843 541.759538 
L 649.57438 510.507354 
L 657.260331 480.289747 
L 664.946281 452.998265 
L 672.632231 428.936759 
L 680.318182 408.01501 
L 688.004132 389.792826 
L 695.690083 374.02367 
L 703.376033 360.350512 
L 711.061983 348.44725 
L 718.747934 338.210592 
L 726.433884 329.405187 
L 734.119835 321.596055 
L 741.805785 314.712951 
L 749.491736 309.00634 
L 757.177686 304.06884 
L 764.863636 299.601198 
L 772.549587 295.896034 
L 780.235537 292.643606 
L 787.921488 289.753963 
L 795.607438 287.376842 
L 803.293388 285.248366 
L 810.979339 283.303529 
L 818.665289 281.800444 
L 826.35124 280.538677 
L 834.03719 279.148666 
L 841.72314 277.939533 
L 849.409091 277.248311 
L 857.095041 276.431484 
L 864.780992 275.706427 
L 872.466942 275.206059 
L 880.152893 274.650923 
L 887.838843 274.233334 
L 895.524793 273.906069 
L 903.210744 273.502746 
L 910.896694 273.200493 
L 918.582645 273.047694 
L 926.268595 272.773168 
L 933.954545 272.514944 
" clip-path="url(#p294e5309c2)" style="fill: none; stroke: #084a91; stroke-width: 1.5; stroke-linecap: square"/>
   </g>
   <g id="line2d_32">
    <path d="M 173.045455 156.22457 
L 180.731405 140.95661 
L 188.417355 135.715668 
L 196.103306 133.893783 
L 203.789256 133.281386 
L 211.475207 133.085585 
L 219.161157 133.009796 
L 226.847107 132.991633 
L 234.533058 133.080244 
L 242.219008 132.964415 
L 249.904959 133.022767 
L 257.590909 133.430825 
L 265.27686 133.519957 
L 272.96281 133.418424 
L 280.64876 133.845249 
L 288.334711 133.968545 
L 296.020661 133.956287 
L 303.706612 134.45136 
L 311.392562 134.509897 
L 319.078512 134.516527 
L 326.764463 135.143828 
L 334.450413 135.176654 
L 342.136364 135.105085 
L 349.822314 135.866219 
L 357.508264 135.870209 
L 365.194215 135.813786 
L 372.880165 136.578041 
L 380.566116 136.442035 
L 388.252066 136.613567 
L 395.938017 137.159868 
L 403.623967 136.993073 
L 411.309917 137.408451 
L 418.995868 137.668281 
L 426.681818 137.610366 
L 434.367769 138.215396 
L 442.053719 138.265899 
L 449.739669 138.290897 
L 457.42562 139.115464 
L 465.11157 138.957059 
L 472.797521 139.172389 
L 480.483471 140.055918 
L 488.169421 139.764371 
L 495.855372 140.383642 
L 503.541322 140.756692 
L 511.227273 140.88627 
L 518.913223 141.692088 
L 526.599174 141.749213 
L 534.285124 142.494145 
L 541.971074 143.062193 
L 549.657025 143.4409 
L 557.342975 144.824009 
L 565.028926 145.124922 
L 572.714876 146.564526 
L 580.400826 148.283713 
L 588.086777 149.776548 
L 595.772727 152.455199 
L 603.458678 155.861336 
L 611.144628 161.781768 
L 618.830579 171.871951 
L 626.516529 193.215097 
L 634.202479 236.679006 
L 641.88843 273.634826 
L 649.57438 287.96273 
L 657.260331 293.042573 
L 664.946281 294.808883 
L 672.632231 295.336221 
L 680.318182 295.610862 
L 688.004132 295.624774 
L 695.690083 295.693379 
L 703.376033 295.735025 
L 711.061983 295.634618 
L 718.747934 295.748765 
L 726.433884 296.020001 
L 734.119835 295.799272 
L 741.805785 295.308962 
L 749.491736 295.53601 
L 757.177686 295.762614 
L 764.863636 295.489667 
L 772.549587 295.662409 
L 780.235537 295.71061 
L 787.921488 295.575563 
L 795.607438 295.774752 
L 803.293388 295.777472 
L 810.979339 295.527959 
L 818.665289 295.771399 
L 826.35124 296.093488 
L 834.03719 295.614856 
L 841.72314 295.178009 
L 849.409091 295.704856 
L 857.095041 295.627484 
L 864.780992 295.511907 
L 872.466942 295.726794 
L 880.152893 295.612836 
L 887.838843 295.67014 
L 895.524793 295.806788 
L 903.210744 295.626481 
L 910.896694 295.586669 
L 918.582645 295.826725 
L 926.268595 295.680322 
L 933.954545 295.500335 
" clip-path="url(#p294e5309c2)" style="fill: none; stroke: #9e3303; stroke-width: 1.5; stroke-linecap: square"/>
   </g>
   <g id="line2d_33">
    <path d="M 173.045455 615.6 
L 180.731405 612.642551 
L 188.417355 609.720801 
L 196.103306 606.83113 
L 203.789256 603.969198 
L 211.475207 601.132979 
L 219.161157 598.32072 
L 226.847107 595.530625 
L 234.533058 592.760847 
L 242.219008 590.009493 
L 249.904959 587.274624 
L 257.590909 584.554252 
L 265.27686 581.846343 
L 272.96281 579.148815 
L 280.64876 576.45954 
L 288.334711 573.776343 
L 296.020661 571.096999 
L 303.706612 568.41924 
L 311.392562 565.74133 
L 319.078512 563.06292 
L 326.764463 560.383713 
L 334.450413 557.703303 
L 342.136364 555.021169 
L 349.822314 552.336677 
L 357.508264 549.649083 
L 365.194215 546.957528 
L 372.880165 544.261042 
L 380.566116 541.558544 
L 388.252066 538.848837 
L 395.938017 536.130614 
L 403.623967 533.402455 
L 411.309917 530.662829 
L 418.995868 527.910089 
L 426.681818 525.142479 
L 434.367769 522.358129 
L 442.053719 519.555181 
L 449.739669 516.733362 
L 457.42562 513.892767 
L 465.11157 511.033235 
L 472.797521 508.154483 
L 480.483471 505.256106 
L 488.169421 502.337579 
L 495.855372 499.398255 
L 503.541322 496.437366 
L 511.227273 493.454022 
L 518.913223 490.447213 
L 526.599174 487.415806 
L 534.285124 484.358548 
L 541.971074 481.274065 
L 549.657025 478.160859 
L 557.342975 475.017315 
L 565.028926 471.841693 
L 572.714876 468.632132 
L 580.400826 465.386653 
L 588.086777 462.103151 
L 595.772727 458.7795 
L 603.458678 455.415559 
L 611.144628 452.011067 
L 618.830579 448.565153 
L 626.516529 445.076848 
L 634.202479 441.545074 
L 641.88843 437.968654 
L 649.57438 434.346304 
L 657.260331 430.67664 
L 664.946281 426.958172 
L 672.632231 423.189307 
L 680.318182 419.368349 
L 688.004132 415.493498 
L 695.690083 411.562852 
L 703.376033 407.574403 
L 711.061983 403.526042 
L 718.747934 399.415555 
L 726.433884 395.240625 
L 734.119835 390.998832 
L 741.805785 386.687651 
L 749.491736 382.304455 
L 757.177686 377.846514 
L 764.863636 373.310993 
L 772.549587 368.69618 
L 780.235537 364.004373 
L 787.921488 359.232385 
L 795.607438 354.376371 
L 803.293388 349.43258 
L 810.979339 344.397355 
L 818.665289 339.267134 
L 826.35124 334.038449 
L 834.03719 328.707926 
L 841.72314 323.272284 
L 849.409091 317.728338 
L 857.095041 312.072997 
L 864.780992 306.303264 
L 872.466942 300.416236 
L 880.152893 294.409104 
L 887.838843 288.279153 
L 895.524793 282.023763 
L 903.210744 275.640409 
L 910.896694 269.126658 
L 918.582645 262.480173 
L 926.268595 255.698711 
L 933.954545 248.780122 
" clip-path="url(#p294e5309c2)" style="fill: none; stroke: #08306b; stroke-width: 1.5; stroke-linecap: square"/>
   </g>
   <g id="line2d_34">
    <path d="M 173.045455 156.22457 
L 180.731405 152.618865 
L 188.417355 149.286872 
L 196.103306 146.215741 
L 203.789256 143.387596 
L 211.475207 140.795429 
L 219.161157 138.433404 
L 226.847107 136.295252 
L 234.533058 134.374266 
L 242.219008 132.663303 
L 249.904959 131.154786 
L 257.590909 129.840702 
L 265.27686 128.712603 
L 272.96281 127.761602 
L 280.64876 126.978382 
L 288.334711 126.353185 
L 296.020661 125.87582 
L 303.706612 125.535662 
L 311.392562 125.323583 
L 319.078512 125.238572 
L 326.764463 125.281376 
L 334.450413 125.452139 
L 342.136364 125.750409 
L 349.822314 126.17513 
L 357.508264 126.724649 
L 365.194215 127.396714 
L 372.880165 128.188469 
L 380.566116 129.096463 
L 388.252066 130.116641 
L 395.938017 131.244352 
L 403.623967 132.474341 
L 411.309917 133.800756 
L 418.995868 135.217146 
L 426.681818 136.716456 
L 434.367769 138.291036 
L 442.053719 139.933452 
L 449.739669 141.64629 
L 457.42562 143.433608 
L 465.11157 145.297935 
L 472.797521 147.24128 
L 480.483471 149.26513 
L 488.169421 151.370452 
L 495.855372 153.557694 
L 503.541322 155.82678 
L 511.227273 158.177117 
L 518.913223 160.607588 
L 526.599174 163.116557 
L 534.285124 165.701868 
L 541.971074 168.360844 
L 549.657025 171.090286 
L 557.342975 173.886476 
L 565.028926 176.745175 
L 572.714876 179.661623 
L 580.400826 182.630538 
L 588.086777 185.646121 
L 595.772727 188.702725 
L 603.458678 191.808017 
L 611.144628 194.966906 
L 618.830579 198.180233 
L 626.516529 201.448619 
L 634.202479 204.772456 
L 641.88843 208.151918 
L 649.57438 211.586952 
L 657.260331 215.077281 
L 664.946281 218.622408 
L 672.632231 222.221609 
L 680.318182 225.873938 
L 688.004132 229.578225 
L 695.690083 233.333076 
L 703.376033 237.136874 
L 711.061983 240.987779 
L 718.747934 244.883727 
L 726.433884 248.82243 
L 734.119835 252.801376 
L 741.805785 256.81783 
L 749.491736 260.868836 
L 757.177686 264.951209 
L 764.863636 269.061545 
L 772.549587 273.200156 
L 780.235537 277.381014 
L 787.921488 281.601445 
L 795.607438 285.856768 
L 803.293388 290.142669 
L 810.979339 294.455198 
L 818.665289 298.790771 
L 826.35124 303.146166 
L 834.03719 307.518529 
L 841.72314 311.905367 
L 849.409091 316.304556 
L 857.095041 320.714332 
L 864.780992 325.133299 
L 872.466942 329.560426 
L 880.152893 333.995043 
L 887.838843 338.436848 
L 895.524793 342.885904 
L 903.210744 347.342635 
L 910.896694 351.807835 
L 918.582645 356.282657 
L 926.268595 360.768624 
L 933.954545 365.267619 
" clip-path="url(#p294e5309c2)" style="fill: none; stroke: #7f2704; stroke-width: 1.5; stroke-linecap: square"/>
   </g>
   <g id="patch_3">
    <path d="M 135 640.8 
L 135 86.4 
" style="fill: none; stroke: #000000; stroke-width: 0.8; stroke-linejoin: miter; stroke-linecap: square"/>
   </g>
   <g id="patch_4">
    <path d="M 972 640.8 
L 972 86.4 
" style="fill: none; stroke: #000000; stroke-width: 0.8; stroke-linejoin: miter; stroke-linecap: square"/>
   </g>
   <g id="patch_5">
    <path d="M 135 640.8 
L 972 640.8 
" style="fill: none; stroke: #000000; stroke-width: 0.8; stroke-linejoin: miter; stroke-linecap: square"/>
   </g>
   <g id="patch_6">
    <path d="M 135 86.4 
L 972 86.4 
" style="fill: none; stroke: #000000; stroke-width: 0.8; stroke-linejoin: miter; stroke-linecap: square"/>
   </g>
   <g id="legend_1">
    <g id="patch_7">
     <path d="M 803.813437 749.8375 
L 956.6 749.8375 
Q 961 749.8375 961 745.4375 
L 961 101.8 
Q 961 97.4 956.6 97.4 
L 803.813437 97.4 
Q 799.413437 97.4 799.413437 101.8 
L 799.413437 745.4375 
Q 799.413437 749.8375 803.813437 749.8375 
z
" style="fill: #ffffff; opacity: 0.8; stroke: #cccccc; stroke-linejoin: miter"/>
    </g>
    <g id="PathCollection_3">
     <g>
      <use xlink:href="#m80f1702e56" x="830.213437" y="117.141563" style="fill: #1f77b4; stroke: #1f77b4"/>
     </g>
    </g>
    <g id="text_19">
     <!-- Xi -->
     <g transform="translate(869.813437 122.916563) scale(0.22 -0.22)">
      <use xlink:href="#DejaVuSans-58"/>
      <use xlink:href="#DejaVuSans-69" x="68.505859"/>
     </g>
    </g>
    <g id="PathCollection_4">
     <g>
      <use xlink:href="#m62fcbac0dc" x="830.213437" y="149.433438" style="fill: #ff7f0e; stroke: #ff7f0e"/>
     </g>
    </g>
    <g id="text_20">
     <!-- Xa -->
     <g transform="translate(869.813437 155.208438) scale(0.22 -0.22)">
      <use xlink:href="#DejaVuSans-58"/>
      <use xlink:href="#DejaVuSans-61" x="68.505859"/>
     </g>
    </g>
    <g id="line2d_35">
     <path d="M 808.213437 179.800313 
L 830.213437 179.800313 
L 852.213437 179.800313 
" style="fill: none; stroke: #d0e1f2; stroke-width: 1.5; stroke-linecap: square"/>
    </g>
    <g id="text_21">
     <!-- Xi-IIAA -->
     <g transform="translate(869.813437 187.500313) scale(0.22 -0.22)">
      <defs>
       <path id="DejaVuSans-2d" d="M 313 2009 
L 1997 2009 
L 1997 1497 
L 313 1497 
L 313 2009 
z
" transform="scale(0.015625)"/>
       <path id="DejaVuSans-49" d="M 628 4666 
L 1259 4666 
L 1259 0 
L 628 0 
L 628 4666 
z
" transform="scale(0.015625)"/>
      </defs>
      <use xlink:href="#DejaVuSans-58"/>
      <use xlink:href="#DejaVuSans-69" x="68.505859"/>
      <use xlink:href="#DejaVuSans-2d" x="96.289062"/>
      <use xlink:href="#DejaVuSans-49" x="132.373047"/>
      <use xlink:href="#DejaVuSans-49" x="161.865234"/>
      <use xlink:href="#DejaVuSans-41" x="191.357422"/>
      <use xlink:href="#DejaVuSans-41" x="262.515625"/>
     </g>
    </g>
    <g id="line2d_36">
     <path d="M 808.213437 212.092188 
L 830.213437 212.092188 
L 852.213437 212.092188 
" style="fill: none; stroke: #fdd9b4; stroke-width: 1.5; stroke-linecap: square"/>
    </g>
    <g id="text_22">
     <!-- Xa-IIAA -->
     <g transform="translate(869.813437 219.792188) scale(0.22 -0.22)">
      <use xlink:href="#DejaVuSans-58"/>
      <use xlink:href="#DejaVuSans-61" x="68.505859"/>
      <use xlink:href="#DejaVuSans-2d" x="129.785156"/>
      <use xlink:href="#DejaVuSans-49" x="165.869141"/>
      <use xlink:href="#DejaVuSans-49" x="195.361328"/>
      <use xlink:href="#DejaVuSans-41" x="224.853516"/>
      <use xlink:href="#DejaVuSans-41" x="296.011719"/>
     </g>
    </g>
    <g id="line2d_37">
     <path d="M 808.213437 244.384063 
L 830.213437 244.384063 
L 852.213437 244.384063 
" style="fill: none; stroke: #b7d4ea; stroke-width: 1.5; stroke-linecap: square"/>
    </g>
    <g id="text_23">
     <!-- Xi-IIAI -->
     <g transform="translate(869.813437 252.084063) scale(0.22 -0.22)">
      <use xlink:href="#DejaVuSans-58"/>
      <use xlink:href="#DejaVuSans-69" x="68.505859"/>
      <use xlink:href="#DejaVuSans-2d" x="96.289062"/>
      <use xlink:href="#DejaVuSans-49" x="132.373047"/>
      <use xlink:href="#DejaVuSans-49" x="161.865234"/>
      <use xlink:href="#DejaVuSans-41" x="191.357422"/>
      <use xlink:href="#DejaVuSans-49" x="259.765625"/>
     </g>
    </g>
    <g id="line2d_38">
     <path d="M 808.213437 276.675938 
L 830.213437 276.675938 
L 852.213437 276.675938 
" style="fill: none; stroke: #fdc38d; stroke-width: 1.5; stroke-linecap: square"/>
    </g>
    <g id="text_24">
     <!-- Xa-IIAI -->
     <g transform="translate(869.813437 284.375938) scale(0.22 -0.22)">
      <use xlink:href="#DejaVuSans-58"/>
      <use xlink:href="#DejaVuSans-61" x="68.505859"/>
      <use xlink:href="#DejaVuSans-2d" x="129.785156"/>
      <use xlink:href="#DejaVuSans-49" x="165.869141"/>
      <use xlink:href="#DejaVuSans-49" x="195.361328"/>
      <use xlink:href="#DejaVuSans-41" x="224.853516"/>
      <use xlink:href="#DejaVuSans-49" x="293.261719"/>
     </g>
    </g>
    <g id="line2d_39">
     <path d="M 808.213437 308.967813 
L 830.213437 308.967813 
L 852.213437 308.967813 
" style="fill: none; stroke: #94c4df; stroke-width: 1.5; stroke-linecap: square"/>
    </g>
    <g id="text_25">
     <!-- Xi-IIAN -->
     <g transform="translate(869.813437 316.667813) scale(0.22 -0.22)">
      <defs>
       <path id="DejaVuSans-4e" d="M 628 4666 
L 1478 4666 
L 3547 763 
L 3547 4666 
L 4159 4666 
L 4159 0 
L 3309 0 
L 1241 3903 
L 1241 0 
L 628 0 
L 628 4666 
z
" transform="scale(0.015625)"/>
      </defs>
      <use xlink:href="#DejaVuSans-58"/>
      <use xlink:href="#DejaVuSans-69" x="68.505859"/>
      <use xlink:href="#DejaVuSans-2d" x="96.289062"/>
      <use xlink:href="#DejaVuSans-49" x="132.373047"/>
      <use xlink:href="#DejaVuSans-49" x="161.865234"/>
      <use xlink:href="#DejaVuSans-41" x="191.357422"/>
      <use xlink:href="#DejaVuSans-4e" x="259.765625"/>
     </g>
    </g>
    <g id="line2d_40">
     <path d="M 808.213437 341.259688 
L 830.213437 341.259688 
L 852.213437 341.259688 
" style="fill: none; stroke: #fda762; stroke-width: 1.5; stroke-linecap: square"/>
    </g>
    <g id="text_26">
     <!-- Xa-IIAN -->
     <g transform="translate(869.813437 348.959688) scale(0.22 -0.22)">
      <use xlink:href="#DejaVuSans-58"/>
      <use xlink:href="#DejaVuSans-61" x="68.505859"/>
      <use xlink:href="#DejaVuSans-2d" x="129.785156"/>
      <use xlink:href="#DejaVuSans-49" x="165.869141"/>
      <use xlink:href="#DejaVuSans-49" x="195.361328"/>
      <use xlink:href="#DejaVuSans-41" x="224.853516"/>
      <use xlink:href="#DejaVuSans-4e" x="293.261719"/>
     </g>
    </g>
    <g id="line2d_41">
     <path d="M 808.213437 373.551563 
L 830.213437 373.551563 
L 852.213437 373.551563 
" style="fill: none; stroke: #6aaed6; stroke-width: 1.5; stroke-linecap: square"/>
    </g>
    <g id="text_27">
     <!-- Xi-IIIA -->
     <g transform="translate(869.813437 381.251563) scale(0.22 -0.22)">
      <use xlink:href="#DejaVuSans-58"/>
      <use xlink:href="#DejaVuSans-69" x="68.505859"/>
      <use xlink:href="#DejaVuSans-2d" x="96.289062"/>
      <use xlink:href="#DejaVuSans-49" x="132.373047"/>
      <use xlink:href="#DejaVuSans-49" x="161.865234"/>
      <use xlink:href="#DejaVuSans-49" x="191.357422"/>
      <use xlink:href="#DejaVuSans-41" x="220.849609"/>
     </g>
    </g>
    <g id="line2d_42">
     <path d="M 808.213437 405.843438 
L 830.213437 405.843438 
L 852.213437 405.843438 
" style="fill: none; stroke: #fd8c3b; stroke-width: 1.5; stroke-linecap: square"/>
    </g>
    <g id="text_28">
     <!-- Xa-IIIA -->
     <g transform="translate(869.813437 413.543438) scale(0.22 -0.22)">
      <use xlink:href="#DejaVuSans-58"/>
      <use xlink:href="#DejaVuSans-61" x="68.505859"/>
      <use xlink:href="#DejaVuSans-2d" x="129.785156"/>
      <use xlink:href="#DejaVuSans-49" x="165.869141"/>
      <use xlink:href="#DejaVuSans-49" x="195.361328"/>
      <use xlink:href="#DejaVuSans-49" x="224.853516"/>
      <use xlink:href="#DejaVuSans-41" x="254.345703"/>
     </g>
    </g>
    <g id="line2d_43">
     <path d="M 808.213437 438.135313 
L 830.213437 438.135313 
L 852.213437 438.135313 
" style="fill: none; stroke: #4a98c9; stroke-width: 1.5; stroke-linecap: square"/>
    </g>
    <g id="text_29">
     <!-- Xi-IIII -->
     <g transform="translate(869.813437 445.835313) scale(0.22 -0.22)">
      <use xlink:href="#DejaVuSans-58"/>
      <use xlink:href="#DejaVuSans-69" x="68.505859"/>
      <use xlink:href="#DejaVuSans-2d" x="96.289062"/>
      <use xlink:href="#DejaVuSans-49" x="132.373047"/>
      <use xlink:href="#DejaVuSans-49" x="161.865234"/>
      <use xlink:href="#DejaVuSans-49" x="191.357422"/>
      <use xlink:href="#DejaVuSans-49" x="220.849609"/>
     </g>
    </g>
    <g id="line2d_44">
     <path d="M 808.213437 470.427188 
L 830.213437 470.427188 
L 852.213437 470.427188 
" style="fill: none; stroke: #f3701b; stroke-width: 1.5; stroke-linecap: square"/>
    </g>
    <g id="text_30">
     <!-- Xa-IIII -->
     <g transform="translate(869.813437 478.127188) scale(0.22 -0.22)">
      <use xlink:href="#DejaVuSans-58"/>
      <use xlink:href="#DejaVuSans-61" x="68.505859"/>
      <use xlink:href="#DejaVuSans-2d" x="129.785156"/>
      <use xlink:href="#DejaVuSans-49" x="165.869141"/>
      <use xlink:href="#DejaVuSans-49" x="195.361328"/>
      <use xlink:href="#DejaVuSans-49" x="224.853516"/>
      <use xlink:href="#DejaVuSans-49" x="254.345703"/>
     </g>
    </g>
    <g id="line2d_45">
     <path d="M 808.213437 502.719063 
L 830.213437 502.719063 
L 852.213437 502.719063 
" style="fill: none; stroke: #2e7ebc; stroke-width: 1.5; stroke-linecap: square"/>
    </g>
    <g id="text_31">
     <!-- Xi-IIIN -->
     <g transform="translate(869.813437 510.419063) scale(0.22 -0.22)">
      <use xlink:href="#DejaVuSans-58"/>
      <use xlink:href="#DejaVuSans-69" x="68.505859"/>
      <use xlink:href="#DejaVuSans-2d" x="96.289062"/>
      <use xlink:href="#DejaVuSans-49" x="132.373047"/>
      <use xlink:href="#DejaVuSans-49" x="161.865234"/>
      <use xlink:href="#DejaVuSans-49" x="191.357422"/>
      <use xlink:href="#DejaVuSans-4e" x="220.849609"/>
     </g>
    </g>
    <g id="line2d_46">
     <path d="M 808.213437 535.010938 
L 830.213437 535.010938 
L 852.213437 535.010938 
" style="fill: none; stroke: #e25508; stroke-width: 1.5; stroke-linecap: square"/>
    </g>
    <g id="text_32">
     <!-- Xa-IIIN -->
     <g transform="translate(869.813437 542.710938) scale(0.22 -0.22)">
      <use xlink:href="#DejaVuSans-58"/>
      <use xlink:href="#DejaVuSans-61" x="68.505859"/>
      <use xlink:href="#DejaVuSans-2d" x="129.785156"/>
      <use xlink:href="#DejaVuSans-49" x="165.869141"/>
      <use xlink:href="#DejaVuSans-49" x="195.361328"/>
      <use xlink:href="#DejaVuSans-49" x="224.853516"/>
      <use xlink:href="#DejaVuSans-4e" x="254.345703"/>
     </g>
    </g>
    <g id="line2d_47">
     <path d="M 808.213437 567.302813 
L 830.213437 567.302813 
L 852.213437 567.302813 
" style="fill: none; stroke: #1764ab; stroke-width: 1.5; stroke-linecap: square"/>
    </g>
    <g id="text_33">
     <!-- Xi-IINA -->
     <g transform="translate(869.813437 575.002813) scale(0.22 -0.22)">
      <use xlink:href="#DejaVuSans-58"/>
      <use xlink:href="#DejaVuSans-69" x="68.505859"/>
      <use xlink:href="#DejaVuSans-2d" x="96.289062"/>
      <use xlink:href="#DejaVuSans-49" x="132.373047"/>
      <use xlink:href="#DejaVuSans-49" x="161.865234"/>
      <use xlink:href="#DejaVuSans-4e" x="191.357422"/>
      <use xlink:href="#DejaVuSans-41" x="266.162109"/>
     </g>
    </g>
    <g id="line2d_48">
     <path d="M 808.213437 599.594688 
L 830.213437 599.594688 
L 852.213437 599.594688 
" style="fill: none; stroke: #c54102; stroke-width: 1.5; stroke-linecap: square"/>
    </g>
    <g id="text_34">
     <!-- Xa-IINA -->
     <g transform="translate(869.813437 607.294688) scale(0.22 -0.22)">
      <use xlink:href="#DejaVuSans-58"/>
      <use xlink:href="#DejaVuSans-61" x="68.505859"/>
      <use xlink:href="#DejaVuSans-2d" x="129.785156"/>
      <use xlink:href="#DejaVuSans-49" x="165.869141"/>
      <use xlink:href="#DejaVuSans-49" x="195.361328"/>
      <use xlink:href="#DejaVuSans-4e" x="224.853516"/>
      <use xlink:href="#DejaVuSans-41" x="299.658203"/>
     </g>
    </g>
    <g id="line2d_49">
     <path d="M 808.213437 631.886563 
L 830.213437 631.886563 
L 852.213437 631.886563 
" style="fill: none; stroke: #084a91; stroke-width: 1.5; stroke-linecap: square"/>
    </g>
    <g id="text_35">
     <!-- Xi-IINI -->
     <g transform="translate(869.813437 639.586563) scale(0.22 -0.22)">
      <use xlink:href="#DejaVuSans-58"/>
      <use xlink:href="#DejaVuSans-69" x="68.505859"/>
      <use xlink:href="#DejaVuSans-2d" x="96.289062"/>
      <use xlink:href="#DejaVuSans-49" x="132.373047"/>
      <use xlink:href="#DejaVuSans-49" x="161.865234"/>
      <use xlink:href="#DejaVuSans-4e" x="191.357422"/>
      <use xlink:href="#DejaVuSans-49" x="266.162109"/>
     </g>
    </g>
    <g id="line2d_50">
     <path d="M 808.213437 664.178438 
L 830.213437 664.178438 
L 852.213437 664.178438 
" style="fill: none; stroke: #9e3303; stroke-width: 1.5; stroke-linecap: square"/>
    </g>
    <g id="text_36">
     <!-- Xa-IINI -->
     <g transform="translate(869.813437 671.878438) scale(0.22 -0.22)">
      <use xlink:href="#DejaVuSans-58"/>
      <use xlink:href="#DejaVuSans-61" x="68.505859"/>
      <use xlink:href="#DejaVuSans-2d" x="129.785156"/>
      <use xlink:href="#DejaVuSans-49" x="165.869141"/>
      <use xlink:href="#DejaVuSans-49" x="195.361328"/>
      <use xlink:href="#DejaVuSans-4e" x="224.853516"/>
      <use xlink:href="#DejaVuSans-49" x="299.658203"/>
     </g>
    </g>
    <g id="line2d_51">
     <path d="M 808.213437 696.470313 
L 830.213437 696.470313 
L 852.213437 696.470313 
" style="fill: none; stroke: #08306b; stroke-width: 1.5; stroke-linecap: square"/>
    </g>
    <g id="text_37">
     <!-- Xi-IINN -->
     <g transform="translate(869.813437 704.170313) scale(0.22 -0.22)">
      <use xlink:href="#DejaVuSans-58"/>
      <use xlink:href="#DejaVuSans-69" x="68.505859"/>
      <use xlink:href="#DejaVuSans-2d" x="96.289062"/>
      <use xlink:href="#DejaVuSans-49" x="132.373047"/>
      <use xlink:href="#DejaVuSans-49" x="161.865234"/>
      <use xlink:href="#DejaVuSans-4e" x="191.357422"/>
      <use xlink:href="#DejaVuSans-4e" x="266.162109"/>
     </g>
    </g>
    <g id="line2d_52">
     <path style="fill: none; stroke: #7f2704; stroke-width: 1.5; stroke-linecap: square"/>
    </g>
    <g id="text_38">
     <!-- Xa-IINN -->
     <g transform="translate(869.813437 736.462188) scale(0.22 -0.22)">
      <use xlink:href="#DejaVuSans-58"/>
      <use xlink:href="#DejaVuSans-61" x="68.505859"/>
      <use xlink:href="#DejaVuSans-2d" x="129.785156"/>
      <use xlink:href="#DejaVuSans-49" x="165.869141"/>
      <use xlink:href="#DejaVuSans-49" x="195.361328"/>
      <use xlink:href="#DejaVuSans-4e" x="224.853516"/>
      <use xlink:href="#DejaVuSans-4e" x="299.658203"/>
     </g>
    </g>
   </g>
  </g>
 </g>
 <defs>
  <clipPath id="p294e5309c2">
   <rect x="135" y="86.4" width="837" height="554.4"/>
  </clipPath>
 </defs>
</svg>
