<?xml version="1.0" encoding="utf-8" standalone="no"?>
<!DOCTYPE svg PUBLIC "-//W3C//DTD SVG 1.1//EN"
  "http://www.w3.org/Graphics/SVG/1.1/DTD/svg11.dtd">
<svg xmlns:xlink="http://www.w3.org/1999/xlink" width="1080pt" height="720pt" viewBox="0 0 1080 720" xmlns="http://www.w3.org/2000/svg" version="1.1">
 <metadata>
  <rdf:RDF xmlns:dc="http://purl.org/dc/elements/1.1/" xmlns:cc="http://creativecommons.org/ns#" xmlns:rdf="http://www.w3.org/1999/02/22-rdf-syntax-ns#">
   <cc:Work>
    <dc:type rdf:resource="http://purl.org/dc/dcmitype/StillImage"/>
    <dc:date>2023-02-17T15:04:31.574482</dc:date>
    <dc:format>image/svg+xml</dc:format>
    <dc:creator>
     <cc:Agent>
      <dc:title>Matplotlib v3.6.2, https://matplotlib.org/</dc:title>
     </cc:Agent>
    </dc:creator>
   </cc:Work>
  </rdf:RDF>
 </metadata>
 <defs>
  <style type="text/css">*{stroke-linejoin: round; stroke-linecap: butt}</style>
 </defs>
 <g id="figure_1">
  <g id="patch_1">
   <path d="M 0 720 
L 1080 720 
L 1080 0 
L 0 0 
z
" style="fill: #ffffff"/>
  </g>
  <g id="axes_1">
   <g id="patch_2">
    <path d="M 104.42 643.48 
L 868.03 643.48 
L 868.03 23.76 
L 104.42 23.76 
z
" style="fill: #ffffff"/>
   </g>
   <g id="PathCollection_1">
    <defs>
     <path id="m80f1702e56" d="M 0 3 
C 0.795609 3 1.55874 2.683901 2.12132 2.12132 
C 2.683901 1.55874 3 0.795609 3 0 
C 3 -0.795609 2.683901 -1.55874 2.12132 -2.12132 
C 1.55874 -2.683901 0.795609 -3 0 -3 
C -0.795609 -3 -1.55874 -2.683901 -2.12132 -2.12132 
C -2.683901 -1.55874 -3 -0.795609 -3 0 
C -3 0.795609 -2.683901 1.55874 -2.12132 2.12132 
C -1.55874 2.683901 -0.795609 3 0 3 
z
" style="stroke: #1f77b4"/>
    </defs>
    <g clip-path="url(#p717cfecda9)">
     <use xlink:href="#m80f1702e56" x="139.129545" y="615.310909" style="fill: #1f77b4; stroke: #1f77b4"/>
     <use xlink:href="#m80f1702e56" x="225.903409" y="521.608891" style="fill: #1f77b4; stroke: #1f77b4"/>
     <use xlink:href="#m80f1702e56" x="312.677273" y="501.72945" style="fill: #1f77b4; stroke: #1f77b4"/>
     <use xlink:href="#m80f1702e56" x="399.451136" y="437.604419" style="fill: #1f77b4; stroke: #1f77b4"/>
     <use xlink:href="#m80f1702e56" x="486.225" y="392.867232" style="fill: #1f77b4; stroke: #1f77b4"/>
     <use xlink:href="#m80f1702e56" x="572.998864" y="348.130046" style="fill: #1f77b4; stroke: #1f77b4"/>
     <use xlink:href="#m80f1702e56" x="659.772727" y="255.476363" style="fill: #1f77b4; stroke: #1f77b4"/>
     <use xlink:href="#m80f1702e56" x="746.546591" y="255.476363" style="fill: #1f77b4; stroke: #1f77b4"/>
     <use xlink:href="#m80f1702e56" x="833.320455" y="255.476363" style="fill: #1f77b4; stroke: #1f77b4"/>
    </g>
   </g>
   <g id="PathCollection_2">
    <defs>
     <path id="m62fcbac0dc" d="M 0 3 
C 0.795609 3 1.55874 2.683901 2.12132 2.12132 
C 2.683901 1.55874 3 0.795609 3 0 
C 3 -0.795609 2.683901 -1.55874 2.12132 -2.12132 
C 1.55874 -2.683901 0.795609 -3 0 -3 
C -0.795609 -3 -1.55874 -2.683901 -2.12132 -2.12132 
C -2.683901 -1.55874 -3 -0.795609 -3 0 
C -3 0.795609 -2.683901 1.55874 -2.12132 2.12132 
C -1.55874 2.683901 -0.795609 3 0 3 
z
" style="stroke: #ff7f0e"/>
    </defs>
    <g clip-path="url(#p717cfecda9)">
     <use xlink:href="#m62fcbac0dc" x="139.129545" y="119.790519" style="fill: #ff7f0e; stroke: #ff7f0e"/>
     <use xlink:href="#m62fcbac0dc" x="225.903409" y="51.929091" style="fill: #ff7f0e; stroke: #ff7f0e"/>
     <use xlink:href="#m62fcbac0dc" x="312.677273" y="153.461662" style="fill: #ff7f0e; stroke: #ff7f0e"/>
     <use xlink:href="#m62fcbac0dc" x="399.451136" y="201.783379" style="fill: #ff7f0e; stroke: #ff7f0e"/>
     <use xlink:href="#m62fcbac0dc" x="486.225" y="221.140446" style="fill: #ff7f0e; stroke: #ff7f0e"/>
     <use xlink:href="#m62fcbac0dc" x="572.998864" y="240.497513" style="fill: #ff7f0e; stroke: #ff7f0e"/>
     <use xlink:href="#m62fcbac0dc" x="659.772727" y="283.214431" style="fill: #ff7f0e; stroke: #ff7f0e"/>
     <use xlink:href="#m62fcbac0dc" x="746.546591" y="283.214431" style="fill: #ff7f0e; stroke: #ff7f0e"/>
     <use xlink:href="#m62fcbac0dc" x="833.320455" y="283.214431" style="fill: #ff7f0e; stroke: #ff7f0e"/>
    </g>
   </g>
   <g id="matplotlib.axis_1">
    <g id="xtick_1">
     <g id="line2d_1">
      <defs>
       <path id="m3385fdae1e" d="M 0 0 
L 0 3.5 
" style="stroke: #000000; stroke-width: 0.8"/>
      </defs>
      <g>
       <use xlink:href="#m3385fdae1e" x="139.129545" y="643.48" style="stroke: #000000; stroke-width: 0.8"/>
      </g>
     </g>
     <g id="text_1">
      <!-- 7 -->
      <g transform="translate(132.130795 667.196563) scale(0.22 -0.22)">
       <defs>
        <path id="DejaVuSans-37" d="M 525 4666 
L 3525 4666 
L 3525 4397 
L 1831 0 
L 1172 0 
L 2766 4134 
L 525 4134 
L 525 4666 
z
" transform="scale(0.015625)"/>
       </defs>
       <use xlink:href="#DejaVuSans-37"/>
      </g>
     </g>
    </g>
    <g id="xtick_2">
     <g id="line2d_2">
      <g>
       <use xlink:href="#m3385fdae1e" x="225.903409" y="643.48" style="stroke: #000000; stroke-width: 0.8"/>
      </g>
     </g>
     <g id="text_2">
      <!-- 8 -->
      <g transform="translate(218.904659 667.196563) scale(0.22 -0.22)">
       <defs>
        <path id="DejaVuSans-38" d="M 2034 2216 
Q 1584 2216 1326 1975 
Q 1069 1734 1069 1313 
Q 1069 891 1326 650 
Q 1584 409 2034 409 
Q 2484 409 2743 651 
Q 3003 894 3003 1313 
Q 3003 1734 2745 1975 
Q 2488 2216 2034 2216 
z
M 1403 2484 
Q 997 2584 770 2862 
Q 544 3141 544 3541 
Q 544 4100 942 4425 
Q 1341 4750 2034 4750 
Q 2731 4750 3128 4425 
Q 3525 4100 3525 3541 
Q 3525 3141 3298 2862 
Q 3072 2584 2669 2484 
Q 3125 2378 3379 2068 
Q 3634 1759 3634 1313 
Q 3634 634 3220 271 
Q 2806 -91 2034 -91 
Q 1263 -91 848 271 
Q 434 634 434 1313 
Q 434 1759 690 2068 
Q 947 2378 1403 2484 
z
M 1172 3481 
Q 1172 3119 1398 2916 
Q 1625 2713 2034 2713 
Q 2441 2713 2670 2916 
Q 2900 3119 2900 3481 
Q 2900 3844 2670 4047 
Q 2441 4250 2034 4250 
Q 1625 4250 1398 4047 
Q 1172 3844 1172 3481 
z
" transform="scale(0.015625)"/>
       </defs>
       <use xlink:href="#DejaVuSans-38"/>
      </g>
     </g>
    </g>
    <g id="xtick_3">
     <g id="line2d_3">
      <g>
       <use xlink:href="#m3385fdae1e" x="312.677273" y="643.48" style="stroke: #000000; stroke-width: 0.8"/>
      </g>
     </g>
     <g id="text_3">
      <!-- 9 -->
      <g transform="translate(305.678523 667.196563) scale(0.22 -0.22)">
       <defs>
        <path id="DejaVuSans-39" d="M 703 97 
L 703 672 
Q 941 559 1184 500 
Q 1428 441 1663 441 
Q 2288 441 2617 861 
Q 2947 1281 2994 2138 
Q 2813 1869 2534 1725 
Q 2256 1581 1919 1581 
Q 1219 1581 811 2004 
Q 403 2428 403 3163 
Q 403 3881 828 4315 
Q 1253 4750 1959 4750 
Q 2769 4750 3195 4129 
Q 3622 3509 3622 2328 
Q 3622 1225 3098 567 
Q 2575 -91 1691 -91 
Q 1453 -91 1209 -44 
Q 966 3 703 97 
z
M 1959 2075 
Q 2384 2075 2632 2365 
Q 2881 2656 2881 3163 
Q 2881 3666 2632 3958 
Q 2384 4250 1959 4250 
Q 1534 4250 1286 3958 
Q 1038 3666 1038 3163 
Q 1038 2656 1286 2365 
Q 1534 2075 1959 2075 
z
" transform="scale(0.015625)"/>
       </defs>
       <use xlink:href="#DejaVuSans-39"/>
      </g>
     </g>
    </g>
    <g id="xtick_4">
     <g id="line2d_4">
      <g>
       <use xlink:href="#m3385fdae1e" x="399.451136" y="643.48" style="stroke: #000000; stroke-width: 0.8"/>
      </g>
     </g>
     <g id="text_4">
      <!-- 10 -->
      <g transform="translate(385.453636 667.196563) scale(0.22 -0.22)">
       <defs>
        <path id="DejaVuSans-31" d="M 794 531 
L 1825 531 
L 1825 4091 
L 703 3866 
L 703 4441 
L 1819 4666 
L 2450 4666 
L 2450 531 
L 3481 531 
L 3481 0 
L 794 0 
L 794 531 
z
" transform="scale(0.015625)"/>
        <path id="DejaVuSans-30" d="M 2034 4250 
Q 1547 4250 1301 3770 
Q 1056 3291 1056 2328 
Q 1056 1369 1301 889 
Q 1547 409 2034 409 
Q 2525 409 2770 889 
Q 3016 1369 3016 2328 
Q 3016 3291 2770 3770 
Q 2525 4250 2034 4250 
z
M 2034 4750 
Q 2819 4750 3233 4129 
Q 3647 3509 3647 2328 
Q 3647 1150 3233 529 
Q 2819 -91 2034 -91 
Q 1250 -91 836 529 
Q 422 1150 422 2328 
Q 422 3509 836 4129 
Q 1250 4750 2034 4750 
z
" transform="scale(0.015625)"/>
       </defs>
       <use xlink:href="#DejaVuSans-31"/>
       <use xlink:href="#DejaVuSans-30" x="63.623047"/>
      </g>
     </g>
    </g>
    <g id="xtick_5">
     <g id="line2d_5">
      <g>
       <use xlink:href="#m3385fdae1e" x="486.225" y="643.48" style="stroke: #000000; stroke-width: 0.8"/>
      </g>
     </g>
     <g id="text_5">
      <!-- 11 -->
      <g transform="translate(472.2275 667.196563) scale(0.22 -0.22)">
       <use xlink:href="#DejaVuSans-31"/>
       <use xlink:href="#DejaVuSans-31" x="63.623047"/>
      </g>
     </g>
    </g>
    <g id="xtick_6">
     <g id="line2d_6">
      <g>
       <use xlink:href="#m3385fdae1e" x="572.998864" y="643.48" style="stroke: #000000; stroke-width: 0.8"/>
      </g>
     </g>
     <g id="text_6">
      <!-- 12 -->
      <g transform="translate(559.001364 667.196563) scale(0.22 -0.22)">
       <defs>
        <path id="DejaVuSans-32" d="M 1228 531 
L 3431 531 
L 3431 0 
L 469 0 
L 469 531 
Q 828 903 1448 1529 
Q 2069 2156 2228 2338 
Q 2531 2678 2651 2914 
Q 2772 3150 2772 3378 
Q 2772 3750 2511 3984 
Q 2250 4219 1831 4219 
Q 1534 4219 1204 4116 
Q 875 4013 500 3803 
L 500 4441 
Q 881 4594 1212 4672 
Q 1544 4750 1819 4750 
Q 2544 4750 2975 4387 
Q 3406 4025 3406 3419 
Q 3406 3131 3298 2873 
Q 3191 2616 2906 2266 
Q 2828 2175 2409 1742 
Q 1991 1309 1228 531 
z
" transform="scale(0.015625)"/>
       </defs>
       <use xlink:href="#DejaVuSans-31"/>
       <use xlink:href="#DejaVuSans-32" x="63.623047"/>
      </g>
     </g>
    </g>
    <g id="xtick_7">
     <g id="line2d_7">
      <g>
       <use xlink:href="#m3385fdae1e" x="659.772727" y="643.48" style="stroke: #000000; stroke-width: 0.8"/>
      </g>
     </g>
     <g id="text_7">
      <!-- 13 -->
      <g transform="translate(645.775227 667.196563) scale(0.22 -0.22)">
       <defs>
        <path id="DejaVuSans-33" d="M 2597 2516 
Q 3050 2419 3304 2112 
Q 3559 1806 3559 1356 
Q 3559 666 3084 287 
Q 2609 -91 1734 -91 
Q 1441 -91 1130 -33 
Q 819 25 488 141 
L 488 750 
Q 750 597 1062 519 
Q 1375 441 1716 441 
Q 2309 441 2620 675 
Q 2931 909 2931 1356 
Q 2931 1769 2642 2001 
Q 2353 2234 1838 2234 
L 1294 2234 
L 1294 2753 
L 1863 2753 
Q 2328 2753 2575 2939 
Q 2822 3125 2822 3475 
Q 2822 3834 2567 4026 
Q 2313 4219 1838 4219 
Q 1578 4219 1281 4162 
Q 984 4106 628 3988 
L 628 4550 
Q 988 4650 1302 4700 
Q 1616 4750 1894 4750 
Q 2613 4750 3031 4423 
Q 3450 4097 3450 3541 
Q 3450 3153 3228 2886 
Q 3006 2619 2597 2516 
z
" transform="scale(0.015625)"/>
       </defs>
       <use xlink:href="#DejaVuSans-31"/>
       <use xlink:href="#DejaVuSans-33" x="63.623047"/>
      </g>
     </g>
    </g>
    <g id="xtick_8">
     <g id="line2d_8">
      <g>
       <use xlink:href="#m3385fdae1e" x="746.546591" y="643.48" style="stroke: #000000; stroke-width: 0.8"/>
      </g>
     </g>
     <g id="text_8">
      <!-- 14 -->
      <g transform="translate(732.549091 667.196563) scale(0.22 -0.22)">
       <defs>
        <path id="DejaVuSans-34" d="M 2419 4116 
L 825 1625 
L 2419 1625 
L 2419 4116 
z
M 2253 4666 
L 3047 4666 
L 3047 1625 
L 3713 1625 
L 3713 1100 
L 3047 1100 
L 3047 0 
L 2419 0 
L 2419 1100 
L 313 1100 
L 313 1709 
L 2253 4666 
z
" transform="scale(0.015625)"/>
       </defs>
       <use xlink:href="#DejaVuSans-31"/>
       <use xlink:href="#DejaVuSans-34" x="63.623047"/>
      </g>
     </g>
    </g>
    <g id="xtick_9">
     <g id="line2d_9">
      <g>
       <use xlink:href="#m3385fdae1e" x="833.320455" y="643.48" style="stroke: #000000; stroke-width: 0.8"/>
      </g>
     </g>
     <g id="text_9">
      <!-- 15 -->
      <g transform="translate(819.322955 667.196563) scale(0.22 -0.22)">
       <defs>
        <path id="DejaVuSans-35" d="M 691 4666 
L 3169 4666 
L 3169 4134 
L 1269 4134 
L 1269 2991 
Q 1406 3038 1543 3061 
Q 1681 3084 1819 3084 
Q 2600 3084 3056 2656 
Q 3513 2228 3513 1497 
Q 3513 744 3044 326 
Q 2575 -91 1722 -91 
Q 1428 -91 1123 -41 
Q 819 9 494 109 
L 494 744 
Q 775 591 1075 516 
Q 1375 441 1709 441 
Q 2250 441 2565 725 
Q 2881 1009 2881 1497 
Q 2881 1984 2565 2268 
Q 2250 2553 1709 2553 
Q 1456 2553 1204 2497 
Q 953 2441 691 2322 
L 691 4666 
z
" transform="scale(0.015625)"/>
       </defs>
       <use xlink:href="#DejaVuSans-31"/>
       <use xlink:href="#DejaVuSans-35" x="63.623047"/>
      </g>
     </g>
    </g>
    <g id="text_10">
     <!-- Time (days) -->
     <g transform="translate(421.266562 692.488438) scale(0.22 -0.22)">
      <defs>
       <path id="DejaVuSans-54" d="M -19 4666 
L 3928 4666 
L 3928 4134 
L 2272 4134 
L 2272 0 
L 1638 0 
L 1638 4134 
L -19 4134 
L -19 4666 
z
" transform="scale(0.015625)"/>
       <path id="DejaVuSans-69" d="M 603 3500 
L 1178 3500 
L 1178 0 
L 603 0 
L 603 3500 
z
M 603 4863 
L 1178 4863 
L 1178 4134 
L 603 4134 
L 603 4863 
z
" transform="scale(0.015625)"/>
       <path id="DejaVuSans-6d" d="M 3328 2828 
Q 3544 3216 3844 3400 
Q 4144 3584 4550 3584 
Q 5097 3584 5394 3201 
Q 5691 2819 5691 2113 
L 5691 0 
L 5113 0 
L 5113 2094 
Q 5113 2597 4934 2840 
Q 4756 3084 4391 3084 
Q 3944 3084 3684 2787 
Q 3425 2491 3425 1978 
L 3425 0 
L 2847 0 
L 2847 2094 
Q 2847 2600 2669 2842 
Q 2491 3084 2119 3084 
Q 1678 3084 1418 2786 
Q 1159 2488 1159 1978 
L 1159 0 
L 581 0 
L 581 3500 
L 1159 3500 
L 1159 2956 
Q 1356 3278 1631 3431 
Q 1906 3584 2284 3584 
Q 2666 3584 2933 3390 
Q 3200 3197 3328 2828 
z
" transform="scale(0.015625)"/>
       <path id="DejaVuSans-65" d="M 3597 1894 
L 3597 1613 
L 953 1613 
Q 991 1019 1311 708 
Q 1631 397 2203 397 
Q 2534 397 2845 478 
Q 3156 559 3463 722 
L 3463 178 
Q 3153 47 2828 -22 
Q 2503 -91 2169 -91 
Q 1331 -91 842 396 
Q 353 884 353 1716 
Q 353 2575 817 3079 
Q 1281 3584 2069 3584 
Q 2775 3584 3186 3129 
Q 3597 2675 3597 1894 
z
M 3022 2063 
Q 3016 2534 2758 2815 
Q 2500 3097 2075 3097 
Q 1594 3097 1305 2825 
Q 1016 2553 972 2059 
L 3022 2063 
z
" transform="scale(0.015625)"/>
       <path id="DejaVuSans-20" transform="scale(0.015625)"/>
       <path id="DejaVuSans-28" d="M 1984 4856 
Q 1566 4138 1362 3434 
Q 1159 2731 1159 2009 
Q 1159 1288 1364 580 
Q 1569 -128 1984 -844 
L 1484 -844 
Q 1016 -109 783 600 
Q 550 1309 550 2009 
Q 550 2706 781 3412 
Q 1013 4119 1484 4856 
L 1984 4856 
z
" transform="scale(0.015625)"/>
       <path id="DejaVuSans-64" d="M 2906 2969 
L 2906 4863 
L 3481 4863 
L 3481 0 
L 2906 0 
L 2906 525 
Q 2725 213 2448 61 
Q 2172 -91 1784 -91 
Q 1150 -91 751 415 
Q 353 922 353 1747 
Q 353 2572 751 3078 
Q 1150 3584 1784 3584 
Q 2172 3584 2448 3432 
Q 2725 3281 2906 2969 
z
M 947 1747 
Q 947 1113 1208 752 
Q 1469 391 1925 391 
Q 2381 391 2643 752 
Q 2906 1113 2906 1747 
Q 2906 2381 2643 2742 
Q 2381 3103 1925 3103 
Q 1469 3103 1208 2742 
Q 947 2381 947 1747 
z
" transform="scale(0.015625)"/>
       <path id="DejaVuSans-61" d="M 2194 1759 
Q 1497 1759 1228 1600 
Q 959 1441 959 1056 
Q 959 750 1161 570 
Q 1363 391 1709 391 
Q 2188 391 2477 730 
Q 2766 1069 2766 1631 
L 2766 1759 
L 2194 1759 
z
M 3341 1997 
L 3341 0 
L 2766 0 
L 2766 531 
Q 2569 213 2275 61 
Q 1981 -91 1556 -91 
Q 1019 -91 701 211 
Q 384 513 384 1019 
Q 384 1609 779 1909 
Q 1175 2209 1959 2209 
L 2766 2209 
L 2766 2266 
Q 2766 2663 2505 2880 
Q 2244 3097 1772 3097 
Q 1472 3097 1187 3025 
Q 903 2953 641 2809 
L 641 3341 
Q 956 3463 1253 3523 
Q 1550 3584 1831 3584 
Q 2591 3584 2966 3190 
Q 3341 2797 3341 1997 
z
" transform="scale(0.015625)"/>
       <path id="DejaVuSans-79" d="M 2059 -325 
Q 1816 -950 1584 -1140 
Q 1353 -1331 966 -1331 
L 506 -1331 
L 506 -850 
L 844 -850 
Q 1081 -850 1212 -737 
Q 1344 -625 1503 -206 
L 1606 56 
L 191 3500 
L 800 3500 
L 1894 763 
L 2988 3500 
L 3597 3500 
L 2059 -325 
z
" transform="scale(0.015625)"/>
       <path id="DejaVuSans-73" d="M 2834 3397 
L 2834 2853 
Q 2591 2978 2328 3040 
Q 2066 3103 1784 3103 
Q 1356 3103 1142 2972 
Q 928 2841 928 2578 
Q 928 2378 1081 2264 
Q 1234 2150 1697 2047 
L 1894 2003 
Q 2506 1872 2764 1633 
Q 3022 1394 3022 966 
Q 3022 478 2636 193 
Q 2250 -91 1575 -91 
Q 1294 -91 989 -36 
Q 684 19 347 128 
L 347 722 
Q 666 556 975 473 
Q 1284 391 1588 391 
Q 1994 391 2212 530 
Q 2431 669 2431 922 
Q 2431 1156 2273 1281 
Q 2116 1406 1581 1522 
L 1381 1569 
Q 847 1681 609 1914 
Q 372 2147 372 2553 
Q 372 3047 722 3315 
Q 1072 3584 1716 3584 
Q 2034 3584 2315 3537 
Q 2597 3491 2834 3397 
z
" transform="scale(0.015625)"/>
       <path id="DejaVuSans-29" d="M 513 4856 
L 1013 4856 
Q 1481 4119 1714 3412 
Q 1947 2706 1947 2009 
Q 1947 1309 1714 600 
Q 1481 -109 1013 -844 
L 513 -844 
Q 928 -128 1133 580 
Q 1338 1288 1338 2009 
Q 1338 2731 1133 3434 
Q 928 4138 513 4856 
z
" transform="scale(0.015625)"/>
      </defs>
      <use xlink:href="#DejaVuSans-54"/>
      <use xlink:href="#DejaVuSans-69" x="57.958984"/>
      <use xlink:href="#DejaVuSans-6d" x="85.742188"/>
      <use xlink:href="#DejaVuSans-65" x="183.154297"/>
      <use xlink:href="#DejaVuSans-20" x="244.677734"/>
      <use xlink:href="#DejaVuSans-28" x="276.464844"/>
      <use xlink:href="#DejaVuSans-64" x="315.478516"/>
      <use xlink:href="#DejaVuSans-61" x="378.955078"/>
      <use xlink:href="#DejaVuSans-79" x="440.234375"/>
      <use xlink:href="#DejaVuSans-73" x="499.414062"/>
      <use xlink:href="#DejaVuSans-29" x="551.513672"/>
     </g>
    </g>
   </g>
   <g id="matplotlib.axis_2">
    <g id="ytick_1">
     <g id="line2d_10">
      <defs>
       <path id="ma600d9e374" d="M 0 0 
L -3.5 0 
" style="stroke: #000000; stroke-width: 0.8"/>
      </defs>
      <g>
       <use xlink:href="#ma600d9e374" x="104.42" y="615.643714" style="stroke: #000000; stroke-width: 0.8"/>
      </g>
     </g>
     <g id="text_11">
      <!-- 0.00 -->
      <g transform="translate(48.435625 624.001995) scale(0.22 -0.22)">
       <defs>
        <path id="DejaVuSans-2e" d="M 684 794 
L 1344 794 
L 1344 0 
L 684 0 
L 684 794 
z
" transform="scale(0.015625)"/>
       </defs>
       <use xlink:href="#DejaVuSans-30"/>
       <use xlink:href="#DejaVuSans-2e" x="63.623047"/>
       <use xlink:href="#DejaVuSans-30" x="95.410156"/>
       <use xlink:href="#DejaVuSans-30" x="159.033203"/>
      </g>
     </g>
    </g>
    <g id="ytick_2">
     <g id="line2d_11">
      <g>
       <use xlink:href="#ma600d9e374" x="104.42" y="538.29454" style="stroke: #000000; stroke-width: 0.8"/>
      </g>
     </g>
     <g id="text_12">
      <!-- 0.25 -->
      <g transform="translate(48.435625 546.652821) scale(0.22 -0.22)">
       <use xlink:href="#DejaVuSans-30"/>
       <use xlink:href="#DejaVuSans-2e" x="63.623047"/>
       <use xlink:href="#DejaVuSans-32" x="95.410156"/>
       <use xlink:href="#DejaVuSans-35" x="159.033203"/>
      </g>
     </g>
    </g>
    <g id="ytick_3">
     <g id="line2d_12">
      <g>
       <use xlink:href="#ma600d9e374" x="104.42" y="460.945366" style="stroke: #000000; stroke-width: 0.8"/>
      </g>
     </g>
     <g id="text_13">
      <!-- 0.50 -->
      <g transform="translate(48.435625 469.303647) scale(0.22 -0.22)">
       <use xlink:href="#DejaVuSans-30"/>
       <use xlink:href="#DejaVuSans-2e" x="63.623047"/>
       <use xlink:href="#DejaVuSans-35" x="95.410156"/>
       <use xlink:href="#DejaVuSans-30" x="159.033203"/>
      </g>
     </g>
    </g>
    <g id="ytick_4">
     <g id="line2d_13">
      <g>
       <use xlink:href="#ma600d9e374" x="104.42" y="383.596192" style="stroke: #000000; stroke-width: 0.8"/>
      </g>
     </g>
     <g id="text_14">
      <!-- 0.75 -->
      <g transform="translate(48.435625 391.954473) scale(0.22 -0.22)">
       <use xlink:href="#DejaVuSans-30"/>
       <use xlink:href="#DejaVuSans-2e" x="63.623047"/>
       <use xlink:href="#DejaVuSans-37" x="95.410156"/>
       <use xlink:href="#DejaVuSans-35" x="159.033203"/>
      </g>
     </g>
    </g>
    <g id="ytick_5">
     <g id="line2d_14">
      <g>
       <use xlink:href="#ma600d9e374" x="104.42" y="306.247017" style="stroke: #000000; stroke-width: 0.8"/>
      </g>
     </g>
     <g id="text_15">
      <!-- 1.00 -->
      <g transform="translate(48.435625 314.605299) scale(0.22 -0.22)">
       <use xlink:href="#DejaVuSans-31"/>
       <use xlink:href="#DejaVuSans-2e" x="63.623047"/>
       <use xlink:href="#DejaVuSans-30" x="95.410156"/>
       <use xlink:href="#DejaVuSans-30" x="159.033203"/>
      </g>
     </g>
    </g>
    <g id="ytick_6">
     <g id="line2d_15">
      <g>
       <use xlink:href="#ma600d9e374" x="104.42" y="228.897843" style="stroke: #000000; stroke-width: 0.8"/>
      </g>
     </g>
     <g id="text_16">
      <!-- 1.25 -->
      <g transform="translate(48.435625 237.256124) scale(0.22 -0.22)">
       <use xlink:href="#DejaVuSans-31"/>
       <use xlink:href="#DejaVuSans-2e" x="63.623047"/>
       <use xlink:href="#DejaVuSans-32" x="95.410156"/>
       <use xlink:href="#DejaVuSans-35" x="159.033203"/>
      </g>
     </g>
    </g>
    <g id="ytick_7">
     <g id="line2d_16">
      <g>
       <use xlink:href="#ma600d9e374" x="104.42" y="151.548669" style="stroke: #000000; stroke-width: 0.8"/>
      </g>
     </g>
     <g id="text_17">
      <!-- 1.50 -->
      <g transform="translate(48.435625 159.90695) scale(0.22 -0.22)">
       <use xlink:href="#DejaVuSans-31"/>
       <use xlink:href="#DejaVuSans-2e" x="63.623047"/>
       <use xlink:href="#DejaVuSans-35" x="95.410156"/>
       <use xlink:href="#DejaVuSans-30" x="159.033203"/>
      </g>
     </g>
    </g>
    <g id="ytick_8">
     <g id="line2d_17">
      <g>
       <use xlink:href="#ma600d9e374" x="104.42" y="74.199495" style="stroke: #000000; stroke-width: 0.8"/>
      </g>
     </g>
     <g id="text_18">
      <!-- 1.75 -->
      <g transform="translate(48.435625 82.557776) scale(0.22 -0.22)">
       <use xlink:href="#DejaVuSans-31"/>
       <use xlink:href="#DejaVuSans-2e" x="63.623047"/>
       <use xlink:href="#DejaVuSans-37" x="95.410156"/>
       <use xlink:href="#DejaVuSans-35" x="159.033203"/>
      </g>
     </g>
    </g>
    <g id="text_19">
     <!-- X:A -->
     <g transform="translate(39.860313 352.385312) rotate(-90) scale(0.22 -0.22)">
      <defs>
       <path id="DejaVuSans-58" d="M 403 4666 
L 1081 4666 
L 2241 2931 
L 3406 4666 
L 4084 4666 
L 2584 2425 
L 4184 0 
L 3506 0 
L 2194 1984 
L 872 0 
L 191 0 
L 1856 2491 
L 403 4666 
z
" transform="scale(0.015625)"/>
       <path id="DejaVuSans-3a" d="M 750 794 
L 1409 794 
L 1409 0 
L 750 0 
L 750 794 
z
M 750 3309 
L 1409 3309 
L 1409 2516 
L 750 2516 
L 750 3309 
z
" transform="scale(0.015625)"/>
       <path id="DejaVuSans-41" d="M 2188 4044 
L 1331 1722 
L 3047 1722 
L 2188 4044 
z
M 1831 4666 
L 2547 4666 
L 4325 0 
L 3669 0 
L 3244 1197 
L 1141 1197 
L 716 0 
L 50 0 
L 1831 4666 
z
" transform="scale(0.015625)"/>
      </defs>
      <use xlink:href="#DejaVuSans-58"/>
      <use xlink:href="#DejaVuSans-3a" x="68.505859"/>
      <use xlink:href="#DejaVuSans-41" x="102.197266"/>
     </g>
    </g>
   </g>
   <g id="line2d_18">
    <path d="M 139.129545 615.310909 
L 146.141575 615.232517 
L 153.153604 615.139448 
L 160.165634 615.029536 
L 167.177663 614.90032 
L 174.189692 614.749124 
L 181.201722 614.57306 
L 188.213751 614.369024 
L 195.225781 614.133731 
L 202.23781 613.863636 
L 209.249839 613.554491 
L 216.261869 613.201803 
L 223.273898 612.80088 
L 230.285927 612.346836 
L 237.297957 611.834591 
L 244.309986 611.258871 
L 251.322016 610.614204 
L 258.334045 609.895189 
L 265.346074 609.095963 
L 272.358104 608.209357 
L 279.370133 607.228321 
L 286.382163 606.145984 
L 293.394192 604.955649 
L 300.406221 603.650797 
L 307.418251 602.225086 
L 314.43028 600.67235 
L 321.442309 598.9866 
L 328.454339 597.162024 
L 335.466368 595.193534 
L 342.478398 593.076184 
L 349.490427 590.803538 
L 356.502456 588.369933 
L 363.514486 585.770563 
L 370.526515 583.001484 
L 377.538545 580.059607 
L 384.550574 576.942706 
L 391.562603 573.649409 
L 398.574633 570.179207 
L 405.586662 566.532445 
L 412.598691 562.710331 
L 419.610721 558.71493 
L 426.62275 554.549165 
L 433.63478 550.215976 
L 440.646809 545.716154 
L 447.658838 541.05441 
L 454.670868 536.236167 
L 461.682897 531.26707 
L 468.694927 526.152982 
L 475.706956 520.899985 
L 482.718985 515.51438 
L 489.731015 510.002687 
L 496.743044 504.371646 
L 503.755073 498.628217 
L 510.767103 492.779578 
L 517.779132 486.833127 
L 524.791162 480.796479 
L 531.803191 474.677471 
L 538.81522 468.484159 
L 545.82725 462.224817 
L 552.839279 455.907938 
L 559.851309 449.542236 
L 566.863338 443.136642 
L 573.875367 436.700099 
L 580.887397 430.238609 
L 587.899426 423.758149 
L 594.911455 417.26501 
L 601.923485 410.765273 
L 608.935514 404.264806 
L 615.947544 397.769265 
L 622.959573 391.284092 
L 629.971602 384.814519 
L 636.983632 378.365564 
L 643.995661 371.942032 
L 651.007691 365.548518 
L 658.01972 359.189402 
L 665.031749 352.868853 
L 672.043779 346.590827 
L 679.055808 340.359068 
L 686.067837 334.177107 
L 693.079867 328.048264 
L 700.091896 321.975644 
L 707.103926 315.962143 
L 714.115955 310.010442 
L 721.127984 304.12301 
L 728.140014 298.302103 
L 735.152043 292.549768 
L 742.164073 286.867835 
L 749.176102 281.257924 
L 756.188131 275.721443 
L 763.200161 270.259587 
L 770.21219 264.873337 
L 777.224219 259.563464 
L 784.236249 254.330525 
L 791.248278 249.174866 
L 798.260308 244.096619 
L 805.272337 239.095704 
L 812.284366 234.17183 
L 819.296396 229.325289 
L 826.308425 224.556994 
L 833.320455 219.866931 
" clip-path="url(#p717cfecda9)" style="fill: none; stroke: #d0e1f2; stroke-width: 1.5; stroke-linecap: square"/>
   </g>
   <g id="line2d_19">
    <path d="M 139.129545 119.790519 
L 146.141575 121.440298 
L 153.153604 123.082453 
L 160.165634 124.717013 
L 167.177663 126.344007 
L 174.189692 127.963462 
L 181.201722 129.575403 
L 188.213751 131.179854 
L 195.225781 132.776836 
L 202.23781 134.36637 
L 209.249839 135.948473 
L 216.261869 137.523159 
L 223.273898 139.09044 
L 230.285927 140.650327 
L 237.297957 142.202828 
L 244.309986 143.747951 
L 251.322016 145.285698 
L 258.334045 146.816074 
L 265.346074 148.339078 
L 272.358104 149.854704 
L 279.370133 151.362942 
L 286.382163 152.863784 
L 293.394192 154.357219 
L 300.406221 155.843232 
L 307.418251 157.321811 
L 314.43028 158.79294 
L 321.442309 160.2566 
L 328.454339 161.712774 
L 335.466368 163.161443 
L 342.478398 164.602589 
L 349.490427 166.036181 
L 356.502456 167.462192 
L 363.514486 168.880597 
L 370.526515 170.291369 
L 377.538545 171.694486 
L 384.550574 173.089926 
L 391.562603 174.47767 
L 398.574633 175.857699 
L 405.586662 177.229996 
L 412.598691 178.594546 
L 419.610721 179.951336 
L 426.62275 181.300354 
L 433.63478 182.641589 
L 440.646809 183.975034 
L 447.658838 185.300687 
L 454.670868 186.618545 
L 461.682897 187.928611 
L 468.694927 189.23089 
L 475.706956 190.525391 
L 482.718985 191.812125 
L 489.731015 193.091107 
L 496.743044 194.362354 
L 503.755073 195.625889 
L 510.767103 196.881734 
L 517.779132 198.129918 
L 524.791162 199.37047 
L 531.803191 200.603424 
L 538.81522 201.828816 
L 545.82725 203.046687 
L 552.839279 204.257079 
L 559.851309 205.460038 
L 566.863338 206.655614 
L 573.875367 207.843856 
L 580.887397 209.024791 
L 587.899426 210.198471 
L 594.911455 211.364955 
L 601.923485 212.524305 
L 608.935514 213.676579 
L 615.947544 214.821837 
L 622.959573 215.960139 
L 629.971602 217.091546 
L 636.983632 218.216115 
L 643.995661 219.333907 
L 651.007691 220.444982 
L 658.01972 221.549397 
L 665.031749 222.647214 
L 672.043779 223.73849 
L 679.055808 224.823285 
L 686.067837 225.901659 
L 693.079867 226.973669 
L 700.091896 228.039374 
L 707.103926 229.098835 
L 714.115955 230.152108 
L 721.127984 231.199253 
L 728.140014 232.240328 
L 735.152043 233.275392 
L 742.164073 234.304503 
L 749.176102 235.32772 
L 756.188131 236.3451 
L 763.200161 237.356702 
L 770.21219 238.362584 
L 777.224219 239.362803 
L 784.236249 240.357418 
L 791.248278 241.346487 
L 798.260308 242.330067 
L 805.272337 243.308216 
L 812.284366 244.280991 
L 819.296396 245.248444 
L 826.308425 246.210618 
L 833.320455 247.167565 
" clip-path="url(#p717cfecda9)" style="fill: none; stroke: #fdd9b4; stroke-width: 1.5; stroke-linecap: square"/>
   </g>
   <g id="line2d_20">
    <path d="M 139.129545 615.310909 
L 146.141575 606.187789 
L 153.153604 599.63565 
L 160.165634 594.751681 
L 167.177663 590.956712 
L 174.189692 587.941157 
L 181.201722 585.481074 
L 188.213751 583.411474 
L 195.225781 581.646241 
L 202.23781 580.125776 
L 209.249839 578.798067 
L 216.261869 577.619165 
L 223.273898 576.554097 
L 230.285927 575.585967 
L 237.297957 574.701195 
L 244.309986 573.886507 
L 251.322016 573.130342 
L 258.334045 572.422854 
L 265.346074 571.755914 
L 272.358104 571.123119 
L 279.370133 570.519681 
L 286.382163 569.941415 
L 293.394192 569.384431 
L 300.406221 568.845138 
L 307.418251 568.320254 
L 314.43028 567.806798 
L 321.442309 567.302094 
L 328.454339 566.803771 
L 335.466368 566.309755 
L 342.478398 565.817814 
L 349.490427 565.325654 
L 356.502456 564.831072 
L 363.514486 564.331791 
L 370.526515 563.825461 
L 377.538545 563.309654 
L 384.550574 562.78187 
L 391.562603 562.239521 
L 398.574633 561.679282 
L 405.586662 561.097833 
L 412.598691 560.491512 
L 419.610721 559.855822 
L 426.62275 559.185428 
L 433.63478 558.474159 
L 440.646809 557.715011 
L 447.658838 556.900053 
L 454.670868 556.016291 
L 461.682897 555.054462 
L 468.694927 554.002793 
L 475.706956 552.84213 
L 482.718985 551.545942 
L 489.731015 550.08032 
L 496.743044 548.403978 
L 503.755073 546.468244 
L 510.767103 544.164557 
L 517.779132 541.436476 
L 524.791162 538.20803 
L 531.803191 534.275568 
L 538.81522 529.30776 
L 545.82725 522.845601 
L 552.839279 514.302403 
L 559.851309 502.965829 
L 566.863338 487.942973 
L 573.875367 468.20188 
L 580.887397 443.912437 
L 587.899426 416.687609 
L 594.911455 388.987606 
L 601.923485 363.095573 
L 608.935514 340.409297 
L 615.947544 321.421813 
L 622.959573 305.989188 
L 629.971602 293.72799 
L 636.983632 284.115274 
L 643.995661 276.647184 
L 651.007691 270.906656 
L 658.01972 266.509901 
L 665.031749 263.132687 
L 672.043779 260.570267 
L 679.055808 258.6457 
L 686.067837 257.188659 
L 693.079867 256.057547 
L 700.091896 255.196839 
L 707.103926 254.563592 
L 714.115955 254.106175 
L 721.127984 253.764272 
L 728.140014 253.477352 
L 735.152043 253.239044 
L 742.164073 253.060071 
L 749.176102 252.941956 
L 756.188131 252.877102 
L 763.200161 252.848787 
L 770.21219 252.831164 
L 777.224219 252.791836 
L 784.236249 252.745458 
L 791.248278 252.707649 
L 798.260308 252.680753 
L 805.272337 252.665227 
L 812.284366 252.659638 
L 819.296396 252.660664 
L 826.308425 252.663093 
L 833.320455 252.659824 
" clip-path="url(#p717cfecda9)" style="fill: none; stroke: #79b5d9; stroke-width: 1.5; stroke-linecap: square"/>
   </g>
   <g id="line2d_21">
    <path d="M 139.129545 119.790519 
L 146.141575 115.13013 
L 153.153604 112.0933 
L 160.165634 110.147438 
L 167.177663 108.883804 
L 174.189692 108.110802 
L 181.201722 107.672432 
L 188.213751 107.378773 
L 195.225781 107.174388 
L 202.23781 107.103187 
L 209.249839 107.153298 
L 216.261869 107.252219 
L 223.273898 107.27998 
L 230.285927 107.260773 
L 237.297957 107.261796 
L 244.309986 107.311328 
L 251.322016 107.412146 
L 258.334045 107.541531 
L 265.346074 107.651263 
L 272.358104 107.670692 
L 279.370133 107.599022 
L 286.382163 107.520059 
L 293.394192 107.495515 
L 300.406221 107.558593 
L 307.418251 107.713991 
L 314.43028 107.937901 
L 321.442309 108.178006 
L 328.454339 108.353485 
L 335.466368 108.35603 
L 342.478398 108.190901 
L 349.490427 108.01938 
L 356.502456 107.946869 
L 363.514486 108.022221 
L 370.526515 108.237739 
L 377.538545 108.529174 
L 384.550574 108.77573 
L 391.562603 108.802061 
L 398.574633 108.614317 
L 405.586662 108.421515 
L 412.598691 108.344602 
L 419.610721 108.439775 
L 426.62275 108.698483 
L 433.63478 109.047429 
L 440.646809 109.348563 
L 447.658838 109.40121 
L 454.670868 109.202702 
L 461.682897 108.997133 
L 468.694927 108.935466 
L 475.706956 109.091695 
L 482.718985 109.462847 
L 489.731015 109.968981 
L 496.743044 110.453186 
L 503.755073 110.681596 
L 510.767103 110.613059 
L 517.779132 110.55937 
L 524.791162 110.715686 
L 531.803191 111.208691 
L 538.81522 112.096593 
L 545.82725 113.369127 
L 552.839279 114.947549 
L 559.851309 116.690821 
L 566.863338 119.059447 
L 573.875367 123.034274 
L 580.887397 129.299056 
L 587.899426 138.346849 
L 594.911455 150.392381 
L 601.923485 164.970122 
L 608.935514 181.048027 
L 615.947544 197.165235 
L 622.959573 212.641843 
L 629.971602 226.968173 
L 636.983632 239.290494 
L 643.995661 249.701412 
L 651.007691 258.509518 
L 658.01972 265.708734 
L 665.031749 271.39849 
L 672.043779 275.986655 
L 679.055808 279.711506 
L 686.067837 282.631334 
L 693.079867 284.815948 
L 700.091896 286.51307 
L 707.103926 287.858482 
L 714.115955 288.931727 
L 721.127984 289.756144 
L 728.140014 290.3346 
L 735.152043 290.763429 
L 742.164073 291.097635 
L 749.176102 291.372058 
L 756.188131 291.605476 
L 763.200161 291.800604 
L 770.21219 291.944094 
L 777.224219 292.005983 
L 784.236249 291.975357 
L 791.248278 291.926252 
L 798.260308 291.918925 
L 805.272337 291.982398 
L 812.284366 292.114458 
L 819.296396 292.281655 
L 826.308425 292.419303 
L 833.320455 292.431483 
" clip-path="url(#p717cfecda9)" style="fill: none; stroke: #fd9649; stroke-width: 1.5; stroke-linecap: square"/>
   </g>
   <g id="line2d_22">
    <path d="M 139.129545 615.310909 
L 146.141575 593.321148 
L 153.153604 580.300405 
L 160.165634 572.597382 
L 167.177663 568.021284 
L 174.189692 565.328944 
L 181.201722 563.717934 
L 188.213751 562.770281 
L 195.225781 562.214913 
L 202.23781 561.86677 
L 209.249839 561.674075 
L 216.261869 561.560282 
L 223.273898 561.475769 
L 230.285927 561.428431 
L 237.297957 561.408413 
L 244.309986 561.388258 
L 251.322016 561.362874 
L 258.334045 561.344374 
L 265.346074 561.335024 
L 272.358104 561.329482 
L 279.370133 561.314923 
L 286.382163 561.285993 
L 293.394192 561.254742 
L 300.406221 561.228833 
L 307.418251 561.210143 
L 314.43028 561.19477 
L 321.442309 561.173026 
L 328.454339 561.129469 
L 335.466368 561.056797 
L 342.478398 560.975979 
L 349.490427 560.902581 
L 356.502456 560.840575 
L 363.514486 560.782336 
L 370.526515 560.708651 
L 377.538545 560.588709 
L 384.550574 560.401635 
L 391.562603 560.186057 
L 398.574633 559.974353 
L 405.586662 559.775375 
L 412.598691 559.574445 
L 419.610721 559.333354 
L 426.62275 558.990365 
L 433.63478 558.512512 
L 440.646809 557.965019 
L 447.658838 557.376206 
L 454.670868 556.74195 
L 461.682897 556.025938 
L 468.694927 555.159662 
L 475.706956 554.066696 
L 482.718985 552.793611 
L 489.731015 551.307216 
L 496.743044 549.555391 
L 503.755073 547.487582 
L 510.767103 545.054805 
L 517.779132 542.212788 
L 524.791162 538.868163 
L 531.803191 534.861569 
L 538.81522 530.087202 
L 545.82725 524.503846 
L 552.839279 517.998042 
L 559.851309 510.210642 
L 566.863338 500.948342 
L 573.875367 490.242122 
L 580.887397 478.086356 
L 587.899426 463.99996 
L 594.911455 447.846215 
L 601.923485 430.004278 
L 608.935514 410.807636 
L 615.947544 390.166724 
L 622.959573 368.496951 
L 629.971602 346.726762 
L 636.983632 325.570852 
L 643.995661 305.750947 
L 651.007691 288.029649 
L 658.01972 273.126431 
L 665.031749 261.527361 
L 672.043779 253.101428 
L 679.055808 247.603285 
L 686.067837 244.766293 
L 693.079867 244.109539 
L 700.091896 244.459633 
L 707.103926 245.211733 
L 714.115955 246.474688 
L 721.127984 247.910506 
L 728.140014 249.032495 
L 735.152043 249.742591 
L 742.164073 250.188501 
L 749.176102 250.365909 
L 756.188131 250.360015 
L 763.200161 250.290768 
L 770.21219 250.230322 
L 777.224219 250.203044 
L 784.236249 250.173695 
L 791.248278 250.081691 
L 798.260308 249.994124 
L 805.272337 249.955056 
L 812.284366 249.967526 
L 819.296396 249.993546 
L 826.308425 249.970694 
L 833.320455 249.940178 
" clip-path="url(#p717cfecda9)" style="fill: none; stroke: #2575b7; stroke-width: 1.5; stroke-linecap: square"/>
   </g>
   <g id="line2d_23">
    <path d="M 139.129545 119.790519 
L 146.141575 119.791743 
L 153.153604 119.793166 
L 160.165634 119.794821 
L 167.177663 119.796747 
L 174.189692 119.798988 
L 181.201722 119.801594 
L 188.213751 119.804625 
L 195.225781 119.808151 
L 202.23781 119.812253 
L 209.249839 119.817024 
L 216.261869 119.822575 
L 223.273898 119.829031 
L 230.285927 119.836541 
L 237.297957 119.845277 
L 244.309986 119.85544 
L 251.322016 119.867262 
L 258.334045 119.88101 
L 265.346074 119.897 
L 272.358104 119.915603 
L 279.370133 119.937241 
L 286.382163 119.962417 
L 293.394192 119.991684 
L 300.406221 120.025704 
L 307.418251 120.06527 
L 314.43028 120.111305 
L 321.442309 120.164865 
L 328.454339 120.227137 
L 335.466368 120.299548 
L 342.478398 120.3837 
L 349.490427 120.481476 
L 356.502456 120.595134 
L 363.514486 120.727298 
L 370.526515 120.880962 
L 377.538545 121.05949 
L 384.550574 121.266861 
L 391.562603 121.507626 
L 398.574633 121.787056 
L 405.586662 122.111399 
L 412.598691 122.48789 
L 419.610721 122.92474 
L 426.62275 123.431144 
L 433.63478 124.017638 
L 440.646809 124.696574 
L 447.658838 125.481962 
L 454.670868 126.389826 
L 461.682897 127.438207 
L 468.694927 128.647163 
L 475.706956 130.03874 
L 482.718985 131.6378 
L 489.731015 133.472501 
L 496.743044 135.572591 
L 503.755073 137.969271 
L 510.767103 140.695188 
L 517.779132 143.784203 
L 524.791162 147.270221 
L 531.803191 151.185498 
L 538.81522 155.557661 
L 545.82725 160.409373 
L 552.839279 165.756061 
L 559.851309 171.603613 
L 566.863338 177.945912 
L 573.875367 184.764379 
L 580.887397 192.027744 
L 587.899426 199.694076 
L 594.911455 207.710269 
L 601.923485 216.011175 
L 608.935514 224.51349 
L 615.947544 233.148129 
L 622.959573 241.791562 
L 629.971602 250.239153 
L 636.983632 258.220969 
L 643.995661 265.428775 
L 651.007691 271.49047 
L 658.01972 275.967272 
L 665.031749 278.674479 
L 672.043779 279.926691 
L 679.055808 280.026235 
L 686.067837 279.215059 
L 693.079867 277.921858 
L 700.091896 276.747025 
L 707.103926 275.897945 
L 714.115955 275.170128 
L 721.127984 274.635199 
L 728.140014 274.37399 
L 735.152043 274.315881 
L 742.164073 274.355886 
L 749.176102 274.501449 
L 756.188131 274.655918 
L 763.200161 274.736509 
L 770.21219 274.730898 
L 777.224219 274.69722 
L 784.236249 274.736777 
L 791.248278 274.795001 
L 798.260308 274.835507 
L 805.272337 274.84976 
L 812.284366 274.842302 
L 819.296396 274.830753 
L 826.308425 274.838813 
L 833.320455 274.846607 
" clip-path="url(#p717cfecda9)" style="fill: none; stroke: #dc4c03; stroke-width: 1.5; stroke-linecap: square"/>
   </g>
   <g id="line2d_24">
    <path d="M 139.129545 615.310909 
L 146.141575 606.873042 
L 153.153604 601.175723 
L 160.165634 597.03357 
L 167.177663 593.853393 
L 174.189692 591.333606 
L 181.201722 589.260659 
L 188.213751 587.511614 
L 195.225781 586.01726 
L 202.23781 584.719923 
L 209.249839 583.572491 
L 216.261869 582.540002 
L 223.273898 581.604614 
L 230.285927 580.750908 
L 237.297957 579.965018 
L 244.309986 579.235062 
L 251.322016 578.551134 
L 258.334045 577.905312 
L 265.346074 577.291842 
L 272.358104 576.706422 
L 279.370133 576.145036 
L 286.382163 575.603871 
L 293.394192 575.079315 
L 300.406221 574.567961 
L 307.418251 574.066607 
L 314.43028 573.57225 
L 321.442309 573.082454 
L 328.454339 572.595842 
L 335.466368 572.110895 
L 342.478398 571.625713 
L 349.490427 571.138024 
L 356.502456 570.645176 
L 363.514486 570.144142 
L 370.526515 569.6317 
L 377.538545 569.10608 
L 384.550574 568.565703 
L 391.562603 568.008104 
L 398.574633 567.429938 
L 405.586662 566.826982 
L 412.598691 566.19413 
L 419.610721 565.525395 
L 426.62275 564.814542 
L 433.63478 564.056999 
L 440.646809 563.246303 
L 447.658838 562.373093 
L 454.670868 561.425111 
L 461.682897 560.387204 
L 468.694927 559.241323 
L 475.706956 557.96343 
L 482.718985 556.52881 
L 489.731015 554.912279 
L 496.743044 553.069555 
L 503.755073 550.936744 
L 510.767103 548.430334 
L 517.779132 545.447195 
L 524.791162 541.853377 
L 531.803191 537.45907 
L 538.81522 531.984732 
L 545.82725 525.0216 
L 552.839279 516.030926 
L 559.851309 504.343977 
L 566.863338 489.162563 
L 573.875367 469.762855 
L 580.887397 445.964653 
L 587.899426 418.66456 
L 594.911455 389.991889 
L 601.923485 362.441508 
L 608.935514 337.6796 
L 615.947544 316.667829 
L 622.959573 299.592761 
L 629.971602 286.077415 
L 636.983632 275.626849 
L 643.995661 267.693039 
L 651.007691 261.693631 
L 658.01972 257.192228 
L 665.031749 253.865727 
L 672.043779 251.407725 
L 679.055808 249.555157 
L 686.067837 248.186599 
L 693.079867 247.208587 
L 700.091896 246.51237 
L 707.103926 245.977001 
L 714.115955 245.547986 
L 721.127984 245.233124 
L 728.140014 245.025989 
L 735.152043 244.90408 
L 742.164073 244.828813 
L 749.176102 244.747311 
L 756.188131 244.654301 
L 763.200161 244.575719 
L 770.21219 244.523559 
L 777.224219 244.502299 
L 784.236249 244.508898 
L 791.248278 244.532796 
L 798.260308 244.555913 
L 805.272337 244.552671 
L 812.284366 244.530764 
L 819.296396 244.514935 
L 826.308425 244.503776 
L 833.320455 244.495661 
" clip-path="url(#p717cfecda9)" style="fill: none; stroke: #08306b; stroke-width: 1.5; stroke-linecap: square"/>
   </g>
   <g id="line2d_25">
    <path d="M 139.129545 119.790519 
L 146.141575 114.498835 
L 153.153604 111.247617 
L 160.165634 109.29799 
L 167.177663 108.140379 
L 174.189692 107.536266 
L 181.201722 107.223139 
L 188.213751 107.021246 
L 195.225781 106.98019 
L 202.23781 107.092517 
L 209.249839 107.255511 
L 216.261869 107.318025 
L 223.273898 107.351098 
L 230.285927 107.421988 
L 237.297957 107.551523 
L 244.309986 107.723384 
L 251.322016 107.884101 
L 258.334045 107.9477 
L 265.346074 107.915297 
L 272.358104 107.884218 
L 279.370133 107.920916 
L 286.382163 108.054515 
L 293.394192 108.27681 
L 300.406221 108.542272 
L 307.418251 108.768042 
L 314.43028 108.833976 
L 321.442309 108.701221 
L 328.454339 108.550863 
L 335.466368 108.51548 
L 342.478398 108.651364 
L 349.490427 108.938525 
L 356.502456 109.280688 
L 363.514486 109.505293 
L 370.526515 109.41446 
L 377.538545 109.1787 
L 384.550574 109.03005 
L 391.562603 109.090226 
L 398.574633 109.37953 
L 405.586662 109.816846 
L 412.598691 110.219642 
L 419.610721 110.305849 
L 426.62275 110.04942 
L 433.63478 109.802273 
L 440.646809 109.774062 
L 447.658838 110.044892 
L 454.670868 110.565324 
L 461.682897 111.156372 
L 468.694927 111.509503 
L 475.706956 111.394718 
L 482.718985 111.227565 
L 489.731015 111.267464 
L 496.743044 111.628054 
L 503.755073 112.289161 
L 510.767103 113.096796 
L 517.779132 113.763158 
L 524.791162 114.096561 
L 531.803191 114.522283 
L 538.81522 115.330379 
L 545.82725 116.719775 
L 552.839279 118.806563 
L 559.851309 121.623998 
L 566.863338 125.123398 
L 573.875367 129.711236 
L 580.887397 136.477358 
L 587.899426 145.874433 
L 594.911455 157.63006 
L 601.923485 171.023547 
L 608.935514 185.526207 
L 615.947544 200.254577 
L 622.959573 213.85235 
L 629.971602 225.61803 
L 636.983632 235.995906 
L 643.995661 244.893298 
L 651.007691 251.807402 
L 658.01972 257.273135 
L 665.031749 261.68921 
L 672.043779 265.142458 
L 679.055808 267.691285 
L 686.067837 269.647546 
L 693.079867 271.193035 
L 700.091896 272.401389 
L 707.103926 273.252296 
L 714.115955 273.850556 
L 721.127984 274.304972 
L 728.140014 274.670244 
L 735.152043 274.971358 
L 742.164073 275.203585 
L 749.176102 275.331389 
L 756.188131 275.326075 
L 763.200161 275.283572 
L 770.21219 275.288063 
L 777.224219 275.380712 
L 784.236249 275.559668 
L 791.248278 275.78006 
L 798.260308 275.954 
L 805.272337 275.950686 
L 812.284366 275.836041 
L 819.296396 275.77077 
L 826.308425 275.745851 
L 833.320455 275.73359 
" clip-path="url(#p717cfecda9)" style="fill: none; stroke: #7f2704; stroke-width: 1.5; stroke-linecap: square"/>
   </g>
   <g id="patch_3">
    <path d="M 104.42 643.48 
L 104.42 23.76 
" style="fill: none; stroke: #000000; stroke-width: 0.8; stroke-linejoin: miter; stroke-linecap: square"/>
   </g>
   <g id="patch_4">
    <path d="M 868.03 643.48 
L 868.03 23.76 
" style="fill: none; stroke: #000000; stroke-width: 0.8; stroke-linejoin: miter; stroke-linecap: square"/>
   </g>
   <g id="patch_5">
    <path d="M 104.42 643.48 
L 868.03 643.48 
" style="fill: none; stroke: #000000; stroke-width: 0.8; stroke-linejoin: miter; stroke-linecap: square"/>
   </g>
   <g id="patch_6">
    <path d="M 104.42 23.76 
L 868.03 23.76 
" style="fill: none; stroke: #000000; stroke-width: 0.8; stroke-linejoin: miter; stroke-linecap: square"/>
   </g>
   <g id="legend_1">
    <g id="patch_7">
     <path d="M 883.43 364.27875 
L 1051.836562 364.27875 
Q 1056.236562 364.27875 1056.236562 359.87875 
L 1056.236562 39.16 
Q 1056.236562 34.76 1051.836562 34.76 
L 883.43 34.76 
Q 879.03 34.76 879.03 39.16 
L 879.03 359.87875 
Q 879.03 364.27875 883.43 364.27875 
z
" style="fill: #ffffff; opacity: 0.8; stroke: #cccccc; stroke-linejoin: miter"/>
    </g>
    <g id="PathCollection_3">
     <g>
      <use xlink:href="#m80f1702e56" x="909.83" y="54.501562" style="fill: #1f77b4; stroke: #1f77b4"/>
     </g>
    </g>
    <g id="text_20">
     <!-- Xi -->
     <g transform="translate(949.43 60.276562) scale(0.22 -0.22)">
      <use xlink:href="#DejaVuSans-58"/>
      <use xlink:href="#DejaVuSans-69" x="68.505859"/>
     </g>
    </g>
    <g id="PathCollection_4">
     <g>
      <use xlink:href="#m62fcbac0dc" x="909.83" y="86.793437" style="fill: #ff7f0e; stroke: #ff7f0e"/>
     </g>
    </g>
    <g id="text_21">
     <!-- Xa -->
     <g transform="translate(949.43 92.568437) scale(0.22 -0.22)">
      <use xlink:href="#DejaVuSans-58"/>
      <use xlink:href="#DejaVuSans-61" x="68.505859"/>
     </g>
    </g>
    <g id="line2d_26">
     <path d="M 887.83 117.160312 
L 909.83 117.160312 
L 931.83 117.160312 
" style="fill: none; stroke: #d0e1f2; stroke-width: 1.5; stroke-linecap: square"/>
    </g>
    <g id="text_22">
     <!-- Xi-AAAA -->
     <g transform="translate(949.43 124.860312) scale(0.22 -0.22)">
      <defs>
       <path id="DejaVuSans-2d" d="M 313 2009 
L 1997 2009 
L 1997 1497 
L 313 1497 
L 313 2009 
z
" transform="scale(0.015625)"/>
      </defs>
      <use xlink:href="#DejaVuSans-58"/>
      <use xlink:href="#DejaVuSans-69" x="68.505859"/>
      <use xlink:href="#DejaVuSans-2d" x="96.289062"/>
      <use xlink:href="#DejaVuSans-41" x="130.123047"/>
      <use xlink:href="#DejaVuSans-41" x="201.28125"/>
      <use xlink:href="#DejaVuSans-41" x="272.439453"/>
      <use xlink:href="#DejaVuSans-41" x="343.597656"/>
     </g>
    </g>
    <g id="line2d_27">
     <path d="M 887.83 149.452187 
L 909.83 149.452187 
L 931.83 149.452187 
" style="fill: none; stroke: #fdd9b4; stroke-width: 1.5; stroke-linecap: square"/>
    </g>
    <g id="text_23">
     <!-- Xa-AAAA -->
     <g transform="translate(949.43 157.152187) scale(0.22 -0.22)">
      <use xlink:href="#DejaVuSans-58"/>
      <use xlink:href="#DejaVuSans-61" x="68.505859"/>
      <use xlink:href="#DejaVuSans-2d" x="129.785156"/>
      <use xlink:href="#DejaVuSans-41" x="163.619141"/>
      <use xlink:href="#DejaVuSans-41" x="234.777344"/>
      <use xlink:href="#DejaVuSans-41" x="305.935547"/>
      <use xlink:href="#DejaVuSans-41" x="377.09375"/>
     </g>
    </g>
    <g id="line2d_28">
     <path d="M 887.83 181.744062 
L 909.83 181.744062 
L 931.83 181.744062 
" style="fill: none; stroke: #79b5d9; stroke-width: 1.5; stroke-linecap: square"/>
    </g>
    <g id="text_24">
     <!-- Xi-AIAA -->
     <g transform="translate(949.43 189.444062) scale(0.22 -0.22)">
      <defs>
       <path id="DejaVuSans-49" d="M 628 4666 
L 1259 4666 
L 1259 0 
L 628 0 
L 628 4666 
z
" transform="scale(0.015625)"/>
      </defs>
      <use xlink:href="#DejaVuSans-58"/>
      <use xlink:href="#DejaVuSans-69" x="68.505859"/>
      <use xlink:href="#DejaVuSans-2d" x="96.289062"/>
      <use xlink:href="#DejaVuSans-41" x="130.123047"/>
      <use xlink:href="#DejaVuSans-49" x="198.53125"/>
      <use xlink:href="#DejaVuSans-41" x="228.023438"/>
      <use xlink:href="#DejaVuSans-41" x="299.181641"/>
     </g>
    </g>
    <g id="line2d_29">
     <path d="M 887.83 214.035937 
L 909.83 214.035937 
L 931.83 214.035937 
" style="fill: none; stroke: #fd9649; stroke-width: 1.5; stroke-linecap: square"/>
    </g>
    <g id="text_25">
     <!-- Xa-AIAA -->
     <g transform="translate(949.43 221.735937) scale(0.22 -0.22)">
      <use xlink:href="#DejaVuSans-58"/>
      <use xlink:href="#DejaVuSans-61" x="68.505859"/>
      <use xlink:href="#DejaVuSans-2d" x="129.785156"/>
      <use xlink:href="#DejaVuSans-41" x="163.619141"/>
      <use xlink:href="#DejaVuSans-49" x="232.027344"/>
      <use xlink:href="#DejaVuSans-41" x="261.519531"/>
      <use xlink:href="#DejaVuSans-41" x="332.677734"/>
     </g>
    </g>
    <g id="line2d_30">
     <path d="M 887.83 246.327812 
L 909.83 246.327812 
L 931.83 246.327812 
" style="fill: none; stroke: #2575b7; stroke-width: 1.5; stroke-linecap: square"/>
    </g>
    <g id="text_26">
     <!-- Xi-IAAA -->
     <g transform="translate(949.43 254.027812) scale(0.22 -0.22)">
      <use xlink:href="#DejaVuSans-58"/>
      <use xlink:href="#DejaVuSans-69" x="68.505859"/>
      <use xlink:href="#DejaVuSans-2d" x="96.289062"/>
      <use xlink:href="#DejaVuSans-49" x="132.373047"/>
      <use xlink:href="#DejaVuSans-41" x="161.865234"/>
      <use xlink:href="#DejaVuSans-41" x="233.023438"/>
      <use xlink:href="#DejaVuSans-41" x="304.181641"/>
     </g>
    </g>
    <g id="line2d_31">
     <path d="M 887.83 278.619687 
L 909.83 278.619687 
L 931.83 278.619687 
" style="fill: none; stroke: #dc4c03; stroke-width: 1.5; stroke-linecap: square"/>
    </g>
    <g id="text_27">
     <!-- Xa-IAAA -->
     <g transform="translate(949.43 286.319687) scale(0.22 -0.22)">
      <use xlink:href="#DejaVuSans-58"/>
      <use xlink:href="#DejaVuSans-61" x="68.505859"/>
      <use xlink:href="#DejaVuSans-2d" x="129.785156"/>
      <use xlink:href="#DejaVuSans-49" x="165.869141"/>
      <use xlink:href="#DejaVuSans-41" x="195.361328"/>
      <use xlink:href="#DejaVuSans-41" x="266.519531"/>
      <use xlink:href="#DejaVuSans-41" x="337.677734"/>
     </g>
    </g>
    <g id="line2d_32">
     <path d="M 887.83 310.911563 
L 909.83 310.911563 
L 931.83 310.911563 
" style="fill: none; stroke: #08306b; stroke-width: 1.5; stroke-linecap: square"/>
    </g>
    <g id="text_28">
     <!-- Xi-IIAA -->
     <g transform="translate(949.43 318.611562) scale(0.22 -0.22)">
      <use xlink:href="#DejaVuSans-58"/>
      <use xlink:href="#DejaVuSans-69" x="68.505859"/>
      <use xlink:href="#DejaVuSans-2d" x="96.289062"/>
      <use xlink:href="#DejaVuSans-49" x="132.373047"/>
      <use xlink:href="#DejaVuSans-49" x="161.865234"/>
      <use xlink:href="#DejaVuSans-41" x="191.357422"/>
      <use xlink:href="#DejaVuSans-41" x="262.515625"/>
     </g>
    </g>
    <g id="line2d_33">
     <path d="M 887.83 343.203438 
L 909.83 343.203438 
L 931.83 343.203438 
" style="fill: none; stroke: #7f2704; stroke-width: 1.5; stroke-linecap: square"/>
    </g>
    <g id="text_29">
     <!-- Xa-IIAA -->
     <g transform="translate(949.43 350.903437) scale(0.22 -0.22)">
      <use xlink:href="#DejaVuSans-58"/>
      <use xlink:href="#DejaVuSans-61" x="68.505859"/>
      <use xlink:href="#DejaVuSans-2d" x="129.785156"/>
      <use xlink:href="#DejaVuSans-49" x="165.869141"/>
      <use xlink:href="#DejaVuSans-49" x="195.361328"/>
      <use xlink:href="#DejaVuSans-41" x="224.853516"/>
      <use xlink:href="#DejaVuSans-41" x="296.011719"/>
     </g>
    </g>
   </g>
  </g>
 </g>
 <defs>
  <clipPath id="p717cfecda9">
   <rect x="104.42" y="23.76" width="763.61" height="619.72"/>
  </clipPath>
 </defs>
</svg>
