<?xml version="1.0" encoding="utf-8" standalone="no"?>
<!DOCTYPE svg PUBLIC "-//W3C//DTD SVG 1.1//EN"
  "http://www.w3.org/Graphics/SVG/1.1/DTD/svg11.dtd">
<svg xmlns:xlink="http://www.w3.org/1999/xlink" width="1080pt" height="720pt" viewBox="0 0 1080 720" xmlns="http://www.w3.org/2000/svg" version="1.1">
 <metadata>
  <rdf:RDF xmlns:dc="http://purl.org/dc/elements/1.1/" xmlns:cc="http://creativecommons.org/ns#" xmlns:rdf="http://www.w3.org/1999/02/22-rdf-syntax-ns#">
   <cc:Work>
    <dc:type rdf:resource="http://purl.org/dc/dcmitype/StillImage"/>
    <dc:date>2023-01-11T19:55:52.933382</dc:date>
    <dc:format>image/svg+xml</dc:format>
    <dc:creator>
     <cc:Agent>
      <dc:title>Matplotlib v3.6.2, https://matplotlib.org/</dc:title>
     </cc:Agent>
    </dc:creator>
   </cc:Work>
  </rdf:RDF>
 </metadata>
 <defs>
  <style type="text/css">*{stroke-linejoin: round; stroke-linecap: butt}</style>
 </defs>
 <g id="figure_1">
  <g id="patch_1">
   <path d="M 0 720 
L 1080 720 
L 1080 0 
L 0 0 
z
" style="fill: #ffffff"/>
  </g>
  <g id="axes_1">
   <g id="patch_2">
    <path d="M 104.42 595.44 
L 883.87 595.44 
L 883.87 23.76 
L 104.42 23.76 
z
" style="fill: #ffffff"/>
   </g>
   <g id="PathCollection_1">
    <defs>
     <path id="m80f1702e56" d="M 0 3 
C 0.795609 3 1.55874 2.683901 2.12132 2.12132 
C 2.683901 1.55874 3 0.795609 3 0 
C 3 -0.795609 2.683901 -1.55874 2.12132 -2.12132 
C 1.55874 -2.683901 0.795609 -3 0 -3 
C -0.795609 -3 -1.55874 -2.683901 -2.12132 -2.12132 
C -2.683901 -1.55874 -3 -0.795609 -3 0 
C -3 0.795609 -2.683901 1.55874 -2.12132 2.12132 
C -1.55874 2.683901 -0.795609 3 0 3 
z
" style="stroke: #1f77b4"/>
    </defs>
    <g clip-path="url(#p13386ddcbc)">
     <use xlink:href="#m80f1702e56" x="139.849545" y="569.454545" style="fill: #1f77b4; stroke: #1f77b4"/>
     <use xlink:href="#m80f1702e56" x="228.423409" y="540.737852" style="fill: #1f77b4; stroke: #1f77b4"/>
     <use xlink:href="#m80f1702e56" x="316.997273" y="531.002648" style="fill: #1f77b4; stroke: #1f77b4"/>
     <use xlink:href="#m80f1702e56" x="405.571136" y="529.032732" style="fill: #1f77b4; stroke: #1f77b4"/>
     <use xlink:href="#m80f1702e56" x="494.145" y="492.178855" style="fill: #1f77b4; stroke: #1f77b4"/>
     <use xlink:href="#m80f1702e56" x="582.718864" y="455.324979" style="fill: #1f77b4; stroke: #1f77b4"/>
     <use xlink:href="#m80f1702e56" x="671.292727" y="257.337449" style="fill: #1f77b4; stroke: #1f77b4"/>
     <use xlink:href="#m80f1702e56" x="759.866591" y="257.337449" style="fill: #1f77b4; stroke: #1f77b4"/>
     <use xlink:href="#m80f1702e56" x="848.440455" y="257.337449" style="fill: #1f77b4; stroke: #1f77b4"/>
    </g>
   </g>
   <g id="PathCollection_2">
    <defs>
     <path id="m62fcbac0dc" d="M 0 3 
C 0.795609 3 1.55874 2.683901 2.12132 2.12132 
C 2.683901 1.55874 3 0.795609 3 0 
C 3 -0.795609 2.683901 -1.55874 2.12132 -2.12132 
C 1.55874 -2.683901 0.795609 -3 0 -3 
C -0.795609 -3 -1.55874 -2.683901 -2.12132 -2.12132 
C -2.683901 -1.55874 -3 -0.795609 -3 0 
C -3 0.795609 -2.683901 1.55874 -2.12132 2.12132 
C -1.55874 2.683901 -0.795609 3 0 3 
z
" style="stroke: #ff7f0e"/>
    </defs>
    <g clip-path="url(#p13386ddcbc)">
     <use xlink:href="#m62fcbac0dc" x="139.849545" y="139.644826" style="fill: #ff7f0e; stroke: #ff7f0e"/>
     <use xlink:href="#m62fcbac0dc" x="228.423409" y="122.108673" style="fill: #ff7f0e; stroke: #ff7f0e"/>
     <use xlink:href="#m62fcbac0dc" x="316.997273" y="149.471023" style="fill: #ff7f0e; stroke: #ff7f0e"/>
     <use xlink:href="#m62fcbac0dc" x="405.571136" y="97.892323" style="fill: #ff7f0e; stroke: #ff7f0e"/>
     <use xlink:href="#m62fcbac0dc" x="494.145" y="129.864771" style="fill: #ff7f0e; stroke: #ff7f0e"/>
     <use xlink:href="#m62fcbac0dc" x="582.718864" y="161.83722" style="fill: #ff7f0e; stroke: #ff7f0e"/>
     <use xlink:href="#m62fcbac0dc" x="671.292727" y="281.397188" style="fill: #ff7f0e; stroke: #ff7f0e"/>
     <use xlink:href="#m62fcbac0dc" x="759.866591" y="281.397188" style="fill: #ff7f0e; stroke: #ff7f0e"/>
     <use xlink:href="#m62fcbac0dc" x="848.440455" y="281.397188" style="fill: #ff7f0e; stroke: #ff7f0e"/>
    </g>
   </g>
   <g id="matplotlib.axis_1">
    <g id="xtick_1">
     <g id="line2d_1">
      <defs>
       <path id="m3385fdae1e" d="M 0 0 
L 0 3.5 
" style="stroke: #000000; stroke-width: 0.8"/>
      </defs>
      <g>
       <use xlink:href="#m3385fdae1e" x="139.849545" y="595.44" style="stroke: #000000; stroke-width: 0.8"/>
      </g>
     </g>
     <g id="text_1">
      <!-- 7 -->
      <g transform="translate(132.850795 619.156562) scale(0.22 -0.22)">
       <defs>
        <path id="DejaVuSans-37" d="M 525 4666 
L 3525 4666 
L 3525 4397 
L 1831 0 
L 1172 0 
L 2766 4134 
L 525 4134 
L 525 4666 
z
" transform="scale(0.015625)"/>
       </defs>
       <use xlink:href="#DejaVuSans-37"/>
      </g>
     </g>
    </g>
    <g id="xtick_2">
     <g id="line2d_2">
      <g>
       <use xlink:href="#m3385fdae1e" x="228.423409" y="595.44" style="stroke: #000000; stroke-width: 0.8"/>
      </g>
     </g>
     <g id="text_2">
      <!-- 8 -->
      <g transform="translate(221.424659 619.156562) scale(0.22 -0.22)">
       <defs>
        <path id="DejaVuSans-38" d="M 2034 2216 
Q 1584 2216 1326 1975 
Q 1069 1734 1069 1313 
Q 1069 891 1326 650 
Q 1584 409 2034 409 
Q 2484 409 2743 651 
Q 3003 894 3003 1313 
Q 3003 1734 2745 1975 
Q 2488 2216 2034 2216 
z
M 1403 2484 
Q 997 2584 770 2862 
Q 544 3141 544 3541 
Q 544 4100 942 4425 
Q 1341 4750 2034 4750 
Q 2731 4750 3128 4425 
Q 3525 4100 3525 3541 
Q 3525 3141 3298 2862 
Q 3072 2584 2669 2484 
Q 3125 2378 3379 2068 
Q 3634 1759 3634 1313 
Q 3634 634 3220 271 
Q 2806 -91 2034 -91 
Q 1263 -91 848 271 
Q 434 634 434 1313 
Q 434 1759 690 2068 
Q 947 2378 1403 2484 
z
M 1172 3481 
Q 1172 3119 1398 2916 
Q 1625 2713 2034 2713 
Q 2441 2713 2670 2916 
Q 2900 3119 2900 3481 
Q 2900 3844 2670 4047 
Q 2441 4250 2034 4250 
Q 1625 4250 1398 4047 
Q 1172 3844 1172 3481 
z
" transform="scale(0.015625)"/>
       </defs>
       <use xlink:href="#DejaVuSans-38"/>
      </g>
     </g>
    </g>
    <g id="xtick_3">
     <g id="line2d_3">
      <g>
       <use xlink:href="#m3385fdae1e" x="316.997273" y="595.44" style="stroke: #000000; stroke-width: 0.8"/>
      </g>
     </g>
     <g id="text_3">
      <!-- 9 -->
      <g transform="translate(309.998523 619.156562) scale(0.22 -0.22)">
       <defs>
        <path id="DejaVuSans-39" d="M 703 97 
L 703 672 
Q 941 559 1184 500 
Q 1428 441 1663 441 
Q 2288 441 2617 861 
Q 2947 1281 2994 2138 
Q 2813 1869 2534 1725 
Q 2256 1581 1919 1581 
Q 1219 1581 811 2004 
Q 403 2428 403 3163 
Q 403 3881 828 4315 
Q 1253 4750 1959 4750 
Q 2769 4750 3195 4129 
Q 3622 3509 3622 2328 
Q 3622 1225 3098 567 
Q 2575 -91 1691 -91 
Q 1453 -91 1209 -44 
Q 966 3 703 97 
z
M 1959 2075 
Q 2384 2075 2632 2365 
Q 2881 2656 2881 3163 
Q 2881 3666 2632 3958 
Q 2384 4250 1959 4250 
Q 1534 4250 1286 3958 
Q 1038 3666 1038 3163 
Q 1038 2656 1286 2365 
Q 1534 2075 1959 2075 
z
" transform="scale(0.015625)"/>
       </defs>
       <use xlink:href="#DejaVuSans-39"/>
      </g>
     </g>
    </g>
    <g id="xtick_4">
     <g id="line2d_4">
      <g>
       <use xlink:href="#m3385fdae1e" x="405.571136" y="595.44" style="stroke: #000000; stroke-width: 0.8"/>
      </g>
     </g>
     <g id="text_4">
      <!-- 10 -->
      <g transform="translate(391.573636 619.156562) scale(0.22 -0.22)">
       <defs>
        <path id="DejaVuSans-31" d="M 794 531 
L 1825 531 
L 1825 4091 
L 703 3866 
L 703 4441 
L 1819 4666 
L 2450 4666 
L 2450 531 
L 3481 531 
L 3481 0 
L 794 0 
L 794 531 
z
" transform="scale(0.015625)"/>
        <path id="DejaVuSans-30" d="M 2034 4250 
Q 1547 4250 1301 3770 
Q 1056 3291 1056 2328 
Q 1056 1369 1301 889 
Q 1547 409 2034 409 
Q 2525 409 2770 889 
Q 3016 1369 3016 2328 
Q 3016 3291 2770 3770 
Q 2525 4250 2034 4250 
z
M 2034 4750 
Q 2819 4750 3233 4129 
Q 3647 3509 3647 2328 
Q 3647 1150 3233 529 
Q 2819 -91 2034 -91 
Q 1250 -91 836 529 
Q 422 1150 422 2328 
Q 422 3509 836 4129 
Q 1250 4750 2034 4750 
z
" transform="scale(0.015625)"/>
       </defs>
       <use xlink:href="#DejaVuSans-31"/>
       <use xlink:href="#DejaVuSans-30" x="63.623047"/>
      </g>
     </g>
    </g>
    <g id="xtick_5">
     <g id="line2d_5">
      <g>
       <use xlink:href="#m3385fdae1e" x="494.145" y="595.44" style="stroke: #000000; stroke-width: 0.8"/>
      </g>
     </g>
     <g id="text_5">
      <!-- 11 -->
      <g transform="translate(480.1475 619.156562) scale(0.22 -0.22)">
       <use xlink:href="#DejaVuSans-31"/>
       <use xlink:href="#DejaVuSans-31" x="63.623047"/>
      </g>
     </g>
    </g>
    <g id="xtick_6">
     <g id="line2d_6">
      <g>
       <use xlink:href="#m3385fdae1e" x="582.718864" y="595.44" style="stroke: #000000; stroke-width: 0.8"/>
      </g>
     </g>
     <g id="text_6">
      <!-- 12 -->
      <g transform="translate(568.721364 619.156562) scale(0.22 -0.22)">
       <defs>
        <path id="DejaVuSans-32" d="M 1228 531 
L 3431 531 
L 3431 0 
L 469 0 
L 469 531 
Q 828 903 1448 1529 
Q 2069 2156 2228 2338 
Q 2531 2678 2651 2914 
Q 2772 3150 2772 3378 
Q 2772 3750 2511 3984 
Q 2250 4219 1831 4219 
Q 1534 4219 1204 4116 
Q 875 4013 500 3803 
L 500 4441 
Q 881 4594 1212 4672 
Q 1544 4750 1819 4750 
Q 2544 4750 2975 4387 
Q 3406 4025 3406 3419 
Q 3406 3131 3298 2873 
Q 3191 2616 2906 2266 
Q 2828 2175 2409 1742 
Q 1991 1309 1228 531 
z
" transform="scale(0.015625)"/>
       </defs>
       <use xlink:href="#DejaVuSans-31"/>
       <use xlink:href="#DejaVuSans-32" x="63.623047"/>
      </g>
     </g>
    </g>
    <g id="xtick_7">
     <g id="line2d_7">
      <g>
       <use xlink:href="#m3385fdae1e" x="671.292727" y="595.44" style="stroke: #000000; stroke-width: 0.8"/>
      </g>
     </g>
     <g id="text_7">
      <!-- 13 -->
      <g transform="translate(657.295227 619.156562) scale(0.22 -0.22)">
       <defs>
        <path id="DejaVuSans-33" d="M 2597 2516 
Q 3050 2419 3304 2112 
Q 3559 1806 3559 1356 
Q 3559 666 3084 287 
Q 2609 -91 1734 -91 
Q 1441 -91 1130 -33 
Q 819 25 488 141 
L 488 750 
Q 750 597 1062 519 
Q 1375 441 1716 441 
Q 2309 441 2620 675 
Q 2931 909 2931 1356 
Q 2931 1769 2642 2001 
Q 2353 2234 1838 2234 
L 1294 2234 
L 1294 2753 
L 1863 2753 
Q 2328 2753 2575 2939 
Q 2822 3125 2822 3475 
Q 2822 3834 2567 4026 
Q 2313 4219 1838 4219 
Q 1578 4219 1281 4162 
Q 984 4106 628 3988 
L 628 4550 
Q 988 4650 1302 4700 
Q 1616 4750 1894 4750 
Q 2613 4750 3031 4423 
Q 3450 4097 3450 3541 
Q 3450 3153 3228 2886 
Q 3006 2619 2597 2516 
z
" transform="scale(0.015625)"/>
       </defs>
       <use xlink:href="#DejaVuSans-31"/>
       <use xlink:href="#DejaVuSans-33" x="63.623047"/>
      </g>
     </g>
    </g>
    <g id="xtick_8">
     <g id="line2d_8">
      <g>
       <use xlink:href="#m3385fdae1e" x="759.866591" y="595.44" style="stroke: #000000; stroke-width: 0.8"/>
      </g>
     </g>
     <g id="text_8">
      <!-- 14 -->
      <g transform="translate(745.869091 619.156562) scale(0.22 -0.22)">
       <defs>
        <path id="DejaVuSans-34" d="M 2419 4116 
L 825 1625 
L 2419 1625 
L 2419 4116 
z
M 2253 4666 
L 3047 4666 
L 3047 1625 
L 3713 1625 
L 3713 1100 
L 3047 1100 
L 3047 0 
L 2419 0 
L 2419 1100 
L 313 1100 
L 313 1709 
L 2253 4666 
z
" transform="scale(0.015625)"/>
       </defs>
       <use xlink:href="#DejaVuSans-31"/>
       <use xlink:href="#DejaVuSans-34" x="63.623047"/>
      </g>
     </g>
    </g>
    <g id="xtick_9">
     <g id="line2d_9">
      <g>
       <use xlink:href="#m3385fdae1e" x="848.440455" y="595.44" style="stroke: #000000; stroke-width: 0.8"/>
      </g>
     </g>
     <g id="text_9">
      <!-- 15 -->
      <g transform="translate(834.442955 619.156562) scale(0.22 -0.22)">
       <defs>
        <path id="DejaVuSans-35" d="M 691 4666 
L 3169 4666 
L 3169 4134 
L 1269 4134 
L 1269 2991 
Q 1406 3038 1543 3061 
Q 1681 3084 1819 3084 
Q 2600 3084 3056 2656 
Q 3513 2228 3513 1497 
Q 3513 744 3044 326 
Q 2575 -91 1722 -91 
Q 1428 -91 1123 -41 
Q 819 9 494 109 
L 494 744 
Q 775 591 1075 516 
Q 1375 441 1709 441 
Q 2250 441 2565 725 
Q 2881 1009 2881 1497 
Q 2881 1984 2565 2268 
Q 2250 2553 1709 2553 
Q 1456 2553 1204 2497 
Q 953 2441 691 2322 
L 691 4666 
z
" transform="scale(0.015625)"/>
       </defs>
       <use xlink:href="#DejaVuSans-31"/>
       <use xlink:href="#DejaVuSans-35" x="63.623047"/>
      </g>
     </g>
    </g>
    <g id="text_10">
     <!-- Time (days) -->
     <g transform="translate(429.186563 644.448437) scale(0.22 -0.22)">
      <defs>
       <path id="DejaVuSans-54" d="M -19 4666 
L 3928 4666 
L 3928 4134 
L 2272 4134 
L 2272 0 
L 1638 0 
L 1638 4134 
L -19 4134 
L -19 4666 
z
" transform="scale(0.015625)"/>
       <path id="DejaVuSans-69" d="M 603 3500 
L 1178 3500 
L 1178 0 
L 603 0 
L 603 3500 
z
M 603 4863 
L 1178 4863 
L 1178 4134 
L 603 4134 
L 603 4863 
z
" transform="scale(0.015625)"/>
       <path id="DejaVuSans-6d" d="M 3328 2828 
Q 3544 3216 3844 3400 
Q 4144 3584 4550 3584 
Q 5097 3584 5394 3201 
Q 5691 2819 5691 2113 
L 5691 0 
L 5113 0 
L 5113 2094 
Q 5113 2597 4934 2840 
Q 4756 3084 4391 3084 
Q 3944 3084 3684 2787 
Q 3425 2491 3425 1978 
L 3425 0 
L 2847 0 
L 2847 2094 
Q 2847 2600 2669 2842 
Q 2491 3084 2119 3084 
Q 1678 3084 1418 2786 
Q 1159 2488 1159 1978 
L 1159 0 
L 581 0 
L 581 3500 
L 1159 3500 
L 1159 2956 
Q 1356 3278 1631 3431 
Q 1906 3584 2284 3584 
Q 2666 3584 2933 3390 
Q 3200 3197 3328 2828 
z
" transform="scale(0.015625)"/>
       <path id="DejaVuSans-65" d="M 3597 1894 
L 3597 1613 
L 953 1613 
Q 991 1019 1311 708 
Q 1631 397 2203 397 
Q 2534 397 2845 478 
Q 3156 559 3463 722 
L 3463 178 
Q 3153 47 2828 -22 
Q 2503 -91 2169 -91 
Q 1331 -91 842 396 
Q 353 884 353 1716 
Q 353 2575 817 3079 
Q 1281 3584 2069 3584 
Q 2775 3584 3186 3129 
Q 3597 2675 3597 1894 
z
M 3022 2063 
Q 3016 2534 2758 2815 
Q 2500 3097 2075 3097 
Q 1594 3097 1305 2825 
Q 1016 2553 972 2059 
L 3022 2063 
z
" transform="scale(0.015625)"/>
       <path id="DejaVuSans-20" transform="scale(0.015625)"/>
       <path id="DejaVuSans-28" d="M 1984 4856 
Q 1566 4138 1362 3434 
Q 1159 2731 1159 2009 
Q 1159 1288 1364 580 
Q 1569 -128 1984 -844 
L 1484 -844 
Q 1016 -109 783 600 
Q 550 1309 550 2009 
Q 550 2706 781 3412 
Q 1013 4119 1484 4856 
L 1984 4856 
z
" transform="scale(0.015625)"/>
       <path id="DejaVuSans-64" d="M 2906 2969 
L 2906 4863 
L 3481 4863 
L 3481 0 
L 2906 0 
L 2906 525 
Q 2725 213 2448 61 
Q 2172 -91 1784 -91 
Q 1150 -91 751 415 
Q 353 922 353 1747 
Q 353 2572 751 3078 
Q 1150 3584 1784 3584 
Q 2172 3584 2448 3432 
Q 2725 3281 2906 2969 
z
M 947 1747 
Q 947 1113 1208 752 
Q 1469 391 1925 391 
Q 2381 391 2643 752 
Q 2906 1113 2906 1747 
Q 2906 2381 2643 2742 
Q 2381 3103 1925 3103 
Q 1469 3103 1208 2742 
Q 947 2381 947 1747 
z
" transform="scale(0.015625)"/>
       <path id="DejaVuSans-61" d="M 2194 1759 
Q 1497 1759 1228 1600 
Q 959 1441 959 1056 
Q 959 750 1161 570 
Q 1363 391 1709 391 
Q 2188 391 2477 730 
Q 2766 1069 2766 1631 
L 2766 1759 
L 2194 1759 
z
M 3341 1997 
L 3341 0 
L 2766 0 
L 2766 531 
Q 2569 213 2275 61 
Q 1981 -91 1556 -91 
Q 1019 -91 701 211 
Q 384 513 384 1019 
Q 384 1609 779 1909 
Q 1175 2209 1959 2209 
L 2766 2209 
L 2766 2266 
Q 2766 2663 2505 2880 
Q 2244 3097 1772 3097 
Q 1472 3097 1187 3025 
Q 903 2953 641 2809 
L 641 3341 
Q 956 3463 1253 3523 
Q 1550 3584 1831 3584 
Q 2591 3584 2966 3190 
Q 3341 2797 3341 1997 
z
" transform="scale(0.015625)"/>
       <path id="DejaVuSans-79" d="M 2059 -325 
Q 1816 -950 1584 -1140 
Q 1353 -1331 966 -1331 
L 506 -1331 
L 506 -850 
L 844 -850 
Q 1081 -850 1212 -737 
Q 1344 -625 1503 -206 
L 1606 56 
L 191 3500 
L 800 3500 
L 1894 763 
L 2988 3500 
L 3597 3500 
L 2059 -325 
z
" transform="scale(0.015625)"/>
       <path id="DejaVuSans-73" d="M 2834 3397 
L 2834 2853 
Q 2591 2978 2328 3040 
Q 2066 3103 1784 3103 
Q 1356 3103 1142 2972 
Q 928 2841 928 2578 
Q 928 2378 1081 2264 
Q 1234 2150 1697 2047 
L 1894 2003 
Q 2506 1872 2764 1633 
Q 3022 1394 3022 966 
Q 3022 478 2636 193 
Q 2250 -91 1575 -91 
Q 1294 -91 989 -36 
Q 684 19 347 128 
L 347 722 
Q 666 556 975 473 
Q 1284 391 1588 391 
Q 1994 391 2212 530 
Q 2431 669 2431 922 
Q 2431 1156 2273 1281 
Q 2116 1406 1581 1522 
L 1381 1569 
Q 847 1681 609 1914 
Q 372 2147 372 2553 
Q 372 3047 722 3315 
Q 1072 3584 1716 3584 
Q 2034 3584 2315 3537 
Q 2597 3491 2834 3397 
z
" transform="scale(0.015625)"/>
       <path id="DejaVuSans-29" d="M 513 4856 
L 1013 4856 
Q 1481 4119 1714 3412 
Q 1947 2706 1947 2009 
Q 1947 1309 1714 600 
Q 1481 -109 1013 -844 
L 513 -844 
Q 928 -128 1133 580 
Q 1338 1288 1338 2009 
Q 1338 2731 1133 3434 
Q 928 4138 513 4856 
z
" transform="scale(0.015625)"/>
      </defs>
      <use xlink:href="#DejaVuSans-54"/>
      <use xlink:href="#DejaVuSans-69" x="57.958984"/>
      <use xlink:href="#DejaVuSans-6d" x="85.742188"/>
      <use xlink:href="#DejaVuSans-65" x="183.154297"/>
      <use xlink:href="#DejaVuSans-20" x="244.677734"/>
      <use xlink:href="#DejaVuSans-28" x="276.464844"/>
      <use xlink:href="#DejaVuSans-64" x="315.478516"/>
      <use xlink:href="#DejaVuSans-61" x="378.955078"/>
      <use xlink:href="#DejaVuSans-79" x="440.234375"/>
      <use xlink:href="#DejaVuSans-73" x="499.414062"/>
      <use xlink:href="#DejaVuSans-29" x="551.513672"/>
     </g>
    </g>
   </g>
   <g id="matplotlib.axis_2">
    <g id="ytick_1">
     <g id="line2d_10">
      <defs>
       <path id="ma600d9e374" d="M 0 0 
L -3.5 0 
" style="stroke: #000000; stroke-width: 0.8"/>
      </defs>
      <g>
       <use xlink:href="#ma600d9e374" x="104.42" y="569.743217" style="stroke: #000000; stroke-width: 0.8"/>
      </g>
     </g>
     <g id="text_11">
      <!-- 0.00 -->
      <g transform="translate(48.435625 578.101498) scale(0.22 -0.22)">
       <defs>
        <path id="DejaVuSans-2e" d="M 684 794 
L 1344 794 
L 1344 0 
L 684 0 
L 684 794 
z
" transform="scale(0.015625)"/>
       </defs>
       <use xlink:href="#DejaVuSans-30"/>
       <use xlink:href="#DejaVuSans-2e" x="63.623047"/>
       <use xlink:href="#DejaVuSans-30" x="95.410156"/>
       <use xlink:href="#DejaVuSans-30" x="159.033203"/>
      </g>
     </g>
    </g>
    <g id="ytick_2">
     <g id="line2d_11">
      <g>
       <use xlink:href="#ma600d9e374" x="104.42" y="502.651272" style="stroke: #000000; stroke-width: 0.8"/>
      </g>
     </g>
     <g id="text_12">
      <!-- 0.25 -->
      <g transform="translate(48.435625 511.009553) scale(0.22 -0.22)">
       <use xlink:href="#DejaVuSans-30"/>
       <use xlink:href="#DejaVuSans-2e" x="63.623047"/>
       <use xlink:href="#DejaVuSans-32" x="95.410156"/>
       <use xlink:href="#DejaVuSans-35" x="159.033203"/>
      </g>
     </g>
    </g>
    <g id="ytick_3">
     <g id="line2d_12">
      <g>
       <use xlink:href="#ma600d9e374" x="104.42" y="435.559327" style="stroke: #000000; stroke-width: 0.8"/>
      </g>
     </g>
     <g id="text_13">
      <!-- 0.50 -->
      <g transform="translate(48.435625 443.917608) scale(0.22 -0.22)">
       <use xlink:href="#DejaVuSans-30"/>
       <use xlink:href="#DejaVuSans-2e" x="63.623047"/>
       <use xlink:href="#DejaVuSans-35" x="95.410156"/>
       <use xlink:href="#DejaVuSans-30" x="159.033203"/>
      </g>
     </g>
    </g>
    <g id="ytick_4">
     <g id="line2d_13">
      <g>
       <use xlink:href="#ma600d9e374" x="104.42" y="368.467382" style="stroke: #000000; stroke-width: 0.8"/>
      </g>
     </g>
     <g id="text_14">
      <!-- 0.75 -->
      <g transform="translate(48.435625 376.825663) scale(0.22 -0.22)">
       <use xlink:href="#DejaVuSans-30"/>
       <use xlink:href="#DejaVuSans-2e" x="63.623047"/>
       <use xlink:href="#DejaVuSans-37" x="95.410156"/>
       <use xlink:href="#DejaVuSans-35" x="159.033203"/>
      </g>
     </g>
    </g>
    <g id="ytick_5">
     <g id="line2d_14">
      <g>
       <use xlink:href="#ma600d9e374" x="104.42" y="301.375436" style="stroke: #000000; stroke-width: 0.8"/>
      </g>
     </g>
     <g id="text_15">
      <!-- 1.00 -->
      <g transform="translate(48.435625 309.733718) scale(0.22 -0.22)">
       <use xlink:href="#DejaVuSans-31"/>
       <use xlink:href="#DejaVuSans-2e" x="63.623047"/>
       <use xlink:href="#DejaVuSans-30" x="95.410156"/>
       <use xlink:href="#DejaVuSans-30" x="159.033203"/>
      </g>
     </g>
    </g>
    <g id="ytick_6">
     <g id="line2d_15">
      <g>
       <use xlink:href="#ma600d9e374" x="104.42" y="234.283491" style="stroke: #000000; stroke-width: 0.8"/>
      </g>
     </g>
     <g id="text_16">
      <!-- 1.25 -->
      <g transform="translate(48.435625 242.641772) scale(0.22 -0.22)">
       <use xlink:href="#DejaVuSans-31"/>
       <use xlink:href="#DejaVuSans-2e" x="63.623047"/>
       <use xlink:href="#DejaVuSans-32" x="95.410156"/>
       <use xlink:href="#DejaVuSans-35" x="159.033203"/>
      </g>
     </g>
    </g>
    <g id="ytick_7">
     <g id="line2d_16">
      <g>
       <use xlink:href="#ma600d9e374" x="104.42" y="167.191546" style="stroke: #000000; stroke-width: 0.8"/>
      </g>
     </g>
     <g id="text_17">
      <!-- 1.50 -->
      <g transform="translate(48.435625 175.549827) scale(0.22 -0.22)">
       <use xlink:href="#DejaVuSans-31"/>
       <use xlink:href="#DejaVuSans-2e" x="63.623047"/>
       <use xlink:href="#DejaVuSans-35" x="95.410156"/>
       <use xlink:href="#DejaVuSans-30" x="159.033203"/>
      </g>
     </g>
    </g>
    <g id="ytick_8">
     <g id="line2d_17">
      <g>
       <use xlink:href="#ma600d9e374" x="104.42" y="100.099601" style="stroke: #000000; stroke-width: 0.8"/>
      </g>
     </g>
     <g id="text_18">
      <!-- 1.75 -->
      <g transform="translate(48.435625 108.457882) scale(0.22 -0.22)">
       <use xlink:href="#DejaVuSans-31"/>
       <use xlink:href="#DejaVuSans-2e" x="63.623047"/>
       <use xlink:href="#DejaVuSans-37" x="95.410156"/>
       <use xlink:href="#DejaVuSans-35" x="159.033203"/>
      </g>
     </g>
    </g>
    <g id="ytick_9">
     <g id="line2d_18">
      <g>
       <use xlink:href="#ma600d9e374" x="104.42" y="33.007656" style="stroke: #000000; stroke-width: 0.8"/>
      </g>
     </g>
     <g id="text_19">
      <!-- 2.00 -->
      <g transform="translate(48.435625 41.365937) scale(0.22 -0.22)">
       <use xlink:href="#DejaVuSans-32"/>
       <use xlink:href="#DejaVuSans-2e" x="63.623047"/>
       <use xlink:href="#DejaVuSans-30" x="95.410156"/>
       <use xlink:href="#DejaVuSans-30" x="159.033203"/>
      </g>
     </g>
    </g>
    <g id="text_20">
     <!-- X:A -->
     <g transform="translate(39.860313 328.365312) rotate(-90) scale(0.22 -0.22)">
      <defs>
       <path id="DejaVuSans-58" d="M 403 4666 
L 1081 4666 
L 2241 2931 
L 3406 4666 
L 4084 4666 
L 2584 2425 
L 4184 0 
L 3506 0 
L 2194 1984 
L 872 0 
L 191 0 
L 1856 2491 
L 403 4666 
z
" transform="scale(0.015625)"/>
       <path id="DejaVuSans-3a" d="M 750 794 
L 1409 794 
L 1409 0 
L 750 0 
L 750 794 
z
M 750 3309 
L 1409 3309 
L 1409 2516 
L 750 2516 
L 750 3309 
z
" transform="scale(0.015625)"/>
       <path id="DejaVuSans-41" d="M 2188 4044 
L 1331 1722 
L 3047 1722 
L 2188 4044 
z
M 1831 4666 
L 2547 4666 
L 4325 0 
L 3669 0 
L 3244 1197 
L 1141 1197 
L 716 0 
L 50 0 
L 1831 4666 
z
" transform="scale(0.015625)"/>
      </defs>
      <use xlink:href="#DejaVuSans-58"/>
      <use xlink:href="#DejaVuSans-3a" x="68.505859"/>
      <use xlink:href="#DejaVuSans-41" x="102.197266"/>
     </g>
    </g>
   </g>
   <g id="line2d_19">
    <path d="M 139.849545 569.454545 
L 147.007029 562.135619 
L 154.164513 557.193818 
L 161.321997 553.600954 
L 168.479481 550.842498 
L 175.636965 548.656858 
L 182.794449 546.858804 
L 189.951933 545.341698 
L 197.109417 544.045511 
L 204.266901 542.920213 
L 211.424385 541.924941 
L 218.581869 541.029369 
L 225.739353 540.218023 
L 232.896837 539.477526 
L 240.05432 538.795853 
L 247.211804 538.162695 
L 254.369288 537.569463 
L 261.526772 537.009283 
L 268.684256 536.477164 
L 275.84174 535.969377 
L 282.999224 535.482436 
L 290.156708 535.013034 
L 297.314192 534.55804 
L 304.471676 534.114496 
L 311.62916 533.679626 
L 318.786644 533.250826 
L 325.944128 532.825981 
L 333.101612 532.403899 
L 340.259096 531.98326 
L 347.416579 531.562418 
L 354.574063 531.139401 
L 361.731547 530.711909 
L 368.889031 530.277317 
L 376.046515 529.83283 
L 383.203999 529.376911 
L 390.361483 528.908194 
L 397.518967 528.424538 
L 404.676451 527.923042 
L 411.833935 527.400044 
L 418.991419 526.851114 
L 426.148903 526.27106 
L 433.306387 525.654472 
L 440.463871 524.997387 
L 447.621354 524.294197 
L 454.778838 523.536782 
L 461.936322 522.714511 
L 469.093806 521.814241 
L 476.25129 520.820314 
L 483.408774 519.711883 
L 490.566258 518.467507 
L 497.723742 517.065342 
L 504.881226 515.466981 
L 512.03871 513.617001 
L 519.196194 511.442964 
L 526.353678 508.855418 
L 533.511162 505.738174 
L 540.668646 501.926594 
L 547.826129 497.178204 
L 554.983613 491.138449 
L 562.141097 483.340023 
L 569.298581 473.202874 
L 576.456065 460.034658 
L 583.613549 443.207534 
L 590.771033 422.565198 
L 597.928517 398.885354 
L 605.086001 374.01495 
L 612.243485 350.118009 
L 619.400969 328.639763 
L 626.558453 310.41435 
L 633.715937 295.603597 
L 640.873421 283.880513 
L 648.030904 274.815791 
L 655.188388 267.934079 
L 662.345872 262.730249 
L 669.503356 258.825774 
L 676.66084 255.940398 
L 683.818324 253.808351 
L 690.975808 252.20145 
L 698.133292 251.014376 
L 705.290776 250.166058 
L 712.44826 249.562166 
L 719.605744 249.097791 
L 726.763228 248.725668 
L 733.920712 248.45256 
L 741.078196 248.272893 
L 748.23568 248.16715 
L 755.393163 248.101865 
L 762.550647 248.03117 
L 769.708131 247.950494 
L 776.865615 247.882333 
L 784.023099 247.83709 
L 791.180583 247.818649 
L 798.338067 247.824373 
L 805.495551 247.845102 
L 812.653035 247.865154 
L 819.810519 247.862341 
L 826.968003 247.843339 
L 834.125487 247.829609 
L 841.282971 247.81993 
L 848.440455 247.812891 
" clip-path="url(#p13386ddcbc)" style="fill: none; stroke: #d0e1f2; stroke-width: 1.5; stroke-linecap: square"/>
   </g>
   <g id="line2d_20">
    <path d="M 139.849545 139.644826 
L 147.007029 135.054869 
L 154.164513 132.234793 
L 161.321997 130.543704 
L 168.479481 129.539603 
L 175.636965 129.015602 
L 182.794449 128.743999 
L 189.951933 128.568878 
L 197.109417 128.533266 
L 204.266901 128.630698 
L 211.424385 128.772078 
L 218.581869 128.826302 
L 225.739353 128.854989 
L 232.896837 128.916478 
L 240.05432 129.028836 
L 247.211804 129.177906 
L 254.369288 129.317311 
L 261.526772 129.372476 
L 268.684256 129.34437 
L 275.84174 129.317413 
L 282.999224 129.349244 
L 290.156708 129.465126 
L 297.314192 129.657943 
L 304.471676 129.888202 
L 311.62916 130.084033 
L 318.786644 130.141224 
L 325.944128 130.026073 
L 333.101612 129.895654 
L 340.259096 129.864963 
L 347.416579 129.982828 
L 354.574063 130.231908 
L 361.731547 130.528697 
L 368.889031 130.723517 
L 376.046515 130.644729 
L 383.203999 130.440234 
L 390.361483 130.311296 
L 397.518967 130.363492 
L 404.676451 130.614432 
L 411.833935 130.993756 
L 418.991419 131.343137 
L 426.148903 131.417912 
L 433.306387 131.195488 
L 440.463871 130.981115 
L 447.621354 130.956645 
L 454.778838 131.191561 
L 461.936322 131.642978 
L 469.093806 132.155647 
L 476.25129 132.46195 
L 483.408774 132.362387 
L 490.566258 132.2174 
L 497.723742 132.252008 
L 504.881226 132.56478 
L 512.03871 133.138218 
L 519.196194 133.838753 
L 526.353678 134.416749 
L 533.511162 134.70594 
L 540.668646 135.075208 
L 547.826129 135.776142 
L 554.983613 136.981291 
L 562.141097 138.791351 
L 569.298581 141.235168 
L 576.456065 144.270515 
L 583.613549 148.249962 
L 590.771033 154.118833 
L 597.928517 162.269767 
L 605.086001 172.466488 
L 612.243485 184.083872 
L 619.400969 196.663342 
L 626.558453 209.438592 
L 633.715937 221.233172 
L 640.873421 231.438612 
L 648.030904 240.440284 
L 655.188388 248.157798 
L 662.345872 254.155026 
L 669.503356 258.895952 
L 676.66084 262.726413 
L 683.818324 265.721729 
L 690.975808 267.932557 
L 698.133292 269.629399 
L 705.290776 270.969942 
L 712.44826 272.018057 
L 719.605744 272.756126 
L 726.763228 273.275051 
L 733.920712 273.669207 
L 741.078196 273.986041 
L 748.23568 274.247224 
L 755.393163 274.448655 
L 762.550647 274.559511 
L 769.708131 274.554902 
L 776.865615 274.518035 
L 784.023099 274.521931 
L 791.180583 274.602294 
L 798.338067 274.757518 
L 805.495551 274.948684 
L 812.653035 275.099559 
L 819.810519 275.096683 
L 826.968003 274.997242 
L 834.125487 274.940627 
L 841.282971 274.919012 
L 848.440455 274.908377 
" clip-path="url(#p13386ddcbc)" style="fill: none; stroke: #fdd9b4; stroke-width: 1.5; stroke-linecap: square"/>
   </g>
   <g id="line2d_21">
    <path d="M 139.849545 569.454545 
L 147.007029 560.766824 
L 154.164513 554.974561 
L 161.321997 550.812617 
L 168.479481 547.666864 
L 175.636965 545.199287 
L 182.794449 543.181637 
L 189.951933 541.501088 
L 197.109417 540.082058 
L 204.266901 538.859729 
L 211.424385 537.78009 
L 218.581869 536.810955 
L 225.739353 535.938517 
L 232.896837 535.147709 
L 240.05432 534.424901 
L 247.211804 533.7579 
L 254.369288 533.135948 
L 261.526772 532.549725 
L 268.684256 531.992385 
L 275.84174 531.461631 
L 282.999224 530.953959 
L 290.156708 530.465911 
L 297.314192 529.994262 
L 304.471676 529.536009 
L 311.62916 529.088382 
L 318.786644 528.648835 
L 325.944128 528.215051 
L 333.101612 527.784942 
L 340.259096 527.356263 
L 347.416579 526.927103 
L 354.574063 526.49625 
L 361.731547 526.06223 
L 368.889031 525.623297 
L 376.046515 525.177434 
L 383.203999 524.722349 
L 390.361483 524.255482 
L 397.518967 523.773997 
L 404.676451 523.27479 
L 411.833935 522.754481 
L 418.991419 522.209422 
L 426.148903 521.63569 
L 433.306387 521.029086 
L 440.463871 520.375865 
L 447.621354 519.670996 
L 454.778838 518.917058 
L 461.936322 518.110547 
L 469.093806 517.241877 
L 476.25129 516.295381 
L 483.408774 515.249308 
L 490.566258 514.075828 
L 497.723742 512.741028 
L 504.881226 511.204912 
L 512.03871 509.421405 
L 519.196194 507.338347 
L 526.353678 504.888381 
L 533.511162 501.952491 
L 540.668646 498.388618 
L 547.826129 493.95961 
L 554.983613 488.324311 
L 562.141097 481.03756 
L 569.298581 471.550194 
L 576.456065 459.209046 
L 583.613549 443.30085 
L 590.771033 423.625938 
L 597.928517 400.877818 
L 605.086001 376.596838 
L 612.243485 353.138203 
L 619.400969 332.264732 
L 626.558453 314.559059 
L 633.715937 300.222664 
L 640.873421 289.007156 
L 648.030904 280.309969 
L 655.188388 273.689217 
L 662.345872 268.780355 
L 669.503356 265.185216 
L 676.66084 262.486278 
L 683.818324 260.455525 
L 690.975808 258.980593 
L 698.133292 257.930678 
L 705.290776 257.15964 
L 712.44826 256.547797 
L 719.605744 256.086666 
L 726.763228 255.770422 
L 733.920712 255.573636 
L 741.078196 255.451277 
L 748.23568 255.339323 
L 755.393163 255.219927 
L 762.550647 255.122387 
L 769.708131 255.057226 
L 776.865615 255.02679 
L 784.023099 255.025244 
L 791.180583 255.038575 
L 798.338067 255.044592 
L 805.495551 255.023184 
L 812.653035 255.001766 
L 819.810519 254.986325 
L 826.968003 254.976891 
L 834.125487 254.972334 
L 841.282971 254.970364 
L 848.440455 254.967536 
" clip-path="url(#p13386ddcbc)" style="fill: none; stroke: #b7d4ea; stroke-width: 1.5; stroke-linecap: square"/>
   </g>
   <g id="line2d_22">
    <path d="M 139.849545 139.644826 
L 147.007029 135.402264 
L 154.164513 132.274024 
L 161.321997 130.008969 
L 168.479481 128.395077 
L 175.636965 127.269577 
L 182.794449 126.490815 
L 189.951933 125.968401 
L 197.109417 125.653935 
L 204.266901 125.492202 
L 211.424385 125.419991 
L 218.581869 125.38101 
L 225.739353 125.381261 
L 232.896837 125.434436 
L 240.05432 125.541809 
L 247.211804 125.692239 
L 254.369288 125.862167 
L 261.526772 126.015619 
L 268.684256 126.122458 
L 275.84174 126.216026 
L 282.999224 126.311595 
L 290.156708 126.417753 
L 297.314192 126.539021 
L 304.471676 126.675852 
L 311.62916 126.824631 
L 318.786644 126.977679 
L 325.944128 127.123246 
L 333.101612 127.245517 
L 340.259096 127.333438 
L 347.416579 127.401985 
L 354.574063 127.466478 
L 361.731547 127.539066 
L 368.889031 127.628796 
L 376.046515 127.74161 
L 383.203999 127.88035 
L 390.361483 128.044751 
L 397.518967 128.231446 
L 404.676451 128.433966 
L 411.833935 128.642735 
L 418.991419 128.845078 
L 426.148903 129.025213 
L 433.306387 129.164262 
L 440.463871 129.262067 
L 447.621354 129.350579 
L 454.778838 129.454648 
L 461.936322 129.594185 
L 469.093806 129.784167 
L 476.25129 130.034635 
L 483.408774 130.350695 
L 490.566258 130.732516 
L 497.723742 131.175333 
L 504.881226 131.669443 
L 512.03871 132.20021 
L 519.196194 132.748061 
L 526.353678 133.311422 
L 533.511162 133.997008 
L 540.668646 134.84355 
L 547.826129 135.917163 
L 554.983613 137.330216 
L 562.141097 139.241331 
L 569.298581 141.855386 
L 576.456065 145.423508 
L 583.613549 150.241604 
L 590.771033 156.814245 
L 597.928517 165.564666 
L 605.086001 176.37912 
L 612.243485 188.594068 
L 619.400969 201.328519 
L 626.558453 213.934699 
L 633.715937 225.860263 
L 640.873421 236.63709 
L 648.030904 245.945029 
L 655.188388 253.94349 
L 662.345872 260.842975 
L 669.503356 266.678618 
L 676.66084 271.356101 
L 683.818324 275.12015 
L 690.975808 278.194822 
L 698.133292 280.703152 
L 705.290776 282.708865 
L 712.44826 284.278776 
L 719.605744 285.525892 
L 726.763228 286.522937 
L 733.920712 287.323003 
L 741.078196 287.959557 
L 748.23568 288.446957 
L 755.393163 288.82197 
L 762.550647 289.118577 
L 769.708131 289.351177 
L 776.865615 289.532218 
L 784.023099 289.672197 
L 791.180583 289.779656 
L 798.338067 289.861189 
L 805.495551 289.922193 
L 812.653035 289.969842 
L 819.810519 290.008056 
L 826.968003 290.039345 
L 834.125487 290.065205 
L 841.282971 290.086119 
L 848.440455 290.101551 
" clip-path="url(#p13386ddcbc)" style="fill: none; stroke: #fdc38d; stroke-width: 1.5; stroke-linecap: square"/>
   </g>
   <g id="line2d_23">
    <path d="M 139.849545 569.454545 
L 147.007029 557.808222 
L 154.164513 548.371047 
L 161.321997 540.827713 
L 168.479481 534.883245 
L 175.636965 530.25281 
L 182.794449 526.694442 
L 189.951933 524.03586 
L 197.109417 522.096243 
L 204.266901 520.680741 
L 211.424385 519.61327 
L 218.581869 518.826436 
L 225.739353 518.266309 
L 232.896837 517.868498 
L 240.05432 517.561583 
L 247.211804 517.321766 
L 254.369288 517.14491 
L 261.526772 517.018501 
L 268.684256 516.92535 
L 275.84174 516.844533 
L 282.999224 516.770738 
L 290.156708 516.70737 
L 297.314192 516.654097 
L 304.471676 516.607935 
L 311.62916 516.563242 
L 318.786644 516.511726 
L 325.944128 516.447677 
L 333.101612 516.375075 
L 340.259096 516.29473 
L 347.416579 516.205912 
L 354.574063 516.106399 
L 361.731547 515.992481 
L 368.889031 515.858955 
L 376.046515 515.69913 
L 383.203999 515.505982 
L 390.361483 515.281978 
L 397.518967 515.021381 
L 404.676451 514.713687 
L 411.833935 514.346185 
L 418.991419 513.903961 
L 426.148903 513.369895 
L 433.306387 512.724661 
L 440.463871 511.946731 
L 447.621354 511.012369 
L 454.778838 509.895635 
L 461.936322 508.568383 
L 469.093806 506.992786 
L 476.25129 505.102124 
L 483.408774 502.831987 
L 490.566258 500.129559 
L 497.723742 496.953626 
L 504.881226 493.27457 
L 512.03871 489.074369 
L 519.196194 484.348704 
L 526.353678 479.115822 
L 533.511162 473.391262 
L 540.668646 467.196808 
L 547.826129 460.563128 
L 554.983613 453.52977 
L 562.141097 446.145163 
L 569.298581 438.46675 
L 576.456065 430.555887 
L 583.613549 422.451239 
L 590.771033 414.188638 
L 597.928517 405.807898 
L 605.086001 397.352822 
L 612.243485 388.871193 
L 619.400969 380.414783 
L 626.558453 372.039348 
L 633.715937 363.804629 
L 640.873421 355.769102 
L 648.030904 347.933671 
L 655.188388 340.320757 
L 662.345872 332.960821 
L 669.503356 325.878483 
L 676.66084 319.092526 
L 683.818324 312.615894 
L 690.975808 306.45569 
L 698.133292 300.61318 
L 705.290776 295.08379 
L 712.44826 289.857107 
L 719.605744 284.910731 
L 726.763228 280.239569 
L 733.920712 275.858413 
L 741.078196 271.775576 
L 748.23568 267.992728 
L 755.393163 264.504897 
L 762.550647 261.300472 
L 769.708131 258.361198 
L 776.865615 255.66218 
L 784.023099 253.171883 
L 791.180583 250.852128 
L 798.338067 248.666398 
L 805.495551 246.64438 
L 812.653035 244.78928 
L 819.810519 243.091847 
L 826.968003 241.541812 
L 834.125487 240.127893 
L 841.282971 238.837788 
L 848.440455 237.658183 
" clip-path="url(#p13386ddcbc)" style="fill: none; stroke: #94c4df; stroke-width: 1.5; stroke-linecap: square"/>
   </g>
   <g id="line2d_24">
    <path d="M 139.849545 139.644826 
L 147.007029 136.327216 
L 154.164513 133.040266 
L 161.321997 129.78168 
L 168.479481 126.594718 
L 175.636965 123.580586 
L 182.794449 120.854231 
L 189.951933 118.443899 
L 197.109417 116.40061 
L 204.266901 114.807737 
L 211.424385 113.654991 
L 218.581869 112.788261 
L 225.739353 112.153277 
L 232.896837 111.694712 
L 240.05432 111.356346 
L 247.211804 111.10611 
L 254.369288 110.933432 
L 261.526772 110.824381 
L 268.684256 110.761026 
L 275.84174 110.722289 
L 282.999224 110.702599 
L 290.156708 110.706721 
L 297.314192 110.736109 
L 304.471676 110.789591 
L 311.62916 110.863373 
L 318.786644 110.951036 
L 325.944128 111.049825 
L 333.101612 111.168528 
L 340.259096 111.312883 
L 347.416579 111.488267 
L 354.574063 111.699755 
L 361.731547 111.952126 
L 368.889031 112.249856 
L 376.046515 112.597124 
L 383.203999 112.999042 
L 390.361483 113.472909 
L 397.518967 114.03229 
L 404.676451 114.691725 
L 411.833935 115.469454 
L 418.991419 116.387425 
L 426.148903 117.471289 
L 433.306387 118.750403 
L 440.463871 120.257827 
L 447.621354 122.030326 
L 454.778838 124.108369 
L 461.936322 126.536132 
L 469.093806 129.344668 
L 476.25129 132.526718 
L 483.408774 136.062812 
L 490.566258 139.919007 
L 497.723742 144.046881 
L 504.881226 148.383527 
L 512.03871 152.851557 
L 519.196194 157.364952 
L 526.353678 161.888806 
L 533.511162 166.404785 
L 540.668646 170.895744 
L 547.826129 175.349218 
L 554.983613 179.757427 
L 562.141097 184.117273 
L 569.298581 188.430242 
L 576.456065 192.69681 
L 583.613549 196.916171 
L 590.771033 201.088682 
L 597.928517 205.214724 
L 605.086001 209.294706 
L 612.243485 213.329063 
L 619.400969 217.318257 
L 626.558453 221.262776 
L 633.715937 225.163135 
L 640.873421 229.01987 
L 648.030904 232.833453 
L 655.188388 236.604356 
L 662.345872 240.333055 
L 669.503356 244.020021 
L 676.66084 247.665721 
L 683.818324 251.270616 
L 690.975808 254.835162 
L 698.133292 258.359813 
L 705.290776 261.845013 
L 712.44826 265.291206 
L 719.605744 268.698828 
L 726.763228 272.06831 
L 733.920712 275.400078 
L 741.078196 278.694555 
L 748.23568 281.952158 
L 755.393163 285.173299 
L 762.550647 288.358387 
L 769.708131 291.507825 
L 776.865615 294.622012 
L 784.023099 297.701344 
L 791.180583 300.74621 
L 798.338067 303.756996 
L 805.495551 306.734084 
L 812.653035 309.677851 
L 819.810519 312.588669 
L 826.968003 315.466907 
L 834.125487 318.312929 
L 841.282971 321.127098 
L 848.440455 323.909768 
" clip-path="url(#p13386ddcbc)" style="fill: none; stroke: #fda762; stroke-width: 1.5; stroke-linecap: square"/>
   </g>
   <g id="line2d_25">
    <path d="M 139.849545 569.454545 
L 147.007029 553.392028 
L 154.164513 545.644067 
L 161.321997 541.243978 
L 168.479481 538.736922 
L 175.636965 537.290601 
L 182.794449 536.441428 
L 189.951933 535.92243 
L 197.109417 535.601643 
L 204.266901 535.363992 
L 211.424385 535.188673 
L 218.581869 535.044075 
L 225.739353 534.895041 
L 232.896837 534.748556 
L 240.05432 534.603487 
L 247.211804 534.446812 
L 254.369288 534.267684 
L 261.526772 534.07346 
L 268.684256 533.865439 
L 275.84174 533.640957 
L 282.999224 533.393391 
L 290.156708 533.117323 
L 297.314192 532.82061 
L 304.471676 532.492675 
L 311.62916 532.124453 
L 318.786644 531.710967 
L 325.944128 531.251325 
L 333.101612 530.748719 
L 340.259096 530.210428 
L 347.416579 529.639728 
L 354.574063 529.007903 
L 361.731547 528.292062 
L 368.889031 527.489728 
L 376.046515 526.61884 
L 383.203999 525.701393 
L 390.361483 524.692352 
L 397.518967 523.549649 
L 404.676451 522.26819 
L 411.833935 520.879887 
L 418.991419 519.420814 
L 426.148903 517.817202 
L 433.306387 516.013698 
L 440.463871 514.014227 
L 447.621354 511.880448 
L 454.778838 509.617479 
L 461.936322 507.101302 
L 469.093806 504.286113 
L 476.25129 501.227508 
L 483.408774 498.038386 
L 490.566258 494.599042 
L 497.723742 490.780814 
L 504.881226 486.604028 
L 512.03871 482.226575 
L 519.196194 477.624282 
L 526.353678 472.611491 
L 533.511162 467.177746 
L 540.668646 461.49247 
L 547.826129 455.609717 
L 554.983613 449.331101 
L 562.141097 442.636571 
L 569.298581 435.709653 
L 576.456065 428.664776 
L 583.613549 421.317112 
L 590.771033 413.643523 
L 597.928517 405.814458 
L 605.086001 398.00751 
L 612.243485 390.086241 
L 619.400969 382.027104 
L 626.558453 373.92935 
L 633.715937 365.962893 
L 640.873421 358.069452 
L 648.030904 350.332646 
L 655.188388 342.817115 
L 662.345872 335.522717 
L 669.503356 328.381333 
L 676.66084 321.410367 
L 683.818324 314.851063 
L 690.975808 308.752373 
L 698.133292 302.920949 
L 705.290776 297.153011 
L 712.44826 291.779355 
L 719.605744 286.972633 
L 726.763228 282.580423 
L 733.920712 278.201941 
L 741.078196 274.011808 
L 748.23568 270.352556 
L 755.393163 267.212316 
L 762.550647 264.227076 
L 769.708131 261.146939 
L 776.865615 258.395423 
L 784.023099 256.12265 
L 791.180583 254.168827 
L 798.338067 252.123353 
L 805.495551 250.113762 
L 812.653035 248.442908 
L 819.810519 247.134115 
L 826.968003 245.952482 
L 834.125487 244.650983 
L 841.282971 243.498646 
L 848.440455 242.484785 
" clip-path="url(#p13386ddcbc)" style="fill: none; stroke: #6aaed6; stroke-width: 1.5; stroke-linecap: square"/>
   </g>
   <g id="line2d_26">
    <path d="M 139.849545 139.644826 
L 147.007029 104.648387 
L 154.164513 104.729508 
L 161.321997 104.823548 
L 168.479481 104.92697 
L 175.636965 105.040527 
L 182.794449 105.165167 
L 189.951933 105.30193 
L 197.109417 105.451957 
L 204.266901 105.616487 
L 211.424385 105.796866 
L 218.581869 105.994555 
L 225.739353 106.211139 
L 232.896837 106.448327 
L 240.05432 106.707967 
L 247.211804 106.992051 
L 254.369288 107.302722 
L 261.526772 107.642278 
L 268.684256 108.013176 
L 275.84174 108.418043 
L 282.999224 108.859671 
L 290.156708 109.341011 
L 297.314192 109.865176 
L 304.471676 110.435518 
L 311.62916 111.05551 
L 318.786644 111.728741 
L 325.944128 112.458913 
L 333.101612 113.249846 
L 340.259096 114.105472 
L 347.416579 115.029807 
L 354.574063 116.026905 
L 361.731547 117.100791 
L 368.889031 118.255406 
L 376.046515 119.494598 
L 383.203999 120.822083 
L 390.361483 122.241369 
L 397.518967 123.755689 
L 404.676451 125.367899 
L 411.833935 127.080481 
L 418.991419 128.895503 
L 426.148903 130.814518 
L 433.306387 132.838531 
L 440.463871 134.967947 
L 447.621354 137.202571 
L 454.778838 139.541587 
L 461.936322 141.983529 
L 469.093806 144.52632 
L 476.25129 147.167277 
L 483.408774 149.903132 
L 490.566258 152.730084 
L 497.723742 155.64386 
L 504.881226 158.639795 
L 512.03871 161.712848 
L 519.196194 164.857696 
L 526.353678 168.068803 
L 533.511162 171.340521 
L 540.668646 174.667117 
L 547.826129 178.04284 
L 554.983613 181.461988 
L 562.141097 184.918981 
L 569.298581 188.40838 
L 576.456065 191.924918 
L 583.613549 195.463553 
L 590.771033 199.019485 
L 597.928517 202.588173 
L 605.086001 206.165337 
L 612.243485 209.746981 
L 619.400969 213.329385 
L 626.558453 216.909101 
L 633.715937 220.482953 
L 640.873421 224.048032 
L 648.030904 227.601683 
L 655.188388 231.141484 
L 662.345872 234.66524 
L 669.503356 238.170983 
L 676.66084 241.656942 
L 683.818324 245.121538 
L 690.975808 248.563358 
L 698.133292 251.981156 
L 705.290776 255.373837 
L 712.44826 258.740445 
L 719.605744 262.080144 
L 726.763228 265.392214 
L 733.920712 268.676041 
L 741.078196 271.931107 
L 748.23568 275.156979 
L 755.393163 278.353301 
L 762.550647 281.519786 
L 769.708131 284.656214 
L 776.865615 287.762423 
L 784.023099 290.838298 
L 791.180583 293.88377 
L 798.338067 296.898815 
L 805.495551 299.883444 
L 812.653035 302.837701 
L 819.810519 305.761657 
L 826.968003 308.655412 
L 834.125487 311.519087 
L 841.282971 314.352825 
L 848.440455 317.156785 
" clip-path="url(#p13386ddcbc)" style="fill: none; stroke: #fd8c3b; stroke-width: 1.5; stroke-linecap: square"/>
   </g>
   <g id="line2d_27">
    <path d="M 139.849545 569.454545 
L 147.007029 556.638102 
L 154.164513 546.953636 
L 161.321997 539.476467 
L 168.479481 533.598925 
L 175.636965 528.934781 
L 182.794449 525.156258 
L 189.951933 522.062736 
L 197.109417 519.526366 
L 204.266901 517.407727 
L 211.424385 515.590116 
L 218.581869 514.040646 
L 225.739353 512.720982 
L 232.896837 511.571336 
L 240.05432 510.527677 
L 247.211804 509.590336 
L 254.369288 508.760912 
L 261.526772 508.0236 
L 268.684256 507.345649 
L 275.84174 506.691762 
L 282.999224 506.076846 
L 290.156708 505.514047 
L 297.314192 505.002683 
L 304.471676 504.528652 
L 311.62916 504.064434 
L 318.786644 503.586039 
L 325.944128 503.118781 
L 333.101612 502.685143 
L 340.259096 502.291707 
L 347.416579 501.92919 
L 354.574063 501.572449 
L 361.731547 501.181411 
L 368.889031 500.757763 
L 376.046515 500.346827 
L 383.203999 499.970015 
L 390.361483 499.626099 
L 397.518967 499.29121 
L 404.676451 498.918839 
L 411.833935 498.481466 
L 418.991419 498.037388 
L 426.148903 497.625476 
L 433.306387 497.251572 
L 440.463871 496.888493 
L 447.621354 496.47603 
L 454.778838 495.961995 
L 461.936322 495.423821 
L 469.093806 494.903924 
L 476.25129 494.398572 
L 483.408774 493.859953 
L 490.566258 493.206485 
L 497.723742 492.463584 
L 504.881226 491.699669 
L 512.03871 490.920201 
L 519.196194 490.067862 
L 526.353678 489.02472 
L 533.511162 487.764208 
L 540.668646 486.360273 
L 547.826129 484.765864 
L 554.983613 482.808554 
L 562.141097 480.265574 
L 569.298581 477.074448 
L 576.456065 472.964736 
L 583.613549 467.3384 
L 590.771033 459.433465 
L 597.928517 448.500409 
L 605.086001 433.927552 
L 612.243485 416.520937 
L 619.400969 398.478361 
L 626.558453 381.01308 
L 633.715937 364.238186 
L 640.873421 348.597197 
L 648.030904 334.752579 
L 655.188388 322.618486 
L 662.345872 311.866746 
L 669.503356 302.390672 
L 676.66084 294.149036 
L 683.818324 287.007526 
L 690.975808 280.794625 
L 698.133292 275.387335 
L 705.290776 270.697998 
L 712.44826 266.668623 
L 719.605744 263.201355 
L 726.763228 260.208106 
L 733.920712 257.621031 
L 741.078196 255.384504 
L 748.23568 253.455125 
L 755.393163 251.80168 
L 762.550647 250.384929 
L 769.708131 249.163799 
L 776.865615 248.111809 
L 784.023099 247.205598 
L 791.180583 246.424921 
L 798.338067 245.752652 
L 805.495551 245.174781 
L 812.653035 244.680416 
L 819.810519 244.260716 
L 826.968003 243.899693 
L 834.125487 243.587703 
L 841.282971 243.318248 
L 848.440455 243.085922 
" clip-path="url(#p13386ddcbc)" style="fill: none; stroke: #4a98c9; stroke-width: 1.5; stroke-linecap: square"/>
   </g>
   <g id="line2d_28">
    <path d="M 139.849545 139.644826 
L 147.007029 129.848445 
L 154.164513 123.022023 
L 161.321997 118.263939 
L 168.479481 114.946668 
L 175.636965 112.676183 
L 182.794449 111.120377 
L 189.951933 110.083791 
L 197.109417 109.463824 
L 204.266901 109.130428 
L 211.424385 108.962915 
L 218.581869 108.958197 
L 225.739353 109.102076 
L 232.896837 109.33167 
L 240.05432 109.563336 
L 247.211804 109.823418 
L 254.369288 110.144401 
L 261.526772 110.517988 
L 268.684256 110.895512 
L 275.84174 111.217009 
L 282.999224 111.527618 
L 290.156708 111.871784 
L 297.314192 112.260413 
L 304.471676 112.671545 
L 311.62916 113.050353 
L 318.786644 113.346364 
L 325.944128 113.626029 
L 333.101612 113.952726 
L 340.259096 114.349899 
L 347.416579 114.801115 
L 354.574063 115.250065 
L 361.731547 115.602739 
L 368.889031 115.865161 
L 376.046515 116.157224 
L 383.203999 116.540458 
L 390.361483 117.018121 
L 397.518967 117.535203 
L 404.676451 117.978423 
L 411.833935 118.278982 
L 418.991419 118.594727 
L 426.148903 119.039382 
L 433.306387 119.638895 
L 440.463871 120.331457 
L 447.621354 120.967498 
L 454.778838 121.41775 
L 461.936322 121.902908 
L 469.093806 122.559269 
L 476.25129 123.400781 
L 483.408774 124.324295 
L 490.566258 125.137104 
L 497.723742 125.944921 
L 504.881226 126.99298 
L 512.03871 128.368571 
L 519.196194 130.000155 
L 526.353678 131.664324 
L 533.511162 133.44205 
L 540.668646 135.749419 
L 547.826129 138.774174 
L 554.983613 142.483264 
L 562.141097 146.917996 
L 569.298581 152.893085 
L 576.456065 161.178863 
L 583.613549 172.346503 
L 590.771033 187.012488 
L 597.928517 204.832395 
L 605.086001 223.283626 
L 612.243485 240.162042 
L 619.400969 253.786784 
L 626.558453 264.032477 
L 633.715937 271.371311 
L 640.873421 276.422534 
L 648.030904 280.07226 
L 655.188388 282.770135 
L 662.345872 284.634572 
L 669.503356 285.891399 
L 676.66084 286.805156 
L 683.818324 287.498367 
L 690.975808 287.973016 
L 698.133292 288.265952 
L 705.290776 288.446437 
L 712.44826 288.608298 
L 719.605744 288.755097 
L 726.763228 288.859 
L 733.920712 288.913691 
L 741.078196 288.927116 
L 748.23568 288.921477 
L 755.393163 288.933191 
L 762.550647 288.974338 
L 769.708131 289.01677 
L 776.865615 289.046369 
L 784.023099 289.055487 
L 791.180583 289.04295 
L 798.338067 289.014056 
L 805.495551 288.980572 
L 812.653035 288.96074 
L 819.810519 288.973817 
L 826.968003 288.990566 
L 834.125487 289.001932 
L 841.282971 289.009273 
L 848.440455 289.014461 
" clip-path="url(#p13386ddcbc)" style="fill: none; stroke: #f3701b; stroke-width: 1.5; stroke-linecap: square"/>
   </g>
   <g id="line2d_29">
    <path d="M 139.849545 569.454545 
L 147.007029 562.769811 
L 154.164513 561.629691 
L 161.321997 561.032522 
L 168.479481 560.610109 
L 175.636965 560.24411 
L 182.794449 559.875328 
L 189.951933 559.480908 
L 197.109417 559.045498 
L 204.266901 558.563522 
L 211.424385 558.027922 
L 218.581869 557.436695 
L 225.739353 556.796776 
L 232.896837 556.113279 
L 240.05432 555.369644 
L 247.211804 554.561058 
L 254.369288 553.70023 
L 261.526772 552.802274 
L 268.684256 551.843277 
L 275.84174 550.80794 
L 282.999224 549.702898 
L 290.156708 548.552117 
L 297.314192 547.341006 
L 304.471676 546.039121 
L 311.62916 544.64361 
L 318.786644 543.179836 
L 325.944128 541.660433 
L 333.101612 540.041382 
L 340.259096 538.303513 
L 347.416579 536.463479 
L 354.574063 534.561052 
L 361.731547 532.563311 
L 368.889031 530.426511 
L 376.046515 528.15125 
L 383.203999 525.781985 
L 390.361483 523.334032 
L 397.518967 520.740581 
L 404.676451 517.976516 
L 411.833935 515.07097 
L 418.991419 512.087934 
L 426.148903 508.980816 
L 433.306387 505.686348 
L 440.463871 502.205812 
L 447.621354 498.604899 
L 454.778838 494.925062 
L 461.936322 491.074835 
L 469.093806 487.012629 
L 476.25129 482.771223 
L 483.408774 478.44863 
L 490.566258 474.028687 
L 497.723742 469.413943 
L 504.881226 464.585704 
L 512.03871 459.607096 
L 519.196194 454.591094 
L 526.353678 449.47346 
L 533.511162 444.166216 
L 540.668646 438.667071 
L 547.826129 433.058086 
L 554.983613 427.459659 
L 562.141097 421.792254 
L 569.298581 415.974212 
L 576.456065 410.004655 
L 583.613549 403.961356 
L 590.771033 397.975375 
L 597.928517 391.997649 
L 605.086001 385.945518 
L 612.243485 379.803325 
L 619.400969 373.616056 
L 626.558453 367.489343 
L 633.715937 361.470296 
L 640.873421 355.479848 
L 648.030904 349.501528 
L 655.188388 343.542139 
L 662.345872 337.631756 
L 669.503356 331.823725 
L 676.66084 326.103072 
L 683.818324 320.420517 
L 690.975808 314.888423 
L 698.133292 309.566126 
L 705.290776 304.455155 
L 712.44826 299.499224 
L 719.605744 294.58424 
L 726.763228 289.606146 
L 733.920712 284.734199 
L 741.078196 280.118808 
L 748.23568 275.80118 
L 755.393163 271.714993 
L 762.550647 267.686398 
L 769.708131 263.573617 
L 776.865615 259.59172 
L 784.023099 255.890503 
L 791.180583 252.499641 
L 798.338067 249.329761 
L 805.495551 246.172438 
L 812.653035 242.910713 
L 819.810519 239.788492 
L 826.968003 236.948156 
L 834.125487 234.409617 
L 841.282971 232.070341 
L 848.440455 229.705352 
" clip-path="url(#p13386ddcbc)" style="fill: none; stroke: #2e7ebc; stroke-width: 1.5; stroke-linecap: square"/>
   </g>
   <g id="line2d_30">
    <path d="M 139.849545 139.644826 
L 147.007029 56.466723 
L 154.164513 49.945288 
L 161.321997 49.745455 
L 168.479481 51.081563 
L 175.636965 53.117758 
L 182.794449 55.543756 
L 189.951933 58.243307 
L 197.109417 61.12822 
L 204.266901 64.136741 
L 211.424385 67.224355 
L 218.581869 70.356645 
L 225.739353 73.509829 
L 232.896837 76.668422 
L 240.05432 79.822832 
L 247.211804 82.966465 
L 254.369288 86.095128 
L 261.526772 89.206757 
L 268.684256 92.300261 
L 275.84174 95.374956 
L 282.999224 98.430443 
L 290.156708 101.466585 
L 297.314192 104.483372 
L 304.471676 107.480845 
L 311.62916 110.459071 
L 318.786644 113.418144 
L 325.944128 116.358173 
L 333.101612 119.279273 
L 340.259096 122.181559 
L 347.416579 125.06515 
L 354.574063 127.930164 
L 361.731547 130.776721 
L 368.889031 133.604939 
L 376.046515 136.414934 
L 383.203999 139.206826 
L 390.361483 141.98073 
L 397.518967 144.736762 
L 404.676451 147.475037 
L 411.833935 150.19567 
L 418.991419 152.898774 
L 426.148903 155.584462 
L 433.306387 158.252846 
L 440.463871 160.904039 
L 447.621354 163.53815 
L 454.778838 166.155289 
L 461.936322 168.755567 
L 469.093806 171.339091 
L 476.25129 173.90597 
L 483.408774 176.456311 
L 490.566258 178.99022 
L 497.723742 181.507804 
L 504.881226 184.009167 
L 512.03871 186.494414 
L 519.196194 188.963648 
L 526.353678 191.416974 
L 533.511162 193.854493 
L 540.668646 196.276308 
L 547.826129 198.682518 
L 554.983613 201.073226 
L 562.141097 203.448531 
L 569.298581 205.808532 
L 576.456065 208.153328 
L 583.613549 210.483016 
L 590.771033 212.797695 
L 597.928517 215.09746 
L 605.086001 217.382408 
L 612.243485 219.652635 
L 619.400969 221.908234 
L 626.558453 224.149301 
L 633.715937 226.375929 
L 640.873421 228.588211 
L 648.030904 230.786239 
L 655.188388 232.970106 
L 662.345872 235.139902 
L 669.503356 237.295719 
L 676.66084 239.437646 
L 683.818324 241.565773 
L 690.975808 243.680188 
L 698.133292 245.78098 
L 705.290776 247.868237 
L 712.44826 249.942046 
L 719.605744 252.002494 
L 726.763228 254.049667 
L 733.920712 256.08365 
L 741.078196 258.104528 
L 748.23568 260.112385 
L 755.393163 262.107307 
L 762.550647 264.089375 
L 769.708131 266.058673 
L 776.865615 268.015283 
L 784.023099 269.959286 
L 791.180583 271.890765 
L 798.338067 273.809799 
L 805.495551 275.716469 
L 812.653035 277.610855 
L 819.810519 279.493036 
L 826.968003 281.363089 
L 834.125487 283.221094 
L 841.282971 285.067128 
L 848.440455 286.901269 
" clip-path="url(#p13386ddcbc)" style="fill: none; stroke: #e25508; stroke-width: 1.5; stroke-linecap: square"/>
   </g>
   <g id="line2d_31">
    <path d="M 139.849545 569.454545 
L 147.007029 566.684224 
L 154.164513 563.944829 
L 161.321997 561.23274 
L 168.479481 558.54104 
L 175.636965 555.868729 
L 182.794449 553.215556 
L 189.951933 550.581119 
L 197.109417 547.964863 
L 204.266901 545.366082 
L 211.424385 542.783918 
L 218.581869 540.217359 
L 225.739353 537.665244 
L 232.896837 535.126259 
L 240.05432 532.598936 
L 247.211804 530.081657 
L 254.369288 527.572652 
L 261.526772 525.069999 
L 268.684256 522.571624 
L 275.84174 520.075299 
L 282.999224 517.578647 
L 290.156708 515.079137 
L 297.314192 512.574088 
L 304.471676 510.060664 
L 311.62916 507.535879 
L 318.786644 504.996615 
L 325.944128 502.445396 
L 333.101612 499.885621 
L 340.259096 497.316986 
L 347.416579 494.739122 
L 354.574063 492.151586 
L 361.731547 489.553871 
L 368.889031 486.945395 
L 376.046515 484.325513 
L 383.203999 481.693504 
L 390.361483 479.048584 
L 397.518967 476.389896 
L 404.676451 473.716514 
L 411.833935 471.027445 
L 418.991419 468.321623 
L 426.148903 465.597918 
L 433.306387 462.855125 
L 440.463871 460.091973 
L 447.621354 457.307122 
L 454.778838 454.499162 
L 461.936322 451.666613 
L 469.093806 448.808418 
L 476.25129 445.92457 
L 483.408774 443.014714 
L 490.566258 440.078411 
L 497.723742 437.115151 
L 504.881226 434.124351 
L 512.03871 431.105358 
L 519.196194 428.057447 
L 526.353678 424.97982 
L 533.511162 421.871609 
L 540.668646 418.731875 
L 547.826129 415.559604 
L 554.983613 412.353714 
L 562.141097 409.113049 
L 569.298581 405.836382 
L 576.456065 402.522415 
L 583.613549 399.169777 
L 590.771033 395.777027 
L 597.928517 392.342652 
L 605.086001 388.865065 
L 612.243485 385.342611 
L 619.400969 381.77356 
L 626.558453 378.156113 
L 633.715937 374.488398 
L 640.873421 370.770264 
L 648.030904 367.005827 
L 655.188388 363.192898 
L 662.345872 359.328711 
L 669.503356 355.410531 
L 676.66084 351.435653 
L 683.818324 347.401398 
L 690.975808 343.305118 
L 698.133292 339.144194 
L 705.290776 334.916034 
L 712.44826 330.618079 
L 719.605744 326.247794 
L 726.763228 321.802677 
L 733.920712 317.280252 
L 741.078196 312.678075 
L 748.23568 307.993729 
L 755.393163 303.224826 
L 762.550647 298.369007 
L 769.708131 293.423943 
L 776.865615 288.387333 
L 784.023099 283.256905 
L 791.180583 278.030417 
L 798.338067 272.705655 
L 805.495551 267.280434 
L 812.653035 261.752599 
L 819.810519 256.120022 
L 826.968003 250.380606 
L 834.125487 244.532282 
L 841.282971 238.57301 
L 848.440455 232.500361 
" clip-path="url(#p13386ddcbc)" style="fill: none; stroke: #1764ab; stroke-width: 1.5; stroke-linecap: square"/>
   </g>
   <g id="line2d_32">
    <path d="M 139.849545 139.644826 
L 147.007029 136.424589 
L 154.164513 133.419955 
L 161.321997 130.628024 
L 168.479481 128.030726 
L 175.636965 125.626831 
L 182.794449 123.417197 
L 189.951933 121.401957 
L 197.109417 119.580521 
L 204.266901 117.951572 
L 211.424385 116.51307 
L 218.581869 115.262253 
L 225.739353 114.19563 
L 232.896837 113.30899 
L 240.05432 112.597394 
L 247.211804 112.055182 
L 254.369288 111.675966 
L 261.526772 111.452636 
L 268.684256 111.377358 
L 275.84174 111.441571 
L 282.999224 111.635993 
L 290.156708 111.950614 
L 297.314192 112.374703 
L 304.471676 112.896803 
L 311.62916 113.504732 
L 318.786644 114.185656 
L 325.944128 114.948265 
L 333.101612 115.80549 
L 340.259096 116.7565 
L 347.416579 117.80024 
L 354.574063 118.935432 
L 361.731547 120.160578 
L 368.889031 121.473956 
L 376.046515 122.87362 
L 383.203999 124.357405 
L 390.361483 125.922922 
L 397.518967 127.567558 
L 404.676451 129.28848 
L 411.833935 131.082632 
L 418.991419 132.946734 
L 426.148903 134.877285 
L 433.306387 136.870561 
L 440.463871 138.922616 
L 447.621354 141.029282 
L 454.778838 143.186167 
L 461.936322 145.388658 
L 469.093806 147.634797 
L 476.25129 149.927627 
L 483.408774 152.267393 
L 490.566258 154.654132 
L 497.723742 157.087747 
L 504.881226 159.568007 
L 512.03871 162.094546 
L 519.196194 164.666865 
L 526.353678 167.284329 
L 533.511162 169.94617 
L 540.668646 172.651482 
L 547.826129 175.39923 
L 554.983613 178.188241 
L 562.141097 181.017207 
L 569.298581 183.884688 
L 576.456065 186.789108 
L 583.613549 189.728757 
L 590.771033 192.70179 
L 597.928517 195.70623 
L 605.086001 198.739961 
L 612.243485 201.800737 
L 619.400969 204.886174 
L 626.558453 207.993758 
L 633.715937 211.120835 
L 640.873421 214.269403 
L 648.030904 217.453438 
L 655.188388 220.67084 
L 662.345872 223.918167 
L 669.503356 227.192207 
L 676.66084 230.489988 
L 683.818324 233.808774 
L 690.975808 237.146063 
L 698.133292 240.499591 
L 705.290776 243.867329 
L 712.44826 247.247484 
L 719.605744 250.638499 
L 726.763228 254.039055 
L 733.920712 257.448066 
L 741.078196 260.864684 
L 748.23568 264.288296 
L 755.393163 267.718527 
L 762.550647 271.155236 
L 769.708131 274.598519 
L 776.865615 278.048707 
L 784.023099 281.506369 
L 791.180583 284.972308 
L 798.338067 288.447565 
L 805.495551 291.933415 
L 812.653035 295.431371 
L 819.810519 298.943181 
L 826.968003 302.470829 
L 834.125487 306.016535 
L 841.282971 309.582756 
L 848.440455 313.171359 
" clip-path="url(#p13386ddcbc)" style="fill: none; stroke: #c54102; stroke-width: 1.5; stroke-linecap: square"/>
   </g>
   <g id="line2d_33">
    <path d="M 139.849545 569.454545 
L 147.007029 553.187344 
L 154.164513 543.028348 
L 161.321997 536.249538 
L 168.479481 531.484626 
L 175.636965 528.049926 
L 182.794449 525.462318 
L 189.951933 523.513796 
L 197.109417 521.95175 
L 204.266901 520.717372 
L 211.424385 519.729114 
L 218.581869 518.857814 
L 225.739353 518.145215 
L 232.896837 517.564556 
L 240.05432 517.002642 
L 247.211804 516.504162 
L 254.369288 516.121609 
L 261.526772 515.776507 
L 268.684256 515.360611 
L 275.84174 515.02593 
L 282.999224 514.821626 
L 290.156708 514.582088 
L 297.314192 514.251208 
L 304.471676 514.026658 
L 311.62916 513.845435 
L 318.786644 513.580441 
L 325.944128 513.373467 
L 333.101612 513.210833 
L 340.259096 512.979221 
L 347.416579 512.775861 
L 354.574063 512.643115 
L 361.731547 512.461669 
L 368.889031 512.203302 
L 376.046515 512.062113 
L 383.203999 511.994924 
L 390.361483 511.760189 
L 397.518967 511.545579 
L 404.676451 511.425656 
L 411.833935 511.207775 
L 418.991419 511.007579 
L 426.148903 510.851635 
L 433.306387 510.617345 
L 440.463871 510.40018 
L 447.621354 510.239757 
L 454.778838 509.996058 
L 461.936322 509.714635 
L 469.093806 509.517672 
L 476.25129 509.249676 
L 483.408774 508.878157 
L 490.566258 508.621577 
L 497.723742 508.312898 
L 504.881226 507.832972 
L 512.03871 507.434281 
L 519.196194 506.91154 
L 526.353678 506.269829 
L 533.511162 505.625231 
L 540.668646 504.668859 
L 547.826129 503.578065 
L 554.983613 502.280853 
L 562.141097 500.181177 
L 569.298581 497.259788 
L 576.456065 492.210255 
L 583.613549 482.355431 
L 590.771033 460.980919 
L 597.928517 425.915101 
L 605.086001 391.528805 
L 612.243485 361.074594 
L 619.400969 336.89286 
L 626.558453 317.69124 
L 633.715937 302.786069 
L 640.873421 291.193017 
L 648.030904 282.296876 
L 655.188388 275.464932 
L 662.345872 270.202036 
L 669.503356 266.184083 
L 676.66084 263.111856 
L 683.818324 260.753511 
L 690.975808 258.942618 
L 698.133292 257.566401 
L 705.290776 256.560698 
L 712.44826 255.791698 
L 719.605744 255.147747 
L 726.763228 254.589721 
L 733.920712 254.151029 
L 741.078196 253.925572 
L 748.23568 253.815537 
L 755.393163 253.653569 
L 762.550647 253.439251 
L 769.708131 253.329645 
L 776.865615 253.330057 
L 784.023099 253.290776 
L 791.180583 253.197074 
L 798.338067 253.137975 
L 805.495551 253.182127 
L 812.653035 253.204551 
L 819.810519 253.14888 
L 826.968003 253.053328 
L 834.125487 253.043716 
L 841.282971 253.07348 
L 848.440455 253.083781 
" clip-path="url(#p13386ddcbc)" style="fill: none; stroke: #084a91; stroke-width: 1.5; stroke-linecap: square"/>
   </g>
   <g id="line2d_34">
    <path d="M 139.849545 139.644826 
L 147.007029 126.341679 
L 154.164513 119.961337 
L 161.321997 116.93375 
L 168.479481 115.508432 
L 175.636965 114.958696 
L 182.794449 114.796864 
L 189.951933 114.949194 
L 197.109417 115.145487 
L 204.266901 115.454197 
L 211.424385 115.841357 
L 218.581869 116.107891 
L 225.739353 116.444057 
L 232.896837 116.851726 
L 240.05432 117.08783 
L 247.211804 117.307777 
L 254.369288 117.688291 
L 261.526772 118.044084 
L 268.684256 118.094201 
L 275.84174 118.27565 
L 282.999224 118.746482 
L 290.156708 119.055499 
L 297.314192 119.048048 
L 304.471676 119.287539 
L 311.62916 119.609287 
L 318.786644 119.661329 
L 325.944128 119.846782 
L 333.101612 120.133951 
L 340.259096 120.203353 
L 347.416579 120.336316 
L 354.574063 120.661813 
L 361.731547 120.837097 
L 368.889031 120.774755 
L 376.046515 121.057045 
L 383.203999 121.564274 
L 390.361483 121.580432 
L 397.518967 121.656857 
L 404.676451 122.022751 
L 411.833935 122.118152 
L 418.991419 122.284266 
L 426.148903 122.606338 
L 433.306387 122.723112 
L 440.463871 122.926233 
L 447.621354 123.345731 
L 454.778838 123.562892 
L 461.936322 123.722298 
L 469.093806 124.216583 
L 476.25129 124.580904 
L 483.408774 124.722888 
L 490.566258 125.35921 
L 497.723742 125.997082 
L 504.881226 126.288316 
L 512.03871 127.089892 
L 519.196194 127.824389 
L 526.353678 128.604528 
L 533.511162 129.96737 
L 540.668646 131.120284 
L 547.826129 133.029916 
L 554.983613 136.145711 
L 562.141097 139.630563 
L 569.298581 145.996937 
L 576.456065 157.006415 
L 583.613549 179.6763 
L 590.771033 217.62777 
L 597.928517 250.369946 
L 605.086001 268.543761 
L 612.243485 277.102641 
L 619.400969 281.489475 
L 626.558453 283.514541 
L 633.715937 284.587559 
L 640.873421 285.001272 
L 648.030904 285.263673 
L 655.188388 285.4074 
L 662.345872 285.405679 
L 669.503356 285.442571 
L 676.66084 285.515691 
L 683.818324 285.516125 
L 690.975808 285.449237 
L 698.133292 285.428709 
L 705.290776 285.59313 
L 712.44826 285.731808 
L 719.605744 285.671646 
L 726.763228 285.423335 
L 733.920712 285.18135 
L 741.078196 285.287401 
L 748.23568 285.532074 
L 755.393163 285.548889 
L 762.550647 285.359769 
L 769.708131 285.331798 
L 776.865615 285.49703 
L 784.023099 285.537924 
L 791.180583 285.429511 
L 798.338067 285.372725 
L 805.495551 285.525986 
L 812.653035 285.619678 
L 819.810519 285.530769 
L 826.968003 285.344838 
L 834.125487 285.340767 
L 841.282971 285.419652 
L 848.440455 285.453294 
" clip-path="url(#p13386ddcbc)" style="fill: none; stroke: #9e3303; stroke-width: 1.5; stroke-linecap: square"/>
   </g>
   <g id="line2d_35">
    <path d="M 139.849545 569.454545 
L 147.007029 566.746056 
L 154.164513 564.143116 
L 161.321997 561.607189 
L 168.479481 559.114795 
L 175.636965 556.655152 
L 182.794449 554.215267 
L 189.951933 551.782201 
L 197.109417 549.354837 
L 204.266901 546.932016 
L 211.424385 544.510631 
L 218.581869 542.085796 
L 225.739353 539.654879 
L 232.896837 537.219325 
L 240.05432 534.779454 
L 247.211804 532.33453 
L 254.369288 529.882767 
L 261.526772 527.42134 
L 268.684256 524.948805 
L 275.84174 522.466896 
L 282.999224 519.97673 
L 290.156708 517.478513 
L 297.314192 514.971542 
L 304.471676 512.454207 
L 311.62916 509.923984 
L 318.786644 507.377681 
L 325.944128 504.815561 
L 333.101612 502.240621 
L 340.259096 499.65472 
L 347.416579 497.058446 
L 354.574063 494.451114 
L 361.731547 491.830767 
L 368.889031 489.194177 
L 376.046515 486.536842 
L 383.203999 483.855152 
L 390.361483 481.153414 
L 397.518967 478.435729 
L 404.676451 475.7043 
L 411.833935 472.959487 
L 418.991419 470.199803 
L 426.148903 467.421917 
L 433.306387 464.620653 
L 440.463871 461.789106 
L 447.621354 458.928153 
L 454.778838 456.044418 
L 461.936322 453.140881 
L 469.093806 450.218559 
L 476.25129 447.276505 
L 483.408774 444.311806 
L 490.566258 441.319589 
L 497.723742 438.293032 
L 504.881226 435.231499 
L 512.03871 432.140975 
L 519.196194 429.023593 
L 526.353678 425.879892 
L 533.511162 422.708812 
L 540.668646 419.507699 
L 547.826129 416.2723 
L 554.983613 412.99682 
L 562.141097 409.680485 
L 569.298581 406.327356 
L 576.456065 402.939031 
L 583.613549 399.51575 
L 590.771033 396.056396 
L 597.928517 392.5585 
L 605.086001 389.018234 
L 612.243485 385.430416 
L 619.400969 381.790677 
L 626.558453 378.102151 
L 633.715937 374.367025 
L 640.873421 370.586004 
L 648.030904 366.758429 
L 655.188388 362.882278 
L 662.345872 358.954161 
L 669.503356 354.969327 
L 676.66084 350.921656 
L 683.818324 346.806052 
L 690.975808 342.625863 
L 698.133292 338.383055 
L 705.290776 334.077995 
L 712.44826 329.709625 
L 719.605744 325.27546 
L 726.763228 320.771589 
L 733.920712 316.192671 
L 741.078196 311.531943 
L 748.23568 306.78153 
L 755.393163 301.943102 
L 762.550647 297.018287 
L 769.708131 292.00487 
L 776.865615 286.900013 
L 784.023099 281.700259 
L 791.180583 276.401533 
L 798.338067 270.999138 
L 805.495551 265.487759 
L 812.653035 259.861461 
L 819.810519 254.11392 
L 826.968003 248.243251 
L 834.125487 242.245335 
L 841.282971 236.114499 
L 848.440455 229.8454 
" clip-path="url(#p13386ddcbc)" style="fill: none; stroke: #08306b; stroke-width: 1.5; stroke-linecap: square"/>
   </g>
   <g id="line2d_36">
    <path d="M 139.849545 139.644826 
L 147.007029 127.177344 
L 154.164513 118.618885 
L 161.321997 112.755829 
L 168.479481 108.764209 
L 175.636965 106.224873 
L 182.794449 104.677021 
L 189.951933 103.672641 
L 197.109417 103.137453 
L 204.266901 103.03106 
L 211.424385 103.245344 
L 218.581869 103.608121 
L 225.739353 104.02917 
L 232.896837 104.577557 
L 240.05432 105.282743 
L 247.211804 106.132482 
L 254.369288 107.072813 
L 261.526772 108.008738 
L 268.684256 108.901141 
L 275.84174 109.835569 
L 282.999224 110.872745 
L 290.156708 112.038164 
L 297.314192 113.32209 
L 304.471676 114.679559 
L 311.62916 116.030375 
L 318.786644 117.269984 
L 325.944128 118.431962 
L 333.101612 119.644283 
L 340.259096 120.992294 
L 347.416579 122.515264 
L 354.574063 124.206381 
L 361.731547 126.012755 
L 368.889031 127.835416 
L 376.046515 129.529312 
L 383.203999 130.988931 
L 390.361483 132.394649 
L 397.518967 133.900966 
L 404.676451 135.599288 
L 411.833935 137.52036 
L 418.991419 139.634257 
L 426.148903 141.850391 
L 433.306387 144.01751 
L 440.463871 145.927919 
L 447.621354 147.644485 
L 454.778838 149.400244 
L 461.936322 151.301913 
L 469.093806 153.399015 
L 476.25129 155.683869 
L 483.408774 158.091601 
L 490.566258 160.500136 
L 497.723742 162.730768 
L 504.881226 164.797793 
L 512.03871 166.898201 
L 519.196194 169.108162 
L 526.353678 171.463208 
L 533.511162 173.958226 
L 540.668646 176.547467 
L 547.826129 179.144536 
L 554.983613 181.62396 
L 562.141097 184.002301 
L 569.298581 186.408341 
L 576.456065 188.901227 
L 583.613549 191.510717 
L 590.771033 194.237188 
L 597.928517 197.051628 
L 605.086001 199.895641 
L 612.243485 202.681445 
L 619.400969 205.347521 
L 626.558453 208.002684 
L 633.715937 210.71454 
L 640.873421 213.52307 
L 648.030904 216.444158 
L 655.188388 219.469594 
L 662.345872 222.567077 
L 669.503356 225.680209 
L 676.66084 228.7285 
L 683.818324 231.659717 
L 690.975808 234.582834 
L 698.133292 237.556978 
L 705.290776 240.617542 
L 712.44826 243.780702 
L 719.605744 247.043408 
L 726.763228 250.383393 
L 733.920712 253.759169 
L 741.078196 257.110026 
L 748.23568 260.361125 
L 755.393163 263.588546 
L 762.550647 266.858591 
L 769.708131 270.179396 
L 776.865615 273.554752 
L 784.023099 276.984101 
L 791.180583 280.462541 
L 798.338067 283.980825 
L 805.495551 287.525357 
L 812.653035 291.078198 
L 819.810519 294.61963 
L 826.968003 298.181749 
L 834.125487 301.77494 
L 841.282971 305.394999 
L 848.440455 309.04392 
" clip-path="url(#p13386ddcbc)" style="fill: none; stroke: #7f2704; stroke-width: 1.5; stroke-linecap: square"/>
   </g>
   <g id="patch_3">
    <path d="M 104.42 595.44 
L 104.42 23.76 
" style="fill: none; stroke: #000000; stroke-width: 0.8; stroke-linejoin: miter; stroke-linecap: square"/>
   </g>
   <g id="patch_4">
    <path d="M 883.87 595.44 
L 883.87 23.76 
" style="fill: none; stroke: #000000; stroke-width: 0.8; stroke-linejoin: miter; stroke-linecap: square"/>
   </g>
   <g id="patch_5">
    <path d="M 104.42 595.44 
L 883.87 595.44 
" style="fill: none; stroke: #000000; stroke-width: 0.8; stroke-linejoin: miter; stroke-linecap: square"/>
   </g>
   <g id="patch_6">
    <path d="M 104.42 23.76 
L 883.87 23.76 
" style="fill: none; stroke: #000000; stroke-width: 0.8; stroke-linejoin: miter; stroke-linecap: square"/>
   </g>
   <g id="legend_1">
    <g id="patch_7">
     <path d="M 899.27 687.1975 
L 1052.056562 687.1975 
Q 1056.456563 687.1975 1056.456563 682.7975 
L 1056.456563 39.16 
Q 1056.456563 34.76 1052.056562 34.76 
L 899.27 34.76 
Q 894.87 34.76 894.87 39.16 
L 894.87 682.7975 
Q 894.87 687.1975 899.27 687.1975 
z
" style="fill: #ffffff; opacity: 0.8; stroke: #cccccc; stroke-linejoin: miter"/>
    </g>
    <g id="PathCollection_3">
     <g>
      <use xlink:href="#m80f1702e56" x="925.67" y="54.501563" style="fill: #1f77b4; stroke: #1f77b4"/>
     </g>
    </g>
    <g id="text_21">
     <!-- Xi -->
     <g transform="translate(965.27 60.276563) scale(0.22 -0.22)">
      <use xlink:href="#DejaVuSans-58"/>
      <use xlink:href="#DejaVuSans-69" x="68.505859"/>
     </g>
    </g>
    <g id="PathCollection_4">
     <g>
      <use xlink:href="#m62fcbac0dc" x="925.67" y="86.793438" style="fill: #ff7f0e; stroke: #ff7f0e"/>
     </g>
    </g>
    <g id="text_22">
     <!-- Xa -->
     <g transform="translate(965.27 92.568438) scale(0.22 -0.22)">
      <use xlink:href="#DejaVuSans-58"/>
      <use xlink:href="#DejaVuSans-61" x="68.505859"/>
     </g>
    </g>
    <g id="line2d_37">
     <path d="M 903.67 117.160313 
L 925.67 117.160313 
L 947.67 117.160313 
" style="fill: none; stroke: #d0e1f2; stroke-width: 1.5; stroke-linecap: square"/>
    </g>
    <g id="text_23">
     <!-- Xi-IIAA -->
     <g transform="translate(965.27 124.860313) scale(0.22 -0.22)">
      <defs>
       <path id="DejaVuSans-2d" d="M 313 2009 
L 1997 2009 
L 1997 1497 
L 313 1497 
L 313 2009 
z
" transform="scale(0.015625)"/>
       <path id="DejaVuSans-49" d="M 628 4666 
L 1259 4666 
L 1259 0 
L 628 0 
L 628 4666 
z
" transform="scale(0.015625)"/>
      </defs>
      <use xlink:href="#DejaVuSans-58"/>
      <use xlink:href="#DejaVuSans-69" x="68.505859"/>
      <use xlink:href="#DejaVuSans-2d" x="96.289062"/>
      <use xlink:href="#DejaVuSans-49" x="132.373047"/>
      <use xlink:href="#DejaVuSans-49" x="161.865234"/>
      <use xlink:href="#DejaVuSans-41" x="191.357422"/>
      <use xlink:href="#DejaVuSans-41" x="262.515625"/>
     </g>
    </g>
    <g id="line2d_38">
     <path d="M 903.67 149.452188 
L 925.67 149.452188 
L 947.67 149.452188 
" style="fill: none; stroke: #fdd9b4; stroke-width: 1.5; stroke-linecap: square"/>
    </g>
    <g id="text_24">
     <!-- Xa-IIAA -->
     <g transform="translate(965.27 157.152188) scale(0.22 -0.22)">
      <use xlink:href="#DejaVuSans-58"/>
      <use xlink:href="#DejaVuSans-61" x="68.505859"/>
      <use xlink:href="#DejaVuSans-2d" x="129.785156"/>
      <use xlink:href="#DejaVuSans-49" x="165.869141"/>
      <use xlink:href="#DejaVuSans-49" x="195.361328"/>
      <use xlink:href="#DejaVuSans-41" x="224.853516"/>
      <use xlink:href="#DejaVuSans-41" x="296.011719"/>
     </g>
    </g>
    <g id="line2d_39">
     <path d="M 903.67 181.744063 
L 925.67 181.744063 
L 947.67 181.744063 
" style="fill: none; stroke: #b7d4ea; stroke-width: 1.5; stroke-linecap: square"/>
    </g>
    <g id="text_25">
     <!-- Xi-IIAI -->
     <g transform="translate(965.27 189.444063) scale(0.22 -0.22)">
      <use xlink:href="#DejaVuSans-58"/>
      <use xlink:href="#DejaVuSans-69" x="68.505859"/>
      <use xlink:href="#DejaVuSans-2d" x="96.289062"/>
      <use xlink:href="#DejaVuSans-49" x="132.373047"/>
      <use xlink:href="#DejaVuSans-49" x="161.865234"/>
      <use xlink:href="#DejaVuSans-41" x="191.357422"/>
      <use xlink:href="#DejaVuSans-49" x="259.765625"/>
     </g>
    </g>
    <g id="line2d_40">
     <path d="M 903.67 214.035938 
L 925.67 214.035938 
L 947.67 214.035938 
" style="fill: none; stroke: #fdc38d; stroke-width: 1.5; stroke-linecap: square"/>
    </g>
    <g id="text_26">
     <!-- Xa-IIAI -->
     <g transform="translate(965.27 221.735938) scale(0.22 -0.22)">
      <use xlink:href="#DejaVuSans-58"/>
      <use xlink:href="#DejaVuSans-61" x="68.505859"/>
      <use xlink:href="#DejaVuSans-2d" x="129.785156"/>
      <use xlink:href="#DejaVuSans-49" x="165.869141"/>
      <use xlink:href="#DejaVuSans-49" x="195.361328"/>
      <use xlink:href="#DejaVuSans-41" x="224.853516"/>
      <use xlink:href="#DejaVuSans-49" x="293.261719"/>
     </g>
    </g>
    <g id="line2d_41">
     <path d="M 903.67 246.327813 
L 925.67 246.327813 
L 947.67 246.327813 
" style="fill: none; stroke: #94c4df; stroke-width: 1.5; stroke-linecap: square"/>
    </g>
    <g id="text_27">
     <!-- Xi-IIAN -->
     <g transform="translate(965.27 254.027813) scale(0.22 -0.22)">
      <defs>
       <path id="DejaVuSans-4e" d="M 628 4666 
L 1478 4666 
L 3547 763 
L 3547 4666 
L 4159 4666 
L 4159 0 
L 3309 0 
L 1241 3903 
L 1241 0 
L 628 0 
L 628 4666 
z
" transform="scale(0.015625)"/>
      </defs>
      <use xlink:href="#DejaVuSans-58"/>
      <use xlink:href="#DejaVuSans-69" x="68.505859"/>
      <use xlink:href="#DejaVuSans-2d" x="96.289062"/>
      <use xlink:href="#DejaVuSans-49" x="132.373047"/>
      <use xlink:href="#DejaVuSans-49" x="161.865234"/>
      <use xlink:href="#DejaVuSans-41" x="191.357422"/>
      <use xlink:href="#DejaVuSans-4e" x="259.765625"/>
     </g>
    </g>
    <g id="line2d_42">
     <path d="M 903.67 278.619688 
L 925.67 278.619688 
L 947.67 278.619688 
" style="fill: none; stroke: #fda762; stroke-width: 1.5; stroke-linecap: square"/>
    </g>
    <g id="text_28">
     <!-- Xa-IIAN -->
     <g transform="translate(965.27 286.319688) scale(0.22 -0.22)">
      <use xlink:href="#DejaVuSans-58"/>
      <use xlink:href="#DejaVuSans-61" x="68.505859"/>
      <use xlink:href="#DejaVuSans-2d" x="129.785156"/>
      <use xlink:href="#DejaVuSans-49" x="165.869141"/>
      <use xlink:href="#DejaVuSans-49" x="195.361328"/>
      <use xlink:href="#DejaVuSans-41" x="224.853516"/>
      <use xlink:href="#DejaVuSans-4e" x="293.261719"/>
     </g>
    </g>
    <g id="line2d_43">
     <path d="M 903.67 310.911563 
L 925.67 310.911563 
L 947.67 310.911563 
" style="fill: none; stroke: #6aaed6; stroke-width: 1.5; stroke-linecap: square"/>
    </g>
    <g id="text_29">
     <!-- Xi-IIIA -->
     <g transform="translate(965.27 318.611563) scale(0.22 -0.22)">
      <use xlink:href="#DejaVuSans-58"/>
      <use xlink:href="#DejaVuSans-69" x="68.505859"/>
      <use xlink:href="#DejaVuSans-2d" x="96.289062"/>
      <use xlink:href="#DejaVuSans-49" x="132.373047"/>
      <use xlink:href="#DejaVuSans-49" x="161.865234"/>
      <use xlink:href="#DejaVuSans-49" x="191.357422"/>
      <use xlink:href="#DejaVuSans-41" x="220.849609"/>
     </g>
    </g>
    <g id="line2d_44">
     <path d="M 903.67 343.203438 
L 925.67 343.203438 
L 947.67 343.203438 
" style="fill: none; stroke: #fd8c3b; stroke-width: 1.5; stroke-linecap: square"/>
    </g>
    <g id="text_30">
     <!-- Xa-IIIA -->
     <g transform="translate(965.27 350.903438) scale(0.22 -0.22)">
      <use xlink:href="#DejaVuSans-58"/>
      <use xlink:href="#DejaVuSans-61" x="68.505859"/>
      <use xlink:href="#DejaVuSans-2d" x="129.785156"/>
      <use xlink:href="#DejaVuSans-49" x="165.869141"/>
      <use xlink:href="#DejaVuSans-49" x="195.361328"/>
      <use xlink:href="#DejaVuSans-49" x="224.853516"/>
      <use xlink:href="#DejaVuSans-41" x="254.345703"/>
     </g>
    </g>
    <g id="line2d_45">
     <path d="M 903.67 375.495313 
L 925.67 375.495313 
L 947.67 375.495313 
" style="fill: none; stroke: #4a98c9; stroke-width: 1.5; stroke-linecap: square"/>
    </g>
    <g id="text_31">
     <!-- Xi-IIII -->
     <g transform="translate(965.27 383.195313) scale(0.22 -0.22)">
      <use xlink:href="#DejaVuSans-58"/>
      <use xlink:href="#DejaVuSans-69" x="68.505859"/>
      <use xlink:href="#DejaVuSans-2d" x="96.289062"/>
      <use xlink:href="#DejaVuSans-49" x="132.373047"/>
      <use xlink:href="#DejaVuSans-49" x="161.865234"/>
      <use xlink:href="#DejaVuSans-49" x="191.357422"/>
      <use xlink:href="#DejaVuSans-49" x="220.849609"/>
     </g>
    </g>
    <g id="line2d_46">
     <path d="M 903.67 407.787188 
L 925.67 407.787188 
L 947.67 407.787188 
" style="fill: none; stroke: #f3701b; stroke-width: 1.5; stroke-linecap: square"/>
    </g>
    <g id="text_32">
     <!-- Xa-IIII -->
     <g transform="translate(965.27 415.487188) scale(0.22 -0.22)">
      <use xlink:href="#DejaVuSans-58"/>
      <use xlink:href="#DejaVuSans-61" x="68.505859"/>
      <use xlink:href="#DejaVuSans-2d" x="129.785156"/>
      <use xlink:href="#DejaVuSans-49" x="165.869141"/>
      <use xlink:href="#DejaVuSans-49" x="195.361328"/>
      <use xlink:href="#DejaVuSans-49" x="224.853516"/>
      <use xlink:href="#DejaVuSans-49" x="254.345703"/>
     </g>
    </g>
    <g id="line2d_47">
     <path d="M 903.67 440.079063 
L 925.67 440.079063 
L 947.67 440.079063 
" style="fill: none; stroke: #2e7ebc; stroke-width: 1.5; stroke-linecap: square"/>
    </g>
    <g id="text_33">
     <!-- Xi-IIIN -->
     <g transform="translate(965.27 447.779063) scale(0.22 -0.22)">
      <use xlink:href="#DejaVuSans-58"/>
      <use xlink:href="#DejaVuSans-69" x="68.505859"/>
      <use xlink:href="#DejaVuSans-2d" x="96.289062"/>
      <use xlink:href="#DejaVuSans-49" x="132.373047"/>
      <use xlink:href="#DejaVuSans-49" x="161.865234"/>
      <use xlink:href="#DejaVuSans-49" x="191.357422"/>
      <use xlink:href="#DejaVuSans-4e" x="220.849609"/>
     </g>
    </g>
    <g id="line2d_48">
     <path d="M 903.67 472.370938 
L 925.67 472.370938 
L 947.67 472.370938 
" style="fill: none; stroke: #e25508; stroke-width: 1.5; stroke-linecap: square"/>
    </g>
    <g id="text_34">
     <!-- Xa-IIIN -->
     <g transform="translate(965.27 480.070938) scale(0.22 -0.22)">
      <use xlink:href="#DejaVuSans-58"/>
      <use xlink:href="#DejaVuSans-61" x="68.505859"/>
      <use xlink:href="#DejaVuSans-2d" x="129.785156"/>
      <use xlink:href="#DejaVuSans-49" x="165.869141"/>
      <use xlink:href="#DejaVuSans-49" x="195.361328"/>
      <use xlink:href="#DejaVuSans-49" x="224.853516"/>
      <use xlink:href="#DejaVuSans-4e" x="254.345703"/>
     </g>
    </g>
    <g id="line2d_49">
     <path d="M 903.67 504.662813 
L 925.67 504.662813 
L 947.67 504.662813 
" style="fill: none; stroke: #1764ab; stroke-width: 1.5; stroke-linecap: square"/>
    </g>
    <g id="text_35">
     <!-- Xi-IINA -->
     <g transform="translate(965.27 512.362813) scale(0.22 -0.22)">
      <use xlink:href="#DejaVuSans-58"/>
      <use xlink:href="#DejaVuSans-69" x="68.505859"/>
      <use xlink:href="#DejaVuSans-2d" x="96.289062"/>
      <use xlink:href="#DejaVuSans-49" x="132.373047"/>
      <use xlink:href="#DejaVuSans-49" x="161.865234"/>
      <use xlink:href="#DejaVuSans-4e" x="191.357422"/>
      <use xlink:href="#DejaVuSans-41" x="266.162109"/>
     </g>
    </g>
    <g id="line2d_50">
     <path d="M 903.67 536.954688 
L 925.67 536.954688 
L 947.67 536.954688 
" style="fill: none; stroke: #c54102; stroke-width: 1.5; stroke-linecap: square"/>
    </g>
    <g id="text_36">
     <!-- Xa-IINA -->
     <g transform="translate(965.27 544.654688) scale(0.22 -0.22)">
      <use xlink:href="#DejaVuSans-58"/>
      <use xlink:href="#DejaVuSans-61" x="68.505859"/>
      <use xlink:href="#DejaVuSans-2d" x="129.785156"/>
      <use xlink:href="#DejaVuSans-49" x="165.869141"/>
      <use xlink:href="#DejaVuSans-49" x="195.361328"/>
      <use xlink:href="#DejaVuSans-4e" x="224.853516"/>
      <use xlink:href="#DejaVuSans-41" x="299.658203"/>
     </g>
    </g>
    <g id="line2d_51">
     <path d="M 903.67 569.246563 
L 925.67 569.246563 
L 947.67 569.246563 
" style="fill: none; stroke: #084a91; stroke-width: 1.5; stroke-linecap: square"/>
    </g>
    <g id="text_37">
     <!-- Xi-IINI -->
     <g transform="translate(965.27 576.946563) scale(0.22 -0.22)">
      <use xlink:href="#DejaVuSans-58"/>
      <use xlink:href="#DejaVuSans-69" x="68.505859"/>
      <use xlink:href="#DejaVuSans-2d" x="96.289062"/>
      <use xlink:href="#DejaVuSans-49" x="132.373047"/>
      <use xlink:href="#DejaVuSans-49" x="161.865234"/>
      <use xlink:href="#DejaVuSans-4e" x="191.357422"/>
      <use xlink:href="#DejaVuSans-49" x="266.162109"/>
     </g>
    </g>
    <g id="line2d_52">
     <path d="M 903.67 601.538438 
L 925.67 601.538438 
L 947.67 601.538438 
" style="fill: none; stroke: #9e3303; stroke-width: 1.5; stroke-linecap: square"/>
    </g>
    <g id="text_38">
     <!-- Xa-IINI -->
     <g transform="translate(965.27 609.238438) scale(0.22 -0.22)">
      <use xlink:href="#DejaVuSans-58"/>
      <use xlink:href="#DejaVuSans-61" x="68.505859"/>
      <use xlink:href="#DejaVuSans-2d" x="129.785156"/>
      <use xlink:href="#DejaVuSans-49" x="165.869141"/>
      <use xlink:href="#DejaVuSans-49" x="195.361328"/>
      <use xlink:href="#DejaVuSans-4e" x="224.853516"/>
      <use xlink:href="#DejaVuSans-49" x="299.658203"/>
     </g>
    </g>
    <g id="line2d_53">
     <path d="M 903.67 633.830313 
L 925.67 633.830313 
L 947.67 633.830313 
" style="fill: none; stroke: #08306b; stroke-width: 1.5; stroke-linecap: square"/>
    </g>
    <g id="text_39">
     <!-- Xi-IINN -->
     <g transform="translate(965.27 641.530313) scale(0.22 -0.22)">
      <use xlink:href="#DejaVuSans-58"/>
      <use xlink:href="#DejaVuSans-69" x="68.505859"/>
      <use xlink:href="#DejaVuSans-2d" x="96.289062"/>
      <use xlink:href="#DejaVuSans-49" x="132.373047"/>
      <use xlink:href="#DejaVuSans-49" x="161.865234"/>
      <use xlink:href="#DejaVuSans-4e" x="191.357422"/>
      <use xlink:href="#DejaVuSans-4e" x="266.162109"/>
     </g>
    </g>
    <g id="line2d_54">
     <path d="M 903.67 666.122188 
L 925.67 666.122188 
L 947.67 666.122188 
" style="fill: none; stroke: #7f2704; stroke-width: 1.5; stroke-linecap: square"/>
    </g>
    <g id="text_40">
     <!-- Xa-IINN -->
     <g transform="translate(965.27 673.822188) scale(0.22 -0.22)">
      <use xlink:href="#DejaVuSans-58"/>
      <use xlink:href="#DejaVuSans-61" x="68.505859"/>
      <use xlink:href="#DejaVuSans-2d" x="129.785156"/>
      <use xlink:href="#DejaVuSans-49" x="165.869141"/>
      <use xlink:href="#DejaVuSans-49" x="195.361328"/>
      <use xlink:href="#DejaVuSans-4e" x="224.853516"/>
      <use xlink:href="#DejaVuSans-4e" x="299.658203"/>
     </g>
    </g>
   </g>
  </g>
 </g>
 <defs>
  <clipPath id="p13386ddcbc">
   <rect x="104.42" y="23.76" width="779.45" height="571.68"/>
  </clipPath>
 </defs>
</svg>
