<?xml version="1.0" encoding="utf-8" standalone="no"?>
<!DOCTYPE svg PUBLIC "-//W3C//DTD SVG 1.1//EN"
  "http://www.w3.org/Graphics/SVG/1.1/DTD/svg11.dtd">
<svg xmlns:xlink="http://www.w3.org/1999/xlink" width="1080pt" height="720pt" viewBox="0 0 1080 720" xmlns="http://www.w3.org/2000/svg" version="1.1">
 <metadata>
  <rdf:RDF xmlns:dc="http://purl.org/dc/elements/1.1/" xmlns:cc="http://creativecommons.org/ns#" xmlns:rdf="http://www.w3.org/1999/02/22-rdf-syntax-ns#">
   <cc:Work>
    <dc:type rdf:resource="http://purl.org/dc/dcmitype/StillImage"/>
    <dc:date>2023-02-17T15:04:39.879007</dc:date>
    <dc:format>image/svg+xml</dc:format>
    <dc:creator>
     <cc:Agent>
      <dc:title>Matplotlib v3.6.2, https://matplotlib.org/</dc:title>
     </cc:Agent>
    </dc:creator>
   </cc:Work>
  </rdf:RDF>
 </metadata>
 <defs>
  <style type="text/css">*{stroke-linejoin: round; stroke-linecap: butt}</style>
 </defs>
 <g id="figure_1">
  <g id="patch_1">
   <path d="M 0 720 
L 1080 720 
L 1080 0 
L 0 0 
z
" style="fill: #ffffff"/>
  </g>
  <g id="axes_1">
   <g id="patch_2">
    <path d="M 104.42 595.44 
L 883.87 595.44 
L 883.87 23.76 
L 104.42 23.76 
z
" style="fill: #ffffff"/>
   </g>
   <g id="PathCollection_1">
    <defs>
     <path id="m80f1702e56" d="M 0 3 
C 0.795609 3 1.55874 2.683901 2.12132 2.12132 
C 2.683901 1.55874 3 0.795609 3 0 
C 3 -0.795609 2.683901 -1.55874 2.12132 -2.12132 
C 1.55874 -2.683901 0.795609 -3 0 -3 
C -0.795609 -3 -1.55874 -2.683901 -2.12132 -2.12132 
C -2.683901 -1.55874 -3 -0.795609 -3 0 
C -3 0.795609 -2.683901 1.55874 -2.12132 2.12132 
C -1.55874 2.683901 -0.795609 3 0 3 
z
" style="stroke: #1f77b4"/>
    </defs>
    <g clip-path="url(#p13386ddcbc)">
     <use xlink:href="#m80f1702e56" x="139.849545" y="569.454545" style="fill: #1f77b4; stroke: #1f77b4"/>
     <use xlink:href="#m80f1702e56" x="228.423409" y="483.016203" style="fill: #1f77b4; stroke: #1f77b4"/>
     <use xlink:href="#m80f1702e56" x="316.997273" y="483.016203" style="fill: #1f77b4; stroke: #1f77b4"/>
     <use xlink:href="#m80f1702e56" x="405.571136" y="483.016203" style="fill: #1f77b4; stroke: #1f77b4"/>
     <use xlink:href="#m80f1702e56" x="494.145" y="483.016203" style="fill: #1f77b4; stroke: #1f77b4"/>
     <use xlink:href="#m80f1702e56" x="582.718864" y="483.016203" style="fill: #1f77b4; stroke: #1f77b4"/>
     <use xlink:href="#m80f1702e56" x="671.292727" y="483.016203" style="fill: #1f77b4; stroke: #1f77b4"/>
     <use xlink:href="#m80f1702e56" x="759.866591" y="483.016203" style="fill: #1f77b4; stroke: #1f77b4"/>
     <use xlink:href="#m80f1702e56" x="848.440455" y="483.016203" style="fill: #1f77b4; stroke: #1f77b4"/>
    </g>
   </g>
   <g id="PathCollection_2">
    <defs>
     <path id="m62fcbac0dc" d="M 0 3 
C 0.795609 3 1.55874 2.683901 2.12132 2.12132 
C 2.683901 1.55874 3 0.795609 3 0 
C 3 -0.795609 2.683901 -1.55874 2.12132 -2.12132 
C 1.55874 -2.683901 0.795609 -3 0 -3 
C -0.795609 -3 -1.55874 -2.683901 -2.12132 -2.12132 
C -2.683901 -1.55874 -3 -0.795609 -3 0 
C -3 0.795609 -2.683901 1.55874 -2.12132 2.12132 
C -1.55874 2.683901 -0.795609 3 0 3 
z
" style="stroke: #ff7f0e"/>
    </defs>
    <g clip-path="url(#p13386ddcbc)">
     <use xlink:href="#m62fcbac0dc" x="139.849545" y="112.346341" style="fill: #ff7f0e; stroke: #ff7f0e"/>
     <use xlink:href="#m62fcbac0dc" x="228.423409" y="49.745455" style="fill: #ff7f0e; stroke: #ff7f0e"/>
     <use xlink:href="#m62fcbac0dc" x="316.997273" y="49.745455" style="fill: #ff7f0e; stroke: #ff7f0e"/>
     <use xlink:href="#m62fcbac0dc" x="405.571136" y="49.745455" style="fill: #ff7f0e; stroke: #ff7f0e"/>
     <use xlink:href="#m62fcbac0dc" x="494.145" y="49.745455" style="fill: #ff7f0e; stroke: #ff7f0e"/>
     <use xlink:href="#m62fcbac0dc" x="582.718864" y="49.745455" style="fill: #ff7f0e; stroke: #ff7f0e"/>
     <use xlink:href="#m62fcbac0dc" x="671.292727" y="49.745455" style="fill: #ff7f0e; stroke: #ff7f0e"/>
     <use xlink:href="#m62fcbac0dc" x="759.866591" y="49.745455" style="fill: #ff7f0e; stroke: #ff7f0e"/>
     <use xlink:href="#m62fcbac0dc" x="848.440455" y="49.745455" style="fill: #ff7f0e; stroke: #ff7f0e"/>
    </g>
   </g>
   <g id="matplotlib.axis_1">
    <g id="xtick_1">
     <g id="line2d_1">
      <defs>
       <path id="m3385fdae1e" d="M 0 0 
L 0 3.5 
" style="stroke: #000000; stroke-width: 0.8"/>
      </defs>
      <g>
       <use xlink:href="#m3385fdae1e" x="139.849545" y="595.44" style="stroke: #000000; stroke-width: 0.8"/>
      </g>
     </g>
     <g id="text_1">
      <!-- 7 -->
      <g transform="translate(132.850795 619.156562) scale(0.22 -0.22)">
       <defs>
        <path id="DejaVuSans-37" d="M 525 4666 
L 3525 4666 
L 3525 4397 
L 1831 0 
L 1172 0 
L 2766 4134 
L 525 4134 
L 525 4666 
z
" transform="scale(0.015625)"/>
       </defs>
       <use xlink:href="#DejaVuSans-37"/>
      </g>
     </g>
    </g>
    <g id="xtick_2">
     <g id="line2d_2">
      <g>
       <use xlink:href="#m3385fdae1e" x="228.423409" y="595.44" style="stroke: #000000; stroke-width: 0.8"/>
      </g>
     </g>
     <g id="text_2">
      <!-- 8 -->
      <g transform="translate(221.424659 619.156562) scale(0.22 -0.22)">
       <defs>
        <path id="DejaVuSans-38" d="M 2034 2216 
Q 1584 2216 1326 1975 
Q 1069 1734 1069 1313 
Q 1069 891 1326 650 
Q 1584 409 2034 409 
Q 2484 409 2743 651 
Q 3003 894 3003 1313 
Q 3003 1734 2745 1975 
Q 2488 2216 2034 2216 
z
M 1403 2484 
Q 997 2584 770 2862 
Q 544 3141 544 3541 
Q 544 4100 942 4425 
Q 1341 4750 2034 4750 
Q 2731 4750 3128 4425 
Q 3525 4100 3525 3541 
Q 3525 3141 3298 2862 
Q 3072 2584 2669 2484 
Q 3125 2378 3379 2068 
Q 3634 1759 3634 1313 
Q 3634 634 3220 271 
Q 2806 -91 2034 -91 
Q 1263 -91 848 271 
Q 434 634 434 1313 
Q 434 1759 690 2068 
Q 947 2378 1403 2484 
z
M 1172 3481 
Q 1172 3119 1398 2916 
Q 1625 2713 2034 2713 
Q 2441 2713 2670 2916 
Q 2900 3119 2900 3481 
Q 2900 3844 2670 4047 
Q 2441 4250 2034 4250 
Q 1625 4250 1398 4047 
Q 1172 3844 1172 3481 
z
" transform="scale(0.015625)"/>
       </defs>
       <use xlink:href="#DejaVuSans-38"/>
      </g>
     </g>
    </g>
    <g id="xtick_3">
     <g id="line2d_3">
      <g>
       <use xlink:href="#m3385fdae1e" x="316.997273" y="595.44" style="stroke: #000000; stroke-width: 0.8"/>
      </g>
     </g>
     <g id="text_3">
      <!-- 9 -->
      <g transform="translate(309.998523 619.156562) scale(0.22 -0.22)">
       <defs>
        <path id="DejaVuSans-39" d="M 703 97 
L 703 672 
Q 941 559 1184 500 
Q 1428 441 1663 441 
Q 2288 441 2617 861 
Q 2947 1281 2994 2138 
Q 2813 1869 2534 1725 
Q 2256 1581 1919 1581 
Q 1219 1581 811 2004 
Q 403 2428 403 3163 
Q 403 3881 828 4315 
Q 1253 4750 1959 4750 
Q 2769 4750 3195 4129 
Q 3622 3509 3622 2328 
Q 3622 1225 3098 567 
Q 2575 -91 1691 -91 
Q 1453 -91 1209 -44 
Q 966 3 703 97 
z
M 1959 2075 
Q 2384 2075 2632 2365 
Q 2881 2656 2881 3163 
Q 2881 3666 2632 3958 
Q 2384 4250 1959 4250 
Q 1534 4250 1286 3958 
Q 1038 3666 1038 3163 
Q 1038 2656 1286 2365 
Q 1534 2075 1959 2075 
z
" transform="scale(0.015625)"/>
       </defs>
       <use xlink:href="#DejaVuSans-39"/>
      </g>
     </g>
    </g>
    <g id="xtick_4">
     <g id="line2d_4">
      <g>
       <use xlink:href="#m3385fdae1e" x="405.571136" y="595.44" style="stroke: #000000; stroke-width: 0.8"/>
      </g>
     </g>
     <g id="text_4">
      <!-- 10 -->
      <g transform="translate(391.573636 619.156562) scale(0.22 -0.22)">
       <defs>
        <path id="DejaVuSans-31" d="M 794 531 
L 1825 531 
L 1825 4091 
L 703 3866 
L 703 4441 
L 1819 4666 
L 2450 4666 
L 2450 531 
L 3481 531 
L 3481 0 
L 794 0 
L 794 531 
z
" transform="scale(0.015625)"/>
        <path id="DejaVuSans-30" d="M 2034 4250 
Q 1547 4250 1301 3770 
Q 1056 3291 1056 2328 
Q 1056 1369 1301 889 
Q 1547 409 2034 409 
Q 2525 409 2770 889 
Q 3016 1369 3016 2328 
Q 3016 3291 2770 3770 
Q 2525 4250 2034 4250 
z
M 2034 4750 
Q 2819 4750 3233 4129 
Q 3647 3509 3647 2328 
Q 3647 1150 3233 529 
Q 2819 -91 2034 -91 
Q 1250 -91 836 529 
Q 422 1150 422 2328 
Q 422 3509 836 4129 
Q 1250 4750 2034 4750 
z
" transform="scale(0.015625)"/>
       </defs>
       <use xlink:href="#DejaVuSans-31"/>
       <use xlink:href="#DejaVuSans-30" x="63.623047"/>
      </g>
     </g>
    </g>
    <g id="xtick_5">
     <g id="line2d_5">
      <g>
       <use xlink:href="#m3385fdae1e" x="494.145" y="595.44" style="stroke: #000000; stroke-width: 0.8"/>
      </g>
     </g>
     <g id="text_5">
      <!-- 11 -->
      <g transform="translate(480.1475 619.156562) scale(0.22 -0.22)">
       <use xlink:href="#DejaVuSans-31"/>
       <use xlink:href="#DejaVuSans-31" x="63.623047"/>
      </g>
     </g>
    </g>
    <g id="xtick_6">
     <g id="line2d_6">
      <g>
       <use xlink:href="#m3385fdae1e" x="582.718864" y="595.44" style="stroke: #000000; stroke-width: 0.8"/>
      </g>
     </g>
     <g id="text_6">
      <!-- 12 -->
      <g transform="translate(568.721364 619.156562) scale(0.22 -0.22)">
       <defs>
        <path id="DejaVuSans-32" d="M 1228 531 
L 3431 531 
L 3431 0 
L 469 0 
L 469 531 
Q 828 903 1448 1529 
Q 2069 2156 2228 2338 
Q 2531 2678 2651 2914 
Q 2772 3150 2772 3378 
Q 2772 3750 2511 3984 
Q 2250 4219 1831 4219 
Q 1534 4219 1204 4116 
Q 875 4013 500 3803 
L 500 4441 
Q 881 4594 1212 4672 
Q 1544 4750 1819 4750 
Q 2544 4750 2975 4387 
Q 3406 4025 3406 3419 
Q 3406 3131 3298 2873 
Q 3191 2616 2906 2266 
Q 2828 2175 2409 1742 
Q 1991 1309 1228 531 
z
" transform="scale(0.015625)"/>
       </defs>
       <use xlink:href="#DejaVuSans-31"/>
       <use xlink:href="#DejaVuSans-32" x="63.623047"/>
      </g>
     </g>
    </g>
    <g id="xtick_7">
     <g id="line2d_7">
      <g>
       <use xlink:href="#m3385fdae1e" x="671.292727" y="595.44" style="stroke: #000000; stroke-width: 0.8"/>
      </g>
     </g>
     <g id="text_7">
      <!-- 13 -->
      <g transform="translate(657.295227 619.156562) scale(0.22 -0.22)">
       <defs>
        <path id="DejaVuSans-33" d="M 2597 2516 
Q 3050 2419 3304 2112 
Q 3559 1806 3559 1356 
Q 3559 666 3084 287 
Q 2609 -91 1734 -91 
Q 1441 -91 1130 -33 
Q 819 25 488 141 
L 488 750 
Q 750 597 1062 519 
Q 1375 441 1716 441 
Q 2309 441 2620 675 
Q 2931 909 2931 1356 
Q 2931 1769 2642 2001 
Q 2353 2234 1838 2234 
L 1294 2234 
L 1294 2753 
L 1863 2753 
Q 2328 2753 2575 2939 
Q 2822 3125 2822 3475 
Q 2822 3834 2567 4026 
Q 2313 4219 1838 4219 
Q 1578 4219 1281 4162 
Q 984 4106 628 3988 
L 628 4550 
Q 988 4650 1302 4700 
Q 1616 4750 1894 4750 
Q 2613 4750 3031 4423 
Q 3450 4097 3450 3541 
Q 3450 3153 3228 2886 
Q 3006 2619 2597 2516 
z
" transform="scale(0.015625)"/>
       </defs>
       <use xlink:href="#DejaVuSans-31"/>
       <use xlink:href="#DejaVuSans-33" x="63.623047"/>
      </g>
     </g>
    </g>
    <g id="xtick_8">
     <g id="line2d_8">
      <g>
       <use xlink:href="#m3385fdae1e" x="759.866591" y="595.44" style="stroke: #000000; stroke-width: 0.8"/>
      </g>
     </g>
     <g id="text_8">
      <!-- 14 -->
      <g transform="translate(745.869091 619.156562) scale(0.22 -0.22)">
       <defs>
        <path id="DejaVuSans-34" d="M 2419 4116 
L 825 1625 
L 2419 1625 
L 2419 4116 
z
M 2253 4666 
L 3047 4666 
L 3047 1625 
L 3713 1625 
L 3713 1100 
L 3047 1100 
L 3047 0 
L 2419 0 
L 2419 1100 
L 313 1100 
L 313 1709 
L 2253 4666 
z
" transform="scale(0.015625)"/>
       </defs>
       <use xlink:href="#DejaVuSans-31"/>
       <use xlink:href="#DejaVuSans-34" x="63.623047"/>
      </g>
     </g>
    </g>
    <g id="xtick_9">
     <g id="line2d_9">
      <g>
       <use xlink:href="#m3385fdae1e" x="848.440455" y="595.44" style="stroke: #000000; stroke-width: 0.8"/>
      </g>
     </g>
     <g id="text_9">
      <!-- 15 -->
      <g transform="translate(834.442955 619.156562) scale(0.22 -0.22)">
       <defs>
        <path id="DejaVuSans-35" d="M 691 4666 
L 3169 4666 
L 3169 4134 
L 1269 4134 
L 1269 2991 
Q 1406 3038 1543 3061 
Q 1681 3084 1819 3084 
Q 2600 3084 3056 2656 
Q 3513 2228 3513 1497 
Q 3513 744 3044 326 
Q 2575 -91 1722 -91 
Q 1428 -91 1123 -41 
Q 819 9 494 109 
L 494 744 
Q 775 591 1075 516 
Q 1375 441 1709 441 
Q 2250 441 2565 725 
Q 2881 1009 2881 1497 
Q 2881 1984 2565 2268 
Q 2250 2553 1709 2553 
Q 1456 2553 1204 2497 
Q 953 2441 691 2322 
L 691 4666 
z
" transform="scale(0.015625)"/>
       </defs>
       <use xlink:href="#DejaVuSans-31"/>
       <use xlink:href="#DejaVuSans-35" x="63.623047"/>
      </g>
     </g>
    </g>
    <g id="text_10">
     <!-- Time (days) -->
     <g transform="translate(429.186563 644.448437) scale(0.22 -0.22)">
      <defs>
       <path id="DejaVuSans-54" d="M -19 4666 
L 3928 4666 
L 3928 4134 
L 2272 4134 
L 2272 0 
L 1638 0 
L 1638 4134 
L -19 4134 
L -19 4666 
z
" transform="scale(0.015625)"/>
       <path id="DejaVuSans-69" d="M 603 3500 
L 1178 3500 
L 1178 0 
L 603 0 
L 603 3500 
z
M 603 4863 
L 1178 4863 
L 1178 4134 
L 603 4134 
L 603 4863 
z
" transform="scale(0.015625)"/>
       <path id="DejaVuSans-6d" d="M 3328 2828 
Q 3544 3216 3844 3400 
Q 4144 3584 4550 3584 
Q 5097 3584 5394 3201 
Q 5691 2819 5691 2113 
L 5691 0 
L 5113 0 
L 5113 2094 
Q 5113 2597 4934 2840 
Q 4756 3084 4391 3084 
Q 3944 3084 3684 2787 
Q 3425 2491 3425 1978 
L 3425 0 
L 2847 0 
L 2847 2094 
Q 2847 2600 2669 2842 
Q 2491 3084 2119 3084 
Q 1678 3084 1418 2786 
Q 1159 2488 1159 1978 
L 1159 0 
L 581 0 
L 581 3500 
L 1159 3500 
L 1159 2956 
Q 1356 3278 1631 3431 
Q 1906 3584 2284 3584 
Q 2666 3584 2933 3390 
Q 3200 3197 3328 2828 
z
" transform="scale(0.015625)"/>
       <path id="DejaVuSans-65" d="M 3597 1894 
L 3597 1613 
L 953 1613 
Q 991 1019 1311 708 
Q 1631 397 2203 397 
Q 2534 397 2845 478 
Q 3156 559 3463 722 
L 3463 178 
Q 3153 47 2828 -22 
Q 2503 -91 2169 -91 
Q 1331 -91 842 396 
Q 353 884 353 1716 
Q 353 2575 817 3079 
Q 1281 3584 2069 3584 
Q 2775 3584 3186 3129 
Q 3597 2675 3597 1894 
z
M 3022 2063 
Q 3016 2534 2758 2815 
Q 2500 3097 2075 3097 
Q 1594 3097 1305 2825 
Q 1016 2553 972 2059 
L 3022 2063 
z
" transform="scale(0.015625)"/>
       <path id="DejaVuSans-20" transform="scale(0.015625)"/>
       <path id="DejaVuSans-28" d="M 1984 4856 
Q 1566 4138 1362 3434 
Q 1159 2731 1159 2009 
Q 1159 1288 1364 580 
Q 1569 -128 1984 -844 
L 1484 -844 
Q 1016 -109 783 600 
Q 550 1309 550 2009 
Q 550 2706 781 3412 
Q 1013 4119 1484 4856 
L 1984 4856 
z
" transform="scale(0.015625)"/>
       <path id="DejaVuSans-64" d="M 2906 2969 
L 2906 4863 
L 3481 4863 
L 3481 0 
L 2906 0 
L 2906 525 
Q 2725 213 2448 61 
Q 2172 -91 1784 -91 
Q 1150 -91 751 415 
Q 353 922 353 1747 
Q 353 2572 751 3078 
Q 1150 3584 1784 3584 
Q 2172 3584 2448 3432 
Q 2725 3281 2906 2969 
z
M 947 1747 
Q 947 1113 1208 752 
Q 1469 391 1925 391 
Q 2381 391 2643 752 
Q 2906 1113 2906 1747 
Q 2906 2381 2643 2742 
Q 2381 3103 1925 3103 
Q 1469 3103 1208 2742 
Q 947 2381 947 1747 
z
" transform="scale(0.015625)"/>
       <path id="DejaVuSans-61" d="M 2194 1759 
Q 1497 1759 1228 1600 
Q 959 1441 959 1056 
Q 959 750 1161 570 
Q 1363 391 1709 391 
Q 2188 391 2477 730 
Q 2766 1069 2766 1631 
L 2766 1759 
L 2194 1759 
z
M 3341 1997 
L 3341 0 
L 2766 0 
L 2766 531 
Q 2569 213 2275 61 
Q 1981 -91 1556 -91 
Q 1019 -91 701 211 
Q 384 513 384 1019 
Q 384 1609 779 1909 
Q 1175 2209 1959 2209 
L 2766 2209 
L 2766 2266 
Q 2766 2663 2505 2880 
Q 2244 3097 1772 3097 
Q 1472 3097 1187 3025 
Q 903 2953 641 2809 
L 641 3341 
Q 956 3463 1253 3523 
Q 1550 3584 1831 3584 
Q 2591 3584 2966 3190 
Q 3341 2797 3341 1997 
z
" transform="scale(0.015625)"/>
       <path id="DejaVuSans-79" d="M 2059 -325 
Q 1816 -950 1584 -1140 
Q 1353 -1331 966 -1331 
L 506 -1331 
L 506 -850 
L 844 -850 
Q 1081 -850 1212 -737 
Q 1344 -625 1503 -206 
L 1606 56 
L 191 3500 
L 800 3500 
L 1894 763 
L 2988 3500 
L 3597 3500 
L 2059 -325 
z
" transform="scale(0.015625)"/>
       <path id="DejaVuSans-73" d="M 2834 3397 
L 2834 2853 
Q 2591 2978 2328 3040 
Q 2066 3103 1784 3103 
Q 1356 3103 1142 2972 
Q 928 2841 928 2578 
Q 928 2378 1081 2264 
Q 1234 2150 1697 2047 
L 1894 2003 
Q 2506 1872 2764 1633 
Q 3022 1394 3022 966 
Q 3022 478 2636 193 
Q 2250 -91 1575 -91 
Q 1294 -91 989 -36 
Q 684 19 347 128 
L 347 722 
Q 666 556 975 473 
Q 1284 391 1588 391 
Q 1994 391 2212 530 
Q 2431 669 2431 922 
Q 2431 1156 2273 1281 
Q 2116 1406 1581 1522 
L 1381 1569 
Q 847 1681 609 1914 
Q 372 2147 372 2553 
Q 372 3047 722 3315 
Q 1072 3584 1716 3584 
Q 2034 3584 2315 3537 
Q 2597 3491 2834 3397 
z
" transform="scale(0.015625)"/>
       <path id="DejaVuSans-29" d="M 513 4856 
L 1013 4856 
Q 1481 4119 1714 3412 
Q 1947 2706 1947 2009 
Q 1947 1309 1714 600 
Q 1481 -109 1013 -844 
L 513 -844 
Q 928 -128 1133 580 
Q 1338 1288 1338 2009 
Q 1338 2731 1133 3434 
Q 928 4138 513 4856 
z
" transform="scale(0.015625)"/>
      </defs>
      <use xlink:href="#DejaVuSans-54"/>
      <use xlink:href="#DejaVuSans-69" x="57.958984"/>
      <use xlink:href="#DejaVuSans-6d" x="85.742188"/>
      <use xlink:href="#DejaVuSans-65" x="183.154297"/>
      <use xlink:href="#DejaVuSans-20" x="244.677734"/>
      <use xlink:href="#DejaVuSans-28" x="276.464844"/>
      <use xlink:href="#DejaVuSans-64" x="315.478516"/>
      <use xlink:href="#DejaVuSans-61" x="378.955078"/>
      <use xlink:href="#DejaVuSans-79" x="440.234375"/>
      <use xlink:href="#DejaVuSans-73" x="499.414062"/>
      <use xlink:href="#DejaVuSans-29" x="551.513672"/>
     </g>
    </g>
   </g>
   <g id="matplotlib.axis_2">
    <g id="ytick_1">
     <g id="line2d_10">
      <defs>
       <path id="ma600d9e374" d="M 0 0 
L -3.5 0 
" style="stroke: #000000; stroke-width: 0.8"/>
      </defs>
      <g>
       <use xlink:href="#ma600d9e374" x="104.42" y="569.761552" style="stroke: #000000; stroke-width: 0.8"/>
      </g>
     </g>
     <g id="text_11">
      <!-- 0.00 -->
      <g transform="translate(48.435625 578.119833) scale(0.22 -0.22)">
       <defs>
        <path id="DejaVuSans-2e" d="M 684 794 
L 1344 794 
L 1344 0 
L 684 0 
L 684 794 
z
" transform="scale(0.015625)"/>
       </defs>
       <use xlink:href="#DejaVuSans-30"/>
       <use xlink:href="#DejaVuSans-2e" x="63.623047"/>
       <use xlink:href="#DejaVuSans-30" x="95.410156"/>
       <use xlink:href="#DejaVuSans-30" x="159.033203"/>
      </g>
     </g>
    </g>
    <g id="ytick_2">
     <g id="line2d_11">
      <g>
       <use xlink:href="#ma600d9e374" x="104.42" y="498.408399" style="stroke: #000000; stroke-width: 0.8"/>
      </g>
     </g>
     <g id="text_12">
      <!-- 0.25 -->
      <g transform="translate(48.435625 506.76668) scale(0.22 -0.22)">
       <use xlink:href="#DejaVuSans-30"/>
       <use xlink:href="#DejaVuSans-2e" x="63.623047"/>
       <use xlink:href="#DejaVuSans-32" x="95.410156"/>
       <use xlink:href="#DejaVuSans-35" x="159.033203"/>
      </g>
     </g>
    </g>
    <g id="ytick_3">
     <g id="line2d_12">
      <g>
       <use xlink:href="#ma600d9e374" x="104.42" y="427.055246" style="stroke: #000000; stroke-width: 0.8"/>
      </g>
     </g>
     <g id="text_13">
      <!-- 0.50 -->
      <g transform="translate(48.435625 435.413527) scale(0.22 -0.22)">
       <use xlink:href="#DejaVuSans-30"/>
       <use xlink:href="#DejaVuSans-2e" x="63.623047"/>
       <use xlink:href="#DejaVuSans-35" x="95.410156"/>
       <use xlink:href="#DejaVuSans-30" x="159.033203"/>
      </g>
     </g>
    </g>
    <g id="ytick_4">
     <g id="line2d_13">
      <g>
       <use xlink:href="#ma600d9e374" x="104.42" y="355.702093" style="stroke: #000000; stroke-width: 0.8"/>
      </g>
     </g>
     <g id="text_14">
      <!-- 0.75 -->
      <g transform="translate(48.435625 364.060374) scale(0.22 -0.22)">
       <use xlink:href="#DejaVuSans-30"/>
       <use xlink:href="#DejaVuSans-2e" x="63.623047"/>
       <use xlink:href="#DejaVuSans-37" x="95.410156"/>
       <use xlink:href="#DejaVuSans-35" x="159.033203"/>
      </g>
     </g>
    </g>
    <g id="ytick_5">
     <g id="line2d_14">
      <g>
       <use xlink:href="#ma600d9e374" x="104.42" y="284.34894" style="stroke: #000000; stroke-width: 0.8"/>
      </g>
     </g>
     <g id="text_15">
      <!-- 1.00 -->
      <g transform="translate(48.435625 292.707222) scale(0.22 -0.22)">
       <use xlink:href="#DejaVuSans-31"/>
       <use xlink:href="#DejaVuSans-2e" x="63.623047"/>
       <use xlink:href="#DejaVuSans-30" x="95.410156"/>
       <use xlink:href="#DejaVuSans-30" x="159.033203"/>
      </g>
     </g>
    </g>
    <g id="ytick_6">
     <g id="line2d_15">
      <g>
       <use xlink:href="#ma600d9e374" x="104.42" y="212.995787" style="stroke: #000000; stroke-width: 0.8"/>
      </g>
     </g>
     <g id="text_16">
      <!-- 1.25 -->
      <g transform="translate(48.435625 221.354069) scale(0.22 -0.22)">
       <use xlink:href="#DejaVuSans-31"/>
       <use xlink:href="#DejaVuSans-2e" x="63.623047"/>
       <use xlink:href="#DejaVuSans-32" x="95.410156"/>
       <use xlink:href="#DejaVuSans-35" x="159.033203"/>
      </g>
     </g>
    </g>
    <g id="ytick_7">
     <g id="line2d_16">
      <g>
       <use xlink:href="#ma600d9e374" x="104.42" y="141.642635" style="stroke: #000000; stroke-width: 0.8"/>
      </g>
     </g>
     <g id="text_17">
      <!-- 1.50 -->
      <g transform="translate(48.435625 150.000916) scale(0.22 -0.22)">
       <use xlink:href="#DejaVuSans-31"/>
       <use xlink:href="#DejaVuSans-2e" x="63.623047"/>
       <use xlink:href="#DejaVuSans-35" x="95.410156"/>
       <use xlink:href="#DejaVuSans-30" x="159.033203"/>
      </g>
     </g>
    </g>
    <g id="ytick_8">
     <g id="line2d_17">
      <g>
       <use xlink:href="#ma600d9e374" x="104.42" y="70.289482" style="stroke: #000000; stroke-width: 0.8"/>
      </g>
     </g>
     <g id="text_18">
      <!-- 1.75 -->
      <g transform="translate(48.435625 78.647763) scale(0.22 -0.22)">
       <use xlink:href="#DejaVuSans-31"/>
       <use xlink:href="#DejaVuSans-2e" x="63.623047"/>
       <use xlink:href="#DejaVuSans-37" x="95.410156"/>
       <use xlink:href="#DejaVuSans-35" x="159.033203"/>
      </g>
     </g>
    </g>
    <g id="text_19">
     <!-- X:A -->
     <g transform="translate(39.860313 328.365312) rotate(-90) scale(0.22 -0.22)">
      <defs>
       <path id="DejaVuSans-58" d="M 403 4666 
L 1081 4666 
L 2241 2931 
L 3406 4666 
L 4084 4666 
L 2584 2425 
L 4184 0 
L 3506 0 
L 2194 1984 
L 872 0 
L 191 0 
L 1856 2491 
L 403 4666 
z
" transform="scale(0.015625)"/>
       <path id="DejaVuSans-3a" d="M 750 794 
L 1409 794 
L 1409 0 
L 750 0 
L 750 794 
z
M 750 3309 
L 1409 3309 
L 1409 2516 
L 750 2516 
L 750 3309 
z
" transform="scale(0.015625)"/>
       <path id="DejaVuSans-41" d="M 2188 4044 
L 1331 1722 
L 3047 1722 
L 2188 4044 
z
M 1831 4666 
L 2547 4666 
L 4325 0 
L 3669 0 
L 3244 1197 
L 1141 1197 
L 716 0 
L 50 0 
L 1831 4666 
z
" transform="scale(0.015625)"/>
      </defs>
      <use xlink:href="#DejaVuSans-58"/>
      <use xlink:href="#DejaVuSans-3a" x="68.505859"/>
      <use xlink:href="#DejaVuSans-41" x="102.197266"/>
     </g>
    </g>
   </g>
   <g id="line2d_18">
    <path d="M 139.849545 569.454545 
L 147.007029 567.250755 
L 154.164513 565.072814 
L 161.321997 562.920224 
L 168.479481 560.792492 
L 175.636965 558.689263 
L 182.794449 556.610226 
L 189.951933 554.555038 
L 197.109417 552.523346 
L 204.266901 550.514891 
L 211.424385 548.529409 
L 218.581869 546.56662 
L 225.739353 544.626228 
L 232.896837 542.707934 
L 240.05432 540.811494 
L 247.211804 538.936665 
L 254.369288 537.083197 
L 261.526772 535.250829 
L 268.684256 533.439292 
L 275.84174 531.648304 
L 282.999224 529.877584 
L 290.156708 528.126925 
L 297.314192 526.396134 
L 304.471676 524.684997 
L 311.62916 522.993281 
L 318.786644 521.320729 
L 325.944128 519.667065 
L 333.101612 518.031991 
L 340.259096 516.415251 
L 347.416579 514.816727 
L 354.574063 513.236246 
L 361.731547 511.673603 
L 368.889031 510.128565 
L 376.046515 508.600869 
L 383.203999 507.090236 
L 390.361483 505.596505 
L 397.518967 504.119522 
L 404.676451 502.659102 
L 411.833935 501.215044 
L 418.991419 499.787125 
L 426.148903 498.375105 
L 433.306387 496.978775 
L 440.463871 495.597994 
L 447.621354 494.232608 
L 454.778838 492.882446 
L 461.936322 491.547317 
L 469.093806 490.227014 
L 476.25129 488.921311 
L 483.408774 487.629993 
L 490.566258 486.352942 
L 497.723742 485.090044 
L 504.881226 483.841159 
L 512.03871 482.606121 
L 519.196194 481.384736 
L 526.353678 480.176784 
L 533.511162 478.982023 
L 540.668646 477.800324 
L 547.826129 476.631625 
L 554.983613 475.475819 
L 562.141097 474.332767 
L 569.298581 473.202294 
L 576.456065 472.08419 
L 583.613549 470.978212 
L 590.771033 469.884243 
L 597.928517 468.802235 
L 605.086001 467.732084 
L 612.243485 466.673655 
L 619.400969 465.626785 
L 626.558453 464.591283 
L 633.715937 463.566956 
L 640.873421 462.553737 
L 648.030904 461.551538 
L 655.188388 460.560246 
L 662.345872 459.579728 
L 669.503356 458.609833 
L 676.66084 457.650391 
L 683.818324 456.701268 
L 690.975808 455.762391 
L 698.133292 454.833671 
L 705.290776 453.915 
L 712.44826 453.006255 
L 719.605744 452.107296 
L 726.763228 451.21797 
L 733.920712 450.338136 
L 741.078196 449.467739 
L 748.23568 448.606707 
L 755.393163 447.754953 
L 762.550647 446.912368 
L 769.708131 446.078823 
L 776.865615 445.254169 
L 784.023099 444.438247 
L 791.180583 443.630989 
L 798.338067 442.832362 
L 805.495551 442.042303 
L 812.653035 441.260723 
L 819.810519 440.487506 
L 826.968003 439.722511 
L 834.125487 438.96557 
L 841.282971 438.216631 
L 848.440455 437.475659 
" clip-path="url(#p13386ddcbc)" style="fill: none; stroke: #d0e1f2; stroke-width: 1.5; stroke-linecap: square"/>
   </g>
   <g id="line2d_19">
    <path d="M 139.849545 112.346341 
L 147.007029 105.75177 
L 154.164513 101.611797 
L 161.321997 99.11857 
L 168.479481 97.437988 
L 175.636965 96.349578 
L 182.794449 95.777161 
L 189.951933 95.488374 
L 197.109417 95.213905 
L 204.266901 95.033632 
L 211.424385 94.996089 
L 218.581869 95.077095 
L 225.739353 95.184025 
L 232.896837 95.205052 
L 240.05432 95.214269 
L 247.211804 95.292527 
L 254.369288 95.472647 
L 261.526772 95.740886 
L 268.684256 96.036933 
L 275.84174 96.253846 
L 282.999224 96.268297 
L 290.156708 96.225401 
L 297.314192 96.309547 
L 304.471676 96.617342 
L 311.62916 97.157612 
L 318.786644 97.851401 
L 325.944128 98.531972 
L 333.101612 98.944807 
L 340.259096 98.97781 
L 347.416579 99.021961 
L 354.574063 99.255783 
L 361.731547 99.730713 
L 368.889031 100.376754 
L 376.046515 101.002473 
L 383.203999 101.343273 
L 390.361483 101.57946 
L 397.518967 101.903151 
L 404.676451 102.380733 
L 411.833935 102.999164 
L 418.991419 103.665972 
L 426.148903 104.209348 
L 433.306387 104.55503 
L 440.463871 104.896278 
L 447.621354 105.360324 
L 454.778838 105.996616 
L 461.936322 106.776817 
L 469.093806 107.594806 
L 476.25129 108.266676 
L 483.408774 108.632113 
L 490.566258 108.910448 
L 497.723742 109.326167 
L 504.881226 109.990431 
L 512.03871 110.902008 
L 519.196194 111.947276 
L 526.353678 112.900224 
L 533.511162 113.440492 
L 540.668646 113.67947 
L 547.826129 113.990492 
L 554.983613 114.567544 
L 562.141097 115.457363 
L 569.298581 116.559436 
L 576.456065 117.626001 
L 583.613549 118.272885 
L 590.771033 118.607629 
L 597.928517 119.015849 
L 605.086001 119.641658 
L 612.243485 120.504467 
L 619.400969 121.49899 
L 626.558453 122.395237 
L 633.715937 122.947843 
L 640.873421 123.426134 
L 648.030904 124.004695 
L 655.188388 124.746367 
L 662.345872 125.628857 
L 669.503356 126.544742 
L 676.66084 127.301536 
L 683.818324 127.838787 
L 690.975808 128.370448 
L 698.133292 129.013211 
L 705.290776 129.810029 
L 712.44826 130.73011 
L 719.605744 131.66892 
L 726.763228 132.448185 
L 733.920712 132.955211 
L 741.078196 133.410598 
L 748.23568 133.985429 
L 755.393163 134.75918 
L 762.550647 135.720127 
L 769.708131 136.765351 
L 776.865615 137.70073 
L 784.023099 138.272381 
L 791.180583 138.623537 
L 798.338067 139.047068 
L 805.495551 139.697964 
L 812.653035 140.609988 
L 819.810519 141.695672 
L 826.968003 142.746317 
L 834.125487 143.43719 
L 841.282971 143.943744 
L 848.440455 144.520522 
" clip-path="url(#p13386ddcbc)" style="fill: none; stroke: #fdd9b4; stroke-width: 1.5; stroke-linecap: square"/>
   </g>
   <g id="line2d_20">
    <path d="M 139.849545 569.454545 
L 147.007029 567.143911 
L 154.164513 564.906611 
L 161.321997 562.729263 
L 168.479481 560.600423 
L 175.636965 558.514412 
L 182.794449 556.468353 
L 189.951933 554.45801 
L 197.109417 552.477771 
L 204.266901 550.523278 
L 211.424385 548.595405 
L 218.581869 546.694041 
L 225.739353 544.818373 
L 232.896837 542.966901 
L 240.05432 541.13744 
L 247.211804 539.32775 
L 254.369288 537.538379 
L 261.526772 535.769982 
L 268.684256 534.022735 
L 275.84174 532.29639 
L 282.999224 530.590276 
L 290.156708 528.903296 
L 297.314192 527.233926 
L 304.471676 525.580351 
L 311.62916 523.942533 
L 318.786644 522.321775 
L 325.944128 520.718958 
L 333.101612 519.134507 
L 340.259096 517.568386 
L 347.416579 516.020098 
L 354.574063 514.488686 
L 361.731547 512.972734 
L 368.889031 511.470365 
L 376.046515 509.97926 
L 383.203999 508.498688 
L 390.361483 507.03112 
L 397.518967 505.578694 
L 404.676451 504.1428 
L 411.833935 502.724084 
L 418.991419 501.322442 
L 426.148903 499.937026 
L 433.306387 498.566243 
L 440.463871 497.207749 
L 447.621354 495.858459 
L 454.778838 494.514584 
L 461.936322 493.176657 
L 469.093806 491.849364 
L 476.25129 490.535651 
L 483.408774 489.237381 
L 490.566258 487.955334 
L 497.723742 486.689202 
L 504.881226 485.437597 
L 512.03871 484.198045 
L 519.196194 482.966989 
L 526.353678 481.739787 
L 533.511162 480.514401 
L 540.668646 479.297697 
L 547.826129 478.092409 
L 554.983613 476.900095 
L 562.141097 475.721362 
L 569.298581 474.555862 
L 576.456065 473.402297 
L 583.613549 472.258415 
L 590.771033 471.121013 
L 597.928517 469.986386 
L 605.086001 468.857556 
L 612.243485 467.737649 
L 619.400969 466.627953 
L 626.558453 465.529125 
L 633.715937 464.44119 
L 640.873421 463.363541 
L 648.030904 462.294942 
L 655.188388 461.233524 
L 662.345872 460.176786 
L 669.503356 459.123746 
L 676.66084 458.077255 
L 683.818324 457.038893 
L 690.975808 456.009684 
L 698.133292 454.990113 
L 705.290776 453.980123 
L 712.44826 452.979117 
L 719.605744 451.985956 
L 726.763228 450.998961 
L 733.920712 450.015913 
L 741.078196 449.034693 
L 748.23568 448.057243 
L 755.393163 447.086185 
L 762.550647 446.123356 
L 769.708131 445.16988 
L 776.865615 444.226162 
L 784.023099 443.291896 
L 791.180583 442.366058 
L 798.338067 441.446912 
L 805.495551 440.532005 
L 812.653035 439.61817 
L 819.810519 438.704097 
L 826.968003 437.796335 
L 834.125487 436.895303 
L 841.282971 436.000645 
L 848.440455 435.111931 
" clip-path="url(#p13386ddcbc)" style="fill: none; stroke: #b7d4ea; stroke-width: 1.5; stroke-linecap: square"/>
   </g>
   <g id="line2d_21">
    <path d="M 139.849545 112.346341 
L 147.007029 106.751414 
L 154.164513 102.680892 
L 161.321997 99.74141 
L 168.479481 97.587378 
L 175.636965 96.04059 
L 182.794449 95.014111 
L 189.951933 94.383377 
L 197.109417 93.985394 
L 204.266901 93.692252 
L 211.424385 93.536101 
L 218.581869 93.527632 
L 225.739353 93.653666 
L 232.896837 93.877485 
L 240.05432 94.138835 
L 247.211804 94.374791 
L 254.369288 94.616311 
L 261.526772 94.899571 
L 268.684256 95.244001 
L 275.84174 95.65387 
L 282.999224 96.118283 
L 290.156708 96.611182 
L 297.314192 97.091347 
L 304.471676 97.506999 
L 311.62916 97.868473 
L 318.786644 98.231515 
L 325.944128 98.637166 
L 333.101612 99.110377 
L 340.259096 99.660011 
L 347.416579 100.278846 
L 354.574063 100.943569 
L 361.731547 101.614781 
L 368.889031 102.236995 
L 376.046515 102.739334 
L 383.203999 103.106805 
L 390.361483 103.431816 
L 397.518967 103.794358 
L 404.676451 104.249204 
L 411.833935 104.825907 
L 418.991419 105.528801 
L 426.148903 106.337001 
L 433.306387 107.204403 
L 440.463871 108.059684 
L 447.621354 108.806302 
L 454.778838 109.324105 
L 461.936322 109.639633 
L 469.093806 109.914287 
L 476.25129 110.249633 
L 483.408774 110.712111 
L 490.566258 111.333035 
L 497.723742 112.108595 
L 504.881226 112.999854 
L 512.03871 113.932751 
L 519.196194 114.798099 
L 526.353678 115.451586 
L 533.511162 115.833627 
L 540.668646 116.170445 
L 547.826129 116.551587 
L 554.983613 117.029856 
L 562.141097 117.628564 
L 569.298581 118.341529 
L 576.456065 119.133079 
L 583.613549 119.93805 
L 590.771033 120.661786 
L 597.928517 121.194219 
L 605.086001 121.633663 
L 612.243485 122.079174 
L 619.400969 122.57301 
L 626.558453 123.13848 
L 633.715937 123.779946 
L 640.873421 124.482822 
L 648.030904 125.213574 
L 655.188388 125.919718 
L 662.345872 126.529825 
L 669.503356 127.018715 
L 676.66084 127.475085 
L 683.818324 127.947975 
L 690.975808 128.470246 
L 698.133292 129.058989 
L 705.290776 129.715531 
L 712.44826 130.425431 
L 719.605744 131.158482 
L 726.763228 131.86871 
L 733.920712 132.494374 
L 741.078196 132.977297 
L 748.23568 133.377843 
L 755.393163 133.772909 
L 762.550647 134.216878 
L 769.708131 134.74394 
L 776.865615 135.368098 
L 784.023099 136.083165 
L 791.180583 136.862764 
L 798.338067 137.660331 
L 805.495551 138.409109 
L 812.653035 139.022155 
L 819.810519 139.464752 
L 826.968003 139.923211 
L 834.125487 140.411134 
L 841.282971 140.920612 
L 848.440455 141.441745 
" clip-path="url(#p13386ddcbc)" style="fill: none; stroke: #fdc38d; stroke-width: 1.5; stroke-linecap: square"/>
   </g>
   <g id="line2d_22">
    <path d="M 139.849545 569.454545 
L 147.007029 567.257158 
L 154.164513 565.089042 
L 161.321997 562.948375 
L 168.479481 560.833341 
L 175.636965 558.743178 
L 182.794449 556.677437 
L 189.951933 554.635394 
L 197.109417 552.616265 
L 204.266901 550.619921 
L 211.424385 548.646184 
L 218.581869 546.694738 
L 225.739353 544.76513 
L 232.896837 542.856884 
L 240.05432 540.969897 
L 247.211804 539.10407 
L 254.369288 537.259212 
L 261.526772 535.43504 
L 268.684256 533.631181 
L 275.84174 531.847171 
L 282.999224 530.082552 
L 290.156708 528.337403 
L 297.314192 526.611831 
L 304.471676 524.905774 
L 311.62916 523.219003 
L 318.786644 521.551121 
L 325.944128 519.901563 
L 333.101612 518.269595 
L 340.259096 516.654934 
L 347.416579 515.058096 
L 354.574063 513.479171 
L 361.731547 511.918019 
L 368.889031 510.374274 
L 376.046515 508.84734 
L 383.203999 507.336541 
L 390.361483 505.8421 
L 397.518967 504.364152 
L 404.676451 502.902618 
L 411.833935 501.457268 
L 418.991419 500.027721 
L 426.148903 498.613449 
L 433.306387 497.214176 
L 440.463871 495.830096 
L 447.621354 494.461261 
L 454.778838 493.107578 
L 461.936322 491.768809 
L 469.093806 490.444568 
L 476.25129 489.134325 
L 483.408774 487.837651 
L 490.566258 486.554829 
L 497.723742 485.286096 
L 504.881226 484.03148 
L 512.03871 482.790806 
L 519.196194 481.56369 
L 526.353678 480.349544 
L 533.511162 479.147631 
L 540.668646 477.958108 
L 547.826129 476.781482 
L 554.983613 475.617941 
L 562.141097 474.467405 
L 569.298581 473.329528 
L 576.456065 472.2037 
L 583.613549 471.089087 
L 590.771033 469.985852 
L 597.928517 468.894519 
L 605.086001 467.815201 
L 612.243485 466.747787 
L 619.400969 465.691946 
L 626.558453 464.647122 
L 633.715937 463.612774 
L 640.873421 462.589288 
L 648.030904 461.576839 
L 655.188388 460.57541 
L 662.345872 459.584837 
L 669.503356 458.604802 
L 676.66084 457.634841 
L 683.818324 456.674753 
L 690.975808 455.724806 
L 698.133292 454.785086 
L 705.290776 453.855556 
L 712.44826 452.936048 
L 719.605744 452.026267 
L 726.763228 451.12579 
L 733.920712 450.234327 
L 741.078196 449.352166 
L 748.23568 448.479493 
L 755.393163 447.616342 
L 762.550647 446.76259 
L 769.708131 445.917958 
L 776.865615 445.082012 
L 784.023099 444.254221 
L 791.180583 443.434741 
L 798.338067 442.623978 
L 805.495551 441.822101 
L 812.653035 441.029077 
L 819.810519 440.244667 
L 826.968003 439.468427 
L 834.125487 438.699718 
L 841.282971 437.938729 
L 848.440455 437.185823 
" clip-path="url(#p13386ddcbc)" style="fill: none; stroke: #94c4df; stroke-width: 1.5; stroke-linecap: square"/>
   </g>
   <g id="line2d_23">
    <path d="M 139.849545 112.346341 
L 147.007029 105.624405 
L 154.164513 101.403847 
L 161.321997 98.864358 
L 168.479481 97.156193 
L 175.636965 96.052392 
L 182.794449 95.473326 
L 189.951933 95.182475 
L 197.109417 94.910759 
L 204.266901 94.738826 
L 211.424385 94.713948 
L 218.581869 94.809581 
L 225.739353 94.929038 
L 232.896837 94.961632 
L 240.05432 94.987386 
L 247.211804 95.086339 
L 254.369288 95.289576 
L 261.526772 95.580397 
L 268.684256 95.894324 
L 275.84174 96.11859 
L 282.999224 96.142501 
L 290.156708 96.12909 
L 297.314192 96.253028 
L 304.471676 96.601624 
L 311.62916 97.174824 
L 318.786644 97.885207 
L 325.944128 98.557994 
L 333.101612 98.93104 
L 340.259096 98.970506 
L 347.416579 99.052641 
L 354.574063 99.334758 
L 361.731547 99.853822 
L 368.889031 100.52668 
L 376.046515 101.150052 
L 383.203999 101.476388 
L 390.361483 101.726478 
L 397.518967 102.073902 
L 404.676451 102.578863 
L 411.833935 103.221279 
L 418.991419 103.900785 
L 426.148903 104.437665 
L 433.306387 104.783586 
L 440.463871 105.136266 
L 447.621354 105.617913 
L 454.778838 106.272568 
L 461.936322 107.0661 
L 469.093806 107.886203 
L 476.25129 108.542404 
L 483.408774 108.895258 
L 490.566258 109.182688 
L 497.723742 109.617583 
L 504.881226 110.301247 
L 512.03871 111.22382 
L 519.196194 112.264278 
L 526.353678 113.190433 
L 533.511162 113.690105 
L 540.668646 113.926567 
L 547.826129 114.254045 
L 554.983613 114.852106 
L 562.141097 115.755502 
L 569.298581 116.854169 
L 576.456065 117.893227 
L 583.613549 118.494333 
L 590.771033 118.820826 
L 597.928517 119.232795 
L 605.086001 119.865791 
L 612.243485 120.731698 
L 619.400969 121.718736 
L 626.558453 122.591454 
L 633.715937 123.119568 
L 640.873421 123.586588 
L 648.030904 124.158096 
L 655.188388 124.893507 
L 662.345872 125.767272 
L 669.503356 126.668877 
L 676.66084 127.40318 
L 683.818324 127.922817 
L 690.975808 128.441051 
L 698.133292 129.071835 
L 705.290776 129.855915 
L 712.44826 130.760829 
L 719.605744 131.680911 
L 726.763228 132.437284 
L 733.920712 132.925039 
L 741.078196 133.365915 
L 748.23568 133.926996 
L 755.393163 134.685222 
L 762.550647 135.627624 
L 769.708131 136.651321 
L 776.865615 137.563525 
L 784.023099 138.113952 
L 791.180583 138.447832 
L 798.338067 138.854143 
L 805.495551 139.486106 
L 812.653035 140.377259 
L 819.810519 141.441449 
L 826.968003 142.472837 
L 834.125487 143.14976 
L 841.282971 143.635205 
L 848.440455 144.190982 
" clip-path="url(#p13386ddcbc)" style="fill: none; stroke: #fda762; stroke-width: 1.5; stroke-linecap: square"/>
   </g>
   <g id="line2d_24">
    <path d="M 139.849545 569.454545 
L 147.007029 567.279963 
L 154.164513 565.129047 
L 161.321997 563.001528 
L 168.479481 560.897142 
L 175.636965 558.815634 
L 182.794449 556.756755 
L 189.951933 554.720256 
L 197.109417 552.705891 
L 204.266901 550.713421 
L 211.424385 548.74261 
L 218.581869 546.793223 
L 225.739353 544.865027 
L 232.896837 542.957791 
L 240.05432 541.071288 
L 247.211804 539.205296 
L 254.369288 537.359594 
L 261.526772 535.533961 
L 268.684256 533.72818 
L 275.84174 531.942033 
L 282.999224 530.175308 
L 290.156708 528.427796 
L 297.314192 526.699292 
L 304.471676 524.989591 
L 311.62916 523.298492 
L 318.786644 521.62579 
L 325.944128 519.971286 
L 333.101612 518.334777 
L 340.259096 516.716067 
L 347.416579 515.114972 
L 354.574063 513.531301 
L 361.731547 511.964868 
L 368.889031 510.415485 
L 376.046515 508.882964 
L 383.203999 507.367119 
L 390.361483 505.867774 
L 397.518967 504.384751 
L 404.676451 502.917876 
L 411.833935 501.466973 
L 418.991419 500.031869 
L 426.148903 498.612389 
L 433.306387 497.208363 
L 440.463871 495.819628 
L 447.621354 494.44602 
L 454.778838 493.087375 
L 461.936322 491.743532 
L 469.093806 490.414328 
L 476.25129 489.099602 
L 483.408774 487.799195 
L 490.566258 486.512956 
L 497.723742 485.240734 
L 504.881226 483.98238 
L 512.03871 482.737742 
L 519.196194 481.506671 
L 526.353678 480.289016 
L 533.511162 479.084628 
L 540.668646 477.893364 
L 547.826129 476.715089 
L 554.983613 475.549663 
L 562.141097 474.396949 
L 569.298581 473.256806 
L 576.456065 472.129095 
L 583.613549 471.013676 
L 590.771033 469.910417 
L 597.928517 468.819193 
L 605.086001 467.739875 
L 612.243485 466.672333 
L 619.400969 465.616439 
L 626.558453 464.572063 
L 633.715937 463.539076 
L 640.873421 462.517359 
L 648.030904 461.506793 
L 655.188388 460.507257 
L 662.345872 459.518631 
L 669.503356 458.540795 
L 676.66084 457.57363 
L 683.818324 456.617018 
L 690.975808 455.670849 
L 698.133292 454.735011 
L 705.290776 453.809392 
L 712.44826 452.89388 
L 719.605744 451.988365 
L 726.763228 451.092735 
L 733.920712 450.206882 
L 741.078196 449.330702 
L 748.23568 448.464094 
L 755.393163 447.606954 
L 762.550647 446.759178 
L 769.708131 445.920664 
L 776.865615 445.091308 
L 784.023099 444.271008 
L 791.180583 443.459667 
L 798.338067 442.657193 
L 805.495551 441.863489 
L 812.653035 441.078463 
L 819.810519 440.302017 
L 826.968003 439.534056 
L 834.125487 438.774482 
L 841.282971 438.023209 
L 848.440455 437.280149 
" clip-path="url(#p13386ddcbc)" style="fill: none; stroke: #6aaed6; stroke-width: 1.5; stroke-linecap: square"/>
   </g>
   <g id="line2d_25">
    <path d="M 139.849545 112.346341 
L 147.007029 105.60932 
L 154.164513 101.382745 
L 161.321997 98.853663 
L 168.479481 97.15432 
L 175.636965 96.047819 
L 182.794449 95.463457 
L 189.951933 95.173501 
L 197.109417 94.905091 
L 204.266901 94.73048 
L 211.424385 94.701118 
L 218.581869 94.793775 
L 225.739353 94.915195 
L 232.896837 94.949993 
L 240.05432 94.97178 
L 247.211804 95.063965 
L 254.369288 95.260395 
L 261.526772 95.54697 
L 268.684256 95.861644 
L 275.84174 96.094313 
L 282.999224 96.124047 
L 290.156708 96.101831 
L 297.314192 96.21025 
L 304.471676 96.543356 
L 311.62916 97.106672 
L 318.786644 97.817187 
L 325.944128 98.50336 
L 333.101612 98.905115 
L 340.259096 98.947347 
L 347.416579 99.01804 
L 354.574063 99.284846 
L 361.731547 99.791761 
L 368.889031 100.461128 
L 376.046515 101.09363 
L 383.203999 101.431847 
L 390.361483 101.681272 
L 397.518967 102.024508 
L 404.676451 102.52472 
L 411.833935 103.164397 
L 418.991419 103.845347 
L 426.148903 104.389268 
L 433.306387 104.739214 
L 440.463871 105.092765 
L 447.621354 105.574057 
L 454.778838 106.22863 
L 461.936322 107.023425 
L 469.093806 107.846792 
L 476.25129 108.508482 
L 483.408774 108.865327 
L 490.566258 109.154058 
L 497.723742 109.590349 
L 504.881226 110.277042 
L 512.03871 111.204624 
L 519.196194 112.251222 
L 526.353678 113.182604 
L 533.511162 113.683895 
L 540.668646 113.920511 
L 547.826129 114.250263 
L 554.983613 114.854216 
L 562.141097 115.766363 
L 569.298581 116.873616 
L 576.456065 117.915813 
L 583.613549 118.510656 
L 590.771033 118.83738 
L 597.928517 119.25485 
L 605.086001 119.897404 
L 612.243485 120.773621 
L 619.400969 121.766318 
L 626.558453 122.632549 
L 633.715937 123.152795 
L 640.873421 123.623715 
L 648.030904 124.204611 
L 655.188388 124.951331 
L 662.345872 125.833405 
L 669.503356 126.73405 
L 676.66084 127.451984 
L 683.818324 127.96754 
L 690.975808 128.492109 
L 698.133292 129.135525 
L 705.290776 129.933258 
L 712.44826 130.846415 
L 719.605744 131.76174 
L 726.763228 132.491722 
L 733.920712 132.964143 
L 741.078196 133.409936 
L 748.23568 133.989047 
L 755.393163 134.76989 
L 762.550647 135.72934 
L 769.708131 136.752743 
L 776.865615 137.633906 
L 784.023099 138.134476 
L 791.180583 138.460331 
L 798.338067 138.886496 
L 805.495551 139.552681 
L 812.653035 140.476237 
L 819.810519 141.552164 
L 826.968003 142.553103 
L 834.125487 143.15769 
L 841.282971 143.651056 
L 848.440455 144.210604 
" clip-path="url(#p13386ddcbc)" style="fill: none; stroke: #fd8c3b; stroke-width: 1.5; stroke-linecap: square"/>
   </g>
   <g id="line2d_26">
    <path d="M 139.849545 569.454545 
L 147.007029 567.738036 
L 154.164513 566.021987 
L 161.321997 564.306401 
L 168.479481 562.591276 
L 175.636965 560.876613 
L 182.794449 559.16241 
L 189.951933 557.448669 
L 197.109417 555.735389 
L 204.266901 554.02257 
L 211.424385 552.310212 
L 218.581869 550.598315 
L 225.739353 548.886878 
L 232.896837 547.175902 
L 240.05432 545.465386 
L 247.211804 543.75533 
L 254.369288 542.045735 
L 261.526772 540.336601 
L 268.684256 538.627928 
L 275.84174 536.919717 
L 282.999224 535.21197 
L 290.156708 533.504687 
L 297.314192 531.797871 
L 304.471676 530.091529 
L 311.62916 528.385667 
L 318.786644 526.680293 
L 325.944128 524.975419 
L 333.101612 523.271062 
L 340.259096 521.567245 
L 347.416579 519.864 
L 354.574063 518.161369 
L 361.731547 516.459405 
L 368.889031 514.758176 
L 376.046515 513.057771 
L 383.203999 511.358307 
L 390.361483 509.659931 
L 397.518967 507.962826 
L 404.676451 506.267218 
L 411.833935 504.573375 
L 418.991419 502.881648 
L 426.148903 501.192469 
L 433.306387 499.506352 
L 440.463871 497.823898 
L 447.621354 496.145837 
L 454.778838 494.473029 
L 461.936322 492.806491 
L 469.093806 491.147404 
L 476.25129 489.497113 
L 483.408774 487.857153 
L 490.566258 486.229261 
L 497.723742 484.615347 
L 504.881226 483.017498 
L 512.03871 481.437969 
L 519.196194 479.879136 
L 526.353678 478.34351 
L 533.511162 476.833582 
L 540.668646 475.351806 
L 547.826129 473.900591 
L 554.983613 472.482204 
L 562.141097 471.098691 
L 569.298581 469.751822 
L 576.456065 468.443039 
L 583.613549 467.17345 
L 590.771033 465.943833 
L 597.928517 464.75461 
L 605.086001 463.605814 
L 612.243485 462.497214 
L 619.400969 461.428319 
L 626.558453 460.398389 
L 633.715937 459.406438 
L 640.873421 458.451361 
L 648.030904 457.531913 
L 655.188388 456.646788 
L 662.345872 455.794642 
L 669.503356 454.974084 
L 676.66084 454.183697 
L 683.818324 453.422097 
L 690.975808 452.687927 
L 698.133292 451.979867 
L 705.290776 451.296644 
L 712.44826 450.63703 
L 719.605744 449.999844 
L 726.763228 449.383968 
L 733.920712 448.788341 
L 741.078196 448.211955 
L 748.23568 447.653855 
L 755.393163 447.113138 
L 762.550647 446.588951 
L 769.708131 446.080495 
L 776.865615 445.587013 
L 784.023099 445.107795 
L 791.180583 444.642168 
L 798.338067 444.1895 
L 805.495551 443.749196 
L 812.653035 443.320697 
L 819.810519 442.903476 
L 826.968003 442.497037 
L 834.125487 442.10091 
L 841.282971 441.714651 
L 848.440455 441.337845 
" clip-path="url(#p13386ddcbc)" style="fill: none; stroke: #4a98c9; stroke-width: 1.5; stroke-linecap: square"/>
   </g>
   <g id="line2d_27">
    <path d="M 139.849545 112.346341 
L 147.007029 104.289663 
L 154.164513 99.524422 
L 161.321997 97.461929 
L 168.479481 96.25705 
L 175.636965 95.237694 
L 182.794449 94.721707 
L 189.951933 94.448322 
L 197.109417 94.193664 
L 204.266901 94.056443 
L 211.424385 94.062607 
L 218.581869 94.118498 
L 225.739353 94.054438 
L 232.896837 93.944443 
L 240.05432 93.895615 
L 247.211804 93.942446 
L 254.369288 94.054224 
L 261.526772 94.135039 
L 268.684256 94.014267 
L 275.84174 93.694175 
L 282.999224 93.456835 
L 290.156708 93.47107 
L 297.314192 93.769424 
L 304.471676 94.248168 
L 311.62916 94.667292 
L 318.786644 94.650895 
L 325.944128 94.235422 
L 333.101612 93.962527 
L 340.259096 93.996148 
L 347.416579 94.257676 
L 354.574063 94.425951 
L 361.731547 94.268586 
L 368.889031 94.159413 
L 376.046515 94.220176 
L 383.203999 94.4373 
L 390.361483 94.667024 
L 397.518967 94.674108 
L 404.676451 94.596589 
L 411.833935 94.748594 
L 418.991419 95.255264 
L 426.148903 96.045751 
L 433.306387 96.853223 
L 440.463871 97.288225 
L 447.621354 97.668747 
L 454.778838 98.419139 
L 461.936322 99.626729 
L 469.093806 101.076476 
L 476.25129 102.305137 
L 483.408774 103.46822 
L 490.566258 104.974366 
L 497.723742 106.906014 
L 504.881226 109.043248 
L 512.03871 110.909836 
L 519.196194 112.611795 
L 526.353678 114.466409 
L 533.511162 116.534976 
L 540.668646 118.67879 
L 547.826129 120.562122 
L 554.983613 122.182101 
L 562.141097 123.741226 
L 569.298581 125.232014 
L 576.456065 126.636776 
L 583.613549 127.927622 
L 590.771033 129.088209 
L 597.928517 130.234865 
L 605.086001 131.236783 
L 612.243485 132.003451 
L 619.400969 132.564448 
L 626.558453 133.069442 
L 633.715937 133.760516 
L 640.873421 134.546252 
L 648.030904 135.154247 
L 655.188388 135.479526 
L 662.345872 135.587811 
L 669.503356 135.71552 
L 676.66084 136.192588 
L 683.818324 136.796114 
L 690.975808 137.206897 
L 698.133292 137.309968 
L 705.290776 137.181272 
L 712.44826 137.087665 
L 719.605744 137.419494 
L 726.763228 137.937308 
L 733.920712 138.276112 
L 741.078196 138.305332 
L 748.23568 138.095847 
L 755.393163 137.919994 
L 762.550647 138.177529 
L 769.708131 138.609194 
L 776.865615 138.874225 
L 784.023099 138.861848 
L 791.180583 138.646624 
L 798.338067 138.488451 
L 805.495551 138.728849 
L 812.653035 139.084648 
L 819.810519 139.279952 
L 826.968003 139.230006 
L 834.125487 139.01245 
L 841.282971 138.867315 
L 848.440455 139.034275 
" clip-path="url(#p13386ddcbc)" style="fill: none; stroke: #f3701b; stroke-width: 1.5; stroke-linecap: square"/>
   </g>
   <g id="line2d_28">
    <path d="M 139.849545 569.454545 
L 147.007029 567.465329 
L 154.164513 565.483514 
L 161.321997 563.509073 
L 168.479481 561.541982 
L 175.636965 559.582221 
L 182.794449 557.629774 
L 189.951933 555.684635 
L 197.109417 553.746805 
L 204.266901 551.816297 
L 211.424385 549.893136 
L 218.581869 547.977364 
L 225.739353 546.06904 
L 232.896837 544.168244 
L 240.05432 542.275076 
L 247.211804 540.389657 
L 254.369288 538.512136 
L 261.526772 536.642689 
L 268.684256 534.781524 
L 275.84174 532.928878 
L 282.999224 531.085018 
L 290.156708 529.25024 
L 297.314192 527.42488 
L 304.471676 525.609308 
L 311.62916 523.803926 
L 318.786644 522.009169 
L 325.944128 520.225504 
L 333.101612 518.453431 
L 340.259096 516.693483 
L 347.416579 514.946219 
L 354.574063 513.212227 
L 361.731547 511.492118 
L 368.889031 509.786516 
L 376.046515 508.096059 
L 383.203999 506.4214 
L 390.361483 504.763201 
L 397.518967 503.122121 
L 404.676451 501.498822 
L 411.833935 499.893952 
L 418.991419 498.30814 
L 426.148903 496.741995 
L 433.306387 495.196105 
L 440.463871 493.671035 
L 447.621354 492.167308 
L 454.778838 490.685415 
L 461.936322 489.225803 
L 469.093806 487.78887 
L 476.25129 486.374972 
L 483.408774 484.984418 
L 490.566258 483.617469 
L 497.723742 482.274331 
L 504.881226 480.955164 
L 512.03871 479.660076 
L 519.196194 478.389131 
L 526.353678 477.142344 
L 533.511162 475.919684 
L 540.668646 474.721077 
L 547.826129 473.546407 
L 554.983613 472.395523 
L 562.141097 471.268238 
L 569.298581 470.164337 
L 576.456065 469.083572 
L 583.613549 468.025663 
L 590.771033 466.990314 
L 597.928517 465.977203 
L 605.086001 464.985993 
L 612.243485 464.016332 
L 619.400969 463.067854 
L 626.558453 462.140181 
L 633.715937 461.232923 
L 640.873421 460.345688 
L 648.030904 459.478076 
L 655.188388 458.629686 
L 662.345872 457.800115 
L 669.503356 456.988958 
L 676.66084 456.19581 
L 683.818324 455.420268 
L 690.975808 454.661933 
L 698.133292 453.92041 
L 705.290776 453.195307 
L 712.44826 452.486238 
L 719.605744 451.792822 
L 726.763228 451.114683 
L 733.920712 450.451454 
L 741.078196 449.802771 
L 748.23568 449.168281 
L 755.393163 448.547637 
L 762.550647 447.940497 
L 769.708131 447.346531 
L 776.865615 446.76541 
L 784.023099 446.196819 
L 791.180583 445.640448 
L 798.338067 445.095994 
L 805.495551 444.563163 
L 812.653035 444.041667 
L 819.810519 443.531225 
L 826.968003 443.031565 
L 834.125487 442.542421 
L 841.282971 442.063535 
L 848.440455 441.594655 
" clip-path="url(#p13386ddcbc)" style="fill: none; stroke: #2e7ebc; stroke-width: 1.5; stroke-linecap: square"/>
   </g>
   <g id="line2d_29">
    <path d="M 139.849545 112.346341 
L 147.007029 107.025112 
L 154.164513 103.694695 
L 161.321997 101.805549 
L 168.479481 100.575922 
L 175.636965 99.691571 
L 182.794449 99.193491 
L 189.951933 98.963369 
L 197.109417 98.771652 
L 204.266901 98.580239 
L 211.424385 98.47247 
L 218.581869 98.463226 
L 225.739353 98.511932 
L 232.896837 98.522692 
L 240.05432 98.445428 
L 247.211804 98.367491 
L 254.369288 98.345366 
L 261.526772 98.400646 
L 268.684256 98.52004 
L 275.84174 98.655365 
L 282.999224 98.723549 
L 290.156708 98.634582 
L 297.314192 98.485217 
L 304.471676 98.4171 
L 311.62916 98.50538 
L 318.786644 98.758248 
L 325.944128 99.116938 
L 333.101612 99.45572 
L 340.259096 99.581916 
L 347.416579 99.454064 
L 354.574063 99.347627 
L 361.731547 99.41875 
L 368.889031 99.714364 
L 376.046515 100.172187 
L 383.203999 100.620723 
L 390.361483 100.796112 
L 397.518967 100.781127 
L 404.676451 100.847515 
L 411.833935 101.124406 
L 418.991419 101.627997 
L 426.148903 102.261546 
L 433.306387 102.81538 
L 440.463871 103.038957 
L 447.621354 103.141707 
L 454.778838 103.386508 
L 461.936322 103.894348 
L 469.093806 104.655252 
L 476.25129 105.528284 
L 483.408774 106.241543 
L 490.566258 106.54776 
L 497.723742 106.780873 
L 504.881226 107.204468 
L 512.03871 107.923868 
L 519.196194 108.895505 
L 526.353678 109.926926 
L 533.511162 110.676895 
L 540.668646 111.068367 
L 547.826129 111.498389 
L 554.983613 112.149425 
L 562.141097 113.063894 
L 569.298581 114.144159 
L 576.456065 115.152534 
L 583.613549 115.79468 
L 590.771033 116.319091 
L 597.928517 116.966703 
L 605.086001 117.829445 
L 612.243485 118.88074 
L 619.400969 119.975504 
L 626.558453 120.851126 
L 633.715937 121.459447 
L 640.873421 122.087634 
L 648.030904 122.879696 
L 655.188388 123.871955 
L 662.345872 124.993049 
L 669.503356 126.063928 
L 676.66084 126.829665 
L 683.818324 127.415923 
L 690.975808 128.073906 
L 698.133292 128.923033 
L 705.290776 129.972864 
L 712.44826 131.123096 
L 719.605744 132.163562 
L 726.763228 132.845291 
L 733.920712 133.385329 
L 741.078196 134.026151 
L 748.23568 134.876428 
L 755.393163 135.929407 
L 762.550647 137.062912 
L 769.708131 138.039347 
L 776.865615 138.634931 
L 784.023099 139.13914 
L 791.180583 139.765103 
L 798.338067 140.599619 
L 805.495551 141.616345 
L 812.653035 142.675793 
L 819.810519 143.525333 
L 826.968003 144.125493 
L 834.125487 144.776426 
L 841.282971 145.470713 
L 848.440455 146.176965 
" clip-path="url(#p13386ddcbc)" style="fill: none; stroke: #e25508; stroke-width: 1.5; stroke-linecap: square"/>
   </g>
   <g id="line2d_30">
    <path d="M 139.849545 569.454545 
L 147.007029 567.257512 
L 154.164513 565.090172 
L 161.321997 562.951734 
L 168.479481 560.841377 
L 175.636965 558.75822 
L 182.794449 556.701689 
L 189.951933 554.671235 
L 197.109417 552.666322 
L 204.266901 550.686418 
L 211.424385 548.731004 
L 218.581869 546.799569 
L 225.739353 544.891609 
L 232.896837 543.006632 
L 240.05432 541.144153 
L 247.211804 539.303696 
L 254.369288 537.484796 
L 261.526772 535.686993 
L 268.684256 533.90984 
L 275.84174 532.152898 
L 282.999224 530.415735 
L 290.156708 528.697931 
L 297.314192 526.999072 
L 304.471676 525.318754 
L 311.62916 523.656584 
L 318.786644 522.012151 
L 325.944128 520.385175 
L 333.101612 518.775443 
L 340.259096 517.182742 
L 347.416579 515.60686 
L 354.574063 514.047583 
L 361.731547 512.504697 
L 368.889031 510.977989 
L 376.046515 509.467245 
L 383.203999 507.97225 
L 390.361483 506.492789 
L 397.518967 505.028648 
L 404.676451 503.579612 
L 411.833935 502.145466 
L 418.991419 500.725993 
L 426.148903 499.320979 
L 433.306387 497.930206 
L 440.463871 496.553459 
L 447.621354 495.190522 
L 454.778838 493.841177 
L 461.936322 492.505207 
L 469.093806 491.182395 
L 476.25129 489.872523 
L 483.408774 488.575374 
L 490.566258 487.29073 
L 497.723742 486.018372 
L 504.881226 484.758082 
L 512.03871 483.509641 
L 519.196194 482.27283 
L 526.353678 481.047429 
L 533.511162 479.83335 
L 540.668646 478.630625 
L 547.826129 477.439153 
L 554.983613 476.258832 
L 562.141097 475.089558 
L 569.298581 473.931229 
L 576.456065 472.783743 
L 583.613549 471.646997 
L 590.771033 470.520887 
L 597.928517 469.405311 
L 605.086001 468.300165 
L 612.243485 467.205347 
L 619.400969 466.120752 
L 626.558453 465.046278 
L 633.715937 463.981822 
L 640.873421 462.927279 
L 648.030904 461.882545 
L 655.188388 460.847519 
L 662.345872 459.822094 
L 669.503356 458.806168 
L 676.66084 457.799636 
L 683.818324 456.802395 
L 690.975808 455.814339 
L 698.133292 454.835366 
L 705.290776 453.86537 
L 712.44826 452.904248 
L 719.605744 451.951894 
L 726.763228 451.008203 
L 733.920712 450.073073 
L 741.078196 449.146396 
L 748.23568 448.228069 
L 755.393163 447.317987 
L 762.550647 446.416044 
L 769.708131 445.522135 
L 776.865615 444.636156 
L 784.023099 443.758 
L 791.180583 442.887562 
L 798.338067 442.024738 
L 805.495551 441.169489 
L 812.653035 440.321907 
L 819.810519 439.481926 
L 826.968003 438.649474 
L 834.125487 437.824479 
L 841.282971 437.006868 
L 848.440455 436.196572 
" clip-path="url(#p13386ddcbc)" style="fill: none; stroke: #1764ab; stroke-width: 1.5; stroke-linecap: square"/>
   </g>
   <g id="line2d_31">
    <path d="M 139.849545 112.346341 
L 147.007029 110.402724 
L 154.164513 108.622648 
L 161.321997 106.9941 
L 168.479481 105.50681 
L 175.636965 104.150725 
L 182.794449 102.919408 
L 189.951933 101.806823 
L 197.109417 100.807119 
L 204.266901 99.914628 
L 211.424385 99.123864 
L 218.581869 98.429524 
L 225.739353 97.826489 
L 232.896837 97.309822 
L 240.05432 96.87477 
L 247.211804 96.516763 
L 254.369288 96.231411 
L 261.526772 96.014512 
L 268.684256 95.862044 
L 275.84174 95.770167 
L 282.999224 95.735228 
L 290.156708 95.753752 
L 297.314192 95.822451 
L 304.471676 95.938218 
L 311.62916 96.098125 
L 318.786644 96.298314 
L 325.944128 96.536037 
L 333.101612 96.809727 
L 340.259096 97.11784 
L 347.416579 97.458846 
L 354.574063 97.83124 
L 361.731547 98.233532 
L 368.889031 98.664255 
L 376.046515 99.121959 
L 383.203999 99.605215 
L 390.361483 100.112613 
L 397.518967 100.642762 
L 404.676451 101.194292 
L 411.833935 101.76585 
L 418.991419 102.356105 
L 426.148903 102.963745 
L 433.306387 103.587477 
L 440.463871 104.226026 
L 447.621354 104.87814 
L 454.778838 105.542583 
L 461.936322 106.218141 
L 469.093806 106.903618 
L 476.25129 107.597838 
L 483.408774 108.299645 
L 490.566258 109.007902 
L 497.723742 109.721492 
L 504.881226 110.439316 
L 512.03871 111.160296 
L 519.196194 111.883374 
L 526.353678 112.607509 
L 533.511162 113.332374 
L 540.668646 114.058434 
L 547.826129 114.78552 
L 554.983613 115.513456 
L 562.141097 116.242063 
L 569.298581 116.971159 
L 576.456065 117.700561 
L 583.613549 118.430083 
L 590.771033 119.159536 
L 597.928517 119.888731 
L 605.086001 120.617473 
L 612.243485 121.345568 
L 619.400969 122.072817 
L 626.558453 122.799021 
L 633.715937 123.523977 
L 640.873421 124.247479 
L 648.030904 124.969322 
L 655.188388 125.689294 
L 662.345872 126.407185 
L 669.503356 127.122779 
L 676.66084 127.835861 
L 683.818324 128.546211 
L 690.975808 129.253607 
L 698.133292 129.957826 
L 705.290776 130.658642 
L 712.44826 131.355825 
L 719.605744 132.049146 
L 726.763228 132.738371 
L 733.920712 133.423264 
L 741.078196 134.103588 
L 748.23568 134.779102 
L 755.393163 135.449562 
L 762.550647 136.114725 
L 769.708131 136.774343 
L 776.865615 137.428166 
L 784.023099 138.075941 
L 791.180583 138.717415 
L 798.338067 139.35233 
L 805.495551 139.980967 
L 812.653035 140.604601 
L 819.810519 141.223273 
L 826.968003 141.836958 
L 834.125487 142.445635 
L 841.282971 143.049286 
L 848.440455 143.647897 
" clip-path="url(#p13386ddcbc)" style="fill: none; stroke: #c54102; stroke-width: 1.5; stroke-linecap: square"/>
   </g>
   <g id="line2d_32">
    <path d="M 139.849545 569.454545 
L 147.007029 567.250376 
L 154.164513 565.072366 
L 161.321997 562.919696 
L 168.479481 560.791973 
L 175.636965 558.688814 
L 182.794449 556.609941 
L 189.951933 554.555055 
L 197.109417 552.523835 
L 204.266901 550.516061 
L 211.424385 548.531464 
L 218.581869 546.569714 
L 225.739353 544.630553 
L 232.896837 542.713812 
L 240.05432 540.819209 
L 247.211804 538.946361 
L 254.369288 537.095085 
L 261.526772 535.265235 
L 268.684256 533.456462 
L 275.84174 531.668451 
L 282.999224 529.901113 
L 290.156708 528.154186 
L 297.314192 526.427287 
L 304.471676 524.720302 
L 311.62916 523.033069 
L 318.786644 521.365224 
L 325.944128 519.716503 
L 333.101612 518.086862 
L 340.259096 516.476044 
L 347.416579 514.883633 
L 354.574063 513.309574 
L 361.731547 511.753739 
L 368.889031 510.215743 
L 376.046515 508.695379 
L 383.203999 507.192599 
L 390.361483 505.707113 
L 397.518967 504.238617 
L 404.676451 502.787067 
L 411.833935 501.352256 
L 418.991419 499.933848 
L 426.148903 498.531757 
L 433.306387 497.145857 
L 440.463871 495.775842 
L 447.621354 494.421494 
L 454.778838 493.082787 
L 461.936322 491.759505 
L 469.093806 490.451298 
L 476.25129 489.15813 
L 483.408774 487.87991 
L 490.566258 486.61631 
L 497.723742 485.367139 
L 504.881226 484.132391 
L 512.03871 482.911836 
L 519.196194 481.705185 
L 526.353678 480.512423 
L 533.511162 479.3334 
L 540.668646 478.167825 
L 547.826129 477.015614 
L 554.983613 475.876686 
L 562.141097 474.750798 
L 569.298581 473.637745 
L 576.456065 472.537517 
L 583.613549 471.449955 
L 590.771033 470.374765 
L 597.928517 469.311891 
L 605.086001 468.261291 
L 612.243485 467.222721 
L 619.400969 466.195953 
L 626.558453 465.181017 
L 633.715937 464.177771 
L 640.873421 463.185927 
L 648.030904 462.205454 
L 655.188388 461.236285 
L 662.345872 460.278186 
L 669.503356 459.331018 
L 676.66084 458.394761 
L 683.818324 457.469251 
L 690.975808 456.554268 
L 698.133292 455.649794 
L 705.290776 454.755743 
L 712.44826 453.871895 
L 719.605744 452.998116 
L 726.763228 452.134416 
L 733.920712 451.280655 
L 741.078196 450.436581 
L 748.23568 449.602178 
L 755.393163 448.777418 
L 762.550647 447.962086 
L 769.708131 447.15602 
L 776.865615 446.359249 
L 784.023099 445.571645 
L 791.180583 444.79299 
L 798.338067 444.023271 
L 805.495551 443.262425 
L 812.653035 442.510266 
L 819.810519 441.766689 
L 826.968003 441.031682 
L 834.125487 440.305124 
L 841.282971 439.586839 
L 848.440455 438.876794 
" clip-path="url(#p13386ddcbc)" style="fill: none; stroke: #084a91; stroke-width: 1.5; stroke-linecap: square"/>
   </g>
   <g id="line2d_33">
    <path d="M 139.849545 112.346341 
L 147.007029 102.067629 
L 154.164513 98.898813 
L 161.321997 97.349594 
L 168.479481 96.768883 
L 175.636965 96.432345 
L 182.794449 96.367459 
L 189.951933 96.432976 
L 197.109417 96.255235 
L 204.266901 96.27248 
L 211.424385 96.51246 
L 218.581869 96.444351 
L 225.739353 96.129492 
L 232.896837 96.348601 
L 240.05432 96.9113 
L 247.211804 96.733623 
L 254.369288 96.428622 
L 261.526772 96.86682 
L 268.684256 97.180736 
L 275.84174 96.797928 
L 282.999224 97.003564 
L 290.156708 97.599685 
L 297.314192 97.351751 
L 304.471676 97.280722 
L 311.62916 97.974933 
L 318.786644 98.287761 
L 325.944128 97.888621 
L 333.101612 98.32352 
L 340.259096 99.25685 
L 347.416579 99.028183 
L 354.574063 99.015929 
L 361.731547 99.943541 
L 368.889031 100.309537 
L 376.046515 100.147729 
L 383.203999 100.806787 
L 390.361483 101.545216 
L 397.518967 101.466062 
L 404.676451 101.93535 
L 411.833935 102.853439 
L 418.991419 102.983134 
L 426.148903 103.243652 
L 433.306387 104.216365 
L 440.463871 104.840364 
L 447.621354 104.828596 
L 454.778838 105.582364 
L 461.936322 106.784919 
L 469.093806 106.902073 
L 476.25129 107.200121 
L 483.408774 108.42107 
L 490.566258 109.166291 
L 497.723742 109.250713 
L 504.881226 110.143108 
L 512.03871 111.267292 
L 519.196194 111.45699 
L 526.353678 112.095703 
L 533.511162 113.267038 
L 540.668646 113.732409 
L 547.826129 114.167841 
L 554.983613 115.26881 
L 562.141097 116.177846 
L 569.298581 116.397817 
L 576.456065 117.227492 
L 583.613549 118.555254 
L 590.771033 118.977837 
L 597.928517 119.326784 
L 605.086001 120.561092 
L 612.243485 121.671732 
L 619.400969 121.806018 
L 626.558453 122.591147 
L 633.715937 123.939441 
L 640.873421 124.361946 
L 648.030904 124.837791 
L 655.188388 125.998636 
L 662.345872 126.799328 
L 669.503356 127.138661 
L 676.66084 128.057078 
L 683.818324 129.175124 
L 690.975808 129.498269 
L 698.133292 130.08361 
L 705.290776 131.284086 
L 712.44826 132.055655 
L 719.605744 132.236732 
L 726.763228 133.117638 
L 733.920712 134.436667 
L 741.078196 134.746479 
L 748.23568 135.076146 
L 755.393163 136.252669 
L 762.550647 137.189651 
L 769.708131 137.317071 
L 776.865615 138.058636 
L 784.023099 139.200088 
L 791.180583 139.511196 
L 798.338067 139.961073 
L 805.495551 140.971755 
L 812.653035 141.626259 
L 819.810519 141.864223 
L 826.968003 142.633008 
L 834.125487 143.659333 
L 841.282971 144.090572 
L 848.440455 144.598476 
" clip-path="url(#p13386ddcbc)" style="fill: none; stroke: #9e3303; stroke-width: 1.5; stroke-linecap: square"/>
   </g>
   <g id="line2d_34">
    <path d="M 139.849545 569.454545 
L 147.007029 567.300225 
L 154.164513 565.169998 
L 161.321997 563.063491 
L 168.479481 560.980325 
L 175.636965 558.92008 
L 182.794449 556.882448 
L 189.951933 554.867136 
L 197.109417 552.873852 
L 204.266901 550.902309 
L 211.424385 548.952223 
L 218.581869 547.023314 
L 225.739353 545.115303 
L 232.896837 543.227916 
L 240.05432 541.360883 
L 247.211804 539.513935 
L 254.369288 537.686809 
L 261.526772 535.879243 
L 268.684256 534.090978 
L 275.84174 532.321762 
L 282.999224 530.571342 
L 290.156708 528.83947 
L 297.314192 527.125902 
L 304.471676 525.430396 
L 311.62916 523.752714 
L 318.786644 522.092621 
L 325.944128 520.449886 
L 333.101612 518.824281 
L 340.259096 517.215579 
L 347.416579 515.623566 
L 354.574063 514.048056 
L 361.731547 512.488875 
L 368.889031 510.945849 
L 376.046515 509.418807 
L 383.203999 507.907576 
L 390.361483 506.411987 
L 397.518967 504.931872 
L 404.676451 503.467062 
L 411.833935 502.017392 
L 418.991419 500.582696 
L 426.148903 499.16281 
L 433.306387 497.757571 
L 440.463871 496.366817 
L 447.621354 494.990389 
L 454.778838 493.628125 
L 461.936322 492.279868 
L 469.093806 490.945461 
L 476.25129 489.624748 
L 483.408774 488.317575 
L 490.566258 487.023786 
L 497.723742 485.743231 
L 504.881226 484.475757 
L 512.03871 483.221215 
L 519.196194 481.979456 
L 526.353678 480.750331 
L 533.511162 479.533695 
L 540.668646 478.329401 
L 547.826129 477.137306 
L 554.983613 475.957265 
L 562.141097 474.789138 
L 569.298581 473.632784 
L 576.456065 472.488061 
L 583.613549 471.354841 
L 590.771033 470.233048 
L 597.928517 469.122576 
L 605.086001 468.023313 
L 612.243485 466.935147 
L 619.400969 465.857968 
L 626.558453 464.791665 
L 633.715937 463.736129 
L 640.873421 462.691252 
L 648.030904 461.656926 
L 655.188388 460.633044 
L 662.345872 459.619501 
L 669.503356 458.616191 
L 676.66084 457.623009 
L 683.818324 456.639853 
L 690.975808 455.666619 
L 698.133292 454.703206 
L 705.290776 453.749513 
L 712.44826 452.805438 
L 719.605744 451.870883 
L 726.763228 450.945749 
L 733.920712 450.029938 
L 741.078196 449.123354 
L 748.23568 448.225899 
L 755.393163 447.337479 
L 762.550647 446.457998 
L 769.708131 445.587364 
L 776.865615 444.725483 
L 784.023099 443.872263 
L 791.180583 443.027613 
L 798.338067 442.191441 
L 805.495551 441.363659 
L 812.653035 440.544178 
L 819.810519 439.732909 
L 826.968003 438.929766 
L 834.125487 438.134661 
L 841.282971 437.347509 
L 848.440455 436.568225 
" clip-path="url(#p13386ddcbc)" style="fill: none; stroke: #08306b; stroke-width: 1.5; stroke-linecap: square"/>
   </g>
   <g id="line2d_35">
    <path d="M 139.849545 112.346341 
L 147.007029 110.366736 
L 154.164513 108.562156 
L 161.321997 106.91563 
L 168.479481 105.414204 
L 175.636965 104.044711 
L 182.794449 102.800492 
L 189.951933 101.675669 
L 197.109417 100.664527 
L 204.266901 99.761517 
L 211.424385 98.961253 
L 218.581869 98.258515 
L 225.739353 97.648246 
L 232.896837 97.125557 
L 240.05432 96.68572 
L 247.211804 96.324173 
L 254.369288 96.036518 
L 261.526772 95.818523 
L 268.684256 95.66612 
L 275.84174 95.575406 
L 282.999224 95.54264 
L 290.156708 95.56425 
L 297.314192 95.636825 
L 304.471676 95.75712 
L 311.62916 95.922055 
L 318.786644 96.128714 
L 325.944128 96.374346 
L 333.101612 96.656364 
L 340.259096 96.972347 
L 347.416579 97.319631 
L 354.574063 97.695912 
L 361.731547 98.099977 
L 368.889031 98.530639 
L 376.046515 98.986726 
L 383.203999 99.467079 
L 390.361483 99.970552 
L 397.518967 100.496009 
L 404.676451 101.042332 
L 411.833935 101.608411 
L 418.991419 102.193153 
L 426.148903 102.795476 
L 433.306387 103.41431 
L 440.463871 104.048601 
L 447.621354 104.697305 
L 454.778838 105.359392 
L 461.936322 106.033846 
L 469.093806 106.719663 
L 476.25129 107.415852 
L 483.408774 108.121435 
L 490.566258 108.835447 
L 497.723742 109.556936 
L 504.881226 110.284963 
L 512.03871 111.018602 
L 519.196194 111.756941 
L 526.353678 112.499078 
L 533.511162 113.244127 
L 540.668646 113.991213 
L 547.826129 114.739477 
L 554.983613 115.488069 
L 562.141097 116.236154 
L 569.298581 116.98291 
L 576.456065 117.727528 
L 583.613549 118.469469 
L 590.771033 119.209861 
L 597.928517 119.948824 
L 605.086001 120.686203 
L 612.243485 121.421842 
L 619.400969 122.155588 
L 626.558453 122.887289 
L 633.715937 123.616791 
L 640.873421 124.343944 
L 648.030904 125.068598 
L 655.188388 125.790603 
L 662.345872 126.509812 
L 669.503356 127.226077 
L 676.66084 127.939252 
L 683.818324 128.649192 
L 690.975808 129.355751 
L 698.133292 130.058788 
L 705.290776 130.758159 
L 712.44826 131.453722 
L 719.605744 132.145337 
L 726.763228 132.832865 
L 733.920712 133.516166 
L 741.078196 134.195103 
L 748.23568 134.86954 
L 755.393163 135.539339 
L 762.550647 136.204367 
L 769.708131 136.86449 
L 776.865615 137.519573 
L 784.023099 138.169486 
L 791.180583 138.814097 
L 798.338067 139.453276 
L 805.495551 140.086894 
L 812.653035 140.714822 
L 819.810519 141.336933 
L 826.968003 141.953102 
L 834.125487 142.563201 
L 841.282971 143.167107 
L 848.440455 143.764697 
" clip-path="url(#p13386ddcbc)" style="fill: none; stroke: #7f2704; stroke-width: 1.5; stroke-linecap: square"/>
   </g>
   <g id="patch_3">
    <path d="M 104.42 595.44 
L 104.42 23.76 
" style="fill: none; stroke: #000000; stroke-width: 0.8; stroke-linejoin: miter; stroke-linecap: square"/>
   </g>
   <g id="patch_4">
    <path d="M 883.87 595.44 
L 883.87 23.76 
" style="fill: none; stroke: #000000; stroke-width: 0.8; stroke-linejoin: miter; stroke-linecap: square"/>
   </g>
   <g id="patch_5">
    <path d="M 104.42 595.44 
L 883.87 595.44 
" style="fill: none; stroke: #000000; stroke-width: 0.8; stroke-linejoin: miter; stroke-linecap: square"/>
   </g>
   <g id="patch_6">
    <path d="M 104.42 23.76 
L 883.87 23.76 
" style="fill: none; stroke: #000000; stroke-width: 0.8; stroke-linejoin: miter; stroke-linecap: square"/>
   </g>
   <g id="legend_1">
    <g id="patch_7">
     <path d="M 899.27 687.1975 
L 1052.056562 687.1975 
Q 1056.456563 687.1975 1056.456563 682.7975 
L 1056.456563 39.16 
Q 1056.456563 34.76 1052.056562 34.76 
L 899.27 34.76 
Q 894.87 34.76 894.87 39.16 
L 894.87 682.7975 
Q 894.87 687.1975 899.27 687.1975 
z
" style="fill: #ffffff; opacity: 0.8; stroke: #cccccc; stroke-linejoin: miter"/>
    </g>
    <g id="PathCollection_3">
     <g>
      <use xlink:href="#m80f1702e56" x="925.67" y="54.501563" style="fill: #1f77b4; stroke: #1f77b4"/>
     </g>
    </g>
    <g id="text_20">
     <!-- Xi -->
     <g transform="translate(965.27 60.276563) scale(0.22 -0.22)">
      <use xlink:href="#DejaVuSans-58"/>
      <use xlink:href="#DejaVuSans-69" x="68.505859"/>
     </g>
    </g>
    <g id="PathCollection_4">
     <g>
      <use xlink:href="#m62fcbac0dc" x="925.67" y="86.793438" style="fill: #ff7f0e; stroke: #ff7f0e"/>
     </g>
    </g>
    <g id="text_21">
     <!-- Xa -->
     <g transform="translate(965.27 92.568438) scale(0.22 -0.22)">
      <use xlink:href="#DejaVuSans-58"/>
      <use xlink:href="#DejaVuSans-61" x="68.505859"/>
     </g>
    </g>
    <g id="line2d_36">
     <path d="M 903.67 117.160313 
L 925.67 117.160313 
L 947.67 117.160313 
" style="fill: none; stroke: #d0e1f2; stroke-width: 1.5; stroke-linecap: square"/>
    </g>
    <g id="text_22">
     <!-- Xi-IIAA -->
     <g transform="translate(965.27 124.860313) scale(0.22 -0.22)">
      <defs>
       <path id="DejaVuSans-2d" d="M 313 2009 
L 1997 2009 
L 1997 1497 
L 313 1497 
L 313 2009 
z
" transform="scale(0.015625)"/>
       <path id="DejaVuSans-49" d="M 628 4666 
L 1259 4666 
L 1259 0 
L 628 0 
L 628 4666 
z
" transform="scale(0.015625)"/>
      </defs>
      <use xlink:href="#DejaVuSans-58"/>
      <use xlink:href="#DejaVuSans-69" x="68.505859"/>
      <use xlink:href="#DejaVuSans-2d" x="96.289062"/>
      <use xlink:href="#DejaVuSans-49" x="132.373047"/>
      <use xlink:href="#DejaVuSans-49" x="161.865234"/>
      <use xlink:href="#DejaVuSans-41" x="191.357422"/>
      <use xlink:href="#DejaVuSans-41" x="262.515625"/>
     </g>
    </g>
    <g id="line2d_37">
     <path d="M 903.67 149.452188 
L 925.67 149.452188 
L 947.67 149.452188 
" style="fill: none; stroke: #fdd9b4; stroke-width: 1.5; stroke-linecap: square"/>
    </g>
    <g id="text_23">
     <!-- Xa-IIAA -->
     <g transform="translate(965.27 157.152188) scale(0.22 -0.22)">
      <use xlink:href="#DejaVuSans-58"/>
      <use xlink:href="#DejaVuSans-61" x="68.505859"/>
      <use xlink:href="#DejaVuSans-2d" x="129.785156"/>
      <use xlink:href="#DejaVuSans-49" x="165.869141"/>
      <use xlink:href="#DejaVuSans-49" x="195.361328"/>
      <use xlink:href="#DejaVuSans-41" x="224.853516"/>
      <use xlink:href="#DejaVuSans-41" x="296.011719"/>
     </g>
    </g>
    <g id="line2d_38">
     <path d="M 903.67 181.744063 
L 925.67 181.744063 
L 947.67 181.744063 
" style="fill: none; stroke: #b7d4ea; stroke-width: 1.5; stroke-linecap: square"/>
    </g>
    <g id="text_24">
     <!-- Xi-IIAI -->
     <g transform="translate(965.27 189.444063) scale(0.22 -0.22)">
      <use xlink:href="#DejaVuSans-58"/>
      <use xlink:href="#DejaVuSans-69" x="68.505859"/>
      <use xlink:href="#DejaVuSans-2d" x="96.289062"/>
      <use xlink:href="#DejaVuSans-49" x="132.373047"/>
      <use xlink:href="#DejaVuSans-49" x="161.865234"/>
      <use xlink:href="#DejaVuSans-41" x="191.357422"/>
      <use xlink:href="#DejaVuSans-49" x="259.765625"/>
     </g>
    </g>
    <g id="line2d_39">
     <path d="M 903.67 214.035938 
L 925.67 214.035938 
L 947.67 214.035938 
" style="fill: none; stroke: #fdc38d; stroke-width: 1.5; stroke-linecap: square"/>
    </g>
    <g id="text_25">
     <!-- Xa-IIAI -->
     <g transform="translate(965.27 221.735938) scale(0.22 -0.22)">
      <use xlink:href="#DejaVuSans-58"/>
      <use xlink:href="#DejaVuSans-61" x="68.505859"/>
      <use xlink:href="#DejaVuSans-2d" x="129.785156"/>
      <use xlink:href="#DejaVuSans-49" x="165.869141"/>
      <use xlink:href="#DejaVuSans-49" x="195.361328"/>
      <use xlink:href="#DejaVuSans-41" x="224.853516"/>
      <use xlink:href="#DejaVuSans-49" x="293.261719"/>
     </g>
    </g>
    <g id="line2d_40">
     <path d="M 903.67 246.327813 
L 925.67 246.327813 
L 947.67 246.327813 
" style="fill: none; stroke: #94c4df; stroke-width: 1.5; stroke-linecap: square"/>
    </g>
    <g id="text_26">
     <!-- Xi-IIAN -->
     <g transform="translate(965.27 254.027813) scale(0.22 -0.22)">
      <defs>
       <path id="DejaVuSans-4e" d="M 628 4666 
L 1478 4666 
L 3547 763 
L 3547 4666 
L 4159 4666 
L 4159 0 
L 3309 0 
L 1241 3903 
L 1241 0 
L 628 0 
L 628 4666 
z
" transform="scale(0.015625)"/>
      </defs>
      <use xlink:href="#DejaVuSans-58"/>
      <use xlink:href="#DejaVuSans-69" x="68.505859"/>
      <use xlink:href="#DejaVuSans-2d" x="96.289062"/>
      <use xlink:href="#DejaVuSans-49" x="132.373047"/>
      <use xlink:href="#DejaVuSans-49" x="161.865234"/>
      <use xlink:href="#DejaVuSans-41" x="191.357422"/>
      <use xlink:href="#DejaVuSans-4e" x="259.765625"/>
     </g>
    </g>
    <g id="line2d_41">
     <path d="M 903.67 278.619688 
L 925.67 278.619688 
L 947.67 278.619688 
" style="fill: none; stroke: #fda762; stroke-width: 1.5; stroke-linecap: square"/>
    </g>
    <g id="text_27">
     <!-- Xa-IIAN -->
     <g transform="translate(965.27 286.319688) scale(0.22 -0.22)">
      <use xlink:href="#DejaVuSans-58"/>
      <use xlink:href="#DejaVuSans-61" x="68.505859"/>
      <use xlink:href="#DejaVuSans-2d" x="129.785156"/>
      <use xlink:href="#DejaVuSans-49" x="165.869141"/>
      <use xlink:href="#DejaVuSans-49" x="195.361328"/>
      <use xlink:href="#DejaVuSans-41" x="224.853516"/>
      <use xlink:href="#DejaVuSans-4e" x="293.261719"/>
     </g>
    </g>
    <g id="line2d_42">
     <path d="M 903.67 310.911563 
L 925.67 310.911563 
L 947.67 310.911563 
" style="fill: none; stroke: #6aaed6; stroke-width: 1.5; stroke-linecap: square"/>
    </g>
    <g id="text_28">
     <!-- Xi-IIIA -->
     <g transform="translate(965.27 318.611563) scale(0.22 -0.22)">
      <use xlink:href="#DejaVuSans-58"/>
      <use xlink:href="#DejaVuSans-69" x="68.505859"/>
      <use xlink:href="#DejaVuSans-2d" x="96.289062"/>
      <use xlink:href="#DejaVuSans-49" x="132.373047"/>
      <use xlink:href="#DejaVuSans-49" x="161.865234"/>
      <use xlink:href="#DejaVuSans-49" x="191.357422"/>
      <use xlink:href="#DejaVuSans-41" x="220.849609"/>
     </g>
    </g>
    <g id="line2d_43">
     <path d="M 903.67 343.203438 
L 925.67 343.203438 
L 947.67 343.203438 
" style="fill: none; stroke: #fd8c3b; stroke-width: 1.5; stroke-linecap: square"/>
    </g>
    <g id="text_29">
     <!-- Xa-IIIA -->
     <g transform="translate(965.27 350.903438) scale(0.22 -0.22)">
      <use xlink:href="#DejaVuSans-58"/>
      <use xlink:href="#DejaVuSans-61" x="68.505859"/>
      <use xlink:href="#DejaVuSans-2d" x="129.785156"/>
      <use xlink:href="#DejaVuSans-49" x="165.869141"/>
      <use xlink:href="#DejaVuSans-49" x="195.361328"/>
      <use xlink:href="#DejaVuSans-49" x="224.853516"/>
      <use xlink:href="#DejaVuSans-41" x="254.345703"/>
     </g>
    </g>
    <g id="line2d_44">
     <path d="M 903.67 375.495313 
L 925.67 375.495313 
L 947.67 375.495313 
" style="fill: none; stroke: #4a98c9; stroke-width: 1.5; stroke-linecap: square"/>
    </g>
    <g id="text_30">
     <!-- Xi-IIII -->
     <g transform="translate(965.27 383.195313) scale(0.22 -0.22)">
      <use xlink:href="#DejaVuSans-58"/>
      <use xlink:href="#DejaVuSans-69" x="68.505859"/>
      <use xlink:href="#DejaVuSans-2d" x="96.289062"/>
      <use xlink:href="#DejaVuSans-49" x="132.373047"/>
      <use xlink:href="#DejaVuSans-49" x="161.865234"/>
      <use xlink:href="#DejaVuSans-49" x="191.357422"/>
      <use xlink:href="#DejaVuSans-49" x="220.849609"/>
     </g>
    </g>
    <g id="line2d_45">
     <path d="M 903.67 407.787188 
L 925.67 407.787188 
L 947.67 407.787188 
" style="fill: none; stroke: #f3701b; stroke-width: 1.5; stroke-linecap: square"/>
    </g>
    <g id="text_31">
     <!-- Xa-IIII -->
     <g transform="translate(965.27 415.487188) scale(0.22 -0.22)">
      <use xlink:href="#DejaVuSans-58"/>
      <use xlink:href="#DejaVuSans-61" x="68.505859"/>
      <use xlink:href="#DejaVuSans-2d" x="129.785156"/>
      <use xlink:href="#DejaVuSans-49" x="165.869141"/>
      <use xlink:href="#DejaVuSans-49" x="195.361328"/>
      <use xlink:href="#DejaVuSans-49" x="224.853516"/>
      <use xlink:href="#DejaVuSans-49" x="254.345703"/>
     </g>
    </g>
    <g id="line2d_46">
     <path d="M 903.67 440.079063 
L 925.67 440.079063 
L 947.67 440.079063 
" style="fill: none; stroke: #2e7ebc; stroke-width: 1.5; stroke-linecap: square"/>
    </g>
    <g id="text_32">
     <!-- Xi-IIIN -->
     <g transform="translate(965.27 447.779063) scale(0.22 -0.22)">
      <use xlink:href="#DejaVuSans-58"/>
      <use xlink:href="#DejaVuSans-69" x="68.505859"/>
      <use xlink:href="#DejaVuSans-2d" x="96.289062"/>
      <use xlink:href="#DejaVuSans-49" x="132.373047"/>
      <use xlink:href="#DejaVuSans-49" x="161.865234"/>
      <use xlink:href="#DejaVuSans-49" x="191.357422"/>
      <use xlink:href="#DejaVuSans-4e" x="220.849609"/>
     </g>
    </g>
    <g id="line2d_47">
     <path d="M 903.67 472.370938 
L 925.67 472.370938 
L 947.67 472.370938 
" style="fill: none; stroke: #e25508; stroke-width: 1.5; stroke-linecap: square"/>
    </g>
    <g id="text_33">
     <!-- Xa-IIIN -->
     <g transform="translate(965.27 480.070938) scale(0.22 -0.22)">
      <use xlink:href="#DejaVuSans-58"/>
      <use xlink:href="#DejaVuSans-61" x="68.505859"/>
      <use xlink:href="#DejaVuSans-2d" x="129.785156"/>
      <use xlink:href="#DejaVuSans-49" x="165.869141"/>
      <use xlink:href="#DejaVuSans-49" x="195.361328"/>
      <use xlink:href="#DejaVuSans-49" x="224.853516"/>
      <use xlink:href="#DejaVuSans-4e" x="254.345703"/>
     </g>
    </g>
    <g id="line2d_48">
     <path d="M 903.67 504.662813 
L 925.67 504.662813 
L 947.67 504.662813 
" style="fill: none; stroke: #1764ab; stroke-width: 1.5; stroke-linecap: square"/>
    </g>
    <g id="text_34">
     <!-- Xi-IINA -->
     <g transform="translate(965.27 512.362813) scale(0.22 -0.22)">
      <use xlink:href="#DejaVuSans-58"/>
      <use xlink:href="#DejaVuSans-69" x="68.505859"/>
      <use xlink:href="#DejaVuSans-2d" x="96.289062"/>
      <use xlink:href="#DejaVuSans-49" x="132.373047"/>
      <use xlink:href="#DejaVuSans-49" x="161.865234"/>
      <use xlink:href="#DejaVuSans-4e" x="191.357422"/>
      <use xlink:href="#DejaVuSans-41" x="266.162109"/>
     </g>
    </g>
    <g id="line2d_49">
     <path d="M 903.67 536.954688 
L 925.67 536.954688 
L 947.67 536.954688 
" style="fill: none; stroke: #c54102; stroke-width: 1.5; stroke-linecap: square"/>
    </g>
    <g id="text_35">
     <!-- Xa-IINA -->
     <g transform="translate(965.27 544.654688) scale(0.22 -0.22)">
      <use xlink:href="#DejaVuSans-58"/>
      <use xlink:href="#DejaVuSans-61" x="68.505859"/>
      <use xlink:href="#DejaVuSans-2d" x="129.785156"/>
      <use xlink:href="#DejaVuSans-49" x="165.869141"/>
      <use xlink:href="#DejaVuSans-49" x="195.361328"/>
      <use xlink:href="#DejaVuSans-4e" x="224.853516"/>
      <use xlink:href="#DejaVuSans-41" x="299.658203"/>
     </g>
    </g>
    <g id="line2d_50">
     <path d="M 903.67 569.246563 
L 925.67 569.246563 
L 947.67 569.246563 
" style="fill: none; stroke: #084a91; stroke-width: 1.5; stroke-linecap: square"/>
    </g>
    <g id="text_36">
     <!-- Xi-IINI -->
     <g transform="translate(965.27 576.946563) scale(0.22 -0.22)">
      <use xlink:href="#DejaVuSans-58"/>
      <use xlink:href="#DejaVuSans-69" x="68.505859"/>
      <use xlink:href="#DejaVuSans-2d" x="96.289062"/>
      <use xlink:href="#DejaVuSans-49" x="132.373047"/>
      <use xlink:href="#DejaVuSans-49" x="161.865234"/>
      <use xlink:href="#DejaVuSans-4e" x="191.357422"/>
      <use xlink:href="#DejaVuSans-49" x="266.162109"/>
     </g>
    </g>
    <g id="line2d_51">
     <path d="M 903.67 601.538438 
L 925.67 601.538438 
L 947.67 601.538438 
" style="fill: none; stroke: #9e3303; stroke-width: 1.5; stroke-linecap: square"/>
    </g>
    <g id="text_37">
     <!-- Xa-IINI -->
     <g transform="translate(965.27 609.238438) scale(0.22 -0.22)">
      <use xlink:href="#DejaVuSans-58"/>
      <use xlink:href="#DejaVuSans-61" x="68.505859"/>
      <use xlink:href="#DejaVuSans-2d" x="129.785156"/>
      <use xlink:href="#DejaVuSans-49" x="165.869141"/>
      <use xlink:href="#DejaVuSans-49" x="195.361328"/>
      <use xlink:href="#DejaVuSans-4e" x="224.853516"/>
      <use xlink:href="#DejaVuSans-49" x="299.658203"/>
     </g>
    </g>
    <g id="line2d_52">
     <path d="M 903.67 633.830313 
L 925.67 633.830313 
L 947.67 633.830313 
" style="fill: none; stroke: #08306b; stroke-width: 1.5; stroke-linecap: square"/>
    </g>
    <g id="text_38">
     <!-- Xi-IINN -->
     <g transform="translate(965.27 641.530313) scale(0.22 -0.22)">
      <use xlink:href="#DejaVuSans-58"/>
      <use xlink:href="#DejaVuSans-69" x="68.505859"/>
      <use xlink:href="#DejaVuSans-2d" x="96.289062"/>
      <use xlink:href="#DejaVuSans-49" x="132.373047"/>
      <use xlink:href="#DejaVuSans-49" x="161.865234"/>
      <use xlink:href="#DejaVuSans-4e" x="191.357422"/>
      <use xlink:href="#DejaVuSans-4e" x="266.162109"/>
     </g>
    </g>
    <g id="line2d_53">
     <path d="M 903.67 666.122188 
L 925.67 666.122188 
L 947.67 666.122188 
" style="fill: none; stroke: #7f2704; stroke-width: 1.5; stroke-linecap: square"/>
    </g>
    <g id="text_39">
     <!-- Xa-IINN -->
     <g transform="translate(965.27 673.822188) scale(0.22 -0.22)">
      <use xlink:href="#DejaVuSans-58"/>
      <use xlink:href="#DejaVuSans-61" x="68.505859"/>
      <use xlink:href="#DejaVuSans-2d" x="129.785156"/>
      <use xlink:href="#DejaVuSans-49" x="165.869141"/>
      <use xlink:href="#DejaVuSans-49" x="195.361328"/>
      <use xlink:href="#DejaVuSans-4e" x="224.853516"/>
      <use xlink:href="#DejaVuSans-4e" x="299.658203"/>
     </g>
    </g>
   </g>
  </g>
 </g>
 <defs>
  <clipPath id="p13386ddcbc">
   <rect x="104.42" y="23.76" width="779.45" height="571.68"/>
  </clipPath>
 </defs>
</svg>
