<?xml version="1.0" encoding="utf-8" standalone="no"?>
<!DOCTYPE svg PUBLIC "-//W3C//DTD SVG 1.1//EN"
  "http://www.w3.org/Graphics/SVG/1.1/DTD/svg11.dtd">
<svg xmlns:xlink="http://www.w3.org/1999/xlink" width="1080pt" height="720pt" viewBox="0 0 1080 720" xmlns="http://www.w3.org/2000/svg" version="1.1">
 <metadata>
  <rdf:RDF xmlns:dc="http://purl.org/dc/elements/1.1/" xmlns:cc="http://creativecommons.org/ns#" xmlns:rdf="http://www.w3.org/1999/02/22-rdf-syntax-ns#">
   <cc:Work>
    <dc:type rdf:resource="http://purl.org/dc/dcmitype/StillImage"/>
    <dc:date>2023-01-10T19:25:24.886946</dc:date>
    <dc:format>image/svg+xml</dc:format>
    <dc:creator>
     <cc:Agent>
      <dc:title>Matplotlib v3.6.2, https://matplotlib.org/</dc:title>
     </cc:Agent>
    </dc:creator>
   </cc:Work>
  </rdf:RDF>
 </metadata>
 <defs>
  <style type="text/css">*{stroke-linejoin: round; stroke-linecap: butt}</style>
 </defs>
 <g id="figure_1">
  <g id="patch_1">
   <path d="M 0 720 
L 1080 720 
L 1080 0 
L 0 0 
z
" style="fill: #ffffff"/>
  </g>
  <g id="axes_1">
   <g id="patch_2">
    <path d="M 135 640.8 
L 972 640.8 
L 972 86.4 
L 135 86.4 
z
" style="fill: #ffffff"/>
   </g>
   <g id="PathCollection_1">
    <defs>
     <path id="m80f1702e56" d="M 0 3 
C 0.795609 3 1.55874 2.683901 2.12132 2.12132 
C 2.683901 1.55874 3 0.795609 3 0 
C 3 -0.795609 2.683901 -1.55874 2.12132 -2.12132 
C 1.55874 -2.683901 0.795609 -3 0 -3 
C -0.795609 -3 -1.55874 -2.683901 -2.12132 -2.12132 
C -2.683901 -1.55874 -3 -0.795609 -3 0 
C -3 0.795609 -2.683901 1.55874 -2.12132 2.12132 
C -1.55874 2.683901 -0.795609 3 0 3 
z
" style="stroke: #1f77b4"/>
    </defs>
    <g clip-path="url(#p294e5309c2)">
     <use xlink:href="#m80f1702e56" x="173.045455" y="615.6" style="fill: #1f77b4; stroke: #1f77b4"/>
     <use xlink:href="#m80f1702e56" x="213.093301" y="611.763493" style="fill: #1f77b4; stroke: #1f77b4"/>
     <use xlink:href="#m80f1702e56" x="253.141148" y="607.926986" style="fill: #1f77b4; stroke: #1f77b4"/>
     <use xlink:href="#m80f1702e56" x="293.188995" y="604.090479" style="fill: #1f77b4; stroke: #1f77b4"/>
     <use xlink:href="#m80f1702e56" x="333.236842" y="600.253972" style="fill: #1f77b4; stroke: #1f77b4"/>
     <use xlink:href="#m80f1702e56" x="373.284689" y="596.417466" style="fill: #1f77b4; stroke: #1f77b4"/>
     <use xlink:href="#m80f1702e56" x="413.332536" y="592.580959" style="fill: #1f77b4; stroke: #1f77b4"/>
     <use xlink:href="#m80f1702e56" x="453.380383" y="588.744452" style="fill: #1f77b4; stroke: #1f77b4"/>
     <use xlink:href="#m80f1702e56" x="493.42823" y="584.907945" style="fill: #1f77b4; stroke: #1f77b4"/>
     <use xlink:href="#m80f1702e56" x="533.476077" y="574.503077" style="fill: #1f77b4; stroke: #1f77b4"/>
     <use xlink:href="#m80f1702e56" x="573.523923" y="572.397655" style="fill: #1f77b4; stroke: #1f77b4"/>
     <use xlink:href="#m80f1702e56" x="613.57177" y="533.008677" style="fill: #1f77b4; stroke: #1f77b4"/>
     <use xlink:href="#m80f1702e56" x="653.619617" y="493.6197" style="fill: #1f77b4; stroke: #1f77b4"/>
     <use xlink:href="#m80f1702e56" x="693.667464" y="493.6197" style="fill: #1f77b4; stroke: #1f77b4"/>
     <use xlink:href="#m80f1702e56" x="733.715311" y="493.6197" style="fill: #1f77b4; stroke: #1f77b4"/>
     <use xlink:href="#m80f1702e56" x="773.763158" y="493.6197" style="fill: #1f77b4; stroke: #1f77b4"/>
     <use xlink:href="#m80f1702e56" x="813.811005" y="493.6197" style="fill: #1f77b4; stroke: #1f77b4"/>
     <use xlink:href="#m80f1702e56" x="853.858852" y="493.6197" style="fill: #1f77b4; stroke: #1f77b4"/>
     <use xlink:href="#m80f1702e56" x="893.906699" y="493.6197" style="fill: #1f77b4; stroke: #1f77b4"/>
     <use xlink:href="#m80f1702e56" x="933.954545" y="493.6197" style="fill: #1f77b4; stroke: #1f77b4"/>
    </g>
   </g>
   <g id="PathCollection_2">
    <defs>
     <path id="m62fcbac0dc" d="M 0 3 
C 0.795609 3 1.55874 2.683901 2.12132 2.12132 
C 2.683901 1.55874 3 0.795609 3 0 
C 3 -0.795609 2.683901 -1.55874 2.12132 -2.12132 
C 1.55874 -2.683901 0.795609 -3 0 -3 
C -0.795609 -3 -1.55874 -2.683901 -2.12132 -2.12132 
C -2.683901 -1.55874 -3 -0.795609 -3 0 
C -3 0.795609 -2.683901 1.55874 -2.12132 2.12132 
C -1.55874 2.683901 -0.795609 3 0 3 
z
" style="stroke: #ff7f0e"/>
    </defs>
    <g clip-path="url(#p294e5309c2)">
     <use xlink:href="#m62fcbac0dc" x="173.045455" y="156.22457" style="fill: #ff7f0e; stroke: #ff7f0e"/>
     <use xlink:href="#m62fcbac0dc" x="213.093301" y="153.881767" style="fill: #ff7f0e; stroke: #ff7f0e"/>
     <use xlink:href="#m62fcbac0dc" x="253.141148" y="151.538963" style="fill: #ff7f0e; stroke: #ff7f0e"/>
     <use xlink:href="#m62fcbac0dc" x="293.188995" y="149.19616" style="fill: #ff7f0e; stroke: #ff7f0e"/>
     <use xlink:href="#m62fcbac0dc" x="333.236842" y="146.853356" style="fill: #ff7f0e; stroke: #ff7f0e"/>
     <use xlink:href="#m62fcbac0dc" x="373.284689" y="144.510553" style="fill: #ff7f0e; stroke: #ff7f0e"/>
     <use xlink:href="#m62fcbac0dc" x="413.332536" y="142.167749" style="fill: #ff7f0e; stroke: #ff7f0e"/>
     <use xlink:href="#m62fcbac0dc" x="453.380383" y="139.824946" style="fill: #ff7f0e; stroke: #ff7f0e"/>
     <use xlink:href="#m62fcbac0dc" x="493.42823" y="137.482142" style="fill: #ff7f0e; stroke: #ff7f0e"/>
     <use xlink:href="#m62fcbac0dc" x="533.476077" y="166.726691" style="fill: #ff7f0e; stroke: #ff7f0e"/>
     <use xlink:href="#m62fcbac0dc" x="573.523923" y="111.6" style="fill: #ff7f0e; stroke: #ff7f0e"/>
     <use xlink:href="#m62fcbac0dc" x="613.57177" y="145.771767" style="fill: #ff7f0e; stroke: #ff7f0e"/>
     <use xlink:href="#m62fcbac0dc" x="653.619617" y="179.943533" style="fill: #ff7f0e; stroke: #ff7f0e"/>
     <use xlink:href="#m62fcbac0dc" x="693.667464" y="179.943533" style="fill: #ff7f0e; stroke: #ff7f0e"/>
     <use xlink:href="#m62fcbac0dc" x="733.715311" y="179.943533" style="fill: #ff7f0e; stroke: #ff7f0e"/>
     <use xlink:href="#m62fcbac0dc" x="773.763158" y="179.943533" style="fill: #ff7f0e; stroke: #ff7f0e"/>
     <use xlink:href="#m62fcbac0dc" x="813.811005" y="179.943533" style="fill: #ff7f0e; stroke: #ff7f0e"/>
     <use xlink:href="#m62fcbac0dc" x="853.858852" y="179.943533" style="fill: #ff7f0e; stroke: #ff7f0e"/>
     <use xlink:href="#m62fcbac0dc" x="893.906699" y="179.943533" style="fill: #ff7f0e; stroke: #ff7f0e"/>
     <use xlink:href="#m62fcbac0dc" x="933.954545" y="179.943533" style="fill: #ff7f0e; stroke: #ff7f0e"/>
    </g>
   </g>
   <g id="matplotlib.axis_1">
    <g id="xtick_1">
     <g id="line2d_1">
      <defs>
       <path id="m3385fdae1e" d="M 0 0 
L 0 3.5 
" style="stroke: #000000; stroke-width: 0.8"/>
      </defs>
      <g>
       <use xlink:href="#m3385fdae1e" x="173.045455" y="640.8" style="stroke: #000000; stroke-width: 0.8"/>
      </g>
     </g>
     <g id="text_1">
      <!-- 0.0 -->
      <g transform="translate(155.552017 664.516562) scale(0.22 -0.22)">
       <defs>
        <path id="DejaVuSans-30" d="M 2034 4250 
Q 1547 4250 1301 3770 
Q 1056 3291 1056 2328 
Q 1056 1369 1301 889 
Q 1547 409 2034 409 
Q 2525 409 2770 889 
Q 3016 1369 3016 2328 
Q 3016 3291 2770 3770 
Q 2525 4250 2034 4250 
z
M 2034 4750 
Q 2819 4750 3233 4129 
Q 3647 3509 3647 2328 
Q 3647 1150 3233 529 
Q 2819 -91 2034 -91 
Q 1250 -91 836 529 
Q 422 1150 422 2328 
Q 422 3509 836 4129 
Q 1250 4750 2034 4750 
z
" transform="scale(0.015625)"/>
        <path id="DejaVuSans-2e" d="M 684 794 
L 1344 794 
L 1344 0 
L 684 0 
L 684 794 
z
" transform="scale(0.015625)"/>
       </defs>
       <use xlink:href="#DejaVuSans-30"/>
       <use xlink:href="#DejaVuSans-2e" x="63.623047"/>
       <use xlink:href="#DejaVuSans-30" x="95.410156"/>
      </g>
     </g>
    </g>
    <g id="xtick_2">
     <g id="line2d_2">
      <g>
       <use xlink:href="#m3385fdae1e" x="273.165072" y="640.8" style="stroke: #000000; stroke-width: 0.8"/>
      </g>
     </g>
     <g id="text_2">
      <!-- 2.5 -->
      <g transform="translate(255.671634 664.516562) scale(0.22 -0.22)">
       <defs>
        <path id="DejaVuSans-32" d="M 1228 531 
L 3431 531 
L 3431 0 
L 469 0 
L 469 531 
Q 828 903 1448 1529 
Q 2069 2156 2228 2338 
Q 2531 2678 2651 2914 
Q 2772 3150 2772 3378 
Q 2772 3750 2511 3984 
Q 2250 4219 1831 4219 
Q 1534 4219 1204 4116 
Q 875 4013 500 3803 
L 500 4441 
Q 881 4594 1212 4672 
Q 1544 4750 1819 4750 
Q 2544 4750 2975 4387 
Q 3406 4025 3406 3419 
Q 3406 3131 3298 2873 
Q 3191 2616 2906 2266 
Q 2828 2175 2409 1742 
Q 1991 1309 1228 531 
z
" transform="scale(0.015625)"/>
        <path id="DejaVuSans-35" d="M 691 4666 
L 3169 4666 
L 3169 4134 
L 1269 4134 
L 1269 2991 
Q 1406 3038 1543 3061 
Q 1681 3084 1819 3084 
Q 2600 3084 3056 2656 
Q 3513 2228 3513 1497 
Q 3513 744 3044 326 
Q 2575 -91 1722 -91 
Q 1428 -91 1123 -41 
Q 819 9 494 109 
L 494 744 
Q 775 591 1075 516 
Q 1375 441 1709 441 
Q 2250 441 2565 725 
Q 2881 1009 2881 1497 
Q 2881 1984 2565 2268 
Q 2250 2553 1709 2553 
Q 1456 2553 1204 2497 
Q 953 2441 691 2322 
L 691 4666 
z
" transform="scale(0.015625)"/>
       </defs>
       <use xlink:href="#DejaVuSans-32"/>
       <use xlink:href="#DejaVuSans-2e" x="63.623047"/>
       <use xlink:href="#DejaVuSans-35" x="95.410156"/>
      </g>
     </g>
    </g>
    <g id="xtick_3">
     <g id="line2d_3">
      <g>
       <use xlink:href="#m3385fdae1e" x="373.284689" y="640.8" style="stroke: #000000; stroke-width: 0.8"/>
      </g>
     </g>
     <g id="text_3">
      <!-- 5.0 -->
      <g transform="translate(355.791251 664.516562) scale(0.22 -0.22)">
       <use xlink:href="#DejaVuSans-35"/>
       <use xlink:href="#DejaVuSans-2e" x="63.623047"/>
       <use xlink:href="#DejaVuSans-30" x="95.410156"/>
      </g>
     </g>
    </g>
    <g id="xtick_4">
     <g id="line2d_4">
      <g>
       <use xlink:href="#m3385fdae1e" x="473.404306" y="640.8" style="stroke: #000000; stroke-width: 0.8"/>
      </g>
     </g>
     <g id="text_4">
      <!-- 7.5 -->
      <g transform="translate(455.910869 664.516562) scale(0.22 -0.22)">
       <defs>
        <path id="DejaVuSans-37" d="M 525 4666 
L 3525 4666 
L 3525 4397 
L 1831 0 
L 1172 0 
L 2766 4134 
L 525 4134 
L 525 4666 
z
" transform="scale(0.015625)"/>
       </defs>
       <use xlink:href="#DejaVuSans-37"/>
       <use xlink:href="#DejaVuSans-2e" x="63.623047"/>
       <use xlink:href="#DejaVuSans-35" x="95.410156"/>
      </g>
     </g>
    </g>
    <g id="xtick_5">
     <g id="line2d_5">
      <g>
       <use xlink:href="#m3385fdae1e" x="573.523923" y="640.8" style="stroke: #000000; stroke-width: 0.8"/>
      </g>
     </g>
     <g id="text_5">
      <!-- 10.0 -->
      <g transform="translate(549.031736 664.516562) scale(0.22 -0.22)">
       <defs>
        <path id="DejaVuSans-31" d="M 794 531 
L 1825 531 
L 1825 4091 
L 703 3866 
L 703 4441 
L 1819 4666 
L 2450 4666 
L 2450 531 
L 3481 531 
L 3481 0 
L 794 0 
L 794 531 
z
" transform="scale(0.015625)"/>
       </defs>
       <use xlink:href="#DejaVuSans-31"/>
       <use xlink:href="#DejaVuSans-30" x="63.623047"/>
       <use xlink:href="#DejaVuSans-2e" x="127.246094"/>
       <use xlink:href="#DejaVuSans-30" x="159.033203"/>
      </g>
     </g>
    </g>
    <g id="xtick_6">
     <g id="line2d_6">
      <g>
       <use xlink:href="#m3385fdae1e" x="673.643541" y="640.8" style="stroke: #000000; stroke-width: 0.8"/>
      </g>
     </g>
     <g id="text_6">
      <!-- 12.5 -->
      <g transform="translate(649.151353 664.516562) scale(0.22 -0.22)">
       <use xlink:href="#DejaVuSans-31"/>
       <use xlink:href="#DejaVuSans-32" x="63.623047"/>
       <use xlink:href="#DejaVuSans-2e" x="127.246094"/>
       <use xlink:href="#DejaVuSans-35" x="159.033203"/>
      </g>
     </g>
    </g>
    <g id="xtick_7">
     <g id="line2d_7">
      <g>
       <use xlink:href="#m3385fdae1e" x="773.763158" y="640.8" style="stroke: #000000; stroke-width: 0.8"/>
      </g>
     </g>
     <g id="text_7">
      <!-- 15.0 -->
      <g transform="translate(749.27097 664.516562) scale(0.22 -0.22)">
       <use xlink:href="#DejaVuSans-31"/>
       <use xlink:href="#DejaVuSans-35" x="63.623047"/>
       <use xlink:href="#DejaVuSans-2e" x="127.246094"/>
       <use xlink:href="#DejaVuSans-30" x="159.033203"/>
      </g>
     </g>
    </g>
    <g id="xtick_8">
     <g id="line2d_8">
      <g>
       <use xlink:href="#m3385fdae1e" x="873.882775" y="640.8" style="stroke: #000000; stroke-width: 0.8"/>
      </g>
     </g>
     <g id="text_8">
      <!-- 17.5 -->
      <g transform="translate(849.390588 664.516562) scale(0.22 -0.22)">
       <use xlink:href="#DejaVuSans-31"/>
       <use xlink:href="#DejaVuSans-37" x="63.623047"/>
       <use xlink:href="#DejaVuSans-2e" x="127.246094"/>
       <use xlink:href="#DejaVuSans-35" x="159.033203"/>
      </g>
     </g>
    </g>
    <g id="text_9">
     <!-- Time (days) -->
     <g transform="translate(488.541562 689.808437) scale(0.22 -0.22)">
      <defs>
       <path id="DejaVuSans-54" d="M -19 4666 
L 3928 4666 
L 3928 4134 
L 2272 4134 
L 2272 0 
L 1638 0 
L 1638 4134 
L -19 4134 
L -19 4666 
z
" transform="scale(0.015625)"/>
       <path id="DejaVuSans-69" d="M 603 3500 
L 1178 3500 
L 1178 0 
L 603 0 
L 603 3500 
z
M 603 4863 
L 1178 4863 
L 1178 4134 
L 603 4134 
L 603 4863 
z
" transform="scale(0.015625)"/>
       <path id="DejaVuSans-6d" d="M 3328 2828 
Q 3544 3216 3844 3400 
Q 4144 3584 4550 3584 
Q 5097 3584 5394 3201 
Q 5691 2819 5691 2113 
L 5691 0 
L 5113 0 
L 5113 2094 
Q 5113 2597 4934 2840 
Q 4756 3084 4391 3084 
Q 3944 3084 3684 2787 
Q 3425 2491 3425 1978 
L 3425 0 
L 2847 0 
L 2847 2094 
Q 2847 2600 2669 2842 
Q 2491 3084 2119 3084 
Q 1678 3084 1418 2786 
Q 1159 2488 1159 1978 
L 1159 0 
L 581 0 
L 581 3500 
L 1159 3500 
L 1159 2956 
Q 1356 3278 1631 3431 
Q 1906 3584 2284 3584 
Q 2666 3584 2933 3390 
Q 3200 3197 3328 2828 
z
" transform="scale(0.015625)"/>
       <path id="DejaVuSans-65" d="M 3597 1894 
L 3597 1613 
L 953 1613 
Q 991 1019 1311 708 
Q 1631 397 2203 397 
Q 2534 397 2845 478 
Q 3156 559 3463 722 
L 3463 178 
Q 3153 47 2828 -22 
Q 2503 -91 2169 -91 
Q 1331 -91 842 396 
Q 353 884 353 1716 
Q 353 2575 817 3079 
Q 1281 3584 2069 3584 
Q 2775 3584 3186 3129 
Q 3597 2675 3597 1894 
z
M 3022 2063 
Q 3016 2534 2758 2815 
Q 2500 3097 2075 3097 
Q 1594 3097 1305 2825 
Q 1016 2553 972 2059 
L 3022 2063 
z
" transform="scale(0.015625)"/>
       <path id="DejaVuSans-20" transform="scale(0.015625)"/>
       <path id="DejaVuSans-28" d="M 1984 4856 
Q 1566 4138 1362 3434 
Q 1159 2731 1159 2009 
Q 1159 1288 1364 580 
Q 1569 -128 1984 -844 
L 1484 -844 
Q 1016 -109 783 600 
Q 550 1309 550 2009 
Q 550 2706 781 3412 
Q 1013 4119 1484 4856 
L 1984 4856 
z
" transform="scale(0.015625)"/>
       <path id="DejaVuSans-64" d="M 2906 2969 
L 2906 4863 
L 3481 4863 
L 3481 0 
L 2906 0 
L 2906 525 
Q 2725 213 2448 61 
Q 2172 -91 1784 -91 
Q 1150 -91 751 415 
Q 353 922 353 1747 
Q 353 2572 751 3078 
Q 1150 3584 1784 3584 
Q 2172 3584 2448 3432 
Q 2725 3281 2906 2969 
z
M 947 1747 
Q 947 1113 1208 752 
Q 1469 391 1925 391 
Q 2381 391 2643 752 
Q 2906 1113 2906 1747 
Q 2906 2381 2643 2742 
Q 2381 3103 1925 3103 
Q 1469 3103 1208 2742 
Q 947 2381 947 1747 
z
" transform="scale(0.015625)"/>
       <path id="DejaVuSans-61" d="M 2194 1759 
Q 1497 1759 1228 1600 
Q 959 1441 959 1056 
Q 959 750 1161 570 
Q 1363 391 1709 391 
Q 2188 391 2477 730 
Q 2766 1069 2766 1631 
L 2766 1759 
L 2194 1759 
z
M 3341 1997 
L 3341 0 
L 2766 0 
L 2766 531 
Q 2569 213 2275 61 
Q 1981 -91 1556 -91 
Q 1019 -91 701 211 
Q 384 513 384 1019 
Q 384 1609 779 1909 
Q 1175 2209 1959 2209 
L 2766 2209 
L 2766 2266 
Q 2766 2663 2505 2880 
Q 2244 3097 1772 3097 
Q 1472 3097 1187 3025 
Q 903 2953 641 2809 
L 641 3341 
Q 956 3463 1253 3523 
Q 1550 3584 1831 3584 
Q 2591 3584 2966 3190 
Q 3341 2797 3341 1997 
z
" transform="scale(0.015625)"/>
       <path id="DejaVuSans-79" d="M 2059 -325 
Q 1816 -950 1584 -1140 
Q 1353 -1331 966 -1331 
L 506 -1331 
L 506 -850 
L 844 -850 
Q 1081 -850 1212 -737 
Q 1344 -625 1503 -206 
L 1606 56 
L 191 3500 
L 800 3500 
L 1894 763 
L 2988 3500 
L 3597 3500 
L 2059 -325 
z
" transform="scale(0.015625)"/>
       <path id="DejaVuSans-73" d="M 2834 3397 
L 2834 2853 
Q 2591 2978 2328 3040 
Q 2066 3103 1784 3103 
Q 1356 3103 1142 2972 
Q 928 2841 928 2578 
Q 928 2378 1081 2264 
Q 1234 2150 1697 2047 
L 1894 2003 
Q 2506 1872 2764 1633 
Q 3022 1394 3022 966 
Q 3022 478 2636 193 
Q 2250 -91 1575 -91 
Q 1294 -91 989 -36 
Q 684 19 347 128 
L 347 722 
Q 666 556 975 473 
Q 1284 391 1588 391 
Q 1994 391 2212 530 
Q 2431 669 2431 922 
Q 2431 1156 2273 1281 
Q 2116 1406 1581 1522 
L 1381 1569 
Q 847 1681 609 1914 
Q 372 2147 372 2553 
Q 372 3047 722 3315 
Q 1072 3584 1716 3584 
Q 2034 3584 2315 3537 
Q 2597 3491 2834 3397 
z
" transform="scale(0.015625)"/>
       <path id="DejaVuSans-29" d="M 513 4856 
L 1013 4856 
Q 1481 4119 1714 3412 
Q 1947 2706 1947 2009 
Q 1947 1309 1714 600 
Q 1481 -109 1013 -844 
L 513 -844 
Q 928 -128 1133 580 
Q 1338 1288 1338 2009 
Q 1338 2731 1133 3434 
Q 928 4138 513 4856 
z
" transform="scale(0.015625)"/>
      </defs>
      <use xlink:href="#DejaVuSans-54"/>
      <use xlink:href="#DejaVuSans-69" x="57.958984"/>
      <use xlink:href="#DejaVuSans-6d" x="85.742188"/>
      <use xlink:href="#DejaVuSans-65" x="183.154297"/>
      <use xlink:href="#DejaVuSans-20" x="244.677734"/>
      <use xlink:href="#DejaVuSans-28" x="276.464844"/>
      <use xlink:href="#DejaVuSans-64" x="315.478516"/>
      <use xlink:href="#DejaVuSans-61" x="378.955078"/>
      <use xlink:href="#DejaVuSans-79" x="440.234375"/>
      <use xlink:href="#DejaVuSans-73" x="499.414062"/>
      <use xlink:href="#DejaVuSans-29" x="551.513672"/>
     </g>
    </g>
   </g>
   <g id="matplotlib.axis_2">
    <g id="ytick_1">
     <g id="line2d_9">
      <defs>
       <path id="ma600d9e374" d="M 0 0 
L -3.5 0 
" style="stroke: #000000; stroke-width: 0.8"/>
      </defs>
      <g>
       <use xlink:href="#ma600d9e374" x="135" y="615.908529" style="stroke: #000000; stroke-width: 0.8"/>
      </g>
     </g>
     <g id="text_10">
      <!-- 0.00 -->
      <g transform="translate(79.015625 624.26681) scale(0.22 -0.22)">
       <use xlink:href="#DejaVuSans-30"/>
       <use xlink:href="#DejaVuSans-2e" x="63.623047"/>
       <use xlink:href="#DejaVuSans-30" x="95.410156"/>
       <use xlink:href="#DejaVuSans-30" x="159.033203"/>
      </g>
     </g>
    </g>
    <g id="ytick_2">
     <g id="line2d_10">
      <g>
       <use xlink:href="#ma600d9e374" x="135" y="544.201469" style="stroke: #000000; stroke-width: 0.8"/>
      </g>
     </g>
     <g id="text_11">
      <!-- 0.25 -->
      <g transform="translate(79.015625 552.559751) scale(0.22 -0.22)">
       <use xlink:href="#DejaVuSans-30"/>
       <use xlink:href="#DejaVuSans-2e" x="63.623047"/>
       <use xlink:href="#DejaVuSans-32" x="95.410156"/>
       <use xlink:href="#DejaVuSans-35" x="159.033203"/>
      </g>
     </g>
    </g>
    <g id="ytick_3">
     <g id="line2d_11">
      <g>
       <use xlink:href="#ma600d9e374" x="135" y="472.49441" style="stroke: #000000; stroke-width: 0.8"/>
      </g>
     </g>
     <g id="text_12">
      <!-- 0.50 -->
      <g transform="translate(79.015625 480.852691) scale(0.22 -0.22)">
       <use xlink:href="#DejaVuSans-30"/>
       <use xlink:href="#DejaVuSans-2e" x="63.623047"/>
       <use xlink:href="#DejaVuSans-35" x="95.410156"/>
       <use xlink:href="#DejaVuSans-30" x="159.033203"/>
      </g>
     </g>
    </g>
    <g id="ytick_4">
     <g id="line2d_12">
      <g>
       <use xlink:href="#ma600d9e374" x="135" y="400.78735" style="stroke: #000000; stroke-width: 0.8"/>
      </g>
     </g>
     <g id="text_13">
      <!-- 0.75 -->
      <g transform="translate(79.015625 409.145632) scale(0.22 -0.22)">
       <use xlink:href="#DejaVuSans-30"/>
       <use xlink:href="#DejaVuSans-2e" x="63.623047"/>
       <use xlink:href="#DejaVuSans-37" x="95.410156"/>
       <use xlink:href="#DejaVuSans-35" x="159.033203"/>
      </g>
     </g>
    </g>
    <g id="ytick_5">
     <g id="line2d_13">
      <g>
       <use xlink:href="#ma600d9e374" x="135" y="329.080291" style="stroke: #000000; stroke-width: 0.8"/>
      </g>
     </g>
     <g id="text_14">
      <!-- 1.00 -->
      <g transform="translate(79.015625 337.438572) scale(0.22 -0.22)">
       <use xlink:href="#DejaVuSans-31"/>
       <use xlink:href="#DejaVuSans-2e" x="63.623047"/>
       <use xlink:href="#DejaVuSans-30" x="95.410156"/>
       <use xlink:href="#DejaVuSans-30" x="159.033203"/>
      </g>
     </g>
    </g>
    <g id="ytick_6">
     <g id="line2d_14">
      <g>
       <use xlink:href="#ma600d9e374" x="135" y="257.373231" style="stroke: #000000; stroke-width: 0.8"/>
      </g>
     </g>
     <g id="text_15">
      <!-- 1.25 -->
      <g transform="translate(79.015625 265.731513) scale(0.22 -0.22)">
       <use xlink:href="#DejaVuSans-31"/>
       <use xlink:href="#DejaVuSans-2e" x="63.623047"/>
       <use xlink:href="#DejaVuSans-32" x="95.410156"/>
       <use xlink:href="#DejaVuSans-35" x="159.033203"/>
      </g>
     </g>
    </g>
    <g id="ytick_7">
     <g id="line2d_15">
      <g>
       <use xlink:href="#ma600d9e374" x="135" y="185.666172" style="stroke: #000000; stroke-width: 0.8"/>
      </g>
     </g>
     <g id="text_16">
      <!-- 1.50 -->
      <g transform="translate(79.015625 194.024453) scale(0.22 -0.22)">
       <use xlink:href="#DejaVuSans-31"/>
       <use xlink:href="#DejaVuSans-2e" x="63.623047"/>
       <use xlink:href="#DejaVuSans-35" x="95.410156"/>
       <use xlink:href="#DejaVuSans-30" x="159.033203"/>
      </g>
     </g>
    </g>
    <g id="ytick_8">
     <g id="line2d_16">
      <g>
       <use xlink:href="#ma600d9e374" x="135" y="113.959112" style="stroke: #000000; stroke-width: 0.8"/>
      </g>
     </g>
     <g id="text_17">
      <!-- 1.75 -->
      <g transform="translate(79.015625 122.317393) scale(0.22 -0.22)">
       <use xlink:href="#DejaVuSans-31"/>
       <use xlink:href="#DejaVuSans-2e" x="63.623047"/>
       <use xlink:href="#DejaVuSans-37" x="95.410156"/>
       <use xlink:href="#DejaVuSans-35" x="159.033203"/>
      </g>
     </g>
    </g>
    <g id="text_18">
     <!-- X:A -->
     <g transform="translate(70.440313 382.365312) rotate(-90) scale(0.22 -0.22)">
      <defs>
       <path id="DejaVuSans-58" d="M 403 4666 
L 1081 4666 
L 2241 2931 
L 3406 4666 
L 4084 4666 
L 2584 2425 
L 4184 0 
L 3506 0 
L 2194 1984 
L 872 0 
L 191 0 
L 1856 2491 
L 403 4666 
z
" transform="scale(0.015625)"/>
       <path id="DejaVuSans-3a" d="M 750 794 
L 1409 794 
L 1409 0 
L 750 0 
L 750 794 
z
M 750 3309 
L 1409 3309 
L 1409 2516 
L 750 2516 
L 750 3309 
z
" transform="scale(0.015625)"/>
       <path id="DejaVuSans-41" d="M 2188 4044 
L 1331 1722 
L 3047 1722 
L 2188 4044 
z
M 1831 4666 
L 2547 4666 
L 4325 0 
L 3669 0 
L 3244 1197 
L 1141 1197 
L 716 0 
L 50 0 
L 1831 4666 
z
" transform="scale(0.015625)"/>
      </defs>
      <use xlink:href="#DejaVuSans-58"/>
      <use xlink:href="#DejaVuSans-3a" x="68.505859"/>
      <use xlink:href="#DejaVuSans-41" x="102.197266"/>
     </g>
    </g>
   </g>
   <g id="line2d_17">
    <path d="M 173.045455 615.6 
L 180.731405 614.232625 
L 188.417355 612.865326 
L 196.103306 611.498106 
L 203.789256 610.130948 
L 211.475207 608.763851 
L 219.161157 607.396821 
L 226.847107 606.029857 
L 234.533058 604.662955 
L 242.219008 603.296116 
L 249.904959 601.929344 
L 257.590909 600.562637 
L 265.27686 599.195993 
L 272.96281 597.829409 
L 280.64876 596.462889 
L 288.334711 595.096436 
L 296.020661 593.730052 
L 303.706612 592.363734 
L 311.392562 590.997477 
L 319.078512 589.631276 
L 326.764463 588.265139 
L 334.450413 586.899072 
L 342.136364 585.533072 
L 349.822314 584.167132 
L 357.508264 582.801252 
L 365.194215 581.435439 
L 372.880165 580.069693 
L 380.566116 578.704011 
L 388.252066 577.338388 
L 395.938017 575.97283 
L 403.623967 574.607339 
L 411.309917 573.241914 
L 418.995868 571.876553 
L 426.681818 570.511249 
L 434.367769 569.14601 
L 442.053719 567.780838 
L 449.739669 566.415735 
L 457.42562 565.050695 
L 465.11157 563.685711 
L 472.797521 562.320789 
L 480.483471 560.955937 
L 488.169421 559.591155 
L 495.855372 558.226438 
L 503.541322 556.861774 
L 511.227273 555.49717 
L 518.913223 554.132638 
L 526.599174 552.768176 
L 534.285124 551.403779 
L 541.971074 550.039433 
L 549.657025 548.675151 
L 557.342975 547.31094 
L 565.028926 545.946797 
L 572.714876 544.582714 
L 580.400826 543.218689 
L 588.086777 541.85473 
L 595.772727 540.49084 
L 603.458678 539.127015 
L 611.144628 537.763249 
L 618.830579 536.399544 
L 626.516529 535.035906 
L 634.202479 533.672337 
L 641.88843 532.308832 
L 649.57438 530.945384 
L 657.260331 529.581997 
L 664.946281 528.218679 
L 672.632231 526.855431 
L 680.318182 525.492248 
L 688.004132 524.129119 
L 695.690083 522.76605 
L 703.376033 521.403051 
L 711.061983 520.040123 
L 718.747934 518.677261 
L 726.433884 517.314452 
L 734.119835 515.951702 
L 741.805785 514.589023 
L 749.491736 513.226415 
L 757.177686 511.863869 
L 764.863636 510.501378 
L 772.549587 509.13895 
L 780.235537 507.776593 
L 787.921488 506.414302 
L 795.607438 505.052071 
L 803.293388 503.689899 
L 810.979339 502.327794 
L 818.665289 500.965757 
L 826.35124 499.603785 
L 834.03719 498.241871 
L 841.72314 496.880018 
L 849.409091 495.518233 
L 857.095041 494.156517 
L 864.780992 492.794865 
L 872.466942 491.43327 
L 880.152893 490.071734 
L 887.838843 488.710267 
L 895.524793 487.348871 
L 903.210744 485.987542 
L 910.896694 484.626267 
L 918.582645 483.265053 
L 926.268595 481.903906 
L 933.954545 480.542823 
" clip-path="url(#p294e5309c2)" style="fill: none; stroke: #d0e1f2; stroke-width: 1.5; stroke-linecap: square"/>
   </g>
   <g id="line2d_18">
    <path d="M 173.045455 156.22457 
L 180.731405 158.039273 
L 188.417355 159.003359 
L 196.103306 159.0605 
L 203.789256 159.163121 
L 211.475207 159.440833 
L 219.161157 159.511725 
L 226.847107 159.4757 
L 234.533058 159.569178 
L 242.219008 159.664164 
L 249.904959 159.6474 
L 257.590909 159.537497 
L 265.27686 159.480843 
L 272.96281 159.720236 
L 280.64876 160.026512 
L 288.334711 160.061415 
L 296.020661 159.739598 
L 303.706612 159.229481 
L 311.392562 158.953247 
L 319.078512 159.332037 
L 326.764463 159.686049 
L 334.450413 159.637294 
L 342.136364 159.331726 
L 349.822314 159.358823 
L 357.508264 159.598673 
L 365.194215 159.655266 
L 372.880165 159.512554 
L 380.566116 159.422625 
L 388.252066 159.625742 
L 395.938017 159.792923 
L 403.623967 159.729959 
L 411.309917 159.476881 
L 418.995868 159.307667 
L 426.681818 159.55984 
L 434.367769 159.84781 
L 442.053719 159.82015 
L 449.739669 159.480715 
L 457.42562 159.185224 
L 465.11157 159.480533 
L 472.797521 159.923766 
L 480.483471 159.949117 
L 488.169421 159.500639 
L 495.855372 159.025925 
L 503.541322 159.314587 
L 511.227273 159.858849 
L 518.913223 159.926907 
L 526.599174 159.45126 
L 534.285124 158.990786 
L 541.971074 159.353844 
L 549.657025 159.765953 
L 557.342975 159.725138 
L 565.028926 159.329379 
L 572.714876 159.221394 
L 580.400826 159.583386 
L 588.086777 159.755804 
L 595.772727 159.583141 
L 603.458678 159.30411 
L 611.144628 159.446893 
L 618.830579 159.748363 
L 626.516529 159.790777 
L 634.202479 159.528493 
L 641.88843 159.258973 
L 649.57438 159.492189 
L 657.260331 159.880218 
L 664.946281 159.919478 
L 672.632231 159.541879 
L 680.318182 159.108829 
L 688.004132 159.32461 
L 695.690083 159.881767 
L 703.376033 160.015436 
L 711.061983 159.56906 
L 718.747934 158.98923 
L 726.433884 159.198864 
L 734.119835 159.748291 
L 741.805785 159.850356 
L 749.491736 159.436689 
L 757.177686 159.06746 
L 764.863636 159.423129 
L 772.549587 159.732434 
L 780.235537 159.654799 
L 787.921488 159.335457 
L 795.607438 159.347729 
L 803.293388 159.657148 
L 810.979339 159.76337 
L 818.665289 159.568184 
L 826.35124 159.312152 
L 834.03719 159.477667 
L 841.72314 159.809544 
L 849.409091 159.861983 
L 857.095041 159.562946 
L 864.780992 159.203896 
L 872.466942 159.380064 
L 880.152893 159.889036 
L 887.838843 160.036447 
L 895.524793 159.641507 
L 903.210744 159.054449 
L 910.896694 159.097985 
L 918.582645 159.391136 
L 926.268595 159.477125 
L 933.954545 159.488844 
" clip-path="url(#p294e5309c2)" style="fill: none; stroke: #fdd9b4; stroke-width: 1.5; stroke-linecap: square"/>
   </g>
   <g id="line2d_19">
    <path d="M 173.045455 615.6 
L 180.731405 614.229952 
L 188.417355 612.856096 
L 196.103306 611.481557 
L 203.789256 610.106812 
L 211.475207 608.731876 
L 219.161157 607.357107 
L 226.847107 605.982185 
L 234.533058 604.607169 
L 242.219008 603.232561 
L 249.904959 601.857479 
L 257.590909 600.482762 
L 265.27686 599.108083 
L 272.96281 597.732858 
L 280.64876 596.358601 
L 288.334711 594.983527 
L 296.020661 593.608936 
L 303.706612 592.234395 
L 311.392562 590.85962 
L 319.078512 589.485319 
L 326.764463 588.110627 
L 334.450413 586.736488 
L 342.136364 585.361965 
L 349.822314 583.9879 
L 357.508264 582.61378 
L 365.194215 581.239439 
L 372.880165 579.865979 
L 380.566116 578.491735 
L 388.252066 577.118235 
L 395.938017 575.744761 
L 403.623967 574.371126 
L 411.309917 572.998165 
L 418.995868 571.624847 
L 426.681818 570.25221 
L 434.367769 568.879308 
L 442.053719 567.506989 
L 449.739669 566.134631 
L 457.42562 564.762407 
L 465.11157 563.390904 
L 472.797521 562.018826 
L 480.483471 560.647771 
L 488.169421 559.276636 
L 495.855372 557.905554 
L 503.541322 556.535319 
L 511.227273 555.164765 
L 518.913223 553.79509 
L 526.599174 552.42526 
L 534.285124 551.056133 
L 541.971074 549.687058 
L 549.657025 548.3184 
L 557.342975 546.950318 
L 565.028926 545.581986 
L 572.714876 544.214825 
L 580.400826 542.84748 
L 588.086777 541.480501 
L 595.772727 540.114427 
L 603.458678 538.748061 
L 611.144628 537.382798 
L 618.830579 536.017435 
L 626.516529 534.65288 
L 634.202479 533.288474 
L 641.88843 531.924644 
L 649.57438 530.56131 
L 657.260331 529.198033 
L 664.946281 527.835888 
L 672.632231 526.473545 
L 680.318182 525.111861 
L 688.004132 523.750992 
L 695.690083 522.38985 
L 703.376033 521.030001 
L 711.061983 519.670032 
L 718.747934 518.310933 
L 726.433884 516.952053 
L 734.119835 515.593781 
L 741.805785 514.235975 
L 749.491736 512.878422 
L 757.177686 511.521832 
L 764.863636 510.165125 
L 772.549587 508.809207 
L 780.235537 507.453848 
L 787.921488 506.098689 
L 795.607438 504.744344 
L 803.293388 503.390116 
L 810.979339 502.036723 
L 818.665289 500.683461 
L 826.35124 499.330853 
L 834.03719 497.978785 
L 841.72314 496.626668 
L 849.409091 495.275764 
L 857.095041 493.924711 
L 864.780992 492.574226 
L 872.466942 491.224478 
L 880.152893 489.874706 
L 887.838843 488.525849 
L 895.524793 487.177027 
L 903.210744 485.82896 
L 910.896694 484.481036 
L 918.582645 483.133695 
L 926.268595 481.786739 
L 933.954545 480.439991 
" clip-path="url(#p294e5309c2)" style="fill: none; stroke: #79b5d9; stroke-width: 1.5; stroke-linecap: square"/>
   </g>
   <g id="line2d_20">
    <path d="M 173.045455 156.22457 
L 180.731405 146.388313 
L 188.417355 144.505241 
L 196.103306 143.803813 
L 203.789256 143.516783 
L 211.475207 143.616081 
L 219.161157 143.391469 
L 226.847107 143.487519 
L 234.533058 143.78701 
L 242.219008 143.301687 
L 249.904959 143.792408 
L 257.590909 143.592933 
L 265.27686 143.371032 
L 272.96281 144.282601 
L 280.64876 143.340976 
L 288.334711 144.103557 
L 296.020661 143.976096 
L 303.706612 143.860625 
L 311.392562 144.316578 
L 319.078512 143.946828 
L 326.764463 144.497288 
L 334.450413 144.091323 
L 342.136364 144.620647 
L 349.822314 144.415694 
L 357.508264 144.523825 
L 365.194215 145.282494 
L 372.880165 144.522772 
L 380.566116 145.581748 
L 388.252066 145.411234 
L 395.938017 145.495155 
L 403.623967 146.204101 
L 411.309917 145.886594 
L 418.995868 146.640687 
L 426.681818 146.387968 
L 434.367769 147.064123 
L 442.053719 146.97605 
L 449.739669 147.406271 
L 457.42562 148.018466 
L 465.11157 147.657257 
L 472.797521 148.960114 
L 480.483471 148.707317 
L 488.169421 149.180436 
L 495.855372 150.102113 
L 503.541322 149.888531 
L 511.227273 150.949478 
L 518.913223 150.833321 
L 526.599174 151.702444 
L 534.285124 151.79656 
L 541.971074 152.49137 
L 549.657025 153.044264 
L 557.342975 153.152858 
L 565.028926 154.54251 
L 572.714876 154.280958 
L 580.400826 155.219104 
L 588.086777 156.198957 
L 595.772727 156.136632 
L 603.458678 157.55018 
L 611.144628 157.505365 
L 618.830579 158.575002 
L 626.516529 158.833382 
L 634.202479 159.703207 
L 641.88843 160.282717 
L 649.57438 160.7612 
L 657.260331 162.082022 
L 664.946281 161.948856 
L 672.632231 163.241639 
L 680.318182 164.097296 
L 688.004132 164.214404 
L 695.690083 165.943572 
L 703.376033 165.869342 
L 711.061983 167.111818 
L 718.747934 167.468357 
L 726.433884 168.400914 
L 734.119835 169.037893 
L 741.805785 169.70275 
L 749.491736 170.868741 
L 757.177686 170.951219 
L 764.863636 172.366679 
L 772.549587 173.071187 
L 780.235537 173.594495 
L 787.921488 174.736244 
L 795.607438 175.094547 
L 803.293388 176.260769 
L 810.979339 176.576556 
L 818.665289 177.663828 
L 826.35124 178.301925 
L 834.03719 178.756126 
L 841.72314 180.377724 
L 849.409091 180.226168 
L 857.095041 181.477841 
L 864.780992 182.423867 
L 872.466942 182.678396 
L 880.152893 184.023048 
L 887.838843 184.205108 
L 895.524793 185.328396 
L 903.210744 185.647232 
L 910.896694 186.623858 
L 918.582645 187.189196 
L 926.268595 187.806597 
L 933.954545 188.896301 
" clip-path="url(#p294e5309c2)" style="fill: none; stroke: #fd9649; stroke-width: 1.5; stroke-linecap: square"/>
   </g>
   <g id="line2d_21">
    <path d="M 173.045455 615.6 
L 180.731405 614.23215 
L 188.417355 612.863927 
L 196.103306 611.495431 
L 203.789256 610.126809 
L 211.475207 608.758161 
L 219.161157 607.389433 
L 226.847107 606.0206 
L 234.533058 604.651701 
L 242.219008 603.282832 
L 249.904959 601.914059 
L 257.590909 600.54529 
L 265.27686 599.176473 
L 272.96281 597.807592 
L 280.64876 596.43866 
L 288.334711 595.069725 
L 296.020661 593.700867 
L 303.706612 592.332181 
L 311.392562 590.963556 
L 319.078512 589.594854 
L 326.764463 588.225994 
L 334.450413 586.856961 
L 342.136364 585.4878 
L 349.822314 584.118617 
L 357.508264 582.749582 
L 365.194215 581.380894 
L 372.880165 580.012342 
L 380.566116 578.64369 
L 388.252066 577.274848 
L 395.938017 575.905838 
L 403.623967 574.536785 
L 411.309917 573.167924 
L 418.995868 571.799244 
L 426.681818 570.430531 
L 434.367769 569.061716 
L 442.053719 567.692792 
L 449.739669 566.323817 
L 457.42562 564.95491 
L 465.11157 563.586176 
L 472.797521 562.217484 
L 480.483471 560.848724 
L 488.169421 559.479847 
L 495.855372 558.110858 
L 503.541322 556.741819 
L 511.227273 555.372848 
L 518.913223 554.004113 
L 526.599174 552.635592 
L 534.285124 551.267032 
L 541.971074 549.898268 
L 549.657025 548.529241 
L 557.342975 547.16 
L 565.028926 545.790699 
L 572.714876 544.421602 
L 580.400826 543.052985 
L 588.086777 541.684487 
L 595.772727 540.315847 
L 603.458678 538.946982 
L 611.144628 537.577939 
L 618.830579 536.20889 
L 626.516529 534.840105 
L 634.202479 533.471439 
L 641.88843 532.10271 
L 649.57438 530.733867 
L 657.260331 529.364923 
L 664.946281 527.995959 
L 672.632231 526.627118 
L 680.318182 525.258408 
L 688.004132 523.889689 
L 695.690083 522.520882 
L 703.376033 521.151963 
L 711.061983 519.78296 
L 718.747934 518.413955 
L 726.433884 517.045083 
L 734.119835 515.676462 
L 741.805785 514.307916 
L 749.491736 512.939248 
L 757.177686 511.570359 
L 764.863636 510.201244 
L 772.549587 508.831992 
L 780.235537 507.462789 
L 787.921488 506.093916 
L 795.607438 504.725396 
L 803.293388 503.356837 
L 810.979339 501.988093 
L 818.665289 500.619136 
L 826.35124 499.250063 
L 834.03719 497.881089 
L 841.72314 496.512398 
L 849.409091 495.143726 
L 857.095041 493.774964 
L 864.780992 492.406079 
L 872.466942 491.037111 
L 880.152893 489.668163 
L 887.838843 488.299376 
L 895.524793 486.930644 
L 903.210744 485.561871 
L 910.896694 484.19302 
L 918.582645 482.824101 
L 926.268595 481.455163 
L 933.954545 480.086299 
" clip-path="url(#p294e5309c2)" style="fill: none; stroke: #2575b7; stroke-width: 1.5; stroke-linecap: square"/>
   </g>
   <g id="line2d_22">
    <path d="M 173.045455 156.22457 
L 180.731405 157.343523 
L 188.417355 158.040532 
L 196.103306 158.426344 
L 203.789256 158.67668 
L 211.475207 158.903856 
L 219.161157 159.040124 
L 226.847107 159.059552 
L 234.533058 159.004426 
L 242.219008 158.985255 
L 249.904959 159.072977 
L 257.590909 159.164584 
L 265.27686 159.204532 
L 272.96281 159.173202 
L 280.64876 159.086764 
L 288.334711 158.997174 
L 296.020661 158.99234 
L 303.706612 159.171048 
L 311.392562 159.413799 
L 319.078512 159.571706 
L 326.764463 159.561897 
L 334.450413 159.367513 
L 342.136364 159.03771 
L 349.822314 158.687657 
L 357.508264 158.498538 
L 365.194215 158.681778 
L 372.880165 159.010128 
L 380.566116 159.224419 
L 388.252066 159.229482 
L 395.938017 159.048721 
L 403.623967 158.824119 
L 411.309917 158.813558 
L 418.995868 159.003929 
L 426.681818 159.156169 
L 434.367769 159.19528 
L 442.053719 159.115307 
L 449.739669 158.979347 
L 457.42562 158.919539 
L 465.11157 159.049062 
L 472.797521 159.222449 
L 480.483471 159.32251 
L 488.169421 159.294745 
L 495.855372 159.145698 
L 503.541322 158.942963 
L 511.227273 158.815181 
L 518.913223 158.94313 
L 526.599174 159.292369 
L 534.285124 159.596355 
L 541.971074 159.682603 
L 549.657025 159.491477 
L 557.342975 159.07618 
L 565.028926 158.602765 
L 572.714876 158.350125 
L 580.400826 158.612597 
L 588.086777 158.998723 
L 595.772727 159.222959 
L 603.458678 159.197854 
L 611.144628 158.976542 
L 618.830579 158.752743 
L 626.516529 158.82488 
L 634.202479 159.029152 
L 641.88843 159.162916 
L 649.57438 159.169705 
L 657.260331 159.065893 
L 664.946281 158.940701 
L 672.632231 158.952499 
L 680.318182 159.107198 
L 688.004132 159.250219 
L 695.690083 159.297548 
L 703.376033 159.222878 
L 711.061983 159.057607 
L 718.747934 158.890844 
L 726.433884 158.869401 
L 734.119835 159.114964 
L 741.805785 159.435337 
L 749.491736 159.624707 
L 757.177686 159.578323 
L 764.863636 159.292497 
L 772.549587 158.864602 
L 780.235537 158.493078 
L 787.921488 158.477423 
L 795.607438 158.838898 
L 803.293388 159.152588 
L 810.979339 159.258873 
L 818.665289 159.13143 
L 826.35124 158.87711 
L 834.03719 158.735932 
L 841.72314 158.909033 
L 849.409091 159.102788 
L 857.095041 159.194968 
L 864.780992 159.152605 
L 872.466942 159.017518 
L 880.152893 158.906312 
L 887.838843 158.973159 
L 895.524793 159.100424 
L 903.210744 159.180848 
L 910.896694 159.176572 
L 918.582645 159.096368 
L 926.268595 158.995648 
L 933.954545 158.976457 
" clip-path="url(#p294e5309c2)" style="fill: none; stroke: #dc4c03; stroke-width: 1.5; stroke-linecap: square"/>
   </g>
   <g id="line2d_23">
    <path d="M 173.045455 615.6 
L 180.731405 614.224057 
L 188.417355 612.848334 
L 196.103306 611.472831 
L 203.789256 610.097549 
L 211.475207 608.722488 
L 219.161157 607.347646 
L 226.847107 605.973025 
L 234.533058 604.598624 
L 242.219008 603.224444 
L 249.904959 601.850483 
L 257.590909 600.476743 
L 265.27686 599.103223 
L 272.96281 597.729923 
L 280.64876 596.356843 
L 288.334711 594.983983 
L 296.020661 593.611343 
L 303.706612 592.238923 
L 311.392562 590.866723 
L 319.078512 589.494743 
L 326.764463 588.122982 
L 334.450413 586.751442 
L 342.136364 585.380121 
L 349.822314 584.00902 
L 357.508264 582.638138 
L 365.194215 581.267476 
L 372.880165 579.897034 
L 380.566116 578.526812 
L 388.252066 577.156809 
L 395.938017 575.787025 
L 403.623967 574.417461 
L 411.309917 573.048117 
L 418.995868 571.678992 
L 426.681818 570.310086 
L 434.367769 568.9414 
L 442.053719 567.572932 
L 449.739669 566.204685 
L 457.42562 564.836656 
L 465.11157 563.468847 
L 472.797521 562.101256 
L 480.483471 560.733885 
L 488.169421 559.366733 
L 495.855372 557.999801 
L 503.541322 556.633087 
L 511.227273 555.266592 
L 518.913223 553.900316 
L 526.599174 552.534259 
L 534.285124 551.168421 
L 541.971074 549.802802 
L 549.657025 548.437401 
L 557.342975 547.072219 
L 565.028926 545.707257 
L 572.714876 544.342512 
L 580.400826 542.977987 
L 588.086777 541.61368 
L 595.772727 540.249592 
L 603.458678 538.885722 
L 611.144628 537.522071 
L 618.830579 536.158638 
L 626.516529 534.795424 
L 634.202479 533.432428 
L 641.88843 532.069651 
L 649.57438 530.707092 
L 657.260331 529.344751 
L 664.946281 527.982629 
L 672.632231 526.620725 
L 680.318182 525.259039 
L 688.004132 523.897571 
L 695.690083 522.536321 
L 703.376033 521.17529 
L 711.061983 519.814477 
L 718.747934 518.453881 
L 726.433884 517.093504 
L 734.119835 515.733345 
L 741.805785 514.373403 
L 749.491736 513.01368 
L 757.177686 511.654174 
L 764.863636 510.294886 
L 772.549587 508.935817 
L 780.235537 507.576964 
L 787.921488 506.21833 
L 795.607438 504.859913 
L 803.293388 503.501714 
L 810.979339 502.143733 
L 818.665289 500.785969 
L 826.35124 499.428422 
L 834.03719 498.071094 
L 841.72314 496.713982 
L 849.409091 495.357088 
L 857.095041 494.000412 
L 864.780992 492.643953 
L 872.466942 491.287711 
L 880.152893 489.931687 
L 887.838843 488.57588 
L 895.524793 487.22029 
L 903.210744 485.864917 
L 910.896694 484.509762 
L 918.582645 483.154823 
L 926.268595 481.800102 
L 933.954545 480.445598 
" clip-path="url(#p294e5309c2)" style="fill: none; stroke: #08306b; stroke-width: 1.5; stroke-linecap: square"/>
   </g>
   <g id="line2d_24">
    <path d="M 173.045455 156.22457 
L 180.731405 152.337686 
L 188.417355 149.755749 
L 196.103306 148.118243 
L 203.789256 147.015401 
L 211.475207 146.194692 
L 219.161157 145.672936 
L 226.847107 145.411659 
L 234.533058 145.288909 
L 242.219008 145.128729 
L 249.904959 144.968604 
L 257.590909 144.86726 
L 265.27686 144.837667 
L 272.96281 144.862681 
L 280.64876 144.895046 
L 288.334711 144.864917 
L 296.020661 144.789072 
L 303.706612 144.719797 
L 311.392562 144.687143 
L 319.078512 144.703862 
L 326.764463 144.765411 
L 334.450413 144.849945 
L 342.136364 144.918323 
L 349.822314 144.913845 
L 357.508264 144.741581 
L 365.194215 144.475244 
L 372.880165 144.244173 
L 380.566116 144.135875 
L 388.252066 144.196019 
L 395.938017 144.428442 
L 403.623967 144.795148 
L 411.309917 145.216306 
L 418.995868 145.570248 
L 426.681818 145.693477 
L 434.367769 145.44656 
L 442.053719 145.128479 
L 449.739669 144.926586 
L 457.42562 144.911171 
L 465.11157 145.075301 
L 472.797521 145.334817 
L 480.483471 145.528337 
L 488.169421 145.512317 
L 495.855372 145.486546 
L 503.541322 145.55781 
L 511.227273 145.771096 
L 518.913223 146.122798 
L 526.599174 146.560717 
L 534.285124 146.984059 
L 541.971074 147.248678 
L 549.657025 147.461026 
L 557.342975 147.855159 
L 565.028926 148.563201 
L 572.714876 149.613354 
L 580.400826 150.929895 
L 588.086777 152.333175 
L 595.772727 153.539623 
L 603.458678 154.371915 
L 611.144628 155.199463 
L 618.830579 156.278831 
L 626.516529 157.720343 
L 634.202479 159.490975 
L 641.88843 161.414358 
L 649.57438 163.170776 
L 657.260331 164.427842 
L 664.946281 165.587023 
L 672.632231 166.78306 
L 680.318182 168.029219 
L 688.004132 169.300516 
L 695.690083 170.533714 
L 703.376033 171.627326 
L 711.061983 172.62619 
L 718.747934 173.636375 
L 726.433884 174.534476 
L 734.119835 175.251522 
L 741.805785 175.775333 
L 749.491736 176.150523 
L 757.177686 176.478497 
L 764.863636 176.917451 
L 772.549587 177.548169 
L 780.235537 178.164865 
L 787.921488 178.636777 
L 795.607438 178.909054 
L 803.293388 179.001987 
L 810.979339 179.011002 
L 818.665289 179.106666 
L 826.35124 179.438204 
L 834.03719 179.801671 
L 841.72314 180.080009 
L 849.409091 180.222848 
L 857.095041 180.234132 
L 864.780992 180.172114 
L 872.466942 180.149361 
L 880.152893 180.303176 
L 887.838843 180.525174 
L 895.524793 180.70715 
L 903.210744 180.800969 
L 910.896694 180.796591 
L 918.582645 180.722063 
L 926.268595 180.643526 
L 933.954545 180.66521 
" clip-path="url(#p294e5309c2)" style="fill: none; stroke: #7f2704; stroke-width: 1.5; stroke-linecap: square"/>
   </g>
   <g id="patch_3">
    <path d="M 135 640.8 
L 135 86.4 
" style="fill: none; stroke: #000000; stroke-width: 0.8; stroke-linejoin: miter; stroke-linecap: square"/>
   </g>
   <g id="patch_4">
    <path d="M 972 640.8 
L 972 86.4 
" style="fill: none; stroke: #000000; stroke-width: 0.8; stroke-linejoin: miter; stroke-linecap: square"/>
   </g>
   <g id="patch_5">
    <path d="M 135 640.8 
L 972 640.8 
" style="fill: none; stroke: #000000; stroke-width: 0.8; stroke-linejoin: miter; stroke-linecap: square"/>
   </g>
   <g id="patch_6">
    <path d="M 135 86.4 
L 972 86.4 
" style="fill: none; stroke: #000000; stroke-width: 0.8; stroke-linejoin: miter; stroke-linecap: square"/>
   </g>
   <g id="legend_1">
    <g id="patch_7">
     <path d="M 150.4 528.359375 
L 300.477813 528.359375 
Q 304.877813 528.359375 304.877813 523.959375 
L 304.877813 203.240625 
Q 304.877813 198.840625 300.477813 198.840625 
L 150.4 198.840625 
Q 146 198.840625 146 203.240625 
L 146 523.959375 
Q 146 528.359375 150.4 528.359375 
z
" style="fill: #ffffff; opacity: 0.8; stroke: #cccccc; stroke-linejoin: miter"/>
    </g>
    <g id="PathCollection_3">
     <g>
      <use xlink:href="#m80f1702e56" x="176.8" y="218.582187" style="fill: #1f77b4; stroke: #1f77b4"/>
     </g>
    </g>
    <g id="text_19">
     <!-- Xi -->
     <g transform="translate(216.4 224.357187) scale(0.22 -0.22)">
      <use xlink:href="#DejaVuSans-58"/>
      <use xlink:href="#DejaVuSans-69" x="68.505859"/>
     </g>
    </g>
    <g id="PathCollection_4">
     <g>
      <use xlink:href="#m62fcbac0dc" x="176.8" y="250.874062" style="fill: #ff7f0e; stroke: #ff7f0e"/>
     </g>
    </g>
    <g id="text_20">
     <!-- Xa -->
     <g transform="translate(216.4 256.649062) scale(0.22 -0.22)">
      <use xlink:href="#DejaVuSans-58"/>
      <use xlink:href="#DejaVuSans-61" x="68.505859"/>
     </g>
    </g>
    <g id="line2d_25">
     <path d="M 154.8 281.240937 
L 176.8 281.240937 
L 198.8 281.240937 
" style="fill: none; stroke: #d0e1f2; stroke-width: 1.5; stroke-linecap: square"/>
    </g>
    <g id="text_21">
     <!-- Xi-AAII -->
     <g transform="translate(216.4 288.940937) scale(0.22 -0.22)">
      <defs>
       <path id="DejaVuSans-2d" d="M 313 2009 
L 1997 2009 
L 1997 1497 
L 313 1497 
L 313 2009 
z
" transform="scale(0.015625)"/>
       <path id="DejaVuSans-49" d="M 628 4666 
L 1259 4666 
L 1259 0 
L 628 0 
L 628 4666 
z
" transform="scale(0.015625)"/>
      </defs>
      <use xlink:href="#DejaVuSans-58"/>
      <use xlink:href="#DejaVuSans-69" x="68.505859"/>
      <use xlink:href="#DejaVuSans-2d" x="96.289062"/>
      <use xlink:href="#DejaVuSans-41" x="130.123047"/>
      <use xlink:href="#DejaVuSans-41" x="201.28125"/>
      <use xlink:href="#DejaVuSans-49" x="269.689453"/>
      <use xlink:href="#DejaVuSans-49" x="299.181641"/>
     </g>
    </g>
    <g id="line2d_26">
     <path d="M 154.8 313.532812 
L 176.8 313.532812 
L 198.8 313.532812 
" style="fill: none; stroke: #fdd9b4; stroke-width: 1.5; stroke-linecap: square"/>
    </g>
    <g id="text_22">
     <!-- Xa-AAII -->
     <g transform="translate(216.4 321.232812) scale(0.22 -0.22)">
      <use xlink:href="#DejaVuSans-58"/>
      <use xlink:href="#DejaVuSans-61" x="68.505859"/>
      <use xlink:href="#DejaVuSans-2d" x="129.785156"/>
      <use xlink:href="#DejaVuSans-41" x="163.619141"/>
      <use xlink:href="#DejaVuSans-41" x="234.777344"/>
      <use xlink:href="#DejaVuSans-49" x="303.185547"/>
      <use xlink:href="#DejaVuSans-49" x="332.677734"/>
     </g>
    </g>
    <g id="line2d_27">
     <path d="M 154.8 345.824687 
L 176.8 345.824687 
L 198.8 345.824687 
" style="fill: none; stroke: #79b5d9; stroke-width: 1.5; stroke-linecap: square"/>
    </g>
    <g id="text_23">
     <!-- Xi-AIII -->
     <g transform="translate(216.4 353.524687) scale(0.22 -0.22)">
      <use xlink:href="#DejaVuSans-58"/>
      <use xlink:href="#DejaVuSans-69" x="68.505859"/>
      <use xlink:href="#DejaVuSans-2d" x="96.289062"/>
      <use xlink:href="#DejaVuSans-41" x="130.123047"/>
      <use xlink:href="#DejaVuSans-49" x="198.53125"/>
      <use xlink:href="#DejaVuSans-49" x="228.023438"/>
      <use xlink:href="#DejaVuSans-49" x="257.515625"/>
     </g>
    </g>
    <g id="line2d_28">
     <path d="M 154.8 378.116562 
L 176.8 378.116562 
L 198.8 378.116562 
" style="fill: none; stroke: #fd9649; stroke-width: 1.5; stroke-linecap: square"/>
    </g>
    <g id="text_24">
     <!-- Xa-AIII -->
     <g transform="translate(216.4 385.816562) scale(0.22 -0.22)">
      <use xlink:href="#DejaVuSans-58"/>
      <use xlink:href="#DejaVuSans-61" x="68.505859"/>
      <use xlink:href="#DejaVuSans-2d" x="129.785156"/>
      <use xlink:href="#DejaVuSans-41" x="163.619141"/>
      <use xlink:href="#DejaVuSans-49" x="232.027344"/>
      <use xlink:href="#DejaVuSans-49" x="261.519531"/>
      <use xlink:href="#DejaVuSans-49" x="291.011719"/>
     </g>
    </g>
    <g id="line2d_29">
     <path d="M 154.8 410.408437 
L 176.8 410.408437 
L 198.8 410.408437 
" style="fill: none; stroke: #2575b7; stroke-width: 1.5; stroke-linecap: square"/>
    </g>
    <g id="text_25">
     <!-- Xi-IAII -->
     <g transform="translate(216.4 418.108437) scale(0.22 -0.22)">
      <use xlink:href="#DejaVuSans-58"/>
      <use xlink:href="#DejaVuSans-69" x="68.505859"/>
      <use xlink:href="#DejaVuSans-2d" x="96.289062"/>
      <use xlink:href="#DejaVuSans-49" x="132.373047"/>
      <use xlink:href="#DejaVuSans-41" x="161.865234"/>
      <use xlink:href="#DejaVuSans-49" x="230.273438"/>
      <use xlink:href="#DejaVuSans-49" x="259.765625"/>
     </g>
    </g>
    <g id="line2d_30">
     <path d="M 154.8 442.700312 
L 176.8 442.700312 
L 198.8 442.700312 
" style="fill: none; stroke: #dc4c03; stroke-width: 1.5; stroke-linecap: square"/>
    </g>
    <g id="text_26">
     <!-- Xa-IAII -->
     <g transform="translate(216.4 450.400312) scale(0.22 -0.22)">
      <use xlink:href="#DejaVuSans-58"/>
      <use xlink:href="#DejaVuSans-61" x="68.505859"/>
      <use xlink:href="#DejaVuSans-2d" x="129.785156"/>
      <use xlink:href="#DejaVuSans-49" x="165.869141"/>
      <use xlink:href="#DejaVuSans-41" x="195.361328"/>
      <use xlink:href="#DejaVuSans-49" x="263.769531"/>
      <use xlink:href="#DejaVuSans-49" x="293.261719"/>
     </g>
    </g>
    <g id="line2d_31">
     <path d="M 154.8 474.992188 
L 176.8 474.992188 
L 198.8 474.992188 
" style="fill: none; stroke: #08306b; stroke-width: 1.5; stroke-linecap: square"/>
    </g>
    <g id="text_27">
     <!-- Xi-IIII -->
     <g transform="translate(216.4 482.692187) scale(0.22 -0.22)">
      <use xlink:href="#DejaVuSans-58"/>
      <use xlink:href="#DejaVuSans-69" x="68.505859"/>
      <use xlink:href="#DejaVuSans-2d" x="96.289062"/>
      <use xlink:href="#DejaVuSans-49" x="132.373047"/>
      <use xlink:href="#DejaVuSans-49" x="161.865234"/>
      <use xlink:href="#DejaVuSans-49" x="191.357422"/>
      <use xlink:href="#DejaVuSans-49" x="220.849609"/>
     </g>
    </g>
    <g id="line2d_32">
     <path d="M 154.8 507.284062 
L 176.8 507.284062 
L 198.8 507.284062 
" style="fill: none; stroke: #7f2704; stroke-width: 1.5; stroke-linecap: square"/>
    </g>
    <g id="text_28">
     <!-- Xa-IIII -->
     <g transform="translate(216.4 514.984062) scale(0.22 -0.22)">
      <use xlink:href="#DejaVuSans-58"/>
      <use xlink:href="#DejaVuSans-61" x="68.505859"/>
      <use xlink:href="#DejaVuSans-2d" x="129.785156"/>
      <use xlink:href="#DejaVuSans-49" x="165.869141"/>
      <use xlink:href="#DejaVuSans-49" x="195.361328"/>
      <use xlink:href="#DejaVuSans-49" x="224.853516"/>
      <use xlink:href="#DejaVuSans-49" x="254.345703"/>
     </g>
    </g>
   </g>
  </g>
 </g>
 <defs>
  <clipPath id="p294e5309c2">
   <rect x="135" y="86.4" width="837" height="554.4"/>
  </clipPath>
 </defs>
</svg>
