<?xml version="1.0" encoding="utf-8" standalone="no"?>
<!DOCTYPE svg PUBLIC "-//W3C//DTD SVG 1.1//EN"
  "http://www.w3.org/Graphics/SVG/1.1/DTD/svg11.dtd">
<svg xmlns:xlink="http://www.w3.org/1999/xlink" width="1080pt" height="720pt" viewBox="0 0 1080 720" xmlns="http://www.w3.org/2000/svg" version="1.1">
 <metadata>
  <rdf:RDF xmlns:dc="http://purl.org/dc/elements/1.1/" xmlns:cc="http://creativecommons.org/ns#" xmlns:rdf="http://www.w3.org/1999/02/22-rdf-syntax-ns#">
   <cc:Work>
    <dc:type rdf:resource="http://purl.org/dc/dcmitype/StillImage"/>
    <dc:date>2023-02-17T15:04:32.458282</dc:date>
    <dc:format>image/svg+xml</dc:format>
    <dc:creator>
     <cc:Agent>
      <dc:title>Matplotlib v3.6.2, https://matplotlib.org/</dc:title>
     </cc:Agent>
    </dc:creator>
   </cc:Work>
  </rdf:RDF>
 </metadata>
 <defs>
  <style type="text/css">*{stroke-linejoin: round; stroke-linecap: butt}</style>
 </defs>
 <g id="figure_1">
  <g id="patch_1">
   <path d="M 0 720 
L 1080 720 
L 1080 0 
L 0 0 
z
" style="fill: #ffffff"/>
  </g>
  <g id="axes_1">
   <g id="patch_2">
    <path d="M 104.42 643.48 
L 868.03 643.48 
L 868.03 23.76 
L 104.42 23.76 
z
" style="fill: #ffffff"/>
   </g>
   <g id="PathCollection_1">
    <defs>
     <path id="m80f1702e56" d="M 0 3 
C 0.795609 3 1.55874 2.683901 2.12132 2.12132 
C 2.683901 1.55874 3 0.795609 3 0 
C 3 -0.795609 2.683901 -1.55874 2.12132 -2.12132 
C 1.55874 -2.683901 0.795609 -3 0 -3 
C -0.795609 -3 -1.55874 -2.683901 -2.12132 -2.12132 
C -2.683901 -1.55874 -3 -0.795609 -3 0 
C -3 0.795609 -2.683901 1.55874 -2.12132 2.12132 
C -1.55874 2.683901 -0.795609 3 0 3 
z
" style="stroke: #1f77b4"/>
    </defs>
    <g clip-path="url(#p717cfecda9)">
     <use xlink:href="#m80f1702e56" x="139.129545" y="615.310909" style="fill: #1f77b4; stroke: #1f77b4"/>
     <use xlink:href="#m80f1702e56" x="225.903409" y="521.608891" style="fill: #1f77b4; stroke: #1f77b4"/>
     <use xlink:href="#m80f1702e56" x="312.677273" y="521.608891" style="fill: #1f77b4; stroke: #1f77b4"/>
     <use xlink:href="#m80f1702e56" x="399.451136" y="521.608891" style="fill: #1f77b4; stroke: #1f77b4"/>
     <use xlink:href="#m80f1702e56" x="486.225" y="521.608891" style="fill: #1f77b4; stroke: #1f77b4"/>
     <use xlink:href="#m80f1702e56" x="572.998864" y="521.608891" style="fill: #1f77b4; stroke: #1f77b4"/>
     <use xlink:href="#m80f1702e56" x="659.772727" y="521.608891" style="fill: #1f77b4; stroke: #1f77b4"/>
     <use xlink:href="#m80f1702e56" x="746.546591" y="521.608891" style="fill: #1f77b4; stroke: #1f77b4"/>
     <use xlink:href="#m80f1702e56" x="833.320455" y="521.608891" style="fill: #1f77b4; stroke: #1f77b4"/>
    </g>
   </g>
   <g id="PathCollection_2">
    <defs>
     <path id="m62fcbac0dc" d="M 0 3 
C 0.795609 3 1.55874 2.683901 2.12132 2.12132 
C 2.683901 1.55874 3 0.795609 3 0 
C 3 -0.795609 2.683901 -1.55874 2.12132 -2.12132 
C 1.55874 -2.683901 0.795609 -3 0 -3 
C -0.795609 -3 -1.55874 -2.683901 -2.12132 -2.12132 
C -2.683901 -1.55874 -3 -0.795609 -3 0 
C -3 0.795609 -2.683901 1.55874 -2.12132 2.12132 
C -1.55874 2.683901 -0.795609 3 0 3 
z
" style="stroke: #ff7f0e"/>
    </defs>
    <g clip-path="url(#p717cfecda9)">
     <use xlink:href="#m62fcbac0dc" x="139.129545" y="119.790519" style="fill: #ff7f0e; stroke: #ff7f0e"/>
     <use xlink:href="#m62fcbac0dc" x="225.903409" y="51.929091" style="fill: #ff7f0e; stroke: #ff7f0e"/>
     <use xlink:href="#m62fcbac0dc" x="312.677273" y="51.929091" style="fill: #ff7f0e; stroke: #ff7f0e"/>
     <use xlink:href="#m62fcbac0dc" x="399.451136" y="51.929091" style="fill: #ff7f0e; stroke: #ff7f0e"/>
     <use xlink:href="#m62fcbac0dc" x="486.225" y="51.929091" style="fill: #ff7f0e; stroke: #ff7f0e"/>
     <use xlink:href="#m62fcbac0dc" x="572.998864" y="51.929091" style="fill: #ff7f0e; stroke: #ff7f0e"/>
     <use xlink:href="#m62fcbac0dc" x="659.772727" y="51.929091" style="fill: #ff7f0e; stroke: #ff7f0e"/>
     <use xlink:href="#m62fcbac0dc" x="746.546591" y="51.929091" style="fill: #ff7f0e; stroke: #ff7f0e"/>
     <use xlink:href="#m62fcbac0dc" x="833.320455" y="51.929091" style="fill: #ff7f0e; stroke: #ff7f0e"/>
    </g>
   </g>
   <g id="matplotlib.axis_1">
    <g id="xtick_1">
     <g id="line2d_1">
      <defs>
       <path id="m3385fdae1e" d="M 0 0 
L 0 3.5 
" style="stroke: #000000; stroke-width: 0.8"/>
      </defs>
      <g>
       <use xlink:href="#m3385fdae1e" x="139.129545" y="643.48" style="stroke: #000000; stroke-width: 0.8"/>
      </g>
     </g>
     <g id="text_1">
      <!-- 7 -->
      <g transform="translate(132.130795 667.196563) scale(0.22 -0.22)">
       <defs>
        <path id="DejaVuSans-37" d="M 525 4666 
L 3525 4666 
L 3525 4397 
L 1831 0 
L 1172 0 
L 2766 4134 
L 525 4134 
L 525 4666 
z
" transform="scale(0.015625)"/>
       </defs>
       <use xlink:href="#DejaVuSans-37"/>
      </g>
     </g>
    </g>
    <g id="xtick_2">
     <g id="line2d_2">
      <g>
       <use xlink:href="#m3385fdae1e" x="225.903409" y="643.48" style="stroke: #000000; stroke-width: 0.8"/>
      </g>
     </g>
     <g id="text_2">
      <!-- 8 -->
      <g transform="translate(218.904659 667.196563) scale(0.22 -0.22)">
       <defs>
        <path id="DejaVuSans-38" d="M 2034 2216 
Q 1584 2216 1326 1975 
Q 1069 1734 1069 1313 
Q 1069 891 1326 650 
Q 1584 409 2034 409 
Q 2484 409 2743 651 
Q 3003 894 3003 1313 
Q 3003 1734 2745 1975 
Q 2488 2216 2034 2216 
z
M 1403 2484 
Q 997 2584 770 2862 
Q 544 3141 544 3541 
Q 544 4100 942 4425 
Q 1341 4750 2034 4750 
Q 2731 4750 3128 4425 
Q 3525 4100 3525 3541 
Q 3525 3141 3298 2862 
Q 3072 2584 2669 2484 
Q 3125 2378 3379 2068 
Q 3634 1759 3634 1313 
Q 3634 634 3220 271 
Q 2806 -91 2034 -91 
Q 1263 -91 848 271 
Q 434 634 434 1313 
Q 434 1759 690 2068 
Q 947 2378 1403 2484 
z
M 1172 3481 
Q 1172 3119 1398 2916 
Q 1625 2713 2034 2713 
Q 2441 2713 2670 2916 
Q 2900 3119 2900 3481 
Q 2900 3844 2670 4047 
Q 2441 4250 2034 4250 
Q 1625 4250 1398 4047 
Q 1172 3844 1172 3481 
z
" transform="scale(0.015625)"/>
       </defs>
       <use xlink:href="#DejaVuSans-38"/>
      </g>
     </g>
    </g>
    <g id="xtick_3">
     <g id="line2d_3">
      <g>
       <use xlink:href="#m3385fdae1e" x="312.677273" y="643.48" style="stroke: #000000; stroke-width: 0.8"/>
      </g>
     </g>
     <g id="text_3">
      <!-- 9 -->
      <g transform="translate(305.678523 667.196563) scale(0.22 -0.22)">
       <defs>
        <path id="DejaVuSans-39" d="M 703 97 
L 703 672 
Q 941 559 1184 500 
Q 1428 441 1663 441 
Q 2288 441 2617 861 
Q 2947 1281 2994 2138 
Q 2813 1869 2534 1725 
Q 2256 1581 1919 1581 
Q 1219 1581 811 2004 
Q 403 2428 403 3163 
Q 403 3881 828 4315 
Q 1253 4750 1959 4750 
Q 2769 4750 3195 4129 
Q 3622 3509 3622 2328 
Q 3622 1225 3098 567 
Q 2575 -91 1691 -91 
Q 1453 -91 1209 -44 
Q 966 3 703 97 
z
M 1959 2075 
Q 2384 2075 2632 2365 
Q 2881 2656 2881 3163 
Q 2881 3666 2632 3958 
Q 2384 4250 1959 4250 
Q 1534 4250 1286 3958 
Q 1038 3666 1038 3163 
Q 1038 2656 1286 2365 
Q 1534 2075 1959 2075 
z
" transform="scale(0.015625)"/>
       </defs>
       <use xlink:href="#DejaVuSans-39"/>
      </g>
     </g>
    </g>
    <g id="xtick_4">
     <g id="line2d_4">
      <g>
       <use xlink:href="#m3385fdae1e" x="399.451136" y="643.48" style="stroke: #000000; stroke-width: 0.8"/>
      </g>
     </g>
     <g id="text_4">
      <!-- 10 -->
      <g transform="translate(385.453636 667.196563) scale(0.22 -0.22)">
       <defs>
        <path id="DejaVuSans-31" d="M 794 531 
L 1825 531 
L 1825 4091 
L 703 3866 
L 703 4441 
L 1819 4666 
L 2450 4666 
L 2450 531 
L 3481 531 
L 3481 0 
L 794 0 
L 794 531 
z
" transform="scale(0.015625)"/>
        <path id="DejaVuSans-30" d="M 2034 4250 
Q 1547 4250 1301 3770 
Q 1056 3291 1056 2328 
Q 1056 1369 1301 889 
Q 1547 409 2034 409 
Q 2525 409 2770 889 
Q 3016 1369 3016 2328 
Q 3016 3291 2770 3770 
Q 2525 4250 2034 4250 
z
M 2034 4750 
Q 2819 4750 3233 4129 
Q 3647 3509 3647 2328 
Q 3647 1150 3233 529 
Q 2819 -91 2034 -91 
Q 1250 -91 836 529 
Q 422 1150 422 2328 
Q 422 3509 836 4129 
Q 1250 4750 2034 4750 
z
" transform="scale(0.015625)"/>
       </defs>
       <use xlink:href="#DejaVuSans-31"/>
       <use xlink:href="#DejaVuSans-30" x="63.623047"/>
      </g>
     </g>
    </g>
    <g id="xtick_5">
     <g id="line2d_5">
      <g>
       <use xlink:href="#m3385fdae1e" x="486.225" y="643.48" style="stroke: #000000; stroke-width: 0.8"/>
      </g>
     </g>
     <g id="text_5">
      <!-- 11 -->
      <g transform="translate(472.2275 667.196563) scale(0.22 -0.22)">
       <use xlink:href="#DejaVuSans-31"/>
       <use xlink:href="#DejaVuSans-31" x="63.623047"/>
      </g>
     </g>
    </g>
    <g id="xtick_6">
     <g id="line2d_6">
      <g>
       <use xlink:href="#m3385fdae1e" x="572.998864" y="643.48" style="stroke: #000000; stroke-width: 0.8"/>
      </g>
     </g>
     <g id="text_6">
      <!-- 12 -->
      <g transform="translate(559.001364 667.196563) scale(0.22 -0.22)">
       <defs>
        <path id="DejaVuSans-32" d="M 1228 531 
L 3431 531 
L 3431 0 
L 469 0 
L 469 531 
Q 828 903 1448 1529 
Q 2069 2156 2228 2338 
Q 2531 2678 2651 2914 
Q 2772 3150 2772 3378 
Q 2772 3750 2511 3984 
Q 2250 4219 1831 4219 
Q 1534 4219 1204 4116 
Q 875 4013 500 3803 
L 500 4441 
Q 881 4594 1212 4672 
Q 1544 4750 1819 4750 
Q 2544 4750 2975 4387 
Q 3406 4025 3406 3419 
Q 3406 3131 3298 2873 
Q 3191 2616 2906 2266 
Q 2828 2175 2409 1742 
Q 1991 1309 1228 531 
z
" transform="scale(0.015625)"/>
       </defs>
       <use xlink:href="#DejaVuSans-31"/>
       <use xlink:href="#DejaVuSans-32" x="63.623047"/>
      </g>
     </g>
    </g>
    <g id="xtick_7">
     <g id="line2d_7">
      <g>
       <use xlink:href="#m3385fdae1e" x="659.772727" y="643.48" style="stroke: #000000; stroke-width: 0.8"/>
      </g>
     </g>
     <g id="text_7">
      <!-- 13 -->
      <g transform="translate(645.775227 667.196563) scale(0.22 -0.22)">
       <defs>
        <path id="DejaVuSans-33" d="M 2597 2516 
Q 3050 2419 3304 2112 
Q 3559 1806 3559 1356 
Q 3559 666 3084 287 
Q 2609 -91 1734 -91 
Q 1441 -91 1130 -33 
Q 819 25 488 141 
L 488 750 
Q 750 597 1062 519 
Q 1375 441 1716 441 
Q 2309 441 2620 675 
Q 2931 909 2931 1356 
Q 2931 1769 2642 2001 
Q 2353 2234 1838 2234 
L 1294 2234 
L 1294 2753 
L 1863 2753 
Q 2328 2753 2575 2939 
Q 2822 3125 2822 3475 
Q 2822 3834 2567 4026 
Q 2313 4219 1838 4219 
Q 1578 4219 1281 4162 
Q 984 4106 628 3988 
L 628 4550 
Q 988 4650 1302 4700 
Q 1616 4750 1894 4750 
Q 2613 4750 3031 4423 
Q 3450 4097 3450 3541 
Q 3450 3153 3228 2886 
Q 3006 2619 2597 2516 
z
" transform="scale(0.015625)"/>
       </defs>
       <use xlink:href="#DejaVuSans-31"/>
       <use xlink:href="#DejaVuSans-33" x="63.623047"/>
      </g>
     </g>
    </g>
    <g id="xtick_8">
     <g id="line2d_8">
      <g>
       <use xlink:href="#m3385fdae1e" x="746.546591" y="643.48" style="stroke: #000000; stroke-width: 0.8"/>
      </g>
     </g>
     <g id="text_8">
      <!-- 14 -->
      <g transform="translate(732.549091 667.196563) scale(0.22 -0.22)">
       <defs>
        <path id="DejaVuSans-34" d="M 2419 4116 
L 825 1625 
L 2419 1625 
L 2419 4116 
z
M 2253 4666 
L 3047 4666 
L 3047 1625 
L 3713 1625 
L 3713 1100 
L 3047 1100 
L 3047 0 
L 2419 0 
L 2419 1100 
L 313 1100 
L 313 1709 
L 2253 4666 
z
" transform="scale(0.015625)"/>
       </defs>
       <use xlink:href="#DejaVuSans-31"/>
       <use xlink:href="#DejaVuSans-34" x="63.623047"/>
      </g>
     </g>
    </g>
    <g id="xtick_9">
     <g id="line2d_9">
      <g>
       <use xlink:href="#m3385fdae1e" x="833.320455" y="643.48" style="stroke: #000000; stroke-width: 0.8"/>
      </g>
     </g>
     <g id="text_9">
      <!-- 15 -->
      <g transform="translate(819.322955 667.196563) scale(0.22 -0.22)">
       <defs>
        <path id="DejaVuSans-35" d="M 691 4666 
L 3169 4666 
L 3169 4134 
L 1269 4134 
L 1269 2991 
Q 1406 3038 1543 3061 
Q 1681 3084 1819 3084 
Q 2600 3084 3056 2656 
Q 3513 2228 3513 1497 
Q 3513 744 3044 326 
Q 2575 -91 1722 -91 
Q 1428 -91 1123 -41 
Q 819 9 494 109 
L 494 744 
Q 775 591 1075 516 
Q 1375 441 1709 441 
Q 2250 441 2565 725 
Q 2881 1009 2881 1497 
Q 2881 1984 2565 2268 
Q 2250 2553 1709 2553 
Q 1456 2553 1204 2497 
Q 953 2441 691 2322 
L 691 4666 
z
" transform="scale(0.015625)"/>
       </defs>
       <use xlink:href="#DejaVuSans-31"/>
       <use xlink:href="#DejaVuSans-35" x="63.623047"/>
      </g>
     </g>
    </g>
    <g id="text_10">
     <!-- Time (days) -->
     <g transform="translate(421.266562 692.488438) scale(0.22 -0.22)">
      <defs>
       <path id="DejaVuSans-54" d="M -19 4666 
L 3928 4666 
L 3928 4134 
L 2272 4134 
L 2272 0 
L 1638 0 
L 1638 4134 
L -19 4134 
L -19 4666 
z
" transform="scale(0.015625)"/>
       <path id="DejaVuSans-69" d="M 603 3500 
L 1178 3500 
L 1178 0 
L 603 0 
L 603 3500 
z
M 603 4863 
L 1178 4863 
L 1178 4134 
L 603 4134 
L 603 4863 
z
" transform="scale(0.015625)"/>
       <path id="DejaVuSans-6d" d="M 3328 2828 
Q 3544 3216 3844 3400 
Q 4144 3584 4550 3584 
Q 5097 3584 5394 3201 
Q 5691 2819 5691 2113 
L 5691 0 
L 5113 0 
L 5113 2094 
Q 5113 2597 4934 2840 
Q 4756 3084 4391 3084 
Q 3944 3084 3684 2787 
Q 3425 2491 3425 1978 
L 3425 0 
L 2847 0 
L 2847 2094 
Q 2847 2600 2669 2842 
Q 2491 3084 2119 3084 
Q 1678 3084 1418 2786 
Q 1159 2488 1159 1978 
L 1159 0 
L 581 0 
L 581 3500 
L 1159 3500 
L 1159 2956 
Q 1356 3278 1631 3431 
Q 1906 3584 2284 3584 
Q 2666 3584 2933 3390 
Q 3200 3197 3328 2828 
z
" transform="scale(0.015625)"/>
       <path id="DejaVuSans-65" d="M 3597 1894 
L 3597 1613 
L 953 1613 
Q 991 1019 1311 708 
Q 1631 397 2203 397 
Q 2534 397 2845 478 
Q 3156 559 3463 722 
L 3463 178 
Q 3153 47 2828 -22 
Q 2503 -91 2169 -91 
Q 1331 -91 842 396 
Q 353 884 353 1716 
Q 353 2575 817 3079 
Q 1281 3584 2069 3584 
Q 2775 3584 3186 3129 
Q 3597 2675 3597 1894 
z
M 3022 2063 
Q 3016 2534 2758 2815 
Q 2500 3097 2075 3097 
Q 1594 3097 1305 2825 
Q 1016 2553 972 2059 
L 3022 2063 
z
" transform="scale(0.015625)"/>
       <path id="DejaVuSans-20" transform="scale(0.015625)"/>
       <path id="DejaVuSans-28" d="M 1984 4856 
Q 1566 4138 1362 3434 
Q 1159 2731 1159 2009 
Q 1159 1288 1364 580 
Q 1569 -128 1984 -844 
L 1484 -844 
Q 1016 -109 783 600 
Q 550 1309 550 2009 
Q 550 2706 781 3412 
Q 1013 4119 1484 4856 
L 1984 4856 
z
" transform="scale(0.015625)"/>
       <path id="DejaVuSans-64" d="M 2906 2969 
L 2906 4863 
L 3481 4863 
L 3481 0 
L 2906 0 
L 2906 525 
Q 2725 213 2448 61 
Q 2172 -91 1784 -91 
Q 1150 -91 751 415 
Q 353 922 353 1747 
Q 353 2572 751 3078 
Q 1150 3584 1784 3584 
Q 2172 3584 2448 3432 
Q 2725 3281 2906 2969 
z
M 947 1747 
Q 947 1113 1208 752 
Q 1469 391 1925 391 
Q 2381 391 2643 752 
Q 2906 1113 2906 1747 
Q 2906 2381 2643 2742 
Q 2381 3103 1925 3103 
Q 1469 3103 1208 2742 
Q 947 2381 947 1747 
z
" transform="scale(0.015625)"/>
       <path id="DejaVuSans-61" d="M 2194 1759 
Q 1497 1759 1228 1600 
Q 959 1441 959 1056 
Q 959 750 1161 570 
Q 1363 391 1709 391 
Q 2188 391 2477 730 
Q 2766 1069 2766 1631 
L 2766 1759 
L 2194 1759 
z
M 3341 1997 
L 3341 0 
L 2766 0 
L 2766 531 
Q 2569 213 2275 61 
Q 1981 -91 1556 -91 
Q 1019 -91 701 211 
Q 384 513 384 1019 
Q 384 1609 779 1909 
Q 1175 2209 1959 2209 
L 2766 2209 
L 2766 2266 
Q 2766 2663 2505 2880 
Q 2244 3097 1772 3097 
Q 1472 3097 1187 3025 
Q 903 2953 641 2809 
L 641 3341 
Q 956 3463 1253 3523 
Q 1550 3584 1831 3584 
Q 2591 3584 2966 3190 
Q 3341 2797 3341 1997 
z
" transform="scale(0.015625)"/>
       <path id="DejaVuSans-79" d="M 2059 -325 
Q 1816 -950 1584 -1140 
Q 1353 -1331 966 -1331 
L 506 -1331 
L 506 -850 
L 844 -850 
Q 1081 -850 1212 -737 
Q 1344 -625 1503 -206 
L 1606 56 
L 191 3500 
L 800 3500 
L 1894 763 
L 2988 3500 
L 3597 3500 
L 2059 -325 
z
" transform="scale(0.015625)"/>
       <path id="DejaVuSans-73" d="M 2834 3397 
L 2834 2853 
Q 2591 2978 2328 3040 
Q 2066 3103 1784 3103 
Q 1356 3103 1142 2972 
Q 928 2841 928 2578 
Q 928 2378 1081 2264 
Q 1234 2150 1697 2047 
L 1894 2003 
Q 2506 1872 2764 1633 
Q 3022 1394 3022 966 
Q 3022 478 2636 193 
Q 2250 -91 1575 -91 
Q 1294 -91 989 -36 
Q 684 19 347 128 
L 347 722 
Q 666 556 975 473 
Q 1284 391 1588 391 
Q 1994 391 2212 530 
Q 2431 669 2431 922 
Q 2431 1156 2273 1281 
Q 2116 1406 1581 1522 
L 1381 1569 
Q 847 1681 609 1914 
Q 372 2147 372 2553 
Q 372 3047 722 3315 
Q 1072 3584 1716 3584 
Q 2034 3584 2315 3537 
Q 2597 3491 2834 3397 
z
" transform="scale(0.015625)"/>
       <path id="DejaVuSans-29" d="M 513 4856 
L 1013 4856 
Q 1481 4119 1714 3412 
Q 1947 2706 1947 2009 
Q 1947 1309 1714 600 
Q 1481 -109 1013 -844 
L 513 -844 
Q 928 -128 1133 580 
Q 1338 1288 1338 2009 
Q 1338 2731 1133 3434 
Q 928 4138 513 4856 
z
" transform="scale(0.015625)"/>
      </defs>
      <use xlink:href="#DejaVuSans-54"/>
      <use xlink:href="#DejaVuSans-69" x="57.958984"/>
      <use xlink:href="#DejaVuSans-6d" x="85.742188"/>
      <use xlink:href="#DejaVuSans-65" x="183.154297"/>
      <use xlink:href="#DejaVuSans-20" x="244.677734"/>
      <use xlink:href="#DejaVuSans-28" x="276.464844"/>
      <use xlink:href="#DejaVuSans-64" x="315.478516"/>
      <use xlink:href="#DejaVuSans-61" x="378.955078"/>
      <use xlink:href="#DejaVuSans-79" x="440.234375"/>
      <use xlink:href="#DejaVuSans-73" x="499.414062"/>
      <use xlink:href="#DejaVuSans-29" x="551.513672"/>
     </g>
    </g>
   </g>
   <g id="matplotlib.axis_2">
    <g id="ytick_1">
     <g id="line2d_10">
      <defs>
       <path id="ma600d9e374" d="M 0 0 
L -3.5 0 
" style="stroke: #000000; stroke-width: 0.8"/>
      </defs>
      <g>
       <use xlink:href="#ma600d9e374" x="104.42" y="615.643714" style="stroke: #000000; stroke-width: 0.8"/>
      </g>
     </g>
     <g id="text_11">
      <!-- 0.00 -->
      <g transform="translate(48.435625 624.001995) scale(0.22 -0.22)">
       <defs>
        <path id="DejaVuSans-2e" d="M 684 794 
L 1344 794 
L 1344 0 
L 684 0 
L 684 794 
z
" transform="scale(0.015625)"/>
       </defs>
       <use xlink:href="#DejaVuSans-30"/>
       <use xlink:href="#DejaVuSans-2e" x="63.623047"/>
       <use xlink:href="#DejaVuSans-30" x="95.410156"/>
       <use xlink:href="#DejaVuSans-30" x="159.033203"/>
      </g>
     </g>
    </g>
    <g id="ytick_2">
     <g id="line2d_11">
      <g>
       <use xlink:href="#ma600d9e374" x="104.42" y="538.29454" style="stroke: #000000; stroke-width: 0.8"/>
      </g>
     </g>
     <g id="text_12">
      <!-- 0.25 -->
      <g transform="translate(48.435625 546.652821) scale(0.22 -0.22)">
       <use xlink:href="#DejaVuSans-30"/>
       <use xlink:href="#DejaVuSans-2e" x="63.623047"/>
       <use xlink:href="#DejaVuSans-32" x="95.410156"/>
       <use xlink:href="#DejaVuSans-35" x="159.033203"/>
      </g>
     </g>
    </g>
    <g id="ytick_3">
     <g id="line2d_12">
      <g>
       <use xlink:href="#ma600d9e374" x="104.42" y="460.945366" style="stroke: #000000; stroke-width: 0.8"/>
      </g>
     </g>
     <g id="text_13">
      <!-- 0.50 -->
      <g transform="translate(48.435625 469.303647) scale(0.22 -0.22)">
       <use xlink:href="#DejaVuSans-30"/>
       <use xlink:href="#DejaVuSans-2e" x="63.623047"/>
       <use xlink:href="#DejaVuSans-35" x="95.410156"/>
       <use xlink:href="#DejaVuSans-30" x="159.033203"/>
      </g>
     </g>
    </g>
    <g id="ytick_4">
     <g id="line2d_13">
      <g>
       <use xlink:href="#ma600d9e374" x="104.42" y="383.596192" style="stroke: #000000; stroke-width: 0.8"/>
      </g>
     </g>
     <g id="text_14">
      <!-- 0.75 -->
      <g transform="translate(48.435625 391.954473) scale(0.22 -0.22)">
       <use xlink:href="#DejaVuSans-30"/>
       <use xlink:href="#DejaVuSans-2e" x="63.623047"/>
       <use xlink:href="#DejaVuSans-37" x="95.410156"/>
       <use xlink:href="#DejaVuSans-35" x="159.033203"/>
      </g>
     </g>
    </g>
    <g id="ytick_5">
     <g id="line2d_14">
      <g>
       <use xlink:href="#ma600d9e374" x="104.42" y="306.247017" style="stroke: #000000; stroke-width: 0.8"/>
      </g>
     </g>
     <g id="text_15">
      <!-- 1.00 -->
      <g transform="translate(48.435625 314.605299) scale(0.22 -0.22)">
       <use xlink:href="#DejaVuSans-31"/>
       <use xlink:href="#DejaVuSans-2e" x="63.623047"/>
       <use xlink:href="#DejaVuSans-30" x="95.410156"/>
       <use xlink:href="#DejaVuSans-30" x="159.033203"/>
      </g>
     </g>
    </g>
    <g id="ytick_6">
     <g id="line2d_15">
      <g>
       <use xlink:href="#ma600d9e374" x="104.42" y="228.897843" style="stroke: #000000; stroke-width: 0.8"/>
      </g>
     </g>
     <g id="text_16">
      <!-- 1.25 -->
      <g transform="translate(48.435625 237.256124) scale(0.22 -0.22)">
       <use xlink:href="#DejaVuSans-31"/>
       <use xlink:href="#DejaVuSans-2e" x="63.623047"/>
       <use xlink:href="#DejaVuSans-32" x="95.410156"/>
       <use xlink:href="#DejaVuSans-35" x="159.033203"/>
      </g>
     </g>
    </g>
    <g id="ytick_7">
     <g id="line2d_16">
      <g>
       <use xlink:href="#ma600d9e374" x="104.42" y="151.548669" style="stroke: #000000; stroke-width: 0.8"/>
      </g>
     </g>
     <g id="text_17">
      <!-- 1.50 -->
      <g transform="translate(48.435625 159.90695) scale(0.22 -0.22)">
       <use xlink:href="#DejaVuSans-31"/>
       <use xlink:href="#DejaVuSans-2e" x="63.623047"/>
       <use xlink:href="#DejaVuSans-35" x="95.410156"/>
       <use xlink:href="#DejaVuSans-30" x="159.033203"/>
      </g>
     </g>
    </g>
    <g id="ytick_8">
     <g id="line2d_17">
      <g>
       <use xlink:href="#ma600d9e374" x="104.42" y="74.199495" style="stroke: #000000; stroke-width: 0.8"/>
      </g>
     </g>
     <g id="text_18">
      <!-- 1.75 -->
      <g transform="translate(48.435625 82.557776) scale(0.22 -0.22)">
       <use xlink:href="#DejaVuSans-31"/>
       <use xlink:href="#DejaVuSans-2e" x="63.623047"/>
       <use xlink:href="#DejaVuSans-37" x="95.410156"/>
       <use xlink:href="#DejaVuSans-35" x="159.033203"/>
      </g>
     </g>
    </g>
    <g id="text_19">
     <!-- X:A -->
     <g transform="translate(39.860313 352.385312) rotate(-90) scale(0.22 -0.22)">
      <defs>
       <path id="DejaVuSans-58" d="M 403 4666 
L 1081 4666 
L 2241 2931 
L 3406 4666 
L 4084 4666 
L 2584 2425 
L 4184 0 
L 3506 0 
L 2194 1984 
L 872 0 
L 191 0 
L 1856 2491 
L 403 4666 
z
" transform="scale(0.015625)"/>
       <path id="DejaVuSans-3a" d="M 750 794 
L 1409 794 
L 1409 0 
L 750 0 
L 750 794 
z
M 750 3309 
L 1409 3309 
L 1409 2516 
L 750 2516 
L 750 3309 
z
" transform="scale(0.015625)"/>
       <path id="DejaVuSans-41" d="M 2188 4044 
L 1331 1722 
L 3047 1722 
L 2188 4044 
z
M 1831 4666 
L 2547 4666 
L 4325 0 
L 3669 0 
L 3244 1197 
L 1141 1197 
L 716 0 
L 50 0 
L 1831 4666 
z
" transform="scale(0.015625)"/>
      </defs>
      <use xlink:href="#DejaVuSans-58"/>
      <use xlink:href="#DejaVuSans-3a" x="68.505859"/>
      <use xlink:href="#DejaVuSans-41" x="102.197266"/>
     </g>
    </g>
   </g>
   <g id="line2d_18">
    <path d="M 139.129545 615.310909 
L 146.141575 613.033584 
L 153.153604 610.778221 
L 160.165634 608.544862 
L 167.177663 606.333365 
L 174.189692 604.14354 
L 181.201722 601.975193 
L 188.213751 599.828124 
L 195.225781 597.702135 
L 202.23781 595.597027 
L 209.249839 593.512601 
L 216.261869 591.44866 
L 223.273898 589.405005 
L 230.285927 587.381436 
L 237.297957 585.377757 
L 244.309986 583.393776 
L 251.322016 581.429302 
L 258.334045 579.484144 
L 265.346074 577.558115 
L 272.358104 575.651026 
L 279.370133 573.762694 
L 286.382163 571.892933 
L 293.394192 570.041563 
L 300.406221 568.208403 
L 307.418251 566.393274 
L 314.43028 564.595999 
L 321.442309 562.816403 
L 328.454339 561.054312 
L 335.466368 559.309557 
L 342.478398 557.581966 
L 349.490427 555.871372 
L 356.502456 554.177607 
L 363.514486 552.500507 
L 370.526515 550.839907 
L 377.538545 549.195646 
L 384.550574 547.567562 
L 391.562603 545.955497 
L 398.574633 544.359293 
L 405.586662 542.778793 
L 412.598691 541.213844 
L 419.610721 539.664291 
L 426.62275 538.129985 
L 433.63478 536.610777 
L 440.646809 535.106518 
L 447.658838 533.617061 
L 454.670868 532.142261 
L 461.682897 530.681975 
L 468.694927 529.236059 
L 475.706956 527.804373 
L 482.718985 526.386775 
L 489.731015 524.983127 
L 496.743044 523.593291 
L 503.755073 522.217132 
L 510.767103 520.854514 
L 517.779132 519.505303 
L 524.791162 518.169369 
L 531.803191 516.84658 
L 538.81522 515.536809 
L 545.82725 514.239929 
L 552.839279 512.955811 
L 559.851309 511.684332 
L 566.863338 510.425366 
L 573.875367 509.17879 
L 580.887397 507.944484 
L 587.899426 506.722324 
L 594.911455 505.512192 
L 601.923485 504.313969 
L 608.935514 503.127536 
L 615.947544 501.952778 
L 622.959573 500.789581 
L 629.971602 499.637831 
L 636.983632 498.497417 
L 643.995661 497.368227 
L 651.007691 496.25015 
L 658.01972 495.143079 
L 665.031749 494.046903 
L 672.043779 492.961517 
L 679.055808 491.886812 
L 686.067837 490.822685 
L 693.079867 489.76903 
L 700.091896 488.725744 
L 707.103926 487.692724 
L 714.115955 486.66987 
L 721.127984 485.657082 
L 728.140014 484.654263 
L 735.152043 483.661314 
L 742.164073 482.678139 
L 749.176102 481.704641 
L 756.188131 480.740724 
L 763.200161 479.786296 
L 770.21219 478.841262 
L 777.224219 477.905529 
L 784.236249 476.979005 
L 791.248278 476.061599 
L 798.260308 475.153221 
L 805.272337 474.253783 
L 812.284366 473.363197 
L 819.296396 472.481377 
L 826.308425 471.608236 
L 833.320455 470.743689 
" clip-path="url(#p717cfecda9)" style="fill: none; stroke: #d0e1f2; stroke-width: 1.5; stroke-linecap: square"/>
   </g>
   <g id="line2d_19">
    <path d="M 139.129545 119.790519 
L 146.141575 120.707859 
L 153.153604 121.41883 
L 160.165634 121.970863 
L 167.177663 122.415765 
L 174.189692 122.830381 
L 181.201722 123.185676 
L 188.213751 123.452673 
L 195.225781 123.617521 
L 202.23781 123.681497 
L 209.249839 123.661003 
L 216.261869 123.587567 
L 223.273898 123.507844 
L 230.285927 123.483615 
L 237.297957 123.565796 
L 244.309986 123.665946 
L 251.322016 123.75492 
L 258.334045 123.823151 
L 265.346074 123.865189 
L 272.358104 123.879698 
L 279.370133 123.869463 
L 286.382163 123.841381 
L 293.394192 123.806467 
L 300.406221 123.779853 
L 307.418251 123.780787 
L 314.43028 123.817544 
L 321.442309 123.869322 
L 328.454339 123.923589 
L 335.466368 123.970528 
L 342.478398 124.002894 
L 349.490427 124.016013 
L 356.502456 124.007783 
L 363.514486 123.978674 
L 370.526515 123.931727 
L 377.538545 123.872557 
L 384.550574 123.809347 
L 391.562603 123.752856 
L 398.574633 123.716411 
L 405.586662 123.715914 
L 412.598691 123.767966 
L 419.610721 123.863308 
L 426.62275 123.975868 
L 433.63478 124.083833 
L 440.646809 124.170067 
L 447.658838 124.222115 
L 454.670868 124.232195 
L 461.682897 124.197207 
L 468.694927 124.118727 
L 475.706956 124.003009 
L 482.718985 123.860983 
L 489.731015 123.708261 
L 496.743044 123.565128 
L 503.755073 123.45655 
L 510.767103 123.412171 
L 517.779132 123.466051 
L 524.791162 123.600664 
L 531.803191 123.759509 
L 538.81522 123.910664 
L 545.82725 124.02991 
L 552.839279 124.10074 
L 559.851309 124.114353 
L 566.863338 124.069656 
L 573.875367 123.973262 
L 580.887397 123.839494 
L 587.899426 123.690382 
L 594.911455 123.555661 
L 601.923485 123.472778 
L 608.935514 123.486885 
L 615.947544 123.600095 
L 622.959573 123.741439 
L 629.971602 123.880538 
L 636.983632 123.994354 
L 643.995661 124.066783 
L 651.007691 124.088654 
L 658.01972 124.05773 
L 665.031749 123.97871 
L 672.043779 123.863223 
L 679.055808 123.729836 
L 686.067837 123.604049 
L 693.079867 123.518293 
L 700.091896 123.511938 
L 707.103926 123.607799 
L 714.115955 123.749595 
L 721.127984 123.900584 
L 728.140014 124.033348 
L 735.152043 124.127615 
L 742.164073 124.170257 
L 749.176102 124.155294 
L 756.188131 124.083892 
L 763.200161 123.964361 
L 770.21219 123.812157 
L 777.224219 123.649884 
L 784.236249 123.50729 
L 791.248278 123.421269 
L 798.260308 123.435861 
L 805.272337 123.529663 
L 812.284366 123.604616 
L 819.296396 123.662559 
L 826.308425 123.707193 
L 833.320455 123.742194 
" clip-path="url(#p717cfecda9)" style="fill: none; stroke: #fdd9b4; stroke-width: 1.5; stroke-linecap: square"/>
   </g>
   <g id="line2d_20">
    <path d="M 139.129545 615.310909 
L 146.141575 613.253847 
L 153.153604 611.098831 
L 160.165634 608.883968 
L 167.177663 606.63725 
L 174.189692 604.372663 
L 181.201722 602.103389 
L 188.213751 599.840173 
L 195.225781 597.583813 
L 202.23781 595.33562 
L 209.249839 593.099798 
L 216.261869 590.88176 
L 223.273898 588.679743 
L 230.285927 586.49154 
L 237.297957 584.316538 
L 244.309986 582.155589 
L 251.322016 580.011017 
L 258.334045 577.886213 
L 265.346074 575.780294 
L 272.358104 573.689502 
L 279.370133 571.611338 
L 286.382163 569.544659 
L 293.394192 567.489678 
L 300.406221 565.447968 
L 307.418251 563.422457 
L 314.43028 561.41743 
L 321.442309 559.437489 
L 328.454339 557.477627 
L 335.466368 555.529499 
L 342.478398 553.588293 
L 349.490427 551.652788 
L 356.502456 549.725359 
L 363.514486 547.811971 
L 370.526515 545.922184 
L 377.538545 544.06876 
L 384.550574 542.249546 
L 391.562603 540.444547 
L 398.574633 538.640409 
L 405.586662 536.831966 
L 412.598691 535.022245 
L 419.610721 533.222461 
L 426.62275 531.452022 
L 433.63478 529.737568 
L 440.646809 528.06658 
L 447.658838 526.411684 
L 454.670868 524.764085 
L 461.682897 523.123487 
L 468.694927 521.498091 
L 475.706956 519.904594 
L 482.718985 518.361064 
L 489.731015 516.851599 
L 496.743044 515.365509 
L 503.755073 513.899523 
L 510.767103 512.456127 
L 517.779132 511.043569 
L 524.791162 509.675853 
L 531.803191 508.360957 
L 538.81522 507.085334 
L 545.82725 505.838951 
L 552.839279 504.618018 
L 559.851309 503.424992 
L 566.863338 502.268572 
L 573.875367 501.163707 
L 580.887397 500.122026 
L 587.899426 499.126416 
L 594.911455 498.164448 
L 601.923485 497.230028 
L 608.935514 496.323078 
L 615.947544 495.449535 
L 622.959573 494.621354 
L 629.971602 493.852098 
L 636.983632 493.127226 
L 643.995661 492.434513 
L 651.007691 491.767998 
L 658.01972 491.126051 
L 665.031749 490.511367 
L 672.043779 489.930974 
L 679.055808 489.394663 
L 686.067837 488.894515 
L 693.079867 488.420391 
L 700.091896 487.967059 
L 707.103926 487.532219 
L 714.115955 487.116513 
L 721.127984 486.723517 
L 728.140014 486.359743 
L 735.152043 486.026315 
L 742.164073 485.713633 
L 749.176102 485.416267 
L 756.188131 485.130989 
L 763.200161 484.856763 
L 770.21219 484.594755 
L 777.224219 484.348325 
L 784.236249 484.123032 
L 791.248278 483.917749 
L 798.260308 483.724231 
L 805.272337 483.540164 
L 812.284366 483.364368 
L 819.296396 483.196799 
L 826.308425 483.038546 
L 833.320455 482.891835 
" clip-path="url(#p717cfecda9)" style="fill: none; stroke: #79b5d9; stroke-width: 1.5; stroke-linecap: square"/>
   </g>
   <g id="line2d_21">
    <path d="M 139.129545 119.790519 
L 146.141575 115.387504 
L 153.153604 112.56448 
L 160.165634 110.754809 
L 167.177663 109.566591 
L 174.189692 108.827356 
L 181.201722 108.359798 
L 188.213751 108.021883 
L 195.225781 107.809077 
L 202.23781 107.704274 
L 209.249839 107.652136 
L 216.261869 107.581878 
L 223.273898 107.516243 
L 230.285927 107.481136 
L 237.297957 107.482666 
L 244.309986 107.508904 
L 251.322016 107.52988 
L 258.334045 107.502784 
L 265.346074 107.437926 
L 272.358104 107.379718 
L 279.370133 107.357368 
L 286.382163 107.383811 
L 293.394192 107.455711 
L 300.406221 107.553461 
L 307.418251 107.641182 
L 314.43028 107.666723 
L 321.442309 107.575507 
L 328.454339 107.430055 
L 335.466368 107.330964 
L 342.478398 107.336881 
L 349.490427 107.463849 
L 356.502456 107.685304 
L 363.514486 107.932076 
L 370.526515 108.092386 
L 377.538545 108.018813 
L 384.550574 107.752095 
L 391.562603 107.533045 
L 398.574633 107.522936 
L 405.586662 107.787545 
L 412.598691 108.297152 
L 419.610721 108.926541 
L 426.62275 109.454999 
L 433.63478 109.577624 
L 440.646809 109.457951 
L 447.658838 109.445625 
L 454.670868 109.665884 
L 461.682897 110.136102 
L 468.694927 110.765789 
L 475.706956 111.356594 
L 482.718985 111.694222 
L 489.731015 112.005106 
L 496.743044 112.448347 
L 503.755073 113.084689 
L 510.767103 113.897775 
L 517.779132 114.794146 
L 524.791162 115.603288 
L 531.803191 116.233815 
L 538.81522 116.884336 
L 545.82725 117.704317 
L 552.839279 118.754005 
L 559.851309 120.00443 
L 566.863338 121.337402 
L 573.875367 122.545511 
L 580.887397 123.463246 
L 587.899426 124.331822 
L 594.911455 125.332752 
L 601.923485 126.549024 
L 608.935514 127.969184 
L 615.947544 129.487332 
L 622.959573 130.903126 
L 629.971602 131.988787 
L 636.983632 132.951452 
L 643.995661 133.972345 
L 651.007691 135.130084 
L 658.01972 136.429083 
L 665.031749 137.799555 
L 672.043779 139.097514 
L 679.055808 140.1311 
L 686.067837 141.011284 
L 693.079867 141.894575 
L 700.091896 142.852294 
L 707.103926 143.902623 
L 714.115955 145.010607 
L 721.127984 146.088155 
L 728.140014 146.994035 
L 735.152043 147.685199 
L 742.164073 148.320468 
L 749.176102 148.985088 
L 756.188131 149.722558 
L 763.200161 150.534642 
L 770.21219 151.381366 
L 777.224219 152.181016 
L 784.236249 152.810144 
L 791.248278 153.275312 
L 798.260308 153.724845 
L 805.272337 154.193508 
L 812.284366 154.693067 
L 819.296396 155.212297 
L 826.308425 155.716981 
L 833.320455 156.149906 
" clip-path="url(#p717cfecda9)" style="fill: none; stroke: #fd9649; stroke-width: 1.5; stroke-linecap: square"/>
   </g>
   <g id="line2d_22">
    <path d="M 139.129545 615.310909 
L 146.141575 612.996332 
L 153.153604 610.706138 
L 160.165634 608.440064 
L 167.177663 606.197848 
L 174.189692 603.979223 
L 181.201722 601.783936 
L 188.213751 599.611737 
L 195.225781 597.462378 
L 202.23781 595.335613 
L 209.249839 593.231199 
L 216.261869 591.148893 
L 223.273898 589.088455 
L 230.285927 587.049648 
L 237.297957 585.032234 
L 244.309986 583.03598 
L 251.322016 581.060652 
L 258.334045 579.106022 
L 265.346074 577.171859 
L 272.358104 575.257938 
L 279.370133 573.364033 
L 286.382163 571.489922 
L 293.394192 569.635385 
L 300.406221 567.800202 
L 307.418251 565.984155 
L 314.43028 564.187032 
L 321.442309 562.408617 
L 328.454339 560.6487 
L 335.466368 558.907072 
L 342.478398 557.183525 
L 349.490427 555.477854 
L 356.502456 553.789855 
L 363.514486 552.119327 
L 370.526515 550.466071 
L 377.538545 548.829888 
L 384.550574 547.210564 
L 391.562603 545.607808 
L 398.574633 544.021432 
L 405.586662 542.451264 
L 412.598691 540.897136 
L 419.610721 539.358877 
L 426.62275 537.836318 
L 433.63478 536.329292 
L 440.646809 534.837628 
L 447.658838 533.36116 
L 454.670868 531.89972 
L 461.682897 530.45314 
L 468.694927 529.021255 
L 475.706956 527.603898 
L 482.718985 526.200904 
L 489.731015 524.812106 
L 496.743044 523.43734 
L 503.755073 522.076441 
L 510.767103 520.729245 
L 517.779132 519.395589 
L 524.791162 518.075309 
L 531.803191 516.768241 
L 538.81522 515.474225 
L 545.82725 514.193097 
L 552.839279 512.924695 
L 559.851309 511.66886 
L 566.863338 510.425429 
L 573.875367 509.194242 
L 580.887397 507.97514 
L 587.899426 506.767962 
L 594.911455 505.57255 
L 601.923485 504.388745 
L 608.935514 503.216388 
L 615.947544 502.055321 
L 622.959573 500.905387 
L 629.971602 499.766429 
L 636.983632 498.638291 
L 643.995661 497.520814 
L 651.007691 496.413845 
L 658.01972 495.317228 
L 665.031749 494.230806 
L 672.043779 493.154427 
L 679.055808 492.087935 
L 686.067837 491.031177 
L 693.079867 489.983999 
L 700.091896 488.946249 
L 707.103926 487.917773 
L 714.115955 486.898421 
L 721.127984 485.888039 
L 728.140014 484.886477 
L 735.152043 483.893583 
L 742.164073 482.909208 
L 749.176102 481.933201 
L 756.188131 480.965413 
L 763.200161 480.005694 
L 770.21219 479.053895 
L 777.224219 478.109868 
L 784.236249 477.173466 
L 791.248278 476.24454 
L 798.260308 475.322943 
L 805.272337 474.408529 
L 812.284366 473.501151 
L 819.296396 472.600663 
L 826.308425 471.70692 
L 833.320455 470.819776 
" clip-path="url(#p717cfecda9)" style="fill: none; stroke: #2575b7; stroke-width: 1.5; stroke-linecap: square"/>
   </g>
   <g id="line2d_23">
    <path d="M 139.129545 119.790519 
L 146.141575 119.826436 
L 153.153604 119.863754 
L 160.165634 119.902527 
L 167.177663 119.94281 
L 174.189692 119.984671 
L 181.201722 120.028158 
L 188.213751 120.073321 
L 195.225781 120.120212 
L 202.23781 120.168888 
L 209.249839 120.219405 
L 216.261869 120.271824 
L 223.273898 120.32621 
L 230.285927 120.382629 
L 237.297957 120.441149 
L 244.309986 120.501843 
L 251.322016 120.564785 
L 258.334045 120.630053 
L 265.346074 120.697727 
L 272.358104 120.76789 
L 279.370133 120.840628 
L 286.382163 120.91603 
L 293.394192 120.994186 
L 300.406221 121.075192 
L 307.418251 121.159143 
L 314.43028 121.24614 
L 321.442309 121.336285 
L 328.454339 121.429683 
L 335.466368 121.526443 
L 342.478398 121.626675 
L 349.490427 121.730492 
L 356.502456 121.838012 
L 363.514486 121.949353 
L 370.526515 122.064637 
L 377.538545 122.183988 
L 384.550574 122.307521 
L 391.562603 122.435279 
L 398.574633 122.567363 
L 405.586662 122.703899 
L 412.598691 122.845023 
L 419.610721 122.990883 
L 426.62275 123.141637 
L 433.63478 123.297454 
L 440.646809 123.458516 
L 447.658838 123.625014 
L 454.670868 123.797152 
L 461.682897 123.975141 
L 468.694927 124.159209 
L 475.706956 124.349591 
L 482.718985 124.546534 
L 489.731015 124.750297 
L 496.743044 124.961148 
L 503.755073 125.179368 
L 510.767103 125.40525 
L 517.779132 125.639095 
L 524.791162 125.881217 
L 531.803191 126.131941 
L 538.81522 126.391603 
L 545.82725 126.66055 
L 552.839279 126.93914 
L 559.851309 127.227742 
L 566.863338 127.526736 
L 573.875367 127.836514 
L 580.887397 128.157479 
L 587.899426 128.490043 
L 594.911455 128.834632 
L 601.923485 129.19168 
L 608.935514 129.561636 
L 615.947544 129.944956 
L 622.959573 130.342109 
L 629.971602 130.753577 
L 636.983632 131.179849 
L 643.995661 131.621429 
L 651.007691 132.078829 
L 658.01972 132.552574 
L 665.031749 133.043199 
L 672.043779 133.551251 
L 679.055808 134.077288 
L 686.067837 134.621879 
L 693.079867 135.185602 
L 700.091896 135.76905 
L 707.103926 136.372824 
L 714.115955 136.997537 
L 721.127984 137.643814 
L 728.140014 138.31229 
L 735.152043 139.003612 
L 742.164073 139.718436 
L 749.176102 140.457431 
L 756.188131 141.221277 
L 763.200161 142.010665 
L 770.21219 142.826297 
L 777.224219 143.668885 
L 784.236249 144.539154 
L 791.248278 145.437839 
L 798.260308 146.365685 
L 805.272337 147.32345 
L 812.284366 148.311903 
L 819.296396 149.331822 
L 826.308425 150.384 
L 833.320455 151.469236 
" clip-path="url(#p717cfecda9)" style="fill: none; stroke: #dc4c03; stroke-width: 1.5; stroke-linecap: square"/>
   </g>
   <g id="line2d_24">
    <path d="M 139.129545 615.310909 
L 146.141575 612.921927 
L 153.153604 610.560967 
L 160.165634 608.227489 
L 167.177663 605.920957 
L 174.189692 603.640987 
L 181.201722 601.387243 
L 188.213751 599.15935 
L 195.225781 596.95693 
L 202.23781 594.779698 
L 209.249839 592.62737 
L 216.261869 590.499642 
L 223.273898 588.396193 
L 230.285927 586.316699 
L 237.297957 584.260895 
L 244.309986 582.228518 
L 251.322016 580.219298 
L 258.334045 578.232951 
L 265.346074 576.269185 
L 272.358104 574.327695 
L 279.370133 572.408175 
L 286.382163 570.510403 
L 293.394192 568.634169 
L 300.406221 566.779241 
L 307.418251 564.945364 
L 314.43028 563.132262 
L 321.442309 561.339636 
L 328.454339 559.567162 
L 335.466368 557.814562 
L 342.478398 556.08171 
L 349.490427 554.368416 
L 356.502456 552.674459 
L 363.514486 550.999587 
L 370.526515 549.343514 
L 377.538545 547.705938 
L 384.550574 546.086684 
L 391.562603 544.485586 
L 398.574633 542.902443 
L 405.586662 541.337036 
L 412.598691 539.789124 
L 419.610721 538.258449 
L 426.62275 536.74478 
L 433.63478 535.247968 
L 440.646809 533.767845 
L 447.658838 532.304224 
L 454.670868 530.8569 
L 461.682897 529.425648 
L 468.694927 528.010224 
L 475.706956 526.610392 
L 482.718985 525.226026 
L 489.731015 523.857003 
L 496.743044 522.503171 
L 503.755073 521.164349 
L 510.767103 519.840327 
L 517.779132 518.530867 
L 524.791162 517.235707 
L 531.803191 515.954706 
L 538.81522 514.687797 
L 545.82725 513.434866 
L 552.839279 512.19576 
L 559.851309 510.97029 
L 566.863338 509.758228 
L 573.875367 508.559311 
L 580.887397 507.373412 
L 587.899426 506.200481 
L 594.911455 505.040402 
L 601.923485 503.893029 
L 608.935514 502.758188 
L 615.947544 501.63567 
L 622.959573 500.525265 
L 629.971602 499.426902 
L 636.983632 498.340486 
L 643.995661 497.265892 
L 651.007691 496.202978 
L 658.01972 495.15158 
L 665.031749 494.111514 
L 672.043779 493.082632 
L 679.055808 492.064859 
L 686.067837 491.058096 
L 693.079867 490.062226 
L 700.091896 489.077117 
L 707.103926 488.102616 
L 714.115955 487.138556 
L 721.127984 486.184788 
L 728.140014 485.241248 
L 735.152043 484.307862 
L 742.164073 483.384532 
L 749.176102 482.471142 
L 756.188131 481.567551 
L 763.200161 480.6736 
L 770.21219 479.789113 
L 777.224219 478.914019 
L 784.236249 478.048281 
L 791.248278 477.191831 
L 798.260308 476.344572 
L 805.272337 475.506379 
L 812.284366 474.677099 
L 819.296396 473.85655 
L 826.308425 473.044675 
L 833.320455 472.241438 
" clip-path="url(#p717cfecda9)" style="fill: none; stroke: #08306b; stroke-width: 1.5; stroke-linecap: square"/>
   </g>
   <g id="line2d_25">
    <path d="M 139.129545 119.790519 
L 146.141575 112.641786 
L 153.153604 108.153919 
L 160.165634 105.451178 
L 167.177663 103.629372 
L 174.189692 102.4495 
L 181.201722 101.828981 
L 188.213751 101.515926 
L 195.225781 101.218393 
L 202.23781 101.022971 
L 209.249839 100.982273 
L 216.261869 101.070086 
L 223.273898 101.186002 
L 230.285927 101.208796 
L 237.297957 101.218787 
L 244.309986 101.303621 
L 251.322016 101.498878 
L 258.334045 101.789657 
L 265.346074 102.110582 
L 272.358104 102.345723 
L 279.370133 102.361389 
L 286.382163 102.314888 
L 293.394192 102.406105 
L 300.406221 102.739765 
L 307.418251 103.325435 
L 314.43028 104.077526 
L 321.442309 104.815287 
L 328.454339 105.262814 
L 335.466368 105.29859 
L 342.478398 105.346452 
L 349.490427 105.599922 
L 356.502456 106.114761 
L 363.514486 106.815091 
L 370.526515 107.493392 
L 377.538545 107.86283 
L 384.550574 108.118864 
L 391.562603 108.469756 
L 398.574633 108.987471 
L 405.586662 109.65787 
L 412.598691 110.380712 
L 419.610721 110.96975 
L 426.62275 111.34448 
L 433.63478 111.714404 
L 440.646809 112.217446 
L 447.658838 112.907207 
L 454.670868 113.752971 
L 461.682897 114.639698 
L 468.694927 115.368028 
L 475.706956 115.764174 
L 482.718985 116.065898 
L 489.731015 116.516551 
L 496.743044 117.236635 
L 503.755073 118.224814 
L 510.767103 119.35792 
L 517.779132 120.390947 
L 524.791162 120.976615 
L 531.803191 121.235675 
L 538.81522 121.572833 
L 545.82725 122.198376 
L 552.839279 123.16297 
L 559.851309 124.357654 
L 566.863338 125.513845 
L 573.875367 126.215088 
L 580.887397 126.577962 
L 587.899426 127.020486 
L 594.911455 127.698884 
L 601.923485 128.634198 
L 608.935514 129.712293 
L 615.947544 130.683854 
L 622.959573 131.282897 
L 629.971602 131.801381 
L 636.983632 132.42856 
L 643.995661 133.232557 
L 651.007691 134.189205 
L 658.01972 135.182055 
L 665.031749 136.002445 
L 672.043779 136.584842 
L 679.055808 137.16118 
L 686.067837 137.857957 
L 693.079867 138.721734 
L 700.091896 139.719132 
L 707.103926 140.736833 
L 714.115955 141.581582 
L 721.127984 142.131215 
L 728.140014 142.62487 
L 735.152043 143.248006 
L 742.164073 144.086777 
L 749.176102 145.128476 
L 756.188131 146.261532 
L 763.200161 147.275514 
L 770.21219 147.895203 
L 777.224219 148.275868 
L 784.236249 148.734989 
L 791.248278 149.440582 
L 798.260308 150.429246 
L 805.272337 151.606163 
L 812.284366 152.745097 
L 819.296396 153.494026 
L 826.308425 154.043147 
L 833.320455 154.668394 
" clip-path="url(#p717cfecda9)" style="fill: none; stroke: #7f2704; stroke-width: 1.5; stroke-linecap: square"/>
   </g>
   <g id="patch_3">
    <path d="M 104.42 643.48 
L 104.42 23.76 
" style="fill: none; stroke: #000000; stroke-width: 0.8; stroke-linejoin: miter; stroke-linecap: square"/>
   </g>
   <g id="patch_4">
    <path d="M 868.03 643.48 
L 868.03 23.76 
" style="fill: none; stroke: #000000; stroke-width: 0.8; stroke-linejoin: miter; stroke-linecap: square"/>
   </g>
   <g id="patch_5">
    <path d="M 104.42 643.48 
L 868.03 643.48 
" style="fill: none; stroke: #000000; stroke-width: 0.8; stroke-linejoin: miter; stroke-linecap: square"/>
   </g>
   <g id="patch_6">
    <path d="M 104.42 23.76 
L 868.03 23.76 
" style="fill: none; stroke: #000000; stroke-width: 0.8; stroke-linejoin: miter; stroke-linecap: square"/>
   </g>
   <g id="legend_1">
    <g id="patch_7">
     <path d="M 883.43 364.27875 
L 1051.836562 364.27875 
Q 1056.236562 364.27875 1056.236562 359.87875 
L 1056.236562 39.16 
Q 1056.236562 34.76 1051.836562 34.76 
L 883.43 34.76 
Q 879.03 34.76 879.03 39.16 
L 879.03 359.87875 
Q 879.03 364.27875 883.43 364.27875 
z
" style="fill: #ffffff; opacity: 0.8; stroke: #cccccc; stroke-linejoin: miter"/>
    </g>
    <g id="PathCollection_3">
     <g>
      <use xlink:href="#m80f1702e56" x="909.83" y="54.501562" style="fill: #1f77b4; stroke: #1f77b4"/>
     </g>
    </g>
    <g id="text_20">
     <!-- Xi -->
     <g transform="translate(949.43 60.276562) scale(0.22 -0.22)">
      <use xlink:href="#DejaVuSans-58"/>
      <use xlink:href="#DejaVuSans-69" x="68.505859"/>
     </g>
    </g>
    <g id="PathCollection_4">
     <g>
      <use xlink:href="#m62fcbac0dc" x="909.83" y="86.793437" style="fill: #ff7f0e; stroke: #ff7f0e"/>
     </g>
    </g>
    <g id="text_21">
     <!-- Xa -->
     <g transform="translate(949.43 92.568437) scale(0.22 -0.22)">
      <use xlink:href="#DejaVuSans-58"/>
      <use xlink:href="#DejaVuSans-61" x="68.505859"/>
     </g>
    </g>
    <g id="line2d_26">
     <path d="M 887.83 117.160312 
L 909.83 117.160312 
L 931.83 117.160312 
" style="fill: none; stroke: #d0e1f2; stroke-width: 1.5; stroke-linecap: square"/>
    </g>
    <g id="text_22">
     <!-- Xi-AAAA -->
     <g transform="translate(949.43 124.860312) scale(0.22 -0.22)">
      <defs>
       <path id="DejaVuSans-2d" d="M 313 2009 
L 1997 2009 
L 1997 1497 
L 313 1497 
L 313 2009 
z
" transform="scale(0.015625)"/>
      </defs>
      <use xlink:href="#DejaVuSans-58"/>
      <use xlink:href="#DejaVuSans-69" x="68.505859"/>
      <use xlink:href="#DejaVuSans-2d" x="96.289062"/>
      <use xlink:href="#DejaVuSans-41" x="130.123047"/>
      <use xlink:href="#DejaVuSans-41" x="201.28125"/>
      <use xlink:href="#DejaVuSans-41" x="272.439453"/>
      <use xlink:href="#DejaVuSans-41" x="343.597656"/>
     </g>
    </g>
    <g id="line2d_27">
     <path d="M 887.83 149.452187 
L 909.83 149.452187 
L 931.83 149.452187 
" style="fill: none; stroke: #fdd9b4; stroke-width: 1.5; stroke-linecap: square"/>
    </g>
    <g id="text_23">
     <!-- Xa-AAAA -->
     <g transform="translate(949.43 157.152187) scale(0.22 -0.22)">
      <use xlink:href="#DejaVuSans-58"/>
      <use xlink:href="#DejaVuSans-61" x="68.505859"/>
      <use xlink:href="#DejaVuSans-2d" x="129.785156"/>
      <use xlink:href="#DejaVuSans-41" x="163.619141"/>
      <use xlink:href="#DejaVuSans-41" x="234.777344"/>
      <use xlink:href="#DejaVuSans-41" x="305.935547"/>
      <use xlink:href="#DejaVuSans-41" x="377.09375"/>
     </g>
    </g>
    <g id="line2d_28">
     <path d="M 887.83 181.744062 
L 909.83 181.744062 
L 931.83 181.744062 
" style="fill: none; stroke: #79b5d9; stroke-width: 1.5; stroke-linecap: square"/>
    </g>
    <g id="text_24">
     <!-- Xi-AIAA -->
     <g transform="translate(949.43 189.444062) scale(0.22 -0.22)">
      <defs>
       <path id="DejaVuSans-49" d="M 628 4666 
L 1259 4666 
L 1259 0 
L 628 0 
L 628 4666 
z
" transform="scale(0.015625)"/>
      </defs>
      <use xlink:href="#DejaVuSans-58"/>
      <use xlink:href="#DejaVuSans-69" x="68.505859"/>
      <use xlink:href="#DejaVuSans-2d" x="96.289062"/>
      <use xlink:href="#DejaVuSans-41" x="130.123047"/>
      <use xlink:href="#DejaVuSans-49" x="198.53125"/>
      <use xlink:href="#DejaVuSans-41" x="228.023438"/>
      <use xlink:href="#DejaVuSans-41" x="299.181641"/>
     </g>
    </g>
    <g id="line2d_29">
     <path d="M 887.83 214.035937 
L 909.83 214.035937 
L 931.83 214.035937 
" style="fill: none; stroke: #fd9649; stroke-width: 1.5; stroke-linecap: square"/>
    </g>
    <g id="text_25">
     <!-- Xa-AIAA -->
     <g transform="translate(949.43 221.735937) scale(0.22 -0.22)">
      <use xlink:href="#DejaVuSans-58"/>
      <use xlink:href="#DejaVuSans-61" x="68.505859"/>
      <use xlink:href="#DejaVuSans-2d" x="129.785156"/>
      <use xlink:href="#DejaVuSans-41" x="163.619141"/>
      <use xlink:href="#DejaVuSans-49" x="232.027344"/>
      <use xlink:href="#DejaVuSans-41" x="261.519531"/>
      <use xlink:href="#DejaVuSans-41" x="332.677734"/>
     </g>
    </g>
    <g id="line2d_30">
     <path d="M 887.83 246.327812 
L 909.83 246.327812 
L 931.83 246.327812 
" style="fill: none; stroke: #2575b7; stroke-width: 1.5; stroke-linecap: square"/>
    </g>
    <g id="text_26">
     <!-- Xi-IAAA -->
     <g transform="translate(949.43 254.027812) scale(0.22 -0.22)">
      <use xlink:href="#DejaVuSans-58"/>
      <use xlink:href="#DejaVuSans-69" x="68.505859"/>
      <use xlink:href="#DejaVuSans-2d" x="96.289062"/>
      <use xlink:href="#DejaVuSans-49" x="132.373047"/>
      <use xlink:href="#DejaVuSans-41" x="161.865234"/>
      <use xlink:href="#DejaVuSans-41" x="233.023438"/>
      <use xlink:href="#DejaVuSans-41" x="304.181641"/>
     </g>
    </g>
    <g id="line2d_31">
     <path d="M 887.83 278.619687 
L 909.83 278.619687 
L 931.83 278.619687 
" style="fill: none; stroke: #dc4c03; stroke-width: 1.5; stroke-linecap: square"/>
    </g>
    <g id="text_27">
     <!-- Xa-IAAA -->
     <g transform="translate(949.43 286.319687) scale(0.22 -0.22)">
      <use xlink:href="#DejaVuSans-58"/>
      <use xlink:href="#DejaVuSans-61" x="68.505859"/>
      <use xlink:href="#DejaVuSans-2d" x="129.785156"/>
      <use xlink:href="#DejaVuSans-49" x="165.869141"/>
      <use xlink:href="#DejaVuSans-41" x="195.361328"/>
      <use xlink:href="#DejaVuSans-41" x="266.519531"/>
      <use xlink:href="#DejaVuSans-41" x="337.677734"/>
     </g>
    </g>
    <g id="line2d_32">
     <path d="M 887.83 310.911563 
L 909.83 310.911563 
L 931.83 310.911563 
" style="fill: none; stroke: #08306b; stroke-width: 1.5; stroke-linecap: square"/>
    </g>
    <g id="text_28">
     <!-- Xi-IIAA -->
     <g transform="translate(949.43 318.611562) scale(0.22 -0.22)">
      <use xlink:href="#DejaVuSans-58"/>
      <use xlink:href="#DejaVuSans-69" x="68.505859"/>
      <use xlink:href="#DejaVuSans-2d" x="96.289062"/>
      <use xlink:href="#DejaVuSans-49" x="132.373047"/>
      <use xlink:href="#DejaVuSans-49" x="161.865234"/>
      <use xlink:href="#DejaVuSans-41" x="191.357422"/>
      <use xlink:href="#DejaVuSans-41" x="262.515625"/>
     </g>
    </g>
    <g id="line2d_33">
     <path d="M 887.83 343.203438 
L 909.83 343.203438 
L 931.83 343.203438 
" style="fill: none; stroke: #7f2704; stroke-width: 1.5; stroke-linecap: square"/>
    </g>
    <g id="text_29">
     <!-- Xa-IIAA -->
     <g transform="translate(949.43 350.903437) scale(0.22 -0.22)">
      <use xlink:href="#DejaVuSans-58"/>
      <use xlink:href="#DejaVuSans-61" x="68.505859"/>
      <use xlink:href="#DejaVuSans-2d" x="129.785156"/>
      <use xlink:href="#DejaVuSans-49" x="165.869141"/>
      <use xlink:href="#DejaVuSans-49" x="195.361328"/>
      <use xlink:href="#DejaVuSans-41" x="224.853516"/>
      <use xlink:href="#DejaVuSans-41" x="296.011719"/>
     </g>
    </g>
   </g>
  </g>
 </g>
 <defs>
  <clipPath id="p717cfecda9">
   <rect x="104.42" y="23.76" width="763.61" height="619.72"/>
  </clipPath>
 </defs>
</svg>
