<?xml version="1.0" encoding="utf-8" standalone="no"?>
<!DOCTYPE svg PUBLIC "-//W3C//DTD SVG 1.1//EN"
  "http://www.w3.org/Graphics/SVG/1.1/DTD/svg11.dtd">
<svg xmlns:xlink="http://www.w3.org/1999/xlink" width="1080pt" height="720pt" viewBox="0 0 1080 720" xmlns="http://www.w3.org/2000/svg" version="1.1">
 <metadata>
  <rdf:RDF xmlns:dc="http://purl.org/dc/elements/1.1/" xmlns:cc="http://creativecommons.org/ns#" xmlns:rdf="http://www.w3.org/1999/02/22-rdf-syntax-ns#">
   <cc:Work>
    <dc:type rdf:resource="http://purl.org/dc/dcmitype/StillImage"/>
    <dc:date>2023-01-11T19:55:43.533135</dc:date>
    <dc:format>image/svg+xml</dc:format>
    <dc:creator>
     <cc:Agent>
      <dc:title>Matplotlib v3.6.2, https://matplotlib.org/</dc:title>
     </cc:Agent>
    </dc:creator>
   </cc:Work>
  </rdf:RDF>
 </metadata>
 <defs>
  <style type="text/css">*{stroke-linejoin: round; stroke-linecap: butt}</style>
 </defs>
 <g id="figure_1">
  <g id="patch_1">
   <path d="M 0 720 
L 1080 720 
L 1080 0 
L 0 0 
z
" style="fill: #ffffff"/>
  </g>
  <g id="axes_1">
   <g id="patch_2">
    <path d="M 104.42 643.48 
L 868.03 643.48 
L 868.03 23.76 
L 104.42 23.76 
z
" style="fill: #ffffff"/>
   </g>
   <g id="PathCollection_1">
    <defs>
     <path id="m80f1702e56" d="M 0 3 
C 0.795609 3 1.55874 2.683901 2.12132 2.12132 
C 2.683901 1.55874 3 0.795609 3 0 
C 3 -0.795609 2.683901 -1.55874 2.12132 -2.12132 
C 1.55874 -2.683901 0.795609 -3 0 -3 
C -0.795609 -3 -1.55874 -2.683901 -2.12132 -2.12132 
C -2.683901 -1.55874 -3 -0.795609 -3 0 
C -3 0.795609 -2.683901 1.55874 -2.12132 2.12132 
C -1.55874 2.683901 -0.795609 3 0 3 
z
" style="stroke: #1f77b4"/>
    </defs>
    <g clip-path="url(#p6fa6d501a4)">
     <use xlink:href="#m80f1702e56" x="139.129545" y="615.310909" style="fill: #1f77b4; stroke: #1f77b4"/>
     <use xlink:href="#m80f1702e56" x="225.903409" y="581.002683" style="fill: #1f77b4; stroke: #1f77b4"/>
     <use xlink:href="#m80f1702e56" x="312.677273" y="569.371903" style="fill: #1f77b4; stroke: #1f77b4"/>
     <use xlink:href="#m80f1702e56" x="399.451136" y="567.018417" style="fill: #1f77b4; stroke: #1f77b4"/>
     <use xlink:href="#m80f1702e56" x="486.225" y="522.988588" style="fill: #1f77b4; stroke: #1f77b4"/>
     <use xlink:href="#m80f1702e56" x="572.998864" y="478.95876" style="fill: #1f77b4; stroke: #1f77b4"/>
     <use xlink:href="#m80f1702e56" x="659.772727" y="242.420357" style="fill: #1f77b4; stroke: #1f77b4"/>
     <use xlink:href="#m80f1702e56" x="746.546591" y="242.420357" style="fill: #1f77b4; stroke: #1f77b4"/>
     <use xlink:href="#m80f1702e56" x="833.320455" y="242.420357" style="fill: #1f77b4; stroke: #1f77b4"/>
    </g>
   </g>
   <g id="PathCollection_2">
    <defs>
     <path id="m62fcbac0dc" d="M 0 3 
C 0.795609 3 1.55874 2.683901 2.12132 2.12132 
C 2.683901 1.55874 3 0.795609 3 0 
C 3 -0.795609 2.683901 -1.55874 2.12132 -2.12132 
C 1.55874 -2.683901 0.795609 -3 0 -3 
C -0.795609 -3 -1.55874 -2.683901 -2.12132 -2.12132 
C -2.683901 -1.55874 -3 -0.795609 -3 0 
C -3 0.795609 -2.683901 1.55874 -2.12132 2.12132 
C -1.55874 2.683901 -0.795609 3 0 3 
z
" style="stroke: #ff7f0e"/>
    </defs>
    <g clip-path="url(#p6fa6d501a4)">
     <use xlink:href="#m62fcbac0dc" x="139.129545" y="101.811376" style="fill: #ff7f0e; stroke: #ff7f0e"/>
     <use xlink:href="#m62fcbac0dc" x="225.903409" y="80.860695" style="fill: #ff7f0e; stroke: #ff7f0e"/>
     <use xlink:href="#m62fcbac0dc" x="312.677273" y="113.550867" style="fill: #ff7f0e; stroke: #ff7f0e"/>
     <use xlink:href="#m62fcbac0dc" x="399.451136" y="51.929091" style="fill: #ff7f0e; stroke: #ff7f0e"/>
     <use xlink:href="#m62fcbac0dc" x="486.225" y="90.127012" style="fill: #ff7f0e; stroke: #ff7f0e"/>
     <use xlink:href="#m62fcbac0dc" x="572.998864" y="128.324932" style="fill: #ff7f0e; stroke: #ff7f0e"/>
     <use xlink:href="#m62fcbac0dc" x="659.772727" y="271.164856" style="fill: #ff7f0e; stroke: #ff7f0e"/>
     <use xlink:href="#m62fcbac0dc" x="746.546591" y="271.164856" style="fill: #ff7f0e; stroke: #ff7f0e"/>
     <use xlink:href="#m62fcbac0dc" x="833.320455" y="271.164856" style="fill: #ff7f0e; stroke: #ff7f0e"/>
    </g>
   </g>
   <g id="matplotlib.axis_1">
    <g id="xtick_1">
     <g id="line2d_1">
      <defs>
       <path id="m3385fdae1e" d="M 0 0 
L 0 3.5 
" style="stroke: #000000; stroke-width: 0.8"/>
      </defs>
      <g>
       <use xlink:href="#m3385fdae1e" x="139.129545" y="643.48" style="stroke: #000000; stroke-width: 0.8"/>
      </g>
     </g>
     <g id="text_1">
      <!-- 7 -->
      <g transform="translate(132.130795 667.196563) scale(0.22 -0.22)">
       <defs>
        <path id="DejaVuSans-37" d="M 525 4666 
L 3525 4666 
L 3525 4397 
L 1831 0 
L 1172 0 
L 2766 4134 
L 525 4134 
L 525 4666 
z
" transform="scale(0.015625)"/>
       </defs>
       <use xlink:href="#DejaVuSans-37"/>
      </g>
     </g>
    </g>
    <g id="xtick_2">
     <g id="line2d_2">
      <g>
       <use xlink:href="#m3385fdae1e" x="225.903409" y="643.48" style="stroke: #000000; stroke-width: 0.8"/>
      </g>
     </g>
     <g id="text_2">
      <!-- 8 -->
      <g transform="translate(218.904659 667.196563) scale(0.22 -0.22)">
       <defs>
        <path id="DejaVuSans-38" d="M 2034 2216 
Q 1584 2216 1326 1975 
Q 1069 1734 1069 1313 
Q 1069 891 1326 650 
Q 1584 409 2034 409 
Q 2484 409 2743 651 
Q 3003 894 3003 1313 
Q 3003 1734 2745 1975 
Q 2488 2216 2034 2216 
z
M 1403 2484 
Q 997 2584 770 2862 
Q 544 3141 544 3541 
Q 544 4100 942 4425 
Q 1341 4750 2034 4750 
Q 2731 4750 3128 4425 
Q 3525 4100 3525 3541 
Q 3525 3141 3298 2862 
Q 3072 2584 2669 2484 
Q 3125 2378 3379 2068 
Q 3634 1759 3634 1313 
Q 3634 634 3220 271 
Q 2806 -91 2034 -91 
Q 1263 -91 848 271 
Q 434 634 434 1313 
Q 434 1759 690 2068 
Q 947 2378 1403 2484 
z
M 1172 3481 
Q 1172 3119 1398 2916 
Q 1625 2713 2034 2713 
Q 2441 2713 2670 2916 
Q 2900 3119 2900 3481 
Q 2900 3844 2670 4047 
Q 2441 4250 2034 4250 
Q 1625 4250 1398 4047 
Q 1172 3844 1172 3481 
z
" transform="scale(0.015625)"/>
       </defs>
       <use xlink:href="#DejaVuSans-38"/>
      </g>
     </g>
    </g>
    <g id="xtick_3">
     <g id="line2d_3">
      <g>
       <use xlink:href="#m3385fdae1e" x="312.677273" y="643.48" style="stroke: #000000; stroke-width: 0.8"/>
      </g>
     </g>
     <g id="text_3">
      <!-- 9 -->
      <g transform="translate(305.678523 667.196563) scale(0.22 -0.22)">
       <defs>
        <path id="DejaVuSans-39" d="M 703 97 
L 703 672 
Q 941 559 1184 500 
Q 1428 441 1663 441 
Q 2288 441 2617 861 
Q 2947 1281 2994 2138 
Q 2813 1869 2534 1725 
Q 2256 1581 1919 1581 
Q 1219 1581 811 2004 
Q 403 2428 403 3163 
Q 403 3881 828 4315 
Q 1253 4750 1959 4750 
Q 2769 4750 3195 4129 
Q 3622 3509 3622 2328 
Q 3622 1225 3098 567 
Q 2575 -91 1691 -91 
Q 1453 -91 1209 -44 
Q 966 3 703 97 
z
M 1959 2075 
Q 2384 2075 2632 2365 
Q 2881 2656 2881 3163 
Q 2881 3666 2632 3958 
Q 2384 4250 1959 4250 
Q 1534 4250 1286 3958 
Q 1038 3666 1038 3163 
Q 1038 2656 1286 2365 
Q 1534 2075 1959 2075 
z
" transform="scale(0.015625)"/>
       </defs>
       <use xlink:href="#DejaVuSans-39"/>
      </g>
     </g>
    </g>
    <g id="xtick_4">
     <g id="line2d_4">
      <g>
       <use xlink:href="#m3385fdae1e" x="399.451136" y="643.48" style="stroke: #000000; stroke-width: 0.8"/>
      </g>
     </g>
     <g id="text_4">
      <!-- 10 -->
      <g transform="translate(385.453636 667.196563) scale(0.22 -0.22)">
       <defs>
        <path id="DejaVuSans-31" d="M 794 531 
L 1825 531 
L 1825 4091 
L 703 3866 
L 703 4441 
L 1819 4666 
L 2450 4666 
L 2450 531 
L 3481 531 
L 3481 0 
L 794 0 
L 794 531 
z
" transform="scale(0.015625)"/>
        <path id="DejaVuSans-30" d="M 2034 4250 
Q 1547 4250 1301 3770 
Q 1056 3291 1056 2328 
Q 1056 1369 1301 889 
Q 1547 409 2034 409 
Q 2525 409 2770 889 
Q 3016 1369 3016 2328 
Q 3016 3291 2770 3770 
Q 2525 4250 2034 4250 
z
M 2034 4750 
Q 2819 4750 3233 4129 
Q 3647 3509 3647 2328 
Q 3647 1150 3233 529 
Q 2819 -91 2034 -91 
Q 1250 -91 836 529 
Q 422 1150 422 2328 
Q 422 3509 836 4129 
Q 1250 4750 2034 4750 
z
" transform="scale(0.015625)"/>
       </defs>
       <use xlink:href="#DejaVuSans-31"/>
       <use xlink:href="#DejaVuSans-30" x="63.623047"/>
      </g>
     </g>
    </g>
    <g id="xtick_5">
     <g id="line2d_5">
      <g>
       <use xlink:href="#m3385fdae1e" x="486.225" y="643.48" style="stroke: #000000; stroke-width: 0.8"/>
      </g>
     </g>
     <g id="text_5">
      <!-- 11 -->
      <g transform="translate(472.2275 667.196563) scale(0.22 -0.22)">
       <use xlink:href="#DejaVuSans-31"/>
       <use xlink:href="#DejaVuSans-31" x="63.623047"/>
      </g>
     </g>
    </g>
    <g id="xtick_6">
     <g id="line2d_6">
      <g>
       <use xlink:href="#m3385fdae1e" x="572.998864" y="643.48" style="stroke: #000000; stroke-width: 0.8"/>
      </g>
     </g>
     <g id="text_6">
      <!-- 12 -->
      <g transform="translate(559.001364 667.196563) scale(0.22 -0.22)">
       <defs>
        <path id="DejaVuSans-32" d="M 1228 531 
L 3431 531 
L 3431 0 
L 469 0 
L 469 531 
Q 828 903 1448 1529 
Q 2069 2156 2228 2338 
Q 2531 2678 2651 2914 
Q 2772 3150 2772 3378 
Q 2772 3750 2511 3984 
Q 2250 4219 1831 4219 
Q 1534 4219 1204 4116 
Q 875 4013 500 3803 
L 500 4441 
Q 881 4594 1212 4672 
Q 1544 4750 1819 4750 
Q 2544 4750 2975 4387 
Q 3406 4025 3406 3419 
Q 3406 3131 3298 2873 
Q 3191 2616 2906 2266 
Q 2828 2175 2409 1742 
Q 1991 1309 1228 531 
z
" transform="scale(0.015625)"/>
       </defs>
       <use xlink:href="#DejaVuSans-31"/>
       <use xlink:href="#DejaVuSans-32" x="63.623047"/>
      </g>
     </g>
    </g>
    <g id="xtick_7">
     <g id="line2d_7">
      <g>
       <use xlink:href="#m3385fdae1e" x="659.772727" y="643.48" style="stroke: #000000; stroke-width: 0.8"/>
      </g>
     </g>
     <g id="text_7">
      <!-- 13 -->
      <g transform="translate(645.775227 667.196563) scale(0.22 -0.22)">
       <defs>
        <path id="DejaVuSans-33" d="M 2597 2516 
Q 3050 2419 3304 2112 
Q 3559 1806 3559 1356 
Q 3559 666 3084 287 
Q 2609 -91 1734 -91 
Q 1441 -91 1130 -33 
Q 819 25 488 141 
L 488 750 
Q 750 597 1062 519 
Q 1375 441 1716 441 
Q 2309 441 2620 675 
Q 2931 909 2931 1356 
Q 2931 1769 2642 2001 
Q 2353 2234 1838 2234 
L 1294 2234 
L 1294 2753 
L 1863 2753 
Q 2328 2753 2575 2939 
Q 2822 3125 2822 3475 
Q 2822 3834 2567 4026 
Q 2313 4219 1838 4219 
Q 1578 4219 1281 4162 
Q 984 4106 628 3988 
L 628 4550 
Q 988 4650 1302 4700 
Q 1616 4750 1894 4750 
Q 2613 4750 3031 4423 
Q 3450 4097 3450 3541 
Q 3450 3153 3228 2886 
Q 3006 2619 2597 2516 
z
" transform="scale(0.015625)"/>
       </defs>
       <use xlink:href="#DejaVuSans-31"/>
       <use xlink:href="#DejaVuSans-33" x="63.623047"/>
      </g>
     </g>
    </g>
    <g id="xtick_8">
     <g id="line2d_8">
      <g>
       <use xlink:href="#m3385fdae1e" x="746.546591" y="643.48" style="stroke: #000000; stroke-width: 0.8"/>
      </g>
     </g>
     <g id="text_8">
      <!-- 14 -->
      <g transform="translate(732.549091 667.196563) scale(0.22 -0.22)">
       <defs>
        <path id="DejaVuSans-34" d="M 2419 4116 
L 825 1625 
L 2419 1625 
L 2419 4116 
z
M 2253 4666 
L 3047 4666 
L 3047 1625 
L 3713 1625 
L 3713 1100 
L 3047 1100 
L 3047 0 
L 2419 0 
L 2419 1100 
L 313 1100 
L 313 1709 
L 2253 4666 
z
" transform="scale(0.015625)"/>
       </defs>
       <use xlink:href="#DejaVuSans-31"/>
       <use xlink:href="#DejaVuSans-34" x="63.623047"/>
      </g>
     </g>
    </g>
    <g id="xtick_9">
     <g id="line2d_9">
      <g>
       <use xlink:href="#m3385fdae1e" x="833.320455" y="643.48" style="stroke: #000000; stroke-width: 0.8"/>
      </g>
     </g>
     <g id="text_9">
      <!-- 15 -->
      <g transform="translate(819.322955 667.196563) scale(0.22 -0.22)">
       <defs>
        <path id="DejaVuSans-35" d="M 691 4666 
L 3169 4666 
L 3169 4134 
L 1269 4134 
L 1269 2991 
Q 1406 3038 1543 3061 
Q 1681 3084 1819 3084 
Q 2600 3084 3056 2656 
Q 3513 2228 3513 1497 
Q 3513 744 3044 326 
Q 2575 -91 1722 -91 
Q 1428 -91 1123 -41 
Q 819 9 494 109 
L 494 744 
Q 775 591 1075 516 
Q 1375 441 1709 441 
Q 2250 441 2565 725 
Q 2881 1009 2881 1497 
Q 2881 1984 2565 2268 
Q 2250 2553 1709 2553 
Q 1456 2553 1204 2497 
Q 953 2441 691 2322 
L 691 4666 
z
" transform="scale(0.015625)"/>
       </defs>
       <use xlink:href="#DejaVuSans-31"/>
       <use xlink:href="#DejaVuSans-35" x="63.623047"/>
      </g>
     </g>
    </g>
    <g id="text_10">
     <!-- Time (days) -->
     <g transform="translate(421.266562 692.488438) scale(0.22 -0.22)">
      <defs>
       <path id="DejaVuSans-54" d="M -19 4666 
L 3928 4666 
L 3928 4134 
L 2272 4134 
L 2272 0 
L 1638 0 
L 1638 4134 
L -19 4134 
L -19 4666 
z
" transform="scale(0.015625)"/>
       <path id="DejaVuSans-69" d="M 603 3500 
L 1178 3500 
L 1178 0 
L 603 0 
L 603 3500 
z
M 603 4863 
L 1178 4863 
L 1178 4134 
L 603 4134 
L 603 4863 
z
" transform="scale(0.015625)"/>
       <path id="DejaVuSans-6d" d="M 3328 2828 
Q 3544 3216 3844 3400 
Q 4144 3584 4550 3584 
Q 5097 3584 5394 3201 
Q 5691 2819 5691 2113 
L 5691 0 
L 5113 0 
L 5113 2094 
Q 5113 2597 4934 2840 
Q 4756 3084 4391 3084 
Q 3944 3084 3684 2787 
Q 3425 2491 3425 1978 
L 3425 0 
L 2847 0 
L 2847 2094 
Q 2847 2600 2669 2842 
Q 2491 3084 2119 3084 
Q 1678 3084 1418 2786 
Q 1159 2488 1159 1978 
L 1159 0 
L 581 0 
L 581 3500 
L 1159 3500 
L 1159 2956 
Q 1356 3278 1631 3431 
Q 1906 3584 2284 3584 
Q 2666 3584 2933 3390 
Q 3200 3197 3328 2828 
z
" transform="scale(0.015625)"/>
       <path id="DejaVuSans-65" d="M 3597 1894 
L 3597 1613 
L 953 1613 
Q 991 1019 1311 708 
Q 1631 397 2203 397 
Q 2534 397 2845 478 
Q 3156 559 3463 722 
L 3463 178 
Q 3153 47 2828 -22 
Q 2503 -91 2169 -91 
Q 1331 -91 842 396 
Q 353 884 353 1716 
Q 353 2575 817 3079 
Q 1281 3584 2069 3584 
Q 2775 3584 3186 3129 
Q 3597 2675 3597 1894 
z
M 3022 2063 
Q 3016 2534 2758 2815 
Q 2500 3097 2075 3097 
Q 1594 3097 1305 2825 
Q 1016 2553 972 2059 
L 3022 2063 
z
" transform="scale(0.015625)"/>
       <path id="DejaVuSans-20" transform="scale(0.015625)"/>
       <path id="DejaVuSans-28" d="M 1984 4856 
Q 1566 4138 1362 3434 
Q 1159 2731 1159 2009 
Q 1159 1288 1364 580 
Q 1569 -128 1984 -844 
L 1484 -844 
Q 1016 -109 783 600 
Q 550 1309 550 2009 
Q 550 2706 781 3412 
Q 1013 4119 1484 4856 
L 1984 4856 
z
" transform="scale(0.015625)"/>
       <path id="DejaVuSans-64" d="M 2906 2969 
L 2906 4863 
L 3481 4863 
L 3481 0 
L 2906 0 
L 2906 525 
Q 2725 213 2448 61 
Q 2172 -91 1784 -91 
Q 1150 -91 751 415 
Q 353 922 353 1747 
Q 353 2572 751 3078 
Q 1150 3584 1784 3584 
Q 2172 3584 2448 3432 
Q 2725 3281 2906 2969 
z
M 947 1747 
Q 947 1113 1208 752 
Q 1469 391 1925 391 
Q 2381 391 2643 752 
Q 2906 1113 2906 1747 
Q 2906 2381 2643 2742 
Q 2381 3103 1925 3103 
Q 1469 3103 1208 2742 
Q 947 2381 947 1747 
z
" transform="scale(0.015625)"/>
       <path id="DejaVuSans-61" d="M 2194 1759 
Q 1497 1759 1228 1600 
Q 959 1441 959 1056 
Q 959 750 1161 570 
Q 1363 391 1709 391 
Q 2188 391 2477 730 
Q 2766 1069 2766 1631 
L 2766 1759 
L 2194 1759 
z
M 3341 1997 
L 3341 0 
L 2766 0 
L 2766 531 
Q 2569 213 2275 61 
Q 1981 -91 1556 -91 
Q 1019 -91 701 211 
Q 384 513 384 1019 
Q 384 1609 779 1909 
Q 1175 2209 1959 2209 
L 2766 2209 
L 2766 2266 
Q 2766 2663 2505 2880 
Q 2244 3097 1772 3097 
Q 1472 3097 1187 3025 
Q 903 2953 641 2809 
L 641 3341 
Q 956 3463 1253 3523 
Q 1550 3584 1831 3584 
Q 2591 3584 2966 3190 
Q 3341 2797 3341 1997 
z
" transform="scale(0.015625)"/>
       <path id="DejaVuSans-79" d="M 2059 -325 
Q 1816 -950 1584 -1140 
Q 1353 -1331 966 -1331 
L 506 -1331 
L 506 -850 
L 844 -850 
Q 1081 -850 1212 -737 
Q 1344 -625 1503 -206 
L 1606 56 
L 191 3500 
L 800 3500 
L 1894 763 
L 2988 3500 
L 3597 3500 
L 2059 -325 
z
" transform="scale(0.015625)"/>
       <path id="DejaVuSans-73" d="M 2834 3397 
L 2834 2853 
Q 2591 2978 2328 3040 
Q 2066 3103 1784 3103 
Q 1356 3103 1142 2972 
Q 928 2841 928 2578 
Q 928 2378 1081 2264 
Q 1234 2150 1697 2047 
L 1894 2003 
Q 2506 1872 2764 1633 
Q 3022 1394 3022 966 
Q 3022 478 2636 193 
Q 2250 -91 1575 -91 
Q 1294 -91 989 -36 
Q 684 19 347 128 
L 347 722 
Q 666 556 975 473 
Q 1284 391 1588 391 
Q 1994 391 2212 530 
Q 2431 669 2431 922 
Q 2431 1156 2273 1281 
Q 2116 1406 1581 1522 
L 1381 1569 
Q 847 1681 609 1914 
Q 372 2147 372 2553 
Q 372 3047 722 3315 
Q 1072 3584 1716 3584 
Q 2034 3584 2315 3537 
Q 2597 3491 2834 3397 
z
" transform="scale(0.015625)"/>
       <path id="DejaVuSans-29" d="M 513 4856 
L 1013 4856 
Q 1481 4119 1714 3412 
Q 1947 2706 1947 2009 
Q 1947 1309 1714 600 
Q 1481 -109 1013 -844 
L 513 -844 
Q 928 -128 1133 580 
Q 1338 1288 1338 2009 
Q 1338 2731 1133 3434 
Q 928 4138 513 4856 
z
" transform="scale(0.015625)"/>
      </defs>
      <use xlink:href="#DejaVuSans-54"/>
      <use xlink:href="#DejaVuSans-69" x="57.958984"/>
      <use xlink:href="#DejaVuSans-6d" x="85.742188"/>
      <use xlink:href="#DejaVuSans-65" x="183.154297"/>
      <use xlink:href="#DejaVuSans-20" x="244.677734"/>
      <use xlink:href="#DejaVuSans-28" x="276.464844"/>
      <use xlink:href="#DejaVuSans-64" x="315.478516"/>
      <use xlink:href="#DejaVuSans-61" x="378.955078"/>
      <use xlink:href="#DejaVuSans-79" x="440.234375"/>
      <use xlink:href="#DejaVuSans-73" x="499.414062"/>
      <use xlink:href="#DejaVuSans-29" x="551.513672"/>
     </g>
    </g>
   </g>
   <g id="matplotlib.axis_2">
    <g id="ytick_1">
     <g id="line2d_10">
      <defs>
       <path id="ma600d9e374" d="M 0 0 
L -3.5 0 
" style="stroke: #000000; stroke-width: 0.8"/>
      </defs>
      <g>
       <use xlink:href="#ma600d9e374" x="104.42" y="615.655789" style="stroke: #000000; stroke-width: 0.8"/>
      </g>
     </g>
     <g id="text_11">
      <!-- 0.00 -->
      <g transform="translate(48.435625 624.01407) scale(0.22 -0.22)">
       <defs>
        <path id="DejaVuSans-2e" d="M 684 794 
L 1344 794 
L 1344 0 
L 684 0 
L 684 794 
z
" transform="scale(0.015625)"/>
       </defs>
       <use xlink:href="#DejaVuSans-30"/>
       <use xlink:href="#DejaVuSans-2e" x="63.623047"/>
       <use xlink:href="#DejaVuSans-30" x="95.410156"/>
       <use xlink:href="#DejaVuSans-30" x="159.033203"/>
      </g>
     </g>
    </g>
    <g id="ytick_2">
     <g id="line2d_11">
      <g>
       <use xlink:href="#ma600d9e374" x="104.42" y="535.500127" style="stroke: #000000; stroke-width: 0.8"/>
      </g>
     </g>
     <g id="text_12">
      <!-- 0.25 -->
      <g transform="translate(48.435625 543.858409) scale(0.22 -0.22)">
       <use xlink:href="#DejaVuSans-30"/>
       <use xlink:href="#DejaVuSans-2e" x="63.623047"/>
       <use xlink:href="#DejaVuSans-32" x="95.410156"/>
       <use xlink:href="#DejaVuSans-35" x="159.033203"/>
      </g>
     </g>
    </g>
    <g id="ytick_3">
     <g id="line2d_12">
      <g>
       <use xlink:href="#ma600d9e374" x="104.42" y="455.344465" style="stroke: #000000; stroke-width: 0.8"/>
      </g>
     </g>
     <g id="text_13">
      <!-- 0.50 -->
      <g transform="translate(48.435625 463.702747) scale(0.22 -0.22)">
       <use xlink:href="#DejaVuSans-30"/>
       <use xlink:href="#DejaVuSans-2e" x="63.623047"/>
       <use xlink:href="#DejaVuSans-35" x="95.410156"/>
       <use xlink:href="#DejaVuSans-30" x="159.033203"/>
      </g>
     </g>
    </g>
    <g id="ytick_4">
     <g id="line2d_13">
      <g>
       <use xlink:href="#ma600d9e374" x="104.42" y="375.188804" style="stroke: #000000; stroke-width: 0.8"/>
      </g>
     </g>
     <g id="text_14">
      <!-- 0.75 -->
      <g transform="translate(48.435625 383.547085) scale(0.22 -0.22)">
       <use xlink:href="#DejaVuSans-30"/>
       <use xlink:href="#DejaVuSans-2e" x="63.623047"/>
       <use xlink:href="#DejaVuSans-37" x="95.410156"/>
       <use xlink:href="#DejaVuSans-35" x="159.033203"/>
      </g>
     </g>
    </g>
    <g id="ytick_5">
     <g id="line2d_14">
      <g>
       <use xlink:href="#ma600d9e374" x="104.42" y="295.033142" style="stroke: #000000; stroke-width: 0.8"/>
      </g>
     </g>
     <g id="text_15">
      <!-- 1.00 -->
      <g transform="translate(48.435625 303.391423) scale(0.22 -0.22)">
       <use xlink:href="#DejaVuSans-31"/>
       <use xlink:href="#DejaVuSans-2e" x="63.623047"/>
       <use xlink:href="#DejaVuSans-30" x="95.410156"/>
       <use xlink:href="#DejaVuSans-30" x="159.033203"/>
      </g>
     </g>
    </g>
    <g id="ytick_6">
     <g id="line2d_15">
      <g>
       <use xlink:href="#ma600d9e374" x="104.42" y="214.87748" style="stroke: #000000; stroke-width: 0.8"/>
      </g>
     </g>
     <g id="text_16">
      <!-- 1.25 -->
      <g transform="translate(48.435625 223.235761) scale(0.22 -0.22)">
       <use xlink:href="#DejaVuSans-31"/>
       <use xlink:href="#DejaVuSans-2e" x="63.623047"/>
       <use xlink:href="#DejaVuSans-32" x="95.410156"/>
       <use xlink:href="#DejaVuSans-35" x="159.033203"/>
      </g>
     </g>
    </g>
    <g id="ytick_7">
     <g id="line2d_16">
      <g>
       <use xlink:href="#ma600d9e374" x="104.42" y="134.721818" style="stroke: #000000; stroke-width: 0.8"/>
      </g>
     </g>
     <g id="text_17">
      <!-- 1.50 -->
      <g transform="translate(48.435625 143.080099) scale(0.22 -0.22)">
       <use xlink:href="#DejaVuSans-31"/>
       <use xlink:href="#DejaVuSans-2e" x="63.623047"/>
       <use xlink:href="#DejaVuSans-35" x="95.410156"/>
       <use xlink:href="#DejaVuSans-30" x="159.033203"/>
      </g>
     </g>
    </g>
    <g id="ytick_8">
     <g id="line2d_17">
      <g>
       <use xlink:href="#ma600d9e374" x="104.42" y="54.566156" style="stroke: #000000; stroke-width: 0.8"/>
      </g>
     </g>
     <g id="text_18">
      <!-- 1.75 -->
      <g transform="translate(48.435625 62.924438) scale(0.22 -0.22)">
       <use xlink:href="#DejaVuSans-31"/>
       <use xlink:href="#DejaVuSans-2e" x="63.623047"/>
       <use xlink:href="#DejaVuSans-37" x="95.410156"/>
       <use xlink:href="#DejaVuSans-35" x="159.033203"/>
      </g>
     </g>
    </g>
    <g id="text_19">
     <!-- X:A -->
     <g transform="translate(39.860313 352.385312) rotate(-90) scale(0.22 -0.22)">
      <defs>
       <path id="DejaVuSans-58" d="M 403 4666 
L 1081 4666 
L 2241 2931 
L 3406 4666 
L 4084 4666 
L 2584 2425 
L 4184 0 
L 3506 0 
L 2194 1984 
L 872 0 
L 191 0 
L 1856 2491 
L 403 4666 
z
" transform="scale(0.015625)"/>
       <path id="DejaVuSans-3a" d="M 750 794 
L 1409 794 
L 1409 0 
L 750 0 
L 750 794 
z
M 750 3309 
L 1409 3309 
L 1409 2516 
L 750 2516 
L 750 3309 
z
" transform="scale(0.015625)"/>
       <path id="DejaVuSans-41" d="M 2188 4044 
L 1331 1722 
L 3047 1722 
L 2188 4044 
z
M 1831 4666 
L 2547 4666 
L 4325 0 
L 3669 0 
L 3244 1197 
L 1141 1197 
L 716 0 
L 50 0 
L 1831 4666 
z
" transform="scale(0.015625)"/>
      </defs>
      <use xlink:href="#DejaVuSans-58"/>
      <use xlink:href="#DejaVuSans-3a" x="68.505859"/>
      <use xlink:href="#DejaVuSans-41" x="102.197266"/>
     </g>
    </g>
   </g>
   <g id="line2d_18">
    <path d="M 139.129545 615.310909 
L 146.141575 615.229672 
L 153.153604 615.133227 
L 160.165634 615.019327 
L 167.177663 614.885422 
L 174.189692 614.728741 
L 181.201722 614.546288 
L 188.213751 614.334849 
L 195.225781 614.091019 
L 202.23781 613.811124 
L 209.249839 613.490763 
L 216.261869 613.125278 
L 223.273898 612.709807 
L 230.285927 612.239289 
L 237.297957 611.708459 
L 244.309986 611.111849 
L 251.322016 610.443792 
L 258.334045 609.698689 
L 265.346074 608.870464 
L 272.358104 607.951689 
L 279.370133 606.935058 
L 286.382163 605.813449 
L 293.394192 604.579925 
L 300.406221 603.227729 
L 307.418251 601.750288 
L 314.43028 600.141214 
L 321.442309 598.394299 
L 328.454339 596.503521 
L 335.466368 594.463608 
L 342.478398 592.269434 
L 349.490427 589.914329 
L 356.502456 587.392424 
L 363.514486 584.69874 
L 370.526515 581.829189 
L 377.538545 578.780572 
L 384.550574 575.550579 
L 391.562603 572.13779 
L 398.574633 568.541677 
L 405.586662 564.762599 
L 412.598691 560.801806 
L 419.610721 556.661438 
L 426.62275 552.344525 
L 433.63478 547.854114 
L 440.646809 543.191023 
L 447.658838 538.360135 
L 454.670868 533.36707 
L 461.682897 528.217678 
L 468.694927 522.918033 
L 475.706956 517.47444 
L 482.718985 511.893426 
L 489.731015 506.181751 
L 496.743044 500.346397 
L 503.755073 494.394578 
L 510.767103 488.33373 
L 517.779132 482.171521 
L 524.791162 475.915844 
L 531.803191 469.574818 
L 538.81522 463.156792 
L 545.82725 456.670339 
L 552.839279 450.124263 
L 559.851309 443.527592 
L 566.863338 436.889582 
L 573.875367 430.219499 
L 580.887397 423.523565 
L 587.899426 416.807972 
L 594.911455 410.07924 
L 601.923485 403.343671 
L 608.935514 396.607345 
L 615.947544 389.876124 
L 622.959573 383.155647 
L 629.971602 376.451336 
L 636.983632 369.768391 
L 643.995661 363.111792 
L 651.007691 356.4863 
L 658.01972 349.896454 
L 665.031749 343.346574 
L 672.043779 336.84076 
L 679.055808 330.382892 
L 686.067837 323.976629 
L 693.079867 317.62541 
L 700.091896 311.332456 
L 707.103926 305.100765 
L 714.115955 298.933116 
L 721.127984 292.832068 
L 728.140014 286.79996 
L 735.152043 280.83891 
L 742.164073 274.950818 
L 749.176102 269.137361 
L 756.188131 263.399997 
L 763.200161 257.739966 
L 770.21219 252.158285 
L 777.224219 246.655752 
L 784.236249 241.232945 
L 791.248278 235.890221 
L 798.260308 230.627718 
L 805.272337 225.445354 
L 812.284366 220.342825 
L 819.296396 215.320435 
L 826.308425 210.37913 
L 833.320455 205.518895 
" clip-path="url(#p6fa6d501a4)" style="fill: none; stroke: #d0e1f2; stroke-width: 1.5; stroke-linecap: square"/>
   </g>
   <g id="line2d_19">
    <path d="M 139.129545 101.811376 
L 146.141575 103.521014 
L 153.153604 105.222752 
L 160.165634 106.916619 
L 167.177663 108.602646 
L 174.189692 110.280861 
L 181.201722 111.951289 
L 188.213751 113.613954 
L 195.225781 115.26888 
L 202.23781 116.916088 
L 209.249839 118.555595 
L 216.261869 120.187415 
L 223.273898 121.811562 
L 230.285927 123.428047 
L 237.297957 125.036879 
L 244.309986 126.638063 
L 251.322016 128.231606 
L 258.334045 129.817509 
L 265.346074 131.395773 
L 272.358104 132.96639 
L 279.370133 134.529353 
L 286.382163 136.08465 
L 293.394192 137.632271 
L 300.406221 139.172203 
L 307.418251 140.704429 
L 314.43028 142.228935 
L 321.442309 143.745702 
L 328.454339 145.254711 
L 335.466368 146.755943 
L 342.478398 148.249378 
L 349.490427 149.734986 
L 356.502456 151.212737 
L 363.514486 152.682606 
L 370.526515 154.144566 
L 377.538545 155.598592 
L 384.550574 157.044664 
L 391.562603 158.48276 
L 398.574633 159.912861 
L 405.586662 161.334949 
L 412.598691 162.74901 
L 419.610721 164.155029 
L 426.62275 165.552994 
L 433.63478 166.942893 
L 440.646809 168.324721 
L 447.658838 169.698472 
L 454.670868 171.064147 
L 461.682897 172.421746 
L 468.694927 173.771276 
L 475.706956 175.112746 
L 482.718985 176.446167 
L 489.731015 177.771555 
L 496.743044 179.088928 
L 503.755073 180.398307 
L 510.767103 181.699719 
L 517.779132 182.993191 
L 524.791162 184.278754 
L 531.803191 185.556444 
L 538.81522 186.826298 
L 545.82725 188.088357 
L 552.839279 189.342666 
L 559.851309 190.589273 
L 566.863338 191.828228 
L 573.875367 193.059583 
L 580.887397 194.283366 
L 587.899426 195.499631 
L 594.911455 196.70844 
L 601.923485 197.909854 
L 608.935514 199.103937 
L 615.947544 200.290749 
L 622.959573 201.470353 
L 629.971602 202.64281 
L 636.983632 203.808183 
L 643.995661 204.966532 
L 651.007691 206.11792 
L 658.01972 207.262408 
L 665.031749 208.400057 
L 672.043779 209.530928 
L 679.055808 210.655084 
L 686.067837 211.772584 
L 693.079867 212.88349 
L 700.091896 213.987863 
L 707.103926 215.085764 
L 714.115955 216.177253 
L 721.127984 217.262392 
L 728.140014 218.341242 
L 735.152043 219.413861 
L 742.164073 220.480312 
L 749.176102 221.540654 
L 756.188131 222.594948 
L 763.200161 223.643255 
L 770.21219 224.685633 
L 777.224219 225.722144 
L 784.236249 226.752847 
L 791.248278 227.777802 
L 798.260308 228.79707 
L 805.272337 229.810709 
L 812.284366 230.81878 
L 819.296396 231.821335 
L 826.308425 232.818421 
L 833.320455 233.810089 
" clip-path="url(#p6fa6d501a4)" style="fill: none; stroke: #fdd9b4; stroke-width: 1.5; stroke-linecap: square"/>
   </g>
   <g id="line2d_20">
    <path d="M 139.129545 615.310909 
L 146.141575 605.856772 
L 153.153604 599.066899 
L 160.165634 594.005723 
L 167.177663 590.07306 
L 174.189692 586.948091 
L 181.201722 584.398748 
L 188.213751 582.254055 
L 195.225781 580.424774 
L 202.23781 578.849142 
L 209.249839 577.473258 
L 216.261869 576.251582 
L 223.273898 575.14787 
L 230.285927 574.144612 
L 237.297957 573.227739 
L 244.309986 572.383491 
L 251.322016 571.59989 
L 258.334045 570.866732 
L 265.346074 570.175592 
L 272.358104 569.519837 
L 279.370133 568.894504 
L 286.382163 568.295258 
L 293.394192 567.718064 
L 300.406221 567.159204 
L 307.418251 566.615275 
L 314.43028 566.083189 
L 321.442309 565.560173 
L 328.454339 565.043769 
L 335.466368 564.531828 
L 342.478398 564.022039 
L 349.490427 563.512021 
L 356.502456 562.999494 
L 363.514486 562.482098 
L 370.526515 561.957396 
L 377.538545 561.422874 
L 384.550574 560.87594 
L 391.562603 560.313913 
L 398.574633 559.733347 
L 405.586662 559.130801 
L 412.598691 558.502481 
L 419.610721 557.843725 
L 426.62275 557.149007 
L 433.63478 556.411931 
L 440.646809 555.625238 
L 447.658838 554.780711 
L 454.670868 553.864883 
L 461.682897 552.868156 
L 468.694927 551.778329 
L 475.706956 550.575553 
L 482.718985 549.232335 
L 489.731015 547.713536 
L 496.743044 545.97637 
L 503.755073 543.970401 
L 510.767103 541.583128 
L 517.779132 538.756064 
L 524.791162 535.410479 
L 531.803191 531.335334 
L 538.81522 526.187278 
L 545.82725 519.490649 
L 552.839279 510.637475 
L 559.851309 498.889572 
L 566.863338 483.321636 
L 573.875367 462.864271 
L 580.887397 437.693525 
L 587.899426 409.480889 
L 594.911455 380.775836 
L 601.923485 353.944354 
L 608.935514 330.434943 
L 615.947544 310.75853 
L 622.959573 294.765958 
L 629.971602 282.059882 
L 636.983632 272.098384 
L 643.995661 264.359327 
L 651.007691 258.410514 
L 658.01972 253.854229 
L 665.031749 250.354479 
L 672.043779 247.699085 
L 679.055808 245.704689 
L 686.067837 244.194781 
L 693.079867 243.022629 
L 700.091896 242.130691 
L 707.103926 241.474468 
L 714.115955 241.000455 
L 721.127984 240.646146 
L 728.140014 240.348816 
L 735.152043 240.101861 
L 742.164073 239.916394 
L 749.176102 239.793994 
L 756.188131 239.726787 
L 763.200161 239.697444 
L 770.21219 239.679182 
L 777.224219 239.638427 
L 784.236249 239.590367 
L 791.248278 239.551185 
L 798.260308 239.523313 
L 805.272337 239.507224 
L 812.284366 239.501432 
L 819.296396 239.502496 
L 826.308425 239.505013 
L 833.320455 239.501625 
" clip-path="url(#p6fa6d501a4)" style="fill: none; stroke: #79b5d9; stroke-width: 1.5; stroke-linecap: square"/>
   </g>
   <g id="line2d_21">
    <path d="M 139.129545 101.811376 
L 146.141575 96.981892 
L 153.153604 93.834876 
L 160.165634 91.818411 
L 167.177663 90.508929 
L 174.189692 89.70788 
L 181.201722 89.253603 
L 188.213751 88.94929 
L 195.225781 88.737489 
L 202.23781 88.663704 
L 209.249839 88.715634 
L 216.261869 88.818144 
L 223.273898 88.846912 
L 230.285927 88.827008 
L 237.297957 88.828069 
L 244.309986 88.879397 
L 251.322016 88.983873 
L 258.334045 89.117953 
L 265.346074 89.231667 
L 272.358104 89.251801 
L 279.370133 89.177531 
L 286.382163 89.095703 
L 293.394192 89.070267 
L 300.406221 89.135634 
L 307.418251 89.296671 
L 314.43028 89.528705 
L 321.442309 89.777522 
L 328.454339 89.959368 
L 335.466368 89.962005 
L 342.478398 89.790885 
L 349.490427 89.61314 
L 356.502456 89.537999 
L 363.514486 89.616085 
L 370.526515 89.839422 
L 377.538545 90.141432 
L 384.550574 90.396934 
L 391.562603 90.42422 
L 398.574633 90.229664 
L 405.586662 90.029866 
L 412.598691 89.950162 
L 419.610721 90.048788 
L 426.62275 90.316883 
L 433.63478 90.67849 
L 440.646809 90.990551 
L 447.658838 91.045107 
L 454.670868 90.839398 
L 461.682897 90.62637 
L 468.694927 90.562465 
L 475.706956 90.724362 
L 482.718985 91.108981 
L 489.731015 91.63348 
L 496.743044 92.135253 
L 503.755073 92.371951 
L 510.767103 92.300927 
L 517.779132 92.245289 
L 524.791162 92.407277 
L 531.803191 92.91817 
L 538.81522 93.838288 
L 545.82725 95.156994 
L 552.839279 96.792687 
L 559.851309 98.599211 
L 566.863338 101.053778 
L 573.875367 105.172825 
L 580.887397 111.664915 
L 587.899426 121.040991 
L 594.911455 133.523576 
L 601.923485 148.630246 
L 608.935514 165.291512 
L 615.947544 181.993506 
L 622.959573 198.031658 
L 629.971602 212.877795 
L 636.983632 225.647211 
L 643.995661 236.435872 
L 651.007691 245.563566 
L 658.01972 253.023994 
L 665.031749 258.920193 
L 672.043779 263.674831 
L 679.055808 267.534833 
L 686.067837 270.560602 
L 693.079867 272.824482 
L 700.091896 274.58318 
L 707.103926 275.977408 
L 714.115955 277.089594 
L 721.127984 277.943925 
L 728.140014 278.543369 
L 735.152043 278.987757 
L 742.164073 279.334089 
L 749.176102 279.618469 
L 756.188131 279.860356 
L 763.200161 280.062564 
L 770.21219 280.21126 
L 777.224219 280.275395 
L 784.236249 280.243657 
L 791.248278 280.192771 
L 798.260308 280.185178 
L 805.272337 280.250955 
L 812.284366 280.387806 
L 819.296396 280.561069 
L 826.308425 280.703712 
L 833.320455 280.716334 
" clip-path="url(#p6fa6d501a4)" style="fill: none; stroke: #fd9649; stroke-width: 1.5; stroke-linecap: square"/>
   </g>
   <g id="line2d_22">
    <path d="M 139.129545 615.310909 
L 146.141575 592.523285 
L 153.153604 579.030107 
L 160.165634 571.047592 
L 167.177663 566.305457 
L 174.189692 563.515431 
L 181.201722 561.845968 
L 188.213751 560.863931 
L 195.225781 560.288412 
L 202.23781 559.927637 
L 209.249839 559.727951 
L 216.261869 559.610028 
L 223.273898 559.522449 
L 230.285927 559.473394 
L 237.297957 559.452649 
L 244.309986 559.431763 
L 251.322016 559.405458 
L 258.334045 559.386287 
L 265.346074 559.376598 
L 272.358104 559.370855 
L 279.370133 559.355768 
L 286.382163 559.325788 
L 293.394192 559.293403 
L 300.406221 559.266553 
L 307.418251 559.247186 
L 314.43028 559.231255 
L 321.442309 559.208722 
L 328.454339 559.163585 
L 335.466368 559.088276 
L 342.478398 559.004526 
L 349.490427 558.928465 
L 356.502456 558.864208 
L 363.514486 558.803857 
L 370.526515 558.727497 
L 377.538545 558.603204 
L 384.550574 558.409343 
L 391.562603 558.185942 
L 398.574633 557.966557 
L 405.586662 557.76036 
L 412.598691 557.552139 
L 419.610721 557.3023 
L 426.62275 556.946867 
L 433.63478 556.451675 
L 440.646809 555.884318 
L 447.658838 555.27414 
L 454.670868 554.616872 
L 461.682897 553.87488 
L 468.694927 552.977173 
L 475.706956 551.84455 
L 482.718985 550.525273 
L 489.731015 548.984947 
L 496.743044 547.16956 
L 503.755073 545.026724 
L 510.767103 542.505678 
L 517.779132 539.560543 
L 524.791162 536.094564 
L 531.803191 531.942597 
L 538.81522 526.995 
L 545.82725 521.209061 
L 552.839279 514.467204 
L 559.851309 506.397252 
L 566.863338 496.798884 
L 573.875367 485.704207 
L 580.887397 473.107388 
L 587.899426 458.509891 
L 594.911455 441.770034 
L 601.923485 423.280731 
L 608.935514 403.38757 
L 615.947544 381.997737 
L 622.959573 359.541712 
L 629.971602 336.981628 
L 636.983632 315.05811 
L 643.995661 294.519073 
L 651.007691 276.154786 
L 658.01972 260.710829 
L 665.031749 248.690906 
L 672.043779 239.959252 
L 679.055808 234.261618 
L 686.067837 231.32169 
L 693.079867 230.641107 
L 700.091896 231.003904 
L 707.103926 231.783292 
L 714.115955 233.092072 
L 721.127984 234.579986 
L 728.140014 235.742685 
L 735.152043 236.478545 
L 742.164073 236.940634 
L 749.176102 237.124479 
L 756.188131 237.118372 
L 763.200161 237.046612 
L 770.21219 236.983973 
L 777.224219 236.955705 
L 784.236249 236.925291 
L 791.248278 236.829949 
L 798.260308 236.739204 
L 805.272337 236.698719 
L 812.284366 236.711642 
L 819.296396 236.738605 
L 826.308425 236.714925 
L 833.320455 236.683302 
" clip-path="url(#p6fa6d501a4)" style="fill: none; stroke: #2575b7; stroke-width: 1.5; stroke-linecap: square"/>
   </g>
   <g id="line2d_23">
    <path d="M 139.129545 101.811376 
L 146.141575 101.812644 
L 153.153604 101.814119 
L 160.165634 101.815834 
L 167.177663 101.81783 
L 174.189692 101.820152 
L 181.201722 101.822852 
L 188.213751 101.825993 
L 195.225781 101.829647 
L 202.23781 101.833898 
L 209.249839 101.838843 
L 216.261869 101.844595 
L 223.273898 101.851285 
L 230.285927 101.859068 
L 237.297957 101.868121 
L 244.309986 101.878652 
L 251.322016 101.890903 
L 258.334045 101.90515 
L 265.346074 101.92172 
L 272.358104 101.940998 
L 279.370133 101.963422 
L 286.382163 101.98951 
L 293.394192 102.019839 
L 300.406221 102.055094 
L 307.418251 102.096095 
L 314.43028 102.143801 
L 321.442309 102.199304 
L 328.454339 102.263836 
L 335.466368 102.338874 
L 342.478398 102.426079 
L 349.490427 102.527403 
L 356.502456 102.645185 
L 363.514486 102.782144 
L 370.526515 102.941383 
L 377.538545 103.126389 
L 384.550574 103.341285 
L 391.562603 103.590786 
L 398.574633 103.880353 
L 405.586662 104.216465 
L 412.598691 104.606616 
L 419.610721 105.059317 
L 426.62275 105.584094 
L 433.63478 106.191869 
L 440.646809 106.895439 
L 447.658838 107.709323 
L 454.670868 108.650128 
L 461.682897 109.736548 
L 468.694927 110.989368 
L 475.706956 112.431436 
L 482.718985 114.088516 
L 489.731015 115.989786 
L 496.743044 118.166075 
L 503.755073 120.649714 
L 510.767103 123.474537 
L 517.779132 126.675632 
L 524.791162 130.288134 
L 531.803191 134.34547 
L 538.81522 138.87627 
L 545.82725 143.904018 
L 552.839279 149.444702 
L 559.851309 155.504422 
L 566.863338 162.076841 
L 573.875367 169.142705 
L 580.887397 176.669609 
L 587.899426 184.614102 
L 594.911455 192.92115 
L 601.923485 201.52324 
L 608.935514 210.334047 
L 615.947544 219.28198 
L 622.959573 228.239026 
L 629.971602 236.993124 
L 636.983632 245.264548 
L 643.995661 252.733877 
L 651.007691 259.01551 
L 658.01972 263.654746 
L 665.031749 266.46018 
L 672.043779 267.757826 
L 679.055808 267.860981 
L 686.067837 267.020373 
L 693.079867 265.680251 
L 700.091896 264.46279 
L 707.103926 263.582904 
L 714.115955 262.828679 
L 721.127984 262.27434 
L 728.140014 262.003654 
L 735.152043 261.943436 
L 742.164073 261.984893 
L 749.176102 262.135738 
L 756.188131 262.295811 
L 763.200161 262.379326 
L 770.21219 262.373512 
L 777.224219 262.338611 
L 784.236249 262.379605 
L 791.248278 262.43994 
L 798.260308 262.481916 
L 805.272337 262.496686 
L 812.284366 262.488958 
L 819.296396 262.47699 
L 826.308425 262.485342 
L 833.320455 262.493419 
" clip-path="url(#p6fa6d501a4)" style="fill: none; stroke: #dc4c03; stroke-width: 1.5; stroke-linecap: square"/>
   </g>
   <g id="line2d_24">
    <path d="M 139.129545 615.310909 
L 146.141575 606.566888 
L 153.153604 600.66285 
L 160.165634 596.370407 
L 167.177663 593.074842 
L 174.189692 590.463629 
L 181.201722 588.315468 
L 188.213751 586.502962 
L 195.225781 584.954389 
L 202.23781 583.60998 
L 209.249839 582.420915 
L 216.261869 581.350963 
L 223.273898 580.381637 
L 230.285927 579.496955 
L 237.297957 578.682551 
L 244.309986 577.926109 
L 251.322016 577.217366 
L 258.334045 576.548112 
L 265.346074 575.912382 
L 272.358104 575.305722 
L 279.370133 574.723967 
L 286.382163 574.163166 
L 293.394192 573.619578 
L 300.406221 573.089671 
L 307.418251 572.570125 
L 314.43028 572.057831 
L 321.442309 571.550263 
L 328.454339 571.045996 
L 335.466368 570.543453 
L 342.478398 570.040668 
L 349.490427 569.535284 
L 356.502456 569.024554 
L 363.514486 568.50534 
L 370.526515 567.974305 
L 377.538545 567.429613 
L 384.550574 566.86963 
L 391.562603 566.291799 
L 398.574633 565.692656 
L 405.586662 565.067822 
L 412.598691 564.412008 
L 419.610721 563.71901 
L 426.62275 562.982364 
L 433.63478 562.197336 
L 440.646809 561.357225 
L 447.658838 560.452331 
L 454.670868 559.469953 
L 461.682897 558.394387 
L 468.694927 557.20693 
L 475.706956 555.882671 
L 482.718985 554.395999 
L 489.731015 552.720814 
L 496.743044 550.81123 
L 503.755073 548.601033 
L 510.767103 546.003682 
L 517.779132 542.912305 
L 524.791162 539.188091 
L 531.803191 534.634344 
L 538.81522 528.961378 
L 545.82725 521.7456 
L 552.839279 512.428715 
L 559.851309 500.317724 
L 566.863338 484.585478 
L 573.875367 464.481883 
L 580.887397 439.820202 
L 587.899426 411.52957 
L 594.911455 381.816559 
L 601.923485 353.266558 
L 608.935514 327.606204 
L 615.947544 305.832056 
L 622.959573 288.137447 
L 629.971602 274.131719 
L 636.983632 263.301971 
L 643.995661 255.080296 
L 651.007691 248.863209 
L 658.01972 244.19848 
L 665.031749 240.751282 
L 672.043779 238.204096 
L 679.055808 236.28431 
L 686.067837 234.866096 
L 693.079867 233.852599 
L 700.091896 233.131121 
L 707.103926 232.576326 
L 714.115955 232.131746 
L 721.127984 231.805459 
L 728.140014 231.590809 
L 735.152043 231.464477 
L 742.164073 231.386479 
L 749.176102 231.30202 
L 756.188131 231.205635 
L 763.200161 231.124201 
L 770.21219 231.070149 
L 777.224219 231.048118 
L 784.236249 231.054957 
L 791.248278 231.079721 
L 798.260308 231.103678 
L 805.272337 231.100317 
L 812.284366 231.077615 
L 819.296396 231.061212 
L 826.308425 231.049648 
L 833.320455 231.041239 
" clip-path="url(#p6fa6d501a4)" style="fill: none; stroke: #08306b; stroke-width: 1.5; stroke-linecap: square"/>
   </g>
   <g id="line2d_25">
    <path d="M 139.129545 101.811376 
L 146.141575 96.327692 
L 153.153604 92.958508 
L 160.165634 90.938142 
L 167.177663 89.738529 
L 174.189692 89.112497 
L 181.201722 88.788009 
L 188.213751 88.57879 
L 195.225781 88.536244 
L 202.23781 88.652648 
L 209.249839 88.821556 
L 216.261869 88.886338 
L 223.273898 88.920611 
L 230.285927 88.994073 
L 237.297957 89.128308 
L 244.309986 89.306404 
L 251.322016 89.472953 
L 258.334045 89.538859 
L 265.346074 89.505281 
L 272.358104 89.473075 
L 279.370133 89.511104 
L 286.382163 89.64955 
L 293.394192 89.879911 
L 300.406221 90.155005 
L 307.418251 90.388967 
L 314.43028 90.457293 
L 321.442309 90.319721 
L 328.454339 90.163908 
L 335.466368 90.12724 
L 342.478398 90.268055 
L 349.490427 90.565635 
L 356.502456 90.920213 
L 363.514486 91.152967 
L 370.526515 91.058838 
L 377.538545 90.814525 
L 384.550574 90.66048 
L 391.562603 90.72284 
L 398.574633 91.022641 
L 405.586662 91.475824 
L 412.598691 91.893235 
L 419.610721 91.98257 
L 426.62275 91.716837 
L 433.63478 91.460723 
L 440.646809 91.431488 
L 447.658838 91.712145 
L 454.670868 92.25146 
L 461.682897 92.863952 
L 468.694927 93.229896 
L 475.706956 93.110947 
L 482.718985 92.937729 
L 489.731015 92.979075 
L 496.743044 93.352749 
L 503.755073 94.037843 
L 510.767103 94.874782 
L 517.779132 95.565321 
L 524.791162 95.910822 
L 531.803191 96.351991 
L 538.81522 97.189407 
L 545.82725 98.629214 
L 552.839279 100.791718 
L 559.851309 103.711379 
L 566.863338 107.33775 
L 573.875367 112.09205 
L 580.887397 119.103669 
L 587.899426 128.841702 
L 594.911455 141.023863 
L 601.923485 154.90331 
L 608.935514 169.932175 
L 615.947544 185.19494 
L 622.959573 199.286086 
L 629.971602 211.478664 
L 636.983632 222.233085 
L 643.995661 231.453304 
L 651.007691 238.618274 
L 658.01972 244.282323 
L 665.031749 248.858627 
L 672.043779 252.437171 
L 679.055808 255.078478 
L 686.067837 257.105719 
L 693.079867 258.707283 
L 700.091896 259.95948 
L 707.103926 260.841261 
L 714.115955 261.461228 
L 721.127984 261.932132 
L 728.140014 262.310658 
L 735.152043 262.622697 
L 742.164073 262.863349 
L 749.176102 262.99579 
L 756.188131 262.990283 
L 763.200161 262.946238 
L 770.21219 262.950892 
L 777.224219 263.046904 
L 784.236249 263.232352 
L 791.248278 263.460741 
L 798.260308 263.640993 
L 805.272337 263.637557 
L 812.284366 263.518753 
L 819.296396 263.451114 
L 826.308425 263.425291 
L 833.320455 263.412585 
" clip-path="url(#p6fa6d501a4)" style="fill: none; stroke: #7f2704; stroke-width: 1.5; stroke-linecap: square"/>
   </g>
   <g id="patch_3">
    <path d="M 104.42 643.48 
L 104.42 23.76 
" style="fill: none; stroke: #000000; stroke-width: 0.8; stroke-linejoin: miter; stroke-linecap: square"/>
   </g>
   <g id="patch_4">
    <path d="M 868.03 643.48 
L 868.03 23.76 
" style="fill: none; stroke: #000000; stroke-width: 0.8; stroke-linejoin: miter; stroke-linecap: square"/>
   </g>
   <g id="patch_5">
    <path d="M 104.42 643.48 
L 868.03 643.48 
" style="fill: none; stroke: #000000; stroke-width: 0.8; stroke-linejoin: miter; stroke-linecap: square"/>
   </g>
   <g id="patch_6">
    <path d="M 104.42 23.76 
L 868.03 23.76 
" style="fill: none; stroke: #000000; stroke-width: 0.8; stroke-linejoin: miter; stroke-linecap: square"/>
   </g>
   <g id="legend_1">
    <g id="patch_7">
     <path d="M 883.43 364.27875 
L 1051.836562 364.27875 
Q 1056.236562 364.27875 1056.236562 359.87875 
L 1056.236562 39.16 
Q 1056.236562 34.76 1051.836562 34.76 
L 883.43 34.76 
Q 879.03 34.76 879.03 39.16 
L 879.03 359.87875 
Q 879.03 364.27875 883.43 364.27875 
z
" style="fill: #ffffff; opacity: 0.8; stroke: #cccccc; stroke-linejoin: miter"/>
    </g>
    <g id="PathCollection_3">
     <g>
      <use xlink:href="#m80f1702e56" x="909.83" y="54.501563" style="fill: #1f77b4; stroke: #1f77b4"/>
     </g>
    </g>
    <g id="text_20">
     <!-- Xi -->
     <g transform="translate(949.43 60.276563) scale(0.22 -0.22)">
      <use xlink:href="#DejaVuSans-58"/>
      <use xlink:href="#DejaVuSans-69" x="68.505859"/>
     </g>
    </g>
    <g id="PathCollection_4">
     <g>
      <use xlink:href="#m62fcbac0dc" x="909.83" y="86.793438" style="fill: #ff7f0e; stroke: #ff7f0e"/>
     </g>
    </g>
    <g id="text_21">
     <!-- Xa -->
     <g transform="translate(949.43 92.568438) scale(0.22 -0.22)">
      <use xlink:href="#DejaVuSans-58"/>
      <use xlink:href="#DejaVuSans-61" x="68.505859"/>
     </g>
    </g>
    <g id="line2d_26">
     <path d="M 887.83 117.160313 
L 909.83 117.160313 
L 931.83 117.160313 
" style="fill: none; stroke: #d0e1f2; stroke-width: 1.5; stroke-linecap: square"/>
    </g>
    <g id="text_22">
     <!-- Xi-AAAA -->
     <g transform="translate(949.43 124.860313) scale(0.22 -0.22)">
      <defs>
       <path id="DejaVuSans-2d" d="M 313 2009 
L 1997 2009 
L 1997 1497 
L 313 1497 
L 313 2009 
z
" transform="scale(0.015625)"/>
      </defs>
      <use xlink:href="#DejaVuSans-58"/>
      <use xlink:href="#DejaVuSans-69" x="68.505859"/>
      <use xlink:href="#DejaVuSans-2d" x="96.289062"/>
      <use xlink:href="#DejaVuSans-41" x="130.123047"/>
      <use xlink:href="#DejaVuSans-41" x="201.28125"/>
      <use xlink:href="#DejaVuSans-41" x="272.439453"/>
      <use xlink:href="#DejaVuSans-41" x="343.597656"/>
     </g>
    </g>
    <g id="line2d_27">
     <path d="M 887.83 149.452188 
L 909.83 149.452188 
L 931.83 149.452188 
" style="fill: none; stroke: #fdd9b4; stroke-width: 1.5; stroke-linecap: square"/>
    </g>
    <g id="text_23">
     <!-- Xa-AAAA -->
     <g transform="translate(949.43 157.152188) scale(0.22 -0.22)">
      <use xlink:href="#DejaVuSans-58"/>
      <use xlink:href="#DejaVuSans-61" x="68.505859"/>
      <use xlink:href="#DejaVuSans-2d" x="129.785156"/>
      <use xlink:href="#DejaVuSans-41" x="163.619141"/>
      <use xlink:href="#DejaVuSans-41" x="234.777344"/>
      <use xlink:href="#DejaVuSans-41" x="305.935547"/>
      <use xlink:href="#DejaVuSans-41" x="377.09375"/>
     </g>
    </g>
    <g id="line2d_28">
     <path d="M 887.83 181.744063 
L 909.83 181.744063 
L 931.83 181.744063 
" style="fill: none; stroke: #79b5d9; stroke-width: 1.5; stroke-linecap: square"/>
    </g>
    <g id="text_24">
     <!-- Xi-AIAA -->
     <g transform="translate(949.43 189.444063) scale(0.22 -0.22)">
      <defs>
       <path id="DejaVuSans-49" d="M 628 4666 
L 1259 4666 
L 1259 0 
L 628 0 
L 628 4666 
z
" transform="scale(0.015625)"/>
      </defs>
      <use xlink:href="#DejaVuSans-58"/>
      <use xlink:href="#DejaVuSans-69" x="68.505859"/>
      <use xlink:href="#DejaVuSans-2d" x="96.289062"/>
      <use xlink:href="#DejaVuSans-41" x="130.123047"/>
      <use xlink:href="#DejaVuSans-49" x="198.53125"/>
      <use xlink:href="#DejaVuSans-41" x="228.023438"/>
      <use xlink:href="#DejaVuSans-41" x="299.181641"/>
     </g>
    </g>
    <g id="line2d_29">
     <path d="M 887.83 214.035938 
L 909.83 214.035938 
L 931.83 214.035938 
" style="fill: none; stroke: #fd9649; stroke-width: 1.5; stroke-linecap: square"/>
    </g>
    <g id="text_25">
     <!-- Xa-AIAA -->
     <g transform="translate(949.43 221.735938) scale(0.22 -0.22)">
      <use xlink:href="#DejaVuSans-58"/>
      <use xlink:href="#DejaVuSans-61" x="68.505859"/>
      <use xlink:href="#DejaVuSans-2d" x="129.785156"/>
      <use xlink:href="#DejaVuSans-41" x="163.619141"/>
      <use xlink:href="#DejaVuSans-49" x="232.027344"/>
      <use xlink:href="#DejaVuSans-41" x="261.519531"/>
      <use xlink:href="#DejaVuSans-41" x="332.677734"/>
     </g>
    </g>
    <g id="line2d_30">
     <path d="M 887.83 246.327813 
L 909.83 246.327813 
L 931.83 246.327813 
" style="fill: none; stroke: #2575b7; stroke-width: 1.5; stroke-linecap: square"/>
    </g>
    <g id="text_26">
     <!-- Xi-IAAA -->
     <g transform="translate(949.43 254.027813) scale(0.22 -0.22)">
      <use xlink:href="#DejaVuSans-58"/>
      <use xlink:href="#DejaVuSans-69" x="68.505859"/>
      <use xlink:href="#DejaVuSans-2d" x="96.289062"/>
      <use xlink:href="#DejaVuSans-49" x="132.373047"/>
      <use xlink:href="#DejaVuSans-41" x="161.865234"/>
      <use xlink:href="#DejaVuSans-41" x="233.023438"/>
      <use xlink:href="#DejaVuSans-41" x="304.181641"/>
     </g>
    </g>
    <g id="line2d_31">
     <path d="M 887.83 278.619688 
L 909.83 278.619688 
L 931.83 278.619688 
" style="fill: none; stroke: #dc4c03; stroke-width: 1.5; stroke-linecap: square"/>
    </g>
    <g id="text_27">
     <!-- Xa-IAAA -->
     <g transform="translate(949.43 286.319688) scale(0.22 -0.22)">
      <use xlink:href="#DejaVuSans-58"/>
      <use xlink:href="#DejaVuSans-61" x="68.505859"/>
      <use xlink:href="#DejaVuSans-2d" x="129.785156"/>
      <use xlink:href="#DejaVuSans-49" x="165.869141"/>
      <use xlink:href="#DejaVuSans-41" x="195.361328"/>
      <use xlink:href="#DejaVuSans-41" x="266.519531"/>
      <use xlink:href="#DejaVuSans-41" x="337.677734"/>
     </g>
    </g>
    <g id="line2d_32">
     <path d="M 887.83 310.911563 
L 909.83 310.911563 
L 931.83 310.911563 
" style="fill: none; stroke: #08306b; stroke-width: 1.5; stroke-linecap: square"/>
    </g>
    <g id="text_28">
     <!-- Xi-IIAA -->
     <g transform="translate(949.43 318.611563) scale(0.22 -0.22)">
      <use xlink:href="#DejaVuSans-58"/>
      <use xlink:href="#DejaVuSans-69" x="68.505859"/>
      <use xlink:href="#DejaVuSans-2d" x="96.289062"/>
      <use xlink:href="#DejaVuSans-49" x="132.373047"/>
      <use xlink:href="#DejaVuSans-49" x="161.865234"/>
      <use xlink:href="#DejaVuSans-41" x="191.357422"/>
      <use xlink:href="#DejaVuSans-41" x="262.515625"/>
     </g>
    </g>
    <g id="line2d_33">
     <path d="M 887.83 343.203438 
L 909.83 343.203438 
L 931.83 343.203438 
" style="fill: none; stroke: #7f2704; stroke-width: 1.5; stroke-linecap: square"/>
    </g>
    <g id="text_29">
     <!-- Xa-IIAA -->
     <g transform="translate(949.43 350.903438) scale(0.22 -0.22)">
      <use xlink:href="#DejaVuSans-58"/>
      <use xlink:href="#DejaVuSans-61" x="68.505859"/>
      <use xlink:href="#DejaVuSans-2d" x="129.785156"/>
      <use xlink:href="#DejaVuSans-49" x="165.869141"/>
      <use xlink:href="#DejaVuSans-49" x="195.361328"/>
      <use xlink:href="#DejaVuSans-41" x="224.853516"/>
      <use xlink:href="#DejaVuSans-41" x="296.011719"/>
     </g>
    </g>
   </g>
  </g>
 </g>
 <defs>
  <clipPath id="p6fa6d501a4">
   <rect x="104.42" y="23.76" width="763.61" height="619.72"/>
  </clipPath>
 </defs>
</svg>
