<?xml version="1.0" encoding="utf-8" standalone="no"?>
<!DOCTYPE svg PUBLIC "-//W3C//DTD SVG 1.1//EN"
  "http://www.w3.org/Graphics/SVG/1.1/DTD/svg11.dtd">
<svg xmlns:xlink="http://www.w3.org/1999/xlink" width="1080pt" height="720pt" viewBox="0 0 1080 720" xmlns="http://www.w3.org/2000/svg" version="1.1">
 <metadata>
  <rdf:RDF xmlns:dc="http://purl.org/dc/elements/1.1/" xmlns:cc="http://creativecommons.org/ns#" xmlns:rdf="http://www.w3.org/1999/02/22-rdf-syntax-ns#">
   <cc:Work>
    <dc:type rdf:resource="http://purl.org/dc/dcmitype/StillImage"/>
    <dc:date>2023-01-11T19:55:44.159677</dc:date>
    <dc:format>image/svg+xml</dc:format>
    <dc:creator>
     <cc:Agent>
      <dc:title>Matplotlib v3.6.2, https://matplotlib.org/</dc:title>
     </cc:Agent>
    </dc:creator>
   </cc:Work>
  </rdf:RDF>
 </metadata>
 <defs>
  <style type="text/css">*{stroke-linejoin: round; stroke-linecap: butt}</style>
 </defs>
 <g id="figure_1">
  <g id="patch_1">
   <path d="M 0 720 
L 1080 720 
L 1080 0 
L 0 0 
z
" style="fill: #ffffff"/>
  </g>
  <g id="axes_1">
   <g id="patch_2">
    <path d="M 104.42 643.48 
L 868.03 643.48 
L 868.03 23.76 
L 104.42 23.76 
z
" style="fill: #ffffff"/>
   </g>
   <g id="PathCollection_1">
    <defs>
     <path id="m80f1702e56" d="M 0 3 
C 0.795609 3 1.55874 2.683901 2.12132 2.12132 
C 2.683901 1.55874 3 0.795609 3 0 
C 3 -0.795609 2.683901 -1.55874 2.12132 -2.12132 
C 1.55874 -2.683901 0.795609 -3 0 -3 
C -0.795609 -3 -1.55874 -2.683901 -2.12132 -2.12132 
C -2.683901 -1.55874 -3 -0.795609 -3 0 
C -3 0.795609 -2.683901 1.55874 -2.12132 2.12132 
C -1.55874 2.683901 -0.795609 3 0 3 
z
" style="stroke: #1f77b4"/>
    </defs>
    <g clip-path="url(#p6fa6d501a4)">
     <use xlink:href="#m80f1702e56" x="139.129545" y="615.310909" style="fill: #1f77b4; stroke: #1f77b4"/>
     <use xlink:href="#m80f1702e56" x="225.903409" y="581.002683" style="fill: #1f77b4; stroke: #1f77b4"/>
     <use xlink:href="#m80f1702e56" x="312.677273" y="569.371903" style="fill: #1f77b4; stroke: #1f77b4"/>
     <use xlink:href="#m80f1702e56" x="399.451136" y="567.018417" style="fill: #1f77b4; stroke: #1f77b4"/>
     <use xlink:href="#m80f1702e56" x="486.225" y="522.988588" style="fill: #1f77b4; stroke: #1f77b4"/>
     <use xlink:href="#m80f1702e56" x="572.998864" y="478.95876" style="fill: #1f77b4; stroke: #1f77b4"/>
     <use xlink:href="#m80f1702e56" x="659.772727" y="478.95876" style="fill: #1f77b4; stroke: #1f77b4"/>
     <use xlink:href="#m80f1702e56" x="746.546591" y="478.95876" style="fill: #1f77b4; stroke: #1f77b4"/>
     <use xlink:href="#m80f1702e56" x="833.320455" y="478.95876" style="fill: #1f77b4; stroke: #1f77b4"/>
    </g>
   </g>
   <g id="PathCollection_2">
    <defs>
     <path id="m62fcbac0dc" d="M 0 3 
C 0.795609 3 1.55874 2.683901 2.12132 2.12132 
C 2.683901 1.55874 3 0.795609 3 0 
C 3 -0.795609 2.683901 -1.55874 2.12132 -2.12132 
C 1.55874 -2.683901 0.795609 -3 0 -3 
C -0.795609 -3 -1.55874 -2.683901 -2.12132 -2.12132 
C -2.683901 -1.55874 -3 -0.795609 -3 0 
C -3 0.795609 -2.683901 1.55874 -2.12132 2.12132 
C -1.55874 2.683901 -0.795609 3 0 3 
z
" style="stroke: #ff7f0e"/>
    </defs>
    <g clip-path="url(#p6fa6d501a4)">
     <use xlink:href="#m62fcbac0dc" x="139.129545" y="101.811376" style="fill: #ff7f0e; stroke: #ff7f0e"/>
     <use xlink:href="#m62fcbac0dc" x="225.903409" y="80.860695" style="fill: #ff7f0e; stroke: #ff7f0e"/>
     <use xlink:href="#m62fcbac0dc" x="312.677273" y="113.550867" style="fill: #ff7f0e; stroke: #ff7f0e"/>
     <use xlink:href="#m62fcbac0dc" x="399.451136" y="51.929091" style="fill: #ff7f0e; stroke: #ff7f0e"/>
     <use xlink:href="#m62fcbac0dc" x="486.225" y="90.127012" style="fill: #ff7f0e; stroke: #ff7f0e"/>
     <use xlink:href="#m62fcbac0dc" x="572.998864" y="128.324932" style="fill: #ff7f0e; stroke: #ff7f0e"/>
     <use xlink:href="#m62fcbac0dc" x="659.772727" y="128.324932" style="fill: #ff7f0e; stroke: #ff7f0e"/>
     <use xlink:href="#m62fcbac0dc" x="746.546591" y="128.324932" style="fill: #ff7f0e; stroke: #ff7f0e"/>
     <use xlink:href="#m62fcbac0dc" x="833.320455" y="128.324932" style="fill: #ff7f0e; stroke: #ff7f0e"/>
    </g>
   </g>
   <g id="matplotlib.axis_1">
    <g id="xtick_1">
     <g id="line2d_1">
      <defs>
       <path id="m3385fdae1e" d="M 0 0 
L 0 3.5 
" style="stroke: #000000; stroke-width: 0.8"/>
      </defs>
      <g>
       <use xlink:href="#m3385fdae1e" x="139.129545" y="643.48" style="stroke: #000000; stroke-width: 0.8"/>
      </g>
     </g>
     <g id="text_1">
      <!-- 7 -->
      <g transform="translate(132.130795 667.196563) scale(0.22 -0.22)">
       <defs>
        <path id="DejaVuSans-37" d="M 525 4666 
L 3525 4666 
L 3525 4397 
L 1831 0 
L 1172 0 
L 2766 4134 
L 525 4134 
L 525 4666 
z
" transform="scale(0.015625)"/>
       </defs>
       <use xlink:href="#DejaVuSans-37"/>
      </g>
     </g>
    </g>
    <g id="xtick_2">
     <g id="line2d_2">
      <g>
       <use xlink:href="#m3385fdae1e" x="225.903409" y="643.48" style="stroke: #000000; stroke-width: 0.8"/>
      </g>
     </g>
     <g id="text_2">
      <!-- 8 -->
      <g transform="translate(218.904659 667.196563) scale(0.22 -0.22)">
       <defs>
        <path id="DejaVuSans-38" d="M 2034 2216 
Q 1584 2216 1326 1975 
Q 1069 1734 1069 1313 
Q 1069 891 1326 650 
Q 1584 409 2034 409 
Q 2484 409 2743 651 
Q 3003 894 3003 1313 
Q 3003 1734 2745 1975 
Q 2488 2216 2034 2216 
z
M 1403 2484 
Q 997 2584 770 2862 
Q 544 3141 544 3541 
Q 544 4100 942 4425 
Q 1341 4750 2034 4750 
Q 2731 4750 3128 4425 
Q 3525 4100 3525 3541 
Q 3525 3141 3298 2862 
Q 3072 2584 2669 2484 
Q 3125 2378 3379 2068 
Q 3634 1759 3634 1313 
Q 3634 634 3220 271 
Q 2806 -91 2034 -91 
Q 1263 -91 848 271 
Q 434 634 434 1313 
Q 434 1759 690 2068 
Q 947 2378 1403 2484 
z
M 1172 3481 
Q 1172 3119 1398 2916 
Q 1625 2713 2034 2713 
Q 2441 2713 2670 2916 
Q 2900 3119 2900 3481 
Q 2900 3844 2670 4047 
Q 2441 4250 2034 4250 
Q 1625 4250 1398 4047 
Q 1172 3844 1172 3481 
z
" transform="scale(0.015625)"/>
       </defs>
       <use xlink:href="#DejaVuSans-38"/>
      </g>
     </g>
    </g>
    <g id="xtick_3">
     <g id="line2d_3">
      <g>
       <use xlink:href="#m3385fdae1e" x="312.677273" y="643.48" style="stroke: #000000; stroke-width: 0.8"/>
      </g>
     </g>
     <g id="text_3">
      <!-- 9 -->
      <g transform="translate(305.678523 667.196563) scale(0.22 -0.22)">
       <defs>
        <path id="DejaVuSans-39" d="M 703 97 
L 703 672 
Q 941 559 1184 500 
Q 1428 441 1663 441 
Q 2288 441 2617 861 
Q 2947 1281 2994 2138 
Q 2813 1869 2534 1725 
Q 2256 1581 1919 1581 
Q 1219 1581 811 2004 
Q 403 2428 403 3163 
Q 403 3881 828 4315 
Q 1253 4750 1959 4750 
Q 2769 4750 3195 4129 
Q 3622 3509 3622 2328 
Q 3622 1225 3098 567 
Q 2575 -91 1691 -91 
Q 1453 -91 1209 -44 
Q 966 3 703 97 
z
M 1959 2075 
Q 2384 2075 2632 2365 
Q 2881 2656 2881 3163 
Q 2881 3666 2632 3958 
Q 2384 4250 1959 4250 
Q 1534 4250 1286 3958 
Q 1038 3666 1038 3163 
Q 1038 2656 1286 2365 
Q 1534 2075 1959 2075 
z
" transform="scale(0.015625)"/>
       </defs>
       <use xlink:href="#DejaVuSans-39"/>
      </g>
     </g>
    </g>
    <g id="xtick_4">
     <g id="line2d_4">
      <g>
       <use xlink:href="#m3385fdae1e" x="399.451136" y="643.48" style="stroke: #000000; stroke-width: 0.8"/>
      </g>
     </g>
     <g id="text_4">
      <!-- 10 -->
      <g transform="translate(385.453636 667.196563) scale(0.22 -0.22)">
       <defs>
        <path id="DejaVuSans-31" d="M 794 531 
L 1825 531 
L 1825 4091 
L 703 3866 
L 703 4441 
L 1819 4666 
L 2450 4666 
L 2450 531 
L 3481 531 
L 3481 0 
L 794 0 
L 794 531 
z
" transform="scale(0.015625)"/>
        <path id="DejaVuSans-30" d="M 2034 4250 
Q 1547 4250 1301 3770 
Q 1056 3291 1056 2328 
Q 1056 1369 1301 889 
Q 1547 409 2034 409 
Q 2525 409 2770 889 
Q 3016 1369 3016 2328 
Q 3016 3291 2770 3770 
Q 2525 4250 2034 4250 
z
M 2034 4750 
Q 2819 4750 3233 4129 
Q 3647 3509 3647 2328 
Q 3647 1150 3233 529 
Q 2819 -91 2034 -91 
Q 1250 -91 836 529 
Q 422 1150 422 2328 
Q 422 3509 836 4129 
Q 1250 4750 2034 4750 
z
" transform="scale(0.015625)"/>
       </defs>
       <use xlink:href="#DejaVuSans-31"/>
       <use xlink:href="#DejaVuSans-30" x="63.623047"/>
      </g>
     </g>
    </g>
    <g id="xtick_5">
     <g id="line2d_5">
      <g>
       <use xlink:href="#m3385fdae1e" x="486.225" y="643.48" style="stroke: #000000; stroke-width: 0.8"/>
      </g>
     </g>
     <g id="text_5">
      <!-- 11 -->
      <g transform="translate(472.2275 667.196563) scale(0.22 -0.22)">
       <use xlink:href="#DejaVuSans-31"/>
       <use xlink:href="#DejaVuSans-31" x="63.623047"/>
      </g>
     </g>
    </g>
    <g id="xtick_6">
     <g id="line2d_6">
      <g>
       <use xlink:href="#m3385fdae1e" x="572.998864" y="643.48" style="stroke: #000000; stroke-width: 0.8"/>
      </g>
     </g>
     <g id="text_6">
      <!-- 12 -->
      <g transform="translate(559.001364 667.196563) scale(0.22 -0.22)">
       <defs>
        <path id="DejaVuSans-32" d="M 1228 531 
L 3431 531 
L 3431 0 
L 469 0 
L 469 531 
Q 828 903 1448 1529 
Q 2069 2156 2228 2338 
Q 2531 2678 2651 2914 
Q 2772 3150 2772 3378 
Q 2772 3750 2511 3984 
Q 2250 4219 1831 4219 
Q 1534 4219 1204 4116 
Q 875 4013 500 3803 
L 500 4441 
Q 881 4594 1212 4672 
Q 1544 4750 1819 4750 
Q 2544 4750 2975 4387 
Q 3406 4025 3406 3419 
Q 3406 3131 3298 2873 
Q 3191 2616 2906 2266 
Q 2828 2175 2409 1742 
Q 1991 1309 1228 531 
z
" transform="scale(0.015625)"/>
       </defs>
       <use xlink:href="#DejaVuSans-31"/>
       <use xlink:href="#DejaVuSans-32" x="63.623047"/>
      </g>
     </g>
    </g>
    <g id="xtick_7">
     <g id="line2d_7">
      <g>
       <use xlink:href="#m3385fdae1e" x="659.772727" y="643.48" style="stroke: #000000; stroke-width: 0.8"/>
      </g>
     </g>
     <g id="text_7">
      <!-- 13 -->
      <g transform="translate(645.775227 667.196563) scale(0.22 -0.22)">
       <defs>
        <path id="DejaVuSans-33" d="M 2597 2516 
Q 3050 2419 3304 2112 
Q 3559 1806 3559 1356 
Q 3559 666 3084 287 
Q 2609 -91 1734 -91 
Q 1441 -91 1130 -33 
Q 819 25 488 141 
L 488 750 
Q 750 597 1062 519 
Q 1375 441 1716 441 
Q 2309 441 2620 675 
Q 2931 909 2931 1356 
Q 2931 1769 2642 2001 
Q 2353 2234 1838 2234 
L 1294 2234 
L 1294 2753 
L 1863 2753 
Q 2328 2753 2575 2939 
Q 2822 3125 2822 3475 
Q 2822 3834 2567 4026 
Q 2313 4219 1838 4219 
Q 1578 4219 1281 4162 
Q 984 4106 628 3988 
L 628 4550 
Q 988 4650 1302 4700 
Q 1616 4750 1894 4750 
Q 2613 4750 3031 4423 
Q 3450 4097 3450 3541 
Q 3450 3153 3228 2886 
Q 3006 2619 2597 2516 
z
" transform="scale(0.015625)"/>
       </defs>
       <use xlink:href="#DejaVuSans-31"/>
       <use xlink:href="#DejaVuSans-33" x="63.623047"/>
      </g>
     </g>
    </g>
    <g id="xtick_8">
     <g id="line2d_8">
      <g>
       <use xlink:href="#m3385fdae1e" x="746.546591" y="643.48" style="stroke: #000000; stroke-width: 0.8"/>
      </g>
     </g>
     <g id="text_8">
      <!-- 14 -->
      <g transform="translate(732.549091 667.196563) scale(0.22 -0.22)">
       <defs>
        <path id="DejaVuSans-34" d="M 2419 4116 
L 825 1625 
L 2419 1625 
L 2419 4116 
z
M 2253 4666 
L 3047 4666 
L 3047 1625 
L 3713 1625 
L 3713 1100 
L 3047 1100 
L 3047 0 
L 2419 0 
L 2419 1100 
L 313 1100 
L 313 1709 
L 2253 4666 
z
" transform="scale(0.015625)"/>
       </defs>
       <use xlink:href="#DejaVuSans-31"/>
       <use xlink:href="#DejaVuSans-34" x="63.623047"/>
      </g>
     </g>
    </g>
    <g id="xtick_9">
     <g id="line2d_9">
      <g>
       <use xlink:href="#m3385fdae1e" x="833.320455" y="643.48" style="stroke: #000000; stroke-width: 0.8"/>
      </g>
     </g>
     <g id="text_9">
      <!-- 15 -->
      <g transform="translate(819.322955 667.196563) scale(0.22 -0.22)">
       <defs>
        <path id="DejaVuSans-35" d="M 691 4666 
L 3169 4666 
L 3169 4134 
L 1269 4134 
L 1269 2991 
Q 1406 3038 1543 3061 
Q 1681 3084 1819 3084 
Q 2600 3084 3056 2656 
Q 3513 2228 3513 1497 
Q 3513 744 3044 326 
Q 2575 -91 1722 -91 
Q 1428 -91 1123 -41 
Q 819 9 494 109 
L 494 744 
Q 775 591 1075 516 
Q 1375 441 1709 441 
Q 2250 441 2565 725 
Q 2881 1009 2881 1497 
Q 2881 1984 2565 2268 
Q 2250 2553 1709 2553 
Q 1456 2553 1204 2497 
Q 953 2441 691 2322 
L 691 4666 
z
" transform="scale(0.015625)"/>
       </defs>
       <use xlink:href="#DejaVuSans-31"/>
       <use xlink:href="#DejaVuSans-35" x="63.623047"/>
      </g>
     </g>
    </g>
    <g id="text_10">
     <!-- Time (days) -->
     <g transform="translate(421.266562 692.488438) scale(0.22 -0.22)">
      <defs>
       <path id="DejaVuSans-54" d="M -19 4666 
L 3928 4666 
L 3928 4134 
L 2272 4134 
L 2272 0 
L 1638 0 
L 1638 4134 
L -19 4134 
L -19 4666 
z
" transform="scale(0.015625)"/>
       <path id="DejaVuSans-69" d="M 603 3500 
L 1178 3500 
L 1178 0 
L 603 0 
L 603 3500 
z
M 603 4863 
L 1178 4863 
L 1178 4134 
L 603 4134 
L 603 4863 
z
" transform="scale(0.015625)"/>
       <path id="DejaVuSans-6d" d="M 3328 2828 
Q 3544 3216 3844 3400 
Q 4144 3584 4550 3584 
Q 5097 3584 5394 3201 
Q 5691 2819 5691 2113 
L 5691 0 
L 5113 0 
L 5113 2094 
Q 5113 2597 4934 2840 
Q 4756 3084 4391 3084 
Q 3944 3084 3684 2787 
Q 3425 2491 3425 1978 
L 3425 0 
L 2847 0 
L 2847 2094 
Q 2847 2600 2669 2842 
Q 2491 3084 2119 3084 
Q 1678 3084 1418 2786 
Q 1159 2488 1159 1978 
L 1159 0 
L 581 0 
L 581 3500 
L 1159 3500 
L 1159 2956 
Q 1356 3278 1631 3431 
Q 1906 3584 2284 3584 
Q 2666 3584 2933 3390 
Q 3200 3197 3328 2828 
z
" transform="scale(0.015625)"/>
       <path id="DejaVuSans-65" d="M 3597 1894 
L 3597 1613 
L 953 1613 
Q 991 1019 1311 708 
Q 1631 397 2203 397 
Q 2534 397 2845 478 
Q 3156 559 3463 722 
L 3463 178 
Q 3153 47 2828 -22 
Q 2503 -91 2169 -91 
Q 1331 -91 842 396 
Q 353 884 353 1716 
Q 353 2575 817 3079 
Q 1281 3584 2069 3584 
Q 2775 3584 3186 3129 
Q 3597 2675 3597 1894 
z
M 3022 2063 
Q 3016 2534 2758 2815 
Q 2500 3097 2075 3097 
Q 1594 3097 1305 2825 
Q 1016 2553 972 2059 
L 3022 2063 
z
" transform="scale(0.015625)"/>
       <path id="DejaVuSans-20" transform="scale(0.015625)"/>
       <path id="DejaVuSans-28" d="M 1984 4856 
Q 1566 4138 1362 3434 
Q 1159 2731 1159 2009 
Q 1159 1288 1364 580 
Q 1569 -128 1984 -844 
L 1484 -844 
Q 1016 -109 783 600 
Q 550 1309 550 2009 
Q 550 2706 781 3412 
Q 1013 4119 1484 4856 
L 1984 4856 
z
" transform="scale(0.015625)"/>
       <path id="DejaVuSans-64" d="M 2906 2969 
L 2906 4863 
L 3481 4863 
L 3481 0 
L 2906 0 
L 2906 525 
Q 2725 213 2448 61 
Q 2172 -91 1784 -91 
Q 1150 -91 751 415 
Q 353 922 353 1747 
Q 353 2572 751 3078 
Q 1150 3584 1784 3584 
Q 2172 3584 2448 3432 
Q 2725 3281 2906 2969 
z
M 947 1747 
Q 947 1113 1208 752 
Q 1469 391 1925 391 
Q 2381 391 2643 752 
Q 2906 1113 2906 1747 
Q 2906 2381 2643 2742 
Q 2381 3103 1925 3103 
Q 1469 3103 1208 2742 
Q 947 2381 947 1747 
z
" transform="scale(0.015625)"/>
       <path id="DejaVuSans-61" d="M 2194 1759 
Q 1497 1759 1228 1600 
Q 959 1441 959 1056 
Q 959 750 1161 570 
Q 1363 391 1709 391 
Q 2188 391 2477 730 
Q 2766 1069 2766 1631 
L 2766 1759 
L 2194 1759 
z
M 3341 1997 
L 3341 0 
L 2766 0 
L 2766 531 
Q 2569 213 2275 61 
Q 1981 -91 1556 -91 
Q 1019 -91 701 211 
Q 384 513 384 1019 
Q 384 1609 779 1909 
Q 1175 2209 1959 2209 
L 2766 2209 
L 2766 2266 
Q 2766 2663 2505 2880 
Q 2244 3097 1772 3097 
Q 1472 3097 1187 3025 
Q 903 2953 641 2809 
L 641 3341 
Q 956 3463 1253 3523 
Q 1550 3584 1831 3584 
Q 2591 3584 2966 3190 
Q 3341 2797 3341 1997 
z
" transform="scale(0.015625)"/>
       <path id="DejaVuSans-79" d="M 2059 -325 
Q 1816 -950 1584 -1140 
Q 1353 -1331 966 -1331 
L 506 -1331 
L 506 -850 
L 844 -850 
Q 1081 -850 1212 -737 
Q 1344 -625 1503 -206 
L 1606 56 
L 191 3500 
L 800 3500 
L 1894 763 
L 2988 3500 
L 3597 3500 
L 2059 -325 
z
" transform="scale(0.015625)"/>
       <path id="DejaVuSans-73" d="M 2834 3397 
L 2834 2853 
Q 2591 2978 2328 3040 
Q 2066 3103 1784 3103 
Q 1356 3103 1142 2972 
Q 928 2841 928 2578 
Q 928 2378 1081 2264 
Q 1234 2150 1697 2047 
L 1894 2003 
Q 2506 1872 2764 1633 
Q 3022 1394 3022 966 
Q 3022 478 2636 193 
Q 2250 -91 1575 -91 
Q 1294 -91 989 -36 
Q 684 19 347 128 
L 347 722 
Q 666 556 975 473 
Q 1284 391 1588 391 
Q 1994 391 2212 530 
Q 2431 669 2431 922 
Q 2431 1156 2273 1281 
Q 2116 1406 1581 1522 
L 1381 1569 
Q 847 1681 609 1914 
Q 372 2147 372 2553 
Q 372 3047 722 3315 
Q 1072 3584 1716 3584 
Q 2034 3584 2315 3537 
Q 2597 3491 2834 3397 
z
" transform="scale(0.015625)"/>
       <path id="DejaVuSans-29" d="M 513 4856 
L 1013 4856 
Q 1481 4119 1714 3412 
Q 1947 2706 1947 2009 
Q 1947 1309 1714 600 
Q 1481 -109 1013 -844 
L 513 -844 
Q 928 -128 1133 580 
Q 1338 1288 1338 2009 
Q 1338 2731 1133 3434 
Q 928 4138 513 4856 
z
" transform="scale(0.015625)"/>
      </defs>
      <use xlink:href="#DejaVuSans-54"/>
      <use xlink:href="#DejaVuSans-69" x="57.958984"/>
      <use xlink:href="#DejaVuSans-6d" x="85.742188"/>
      <use xlink:href="#DejaVuSans-65" x="183.154297"/>
      <use xlink:href="#DejaVuSans-20" x="244.677734"/>
      <use xlink:href="#DejaVuSans-28" x="276.464844"/>
      <use xlink:href="#DejaVuSans-64" x="315.478516"/>
      <use xlink:href="#DejaVuSans-61" x="378.955078"/>
      <use xlink:href="#DejaVuSans-79" x="440.234375"/>
      <use xlink:href="#DejaVuSans-73" x="499.414062"/>
      <use xlink:href="#DejaVuSans-29" x="551.513672"/>
     </g>
    </g>
   </g>
   <g id="matplotlib.axis_2">
    <g id="ytick_1">
     <g id="line2d_10">
      <defs>
       <path id="ma600d9e374" d="M 0 0 
L -3.5 0 
" style="stroke: #000000; stroke-width: 0.8"/>
      </defs>
      <g>
       <use xlink:href="#ma600d9e374" x="104.42" y="615.655789" style="stroke: #000000; stroke-width: 0.8"/>
      </g>
     </g>
     <g id="text_11">
      <!-- 0.00 -->
      <g transform="translate(48.435625 624.01407) scale(0.22 -0.22)">
       <defs>
        <path id="DejaVuSans-2e" d="M 684 794 
L 1344 794 
L 1344 0 
L 684 0 
L 684 794 
z
" transform="scale(0.015625)"/>
       </defs>
       <use xlink:href="#DejaVuSans-30"/>
       <use xlink:href="#DejaVuSans-2e" x="63.623047"/>
       <use xlink:href="#DejaVuSans-30" x="95.410156"/>
       <use xlink:href="#DejaVuSans-30" x="159.033203"/>
      </g>
     </g>
    </g>
    <g id="ytick_2">
     <g id="line2d_11">
      <g>
       <use xlink:href="#ma600d9e374" x="104.42" y="535.500127" style="stroke: #000000; stroke-width: 0.8"/>
      </g>
     </g>
     <g id="text_12">
      <!-- 0.25 -->
      <g transform="translate(48.435625 543.858409) scale(0.22 -0.22)">
       <use xlink:href="#DejaVuSans-30"/>
       <use xlink:href="#DejaVuSans-2e" x="63.623047"/>
       <use xlink:href="#DejaVuSans-32" x="95.410156"/>
       <use xlink:href="#DejaVuSans-35" x="159.033203"/>
      </g>
     </g>
    </g>
    <g id="ytick_3">
     <g id="line2d_12">
      <g>
       <use xlink:href="#ma600d9e374" x="104.42" y="455.344465" style="stroke: #000000; stroke-width: 0.8"/>
      </g>
     </g>
     <g id="text_13">
      <!-- 0.50 -->
      <g transform="translate(48.435625 463.702747) scale(0.22 -0.22)">
       <use xlink:href="#DejaVuSans-30"/>
       <use xlink:href="#DejaVuSans-2e" x="63.623047"/>
       <use xlink:href="#DejaVuSans-35" x="95.410156"/>
       <use xlink:href="#DejaVuSans-30" x="159.033203"/>
      </g>
     </g>
    </g>
    <g id="ytick_4">
     <g id="line2d_13">
      <g>
       <use xlink:href="#ma600d9e374" x="104.42" y="375.188804" style="stroke: #000000; stroke-width: 0.8"/>
      </g>
     </g>
     <g id="text_14">
      <!-- 0.75 -->
      <g transform="translate(48.435625 383.547085) scale(0.22 -0.22)">
       <use xlink:href="#DejaVuSans-30"/>
       <use xlink:href="#DejaVuSans-2e" x="63.623047"/>
       <use xlink:href="#DejaVuSans-37" x="95.410156"/>
       <use xlink:href="#DejaVuSans-35" x="159.033203"/>
      </g>
     </g>
    </g>
    <g id="ytick_5">
     <g id="line2d_14">
      <g>
       <use xlink:href="#ma600d9e374" x="104.42" y="295.033142" style="stroke: #000000; stroke-width: 0.8"/>
      </g>
     </g>
     <g id="text_15">
      <!-- 1.00 -->
      <g transform="translate(48.435625 303.391423) scale(0.22 -0.22)">
       <use xlink:href="#DejaVuSans-31"/>
       <use xlink:href="#DejaVuSans-2e" x="63.623047"/>
       <use xlink:href="#DejaVuSans-30" x="95.410156"/>
       <use xlink:href="#DejaVuSans-30" x="159.033203"/>
      </g>
     </g>
    </g>
    <g id="ytick_6">
     <g id="line2d_15">
      <g>
       <use xlink:href="#ma600d9e374" x="104.42" y="214.87748" style="stroke: #000000; stroke-width: 0.8"/>
      </g>
     </g>
     <g id="text_16">
      <!-- 1.25 -->
      <g transform="translate(48.435625 223.235761) scale(0.22 -0.22)">
       <use xlink:href="#DejaVuSans-31"/>
       <use xlink:href="#DejaVuSans-2e" x="63.623047"/>
       <use xlink:href="#DejaVuSans-32" x="95.410156"/>
       <use xlink:href="#DejaVuSans-35" x="159.033203"/>
      </g>
     </g>
    </g>
    <g id="ytick_7">
     <g id="line2d_16">
      <g>
       <use xlink:href="#ma600d9e374" x="104.42" y="134.721818" style="stroke: #000000; stroke-width: 0.8"/>
      </g>
     </g>
     <g id="text_17">
      <!-- 1.50 -->
      <g transform="translate(48.435625 143.080099) scale(0.22 -0.22)">
       <use xlink:href="#DejaVuSans-31"/>
       <use xlink:href="#DejaVuSans-2e" x="63.623047"/>
       <use xlink:href="#DejaVuSans-35" x="95.410156"/>
       <use xlink:href="#DejaVuSans-30" x="159.033203"/>
      </g>
     </g>
    </g>
    <g id="ytick_8">
     <g id="line2d_17">
      <g>
       <use xlink:href="#ma600d9e374" x="104.42" y="54.566156" style="stroke: #000000; stroke-width: 0.8"/>
      </g>
     </g>
     <g id="text_18">
      <!-- 1.75 -->
      <g transform="translate(48.435625 62.924438) scale(0.22 -0.22)">
       <use xlink:href="#DejaVuSans-31"/>
       <use xlink:href="#DejaVuSans-2e" x="63.623047"/>
       <use xlink:href="#DejaVuSans-37" x="95.410156"/>
       <use xlink:href="#DejaVuSans-35" x="159.033203"/>
      </g>
     </g>
    </g>
    <g id="text_19">
     <!-- X:A -->
     <g transform="translate(39.860313 352.385312) rotate(-90) scale(0.22 -0.22)">
      <defs>
       <path id="DejaVuSans-58" d="M 403 4666 
L 1081 4666 
L 2241 2931 
L 3406 4666 
L 4084 4666 
L 2584 2425 
L 4184 0 
L 3506 0 
L 2194 1984 
L 872 0 
L 191 0 
L 1856 2491 
L 403 4666 
z
" transform="scale(0.015625)"/>
       <path id="DejaVuSans-3a" d="M 750 794 
L 1409 794 
L 1409 0 
L 750 0 
L 750 794 
z
M 750 3309 
L 1409 3309 
L 1409 2516 
L 750 2516 
L 750 3309 
z
" transform="scale(0.015625)"/>
       <path id="DejaVuSans-41" d="M 2188 4044 
L 1331 1722 
L 3047 1722 
L 2188 4044 
z
M 1831 4666 
L 2547 4666 
L 4325 0 
L 3669 0 
L 3244 1197 
L 1141 1197 
L 716 0 
L 50 0 
L 1831 4666 
z
" transform="scale(0.015625)"/>
      </defs>
      <use xlink:href="#DejaVuSans-58"/>
      <use xlink:href="#DejaVuSans-3a" x="68.505859"/>
      <use xlink:href="#DejaVuSans-41" x="102.197266"/>
     </g>
    </g>
   </g>
   <g id="line2d_18">
    <path d="M 139.129545 615.310909 
L 146.141575 612.950955 
L 153.153604 610.61376 
L 160.165634 608.299367 
L 167.177663 606.00763 
L 174.189692 603.738351 
L 181.201722 601.491328 
L 188.213751 599.266356 
L 195.225781 597.063229 
L 202.23781 594.881741 
L 209.249839 592.721686 
L 216.261869 590.582858 
L 223.273898 588.465052 
L 230.285927 586.368061 
L 237.297957 584.291682 
L 244.309986 582.235716 
L 251.322016 580.199964 
L 258.334045 578.184229 
L 265.346074 576.188316 
L 272.358104 574.212032 
L 279.370133 572.255185 
L 286.382163 570.317584 
L 293.394192 568.39904 
L 300.406221 566.499366 
L 307.418251 564.618378 
L 314.43028 562.755892 
L 321.442309 560.911726 
L 328.454339 559.085701 
L 335.466368 557.27764 
L 342.478398 555.487366 
L 349.490427 553.714706 
L 356.502456 551.959486 
L 363.514486 550.221534 
L 370.526515 548.500683 
L 377.538545 546.796762 
L 384.550574 545.109606 
L 391.562603 543.43905 
L 398.574633 541.78493 
L 405.586662 540.147084 
L 412.598691 538.525353 
L 419.610721 536.919578 
L 426.62275 535.329602 
L 433.63478 533.755272 
L 440.646809 532.196433 
L 447.658838 530.652934 
L 454.670868 529.124624 
L 461.682897 527.611353 
L 468.694927 526.112975 
L 475.706956 524.629342 
L 482.718985 523.160308 
L 489.731015 521.705731 
L 496.743044 520.265468 
L 503.755073 518.839377 
L 510.767103 517.427319 
L 517.779132 516.029154 
L 524.791162 514.644747 
L 531.803191 513.273964 
L 538.81522 511.91667 
L 545.82725 510.572734 
L 552.839279 509.242024 
L 559.851309 507.924411 
L 566.863338 506.619766 
L 573.875367 505.327961 
L 580.887397 504.048869 
L 587.899426 502.782366 
L 594.911455 501.528326 
L 601.923485 500.286627 
L 608.935514 499.057146 
L 615.947544 497.839764 
L 622.959573 496.634362 
L 629.971602 495.440823 
L 636.983632 494.259031 
L 643.995661 493.08887 
L 651.007691 491.930226 
L 658.01972 490.782987 
L 665.031749 489.647038 
L 672.043779 488.52227 
L 679.055808 487.408572 
L 686.067837 486.305834 
L 693.079867 485.213949 
L 700.091896 484.132809 
L 707.103926 483.062307 
L 714.115955 482.002341 
L 721.127984 480.952806 
L 728.140014 479.913601 
L 735.152043 478.884625 
L 742.164073 477.865777 
L 749.176102 476.856957 
L 756.188131 475.858066 
L 763.200161 474.869008 
L 770.21219 473.889685 
L 777.224219 472.92 
L 784.236249 471.959859 
L 791.248278 471.009167 
L 798.260308 470.06783 
L 805.272337 469.135757 
L 812.284366 468.212858 
L 819.296396 467.299042 
L 826.308425 466.394221 
L 833.320455 465.498305 
" clip-path="url(#p6fa6d501a4)" style="fill: none; stroke: #d0e1f2; stroke-width: 1.5; stroke-linecap: square"/>
   </g>
   <g id="line2d_19">
    <path d="M 139.129545 101.811376 
L 146.141575 102.762 
L 153.153604 103.498767 
L 160.165634 104.07083 
L 167.177663 104.531874 
L 174.189692 104.961534 
L 181.201722 105.32972 
L 188.213751 105.606405 
L 195.225781 105.777234 
L 202.23781 105.843531 
L 209.249839 105.822294 
L 216.261869 105.746194 
L 223.273898 105.663578 
L 230.285927 105.63847 
L 237.297957 105.723632 
L 244.309986 105.827416 
L 251.322016 105.919619 
L 258.334045 105.990325 
L 265.346074 106.033888 
L 272.358104 106.048924 
L 279.370133 106.038317 
L 286.382163 106.009216 
L 293.394192 105.973035 
L 300.406221 105.945456 
L 307.418251 105.946424 
L 314.43028 105.984514 
L 321.442309 106.038171 
L 328.454339 106.094407 
L 335.466368 106.14305 
L 342.478398 106.17659 
L 349.490427 106.190185 
L 356.502456 106.181656 
L 363.514486 106.151491 
L 370.526515 106.102841 
L 377.538545 106.041523 
L 384.550574 105.976021 
L 391.562603 105.91748 
L 398.574633 105.879712 
L 405.586662 105.879197 
L 412.598691 105.933138 
L 419.610721 106.031939 
L 426.62275 106.148583 
L 433.63478 106.260465 
L 440.646809 106.349829 
L 447.658838 106.403764 
L 454.670868 106.414211 
L 461.682897 106.377953 
L 468.694927 106.296626 
L 475.706956 106.176709 
L 482.718985 106.02953 
L 489.731015 105.871266 
L 496.743044 105.72294 
L 503.755073 105.610423 
L 510.767103 105.564433 
L 517.779132 105.620268 
L 524.791162 105.759765 
L 531.803191 105.924374 
L 538.81522 106.081013 
L 545.82725 106.204586 
L 552.839279 106.277986 
L 559.851309 106.292093 
L 566.863338 106.245774 
L 573.875367 106.145883 
L 580.887397 106.007261 
L 587.899426 105.852738 
L 594.911455 105.71313 
L 601.923485 105.62724 
L 608.935514 105.641858 
L 615.947544 105.759176 
L 622.959573 105.905648 
L 629.971602 106.049794 
L 636.983632 106.16774 
L 643.995661 106.242797 
L 651.007691 106.265461 
L 658.01972 106.233416 
L 665.031749 106.151528 
L 672.043779 106.031851 
L 679.055808 105.893625 
L 686.067837 105.763273 
L 693.079867 105.674406 
L 700.091896 105.66782 
L 707.103926 105.767159 
L 714.115955 105.9141 
L 721.127984 106.070568 
L 728.140014 106.208149 
L 735.152043 106.305836 
L 742.164073 106.350025 
L 749.176102 106.33452 
L 756.188131 106.260527 
L 763.200161 106.136658 
L 770.21219 105.978932 
L 777.224219 105.810771 
L 784.236249 105.663003 
L 791.248278 105.573861 
L 798.260308 105.588983 
L 805.272337 105.686189 
L 812.284366 105.763861 
L 819.296396 105.823906 
L 826.308425 105.87016 
L 833.320455 105.906431 
" clip-path="url(#p6fa6d501a4)" style="fill: none; stroke: #fdd9b4; stroke-width: 1.5; stroke-linecap: square"/>
   </g>
   <g id="line2d_20">
    <path d="M 139.129545 615.310909 
L 146.141575 613.17921 
L 153.153604 610.946002 
L 160.165634 608.650777 
L 167.177663 606.32254 
L 174.189692 603.975787 
L 181.201722 601.624176 
L 188.213751 599.278842 
L 195.225781 596.940615 
L 202.23781 594.610849 
L 209.249839 592.293905 
L 216.261869 589.995389 
L 223.273898 587.713475 
L 230.285927 585.445877 
L 237.297957 583.191958 
L 244.309986 580.952602 
L 251.322016 578.730218 
L 258.334045 576.528319 
L 265.346074 574.345991 
L 272.358104 572.179338 
L 279.370133 570.025771 
L 286.382163 567.884106 
L 293.394192 565.754564 
L 300.406221 563.638773 
L 307.418251 561.53977 
L 314.43028 559.461994 
L 321.442309 557.410214 
L 328.454339 555.379242 
L 335.466368 553.360429 
L 342.478398 551.348789 
L 349.490427 549.343058 
L 356.502456 547.345695 
L 363.514486 545.362883 
L 370.526515 543.404528 
L 377.538545 541.483855 
L 384.550574 539.598634 
L 391.562603 537.728144 
L 398.574633 535.858546 
L 405.586662 533.984487 
L 412.598691 532.109102 
L 419.610721 530.244017 
L 426.62275 528.40934 
L 433.63478 526.632679 
L 440.646809 524.901063 
L 447.658838 523.186121 
L 454.670868 521.478742 
L 461.682897 519.778618 
L 468.694927 518.094247 
L 475.706956 516.442933 
L 482.718985 514.843399 
L 489.731015 513.279164 
L 496.743044 511.739154 
L 503.755073 510.219977 
L 510.767103 508.72421 
L 517.779132 507.2604 
L 524.791162 505.843059 
L 531.803191 504.480454 
L 538.81522 503.158547 
L 545.82725 501.866941 
L 552.839279 500.601709 
L 559.851309 499.365395 
L 566.863338 498.167017 
L 573.875367 497.022063 
L 580.887397 495.942587 
L 587.899426 494.910852 
L 594.911455 493.913981 
L 601.923485 492.945657 
L 608.935514 492.0058 
L 615.947544 491.100562 
L 622.959573 490.242331 
L 629.971602 489.445165 
L 636.983632 488.693992 
L 643.995661 487.976145 
L 651.007691 487.285446 
L 658.01972 486.620207 
L 665.031749 485.983221 
L 672.043779 485.38177 
L 679.055808 484.825999 
L 686.067837 484.307704 
L 693.079867 483.816377 
L 700.091896 483.346596 
L 707.103926 482.895979 
L 714.115955 482.46519 
L 721.127984 482.057935 
L 728.140014 481.680962 
L 735.152043 481.335436 
L 742.164073 481.011408 
L 749.176102 480.703254 
L 756.188131 480.407624 
L 763.200161 480.123449 
L 770.21219 479.851934 
L 777.224219 479.596563 
L 784.236249 479.363095 
L 791.248278 479.150364 
L 798.260308 478.949825 
L 805.272337 478.759079 
L 812.284366 478.576904 
L 819.296396 478.403255 
L 826.308425 478.23926 
L 833.320455 478.087226 
" clip-path="url(#p6fa6d501a4)" style="fill: none; stroke: #79b5d9; stroke-width: 1.5; stroke-linecap: square"/>
   </g>
   <g id="line2d_21">
    <path d="M 139.129545 101.811376 
L 146.141575 97.248605 
L 153.153604 94.323152 
L 160.165634 92.447819 
L 167.177663 91.216489 
L 174.189692 90.450433 
L 181.201722 89.96591 
L 188.213751 89.615734 
L 195.225781 89.395207 
L 202.23781 89.286601 
L 209.249839 89.232571 
L 216.261869 89.159764 
L 223.273898 89.091748 
L 230.285927 89.055367 
L 237.297957 89.056953 
L 244.309986 89.084143 
L 251.322016 89.10588 
L 258.334045 89.0778 
L 265.346074 89.010589 
L 272.358104 88.950269 
L 279.370133 88.927108 
L 286.382163 88.95451 
L 293.394192 89.029019 
L 300.406221 89.130316 
L 307.418251 89.22122 
L 314.43028 89.247687 
L 321.442309 89.153162 
L 328.454339 89.002433 
L 335.466368 88.899746 
L 342.478398 88.905877 
L 349.490427 89.037453 
L 356.502456 89.266943 
L 363.514486 89.522669 
L 370.526515 89.688795 
L 377.538545 89.612553 
L 384.550574 89.336157 
L 391.562603 89.109159 
L 398.574633 89.098684 
L 405.586662 89.372893 
L 412.598691 89.90099 
L 419.610721 90.553216 
L 426.62275 91.100848 
L 433.63478 91.227922 
L 440.646809 91.103908 
L 447.658838 91.091135 
L 454.670868 91.319385 
L 461.682897 91.806664 
L 468.694927 92.459198 
L 475.706956 93.07144 
L 482.718985 93.421318 
L 489.731015 93.743482 
L 496.743044 94.202805 
L 503.755073 94.862236 
L 510.767103 95.704824 
L 517.779132 96.633717 
L 524.791162 97.472218 
L 531.803191 98.125623 
L 538.81522 98.799747 
L 545.82725 99.649479 
L 552.839279 100.737254 
L 559.851309 102.033048 
L 566.863338 103.414384 
L 573.875367 104.666328 
L 580.887397 105.617362 
L 587.899426 106.517453 
L 594.911455 107.5547 
L 601.923485 108.815102 
L 608.935514 110.28679 
L 615.947544 111.860021 
L 622.959573 113.327186 
L 629.971602 114.452238 
L 636.983632 115.449831 
L 643.995661 116.507766 
L 651.007691 117.707512 
L 658.01972 119.053642 
L 665.031749 120.47384 
L 672.043779 121.818893 
L 679.055808 122.889981 
L 686.067837 123.802101 
L 693.079867 124.717441 
L 700.091896 125.709909 
L 707.103926 126.798348 
L 714.115955 127.946534 
L 721.127984 129.063178 
L 728.140014 130.001927 
L 735.152043 130.718169 
L 742.164073 131.376487 
L 749.176102 132.065221 
L 756.188131 132.82945 
L 763.200161 133.670999 
L 770.21219 134.548444 
L 777.224219 135.377109 
L 784.236249 136.029063 
L 791.248278 136.511109 
L 798.260308 136.976953 
L 805.272337 137.46262 
L 812.284366 137.980305 
L 819.296396 138.518375 
L 826.308425 139.04137 
L 833.320455 139.490004 
" clip-path="url(#p6fa6d501a4)" style="fill: none; stroke: #fd9649; stroke-width: 1.5; stroke-linecap: square"/>
   </g>
   <g id="line2d_22">
    <path d="M 139.129545 615.310909 
L 146.141575 612.912352 
L 153.153604 610.539062 
L 160.165634 608.190767 
L 167.177663 605.867196 
L 174.189692 603.568071 
L 181.201722 601.293132 
L 188.213751 599.042118 
L 195.225781 596.814773 
L 202.23781 594.610842 
L 209.249839 592.430073 
L 216.261869 590.272214 
L 223.273898 588.137017 
L 230.285927 586.024234 
L 237.297957 583.933622 
L 244.309986 581.864937 
L 251.322016 579.817938 
L 258.334045 577.792387 
L 265.346074 575.788046 
L 272.358104 573.804681 
L 279.370133 571.84206 
L 286.382163 569.89995 
L 293.394192 567.978123 
L 300.406221 566.076354 
L 307.418251 564.194415 
L 314.43028 562.332086 
L 321.442309 560.489144 
L 328.454339 558.665371 
L 335.466368 556.860551 
L 342.478398 555.074468 
L 349.490427 553.30691 
L 356.502456 551.557665 
L 363.514486 549.826525 
L 370.526515 548.113282 
L 377.538545 546.417733 
L 384.550574 544.739655 
L 391.562603 543.078746 
L 398.574633 541.43481 
L 405.586662 539.807672 
L 412.598691 538.197154 
L 419.610721 536.603082 
L 426.62275 535.02528 
L 433.63478 533.463573 
L 440.646809 531.917787 
L 447.658838 530.387748 
L 454.670868 528.873282 
L 461.682897 527.374216 
L 468.694927 525.890377 
L 475.706956 524.421594 
L 482.718985 522.967694 
L 489.731015 521.528505 
L 496.743044 520.103858 
L 503.755073 518.693581 
L 510.767103 517.297505 
L 517.779132 515.915459 
L 524.791162 514.547275 
L 531.803191 513.192783 
L 538.81522 511.851815 
L 545.82725 510.524203 
L 552.839279 509.20978 
L 559.851309 507.908378 
L 566.863338 506.619831 
L 573.875367 505.343973 
L 580.887397 504.080638 
L 587.899426 502.82966 
L 594.911455 501.590874 
L 601.923485 500.364116 
L 608.935514 499.149222 
L 615.947544 497.946028 
L 622.959573 496.754371 
L 629.971602 495.574088 
L 636.983632 494.405016 
L 643.995661 493.246994 
L 651.007691 492.099861 
L 658.01972 490.963454 
L 665.031749 489.837614 
L 672.043779 488.72218 
L 679.055808 487.616992 
L 686.067837 486.521891 
L 693.079867 485.436718 
L 700.091896 484.361315 
L 707.103926 483.295523 
L 714.115955 482.239184 
L 721.127984 481.192142 
L 728.140014 480.15424 
L 735.152043 479.125321 
L 742.164073 478.10523 
L 749.176102 477.09381 
L 756.188131 476.090907 
L 763.200161 475.096366 
L 770.21219 474.110033 
L 777.224219 473.131754 
L 784.236249 472.161376 
L 791.248278 471.198745 
L 798.260308 470.24371 
L 805.272337 469.296117 
L 812.284366 468.355817 
L 819.296396 467.422656 
L 826.308425 466.496485 
L 833.320455 465.577153 
" clip-path="url(#p6fa6d501a4)" style="fill: none; stroke: #2575b7; stroke-width: 1.5; stroke-linecap: square"/>
   </g>
   <g id="line2d_23">
    <path d="M 139.129545 101.811376 
L 146.141575 101.848596 
L 153.153604 101.887268 
L 160.165634 101.927447 
L 167.177663 101.969192 
L 174.189692 102.012572 
L 181.201722 102.057637 
L 188.213751 102.104438 
L 195.225781 102.153031 
L 202.23781 102.203473 
L 209.249839 102.255823 
L 216.261869 102.310144 
L 223.273898 102.366504 
L 230.285927 102.424969 
L 237.297957 102.485613 
L 244.309986 102.548509 
L 251.322016 102.613735 
L 258.334045 102.681371 
L 265.346074 102.7515 
L 272.358104 102.824209 
L 279.370133 102.899586 
L 286.382163 102.977724 
L 293.394192 103.058716 
L 300.406221 103.142661 
L 307.418251 103.229658 
L 314.43028 103.319811 
L 321.442309 103.413227 
L 328.454339 103.510014 
L 335.466368 103.610285 
L 342.478398 103.714153 
L 349.490427 103.821738 
L 356.502456 103.933158 
L 363.514486 104.048539 
L 370.526515 104.168006 
L 377.538545 104.291688 
L 384.550574 104.419703 
L 391.562603 104.552096 
L 398.574633 104.688973 
L 405.586662 104.830463 
L 412.598691 104.976707 
L 419.610721 105.127859 
L 426.62275 105.284083 
L 433.63478 105.445554 
L 440.646809 105.61246 
L 447.658838 105.785 
L 454.670868 105.963382 
L 461.682897 106.14783 
L 468.694927 106.338577 
L 475.706956 106.535866 
L 482.718985 106.739955 
L 489.731015 106.951111 
L 496.743044 107.169612 
L 503.755073 107.395751 
L 510.767103 107.629828 
L 517.779132 107.872157 
L 524.791162 108.123064 
L 531.803191 108.382886 
L 538.81522 108.651969 
L 545.82725 108.930674 
L 552.839279 109.219372 
L 559.851309 109.518446 
L 566.863338 109.828289 
L 573.875367 110.149307 
L 580.887397 110.481917 
L 587.899426 110.826548 
L 594.911455 111.183639 
L 601.923485 111.553642 
L 608.935514 111.937021 
L 615.947544 112.334249 
L 622.959573 112.745813 
L 629.971602 113.17221 
L 636.983632 113.613949 
L 643.995661 114.071551 
L 651.007691 114.545547 
L 658.01972 115.036481 
L 665.031749 115.544908 
L 672.043779 116.071394 
L 679.055808 116.616517 
L 686.067837 117.180867 
L 693.079867 117.765044 
L 700.091896 118.369661 
L 707.103926 118.995342 
L 714.115955 119.642723 
L 721.127984 120.312449 
L 728.140014 121.005179 
L 735.152043 121.721584 
L 742.164073 122.462344 
L 749.176102 123.228153 
L 756.188131 124.019714 
L 763.200161 124.837744 
L 770.21219 125.682969 
L 777.224219 126.556129 
L 784.236249 127.457974 
L 791.248278 128.389266 
L 798.260308 129.350778 
L 805.272337 130.343294 
L 812.284366 131.367611 
L 819.296396 132.424537 
L 826.308425 133.514891 
L 833.320455 134.639503 
" clip-path="url(#p6fa6d501a4)" style="fill: none; stroke: #dc4c03; stroke-width: 1.5; stroke-linecap: square"/>
   </g>
   <g id="line2d_24">
    <path d="M 139.129545 615.310909 
L 146.141575 612.835247 
L 153.153604 610.388624 
L 160.165634 607.970478 
L 167.177663 605.580258 
L 174.189692 603.217563 
L 181.201722 600.882045 
L 188.213751 598.573318 
L 195.225781 596.290986 
L 202.23781 594.034757 
L 209.249839 591.804336 
L 216.261869 589.599406 
L 223.273898 587.419637 
L 230.285927 585.264692 
L 237.297957 583.134296 
L 244.309986 581.028178 
L 251.322016 578.946057 
L 258.334045 576.887638 
L 265.346074 574.85262 
L 272.358104 572.840686 
L 279.370133 570.85152 
L 286.382163 568.88489 
L 293.394192 566.94058 
L 300.406221 565.018349 
L 307.418251 563.117933 
L 314.43028 561.239046 
L 321.442309 559.381377 
L 328.454339 557.544591 
L 335.466368 555.728402 
L 342.478398 553.932675 
L 349.490427 552.157217 
L 356.502456 550.401799 
L 363.514486 548.666157 
L 370.526515 546.949996 
L 377.538545 545.253002 
L 384.550574 543.574996 
L 391.562603 541.915805 
L 398.574633 540.275221 
L 405.586662 538.653015 
L 412.598691 537.04894 
L 419.610721 535.462727 
L 426.62275 533.894138 
L 433.63478 532.343016 
L 440.646809 530.809189 
L 447.658838 529.292463 
L 454.670868 527.792625 
L 461.682897 526.309443 
L 468.694927 524.842662 
L 475.706956 523.392039 
L 482.718985 521.957444 
L 489.731015 520.538748 
L 496.743044 519.135795 
L 503.755073 517.748396 
L 510.767103 516.376334 
L 517.779132 515.019363 
L 524.791162 513.67721 
L 531.803191 512.34973 
L 538.81522 511.036853 
L 545.82725 509.738461 
L 552.839279 508.454396 
L 559.851309 507.184462 
L 566.863338 505.928422 
L 573.875367 504.686005 
L 580.887397 503.457078 
L 587.899426 502.241588 
L 594.911455 501.039417 
L 601.923485 499.850415 
L 608.935514 498.674397 
L 615.947544 497.511151 
L 622.959573 496.360457 
L 629.971602 495.222242 
L 636.983632 494.096406 
L 643.995661 492.982822 
L 651.007691 491.881342 
L 658.01972 490.791796 
L 665.031749 489.713993 
L 672.043779 488.64778 
L 679.055808 487.593079 
L 686.067837 486.549787 
L 693.079867 485.517784 
L 700.091896 484.496931 
L 707.103926 483.487072 
L 714.115955 482.488033 
L 721.127984 481.499659 
L 728.140014 480.521884 
L 735.152043 479.554631 
L 742.164073 478.5978 
L 749.176102 477.651269 
L 756.188131 476.714893 
L 763.200161 475.788506 
L 770.21219 474.871928 
L 777.224219 473.965082 
L 784.236249 473.067932 
L 791.248278 472.180407 
L 798.260308 471.302407 
L 805.272337 470.433802 
L 812.284366 469.574432 
L 819.296396 468.724111 
L 826.308425 467.882779 
L 833.320455 467.050397 
" clip-path="url(#p6fa6d501a4)" style="fill: none; stroke: #08306b; stroke-width: 1.5; stroke-linecap: square"/>
   </g>
   <g id="line2d_25">
    <path d="M 139.129545 101.811376 
L 146.141575 94.403263 
L 153.153604 89.75256 
L 160.165634 86.951756 
L 167.177663 85.063848 
L 174.189692 83.841166 
L 181.201722 83.198133 
L 188.213751 82.873719 
L 195.225781 82.565391 
L 202.23781 82.362878 
L 209.249839 82.320703 
L 216.261869 82.411703 
L 223.273898 82.531824 
L 230.285927 82.555445 
L 237.297957 82.565799 
L 244.309986 82.653711 
L 251.322016 82.856052 
L 258.334045 83.157382 
L 265.346074 83.489951 
L 272.358104 83.733624 
L 279.370133 83.749858 
L 286.382163 83.70167 
L 293.394192 83.796197 
L 300.406221 84.141963 
L 307.418251 84.748884 
L 314.43028 85.528262 
L 321.442309 86.292792 
L 328.454339 86.756556 
L 335.466368 86.79363 
L 342.478398 86.843229 
L 349.490427 87.105896 
L 356.502456 87.639416 
L 363.514486 88.365156 
L 370.526515 89.068067 
L 377.538545 89.45091 
L 384.550574 89.716234 
L 391.562603 90.079858 
L 398.574633 90.616357 
L 405.586662 91.311081 
L 412.598691 92.06015 
L 419.610721 92.670559 
L 426.62275 93.058886 
L 433.63478 93.442233 
L 440.646809 93.963526 
L 447.658838 94.678314 
L 454.670868 95.554765 
L 461.682897 96.473666 
L 468.694927 97.228422 
L 475.706956 97.638941 
L 482.718985 97.951613 
L 489.731015 98.418617 
L 496.743044 99.164828 
L 503.755073 100.188862 
L 510.767103 101.363081 
L 517.779132 102.433589 
L 524.791162 103.040507 
L 531.803191 103.308967 
L 538.81522 103.658358 
L 545.82725 104.306598 
L 552.839279 105.30619 
L 559.851309 106.544221 
L 566.863338 107.742363 
L 573.875367 108.46905 
L 580.887397 108.84509 
L 587.899426 109.30367 
L 594.911455 110.006682 
L 601.923485 110.975933 
L 608.935514 112.093145 
L 615.947544 113.099958 
L 622.959573 113.720736 
L 629.971602 114.258032 
L 636.983632 114.907967 
L 643.995661 115.741135 
L 651.007691 116.732495 
L 658.01972 117.761369 
L 665.031749 118.611524 
L 672.043779 119.215053 
L 679.055808 119.812303 
L 686.067837 120.534361 
L 693.079867 121.429479 
L 700.091896 122.463065 
L 707.103926 123.517692 
L 714.115955 124.393092 
L 721.127984 124.962667 
L 728.140014 125.474234 
L 735.152043 126.119979 
L 742.164073 126.989183 
L 749.176102 128.068678 
L 756.188131 129.242846 
L 763.200161 130.293619 
L 770.21219 130.935792 
L 777.224219 131.330269 
L 784.236249 131.806048 
L 791.248278 132.537242 
L 798.260308 133.561779 
L 805.272337 134.781398 
L 812.284366 135.961657 
L 819.296396 136.737759 
L 826.308425 137.306804 
L 833.320455 137.954737 
" clip-path="url(#p6fa6d501a4)" style="fill: none; stroke: #7f2704; stroke-width: 1.5; stroke-linecap: square"/>
   </g>
   <g id="patch_3">
    <path d="M 104.42 643.48 
L 104.42 23.76 
" style="fill: none; stroke: #000000; stroke-width: 0.8; stroke-linejoin: miter; stroke-linecap: square"/>
   </g>
   <g id="patch_4">
    <path d="M 868.03 643.48 
L 868.03 23.76 
" style="fill: none; stroke: #000000; stroke-width: 0.8; stroke-linejoin: miter; stroke-linecap: square"/>
   </g>
   <g id="patch_5">
    <path d="M 104.42 643.48 
L 868.03 643.48 
" style="fill: none; stroke: #000000; stroke-width: 0.8; stroke-linejoin: miter; stroke-linecap: square"/>
   </g>
   <g id="patch_6">
    <path d="M 104.42 23.76 
L 868.03 23.76 
" style="fill: none; stroke: #000000; stroke-width: 0.8; stroke-linejoin: miter; stroke-linecap: square"/>
   </g>
   <g id="legend_1">
    <g id="patch_7">
     <path d="M 883.43 364.27875 
L 1051.836562 364.27875 
Q 1056.236562 364.27875 1056.236562 359.87875 
L 1056.236562 39.16 
Q 1056.236562 34.76 1051.836562 34.76 
L 883.43 34.76 
Q 879.03 34.76 879.03 39.16 
L 879.03 359.87875 
Q 879.03 364.27875 883.43 364.27875 
z
" style="fill: #ffffff; opacity: 0.8; stroke: #cccccc; stroke-linejoin: miter"/>
    </g>
    <g id="PathCollection_3">
     <g>
      <use xlink:href="#m80f1702e56" x="909.83" y="54.501563" style="fill: #1f77b4; stroke: #1f77b4"/>
     </g>
    </g>
    <g id="text_20">
     <!-- Xi -->
     <g transform="translate(949.43 60.276563) scale(0.22 -0.22)">
      <use xlink:href="#DejaVuSans-58"/>
      <use xlink:href="#DejaVuSans-69" x="68.505859"/>
     </g>
    </g>
    <g id="PathCollection_4">
     <g>
      <use xlink:href="#m62fcbac0dc" x="909.83" y="86.793438" style="fill: #ff7f0e; stroke: #ff7f0e"/>
     </g>
    </g>
    <g id="text_21">
     <!-- Xa -->
     <g transform="translate(949.43 92.568438) scale(0.22 -0.22)">
      <use xlink:href="#DejaVuSans-58"/>
      <use xlink:href="#DejaVuSans-61" x="68.505859"/>
     </g>
    </g>
    <g id="line2d_26">
     <path d="M 887.83 117.160313 
L 909.83 117.160313 
L 931.83 117.160313 
" style="fill: none; stroke: #d0e1f2; stroke-width: 1.5; stroke-linecap: square"/>
    </g>
    <g id="text_22">
     <!-- Xi-AAAA -->
     <g transform="translate(949.43 124.860313) scale(0.22 -0.22)">
      <defs>
       <path id="DejaVuSans-2d" d="M 313 2009 
L 1997 2009 
L 1997 1497 
L 313 1497 
L 313 2009 
z
" transform="scale(0.015625)"/>
      </defs>
      <use xlink:href="#DejaVuSans-58"/>
      <use xlink:href="#DejaVuSans-69" x="68.505859"/>
      <use xlink:href="#DejaVuSans-2d" x="96.289062"/>
      <use xlink:href="#DejaVuSans-41" x="130.123047"/>
      <use xlink:href="#DejaVuSans-41" x="201.28125"/>
      <use xlink:href="#DejaVuSans-41" x="272.439453"/>
      <use xlink:href="#DejaVuSans-41" x="343.597656"/>
     </g>
    </g>
    <g id="line2d_27">
     <path d="M 887.83 149.452188 
L 909.83 149.452188 
L 931.83 149.452188 
" style="fill: none; stroke: #fdd9b4; stroke-width: 1.5; stroke-linecap: square"/>
    </g>
    <g id="text_23">
     <!-- Xa-AAAA -->
     <g transform="translate(949.43 157.152188) scale(0.22 -0.22)">
      <use xlink:href="#DejaVuSans-58"/>
      <use xlink:href="#DejaVuSans-61" x="68.505859"/>
      <use xlink:href="#DejaVuSans-2d" x="129.785156"/>
      <use xlink:href="#DejaVuSans-41" x="163.619141"/>
      <use xlink:href="#DejaVuSans-41" x="234.777344"/>
      <use xlink:href="#DejaVuSans-41" x="305.935547"/>
      <use xlink:href="#DejaVuSans-41" x="377.09375"/>
     </g>
    </g>
    <g id="line2d_28">
     <path d="M 887.83 181.744063 
L 909.83 181.744063 
L 931.83 181.744063 
" style="fill: none; stroke: #79b5d9; stroke-width: 1.5; stroke-linecap: square"/>
    </g>
    <g id="text_24">
     <!-- Xi-AIAA -->
     <g transform="translate(949.43 189.444063) scale(0.22 -0.22)">
      <defs>
       <path id="DejaVuSans-49" d="M 628 4666 
L 1259 4666 
L 1259 0 
L 628 0 
L 628 4666 
z
" transform="scale(0.015625)"/>
      </defs>
      <use xlink:href="#DejaVuSans-58"/>
      <use xlink:href="#DejaVuSans-69" x="68.505859"/>
      <use xlink:href="#DejaVuSans-2d" x="96.289062"/>
      <use xlink:href="#DejaVuSans-41" x="130.123047"/>
      <use xlink:href="#DejaVuSans-49" x="198.53125"/>
      <use xlink:href="#DejaVuSans-41" x="228.023438"/>
      <use xlink:href="#DejaVuSans-41" x="299.181641"/>
     </g>
    </g>
    <g id="line2d_29">
     <path d="M 887.83 214.035938 
L 909.83 214.035938 
L 931.83 214.035938 
" style="fill: none; stroke: #fd9649; stroke-width: 1.5; stroke-linecap: square"/>
    </g>
    <g id="text_25">
     <!-- Xa-AIAA -->
     <g transform="translate(949.43 221.735938) scale(0.22 -0.22)">
      <use xlink:href="#DejaVuSans-58"/>
      <use xlink:href="#DejaVuSans-61" x="68.505859"/>
      <use xlink:href="#DejaVuSans-2d" x="129.785156"/>
      <use xlink:href="#DejaVuSans-41" x="163.619141"/>
      <use xlink:href="#DejaVuSans-49" x="232.027344"/>
      <use xlink:href="#DejaVuSans-41" x="261.519531"/>
      <use xlink:href="#DejaVuSans-41" x="332.677734"/>
     </g>
    </g>
    <g id="line2d_30">
     <path d="M 887.83 246.327813 
L 909.83 246.327813 
L 931.83 246.327813 
" style="fill: none; stroke: #2575b7; stroke-width: 1.5; stroke-linecap: square"/>
    </g>
    <g id="text_26">
     <!-- Xi-IAAA -->
     <g transform="translate(949.43 254.027813) scale(0.22 -0.22)">
      <use xlink:href="#DejaVuSans-58"/>
      <use xlink:href="#DejaVuSans-69" x="68.505859"/>
      <use xlink:href="#DejaVuSans-2d" x="96.289062"/>
      <use xlink:href="#DejaVuSans-49" x="132.373047"/>
      <use xlink:href="#DejaVuSans-41" x="161.865234"/>
      <use xlink:href="#DejaVuSans-41" x="233.023438"/>
      <use xlink:href="#DejaVuSans-41" x="304.181641"/>
     </g>
    </g>
    <g id="line2d_31">
     <path d="M 887.83 278.619688 
L 909.83 278.619688 
L 931.83 278.619688 
" style="fill: none; stroke: #dc4c03; stroke-width: 1.5; stroke-linecap: square"/>
    </g>
    <g id="text_27">
     <!-- Xa-IAAA -->
     <g transform="translate(949.43 286.319688) scale(0.22 -0.22)">
      <use xlink:href="#DejaVuSans-58"/>
      <use xlink:href="#DejaVuSans-61" x="68.505859"/>
      <use xlink:href="#DejaVuSans-2d" x="129.785156"/>
      <use xlink:href="#DejaVuSans-49" x="165.869141"/>
      <use xlink:href="#DejaVuSans-41" x="195.361328"/>
      <use xlink:href="#DejaVuSans-41" x="266.519531"/>
      <use xlink:href="#DejaVuSans-41" x="337.677734"/>
     </g>
    </g>
    <g id="line2d_32">
     <path d="M 887.83 310.911563 
L 909.83 310.911563 
L 931.83 310.911563 
" style="fill: none; stroke: #08306b; stroke-width: 1.5; stroke-linecap: square"/>
    </g>
    <g id="text_28">
     <!-- Xi-IIAA -->
     <g transform="translate(949.43 318.611563) scale(0.22 -0.22)">
      <use xlink:href="#DejaVuSans-58"/>
      <use xlink:href="#DejaVuSans-69" x="68.505859"/>
      <use xlink:href="#DejaVuSans-2d" x="96.289062"/>
      <use xlink:href="#DejaVuSans-49" x="132.373047"/>
      <use xlink:href="#DejaVuSans-49" x="161.865234"/>
      <use xlink:href="#DejaVuSans-41" x="191.357422"/>
      <use xlink:href="#DejaVuSans-41" x="262.515625"/>
     </g>
    </g>
    <g id="line2d_33">
     <path d="M 887.83 343.203438 
L 909.83 343.203438 
L 931.83 343.203438 
" style="fill: none; stroke: #7f2704; stroke-width: 1.5; stroke-linecap: square"/>
    </g>
    <g id="text_29">
     <!-- Xa-IIAA -->
     <g transform="translate(949.43 350.903438) scale(0.22 -0.22)">
      <use xlink:href="#DejaVuSans-58"/>
      <use xlink:href="#DejaVuSans-61" x="68.505859"/>
      <use xlink:href="#DejaVuSans-2d" x="129.785156"/>
      <use xlink:href="#DejaVuSans-49" x="165.869141"/>
      <use xlink:href="#DejaVuSans-49" x="195.361328"/>
      <use xlink:href="#DejaVuSans-41" x="224.853516"/>
      <use xlink:href="#DejaVuSans-41" x="296.011719"/>
     </g>
    </g>
   </g>
  </g>
 </g>
 <defs>
  <clipPath id="p6fa6d501a4">
   <rect x="104.42" y="23.76" width="763.61" height="619.72"/>
  </clipPath>
 </defs>
</svg>
