<?xml version="1.0" encoding="utf-8" standalone="no"?>
<!DOCTYPE svg PUBLIC "-//W3C//DTD SVG 1.1//EN"
  "http://www.w3.org/Graphics/SVG/1.1/DTD/svg11.dtd">
<svg xmlns:xlink="http://www.w3.org/1999/xlink" width="1080pt" height="720pt" viewBox="0 0 1080 720" xmlns="http://www.w3.org/2000/svg" version="1.1">
 <metadata>
  <rdf:RDF xmlns:dc="http://purl.org/dc/elements/1.1/" xmlns:cc="http://creativecommons.org/ns#" xmlns:rdf="http://www.w3.org/1999/02/22-rdf-syntax-ns#">
   <cc:Work>
    <dc:type rdf:resource="http://purl.org/dc/dcmitype/StillImage"/>
    <dc:date>2023-01-11T19:55:43.224214</dc:date>
    <dc:format>image/svg+xml</dc:format>
    <dc:creator>
     <cc:Agent>
      <dc:title>Matplotlib v3.6.2, https://matplotlib.org/</dc:title>
     </cc:Agent>
    </dc:creator>
   </cc:Work>
  </rdf:RDF>
 </metadata>
 <defs>
  <style type="text/css">*{stroke-linejoin: round; stroke-linecap: butt}</style>
 </defs>
 <g id="figure_1">
  <g id="patch_1">
   <path d="M 0 720 
L 1080 720 
L 1080 0 
L 0 0 
z
" style="fill: #ffffff"/>
  </g>
  <g id="axes_1">
   <g id="patch_2">
    <path d="M 104.42 643.48 
L 868.03 643.48 
L 868.03 23.76 
L 104.42 23.76 
z
" style="fill: #ffffff"/>
   </g>
   <g id="PathCollection_1">
    <defs>
     <path id="m80f1702e56" d="M 0 3 
C 0.795609 3 1.55874 2.683901 2.12132 2.12132 
C 2.683901 1.55874 3 0.795609 3 0 
C 3 -0.795609 2.683901 -1.55874 2.12132 -2.12132 
C 1.55874 -2.683901 0.795609 -3 0 -3 
C -0.795609 -3 -1.55874 -2.683901 -2.12132 -2.12132 
C -2.683901 -1.55874 -3 -0.795609 -3 0 
C -3 0.795609 -2.683901 1.55874 -2.12132 2.12132 
C -1.55874 2.683901 -0.795609 3 0 3 
z
" style="stroke: #1f77b4"/>
    </defs>
    <g clip-path="url(#p6fa6d501a4)">
     <use xlink:href="#m80f1702e56" x="139.129545" y="615.310909" style="fill: #1f77b4; stroke: #1f77b4"/>
     <use xlink:href="#m80f1702e56" x="175.665909" y="611.022381" style="fill: #1f77b4; stroke: #1f77b4"/>
     <use xlink:href="#m80f1702e56" x="212.202273" y="606.733853" style="fill: #1f77b4; stroke: #1f77b4"/>
     <use xlink:href="#m80f1702e56" x="248.738636" y="602.445324" style="fill: #1f77b4; stroke: #1f77b4"/>
     <use xlink:href="#m80f1702e56" x="285.275" y="598.156796" style="fill: #1f77b4; stroke: #1f77b4"/>
     <use xlink:href="#m80f1702e56" x="321.811364" y="593.868268" style="fill: #1f77b4; stroke: #1f77b4"/>
     <use xlink:href="#m80f1702e56" x="358.347727" y="589.57974" style="fill: #1f77b4; stroke: #1f77b4"/>
     <use xlink:href="#m80f1702e56" x="394.884091" y="585.291212" style="fill: #1f77b4; stroke: #1f77b4"/>
     <use xlink:href="#m80f1702e56" x="431.420455" y="581.002683" style="fill: #1f77b4; stroke: #1f77b4"/>
     <use xlink:href="#m80f1702e56" x="467.956818" y="569.371903" style="fill: #1f77b4; stroke: #1f77b4"/>
     <use xlink:href="#m80f1702e56" x="504.493182" y="567.018417" style="fill: #1f77b4; stroke: #1f77b4"/>
     <use xlink:href="#m80f1702e56" x="541.029545" y="522.988588" style="fill: #1f77b4; stroke: #1f77b4"/>
     <use xlink:href="#m80f1702e56" x="577.565909" y="478.95876" style="fill: #1f77b4; stroke: #1f77b4"/>
     <use xlink:href="#m80f1702e56" x="614.102273" y="242.420357" style="fill: #1f77b4; stroke: #1f77b4"/>
     <use xlink:href="#m80f1702e56" x="650.638636" y="242.420357" style="fill: #1f77b4; stroke: #1f77b4"/>
     <use xlink:href="#m80f1702e56" x="687.175" y="242.420357" style="fill: #1f77b4; stroke: #1f77b4"/>
     <use xlink:href="#m80f1702e56" x="723.711364" y="242.420357" style="fill: #1f77b4; stroke: #1f77b4"/>
     <use xlink:href="#m80f1702e56" x="760.247727" y="242.420357" style="fill: #1f77b4; stroke: #1f77b4"/>
     <use xlink:href="#m80f1702e56" x="796.784091" y="242.420357" style="fill: #1f77b4; stroke: #1f77b4"/>
     <use xlink:href="#m80f1702e56" x="833.320455" y="242.420357" style="fill: #1f77b4; stroke: #1f77b4"/>
    </g>
   </g>
   <g id="PathCollection_2">
    <defs>
     <path id="m62fcbac0dc" d="M 0 3 
C 0.795609 3 1.55874 2.683901 2.12132 2.12132 
C 2.683901 1.55874 3 0.795609 3 0 
C 3 -0.795609 2.683901 -1.55874 2.12132 -2.12132 
C 1.55874 -2.683901 0.795609 -3 0 -3 
C -0.795609 -3 -1.55874 -2.683901 -2.12132 -2.12132 
C -2.683901 -1.55874 -3 -0.795609 -3 0 
C -3 0.795609 -2.683901 1.55874 -2.12132 2.12132 
C -1.55874 2.683901 -0.795609 3 0 3 
z
" style="stroke: #ff7f0e"/>
    </defs>
    <g clip-path="url(#p6fa6d501a4)">
     <use xlink:href="#m62fcbac0dc" x="139.129545" y="101.811376" style="fill: #ff7f0e; stroke: #ff7f0e"/>
     <use xlink:href="#m62fcbac0dc" x="175.665909" y="99.192541" style="fill: #ff7f0e; stroke: #ff7f0e"/>
     <use xlink:href="#m62fcbac0dc" x="212.202273" y="96.573705" style="fill: #ff7f0e; stroke: #ff7f0e"/>
     <use xlink:href="#m62fcbac0dc" x="248.738636" y="93.95487" style="fill: #ff7f0e; stroke: #ff7f0e"/>
     <use xlink:href="#m62fcbac0dc" x="285.275" y="91.336035" style="fill: #ff7f0e; stroke: #ff7f0e"/>
     <use xlink:href="#m62fcbac0dc" x="321.811364" y="88.7172" style="fill: #ff7f0e; stroke: #ff7f0e"/>
     <use xlink:href="#m62fcbac0dc" x="358.347727" y="86.098365" style="fill: #ff7f0e; stroke: #ff7f0e"/>
     <use xlink:href="#m62fcbac0dc" x="394.884091" y="83.47953" style="fill: #ff7f0e; stroke: #ff7f0e"/>
     <use xlink:href="#m62fcbac0dc" x="431.420455" y="80.860695" style="fill: #ff7f0e; stroke: #ff7f0e"/>
     <use xlink:href="#m62fcbac0dc" x="467.956818" y="113.550867" style="fill: #ff7f0e; stroke: #ff7f0e"/>
     <use xlink:href="#m62fcbac0dc" x="504.493182" y="51.929091" style="fill: #ff7f0e; stroke: #ff7f0e"/>
     <use xlink:href="#m62fcbac0dc" x="541.029545" y="90.127012" style="fill: #ff7f0e; stroke: #ff7f0e"/>
     <use xlink:href="#m62fcbac0dc" x="577.565909" y="128.324932" style="fill: #ff7f0e; stroke: #ff7f0e"/>
     <use xlink:href="#m62fcbac0dc" x="614.102273" y="271.164856" style="fill: #ff7f0e; stroke: #ff7f0e"/>
     <use xlink:href="#m62fcbac0dc" x="650.638636" y="271.164856" style="fill: #ff7f0e; stroke: #ff7f0e"/>
     <use xlink:href="#m62fcbac0dc" x="687.175" y="271.164856" style="fill: #ff7f0e; stroke: #ff7f0e"/>
     <use xlink:href="#m62fcbac0dc" x="723.711364" y="271.164856" style="fill: #ff7f0e; stroke: #ff7f0e"/>
     <use xlink:href="#m62fcbac0dc" x="760.247727" y="271.164856" style="fill: #ff7f0e; stroke: #ff7f0e"/>
     <use xlink:href="#m62fcbac0dc" x="796.784091" y="271.164856" style="fill: #ff7f0e; stroke: #ff7f0e"/>
     <use xlink:href="#m62fcbac0dc" x="833.320455" y="271.164856" style="fill: #ff7f0e; stroke: #ff7f0e"/>
    </g>
   </g>
   <g id="matplotlib.axis_1">
    <g id="xtick_1">
     <g id="line2d_1">
      <defs>
       <path id="m3385fdae1e" d="M 0 0 
L 0 3.5 
" style="stroke: #000000; stroke-width: 0.8"/>
      </defs>
      <g>
       <use xlink:href="#m3385fdae1e" x="139.129545" y="643.48" style="stroke: #000000; stroke-width: 0.8"/>
      </g>
     </g>
     <g id="text_1">
      <!-- 0.0 -->
      <g transform="translate(121.636108 667.196563) scale(0.22 -0.22)">
       <defs>
        <path id="DejaVuSans-30" d="M 2034 4250 
Q 1547 4250 1301 3770 
Q 1056 3291 1056 2328 
Q 1056 1369 1301 889 
Q 1547 409 2034 409 
Q 2525 409 2770 889 
Q 3016 1369 3016 2328 
Q 3016 3291 2770 3770 
Q 2525 4250 2034 4250 
z
M 2034 4750 
Q 2819 4750 3233 4129 
Q 3647 3509 3647 2328 
Q 3647 1150 3233 529 
Q 2819 -91 2034 -91 
Q 1250 -91 836 529 
Q 422 1150 422 2328 
Q 422 3509 836 4129 
Q 1250 4750 2034 4750 
z
" transform="scale(0.015625)"/>
        <path id="DejaVuSans-2e" d="M 684 794 
L 1344 794 
L 1344 0 
L 684 0 
L 684 794 
z
" transform="scale(0.015625)"/>
       </defs>
       <use xlink:href="#DejaVuSans-30"/>
       <use xlink:href="#DejaVuSans-2e" x="63.623047"/>
       <use xlink:href="#DejaVuSans-30" x="95.410156"/>
      </g>
     </g>
    </g>
    <g id="xtick_2">
     <g id="line2d_2">
      <g>
       <use xlink:href="#m3385fdae1e" x="230.470455" y="643.48" style="stroke: #000000; stroke-width: 0.8"/>
      </g>
     </g>
     <g id="text_2">
      <!-- 2.5 -->
      <g transform="translate(212.977017 667.196563) scale(0.22 -0.22)">
       <defs>
        <path id="DejaVuSans-32" d="M 1228 531 
L 3431 531 
L 3431 0 
L 469 0 
L 469 531 
Q 828 903 1448 1529 
Q 2069 2156 2228 2338 
Q 2531 2678 2651 2914 
Q 2772 3150 2772 3378 
Q 2772 3750 2511 3984 
Q 2250 4219 1831 4219 
Q 1534 4219 1204 4116 
Q 875 4013 500 3803 
L 500 4441 
Q 881 4594 1212 4672 
Q 1544 4750 1819 4750 
Q 2544 4750 2975 4387 
Q 3406 4025 3406 3419 
Q 3406 3131 3298 2873 
Q 3191 2616 2906 2266 
Q 2828 2175 2409 1742 
Q 1991 1309 1228 531 
z
" transform="scale(0.015625)"/>
        <path id="DejaVuSans-35" d="M 691 4666 
L 3169 4666 
L 3169 4134 
L 1269 4134 
L 1269 2991 
Q 1406 3038 1543 3061 
Q 1681 3084 1819 3084 
Q 2600 3084 3056 2656 
Q 3513 2228 3513 1497 
Q 3513 744 3044 326 
Q 2575 -91 1722 -91 
Q 1428 -91 1123 -41 
Q 819 9 494 109 
L 494 744 
Q 775 591 1075 516 
Q 1375 441 1709 441 
Q 2250 441 2565 725 
Q 2881 1009 2881 1497 
Q 2881 1984 2565 2268 
Q 2250 2553 1709 2553 
Q 1456 2553 1204 2497 
Q 953 2441 691 2322 
L 691 4666 
z
" transform="scale(0.015625)"/>
       </defs>
       <use xlink:href="#DejaVuSans-32"/>
       <use xlink:href="#DejaVuSans-2e" x="63.623047"/>
       <use xlink:href="#DejaVuSans-35" x="95.410156"/>
      </g>
     </g>
    </g>
    <g id="xtick_3">
     <g id="line2d_3">
      <g>
       <use xlink:href="#m3385fdae1e" x="321.811364" y="643.48" style="stroke: #000000; stroke-width: 0.8"/>
      </g>
     </g>
     <g id="text_3">
      <!-- 5.0 -->
      <g transform="translate(304.317926 667.196563) scale(0.22 -0.22)">
       <use xlink:href="#DejaVuSans-35"/>
       <use xlink:href="#DejaVuSans-2e" x="63.623047"/>
       <use xlink:href="#DejaVuSans-30" x="95.410156"/>
      </g>
     </g>
    </g>
    <g id="xtick_4">
     <g id="line2d_4">
      <g>
       <use xlink:href="#m3385fdae1e" x="413.152273" y="643.48" style="stroke: #000000; stroke-width: 0.8"/>
      </g>
     </g>
     <g id="text_4">
      <!-- 7.5 -->
      <g transform="translate(395.658835 667.196563) scale(0.22 -0.22)">
       <defs>
        <path id="DejaVuSans-37" d="M 525 4666 
L 3525 4666 
L 3525 4397 
L 1831 0 
L 1172 0 
L 2766 4134 
L 525 4134 
L 525 4666 
z
" transform="scale(0.015625)"/>
       </defs>
       <use xlink:href="#DejaVuSans-37"/>
       <use xlink:href="#DejaVuSans-2e" x="63.623047"/>
       <use xlink:href="#DejaVuSans-35" x="95.410156"/>
      </g>
     </g>
    </g>
    <g id="xtick_5">
     <g id="line2d_5">
      <g>
       <use xlink:href="#m3385fdae1e" x="504.493182" y="643.48" style="stroke: #000000; stroke-width: 0.8"/>
      </g>
     </g>
     <g id="text_5">
      <!-- 10.0 -->
      <g transform="translate(480.000994 667.196563) scale(0.22 -0.22)">
       <defs>
        <path id="DejaVuSans-31" d="M 794 531 
L 1825 531 
L 1825 4091 
L 703 3866 
L 703 4441 
L 1819 4666 
L 2450 4666 
L 2450 531 
L 3481 531 
L 3481 0 
L 794 0 
L 794 531 
z
" transform="scale(0.015625)"/>
       </defs>
       <use xlink:href="#DejaVuSans-31"/>
       <use xlink:href="#DejaVuSans-30" x="63.623047"/>
       <use xlink:href="#DejaVuSans-2e" x="127.246094"/>
       <use xlink:href="#DejaVuSans-30" x="159.033203"/>
      </g>
     </g>
    </g>
    <g id="xtick_6">
     <g id="line2d_6">
      <g>
       <use xlink:href="#m3385fdae1e" x="595.834091" y="643.48" style="stroke: #000000; stroke-width: 0.8"/>
      </g>
     </g>
     <g id="text_6">
      <!-- 12.5 -->
      <g transform="translate(571.341903 667.196563) scale(0.22 -0.22)">
       <use xlink:href="#DejaVuSans-31"/>
       <use xlink:href="#DejaVuSans-32" x="63.623047"/>
       <use xlink:href="#DejaVuSans-2e" x="127.246094"/>
       <use xlink:href="#DejaVuSans-35" x="159.033203"/>
      </g>
     </g>
    </g>
    <g id="xtick_7">
     <g id="line2d_7">
      <g>
       <use xlink:href="#m3385fdae1e" x="687.175" y="643.48" style="stroke: #000000; stroke-width: 0.8"/>
      </g>
     </g>
     <g id="text_7">
      <!-- 15.0 -->
      <g transform="translate(662.682812 667.196563) scale(0.22 -0.22)">
       <use xlink:href="#DejaVuSans-31"/>
       <use xlink:href="#DejaVuSans-35" x="63.623047"/>
       <use xlink:href="#DejaVuSans-2e" x="127.246094"/>
       <use xlink:href="#DejaVuSans-30" x="159.033203"/>
      </g>
     </g>
    </g>
    <g id="xtick_8">
     <g id="line2d_8">
      <g>
       <use xlink:href="#m3385fdae1e" x="778.515909" y="643.48" style="stroke: #000000; stroke-width: 0.8"/>
      </g>
     </g>
     <g id="text_8">
      <!-- 17.5 -->
      <g transform="translate(754.023722 667.196563) scale(0.22 -0.22)">
       <use xlink:href="#DejaVuSans-31"/>
       <use xlink:href="#DejaVuSans-37" x="63.623047"/>
       <use xlink:href="#DejaVuSans-2e" x="127.246094"/>
       <use xlink:href="#DejaVuSans-35" x="159.033203"/>
      </g>
     </g>
    </g>
    <g id="text_9">
     <!-- Time (days) -->
     <g transform="translate(421.266562 692.488438) scale(0.22 -0.22)">
      <defs>
       <path id="DejaVuSans-54" d="M -19 4666 
L 3928 4666 
L 3928 4134 
L 2272 4134 
L 2272 0 
L 1638 0 
L 1638 4134 
L -19 4134 
L -19 4666 
z
" transform="scale(0.015625)"/>
       <path id="DejaVuSans-69" d="M 603 3500 
L 1178 3500 
L 1178 0 
L 603 0 
L 603 3500 
z
M 603 4863 
L 1178 4863 
L 1178 4134 
L 603 4134 
L 603 4863 
z
" transform="scale(0.015625)"/>
       <path id="DejaVuSans-6d" d="M 3328 2828 
Q 3544 3216 3844 3400 
Q 4144 3584 4550 3584 
Q 5097 3584 5394 3201 
Q 5691 2819 5691 2113 
L 5691 0 
L 5113 0 
L 5113 2094 
Q 5113 2597 4934 2840 
Q 4756 3084 4391 3084 
Q 3944 3084 3684 2787 
Q 3425 2491 3425 1978 
L 3425 0 
L 2847 0 
L 2847 2094 
Q 2847 2600 2669 2842 
Q 2491 3084 2119 3084 
Q 1678 3084 1418 2786 
Q 1159 2488 1159 1978 
L 1159 0 
L 581 0 
L 581 3500 
L 1159 3500 
L 1159 2956 
Q 1356 3278 1631 3431 
Q 1906 3584 2284 3584 
Q 2666 3584 2933 3390 
Q 3200 3197 3328 2828 
z
" transform="scale(0.015625)"/>
       <path id="DejaVuSans-65" d="M 3597 1894 
L 3597 1613 
L 953 1613 
Q 991 1019 1311 708 
Q 1631 397 2203 397 
Q 2534 397 2845 478 
Q 3156 559 3463 722 
L 3463 178 
Q 3153 47 2828 -22 
Q 2503 -91 2169 -91 
Q 1331 -91 842 396 
Q 353 884 353 1716 
Q 353 2575 817 3079 
Q 1281 3584 2069 3584 
Q 2775 3584 3186 3129 
Q 3597 2675 3597 1894 
z
M 3022 2063 
Q 3016 2534 2758 2815 
Q 2500 3097 2075 3097 
Q 1594 3097 1305 2825 
Q 1016 2553 972 2059 
L 3022 2063 
z
" transform="scale(0.015625)"/>
       <path id="DejaVuSans-20" transform="scale(0.015625)"/>
       <path id="DejaVuSans-28" d="M 1984 4856 
Q 1566 4138 1362 3434 
Q 1159 2731 1159 2009 
Q 1159 1288 1364 580 
Q 1569 -128 1984 -844 
L 1484 -844 
Q 1016 -109 783 600 
Q 550 1309 550 2009 
Q 550 2706 781 3412 
Q 1013 4119 1484 4856 
L 1984 4856 
z
" transform="scale(0.015625)"/>
       <path id="DejaVuSans-64" d="M 2906 2969 
L 2906 4863 
L 3481 4863 
L 3481 0 
L 2906 0 
L 2906 525 
Q 2725 213 2448 61 
Q 2172 -91 1784 -91 
Q 1150 -91 751 415 
Q 353 922 353 1747 
Q 353 2572 751 3078 
Q 1150 3584 1784 3584 
Q 2172 3584 2448 3432 
Q 2725 3281 2906 2969 
z
M 947 1747 
Q 947 1113 1208 752 
Q 1469 391 1925 391 
Q 2381 391 2643 752 
Q 2906 1113 2906 1747 
Q 2906 2381 2643 2742 
Q 2381 3103 1925 3103 
Q 1469 3103 1208 2742 
Q 947 2381 947 1747 
z
" transform="scale(0.015625)"/>
       <path id="DejaVuSans-61" d="M 2194 1759 
Q 1497 1759 1228 1600 
Q 959 1441 959 1056 
Q 959 750 1161 570 
Q 1363 391 1709 391 
Q 2188 391 2477 730 
Q 2766 1069 2766 1631 
L 2766 1759 
L 2194 1759 
z
M 3341 1997 
L 3341 0 
L 2766 0 
L 2766 531 
Q 2569 213 2275 61 
Q 1981 -91 1556 -91 
Q 1019 -91 701 211 
Q 384 513 384 1019 
Q 384 1609 779 1909 
Q 1175 2209 1959 2209 
L 2766 2209 
L 2766 2266 
Q 2766 2663 2505 2880 
Q 2244 3097 1772 3097 
Q 1472 3097 1187 3025 
Q 903 2953 641 2809 
L 641 3341 
Q 956 3463 1253 3523 
Q 1550 3584 1831 3584 
Q 2591 3584 2966 3190 
Q 3341 2797 3341 1997 
z
" transform="scale(0.015625)"/>
       <path id="DejaVuSans-79" d="M 2059 -325 
Q 1816 -950 1584 -1140 
Q 1353 -1331 966 -1331 
L 506 -1331 
L 506 -850 
L 844 -850 
Q 1081 -850 1212 -737 
Q 1344 -625 1503 -206 
L 1606 56 
L 191 3500 
L 800 3500 
L 1894 763 
L 2988 3500 
L 3597 3500 
L 2059 -325 
z
" transform="scale(0.015625)"/>
       <path id="DejaVuSans-73" d="M 2834 3397 
L 2834 2853 
Q 2591 2978 2328 3040 
Q 2066 3103 1784 3103 
Q 1356 3103 1142 2972 
Q 928 2841 928 2578 
Q 928 2378 1081 2264 
Q 1234 2150 1697 2047 
L 1894 2003 
Q 2506 1872 2764 1633 
Q 3022 1394 3022 966 
Q 3022 478 2636 193 
Q 2250 -91 1575 -91 
Q 1294 -91 989 -36 
Q 684 19 347 128 
L 347 722 
Q 666 556 975 473 
Q 1284 391 1588 391 
Q 1994 391 2212 530 
Q 2431 669 2431 922 
Q 2431 1156 2273 1281 
Q 2116 1406 1581 1522 
L 1381 1569 
Q 847 1681 609 1914 
Q 372 2147 372 2553 
Q 372 3047 722 3315 
Q 1072 3584 1716 3584 
Q 2034 3584 2315 3537 
Q 2597 3491 2834 3397 
z
" transform="scale(0.015625)"/>
       <path id="DejaVuSans-29" d="M 513 4856 
L 1013 4856 
Q 1481 4119 1714 3412 
Q 1947 2706 1947 2009 
Q 1947 1309 1714 600 
Q 1481 -109 1013 -844 
L 513 -844 
Q 928 -128 1133 580 
Q 1338 1288 1338 2009 
Q 1338 2731 1133 3434 
Q 928 4138 513 4856 
z
" transform="scale(0.015625)"/>
      </defs>
      <use xlink:href="#DejaVuSans-54"/>
      <use xlink:href="#DejaVuSans-69" x="57.958984"/>
      <use xlink:href="#DejaVuSans-6d" x="85.742188"/>
      <use xlink:href="#DejaVuSans-65" x="183.154297"/>
      <use xlink:href="#DejaVuSans-20" x="244.677734"/>
      <use xlink:href="#DejaVuSans-28" x="276.464844"/>
      <use xlink:href="#DejaVuSans-64" x="315.478516"/>
      <use xlink:href="#DejaVuSans-61" x="378.955078"/>
      <use xlink:href="#DejaVuSans-79" x="440.234375"/>
      <use xlink:href="#DejaVuSans-73" x="499.414062"/>
      <use xlink:href="#DejaVuSans-29" x="551.513672"/>
     </g>
    </g>
   </g>
   <g id="matplotlib.axis_2">
    <g id="ytick_1">
     <g id="line2d_9">
      <defs>
       <path id="ma600d9e374" d="M 0 0 
L -3.5 0 
" style="stroke: #000000; stroke-width: 0.8"/>
      </defs>
      <g>
       <use xlink:href="#ma600d9e374" x="104.42" y="615.655789" style="stroke: #000000; stroke-width: 0.8"/>
      </g>
     </g>
     <g id="text_10">
      <!-- 0.00 -->
      <g transform="translate(48.435625 624.01407) scale(0.22 -0.22)">
       <use xlink:href="#DejaVuSans-30"/>
       <use xlink:href="#DejaVuSans-2e" x="63.623047"/>
       <use xlink:href="#DejaVuSans-30" x="95.410156"/>
       <use xlink:href="#DejaVuSans-30" x="159.033203"/>
      </g>
     </g>
    </g>
    <g id="ytick_2">
     <g id="line2d_10">
      <g>
       <use xlink:href="#ma600d9e374" x="104.42" y="535.500127" style="stroke: #000000; stroke-width: 0.8"/>
      </g>
     </g>
     <g id="text_11">
      <!-- 0.25 -->
      <g transform="translate(48.435625 543.858409) scale(0.22 -0.22)">
       <use xlink:href="#DejaVuSans-30"/>
       <use xlink:href="#DejaVuSans-2e" x="63.623047"/>
       <use xlink:href="#DejaVuSans-32" x="95.410156"/>
       <use xlink:href="#DejaVuSans-35" x="159.033203"/>
      </g>
     </g>
    </g>
    <g id="ytick_3">
     <g id="line2d_11">
      <g>
       <use xlink:href="#ma600d9e374" x="104.42" y="455.344465" style="stroke: #000000; stroke-width: 0.8"/>
      </g>
     </g>
     <g id="text_12">
      <!-- 0.50 -->
      <g transform="translate(48.435625 463.702747) scale(0.22 -0.22)">
       <use xlink:href="#DejaVuSans-30"/>
       <use xlink:href="#DejaVuSans-2e" x="63.623047"/>
       <use xlink:href="#DejaVuSans-35" x="95.410156"/>
       <use xlink:href="#DejaVuSans-30" x="159.033203"/>
      </g>
     </g>
    </g>
    <g id="ytick_4">
     <g id="line2d_12">
      <g>
       <use xlink:href="#ma600d9e374" x="104.42" y="375.188804" style="stroke: #000000; stroke-width: 0.8"/>
      </g>
     </g>
     <g id="text_13">
      <!-- 0.75 -->
      <g transform="translate(48.435625 383.547085) scale(0.22 -0.22)">
       <use xlink:href="#DejaVuSans-30"/>
       <use xlink:href="#DejaVuSans-2e" x="63.623047"/>
       <use xlink:href="#DejaVuSans-37" x="95.410156"/>
       <use xlink:href="#DejaVuSans-35" x="159.033203"/>
      </g>
     </g>
    </g>
    <g id="ytick_5">
     <g id="line2d_13">
      <g>
       <use xlink:href="#ma600d9e374" x="104.42" y="295.033142" style="stroke: #000000; stroke-width: 0.8"/>
      </g>
     </g>
     <g id="text_14">
      <!-- 1.00 -->
      <g transform="translate(48.435625 303.391423) scale(0.22 -0.22)">
       <use xlink:href="#DejaVuSans-31"/>
       <use xlink:href="#DejaVuSans-2e" x="63.623047"/>
       <use xlink:href="#DejaVuSans-30" x="95.410156"/>
       <use xlink:href="#DejaVuSans-30" x="159.033203"/>
      </g>
     </g>
    </g>
    <g id="ytick_6">
     <g id="line2d_14">
      <g>
       <use xlink:href="#ma600d9e374" x="104.42" y="214.87748" style="stroke: #000000; stroke-width: 0.8"/>
      </g>
     </g>
     <g id="text_15">
      <!-- 1.25 -->
      <g transform="translate(48.435625 223.235761) scale(0.22 -0.22)">
       <use xlink:href="#DejaVuSans-31"/>
       <use xlink:href="#DejaVuSans-2e" x="63.623047"/>
       <use xlink:href="#DejaVuSans-32" x="95.410156"/>
       <use xlink:href="#DejaVuSans-35" x="159.033203"/>
      </g>
     </g>
    </g>
    <g id="ytick_7">
     <g id="line2d_15">
      <g>
       <use xlink:href="#ma600d9e374" x="104.42" y="134.721818" style="stroke: #000000; stroke-width: 0.8"/>
      </g>
     </g>
     <g id="text_16">
      <!-- 1.50 -->
      <g transform="translate(48.435625 143.080099) scale(0.22 -0.22)">
       <use xlink:href="#DejaVuSans-31"/>
       <use xlink:href="#DejaVuSans-2e" x="63.623047"/>
       <use xlink:href="#DejaVuSans-35" x="95.410156"/>
       <use xlink:href="#DejaVuSans-30" x="159.033203"/>
      </g>
     </g>
    </g>
    <g id="ytick_8">
     <g id="line2d_16">
      <g>
       <use xlink:href="#ma600d9e374" x="104.42" y="54.566156" style="stroke: #000000; stroke-width: 0.8"/>
      </g>
     </g>
     <g id="text_17">
      <!-- 1.75 -->
      <g transform="translate(48.435625 62.924438) scale(0.22 -0.22)">
       <use xlink:href="#DejaVuSans-31"/>
       <use xlink:href="#DejaVuSans-2e" x="63.623047"/>
       <use xlink:href="#DejaVuSans-37" x="95.410156"/>
       <use xlink:href="#DejaVuSans-35" x="159.033203"/>
      </g>
     </g>
    </g>
    <g id="text_18">
     <!-- X:A -->
     <g transform="translate(39.860313 352.385312) rotate(-90) scale(0.22 -0.22)">
      <defs>
       <path id="DejaVuSans-58" d="M 403 4666 
L 1081 4666 
L 2241 2931 
L 3406 4666 
L 4084 4666 
L 2584 2425 
L 4184 0 
L 3506 0 
L 2194 1984 
L 872 0 
L 191 0 
L 1856 2491 
L 403 4666 
z
" transform="scale(0.015625)"/>
       <path id="DejaVuSans-3a" d="M 750 794 
L 1409 794 
L 1409 0 
L 750 0 
L 750 794 
z
M 750 3309 
L 1409 3309 
L 1409 2516 
L 750 2516 
L 750 3309 
z
" transform="scale(0.015625)"/>
       <path id="DejaVuSans-41" d="M 2188 4044 
L 1331 1722 
L 3047 1722 
L 2188 4044 
z
M 1831 4666 
L 2547 4666 
L 4325 0 
L 3669 0 
L 3244 1197 
L 1141 1197 
L 716 0 
L 50 0 
L 1831 4666 
z
" transform="scale(0.015625)"/>
      </defs>
      <use xlink:href="#DejaVuSans-58"/>
      <use xlink:href="#DejaVuSans-3a" x="68.505859"/>
      <use xlink:href="#DejaVuSans-41" x="102.197266"/>
     </g>
    </g>
   </g>
   <g id="line2d_17">
    <path d="M 139.129545 615.310909 
L 146.141575 592.019807 
L 153.153604 578.919288 
L 160.165634 570.680118 
L 167.177663 565.066491 
L 174.189692 561.042001 
L 181.201722 558.039348 
L 188.213751 555.64913 
L 195.225781 553.715123 
L 202.23781 552.103185 
L 209.249839 550.686643 
L 216.261869 549.4221 
L 223.273898 548.286875 
L 230.285927 547.248165 
L 237.297957 546.266165 
L 244.309986 545.32826 
L 251.322016 544.435833 
L 258.334045 543.583989 
L 265.346074 542.763543 
L 272.358104 541.961024 
L 279.370133 541.164486 
L 286.382163 540.377811 
L 293.394192 539.602006 
L 300.406221 538.835934 
L 307.418251 538.07653 
L 314.43028 537.318802 
L 321.442309 536.555827 
L 328.454339 535.778721 
L 335.466368 534.980403 
L 342.478398 534.165348 
L 349.490427 533.337913 
L 356.502456 532.49953 
L 363.514486 531.648714 
L 370.526515 530.781058 
L 377.538545 529.889231 
L 384.550574 528.962986 
L 391.562603 527.989152 
L 398.574633 526.951638 
L 405.586662 525.838182 
L 412.598691 524.657994 
L 419.610721 523.416716 
L 426.62275 522.112154 
L 433.63478 520.734373 
L 440.646809 519.265695 
L 447.658838 517.680703 
L 454.670868 515.946234 
L 461.682897 514.022786 
L 468.694927 511.8933 
L 475.706956 509.551531 
L 482.718985 506.974167 
L 489.731015 504.120825 
L 496.743044 500.934062 
L 503.755073 497.339367 
L 510.767103 493.245162 
L 517.779132 488.542807 
L 524.791162 483.146186 
L 531.803191 476.93592 
L 538.81522 469.739431 
L 545.82725 461.419853 
L 552.839279 451.876446 
L 559.851309 441.044607 
L 566.863338 428.895861 
L 573.875367 415.433377 
L 580.887397 400.774612 
L 587.899426 385.488239 
L 594.911455 370.152382 
L 601.923485 355.251395 
L 608.935514 341.175859 
L 615.947544 328.222586 
L 622.959573 316.594615 
L 629.971602 306.397925 
L 636.983632 297.652361 
L 643.995661 290.326485 
L 651.007691 284.309829 
L 658.01972 279.410387 
L 665.031749 275.365107 
L 672.043779 272.038757 
L 679.055808 269.369648 
L 686.067837 267.264195 
L 693.079867 265.607866 
L 700.091896 264.265554 
L 707.103926 263.144148 
L 714.115955 262.241104 
L 721.127984 261.545063 
L 728.140014 261.028438 
L 735.152043 260.647414 
L 742.164073 260.341948 
L 749.176102 260.047549 
L 756.188131 259.777852 
L 763.200161 259.560918 
L 770.21219 259.409792 
L 777.224219 259.324469 
L 784.236249 259.291893 
L 791.248278 259.285956 
L 798.260308 259.267499 
L 805.272337 259.200898 
L 812.284366 259.140797 
L 819.296396 259.097874 
L 826.308425 259.068292 
L 833.320455 259.045293 
" clip-path="url(#p6fa6d501a4)" style="fill: none; stroke: #d0e1f2; stroke-width: 1.5; stroke-linecap: square"/>
   </g>
   <g id="line2d_18">
    <path d="M 139.129545 101.811376 
L 146.141575 138.832522 
L 153.153604 162.591225 
L 160.165634 177.997072 
L 167.177663 188.10993 
L 174.189692 194.768451 
L 181.201722 199.129003 
L 188.213751 202.089315 
L 195.225781 204.028672 
L 202.23781 205.265684 
L 209.249839 206.130655 
L 216.261869 206.724208 
L 223.273898 207.079322 
L 230.285927 207.273928 
L 237.297957 207.422063 
L 244.309986 207.546638 
L 251.322016 207.618497 
L 258.334045 207.634902 
L 265.346074 207.613328 
L 272.358104 207.591468 
L 279.370133 207.603701 
L 286.382163 207.620543 
L 293.394192 207.623602 
L 300.406221 207.604193 
L 307.418251 207.562494 
L 314.43028 207.507551 
L 321.442309 207.457273 
L 328.454339 207.438666 
L 335.466368 207.472732 
L 342.478398 207.525817 
L 349.490427 207.562625 
L 356.502456 207.560135 
L 363.514486 207.507606 
L 370.526515 207.406571 
L 377.538545 207.270845 
L 384.550574 207.126515 
L 391.562603 207.011951 
L 398.574633 206.977796 
L 405.586662 207.053793 
L 412.598691 207.160127 
L 419.610721 207.226552 
L 426.62275 207.212734 
L 433.63478 207.10779 
L 440.646809 206.930287 
L 447.658838 206.728247 
L 454.670868 206.579143 
L 461.682897 206.579365 
L 468.694927 206.672066 
L 475.706956 206.746782 
L 482.718985 206.738687 
L 489.731015 206.617329 
L 496.743044 206.386634 
L 503.755073 206.0849 
L 510.767103 205.7848 
L 517.779132 205.593386 
L 524.791162 205.544257 
L 531.803191 205.477058 
L 538.81522 205.299221 
L 545.82725 204.959837 
L 552.839279 204.449111 
L 559.851309 203.798362 
L 566.863338 203.080024 
L 573.875367 202.405658 
L 580.887397 201.777985 
L 587.899426 201.015292 
L 594.911455 199.998383 
L 601.923485 198.694467 
L 608.935514 197.157163 
L 615.947544 195.526499 
L 622.959573 194.028909 
L 629.971602 192.887974 
L 636.983632 191.867647 
L 643.995661 190.824017 
L 651.007691 189.747173 
L 658.01972 188.737233 
L 665.031749 187.981603 
L 672.043779 187.402247 
L 679.055808 186.8836 
L 686.067837 186.395281 
L 693.079867 185.953718 
L 700.091896 185.621211 
L 707.103926 185.400808 
L 714.115955 185.223511 
L 721.127984 185.056193 
L 728.140014 184.886976 
L 735.152043 184.725222 
L 742.164073 184.601539 
L 749.176102 184.556601 
L 756.188131 184.558155 
L 763.200161 184.559733 
L 770.21219 184.534058 
L 777.224219 184.471474 
L 784.236249 184.379952 
L 791.248278 184.285081 
L 798.260308 184.230079 
L 805.272337 184.254283 
L 812.284366 184.281244 
L 819.296396 184.293714 
L 826.308425 184.295348 
L 833.320455 184.295645 
" clip-path="url(#p6fa6d501a4)" style="fill: none; stroke: #fdd9b4; stroke-width: 1.5; stroke-linecap: square"/>
   </g>
   <g id="line2d_19">
    <path d="M 139.129545 615.310909 
L 146.141575 611.705714 
L 153.153604 609.057381 
L 160.165634 606.965929 
L 167.177663 605.245027 
L 174.189692 603.788823 
L 181.201722 602.525023 
L 188.213751 601.412013 
L 195.225781 600.414329 
L 202.23781 599.506469 
L 209.249839 598.673277 
L 216.261869 597.903931 
L 223.273898 597.182338 
L 230.285927 596.497029 
L 237.297957 595.842936 
L 244.309986 595.221292 
L 251.322016 594.627966 
L 258.334045 594.048298 
L 265.346074 593.476836 
L 272.358104 592.918638 
L 279.370133 592.377694 
L 286.382163 591.838643 
L 293.394192 591.294775 
L 300.406221 590.750612 
L 307.418251 590.215154 
L 314.43028 589.673898 
L 321.442309 589.11618 
L 328.454339 588.544472 
L 335.466368 587.971666 
L 342.478398 587.387562 
L 349.490427 586.7753 
L 356.502456 586.133679 
L 363.514486 585.47564 
L 370.526515 584.794938 
L 377.538545 584.071577 
L 384.550574 583.300927 
L 391.562603 582.4913 
L 398.574633 581.633958 
L 405.586662 580.708547 
L 412.598691 579.706169 
L 419.610721 578.626669 
L 426.62275 577.454345 
L 433.63478 576.163055 
L 440.646809 574.733047 
L 447.658838 573.149647 
L 454.670868 571.383781 
L 461.682897 569.387998 
L 468.694927 567.114022 
L 475.706956 564.512187 
L 482.718985 561.5175 
L 489.731015 558.025226 
L 496.743044 553.912077 
L 503.755073 549.033868 
L 510.767103 543.218484 
L 517.779132 536.216118 
L 524.791162 527.730051 
L 531.803191 517.441128 
L 538.81522 505.015016 
L 545.82725 490.100859 
L 552.839279 472.473294 
L 559.851309 452.208619 
L 566.863338 429.687127 
L 573.875367 405.677281 
L 580.887397 381.193325 
L 587.899426 357.32966 
L 594.911455 335.103244 
L 601.923485 315.142011 
L 608.935514 297.797164 
L 615.947544 283.148704 
L 622.959573 271.02888 
L 629.971602 261.17195 
L 636.983632 253.272075 
L 643.995661 246.998296 
L 651.007691 242.061898 
L 658.01972 238.206555 
L 665.031749 235.201106 
L 672.043779 232.864936 
L 679.055808 231.065792 
L 686.067837 229.685365 
L 693.079867 228.619123 
L 700.091896 227.794541 
L 707.103926 227.160334 
L 714.115955 226.673955 
L 721.127984 226.302422 
L 728.140014 226.0217 
L 735.152043 225.806605 
L 742.164073 225.635488 
L 749.176102 225.501488 
L 756.188131 225.406001 
L 763.200161 225.332616 
L 770.21219 225.272322 
L 777.224219 225.225345 
L 784.236249 225.19475 
L 791.248278 225.170893 
L 798.260308 225.1483 
L 805.272337 225.128614 
L 812.284366 225.118509 
L 819.296396 225.111774 
L 826.308425 225.104282 
L 833.320455 225.09815 
" clip-path="url(#p6fa6d501a4)" style="fill: none; stroke: #79b5d9; stroke-width: 1.5; stroke-linecap: square"/>
   </g>
   <g id="line2d_20">
    <path d="M 139.129545 101.811376 
L 146.141575 94.376712 
L 153.153604 91.247163 
L 160.165634 90.21904 
L 167.177663 89.969078 
L 174.189692 89.997689 
L 181.201722 90.306139 
L 188.213751 90.487005 
L 195.225781 90.715899 
L 202.23781 91.075965 
L 209.249839 91.357519 
L 216.261869 91.367228 
L 223.273898 91.479379 
L 230.285927 91.883832 
L 237.297957 92.42774 
L 244.309986 92.621855 
L 251.322016 92.407089 
L 258.334045 92.512679 
L 265.346074 93.060127 
L 272.358104 93.452168 
L 279.370133 93.184757 
L 286.382163 93.159595 
L 293.394192 93.675476 
L 300.406221 94.219089 
L 307.418251 93.949865 
L 314.43028 93.748896 
L 321.442309 94.226809 
L 328.454339 95.00778 
L 335.466368 94.927284 
L 342.478398 94.526907 
L 349.490427 94.853916 
L 356.502456 95.742443 
L 363.514486 95.919839 
L 370.526515 95.536198 
L 377.538545 95.776858 
L 384.550574 96.58485 
L 391.562603 96.830206 
L 398.574633 96.632465 
L 405.586662 96.952906 
L 412.598691 97.71871 
L 419.610721 98.015283 
L 426.62275 97.991346 
L 433.63478 98.452804 
L 440.646809 99.362735 
L 447.658838 99.913451 
L 454.670868 100.014041 
L 461.682897 100.633474 
L 468.694927 101.917897 
L 475.706956 103.125171 
L 482.718985 103.561318 
L 489.731015 104.480718 
L 496.743044 106.428155 
L 503.755073 108.803746 
L 510.767103 110.418342 
L 517.779132 112.513976 
L 524.791162 116.054311 
L 531.803191 120.655726 
L 538.81522 125.127868 
L 545.82725 130.717169 
L 552.839279 138.443451 
L 559.851309 147.771435 
L 566.863338 157.418439 
L 573.875367 168.426199 
L 580.887397 181.040871 
L 587.899426 193.628456 
L 594.911455 204.831481 
L 601.923485 215.812292 
L 608.935514 226.258296 
L 615.947544 234.581421 
L 622.959573 241.514135 
L 629.971602 247.656877 
L 636.983632 252.538995 
L 643.995661 256.21884 
L 651.007691 259.32765 
L 658.01972 261.914983 
L 665.031749 263.693716 
L 672.043779 265.028111 
L 679.055808 266.25955 
L 686.067837 267.359251 
L 693.079867 267.959914 
L 700.091896 268.125438 
L 707.103926 268.485036 
L 714.115955 269.191299 
L 721.127984 269.847818 
L 728.140014 269.752024 
L 735.152043 269.579681 
L 742.164073 269.813454 
L 749.176102 270.165487 
L 756.188131 270.024604 
L 763.200161 269.922009 
L 770.21219 270.069173 
L 777.224219 270.227717 
L 784.236249 270.055686 
L 791.248278 269.943968 
L 798.260308 270.088956 
L 805.272337 270.328207 
L 812.284366 270.250517 
L 819.296396 270.137046 
L 826.308425 270.169795 
L 833.320455 270.215153 
" clip-path="url(#p6fa6d501a4)" style="fill: none; stroke: #fd9649; stroke-width: 1.5; stroke-linecap: square"/>
   </g>
   <g id="line2d_21">
    <path d="M 139.129545 615.310909 
L 146.141575 604.771184 
L 153.153604 597.722 
L 160.165634 593.004048 
L 167.177663 589.846341 
L 174.189692 587.736975 
L 181.201722 586.312963 
L 188.213751 585.368819 
L 195.225781 584.730154 
L 202.23781 584.291945 
L 209.249839 584.002959 
L 216.261869 583.806668 
L 223.273898 583.659869 
L 230.285927 583.556069 
L 237.297957 583.485317 
L 244.309986 583.430874 
L 251.322016 583.377264 
L 258.334045 583.328184 
L 265.346074 583.284745 
L 272.358104 583.244685 
L 279.370133 583.202459 
L 286.382163 583.150506 
L 293.394192 583.090375 
L 300.406221 583.024344 
L 307.418251 582.952621 
L 314.43028 582.873994 
L 321.442309 582.785834 
L 328.454339 582.684088 
L 335.466368 582.563656 
L 342.478398 582.425435 
L 349.490427 582.268558 
L 356.502456 582.089776 
L 363.514486 581.885356 
L 370.526515 581.651073 
L 377.538545 581.382221 
L 384.550574 581.073604 
L 391.562603 580.71954 
L 398.574633 580.313861 
L 405.586662 579.849704 
L 412.598691 579.316663 
L 419.610721 578.70257 
L 426.62275 577.994679 
L 433.63478 577.179346 
L 440.646809 576.238255 
L 447.658838 575.148338 
L 454.670868 573.885741 
L 461.682897 572.433221 
L 468.694927 570.751029 
L 475.706956 568.772889 
L 482.718985 566.445377 
L 489.731015 563.728513 
L 496.743044 560.593633 
L 503.755073 556.948368 
L 510.767103 552.63427 
L 517.779132 547.526932 
L 524.791162 541.541892 
L 531.803191 534.624641 
L 538.81522 526.509841 
L 545.82725 516.871516 
L 552.839279 505.524228 
L 559.851309 492.424365 
L 566.863338 477.43313 
L 573.875367 460.021102 
L 580.887397 439.892769 
L 587.899426 417.094373 
L 594.911455 391.776492 
L 601.923485 363.723806 
L 608.935514 333.20917 
L 615.947544 301.139003 
L 622.959573 269.102573 
L 629.971602 241.408947 
L 636.983632 222.420252 
L 643.995661 214.931031 
L 651.007691 218.494511 
L 658.01972 227.29336 
L 665.031749 236.288923 
L 672.043779 242.495368 
L 679.055808 244.443299 
L 686.067837 243.864454 
L 693.079867 242.040435 
L 700.091896 239.829124 
L 707.103926 237.861677 
L 714.115955 236.825743 
L 721.127984 236.72228 
L 728.140014 236.930737 
L 735.152043 237.489998 
L 742.164073 238.233296 
L 749.176102 238.857958 
L 756.188131 239.062543 
L 763.200161 239.025656 
L 770.21219 238.830188 
L 777.224219 238.540583 
L 784.236249 238.314949 
L 791.248278 238.323102 
L 798.260308 238.405349 
L 805.272337 238.555789 
L 812.284366 238.754694 
L 819.296396 238.931677 
L 826.308425 238.965692 
L 833.320455 238.685034 
" clip-path="url(#p6fa6d501a4)" style="fill: none; stroke: #2575b7; stroke-width: 1.5; stroke-linecap: square"/>
   </g>
   <g id="line2d_22">
    <path d="M 139.129545 101.811376 
L 146.141575 101.819866 
L 153.153604 101.829548 
L 160.165634 101.840589 
L 167.177663 101.853178 
L 174.189692 101.867534 
L 181.201722 101.883903 
L 188.213751 101.902568 
L 195.225781 101.923851 
L 202.23781 101.948118 
L 209.249839 101.975785 
L 216.261869 102.00733 
L 223.273898 102.043296 
L 230.285927 102.084296 
L 237.297957 102.131035 
L 244.309986 102.184318 
L 251.322016 102.245057 
L 258.334045 102.314283 
L 265.346074 102.393171 
L 272.358104 102.483076 
L 279.370133 102.585534 
L 286.382163 102.702275 
L 293.394192 102.835279 
L 300.406221 102.98673 
L 307.418251 103.159176 
L 314.43028 103.355546 
L 321.442309 103.579152 
L 328.454339 103.833693 
L 335.466368 104.123259 
L 342.478398 104.452551 
L 349.490427 104.826757 
L 356.502456 105.251854 
L 363.514486 105.734708 
L 370.526515 106.283073 
L 377.538545 106.905593 
L 384.550574 107.611799 
L 391.562603 108.412111 
L 398.574633 109.317836 
L 405.586662 110.341269 
L 412.598691 111.496782 
L 419.610721 112.799837 
L 426.62275 114.266971 
L 433.63478 115.915921 
L 440.646809 117.765564 
L 447.658838 119.835661 
L 454.670868 122.146508 
L 461.682897 124.718572 
L 468.694927 127.572618 
L 475.706956 130.72872 
L 482.718985 134.204616 
L 489.731015 138.015687 
L 496.743044 142.174789 
L 503.755073 146.690692 
L 510.767103 151.567335 
L 517.779132 156.802807 
L 524.791162 162.389201 
L 531.803191 168.312749 
L 538.81522 174.553369 
L 545.82725 181.085678 
L 552.839279 187.880165 
L 559.851309 194.903138 
L 566.863338 202.117083 
L 573.875367 209.487962 
L 580.887397 216.977155 
L 587.899426 224.538648 
L 594.911455 232.063654 
L 601.923485 239.563944 
L 608.935514 246.922855 
L 615.947544 253.595316 
L 622.959573 258.650483 
L 629.971602 260.975789 
L 636.983632 259.702085 
L 643.995661 255.106156 
L 651.007691 250.723883 
L 658.01972 248.051183 
L 665.031749 246.557592 
L 672.043779 247.283921 
L 679.055808 248.78277 
L 686.067837 249.734987 
L 693.079867 250.462772 
L 700.091896 250.85083 
L 707.103926 250.904025 
L 714.115955 250.765688 
L 721.127984 250.531841 
L 728.140014 250.22667 
L 735.152043 249.942368 
L 742.164073 249.831657 
L 749.176102 249.899457 
L 756.188131 250.006483 
L 763.200161 250.116394 
L 770.21219 250.191165 
L 777.224219 250.200033 
L 784.236249 250.157548 
L 791.248278 250.096137 
L 798.260308 249.995605 
L 805.272337 249.935179 
L 812.284366 249.962383 
L 819.296396 250.076858 
L 826.308425 250.23036 
L 833.320455 250.326762 
" clip-path="url(#p6fa6d501a4)" style="fill: none; stroke: #dc4c03; stroke-width: 1.5; stroke-linecap: square"/>
   </g>
   <g id="line2d_23">
    <path d="M 139.129545 615.310909 
L 146.141575 514.697991 
L 153.153604 475.909542 
L 160.165634 461.378989 
L 167.177663 455.877812 
L 174.189692 453.712379 
L 181.201722 452.902034 
L 188.213751 452.532442 
L 195.225781 452.417539 
L 202.23781 452.3152 
L 209.249839 452.325895 
L 216.261869 452.294159 
L 223.273898 452.221722 
L 230.285927 452.283407 
L 237.297957 452.376694 
L 244.309986 452.248005 
L 251.322016 452.213897 
L 258.334045 452.383683 
L 265.346074 452.310519 
L 272.358104 452.147089 
L 279.370133 452.34031 
L 286.382163 452.442865 
L 293.394192 452.155286 
L 300.406221 452.267295 
L 307.418251 452.51401 
L 314.43028 452.242816 
L 321.442309 452.270058 
L 328.454339 452.450622 
L 335.466368 452.25806 
L 342.478398 452.288796 
L 349.490427 452.385079 
L 356.502456 452.234406 
L 363.514486 452.277055 
L 370.526515 452.390634 
L 377.538545 452.209907 
L 384.550574 452.216856 
L 391.562603 452.434425 
L 398.574633 452.269782 
L 405.586662 452.128241 
L 412.598691 452.413031 
L 419.610721 452.420389 
L 426.62275 452.16458 
L 433.63478 452.362376 
L 440.646809 452.426157 
L 447.658838 452.231158 
L 454.670868 452.352617 
L 461.682897 452.347937 
L 468.694927 452.233931 
L 475.706956 452.341346 
L 482.718985 452.320007 
L 489.731015 452.19777 
L 496.743044 452.319265 
L 503.755073 452.384698 
L 510.767103 452.150204 
L 517.779132 452.231444 
L 524.791162 452.502199 
L 531.803191 452.242424 
L 538.81522 452.156661 
L 545.82725 452.492827 
L 552.839279 452.35305 
L 559.851309 452.219483 
L 566.863338 452.430178 
L 573.875367 452.313609 
L 580.887397 452.256248 
L 587.899426 452.382606 
L 594.911455 452.266674 
L 601.923485 452.241141 
L 608.935514 452.37778 
L 615.947544 452.260065 
L 622.959573 452.165481 
L 629.971602 452.370394 
L 636.983632 452.391188 
L 643.995661 452.105396 
L 651.007691 452.271811 
L 658.01972 452.555226 
L 665.031749 452.228659 
L 672.043779 452.248484 
L 679.055808 452.502191 
L 686.067837 452.279049 
L 693.079867 452.294353 
L 700.091896 452.386607 
L 707.103926 452.248922 
L 714.115955 452.296939 
L 721.127984 452.356269 
L 728.140014 452.208006 
L 735.152043 452.257327 
L 742.164073 452.41569 
L 749.176102 452.20562 
L 756.188131 452.129911 
L 763.200161 452.440357 
L 770.21219 452.423712 
L 777.224219 452.230727 
L 784.236249 452.383562 
L 791.248278 452.335133 
L 798.260308 452.257056 
L 805.272337 452.356408 
L 812.284366 452.276098 
L 819.296396 452.225429 
L 826.308425 452.354022 
L 833.320455 452.344523 
" clip-path="url(#p6fa6d501a4)" style="fill: none; stroke: #08306b; stroke-width: 1.5; stroke-linecap: square"/>
   </g>
   <g id="line2d_24">
    <path d="M 139.129545 101.811376 
L 146.141575 117.160351 
L 153.153604 134.572989 
L 160.165634 145.796821 
L 167.177663 152.151824 
L 174.189692 155.537597 
L 181.201722 157.295908 
L 188.213751 158.182929 
L 195.225781 158.623687 
L 202.23781 158.849316 
L 209.249839 158.951274 
L 216.261869 158.995837 
L 223.273898 159.01072 
L 230.285927 159.044375 
L 237.297957 159.074966 
L 244.309986 159.022493 
L 251.322016 159.013393 
L 258.334045 159.104746 
L 265.346074 159.066868 
L 272.358104 158.980651 
L 279.370133 159.086514 
L 286.382163 159.142355 
L 293.394192 158.98617 
L 300.406221 159.04767 
L 307.418251 159.182222 
L 314.43028 159.034181 
L 321.442309 159.049291 
L 328.454339 159.147952 
L 335.466368 159.042601 
L 342.478398 159.05951 
L 349.490427 159.112186 
L 356.502456 159.0297 
L 363.514486 159.053081 
L 370.526515 159.115232 
L 377.538545 159.016357 
L 384.550574 159.020196 
L 391.562603 159.139157 
L 398.574633 159.049154 
L 405.586662 158.971959 
L 412.598691 159.127464 
L 419.610721 159.131298 
L 426.62275 158.991728 
L 433.63478 159.099857 
L 440.646809 159.134509 
L 447.658838 159.027929 
L 454.670868 159.094468 
L 461.682897 159.091832 
L 468.694927 159.029442 
L 475.706956 159.088281 
L 482.718985 159.076566 
L 489.731015 159.009685 
L 496.743044 159.07619 
L 503.755073 159.111952 
L 510.767103 158.983827 
L 517.779132 159.028265 
L 524.791162 159.176111 
L 531.803191 159.034227 
L 538.81522 158.987582 
L 545.82725 159.171014 
L 552.839279 159.094468 
L 559.851309 159.021644 
L 566.863338 159.136881 
L 573.875367 159.073006 
L 580.887397 159.041673 
L 587.899426 159.110868 
L 594.911455 159.047359 
L 601.923485 159.033405 
L 608.935514 159.108215 
L 615.947544 159.04379 
L 622.959573 158.992103 
L 629.971602 159.104154 
L 636.983632 159.115461 
L 643.995661 158.959539 
L 651.007691 159.050429 
L 658.01972 159.204921 
L 665.031749 159.026626 
L 672.043779 159.037668 
L 679.055808 159.176128 
L 686.067837 159.054059 
L 693.079867 159.06256 
L 700.091896 159.113031 
L 707.103926 159.03763 
L 714.115955 159.063958 
L 721.127984 159.096428 
L 728.140014 159.015274 
L 735.152043 159.042289 
L 742.164073 159.12893 
L 749.176102 159.014123 
L 756.188131 158.972847 
L 763.200161 159.142351 
L 770.21219 159.133067 
L 777.224219 159.02769 
L 784.236249 159.111394 
L 791.248278 159.084803 
L 798.260308 159.042085 
L 805.272337 159.096528 
L 812.284366 159.05252 
L 819.296396 159.024789 
L 826.308425 159.095207 
L 833.320455 159.089966 
" clip-path="url(#p6fa6d501a4)" style="fill: none; stroke: #7f2704; stroke-width: 1.5; stroke-linecap: square"/>
   </g>
   <g id="patch_3">
    <path d="M 104.42 643.48 
L 104.42 23.76 
" style="fill: none; stroke: #000000; stroke-width: 0.8; stroke-linejoin: miter; stroke-linecap: square"/>
   </g>
   <g id="patch_4">
    <path d="M 868.03 643.48 
L 868.03 23.76 
" style="fill: none; stroke: #000000; stroke-width: 0.8; stroke-linejoin: miter; stroke-linecap: square"/>
   </g>
   <g id="patch_5">
    <path d="M 104.42 643.48 
L 868.03 643.48 
" style="fill: none; stroke: #000000; stroke-width: 0.8; stroke-linejoin: miter; stroke-linecap: square"/>
   </g>
   <g id="patch_6">
    <path d="M 104.42 23.76 
L 868.03 23.76 
" style="fill: none; stroke: #000000; stroke-width: 0.8; stroke-linejoin: miter; stroke-linecap: square"/>
   </g>
   <g id="legend_1">
    <g id="patch_7">
     <path d="M 883.43 364.27875 
L 1051.836562 364.27875 
Q 1056.236562 364.27875 1056.236562 359.87875 
L 1056.236562 39.16 
Q 1056.236562 34.76 1051.836562 34.76 
L 883.43 34.76 
Q 879.03 34.76 879.03 39.16 
L 879.03 359.87875 
Q 879.03 364.27875 883.43 364.27875 
z
" style="fill: #ffffff; opacity: 0.8; stroke: #cccccc; stroke-linejoin: miter"/>
    </g>
    <g id="PathCollection_3">
     <g>
      <use xlink:href="#m80f1702e56" x="909.83" y="54.501563" style="fill: #1f77b4; stroke: #1f77b4"/>
     </g>
    </g>
    <g id="text_19">
     <!-- Xi -->
     <g transform="translate(949.43 60.276563) scale(0.22 -0.22)">
      <use xlink:href="#DejaVuSans-58"/>
      <use xlink:href="#DejaVuSans-69" x="68.505859"/>
     </g>
    </g>
    <g id="PathCollection_4">
     <g>
      <use xlink:href="#m62fcbac0dc" x="909.83" y="86.793438" style="fill: #ff7f0e; stroke: #ff7f0e"/>
     </g>
    </g>
    <g id="text_20">
     <!-- Xa -->
     <g transform="translate(949.43 92.568438) scale(0.22 -0.22)">
      <use xlink:href="#DejaVuSans-58"/>
      <use xlink:href="#DejaVuSans-61" x="68.505859"/>
     </g>
    </g>
    <g id="line2d_25">
     <path d="M 887.83 117.160313 
L 909.83 117.160313 
L 931.83 117.160313 
" style="fill: none; stroke: #d0e1f2; stroke-width: 1.5; stroke-linecap: square"/>
    </g>
    <g id="text_21">
     <!-- Xi-AAAA -->
     <g transform="translate(949.43 124.860313) scale(0.22 -0.22)">
      <defs>
       <path id="DejaVuSans-2d" d="M 313 2009 
L 1997 2009 
L 1997 1497 
L 313 1497 
L 313 2009 
z
" transform="scale(0.015625)"/>
      </defs>
      <use xlink:href="#DejaVuSans-58"/>
      <use xlink:href="#DejaVuSans-69" x="68.505859"/>
      <use xlink:href="#DejaVuSans-2d" x="96.289062"/>
      <use xlink:href="#DejaVuSans-41" x="130.123047"/>
      <use xlink:href="#DejaVuSans-41" x="201.28125"/>
      <use xlink:href="#DejaVuSans-41" x="272.439453"/>
      <use xlink:href="#DejaVuSans-41" x="343.597656"/>
     </g>
    </g>
    <g id="line2d_26">
     <path d="M 887.83 149.452188 
L 909.83 149.452188 
L 931.83 149.452188 
" style="fill: none; stroke: #fdd9b4; stroke-width: 1.5; stroke-linecap: square"/>
    </g>
    <g id="text_22">
     <!-- Xa-AAAA -->
     <g transform="translate(949.43 157.152188) scale(0.22 -0.22)">
      <use xlink:href="#DejaVuSans-58"/>
      <use xlink:href="#DejaVuSans-61" x="68.505859"/>
      <use xlink:href="#DejaVuSans-2d" x="129.785156"/>
      <use xlink:href="#DejaVuSans-41" x="163.619141"/>
      <use xlink:href="#DejaVuSans-41" x="234.777344"/>
      <use xlink:href="#DejaVuSans-41" x="305.935547"/>
      <use xlink:href="#DejaVuSans-41" x="377.09375"/>
     </g>
    </g>
    <g id="line2d_27">
     <path d="M 887.83 181.744063 
L 909.83 181.744063 
L 931.83 181.744063 
" style="fill: none; stroke: #79b5d9; stroke-width: 1.5; stroke-linecap: square"/>
    </g>
    <g id="text_23">
     <!-- Xi-AIAA -->
     <g transform="translate(949.43 189.444063) scale(0.22 -0.22)">
      <defs>
       <path id="DejaVuSans-49" d="M 628 4666 
L 1259 4666 
L 1259 0 
L 628 0 
L 628 4666 
z
" transform="scale(0.015625)"/>
      </defs>
      <use xlink:href="#DejaVuSans-58"/>
      <use xlink:href="#DejaVuSans-69" x="68.505859"/>
      <use xlink:href="#DejaVuSans-2d" x="96.289062"/>
      <use xlink:href="#DejaVuSans-41" x="130.123047"/>
      <use xlink:href="#DejaVuSans-49" x="198.53125"/>
      <use xlink:href="#DejaVuSans-41" x="228.023438"/>
      <use xlink:href="#DejaVuSans-41" x="299.181641"/>
     </g>
    </g>
    <g id="line2d_28">
     <path d="M 887.83 214.035938 
L 909.83 214.035938 
L 931.83 214.035938 
" style="fill: none; stroke: #fd9649; stroke-width: 1.5; stroke-linecap: square"/>
    </g>
    <g id="text_24">
     <!-- Xa-AIAA -->
     <g transform="translate(949.43 221.735938) scale(0.22 -0.22)">
      <use xlink:href="#DejaVuSans-58"/>
      <use xlink:href="#DejaVuSans-61" x="68.505859"/>
      <use xlink:href="#DejaVuSans-2d" x="129.785156"/>
      <use xlink:href="#DejaVuSans-41" x="163.619141"/>
      <use xlink:href="#DejaVuSans-49" x="232.027344"/>
      <use xlink:href="#DejaVuSans-41" x="261.519531"/>
      <use xlink:href="#DejaVuSans-41" x="332.677734"/>
     </g>
    </g>
    <g id="line2d_29">
     <path d="M 887.83 246.327813 
L 909.83 246.327813 
L 931.83 246.327813 
" style="fill: none; stroke: #2575b7; stroke-width: 1.5; stroke-linecap: square"/>
    </g>
    <g id="text_25">
     <!-- Xi-IAAA -->
     <g transform="translate(949.43 254.027813) scale(0.22 -0.22)">
      <use xlink:href="#DejaVuSans-58"/>
      <use xlink:href="#DejaVuSans-69" x="68.505859"/>
      <use xlink:href="#DejaVuSans-2d" x="96.289062"/>
      <use xlink:href="#DejaVuSans-49" x="132.373047"/>
      <use xlink:href="#DejaVuSans-41" x="161.865234"/>
      <use xlink:href="#DejaVuSans-41" x="233.023438"/>
      <use xlink:href="#DejaVuSans-41" x="304.181641"/>
     </g>
    </g>
    <g id="line2d_30">
     <path d="M 887.83 278.619688 
L 909.83 278.619688 
L 931.83 278.619688 
" style="fill: none; stroke: #dc4c03; stroke-width: 1.5; stroke-linecap: square"/>
    </g>
    <g id="text_26">
     <!-- Xa-IAAA -->
     <g transform="translate(949.43 286.319688) scale(0.22 -0.22)">
      <use xlink:href="#DejaVuSans-58"/>
      <use xlink:href="#DejaVuSans-61" x="68.505859"/>
      <use xlink:href="#DejaVuSans-2d" x="129.785156"/>
      <use xlink:href="#DejaVuSans-49" x="165.869141"/>
      <use xlink:href="#DejaVuSans-41" x="195.361328"/>
      <use xlink:href="#DejaVuSans-41" x="266.519531"/>
      <use xlink:href="#DejaVuSans-41" x="337.677734"/>
     </g>
    </g>
    <g id="line2d_31">
     <path d="M 887.83 310.911563 
L 909.83 310.911563 
L 931.83 310.911563 
" style="fill: none; stroke: #08306b; stroke-width: 1.5; stroke-linecap: square"/>
    </g>
    <g id="text_27">
     <!-- Xi-IIAA -->
     <g transform="translate(949.43 318.611563) scale(0.22 -0.22)">
      <use xlink:href="#DejaVuSans-58"/>
      <use xlink:href="#DejaVuSans-69" x="68.505859"/>
      <use xlink:href="#DejaVuSans-2d" x="96.289062"/>
      <use xlink:href="#DejaVuSans-49" x="132.373047"/>
      <use xlink:href="#DejaVuSans-49" x="161.865234"/>
      <use xlink:href="#DejaVuSans-41" x="191.357422"/>
      <use xlink:href="#DejaVuSans-41" x="262.515625"/>
     </g>
    </g>
    <g id="line2d_32">
     <path d="M 887.83 343.203438 
L 909.83 343.203438 
L 931.83 343.203438 
" style="fill: none; stroke: #7f2704; stroke-width: 1.5; stroke-linecap: square"/>
    </g>
    <g id="text_28">
     <!-- Xa-IIAA -->
     <g transform="translate(949.43 350.903438) scale(0.22 -0.22)">
      <use xlink:href="#DejaVuSans-58"/>
      <use xlink:href="#DejaVuSans-61" x="68.505859"/>
      <use xlink:href="#DejaVuSans-2d" x="129.785156"/>
      <use xlink:href="#DejaVuSans-49" x="165.869141"/>
      <use xlink:href="#DejaVuSans-49" x="195.361328"/>
      <use xlink:href="#DejaVuSans-41" x="224.853516"/>
      <use xlink:href="#DejaVuSans-41" x="296.011719"/>
     </g>
    </g>
   </g>
  </g>
 </g>
 <defs>
  <clipPath id="p6fa6d501a4">
   <rect x="104.42" y="23.76" width="763.61" height="619.72"/>
  </clipPath>
 </defs>
</svg>
