<?xml version="1.0" encoding="utf-8" standalone="no"?>
<!DOCTYPE svg PUBLIC "-//W3C//DTD SVG 1.1//EN"
  "http://www.w3.org/Graphics/SVG/1.1/DTD/svg11.dtd">
<svg xmlns:xlink="http://www.w3.org/1999/xlink" width="1080pt" height="720pt" viewBox="0 0 1080 720" xmlns="http://www.w3.org/2000/svg" version="1.1">
 <metadata>
  <rdf:RDF xmlns:dc="http://purl.org/dc/elements/1.1/" xmlns:cc="http://creativecommons.org/ns#" xmlns:rdf="http://www.w3.org/1999/02/22-rdf-syntax-ns#">
   <cc:Work>
    <dc:type rdf:resource="http://purl.org/dc/dcmitype/StillImage"/>
    <dc:date>2023-01-10T19:25:24.211336</dc:date>
    <dc:format>image/svg+xml</dc:format>
    <dc:creator>
     <cc:Agent>
      <dc:title>Matplotlib v3.6.2, https://matplotlib.org/</dc:title>
     </cc:Agent>
    </dc:creator>
   </cc:Work>
  </rdf:RDF>
 </metadata>
 <defs>
  <style type="text/css">*{stroke-linejoin: round; stroke-linecap: butt}</style>
 </defs>
 <g id="figure_1">
  <g id="patch_1">
   <path d="M 0 720 
L 1080 720 
L 1080 0 
L 0 0 
z
" style="fill: #ffffff"/>
  </g>
  <g id="axes_1">
   <g id="patch_2">
    <path d="M 135 640.8 
L 972 640.8 
L 972 86.4 
L 135 86.4 
z
" style="fill: #ffffff"/>
   </g>
   <g id="PathCollection_1">
    <defs>
     <path id="m80f1702e56" d="M 0 3 
C 0.795609 3 1.55874 2.683901 2.12132 2.12132 
C 2.683901 1.55874 3 0.795609 3 0 
C 3 -0.795609 2.683901 -1.55874 2.12132 -2.12132 
C 1.55874 -2.683901 0.795609 -3 0 -3 
C -0.795609 -3 -1.55874 -2.683901 -2.12132 -2.12132 
C -2.683901 -1.55874 -3 -0.795609 -3 0 
C -3 0.795609 -2.683901 1.55874 -2.12132 2.12132 
C -1.55874 2.683901 -0.795609 3 0 3 
z
" style="stroke: #1f77b4"/>
    </defs>
    <g clip-path="url(#p294e5309c2)">
     <use xlink:href="#m80f1702e56" x="173.045455" y="615.6" style="fill: #1f77b4; stroke: #1f77b4"/>
     <use xlink:href="#m80f1702e56" x="213.093301" y="611.763493" style="fill: #1f77b4; stroke: #1f77b4"/>
     <use xlink:href="#m80f1702e56" x="253.141148" y="607.926986" style="fill: #1f77b4; stroke: #1f77b4"/>
     <use xlink:href="#m80f1702e56" x="293.188995" y="604.090479" style="fill: #1f77b4; stroke: #1f77b4"/>
     <use xlink:href="#m80f1702e56" x="333.236842" y="600.253972" style="fill: #1f77b4; stroke: #1f77b4"/>
     <use xlink:href="#m80f1702e56" x="373.284689" y="596.417466" style="fill: #1f77b4; stroke: #1f77b4"/>
     <use xlink:href="#m80f1702e56" x="413.332536" y="592.580959" style="fill: #1f77b4; stroke: #1f77b4"/>
     <use xlink:href="#m80f1702e56" x="453.380383" y="588.744452" style="fill: #1f77b4; stroke: #1f77b4"/>
     <use xlink:href="#m80f1702e56" x="493.42823" y="584.907945" style="fill: #1f77b4; stroke: #1f77b4"/>
     <use xlink:href="#m80f1702e56" x="533.476077" y="574.503077" style="fill: #1f77b4; stroke: #1f77b4"/>
     <use xlink:href="#m80f1702e56" x="573.523923" y="572.397655" style="fill: #1f77b4; stroke: #1f77b4"/>
     <use xlink:href="#m80f1702e56" x="613.57177" y="533.008677" style="fill: #1f77b4; stroke: #1f77b4"/>
     <use xlink:href="#m80f1702e56" x="653.619617" y="493.6197" style="fill: #1f77b4; stroke: #1f77b4"/>
     <use xlink:href="#m80f1702e56" x="693.667464" y="282.013022" style="fill: #1f77b4; stroke: #1f77b4"/>
     <use xlink:href="#m80f1702e56" x="733.715311" y="282.013022" style="fill: #1f77b4; stroke: #1f77b4"/>
     <use xlink:href="#m80f1702e56" x="773.763158" y="282.013022" style="fill: #1f77b4; stroke: #1f77b4"/>
     <use xlink:href="#m80f1702e56" x="813.811005" y="282.013022" style="fill: #1f77b4; stroke: #1f77b4"/>
     <use xlink:href="#m80f1702e56" x="853.858852" y="282.013022" style="fill: #1f77b4; stroke: #1f77b4"/>
     <use xlink:href="#m80f1702e56" x="893.906699" y="282.013022" style="fill: #1f77b4; stroke: #1f77b4"/>
     <use xlink:href="#m80f1702e56" x="933.954545" y="282.013022" style="fill: #1f77b4; stroke: #1f77b4"/>
    </g>
   </g>
   <g id="PathCollection_2">
    <defs>
     <path id="m62fcbac0dc" d="M 0 3 
C 0.795609 3 1.55874 2.683901 2.12132 2.12132 
C 2.683901 1.55874 3 0.795609 3 0 
C 3 -0.795609 2.683901 -1.55874 2.12132 -2.12132 
C 1.55874 -2.683901 0.795609 -3 0 -3 
C -0.795609 -3 -1.55874 -2.683901 -2.12132 -2.12132 
C -2.683901 -1.55874 -3 -0.795609 -3 0 
C -3 0.795609 -2.683901 1.55874 -2.12132 2.12132 
C -1.55874 2.683901 -0.795609 3 0 3 
z
" style="stroke: #ff7f0e"/>
    </defs>
    <g clip-path="url(#p294e5309c2)">
     <use xlink:href="#m62fcbac0dc" x="173.045455" y="156.22457" style="fill: #ff7f0e; stroke: #ff7f0e"/>
     <use xlink:href="#m62fcbac0dc" x="213.093301" y="153.881767" style="fill: #ff7f0e; stroke: #ff7f0e"/>
     <use xlink:href="#m62fcbac0dc" x="253.141148" y="151.538963" style="fill: #ff7f0e; stroke: #ff7f0e"/>
     <use xlink:href="#m62fcbac0dc" x="293.188995" y="149.19616" style="fill: #ff7f0e; stroke: #ff7f0e"/>
     <use xlink:href="#m62fcbac0dc" x="333.236842" y="146.853356" style="fill: #ff7f0e; stroke: #ff7f0e"/>
     <use xlink:href="#m62fcbac0dc" x="373.284689" y="144.510553" style="fill: #ff7f0e; stroke: #ff7f0e"/>
     <use xlink:href="#m62fcbac0dc" x="413.332536" y="142.167749" style="fill: #ff7f0e; stroke: #ff7f0e"/>
     <use xlink:href="#m62fcbac0dc" x="453.380383" y="139.824946" style="fill: #ff7f0e; stroke: #ff7f0e"/>
     <use xlink:href="#m62fcbac0dc" x="493.42823" y="137.482142" style="fill: #ff7f0e; stroke: #ff7f0e"/>
     <use xlink:href="#m62fcbac0dc" x="533.476077" y="166.726691" style="fill: #ff7f0e; stroke: #ff7f0e"/>
     <use xlink:href="#m62fcbac0dc" x="573.523923" y="111.6" style="fill: #ff7f0e; stroke: #ff7f0e"/>
     <use xlink:href="#m62fcbac0dc" x="613.57177" y="145.771767" style="fill: #ff7f0e; stroke: #ff7f0e"/>
     <use xlink:href="#m62fcbac0dc" x="653.619617" y="179.943533" style="fill: #ff7f0e; stroke: #ff7f0e"/>
     <use xlink:href="#m62fcbac0dc" x="693.667464" y="307.727781" style="fill: #ff7f0e; stroke: #ff7f0e"/>
     <use xlink:href="#m62fcbac0dc" x="733.715311" y="307.727781" style="fill: #ff7f0e; stroke: #ff7f0e"/>
     <use xlink:href="#m62fcbac0dc" x="773.763158" y="307.727781" style="fill: #ff7f0e; stroke: #ff7f0e"/>
     <use xlink:href="#m62fcbac0dc" x="813.811005" y="307.727781" style="fill: #ff7f0e; stroke: #ff7f0e"/>
     <use xlink:href="#m62fcbac0dc" x="853.858852" y="307.727781" style="fill: #ff7f0e; stroke: #ff7f0e"/>
     <use xlink:href="#m62fcbac0dc" x="893.906699" y="307.727781" style="fill: #ff7f0e; stroke: #ff7f0e"/>
     <use xlink:href="#m62fcbac0dc" x="933.954545" y="307.727781" style="fill: #ff7f0e; stroke: #ff7f0e"/>
    </g>
   </g>
   <g id="matplotlib.axis_1">
    <g id="xtick_1">
     <g id="line2d_1">
      <defs>
       <path id="m3385fdae1e" d="M 0 0 
L 0 3.5 
" style="stroke: #000000; stroke-width: 0.8"/>
      </defs>
      <g>
       <use xlink:href="#m3385fdae1e" x="173.045455" y="640.8" style="stroke: #000000; stroke-width: 0.8"/>
      </g>
     </g>
     <g id="text_1">
      <!-- 0.0 -->
      <g transform="translate(155.552017 664.516562) scale(0.22 -0.22)">
       <defs>
        <path id="DejaVuSans-30" d="M 2034 4250 
Q 1547 4250 1301 3770 
Q 1056 3291 1056 2328 
Q 1056 1369 1301 889 
Q 1547 409 2034 409 
Q 2525 409 2770 889 
Q 3016 1369 3016 2328 
Q 3016 3291 2770 3770 
Q 2525 4250 2034 4250 
z
M 2034 4750 
Q 2819 4750 3233 4129 
Q 3647 3509 3647 2328 
Q 3647 1150 3233 529 
Q 2819 -91 2034 -91 
Q 1250 -91 836 529 
Q 422 1150 422 2328 
Q 422 3509 836 4129 
Q 1250 4750 2034 4750 
z
" transform="scale(0.015625)"/>
        <path id="DejaVuSans-2e" d="M 684 794 
L 1344 794 
L 1344 0 
L 684 0 
L 684 794 
z
" transform="scale(0.015625)"/>
       </defs>
       <use xlink:href="#DejaVuSans-30"/>
       <use xlink:href="#DejaVuSans-2e" x="63.623047"/>
       <use xlink:href="#DejaVuSans-30" x="95.410156"/>
      </g>
     </g>
    </g>
    <g id="xtick_2">
     <g id="line2d_2">
      <g>
       <use xlink:href="#m3385fdae1e" x="273.165072" y="640.8" style="stroke: #000000; stroke-width: 0.8"/>
      </g>
     </g>
     <g id="text_2">
      <!-- 2.5 -->
      <g transform="translate(255.671634 664.516562) scale(0.22 -0.22)">
       <defs>
        <path id="DejaVuSans-32" d="M 1228 531 
L 3431 531 
L 3431 0 
L 469 0 
L 469 531 
Q 828 903 1448 1529 
Q 2069 2156 2228 2338 
Q 2531 2678 2651 2914 
Q 2772 3150 2772 3378 
Q 2772 3750 2511 3984 
Q 2250 4219 1831 4219 
Q 1534 4219 1204 4116 
Q 875 4013 500 3803 
L 500 4441 
Q 881 4594 1212 4672 
Q 1544 4750 1819 4750 
Q 2544 4750 2975 4387 
Q 3406 4025 3406 3419 
Q 3406 3131 3298 2873 
Q 3191 2616 2906 2266 
Q 2828 2175 2409 1742 
Q 1991 1309 1228 531 
z
" transform="scale(0.015625)"/>
        <path id="DejaVuSans-35" d="M 691 4666 
L 3169 4666 
L 3169 4134 
L 1269 4134 
L 1269 2991 
Q 1406 3038 1543 3061 
Q 1681 3084 1819 3084 
Q 2600 3084 3056 2656 
Q 3513 2228 3513 1497 
Q 3513 744 3044 326 
Q 2575 -91 1722 -91 
Q 1428 -91 1123 -41 
Q 819 9 494 109 
L 494 744 
Q 775 591 1075 516 
Q 1375 441 1709 441 
Q 2250 441 2565 725 
Q 2881 1009 2881 1497 
Q 2881 1984 2565 2268 
Q 2250 2553 1709 2553 
Q 1456 2553 1204 2497 
Q 953 2441 691 2322 
L 691 4666 
z
" transform="scale(0.015625)"/>
       </defs>
       <use xlink:href="#DejaVuSans-32"/>
       <use xlink:href="#DejaVuSans-2e" x="63.623047"/>
       <use xlink:href="#DejaVuSans-35" x="95.410156"/>
      </g>
     </g>
    </g>
    <g id="xtick_3">
     <g id="line2d_3">
      <g>
       <use xlink:href="#m3385fdae1e" x="373.284689" y="640.8" style="stroke: #000000; stroke-width: 0.8"/>
      </g>
     </g>
     <g id="text_3">
      <!-- 5.0 -->
      <g transform="translate(355.791251 664.516562) scale(0.22 -0.22)">
       <use xlink:href="#DejaVuSans-35"/>
       <use xlink:href="#DejaVuSans-2e" x="63.623047"/>
       <use xlink:href="#DejaVuSans-30" x="95.410156"/>
      </g>
     </g>
    </g>
    <g id="xtick_4">
     <g id="line2d_4">
      <g>
       <use xlink:href="#m3385fdae1e" x="473.404306" y="640.8" style="stroke: #000000; stroke-width: 0.8"/>
      </g>
     </g>
     <g id="text_4">
      <!-- 7.5 -->
      <g transform="translate(455.910869 664.516562) scale(0.22 -0.22)">
       <defs>
        <path id="DejaVuSans-37" d="M 525 4666 
L 3525 4666 
L 3525 4397 
L 1831 0 
L 1172 0 
L 2766 4134 
L 525 4134 
L 525 4666 
z
" transform="scale(0.015625)"/>
       </defs>
       <use xlink:href="#DejaVuSans-37"/>
       <use xlink:href="#DejaVuSans-2e" x="63.623047"/>
       <use xlink:href="#DejaVuSans-35" x="95.410156"/>
      </g>
     </g>
    </g>
    <g id="xtick_5">
     <g id="line2d_5">
      <g>
       <use xlink:href="#m3385fdae1e" x="573.523923" y="640.8" style="stroke: #000000; stroke-width: 0.8"/>
      </g>
     </g>
     <g id="text_5">
      <!-- 10.0 -->
      <g transform="translate(549.031736 664.516562) scale(0.22 -0.22)">
       <defs>
        <path id="DejaVuSans-31" d="M 794 531 
L 1825 531 
L 1825 4091 
L 703 3866 
L 703 4441 
L 1819 4666 
L 2450 4666 
L 2450 531 
L 3481 531 
L 3481 0 
L 794 0 
L 794 531 
z
" transform="scale(0.015625)"/>
       </defs>
       <use xlink:href="#DejaVuSans-31"/>
       <use xlink:href="#DejaVuSans-30" x="63.623047"/>
       <use xlink:href="#DejaVuSans-2e" x="127.246094"/>
       <use xlink:href="#DejaVuSans-30" x="159.033203"/>
      </g>
     </g>
    </g>
    <g id="xtick_6">
     <g id="line2d_6">
      <g>
       <use xlink:href="#m3385fdae1e" x="673.643541" y="640.8" style="stroke: #000000; stroke-width: 0.8"/>
      </g>
     </g>
     <g id="text_6">
      <!-- 12.5 -->
      <g transform="translate(649.151353 664.516562) scale(0.22 -0.22)">
       <use xlink:href="#DejaVuSans-31"/>
       <use xlink:href="#DejaVuSans-32" x="63.623047"/>
       <use xlink:href="#DejaVuSans-2e" x="127.246094"/>
       <use xlink:href="#DejaVuSans-35" x="159.033203"/>
      </g>
     </g>
    </g>
    <g id="xtick_7">
     <g id="line2d_7">
      <g>
       <use xlink:href="#m3385fdae1e" x="773.763158" y="640.8" style="stroke: #000000; stroke-width: 0.8"/>
      </g>
     </g>
     <g id="text_7">
      <!-- 15.0 -->
      <g transform="translate(749.27097 664.516562) scale(0.22 -0.22)">
       <use xlink:href="#DejaVuSans-31"/>
       <use xlink:href="#DejaVuSans-35" x="63.623047"/>
       <use xlink:href="#DejaVuSans-2e" x="127.246094"/>
       <use xlink:href="#DejaVuSans-30" x="159.033203"/>
      </g>
     </g>
    </g>
    <g id="xtick_8">
     <g id="line2d_8">
      <g>
       <use xlink:href="#m3385fdae1e" x="873.882775" y="640.8" style="stroke: #000000; stroke-width: 0.8"/>
      </g>
     </g>
     <g id="text_8">
      <!-- 17.5 -->
      <g transform="translate(849.390588 664.516562) scale(0.22 -0.22)">
       <use xlink:href="#DejaVuSans-31"/>
       <use xlink:href="#DejaVuSans-37" x="63.623047"/>
       <use xlink:href="#DejaVuSans-2e" x="127.246094"/>
       <use xlink:href="#DejaVuSans-35" x="159.033203"/>
      </g>
     </g>
    </g>
    <g id="text_9">
     <!-- Time (days) -->
     <g transform="translate(488.541562 689.808437) scale(0.22 -0.22)">
      <defs>
       <path id="DejaVuSans-54" d="M -19 4666 
L 3928 4666 
L 3928 4134 
L 2272 4134 
L 2272 0 
L 1638 0 
L 1638 4134 
L -19 4134 
L -19 4666 
z
" transform="scale(0.015625)"/>
       <path id="DejaVuSans-69" d="M 603 3500 
L 1178 3500 
L 1178 0 
L 603 0 
L 603 3500 
z
M 603 4863 
L 1178 4863 
L 1178 4134 
L 603 4134 
L 603 4863 
z
" transform="scale(0.015625)"/>
       <path id="DejaVuSans-6d" d="M 3328 2828 
Q 3544 3216 3844 3400 
Q 4144 3584 4550 3584 
Q 5097 3584 5394 3201 
Q 5691 2819 5691 2113 
L 5691 0 
L 5113 0 
L 5113 2094 
Q 5113 2597 4934 2840 
Q 4756 3084 4391 3084 
Q 3944 3084 3684 2787 
Q 3425 2491 3425 1978 
L 3425 0 
L 2847 0 
L 2847 2094 
Q 2847 2600 2669 2842 
Q 2491 3084 2119 3084 
Q 1678 3084 1418 2786 
Q 1159 2488 1159 1978 
L 1159 0 
L 581 0 
L 581 3500 
L 1159 3500 
L 1159 2956 
Q 1356 3278 1631 3431 
Q 1906 3584 2284 3584 
Q 2666 3584 2933 3390 
Q 3200 3197 3328 2828 
z
" transform="scale(0.015625)"/>
       <path id="DejaVuSans-65" d="M 3597 1894 
L 3597 1613 
L 953 1613 
Q 991 1019 1311 708 
Q 1631 397 2203 397 
Q 2534 397 2845 478 
Q 3156 559 3463 722 
L 3463 178 
Q 3153 47 2828 -22 
Q 2503 -91 2169 -91 
Q 1331 -91 842 396 
Q 353 884 353 1716 
Q 353 2575 817 3079 
Q 1281 3584 2069 3584 
Q 2775 3584 3186 3129 
Q 3597 2675 3597 1894 
z
M 3022 2063 
Q 3016 2534 2758 2815 
Q 2500 3097 2075 3097 
Q 1594 3097 1305 2825 
Q 1016 2553 972 2059 
L 3022 2063 
z
" transform="scale(0.015625)"/>
       <path id="DejaVuSans-20" transform="scale(0.015625)"/>
       <path id="DejaVuSans-28" d="M 1984 4856 
Q 1566 4138 1362 3434 
Q 1159 2731 1159 2009 
Q 1159 1288 1364 580 
Q 1569 -128 1984 -844 
L 1484 -844 
Q 1016 -109 783 600 
Q 550 1309 550 2009 
Q 550 2706 781 3412 
Q 1013 4119 1484 4856 
L 1984 4856 
z
" transform="scale(0.015625)"/>
       <path id="DejaVuSans-64" d="M 2906 2969 
L 2906 4863 
L 3481 4863 
L 3481 0 
L 2906 0 
L 2906 525 
Q 2725 213 2448 61 
Q 2172 -91 1784 -91 
Q 1150 -91 751 415 
Q 353 922 353 1747 
Q 353 2572 751 3078 
Q 1150 3584 1784 3584 
Q 2172 3584 2448 3432 
Q 2725 3281 2906 2969 
z
M 947 1747 
Q 947 1113 1208 752 
Q 1469 391 1925 391 
Q 2381 391 2643 752 
Q 2906 1113 2906 1747 
Q 2906 2381 2643 2742 
Q 2381 3103 1925 3103 
Q 1469 3103 1208 2742 
Q 947 2381 947 1747 
z
" transform="scale(0.015625)"/>
       <path id="DejaVuSans-61" d="M 2194 1759 
Q 1497 1759 1228 1600 
Q 959 1441 959 1056 
Q 959 750 1161 570 
Q 1363 391 1709 391 
Q 2188 391 2477 730 
Q 2766 1069 2766 1631 
L 2766 1759 
L 2194 1759 
z
M 3341 1997 
L 3341 0 
L 2766 0 
L 2766 531 
Q 2569 213 2275 61 
Q 1981 -91 1556 -91 
Q 1019 -91 701 211 
Q 384 513 384 1019 
Q 384 1609 779 1909 
Q 1175 2209 1959 2209 
L 2766 2209 
L 2766 2266 
Q 2766 2663 2505 2880 
Q 2244 3097 1772 3097 
Q 1472 3097 1187 3025 
Q 903 2953 641 2809 
L 641 3341 
Q 956 3463 1253 3523 
Q 1550 3584 1831 3584 
Q 2591 3584 2966 3190 
Q 3341 2797 3341 1997 
z
" transform="scale(0.015625)"/>
       <path id="DejaVuSans-79" d="M 2059 -325 
Q 1816 -950 1584 -1140 
Q 1353 -1331 966 -1331 
L 506 -1331 
L 506 -850 
L 844 -850 
Q 1081 -850 1212 -737 
Q 1344 -625 1503 -206 
L 1606 56 
L 191 3500 
L 800 3500 
L 1894 763 
L 2988 3500 
L 3597 3500 
L 2059 -325 
z
" transform="scale(0.015625)"/>
       <path id="DejaVuSans-73" d="M 2834 3397 
L 2834 2853 
Q 2591 2978 2328 3040 
Q 2066 3103 1784 3103 
Q 1356 3103 1142 2972 
Q 928 2841 928 2578 
Q 928 2378 1081 2264 
Q 1234 2150 1697 2047 
L 1894 2003 
Q 2506 1872 2764 1633 
Q 3022 1394 3022 966 
Q 3022 478 2636 193 
Q 2250 -91 1575 -91 
Q 1294 -91 989 -36 
Q 684 19 347 128 
L 347 722 
Q 666 556 975 473 
Q 1284 391 1588 391 
Q 1994 391 2212 530 
Q 2431 669 2431 922 
Q 2431 1156 2273 1281 
Q 2116 1406 1581 1522 
L 1381 1569 
Q 847 1681 609 1914 
Q 372 2147 372 2553 
Q 372 3047 722 3315 
Q 1072 3584 1716 3584 
Q 2034 3584 2315 3537 
Q 2597 3491 2834 3397 
z
" transform="scale(0.015625)"/>
       <path id="DejaVuSans-29" d="M 513 4856 
L 1013 4856 
Q 1481 4119 1714 3412 
Q 1947 2706 1947 2009 
Q 1947 1309 1714 600 
Q 1481 -109 1013 -844 
L 513 -844 
Q 928 -128 1133 580 
Q 1338 1288 1338 2009 
Q 1338 2731 1133 3434 
Q 928 4138 513 4856 
z
" transform="scale(0.015625)"/>
      </defs>
      <use xlink:href="#DejaVuSans-54"/>
      <use xlink:href="#DejaVuSans-69" x="57.958984"/>
      <use xlink:href="#DejaVuSans-6d" x="85.742188"/>
      <use xlink:href="#DejaVuSans-65" x="183.154297"/>
      <use xlink:href="#DejaVuSans-20" x="244.677734"/>
      <use xlink:href="#DejaVuSans-28" x="276.464844"/>
      <use xlink:href="#DejaVuSans-64" x="315.478516"/>
      <use xlink:href="#DejaVuSans-61" x="378.955078"/>
      <use xlink:href="#DejaVuSans-79" x="440.234375"/>
      <use xlink:href="#DejaVuSans-73" x="499.414062"/>
      <use xlink:href="#DejaVuSans-29" x="551.513672"/>
     </g>
    </g>
   </g>
   <g id="matplotlib.axis_2">
    <g id="ytick_1">
     <g id="line2d_9">
      <defs>
       <path id="ma600d9e374" d="M 0 0 
L -3.5 0 
" style="stroke: #000000; stroke-width: 0.8"/>
      </defs>
      <g>
       <use xlink:href="#ma600d9e374" x="135" y="615.908529" style="stroke: #000000; stroke-width: 0.8"/>
      </g>
     </g>
     <g id="text_10">
      <!-- 0.00 -->
      <g transform="translate(79.015625 624.26681) scale(0.22 -0.22)">
       <use xlink:href="#DejaVuSans-30"/>
       <use xlink:href="#DejaVuSans-2e" x="63.623047"/>
       <use xlink:href="#DejaVuSans-30" x="95.410156"/>
       <use xlink:href="#DejaVuSans-30" x="159.033203"/>
      </g>
     </g>
    </g>
    <g id="ytick_2">
     <g id="line2d_10">
      <g>
       <use xlink:href="#ma600d9e374" x="135" y="544.201469" style="stroke: #000000; stroke-width: 0.8"/>
      </g>
     </g>
     <g id="text_11">
      <!-- 0.25 -->
      <g transform="translate(79.015625 552.559751) scale(0.22 -0.22)">
       <use xlink:href="#DejaVuSans-30"/>
       <use xlink:href="#DejaVuSans-2e" x="63.623047"/>
       <use xlink:href="#DejaVuSans-32" x="95.410156"/>
       <use xlink:href="#DejaVuSans-35" x="159.033203"/>
      </g>
     </g>
    </g>
    <g id="ytick_3">
     <g id="line2d_11">
      <g>
       <use xlink:href="#ma600d9e374" x="135" y="472.49441" style="stroke: #000000; stroke-width: 0.8"/>
      </g>
     </g>
     <g id="text_12">
      <!-- 0.50 -->
      <g transform="translate(79.015625 480.852691) scale(0.22 -0.22)">
       <use xlink:href="#DejaVuSans-30"/>
       <use xlink:href="#DejaVuSans-2e" x="63.623047"/>
       <use xlink:href="#DejaVuSans-35" x="95.410156"/>
       <use xlink:href="#DejaVuSans-30" x="159.033203"/>
      </g>
     </g>
    </g>
    <g id="ytick_4">
     <g id="line2d_12">
      <g>
       <use xlink:href="#ma600d9e374" x="135" y="400.78735" style="stroke: #000000; stroke-width: 0.8"/>
      </g>
     </g>
     <g id="text_13">
      <!-- 0.75 -->
      <g transform="translate(79.015625 409.145632) scale(0.22 -0.22)">
       <use xlink:href="#DejaVuSans-30"/>
       <use xlink:href="#DejaVuSans-2e" x="63.623047"/>
       <use xlink:href="#DejaVuSans-37" x="95.410156"/>
       <use xlink:href="#DejaVuSans-35" x="159.033203"/>
      </g>
     </g>
    </g>
    <g id="ytick_5">
     <g id="line2d_13">
      <g>
       <use xlink:href="#ma600d9e374" x="135" y="329.080291" style="stroke: #000000; stroke-width: 0.8"/>
      </g>
     </g>
     <g id="text_14">
      <!-- 1.00 -->
      <g transform="translate(79.015625 337.438572) scale(0.22 -0.22)">
       <use xlink:href="#DejaVuSans-31"/>
       <use xlink:href="#DejaVuSans-2e" x="63.623047"/>
       <use xlink:href="#DejaVuSans-30" x="95.410156"/>
       <use xlink:href="#DejaVuSans-30" x="159.033203"/>
      </g>
     </g>
    </g>
    <g id="ytick_6">
     <g id="line2d_14">
      <g>
       <use xlink:href="#ma600d9e374" x="135" y="257.373231" style="stroke: #000000; stroke-width: 0.8"/>
      </g>
     </g>
     <g id="text_15">
      <!-- 1.25 -->
      <g transform="translate(79.015625 265.731513) scale(0.22 -0.22)">
       <use xlink:href="#DejaVuSans-31"/>
       <use xlink:href="#DejaVuSans-2e" x="63.623047"/>
       <use xlink:href="#DejaVuSans-32" x="95.410156"/>
       <use xlink:href="#DejaVuSans-35" x="159.033203"/>
      </g>
     </g>
    </g>
    <g id="ytick_7">
     <g id="line2d_15">
      <g>
       <use xlink:href="#ma600d9e374" x="135" y="185.666172" style="stroke: #000000; stroke-width: 0.8"/>
      </g>
     </g>
     <g id="text_16">
      <!-- 1.50 -->
      <g transform="translate(79.015625 194.024453) scale(0.22 -0.22)">
       <use xlink:href="#DejaVuSans-31"/>
       <use xlink:href="#DejaVuSans-2e" x="63.623047"/>
       <use xlink:href="#DejaVuSans-35" x="95.410156"/>
       <use xlink:href="#DejaVuSans-30" x="159.033203"/>
      </g>
     </g>
    </g>
    <g id="ytick_8">
     <g id="line2d_16">
      <g>
       <use xlink:href="#ma600d9e374" x="135" y="113.959112" style="stroke: #000000; stroke-width: 0.8"/>
      </g>
     </g>
     <g id="text_17">
      <!-- 1.75 -->
      <g transform="translate(79.015625 122.317393) scale(0.22 -0.22)">
       <use xlink:href="#DejaVuSans-31"/>
       <use xlink:href="#DejaVuSans-2e" x="63.623047"/>
       <use xlink:href="#DejaVuSans-37" x="95.410156"/>
       <use xlink:href="#DejaVuSans-35" x="159.033203"/>
      </g>
     </g>
    </g>
    <g id="text_18">
     <!-- X:A -->
     <g transform="translate(70.440313 382.365312) rotate(-90) scale(0.22 -0.22)">
      <defs>
       <path id="DejaVuSans-58" d="M 403 4666 
L 1081 4666 
L 2241 2931 
L 3406 4666 
L 4084 4666 
L 2584 2425 
L 4184 0 
L 3506 0 
L 2194 1984 
L 872 0 
L 191 0 
L 1856 2491 
L 403 4666 
z
" transform="scale(0.015625)"/>
       <path id="DejaVuSans-3a" d="M 750 794 
L 1409 794 
L 1409 0 
L 750 0 
L 750 794 
z
M 750 3309 
L 1409 3309 
L 1409 2516 
L 750 2516 
L 750 3309 
z
" transform="scale(0.015625)"/>
       <path id="DejaVuSans-41" d="M 2188 4044 
L 1331 1722 
L 3047 1722 
L 2188 4044 
z
M 1831 4666 
L 2547 4666 
L 4325 0 
L 3669 0 
L 3244 1197 
L 1141 1197 
L 716 0 
L 50 0 
L 1831 4666 
z
" transform="scale(0.015625)"/>
      </defs>
      <use xlink:href="#DejaVuSans-58"/>
      <use xlink:href="#DejaVuSans-3a" x="68.505859"/>
      <use xlink:href="#DejaVuSans-41" x="102.197266"/>
     </g>
    </g>
   </g>
   <g id="line2d_17">
    <path d="M 173.045455 615.6 
L 180.731405 612.389055 
L 188.417355 609.178132 
L 196.103306 605.96723 
L 203.789256 602.75635 
L 211.475207 599.54549 
L 219.161157 596.334651 
L 226.847107 593.123831 
L 234.533058 589.91303 
L 242.219008 586.702248 
L 249.904959 583.491484 
L 257.590909 580.280738 
L 265.27686 577.07001 
L 272.96281 573.859299 
L 280.64876 570.648604 
L 288.334711 567.437925 
L 296.020661 564.227262 
L 303.706612 561.016615 
L 311.392562 557.805982 
L 319.078512 554.595365 
L 326.764463 551.384761 
L 334.450413 548.174172 
L 342.136364 544.963596 
L 349.822314 541.753034 
L 357.508264 538.542485 
L 365.194215 535.331948 
L 372.880165 532.121425 
L 380.566116 528.910914 
L 388.252066 525.700415 
L 395.938017 522.489927 
L 403.623967 519.279451 
L 411.309917 516.068987 
L 418.995868 512.858533 
L 426.681818 509.648089 
L 434.367769 506.437656 
L 442.053719 503.227232 
L 449.739669 500.016819 
L 457.42562 496.806414 
L 465.11157 493.596019 
L 472.797521 490.385633 
L 480.483471 487.175255 
L 488.169421 483.964886 
L 495.855372 480.754526 
L 503.541322 477.544173 
L 511.227273 474.333828 
L 518.913223 471.12349 
L 526.599174 467.91316 
L 534.285124 464.702838 
L 541.971074 461.492522 
L 549.657025 458.282213 
L 557.342975 455.071911 
L 565.028926 451.861616 
L 572.714876 448.651327 
L 580.400826 445.441044 
L 588.086777 442.230768 
L 595.772727 439.020497 
L 603.458678 435.810233 
L 611.144628 432.599974 
L 618.830579 429.389721 
L 626.516529 426.179473 
L 634.202479 422.969231 
L 641.88843 419.758995 
L 649.57438 416.548764 
L 657.260331 413.338538 
L 664.946281 410.128317 
L 672.632231 406.918102 
L 680.318182 403.707892 
L 688.004132 400.497687 
L 695.690083 397.287487 
L 703.376033 394.077293 
L 711.061983 390.867103 
L 718.747934 387.656918 
L 726.433884 384.446739 
L 734.119835 381.236564 
L 741.805785 378.026395 
L 749.491736 374.816231 
L 757.177686 371.606072 
L 764.863636 368.395919 
L 772.549587 365.18577 
L 780.235537 361.975627 
L 787.921488 358.76549 
L 795.607438 355.555357 
L 803.293388 352.345231 
L 810.979339 349.13511 
L 818.665289 345.924995 
L 826.35124 342.714885 
L 834.03719 339.504782 
L 841.72314 336.294684 
L 849.409091 333.084593 
L 857.095041 329.874509 
L 864.780992 326.66443 
L 872.466942 323.454359 
L 880.152893 320.244294 
L 887.838843 317.034236 
L 895.524793 313.824185 
L 903.210744 310.614141 
L 910.896694 307.404105 
L 918.582645 304.194077 
L 926.268595 300.984056 
L 933.954545 297.774044 
" clip-path="url(#p294e5309c2)" style="fill: none; stroke: #d0e1f2; stroke-width: 1.5; stroke-linecap: square"/>
   </g>
   <g id="line2d_18">
    <path d="M 173.045455 156.22457 
L 180.731405 157.58959 
L 188.417355 158.950556 
L 196.103306 160.307481 
L 203.789256 161.660376 
L 211.475207 163.009254 
L 219.161157 164.354127 
L 226.847107 165.695006 
L 234.533058 167.031904 
L 242.219008 168.364831 
L 249.904959 169.6938 
L 257.590909 171.018823 
L 265.27686 172.339912 
L 272.96281 173.657077 
L 280.64876 174.970331 
L 288.334711 176.279686 
L 296.020661 177.585152 
L 303.706612 178.886742 
L 311.392562 180.184467 
L 319.078512 181.478338 
L 326.764463 182.768367 
L 334.450413 184.054566 
L 342.136364 185.336945 
L 349.822314 186.615516 
L 357.508264 187.890291 
L 365.194215 189.161281 
L 372.880165 190.428497 
L 380.566116 191.691951 
L 388.252066 192.951654 
L 395.938017 194.207617 
L 403.623967 195.45985 
L 411.309917 196.708366 
L 418.995868 197.953174 
L 426.681818 199.194286 
L 434.367769 200.431713 
L 442.053719 201.665465 
L 449.739669 202.895554 
L 457.42562 204.12199 
L 465.11157 205.344784 
L 472.797521 206.563947 
L 480.483471 207.779489 
L 488.169421 208.991423 
L 495.855372 210.199757 
L 503.541322 211.404502 
L 511.227273 212.60567 
L 518.913223 213.803272 
L 526.599174 214.997316 
L 534.285124 216.187815 
L 541.971074 217.374778 
L 549.657025 218.558216 
L 557.342975 219.73814 
L 565.028926 220.91456 
L 572.714876 222.087486 
L 580.400826 223.256928 
L 588.086777 224.422898 
L 595.772727 225.585405 
L 603.458678 226.74446 
L 611.144628 227.900073 
L 618.830579 229.052254 
L 626.516529 230.201013 
L 634.202479 231.34636 
L 641.88843 232.488307 
L 649.57438 233.626862 
L 657.260331 234.762035 
L 664.946281 235.893838 
L 672.632231 237.022279 
L 680.318182 238.147369 
L 688.004132 239.269118 
L 695.690083 240.387536 
L 703.376033 241.502633 
L 711.061983 242.614417 
L 718.747934 243.722901 
L 726.433884 244.828092 
L 734.119835 245.930002 
L 741.805785 247.028639 
L 749.491736 248.124013 
L 757.177686 249.216135 
L 764.863636 250.305013 
L 772.549587 251.390658 
L 780.235537 252.473079 
L 787.921488 253.552285 
L 795.607438 254.628287 
L 803.293388 255.701093 
L 810.979339 256.770714 
L 818.665289 257.837158 
L 826.35124 258.900435 
L 834.03719 259.960555 
L 841.72314 261.017527 
L 849.409091 262.07136 
L 857.095041 263.122063 
L 864.780992 264.169646 
L 872.466942 265.214118 
L 880.152893 266.255489 
L 887.838843 267.293767 
L 895.524793 268.328961 
L 903.210744 269.361082 
L 910.896694 270.390137 
L 918.582645 271.416137 
L 926.268595 272.439089 
L 933.954545 273.459004 
" clip-path="url(#p294e5309c2)" style="fill: none; stroke: #fdd9b4; stroke-width: 1.5; stroke-linecap: square"/>
   </g>
   <g id="line2d_19">
    <path d="M 173.045455 615.6 
L 180.731405 612.389722 
L 188.417355 609.17944 
L 196.103306 605.969158 
L 203.789256 602.758875 
L 211.475207 599.548593 
L 219.161157 596.33831 
L 226.847107 593.128028 
L 234.533058 589.917745 
L 242.219008 586.707463 
L 249.904959 583.49718 
L 257.590909 580.286898 
L 265.27686 577.076615 
L 272.96281 573.866333 
L 280.64876 570.65605 
L 288.334711 567.445768 
L 296.020661 564.235485 
L 303.706612 561.025203 
L 311.392562 557.81492 
L 319.078512 554.604638 
L 326.764463 551.394355 
L 334.450413 548.184073 
L 342.136364 544.97379 
L 349.822314 541.763508 
L 357.508264 538.553225 
L 365.194215 535.342943 
L 372.880165 532.13266 
L 380.566116 528.922378 
L 388.252066 525.712095 
L 395.938017 522.501813 
L 403.623967 519.29153 
L 411.309917 516.081248 
L 418.995868 512.870966 
L 426.681818 509.660684 
L 434.367769 506.450402 
L 442.053719 503.24012 
L 449.739669 500.029838 
L 457.42562 496.819556 
L 465.11157 493.609275 
L 472.797521 490.398994 
L 480.483471 487.188714 
L 488.169421 483.978434 
L 495.855372 480.768155 
L 503.541322 477.557877 
L 511.227273 474.347601 
L 518.913223 471.137325 
L 526.599174 467.927051 
L 534.285124 464.71678 
L 541.971074 461.506511 
L 549.657025 458.296244 
L 557.342975 455.085982 
L 565.028926 451.875723 
L 572.714876 448.665469 
L 580.400826 445.45522 
L 588.086777 442.244978 
L 595.772727 439.034743 
L 603.458678 435.824517 
L 611.144628 432.6143 
L 618.830579 429.404093 
L 626.516529 426.193899 
L 634.202479 422.983718 
L 641.88843 419.773552 
L 649.57438 416.563404 
L 657.260331 413.353276 
L 664.946281 410.14317 
L 672.632231 406.93309 
L 680.318182 403.723038 
L 688.004132 400.51302 
L 695.690083 397.30304 
L 703.376033 394.093102 
L 711.061983 390.883213 
L 718.747934 387.673379 
L 726.433884 384.463608 
L 734.119835 381.253907 
L 741.805785 378.044287 
L 749.491736 374.834758 
L 757.177686 371.625331 
L 764.863636 368.416019 
L 772.549587 365.206836 
L 780.235537 361.997799 
L 787.921488 358.788924 
L 795.607438 355.580232 
L 803.293388 352.371743 
L 810.979339 349.163482 
L 818.665289 345.955474 
L 826.35124 342.747749 
L 834.03719 339.540338 
L 841.72314 336.333274 
L 849.409091 333.126598 
L 857.095041 329.920349 
L 864.780992 326.714574 
L 872.466942 323.509322 
L 880.152893 320.304648 
L 887.838843 317.100611 
L 895.524793 313.897274 
L 903.210744 310.694709 
L 910.896694 307.492991 
L 918.582645 304.292203 
L 926.268595 301.092434 
L 933.954545 297.893782 
" clip-path="url(#p294e5309c2)" style="fill: none; stroke: #79b5d9; stroke-width: 1.5; stroke-linecap: square"/>
   </g>
   <g id="line2d_20">
    <path d="M 173.045455 156.22457 
L 180.731405 141.814408 
L 188.417355 140.13249 
L 196.103306 140.041867 
L 203.789256 139.859741 
L 211.475207 139.788838 
L 219.161157 140.287625 
L 226.847107 139.447659 
L 234.533058 140.1969 
L 242.219008 140.324563 
L 249.904959 140.021108 
L 257.590909 139.745976 
L 265.27686 139.954871 
L 272.96281 140.080044 
L 280.64876 139.840089 
L 288.334711 140.029168 
L 296.020661 140.087545 
L 303.706612 139.91629 
L 311.392562 139.691303 
L 319.078512 140.345644 
L 326.764463 139.779121 
L 334.450413 139.643119 
L 342.136364 140.579626 
L 349.822314 140.145885 
L 357.508264 139.830617 
L 365.194215 139.849914 
L 372.880165 140.272839 
L 380.566116 139.712272 
L 388.252066 139.965656 
L 395.938017 140.32929 
L 403.623967 140.136866 
L 411.309917 139.815412 
L 418.995868 140.088355 
L 426.681818 140.436454 
L 434.367769 140.042698 
L 442.053719 140.3144 
L 449.739669 140.581329 
L 457.42562 140.579508 
L 465.11157 140.232907 
L 472.797521 141.726837 
L 480.483471 141.40067 
L 488.169421 141.598562 
L 495.855372 142.018754 
L 503.541322 142.989973 
L 511.227273 142.922041 
L 518.913223 144.602505 
L 526.599174 145.687944 
L 534.285124 146.67067 
L 541.971074 147.886474 
L 549.657025 149.924083 
L 557.342975 152.107197 
L 565.028926 154.374832 
L 572.714876 157.469478 
L 580.400826 160.794009 
L 588.086777 164.247148 
L 595.772727 168.396548 
L 603.458678 173.764588 
L 611.144628 178.189019 
L 618.830579 184.620261 
L 626.516529 190.653605 
L 634.202479 196.893847 
L 641.88843 203.959868 
L 649.57438 211.094329 
L 657.260331 218.131575 
L 664.946281 226.000586 
L 672.632231 232.731708 
L 680.318182 240.615509 
L 688.004132 247.007812 
L 695.690083 254.067787 
L 703.376033 260.196477 
L 711.061983 266.242514 
L 718.747934 271.776642 
L 726.433884 277.016379 
L 734.119835 281.715984 
L 741.805785 285.860688 
L 749.491736 289.971589 
L 757.177686 293.447428 
L 764.863636 296.593373 
L 772.549587 299.769132 
L 780.235537 301.854899 
L 787.921488 304.744151 
L 795.607438 306.076854 
L 803.293388 308.503747 
L 810.979339 309.841074 
L 818.665289 311.403397 
L 826.35124 312.852116 
L 834.03719 313.735775 
L 841.72314 315.157063 
L 849.409091 315.580566 
L 857.095041 316.92451 
L 864.780992 317.102798 
L 872.466942 318.176998 
L 880.152893 318.523876 
L 887.838843 319.078301 
L 895.524793 319.689367 
L 903.210744 319.835864 
L 910.896694 320.564583 
L 918.582645 320.458694 
L 926.268595 321.240913 
L 933.954545 320.95776 
" clip-path="url(#p294e5309c2)" style="fill: none; stroke: #fd9649; stroke-width: 1.5; stroke-linecap: square"/>
   </g>
   <g id="line2d_21">
    <path d="M 173.045455 615.6 
L 180.731405 612.394322 
L 188.417355 609.185442 
L 196.103306 605.975177 
L 203.789256 602.764558 
L 211.475207 599.55388 
L 219.161157 596.343144 
L 226.847107 593.132443 
L 234.533058 589.921687 
L 242.219008 586.710972 
L 249.904959 583.500288 
L 257.590909 580.289467 
L 265.27686 577.078764 
L 272.96281 573.868072 
L 280.64876 570.657267 
L 288.334711 567.44662 
L 296.020661 564.235838 
L 303.706612 561.025137 
L 311.392562 557.814437 
L 319.078512 554.603615 
L 326.764463 551.393001 
L 334.450413 548.182214 
L 342.136364 544.971441 
L 349.822314 541.760823 
L 357.508264 538.549963 
L 365.194215 535.339323 
L 372.880165 532.128577 
L 380.566116 528.917826 
L 388.252066 525.707152 
L 395.938017 522.496353 
L 403.623967 519.285702 
L 411.309917 516.07493 
L 418.995868 512.8642 
L 426.681818 509.653539 
L 434.367769 506.442691 
L 442.053719 503.232059 
L 449.739669 500.021327 
L 457.42562 496.810491 
L 465.11157 493.599893 
L 472.797521 490.389065 
L 480.483471 487.178394 
L 488.169421 483.967665 
L 495.855372 480.756911 
L 503.541322 477.546237 
L 511.227273 474.335438 
L 518.913223 471.124785 
L 526.599174 467.91403 
L 534.285124 464.703249 
L 541.971074 461.492639 
L 549.657025 458.28179 
L 557.342975 455.071098 
L 565.028926 451.860429 
L 572.714876 448.64957 
L 580.400826 445.438961 
L 588.086777 442.228167 
L 595.772727 439.017479 
L 603.458678 435.806756 
L 611.144628 432.595997 
L 618.830579 429.385332 
L 626.516529 426.174529 
L 634.202479 422.963864 
L 641.88843 419.75315 
L 649.57438 416.542302 
L 657.260331 413.331722 
L 664.946281 410.120916 
L 672.632231 406.910152 
L 680.318182 403.699519 
L 688.004132 400.488682 
L 695.690083 397.278049 
L 703.376033 394.067278 
L 711.061983 390.856581 
L 718.747934 387.645865 
L 726.433884 384.435091 
L 734.119835 381.22445 
L 741.805785 378.013648 
L 749.491736 374.802938 
L 757.177686 371.592298 
L 764.863636 368.381409 
L 772.549587 365.170799 
L 780.235537 361.960065 
L 787.921488 358.749266 
L 795.607438 355.538636 
L 803.293388 352.327835 
L 810.979339 349.117184 
L 818.665289 345.906426 
L 826.35124 342.695725 
L 834.03719 339.485027 
L 841.72314 336.274229 
L 849.409091 333.063616 
L 857.095041 329.852846 
L 864.780992 326.642047 
L 872.466942 323.431486 
L 880.152893 320.22062 
L 887.838843 317.009947 
L 895.524793 313.799268 
L 903.210744 310.588485 
L 910.896694 307.377845 
L 918.582645 304.167073 
L 926.268595 300.956392 
L 933.954545 297.745678 
" clip-path="url(#p294e5309c2)" style="fill: none; stroke: #2575b7; stroke-width: 1.5; stroke-linecap: square"/>
   </g>
   <g id="line2d_22">
    <path d="M 173.045455 156.22457 
L 180.731405 192.955754 
L 188.417355 202.630698 
L 196.103306 205.367525 
L 203.789256 205.981873 
L 211.475207 206.291177 
L 219.161157 206.247282 
L 226.847107 206.420301 
L 234.533058 206.264985 
L 242.219008 206.348252 
L 249.904959 206.608452 
L 257.590909 206.081132 
L 265.27686 206.242166 
L 272.96281 206.453135 
L 280.64876 205.998891 
L 288.334711 206.486297 
L 296.020661 206.162558 
L 303.706612 206.331182 
L 311.392562 206.496681 
L 319.078512 205.951463 
L 326.764463 206.615354 
L 334.450413 206.26495 
L 342.136364 206.020064 
L 349.822314 206.643974 
L 357.508264 205.861994 
L 365.194215 206.389113 
L 372.880165 206.265571 
L 380.566116 206.138113 
L 388.252066 206.454315 
L 395.938017 206.036696 
L 403.623967 206.497591 
L 411.309917 206.233694 
L 418.995868 206.233276 
L 426.681818 206.620765 
L 434.367769 205.924103 
L 442.053719 206.48878 
L 449.739669 206.442167 
L 457.42562 205.826105 
L 465.11157 206.578952 
L 472.797521 205.974972 
L 480.483471 206.32271 
L 488.169421 206.304155 
L 495.855372 206.156468 
L 503.541322 206.477601 
L 511.227273 206.059153 
L 518.913223 206.504661 
L 526.599174 206.344912 
L 534.285124 206.043316 
L 541.971074 206.718174 
L 549.657025 206.012924 
L 557.342975 206.238925 
L 565.028926 206.547793 
L 572.714876 205.778595 
L 580.400826 206.480212 
L 588.086777 206.075067 
L 595.772727 206.314163 
L 603.458678 206.336949 
L 611.144628 206.156067 
L 618.830579 206.527859 
L 626.516529 206.083534 
L 634.202479 206.453593 
L 641.88843 206.521955 
L 649.57438 205.828669 
L 657.260331 206.674881 
L 664.946281 206.197417 
L 672.632231 206.000637 
L 680.318182 206.531951 
L 688.004132 205.865688 
L 695.690083 206.423155 
L 703.376033 206.146957 
L 711.061983 206.327912 
L 718.747934 206.383672 
L 726.433884 206.107286 
L 734.119835 206.601259 
L 741.805785 206.156143 
L 749.491736 206.253601 
L 757.177686 206.721525 
L 764.863636 205.773863 
L 772.549587 206.447651 
L 780.235537 206.350631 
L 787.921488 205.914525 
L 795.607438 206.463837 
L 803.293388 205.982231 
L 810.979339 206.416232 
L 818.665289 206.200314 
L 826.35124 206.329056 
L 834.03719 206.46546 
L 841.72314 206.020433 
L 849.409091 206.643177 
L 857.095041 206.340413 
L 864.780992 205.897261 
L 872.466942 206.781169 
L 880.152893 205.910907 
L 887.838843 206.193485 
L 895.524793 206.384594 
L 903.210744 205.97646 
L 910.896694 206.423758 
L 918.582645 206.070608 
L 926.268595 206.276375 
L 933.954545 206.275685 
" clip-path="url(#p294e5309c2)" style="fill: none; stroke: #dc4c03; stroke-width: 1.5; stroke-linecap: square"/>
   </g>
   <g id="line2d_23">
    <path d="M 173.045455 615.6 
L 180.731405 613.157482 
L 188.417355 610.997922 
L 196.103306 608.911094 
L 203.789256 606.843027 
L 211.475207 604.785353 
L 219.161157 602.726788 
L 226.847107 600.675571 
L 234.533058 598.618505 
L 242.219008 596.561752 
L 249.904959 594.527675 
L 257.590909 592.485523 
L 265.27686 590.427 
L 272.96281 588.394477 
L 280.64876 586.344527 
L 288.334711 584.306961 
L 296.020661 582.267598 
L 303.706612 580.225306 
L 311.392562 578.201738 
L 319.078512 576.156379 
L 326.764463 574.119871 
L 334.450413 572.118586 
L 342.136364 570.074495 
L 349.822314 568.049005 
L 357.508264 566.026372 
L 365.194215 563.997907 
L 372.880165 561.981119 
L 380.566116 559.952676 
L 388.252066 557.941137 
L 395.938017 555.921172 
L 403.623967 553.892624 
L 411.309917 551.900394 
L 418.995868 549.884223 
L 426.681818 547.861821 
L 434.367769 545.860179 
L 442.053719 543.837143 
L 449.739669 541.830961 
L 457.42562 539.809108 
L 465.11157 537.795024 
L 472.797521 535.784301 
L 480.483471 533.742324 
L 488.169421 531.729757 
L 495.855372 529.70681 
L 503.541322 527.644781 
L 511.227273 525.602364 
L 518.913223 523.518996 
L 526.599174 521.434227 
L 534.285124 519.312087 
L 541.971074 517.166663 
L 549.657025 514.995884 
L 557.342975 512.749558 
L 565.028926 510.475666 
L 572.714876 508.099718 
L 580.400826 505.650172 
L 588.086777 503.084134 
L 595.772727 500.349175 
L 603.458678 497.470621 
L 611.144628 494.291937 
L 618.830579 490.861358 
L 626.516529 486.987171 
L 634.202479 482.661641 
L 641.88843 477.738448 
L 649.57438 472.218777 
L 657.260331 466.129191 
L 664.946281 459.579424 
L 672.632231 452.723136 
L 680.318182 445.670593 
L 688.004132 438.504683 
L 695.690083 431.267048 
L 703.376033 423.995252 
L 711.061983 416.697109 
L 718.747934 409.391268 
L 726.433884 402.076387 
L 734.119835 394.763419 
L 741.805785 387.448126 
L 749.491736 380.138334 
L 757.177686 372.830359 
L 764.863636 365.526576 
L 772.549587 358.230237 
L 780.235537 350.934818 
L 787.921488 343.649 
L 795.607438 336.367483 
L 803.293388 329.088605 
L 810.979339 321.821513 
L 818.665289 314.555191 
L 826.35124 307.297051 
L 834.03719 300.045842 
L 841.72314 292.797248 
L 849.409091 285.559138 
L 857.095041 278.323471 
L 864.780992 271.09553 
L 872.466942 263.874304 
L 880.152893 256.655714 
L 887.838843 249.44795 
L 895.524793 242.242957 
L 903.210744 235.043112 
L 910.896694 227.853951 
L 918.582645 220.665057 
L 926.268595 213.485417 
L 933.954545 206.312118 
" clip-path="url(#p294e5309c2)" style="fill: none; stroke: #08306b; stroke-width: 1.5; stroke-linecap: square"/>
   </g>
   <g id="line2d_24">
    <path d="M 173.045455 156.22457 
L 180.731405 141.920317 
L 188.417355 138.006555 
L 196.103306 136.942231 
L 203.789256 136.577388 
L 211.475207 136.56184 
L 219.161157 136.442838 
L 226.847107 136.552978 
L 234.533058 136.349899 
L 242.219008 136.084083 
L 249.904959 136.693923 
L 257.590909 136.907582 
L 265.27686 136.35855 
L 272.96281 136.794211 
L 280.64876 136.46327 
L 288.334711 136.563187 
L 296.020661 136.523094 
L 303.706612 136.28993 
L 311.392562 136.760158 
L 319.078512 136.251773 
L 326.764463 136.022399 
L 334.450413 137.228115 
L 342.136364 136.592299 
L 349.822314 136.604958 
L 357.508264 136.685468 
L 365.194215 136.472764 
L 372.880165 136.671698 
L 380.566116 136.335586 
L 388.252066 136.633525 
L 395.938017 136.530302 
L 403.623967 136.000993 
L 411.309917 136.960873 
L 418.995868 136.912953 
L 426.681818 136.546551 
L 434.367769 137.019287 
L 442.053719 136.652326 
L 449.739669 137.000091 
L 457.42562 136.779998 
L 465.11157 136.973957 
L 472.797521 137.456691 
L 480.483471 136.837036 
L 488.169421 137.703227 
L 495.855372 138.530799 
L 503.541322 138.190956 
L 511.227273 139.187383 
L 518.913223 139.303149 
L 526.599174 140.247645 
L 534.285124 140.846949 
L 541.971074 141.903296 
L 549.657025 143.683301 
L 557.342975 144.663936 
L 565.028926 147.145492 
L 572.714876 149.030192 
L 580.400826 152.079825 
L 588.086777 155.795846 
L 595.772727 159.567056 
L 603.458678 165.808382 
L 611.144628 171.408124 
L 618.830579 180.3249 
L 626.516529 189.529989 
L 634.202479 202.007565 
L 641.88843 215.678617 
L 649.57438 231.486742 
L 657.260331 247.762663 
L 664.946281 262.31553 
L 672.632231 275.034752 
L 680.318182 284.972405 
L 688.004132 292.527172 
L 695.690083 297.499975 
L 703.376033 301.376115 
L 711.061983 303.558164 
L 718.747934 305.493108 
L 726.433884 306.377856 
L 734.119835 307.431626 
L 741.805785 307.724741 
L 749.491736 308.326346 
L 757.177686 308.513179 
L 764.863636 308.58108 
L 772.549587 309.03872 
L 780.235537 308.716925 
L 787.921488 309.070439 
L 795.607438 309.193507 
L 803.293388 308.747254 
L 810.979339 309.320267 
L 818.665289 309.016043 
L 826.35124 309.067882 
L 834.03719 309.293538 
L 841.72314 308.931781 
L 849.409091 309.325702 
L 857.095041 309.110795 
L 864.780992 309.175316 
L 872.466942 309.365361 
L 880.152893 308.961692 
L 887.838843 309.385601 
L 895.524793 309.255125 
L 903.210744 308.951544 
L 910.896694 309.472803 
L 918.582645 308.999955 
L 926.268595 309.058736 
L 933.954545 309.175915 
" clip-path="url(#p294e5309c2)" style="fill: none; stroke: #7f2704; stroke-width: 1.5; stroke-linecap: square"/>
   </g>
   <g id="patch_3">
    <path d="M 135 640.8 
L 135 86.4 
" style="fill: none; stroke: #000000; stroke-width: 0.8; stroke-linejoin: miter; stroke-linecap: square"/>
   </g>
   <g id="patch_4">
    <path d="M 972 640.8 
L 972 86.4 
" style="fill: none; stroke: #000000; stroke-width: 0.8; stroke-linejoin: miter; stroke-linecap: square"/>
   </g>
   <g id="patch_5">
    <path d="M 135 640.8 
L 972 640.8 
" style="fill: none; stroke: #000000; stroke-width: 0.8; stroke-linejoin: miter; stroke-linecap: square"/>
   </g>
   <g id="patch_6">
    <path d="M 135 86.4 
L 972 86.4 
" style="fill: none; stroke: #000000; stroke-width: 0.8; stroke-linejoin: miter; stroke-linecap: square"/>
   </g>
   <g id="legend_1">
    <g id="patch_7">
     <path d="M 150.4 528.359375 
L 300.477813 528.359375 
Q 304.877813 528.359375 304.877813 523.959375 
L 304.877813 203.240625 
Q 304.877813 198.840625 300.477813 198.840625 
L 150.4 198.840625 
Q 146 198.840625 146 203.240625 
L 146 523.959375 
Q 146 528.359375 150.4 528.359375 
z
" style="fill: #ffffff; opacity: 0.8; stroke: #cccccc; stroke-linejoin: miter"/>
    </g>
    <g id="PathCollection_3">
     <g>
      <use xlink:href="#m80f1702e56" x="176.8" y="218.582187" style="fill: #1f77b4; stroke: #1f77b4"/>
     </g>
    </g>
    <g id="text_19">
     <!-- Xi -->
     <g transform="translate(216.4 224.357187) scale(0.22 -0.22)">
      <use xlink:href="#DejaVuSans-58"/>
      <use xlink:href="#DejaVuSans-69" x="68.505859"/>
     </g>
    </g>
    <g id="PathCollection_4">
     <g>
      <use xlink:href="#m62fcbac0dc" x="176.8" y="250.874062" style="fill: #ff7f0e; stroke: #ff7f0e"/>
     </g>
    </g>
    <g id="text_20">
     <!-- Xa -->
     <g transform="translate(216.4 256.649062) scale(0.22 -0.22)">
      <use xlink:href="#DejaVuSans-58"/>
      <use xlink:href="#DejaVuSans-61" x="68.505859"/>
     </g>
    </g>
    <g id="line2d_25">
     <path d="M 154.8 281.240937 
L 176.8 281.240937 
L 198.8 281.240937 
" style="fill: none; stroke: #d0e1f2; stroke-width: 1.5; stroke-linecap: square"/>
    </g>
    <g id="text_21">
     <!-- Xi-AAII -->
     <g transform="translate(216.4 288.940937) scale(0.22 -0.22)">
      <defs>
       <path id="DejaVuSans-2d" d="M 313 2009 
L 1997 2009 
L 1997 1497 
L 313 1497 
L 313 2009 
z
" transform="scale(0.015625)"/>
       <path id="DejaVuSans-49" d="M 628 4666 
L 1259 4666 
L 1259 0 
L 628 0 
L 628 4666 
z
" transform="scale(0.015625)"/>
      </defs>
      <use xlink:href="#DejaVuSans-58"/>
      <use xlink:href="#DejaVuSans-69" x="68.505859"/>
      <use xlink:href="#DejaVuSans-2d" x="96.289062"/>
      <use xlink:href="#DejaVuSans-41" x="130.123047"/>
      <use xlink:href="#DejaVuSans-41" x="201.28125"/>
      <use xlink:href="#DejaVuSans-49" x="269.689453"/>
      <use xlink:href="#DejaVuSans-49" x="299.181641"/>
     </g>
    </g>
    <g id="line2d_26">
     <path d="M 154.8 313.532812 
L 176.8 313.532812 
L 198.8 313.532812 
" style="fill: none; stroke: #fdd9b4; stroke-width: 1.5; stroke-linecap: square"/>
    </g>
    <g id="text_22">
     <!-- Xa-AAII -->
     <g transform="translate(216.4 321.232812) scale(0.22 -0.22)">
      <use xlink:href="#DejaVuSans-58"/>
      <use xlink:href="#DejaVuSans-61" x="68.505859"/>
      <use xlink:href="#DejaVuSans-2d" x="129.785156"/>
      <use xlink:href="#DejaVuSans-41" x="163.619141"/>
      <use xlink:href="#DejaVuSans-41" x="234.777344"/>
      <use xlink:href="#DejaVuSans-49" x="303.185547"/>
      <use xlink:href="#DejaVuSans-49" x="332.677734"/>
     </g>
    </g>
    <g id="line2d_27">
     <path d="M 154.8 345.824687 
L 176.8 345.824687 
L 198.8 345.824687 
" style="fill: none; stroke: #79b5d9; stroke-width: 1.5; stroke-linecap: square"/>
    </g>
    <g id="text_23">
     <!-- Xi-AIII -->
     <g transform="translate(216.4 353.524687) scale(0.22 -0.22)">
      <use xlink:href="#DejaVuSans-58"/>
      <use xlink:href="#DejaVuSans-69" x="68.505859"/>
      <use xlink:href="#DejaVuSans-2d" x="96.289062"/>
      <use xlink:href="#DejaVuSans-41" x="130.123047"/>
      <use xlink:href="#DejaVuSans-49" x="198.53125"/>
      <use xlink:href="#DejaVuSans-49" x="228.023438"/>
      <use xlink:href="#DejaVuSans-49" x="257.515625"/>
     </g>
    </g>
    <g id="line2d_28">
     <path d="M 154.8 378.116562 
L 176.8 378.116562 
L 198.8 378.116562 
" style="fill: none; stroke: #fd9649; stroke-width: 1.5; stroke-linecap: square"/>
    </g>
    <g id="text_24">
     <!-- Xa-AIII -->
     <g transform="translate(216.4 385.816562) scale(0.22 -0.22)">
      <use xlink:href="#DejaVuSans-58"/>
      <use xlink:href="#DejaVuSans-61" x="68.505859"/>
      <use xlink:href="#DejaVuSans-2d" x="129.785156"/>
      <use xlink:href="#DejaVuSans-41" x="163.619141"/>
      <use xlink:href="#DejaVuSans-49" x="232.027344"/>
      <use xlink:href="#DejaVuSans-49" x="261.519531"/>
      <use xlink:href="#DejaVuSans-49" x="291.011719"/>
     </g>
    </g>
    <g id="line2d_29">
     <path d="M 154.8 410.408437 
L 176.8 410.408437 
L 198.8 410.408437 
" style="fill: none; stroke: #2575b7; stroke-width: 1.5; stroke-linecap: square"/>
    </g>
    <g id="text_25">
     <!-- Xi-IAII -->
     <g transform="translate(216.4 418.108437) scale(0.22 -0.22)">
      <use xlink:href="#DejaVuSans-58"/>
      <use xlink:href="#DejaVuSans-69" x="68.505859"/>
      <use xlink:href="#DejaVuSans-2d" x="96.289062"/>
      <use xlink:href="#DejaVuSans-49" x="132.373047"/>
      <use xlink:href="#DejaVuSans-41" x="161.865234"/>
      <use xlink:href="#DejaVuSans-49" x="230.273438"/>
      <use xlink:href="#DejaVuSans-49" x="259.765625"/>
     </g>
    </g>
    <g id="line2d_30">
     <path d="M 154.8 442.700312 
L 176.8 442.700312 
L 198.8 442.700312 
" style="fill: none; stroke: #dc4c03; stroke-width: 1.5; stroke-linecap: square"/>
    </g>
    <g id="text_26">
     <!-- Xa-IAII -->
     <g transform="translate(216.4 450.400312) scale(0.22 -0.22)">
      <use xlink:href="#DejaVuSans-58"/>
      <use xlink:href="#DejaVuSans-61" x="68.505859"/>
      <use xlink:href="#DejaVuSans-2d" x="129.785156"/>
      <use xlink:href="#DejaVuSans-49" x="165.869141"/>
      <use xlink:href="#DejaVuSans-41" x="195.361328"/>
      <use xlink:href="#DejaVuSans-49" x="263.769531"/>
      <use xlink:href="#DejaVuSans-49" x="293.261719"/>
     </g>
    </g>
    <g id="line2d_31">
     <path d="M 154.8 474.992188 
L 176.8 474.992188 
L 198.8 474.992188 
" style="fill: none; stroke: #08306b; stroke-width: 1.5; stroke-linecap: square"/>
    </g>
    <g id="text_27">
     <!-- Xi-IIII -->
     <g transform="translate(216.4 482.692187) scale(0.22 -0.22)">
      <use xlink:href="#DejaVuSans-58"/>
      <use xlink:href="#DejaVuSans-69" x="68.505859"/>
      <use xlink:href="#DejaVuSans-2d" x="96.289062"/>
      <use xlink:href="#DejaVuSans-49" x="132.373047"/>
      <use xlink:href="#DejaVuSans-49" x="161.865234"/>
      <use xlink:href="#DejaVuSans-49" x="191.357422"/>
      <use xlink:href="#DejaVuSans-49" x="220.849609"/>
     </g>
    </g>
    <g id="line2d_32">
     <path d="M 154.8 507.284062 
L 176.8 507.284062 
L 198.8 507.284062 
" style="fill: none; stroke: #7f2704; stroke-width: 1.5; stroke-linecap: square"/>
    </g>
    <g id="text_28">
     <!-- Xa-IIII -->
     <g transform="translate(216.4 514.984062) scale(0.22 -0.22)">
      <use xlink:href="#DejaVuSans-58"/>
      <use xlink:href="#DejaVuSans-61" x="68.505859"/>
      <use xlink:href="#DejaVuSans-2d" x="129.785156"/>
      <use xlink:href="#DejaVuSans-49" x="165.869141"/>
      <use xlink:href="#DejaVuSans-49" x="195.361328"/>
      <use xlink:href="#DejaVuSans-49" x="224.853516"/>
      <use xlink:href="#DejaVuSans-49" x="254.345703"/>
     </g>
    </g>
   </g>
  </g>
 </g>
 <defs>
  <clipPath id="p294e5309c2">
   <rect x="135" y="86.4" width="837" height="554.4"/>
  </clipPath>
 </defs>
</svg>
