<?xml version="1.0" encoding="utf-8" standalone="no"?>
<!DOCTYPE svg PUBLIC "-//W3C//DTD SVG 1.1//EN"
  "http://www.w3.org/Graphics/SVG/1.1/DTD/svg11.dtd">
<svg xmlns:xlink="http://www.w3.org/1999/xlink" width="1080pt" height="720pt" viewBox="0 0 1080 720" xmlns="http://www.w3.org/2000/svg" version="1.1">
 <metadata>
  <rdf:RDF xmlns:dc="http://purl.org/dc/elements/1.1/" xmlns:cc="http://creativecommons.org/ns#" xmlns:rdf="http://www.w3.org/1999/02/22-rdf-syntax-ns#">
   <cc:Work>
    <dc:type rdf:resource="http://purl.org/dc/dcmitype/StillImage"/>
    <dc:date>2023-01-11T19:55:44.468554</dc:date>
    <dc:format>image/svg+xml</dc:format>
    <dc:creator>
     <cc:Agent>
      <dc:title>Matplotlib v3.6.2, https://matplotlib.org/</dc:title>
     </cc:Agent>
    </dc:creator>
   </cc:Work>
  </rdf:RDF>
 </metadata>
 <defs>
  <style type="text/css">*{stroke-linejoin: round; stroke-linecap: butt}</style>
 </defs>
 <g id="figure_1">
  <g id="patch_1">
   <path d="M 0 720 
L 1080 720 
L 1080 0 
L 0 0 
z
" style="fill: #ffffff"/>
  </g>
  <g id="axes_1">
   <g id="patch_2">
    <path d="M 104.42 643.48 
L 886.39 643.48 
L 886.39 23.76 
L 104.42 23.76 
z
" style="fill: #ffffff"/>
   </g>
   <g id="PathCollection_1">
    <defs>
     <path id="m80f1702e56" d="M 0 3 
C 0.795609 3 1.55874 2.683901 2.12132 2.12132 
C 2.683901 1.55874 3 0.795609 3 0 
C 3 -0.795609 2.683901 -1.55874 2.12132 -2.12132 
C 1.55874 -2.683901 0.795609 -3 0 -3 
C -0.795609 -3 -1.55874 -2.683901 -2.12132 -2.12132 
C -2.683901 -1.55874 -3 -0.795609 -3 0 
C -3 0.795609 -2.683901 1.55874 -2.12132 2.12132 
C -1.55874 2.683901 -0.795609 3 0 3 
z
" style="stroke: #1f77b4"/>
    </defs>
    <g clip-path="url(#p6bcd6ea3a9)">
     <use xlink:href="#m80f1702e56" x="139.964091" y="615.310909" style="fill: #1f77b4; stroke: #1f77b4"/>
     <use xlink:href="#m80f1702e56" x="177.378923" y="611.022381" style="fill: #1f77b4; stroke: #1f77b4"/>
     <use xlink:href="#m80f1702e56" x="214.793756" y="606.733853" style="fill: #1f77b4; stroke: #1f77b4"/>
     <use xlink:href="#m80f1702e56" x="252.208589" y="602.445324" style="fill: #1f77b4; stroke: #1f77b4"/>
     <use xlink:href="#m80f1702e56" x="289.623421" y="598.156796" style="fill: #1f77b4; stroke: #1f77b4"/>
     <use xlink:href="#m80f1702e56" x="327.038254" y="593.868268" style="fill: #1f77b4; stroke: #1f77b4"/>
     <use xlink:href="#m80f1702e56" x="364.453086" y="589.57974" style="fill: #1f77b4; stroke: #1f77b4"/>
     <use xlink:href="#m80f1702e56" x="401.867919" y="585.291212" style="fill: #1f77b4; stroke: #1f77b4"/>
     <use xlink:href="#m80f1702e56" x="439.282751" y="581.002683" style="fill: #1f77b4; stroke: #1f77b4"/>
     <use xlink:href="#m80f1702e56" x="476.697584" y="569.371903" style="fill: #1f77b4; stroke: #1f77b4"/>
     <use xlink:href="#m80f1702e56" x="514.112416" y="567.018417" style="fill: #1f77b4; stroke: #1f77b4"/>
     <use xlink:href="#m80f1702e56" x="551.527249" y="522.988588" style="fill: #1f77b4; stroke: #1f77b4"/>
     <use xlink:href="#m80f1702e56" x="588.942081" y="478.95876" style="fill: #1f77b4; stroke: #1f77b4"/>
     <use xlink:href="#m80f1702e56" x="626.356914" y="242.420357" style="fill: #1f77b4; stroke: #1f77b4"/>
     <use xlink:href="#m80f1702e56" x="663.771746" y="242.420357" style="fill: #1f77b4; stroke: #1f77b4"/>
     <use xlink:href="#m80f1702e56" x="701.186579" y="242.420357" style="fill: #1f77b4; stroke: #1f77b4"/>
     <use xlink:href="#m80f1702e56" x="738.601411" y="242.420357" style="fill: #1f77b4; stroke: #1f77b4"/>
     <use xlink:href="#m80f1702e56" x="776.016244" y="242.420357" style="fill: #1f77b4; stroke: #1f77b4"/>
     <use xlink:href="#m80f1702e56" x="813.431077" y="242.420357" style="fill: #1f77b4; stroke: #1f77b4"/>
     <use xlink:href="#m80f1702e56" x="850.845909" y="242.420357" style="fill: #1f77b4; stroke: #1f77b4"/>
    </g>
   </g>
   <g id="PathCollection_2">
    <defs>
     <path id="m62fcbac0dc" d="M 0 3 
C 0.795609 3 1.55874 2.683901 2.12132 2.12132 
C 2.683901 1.55874 3 0.795609 3 0 
C 3 -0.795609 2.683901 -1.55874 2.12132 -2.12132 
C 1.55874 -2.683901 0.795609 -3 0 -3 
C -0.795609 -3 -1.55874 -2.683901 -2.12132 -2.12132 
C -2.683901 -1.55874 -3 -0.795609 -3 0 
C -3 0.795609 -2.683901 1.55874 -2.12132 2.12132 
C -1.55874 2.683901 -0.795609 3 0 3 
z
" style="stroke: #ff7f0e"/>
    </defs>
    <g clip-path="url(#p6bcd6ea3a9)">
     <use xlink:href="#m62fcbac0dc" x="139.964091" y="101.811376" style="fill: #ff7f0e; stroke: #ff7f0e"/>
     <use xlink:href="#m62fcbac0dc" x="177.378923" y="99.192541" style="fill: #ff7f0e; stroke: #ff7f0e"/>
     <use xlink:href="#m62fcbac0dc" x="214.793756" y="96.573705" style="fill: #ff7f0e; stroke: #ff7f0e"/>
     <use xlink:href="#m62fcbac0dc" x="252.208589" y="93.95487" style="fill: #ff7f0e; stroke: #ff7f0e"/>
     <use xlink:href="#m62fcbac0dc" x="289.623421" y="91.336035" style="fill: #ff7f0e; stroke: #ff7f0e"/>
     <use xlink:href="#m62fcbac0dc" x="327.038254" y="88.7172" style="fill: #ff7f0e; stroke: #ff7f0e"/>
     <use xlink:href="#m62fcbac0dc" x="364.453086" y="86.098365" style="fill: #ff7f0e; stroke: #ff7f0e"/>
     <use xlink:href="#m62fcbac0dc" x="401.867919" y="83.47953" style="fill: #ff7f0e; stroke: #ff7f0e"/>
     <use xlink:href="#m62fcbac0dc" x="439.282751" y="80.860695" style="fill: #ff7f0e; stroke: #ff7f0e"/>
     <use xlink:href="#m62fcbac0dc" x="476.697584" y="113.550867" style="fill: #ff7f0e; stroke: #ff7f0e"/>
     <use xlink:href="#m62fcbac0dc" x="514.112416" y="51.929091" style="fill: #ff7f0e; stroke: #ff7f0e"/>
     <use xlink:href="#m62fcbac0dc" x="551.527249" y="90.127012" style="fill: #ff7f0e; stroke: #ff7f0e"/>
     <use xlink:href="#m62fcbac0dc" x="588.942081" y="128.324932" style="fill: #ff7f0e; stroke: #ff7f0e"/>
     <use xlink:href="#m62fcbac0dc" x="626.356914" y="271.164856" style="fill: #ff7f0e; stroke: #ff7f0e"/>
     <use xlink:href="#m62fcbac0dc" x="663.771746" y="271.164856" style="fill: #ff7f0e; stroke: #ff7f0e"/>
     <use xlink:href="#m62fcbac0dc" x="701.186579" y="271.164856" style="fill: #ff7f0e; stroke: #ff7f0e"/>
     <use xlink:href="#m62fcbac0dc" x="738.601411" y="271.164856" style="fill: #ff7f0e; stroke: #ff7f0e"/>
     <use xlink:href="#m62fcbac0dc" x="776.016244" y="271.164856" style="fill: #ff7f0e; stroke: #ff7f0e"/>
     <use xlink:href="#m62fcbac0dc" x="813.431077" y="271.164856" style="fill: #ff7f0e; stroke: #ff7f0e"/>
     <use xlink:href="#m62fcbac0dc" x="850.845909" y="271.164856" style="fill: #ff7f0e; stroke: #ff7f0e"/>
    </g>
   </g>
   <g id="matplotlib.axis_1">
    <g id="xtick_1">
     <g id="line2d_1">
      <defs>
       <path id="m3385fdae1e" d="M 0 0 
L 0 3.5 
" style="stroke: #000000; stroke-width: 0.8"/>
      </defs>
      <g>
       <use xlink:href="#m3385fdae1e" x="139.964091" y="643.48" style="stroke: #000000; stroke-width: 0.8"/>
      </g>
     </g>
     <g id="text_1">
      <!-- 0.0 -->
      <g transform="translate(122.470653 667.196563) scale(0.22 -0.22)">
       <defs>
        <path id="DejaVuSans-30" d="M 2034 4250 
Q 1547 4250 1301 3770 
Q 1056 3291 1056 2328 
Q 1056 1369 1301 889 
Q 1547 409 2034 409 
Q 2525 409 2770 889 
Q 3016 1369 3016 2328 
Q 3016 3291 2770 3770 
Q 2525 4250 2034 4250 
z
M 2034 4750 
Q 2819 4750 3233 4129 
Q 3647 3509 3647 2328 
Q 3647 1150 3233 529 
Q 2819 -91 2034 -91 
Q 1250 -91 836 529 
Q 422 1150 422 2328 
Q 422 3509 836 4129 
Q 1250 4750 2034 4750 
z
" transform="scale(0.015625)"/>
        <path id="DejaVuSans-2e" d="M 684 794 
L 1344 794 
L 1344 0 
L 684 0 
L 684 794 
z
" transform="scale(0.015625)"/>
       </defs>
       <use xlink:href="#DejaVuSans-30"/>
       <use xlink:href="#DejaVuSans-2e" x="63.623047"/>
       <use xlink:href="#DejaVuSans-30" x="95.410156"/>
      </g>
     </g>
    </g>
    <g id="xtick_2">
     <g id="line2d_2">
      <g>
       <use xlink:href="#m3385fdae1e" x="233.501172" y="643.48" style="stroke: #000000; stroke-width: 0.8"/>
      </g>
     </g>
     <g id="text_2">
      <!-- 2.5 -->
      <g transform="translate(216.007735 667.196563) scale(0.22 -0.22)">
       <defs>
        <path id="DejaVuSans-32" d="M 1228 531 
L 3431 531 
L 3431 0 
L 469 0 
L 469 531 
Q 828 903 1448 1529 
Q 2069 2156 2228 2338 
Q 2531 2678 2651 2914 
Q 2772 3150 2772 3378 
Q 2772 3750 2511 3984 
Q 2250 4219 1831 4219 
Q 1534 4219 1204 4116 
Q 875 4013 500 3803 
L 500 4441 
Q 881 4594 1212 4672 
Q 1544 4750 1819 4750 
Q 2544 4750 2975 4387 
Q 3406 4025 3406 3419 
Q 3406 3131 3298 2873 
Q 3191 2616 2906 2266 
Q 2828 2175 2409 1742 
Q 1991 1309 1228 531 
z
" transform="scale(0.015625)"/>
        <path id="DejaVuSans-35" d="M 691 4666 
L 3169 4666 
L 3169 4134 
L 1269 4134 
L 1269 2991 
Q 1406 3038 1543 3061 
Q 1681 3084 1819 3084 
Q 2600 3084 3056 2656 
Q 3513 2228 3513 1497 
Q 3513 744 3044 326 
Q 2575 -91 1722 -91 
Q 1428 -91 1123 -41 
Q 819 9 494 109 
L 494 744 
Q 775 591 1075 516 
Q 1375 441 1709 441 
Q 2250 441 2565 725 
Q 2881 1009 2881 1497 
Q 2881 1984 2565 2268 
Q 2250 2553 1709 2553 
Q 1456 2553 1204 2497 
Q 953 2441 691 2322 
L 691 4666 
z
" transform="scale(0.015625)"/>
       </defs>
       <use xlink:href="#DejaVuSans-32"/>
       <use xlink:href="#DejaVuSans-2e" x="63.623047"/>
       <use xlink:href="#DejaVuSans-35" x="95.410156"/>
      </g>
     </g>
    </g>
    <g id="xtick_3">
     <g id="line2d_3">
      <g>
       <use xlink:href="#m3385fdae1e" x="327.038254" y="643.48" style="stroke: #000000; stroke-width: 0.8"/>
      </g>
     </g>
     <g id="text_3">
      <!-- 5.0 -->
      <g transform="translate(309.544816 667.196563) scale(0.22 -0.22)">
       <use xlink:href="#DejaVuSans-35"/>
       <use xlink:href="#DejaVuSans-2e" x="63.623047"/>
       <use xlink:href="#DejaVuSans-30" x="95.410156"/>
      </g>
     </g>
    </g>
    <g id="xtick_4">
     <g id="line2d_4">
      <g>
       <use xlink:href="#m3385fdae1e" x="420.575335" y="643.48" style="stroke: #000000; stroke-width: 0.8"/>
      </g>
     </g>
     <g id="text_4">
      <!-- 7.5 -->
      <g transform="translate(403.081897 667.196563) scale(0.22 -0.22)">
       <defs>
        <path id="DejaVuSans-37" d="M 525 4666 
L 3525 4666 
L 3525 4397 
L 1831 0 
L 1172 0 
L 2766 4134 
L 525 4134 
L 525 4666 
z
" transform="scale(0.015625)"/>
       </defs>
       <use xlink:href="#DejaVuSans-37"/>
       <use xlink:href="#DejaVuSans-2e" x="63.623047"/>
       <use xlink:href="#DejaVuSans-35" x="95.410156"/>
      </g>
     </g>
    </g>
    <g id="xtick_5">
     <g id="line2d_5">
      <g>
       <use xlink:href="#m3385fdae1e" x="514.112416" y="643.48" style="stroke: #000000; stroke-width: 0.8"/>
      </g>
     </g>
     <g id="text_5">
      <!-- 10.0 -->
      <g transform="translate(489.620229 667.196563) scale(0.22 -0.22)">
       <defs>
        <path id="DejaVuSans-31" d="M 794 531 
L 1825 531 
L 1825 4091 
L 703 3866 
L 703 4441 
L 1819 4666 
L 2450 4666 
L 2450 531 
L 3481 531 
L 3481 0 
L 794 0 
L 794 531 
z
" transform="scale(0.015625)"/>
       </defs>
       <use xlink:href="#DejaVuSans-31"/>
       <use xlink:href="#DejaVuSans-30" x="63.623047"/>
       <use xlink:href="#DejaVuSans-2e" x="127.246094"/>
       <use xlink:href="#DejaVuSans-30" x="159.033203"/>
      </g>
     </g>
    </g>
    <g id="xtick_6">
     <g id="line2d_6">
      <g>
       <use xlink:href="#m3385fdae1e" x="607.649498" y="643.48" style="stroke: #000000; stroke-width: 0.8"/>
      </g>
     </g>
     <g id="text_6">
      <!-- 12.5 -->
      <g transform="translate(583.15731 667.196563) scale(0.22 -0.22)">
       <use xlink:href="#DejaVuSans-31"/>
       <use xlink:href="#DejaVuSans-32" x="63.623047"/>
       <use xlink:href="#DejaVuSans-2e" x="127.246094"/>
       <use xlink:href="#DejaVuSans-35" x="159.033203"/>
      </g>
     </g>
    </g>
    <g id="xtick_7">
     <g id="line2d_7">
      <g>
       <use xlink:href="#m3385fdae1e" x="701.186579" y="643.48" style="stroke: #000000; stroke-width: 0.8"/>
      </g>
     </g>
     <g id="text_7">
      <!-- 15.0 -->
      <g transform="translate(676.694391 667.196563) scale(0.22 -0.22)">
       <use xlink:href="#DejaVuSans-31"/>
       <use xlink:href="#DejaVuSans-35" x="63.623047"/>
       <use xlink:href="#DejaVuSans-2e" x="127.246094"/>
       <use xlink:href="#DejaVuSans-30" x="159.033203"/>
      </g>
     </g>
    </g>
    <g id="xtick_8">
     <g id="line2d_8">
      <g>
       <use xlink:href="#m3385fdae1e" x="794.72366" y="643.48" style="stroke: #000000; stroke-width: 0.8"/>
      </g>
     </g>
     <g id="text_8">
      <!-- 17.5 -->
      <g transform="translate(770.231473 667.196563) scale(0.22 -0.22)">
       <use xlink:href="#DejaVuSans-31"/>
       <use xlink:href="#DejaVuSans-37" x="63.623047"/>
       <use xlink:href="#DejaVuSans-2e" x="127.246094"/>
       <use xlink:href="#DejaVuSans-35" x="159.033203"/>
      </g>
     </g>
    </g>
    <g id="text_9">
     <!-- Time (days) -->
     <g transform="translate(430.446563 692.488438) scale(0.22 -0.22)">
      <defs>
       <path id="DejaVuSans-54" d="M -19 4666 
L 3928 4666 
L 3928 4134 
L 2272 4134 
L 2272 0 
L 1638 0 
L 1638 4134 
L -19 4134 
L -19 4666 
z
" transform="scale(0.015625)"/>
       <path id="DejaVuSans-69" d="M 603 3500 
L 1178 3500 
L 1178 0 
L 603 0 
L 603 3500 
z
M 603 4863 
L 1178 4863 
L 1178 4134 
L 603 4134 
L 603 4863 
z
" transform="scale(0.015625)"/>
       <path id="DejaVuSans-6d" d="M 3328 2828 
Q 3544 3216 3844 3400 
Q 4144 3584 4550 3584 
Q 5097 3584 5394 3201 
Q 5691 2819 5691 2113 
L 5691 0 
L 5113 0 
L 5113 2094 
Q 5113 2597 4934 2840 
Q 4756 3084 4391 3084 
Q 3944 3084 3684 2787 
Q 3425 2491 3425 1978 
L 3425 0 
L 2847 0 
L 2847 2094 
Q 2847 2600 2669 2842 
Q 2491 3084 2119 3084 
Q 1678 3084 1418 2786 
Q 1159 2488 1159 1978 
L 1159 0 
L 581 0 
L 581 3500 
L 1159 3500 
L 1159 2956 
Q 1356 3278 1631 3431 
Q 1906 3584 2284 3584 
Q 2666 3584 2933 3390 
Q 3200 3197 3328 2828 
z
" transform="scale(0.015625)"/>
       <path id="DejaVuSans-65" d="M 3597 1894 
L 3597 1613 
L 953 1613 
Q 991 1019 1311 708 
Q 1631 397 2203 397 
Q 2534 397 2845 478 
Q 3156 559 3463 722 
L 3463 178 
Q 3153 47 2828 -22 
Q 2503 -91 2169 -91 
Q 1331 -91 842 396 
Q 353 884 353 1716 
Q 353 2575 817 3079 
Q 1281 3584 2069 3584 
Q 2775 3584 3186 3129 
Q 3597 2675 3597 1894 
z
M 3022 2063 
Q 3016 2534 2758 2815 
Q 2500 3097 2075 3097 
Q 1594 3097 1305 2825 
Q 1016 2553 972 2059 
L 3022 2063 
z
" transform="scale(0.015625)"/>
       <path id="DejaVuSans-20" transform="scale(0.015625)"/>
       <path id="DejaVuSans-28" d="M 1984 4856 
Q 1566 4138 1362 3434 
Q 1159 2731 1159 2009 
Q 1159 1288 1364 580 
Q 1569 -128 1984 -844 
L 1484 -844 
Q 1016 -109 783 600 
Q 550 1309 550 2009 
Q 550 2706 781 3412 
Q 1013 4119 1484 4856 
L 1984 4856 
z
" transform="scale(0.015625)"/>
       <path id="DejaVuSans-64" d="M 2906 2969 
L 2906 4863 
L 3481 4863 
L 3481 0 
L 2906 0 
L 2906 525 
Q 2725 213 2448 61 
Q 2172 -91 1784 -91 
Q 1150 -91 751 415 
Q 353 922 353 1747 
Q 353 2572 751 3078 
Q 1150 3584 1784 3584 
Q 2172 3584 2448 3432 
Q 2725 3281 2906 2969 
z
M 947 1747 
Q 947 1113 1208 752 
Q 1469 391 1925 391 
Q 2381 391 2643 752 
Q 2906 1113 2906 1747 
Q 2906 2381 2643 2742 
Q 2381 3103 1925 3103 
Q 1469 3103 1208 2742 
Q 947 2381 947 1747 
z
" transform="scale(0.015625)"/>
       <path id="DejaVuSans-61" d="M 2194 1759 
Q 1497 1759 1228 1600 
Q 959 1441 959 1056 
Q 959 750 1161 570 
Q 1363 391 1709 391 
Q 2188 391 2477 730 
Q 2766 1069 2766 1631 
L 2766 1759 
L 2194 1759 
z
M 3341 1997 
L 3341 0 
L 2766 0 
L 2766 531 
Q 2569 213 2275 61 
Q 1981 -91 1556 -91 
Q 1019 -91 701 211 
Q 384 513 384 1019 
Q 384 1609 779 1909 
Q 1175 2209 1959 2209 
L 2766 2209 
L 2766 2266 
Q 2766 2663 2505 2880 
Q 2244 3097 1772 3097 
Q 1472 3097 1187 3025 
Q 903 2953 641 2809 
L 641 3341 
Q 956 3463 1253 3523 
Q 1550 3584 1831 3584 
Q 2591 3584 2966 3190 
Q 3341 2797 3341 1997 
z
" transform="scale(0.015625)"/>
       <path id="DejaVuSans-79" d="M 2059 -325 
Q 1816 -950 1584 -1140 
Q 1353 -1331 966 -1331 
L 506 -1331 
L 506 -850 
L 844 -850 
Q 1081 -850 1212 -737 
Q 1344 -625 1503 -206 
L 1606 56 
L 191 3500 
L 800 3500 
L 1894 763 
L 2988 3500 
L 3597 3500 
L 2059 -325 
z
" transform="scale(0.015625)"/>
       <path id="DejaVuSans-73" d="M 2834 3397 
L 2834 2853 
Q 2591 2978 2328 3040 
Q 2066 3103 1784 3103 
Q 1356 3103 1142 2972 
Q 928 2841 928 2578 
Q 928 2378 1081 2264 
Q 1234 2150 1697 2047 
L 1894 2003 
Q 2506 1872 2764 1633 
Q 3022 1394 3022 966 
Q 3022 478 2636 193 
Q 2250 -91 1575 -91 
Q 1294 -91 989 -36 
Q 684 19 347 128 
L 347 722 
Q 666 556 975 473 
Q 1284 391 1588 391 
Q 1994 391 2212 530 
Q 2431 669 2431 922 
Q 2431 1156 2273 1281 
Q 2116 1406 1581 1522 
L 1381 1569 
Q 847 1681 609 1914 
Q 372 2147 372 2553 
Q 372 3047 722 3315 
Q 1072 3584 1716 3584 
Q 2034 3584 2315 3537 
Q 2597 3491 2834 3397 
z
" transform="scale(0.015625)"/>
       <path id="DejaVuSans-29" d="M 513 4856 
L 1013 4856 
Q 1481 4119 1714 3412 
Q 1947 2706 1947 2009 
Q 1947 1309 1714 600 
Q 1481 -109 1013 -844 
L 513 -844 
Q 928 -128 1133 580 
Q 1338 1288 1338 2009 
Q 1338 2731 1133 3434 
Q 928 4138 513 4856 
z
" transform="scale(0.015625)"/>
      </defs>
      <use xlink:href="#DejaVuSans-54"/>
      <use xlink:href="#DejaVuSans-69" x="57.958984"/>
      <use xlink:href="#DejaVuSans-6d" x="85.742188"/>
      <use xlink:href="#DejaVuSans-65" x="183.154297"/>
      <use xlink:href="#DejaVuSans-20" x="244.677734"/>
      <use xlink:href="#DejaVuSans-28" x="276.464844"/>
      <use xlink:href="#DejaVuSans-64" x="315.478516"/>
      <use xlink:href="#DejaVuSans-61" x="378.955078"/>
      <use xlink:href="#DejaVuSans-79" x="440.234375"/>
      <use xlink:href="#DejaVuSans-73" x="499.414062"/>
      <use xlink:href="#DejaVuSans-29" x="551.513672"/>
     </g>
    </g>
   </g>
   <g id="matplotlib.axis_2">
    <g id="ytick_1">
     <g id="line2d_9">
      <defs>
       <path id="ma600d9e374" d="M 0 0 
L -3.5 0 
" style="stroke: #000000; stroke-width: 0.8"/>
      </defs>
      <g>
       <use xlink:href="#ma600d9e374" x="104.42" y="615.655789" style="stroke: #000000; stroke-width: 0.8"/>
      </g>
     </g>
     <g id="text_10">
      <!-- 0.00 -->
      <g transform="translate(48.435625 624.01407) scale(0.22 -0.22)">
       <use xlink:href="#DejaVuSans-30"/>
       <use xlink:href="#DejaVuSans-2e" x="63.623047"/>
       <use xlink:href="#DejaVuSans-30" x="95.410156"/>
       <use xlink:href="#DejaVuSans-30" x="159.033203"/>
      </g>
     </g>
    </g>
    <g id="ytick_2">
     <g id="line2d_10">
      <g>
       <use xlink:href="#ma600d9e374" x="104.42" y="535.500127" style="stroke: #000000; stroke-width: 0.8"/>
      </g>
     </g>
     <g id="text_11">
      <!-- 0.25 -->
      <g transform="translate(48.435625 543.858409) scale(0.22 -0.22)">
       <use xlink:href="#DejaVuSans-30"/>
       <use xlink:href="#DejaVuSans-2e" x="63.623047"/>
       <use xlink:href="#DejaVuSans-32" x="95.410156"/>
       <use xlink:href="#DejaVuSans-35" x="159.033203"/>
      </g>
     </g>
    </g>
    <g id="ytick_3">
     <g id="line2d_11">
      <g>
       <use xlink:href="#ma600d9e374" x="104.42" y="455.344465" style="stroke: #000000; stroke-width: 0.8"/>
      </g>
     </g>
     <g id="text_12">
      <!-- 0.50 -->
      <g transform="translate(48.435625 463.702747) scale(0.22 -0.22)">
       <use xlink:href="#DejaVuSans-30"/>
       <use xlink:href="#DejaVuSans-2e" x="63.623047"/>
       <use xlink:href="#DejaVuSans-35" x="95.410156"/>
       <use xlink:href="#DejaVuSans-30" x="159.033203"/>
      </g>
     </g>
    </g>
    <g id="ytick_4">
     <g id="line2d_12">
      <g>
       <use xlink:href="#ma600d9e374" x="104.42" y="375.188804" style="stroke: #000000; stroke-width: 0.8"/>
      </g>
     </g>
     <g id="text_13">
      <!-- 0.75 -->
      <g transform="translate(48.435625 383.547085) scale(0.22 -0.22)">
       <use xlink:href="#DejaVuSans-30"/>
       <use xlink:href="#DejaVuSans-2e" x="63.623047"/>
       <use xlink:href="#DejaVuSans-37" x="95.410156"/>
       <use xlink:href="#DejaVuSans-35" x="159.033203"/>
      </g>
     </g>
    </g>
    <g id="ytick_5">
     <g id="line2d_13">
      <g>
       <use xlink:href="#ma600d9e374" x="104.42" y="295.033142" style="stroke: #000000; stroke-width: 0.8"/>
      </g>
     </g>
     <g id="text_14">
      <!-- 1.00 -->
      <g transform="translate(48.435625 303.391423) scale(0.22 -0.22)">
       <use xlink:href="#DejaVuSans-31"/>
       <use xlink:href="#DejaVuSans-2e" x="63.623047"/>
       <use xlink:href="#DejaVuSans-30" x="95.410156"/>
       <use xlink:href="#DejaVuSans-30" x="159.033203"/>
      </g>
     </g>
    </g>
    <g id="ytick_6">
     <g id="line2d_14">
      <g>
       <use xlink:href="#ma600d9e374" x="104.42" y="214.87748" style="stroke: #000000; stroke-width: 0.8"/>
      </g>
     </g>
     <g id="text_15">
      <!-- 1.25 -->
      <g transform="translate(48.435625 223.235761) scale(0.22 -0.22)">
       <use xlink:href="#DejaVuSans-31"/>
       <use xlink:href="#DejaVuSans-2e" x="63.623047"/>
       <use xlink:href="#DejaVuSans-32" x="95.410156"/>
       <use xlink:href="#DejaVuSans-35" x="159.033203"/>
      </g>
     </g>
    </g>
    <g id="ytick_7">
     <g id="line2d_15">
      <g>
       <use xlink:href="#ma600d9e374" x="104.42" y="134.721818" style="stroke: #000000; stroke-width: 0.8"/>
      </g>
     </g>
     <g id="text_16">
      <!-- 1.50 -->
      <g transform="translate(48.435625 143.080099) scale(0.22 -0.22)">
       <use xlink:href="#DejaVuSans-31"/>
       <use xlink:href="#DejaVuSans-2e" x="63.623047"/>
       <use xlink:href="#DejaVuSans-35" x="95.410156"/>
       <use xlink:href="#DejaVuSans-30" x="159.033203"/>
      </g>
     </g>
    </g>
    <g id="ytick_8">
     <g id="line2d_16">
      <g>
       <use xlink:href="#ma600d9e374" x="104.42" y="54.566156" style="stroke: #000000; stroke-width: 0.8"/>
      </g>
     </g>
     <g id="text_17">
      <!-- 1.75 -->
      <g transform="translate(48.435625 62.924438) scale(0.22 -0.22)">
       <use xlink:href="#DejaVuSans-31"/>
       <use xlink:href="#DejaVuSans-2e" x="63.623047"/>
       <use xlink:href="#DejaVuSans-37" x="95.410156"/>
       <use xlink:href="#DejaVuSans-35" x="159.033203"/>
      </g>
     </g>
    </g>
    <g id="text_18">
     <!-- X:A -->
     <g transform="translate(39.860313 352.385312) rotate(-90) scale(0.22 -0.22)">
      <defs>
       <path id="DejaVuSans-58" d="M 403 4666 
L 1081 4666 
L 2241 2931 
L 3406 4666 
L 4084 4666 
L 2584 2425 
L 4184 0 
L 3506 0 
L 2194 1984 
L 872 0 
L 191 0 
L 1856 2491 
L 403 4666 
z
" transform="scale(0.015625)"/>
       <path id="DejaVuSans-3a" d="M 750 794 
L 1409 794 
L 1409 0 
L 750 0 
L 750 794 
z
M 750 3309 
L 1409 3309 
L 1409 2516 
L 750 2516 
L 750 3309 
z
" transform="scale(0.015625)"/>
       <path id="DejaVuSans-41" d="M 2188 4044 
L 1331 1722 
L 3047 1722 
L 2188 4044 
z
M 1831 4666 
L 2547 4666 
L 4325 0 
L 3669 0 
L 3244 1197 
L 1141 1197 
L 716 0 
L 50 0 
L 1831 4666 
z
" transform="scale(0.015625)"/>
      </defs>
      <use xlink:href="#DejaVuSans-58"/>
      <use xlink:href="#DejaVuSans-3a" x="68.505859"/>
      <use xlink:href="#DejaVuSans-41" x="102.197266"/>
     </g>
    </g>
   </g>
   <g id="line2d_17">
    <path d="M 139.964091 615.310909 
L 147.144715 611.721647 
L 154.32534 608.132409 
L 161.505964 604.543196 
L 168.686589 600.954007 
L 175.867213 597.36484 
L 183.047837 593.775696 
L 190.228462 590.186574 
L 197.409086 586.597473 
L 204.589711 583.008393 
L 211.770335 579.419334 
L 218.95096 575.830294 
L 226.131584 572.241275 
L 233.312208 568.652274 
L 240.492833 565.063291 
L 247.673457 561.474327 
L 254.854082 557.88538 
L 262.034706 554.296451 
L 269.215331 550.707538 
L 276.395955 547.118642 
L 283.576579 543.529762 
L 290.757204 539.940898 
L 297.937828 536.352049 
L 305.118453 532.763214 
L 312.299077 529.174395 
L 319.479702 525.58559 
L 326.660326 521.996799 
L 333.84095 518.408022 
L 341.021575 514.819259 
L 348.202199 511.230508 
L 355.382824 507.641771 
L 362.563448 504.053045 
L 369.744073 500.464332 
L 376.924697 496.875631 
L 384.105321 493.286941 
L 391.285946 489.698262 
L 398.46657 486.109594 
L 405.647195 482.520936 
L 412.827819 478.932289 
L 420.008444 475.343652 
L 427.189068 471.755024 
L 434.369692 468.166406 
L 441.550317 464.577797 
L 448.730941 460.989197 
L 455.911566 457.400606 
L 463.09219 453.812023 
L 470.272815 450.223448 
L 477.453439 446.634882 
L 484.634063 443.046324 
L 491.814688 439.457773 
L 498.995312 435.86923 
L 506.175937 432.280694 
L 513.356561 428.692165 
L 520.537185 425.103643 
L 527.71781 421.515129 
L 534.898434 417.926621 
L 542.079059 414.338119 
L 549.259683 410.749624 
L 556.440308 407.161136 
L 563.620932 403.572654 
L 570.801556 399.984177 
L 577.982181 396.395708 
L 585.162805 392.807244 
L 592.34343 389.218786 
L 599.524054 385.630334 
L 606.704679 382.041887 
L 613.885303 378.453447 
L 621.065927 374.865012 
L 628.246552 371.276583 
L 635.427176 367.68816 
L 642.607801 364.099742 
L 649.788425 360.51133 
L 656.96905 356.922924 
L 664.149674 353.334523 
L 671.330298 349.746129 
L 678.510923 346.157739 
L 685.691547 342.569356 
L 692.872172 338.980979 
L 700.052796 335.392607 
L 707.233421 331.804242 
L 714.414045 328.215882 
L 721.594669 324.627529 
L 728.775294 321.039182 
L 735.955918 317.450841 
L 743.136543 313.862507 
L 750.317167 310.274179 
L 757.497792 306.685857 
L 764.678416 303.097543 
L 771.85904 299.509236 
L 779.039665 295.920935 
L 786.220289 292.332642 
L 793.400914 288.744356 
L 800.581538 285.156078 
L 807.762163 281.567808 
L 814.942787 277.979545 
L 822.123411 274.391291 
L 829.304036 270.803045 
L 836.48466 267.214807 
L 843.665285 263.626579 
L 850.845909 260.038359 
" clip-path="url(#p6bcd6ea3a9)" style="fill: none; stroke: #d0e1f2; stroke-width: 1.5; stroke-linecap: square"/>
   </g>
   <g id="line2d_18">
    <path d="M 139.964091 101.811376 
L 147.144715 103.337223 
L 154.32534 104.85854 
L 161.505964 106.375339 
L 168.686589 107.887634 
L 175.867213 109.395439 
L 183.047837 110.898766 
L 190.228462 112.397628 
L 197.409086 113.892041 
L 204.589711 115.382015 
L 211.770335 116.867565 
L 218.95096 118.348704 
L 226.131584 119.825444 
L 233.312208 121.297799 
L 240.492833 122.765782 
L 247.673457 124.229406 
L 254.854082 125.688684 
L 262.034706 127.143629 
L 269.215331 128.594253 
L 276.395955 130.04057 
L 283.576579 131.482591 
L 290.757204 132.920331 
L 297.937828 134.353801 
L 305.118453 135.783015 
L 312.299077 137.207985 
L 319.479702 138.628725 
L 326.660326 140.045246 
L 333.84095 141.457562 
L 341.021575 142.865684 
L 348.202199 144.269625 
L 355.382824 145.669398 
L 362.563448 147.065015 
L 369.744073 148.456488 
L 376.924697 149.843829 
L 384.105321 151.227051 
L 391.285946 152.606165 
L 398.46657 153.981184 
L 405.647195 155.35212 
L 412.827819 156.718985 
L 420.008444 158.081791 
L 427.189068 159.440551 
L 434.369692 160.795275 
L 441.550317 162.145976 
L 448.730941 163.492666 
L 455.911566 164.835357 
L 463.09219 166.174061 
L 470.272815 167.508789 
L 477.453439 168.839554 
L 484.634063 170.166366 
L 491.814688 171.489238 
L 498.995312 172.808182 
L 506.175937 174.123209 
L 513.356561 175.43433 
L 520.537185 176.741558 
L 527.71781 178.044904 
L 534.898434 179.344379 
L 542.079059 180.639994 
L 549.259683 181.931763 
L 556.440308 183.219695 
L 563.620932 184.503802 
L 570.801556 185.784095 
L 577.982181 187.060587 
L 585.162805 188.333288 
L 592.34343 189.602209 
L 599.524054 190.867361 
L 606.704679 192.128757 
L 613.885303 193.386406 
L 621.065927 194.640321 
L 628.246552 195.890512 
L 635.427176 197.13699 
L 642.607801 198.379767 
L 649.788425 199.618853 
L 656.96905 200.854259 
L 664.149674 202.085997 
L 671.330298 203.314076 
L 678.510923 204.538509 
L 685.691547 205.759306 
L 692.872172 206.976477 
L 700.052796 208.190033 
L 707.233421 209.399986 
L 714.414045 210.606346 
L 721.594669 211.809123 
L 728.775294 213.008329 
L 735.955918 214.203973 
L 743.136543 215.396067 
L 750.317167 216.584621 
L 757.497792 217.769645 
L 764.678416 218.95115 
L 771.85904 220.129147 
L 779.039665 221.303645 
L 786.220289 222.474656 
L 793.400914 223.642189 
L 800.581538 224.806254 
L 807.762163 225.966863 
L 814.942787 227.124026 
L 822.123411 228.277752 
L 829.304036 229.428052 
L 836.48466 230.574936 
L 843.665285 231.718413 
L 850.845909 232.858495 
" clip-path="url(#p6bcd6ea3a9)" style="fill: none; stroke: #fdd9b4; stroke-width: 1.5; stroke-linecap: square"/>
   </g>
   <g id="line2d_19">
    <path d="M 139.964091 615.310909 
L 147.144715 611.722393 
L 154.32534 608.133872 
L 161.505964 604.545351 
L 168.686589 600.956829 
L 175.867213 597.368308 
L 183.047837 593.779786 
L 190.228462 590.191265 
L 197.409086 586.602744 
L 204.589711 583.014222 
L 211.770335 579.425701 
L 218.95096 575.83718 
L 226.131584 572.248658 
L 233.312208 568.660137 
L 240.492833 565.071615 
L 247.673457 561.483094 
L 254.854082 557.894572 
L 262.034706 554.306051 
L 269.215331 550.71753 
L 276.395955 547.129008 
L 283.576579 543.540487 
L 290.757204 539.951965 
L 297.937828 536.363444 
L 305.118453 532.774922 
L 312.299077 529.186401 
L 319.479702 525.59788 
L 326.660326 522.009358 
L 333.84095 518.420837 
L 341.021575 514.832315 
L 348.202199 511.243794 
L 355.382824 507.655273 
L 362.563448 504.066752 
L 369.744073 500.47823 
L 376.924697 496.889709 
L 384.105321 493.301188 
L 391.285946 489.712668 
L 398.46657 486.124147 
L 405.647195 482.535627 
L 412.827819 478.947107 
L 420.008444 475.358587 
L 427.189068 471.770068 
L 434.369692 468.18155 
L 441.550317 464.593033 
L 448.730941 461.004516 
L 455.911566 457.416001 
L 463.09219 453.827487 
L 470.272815 450.238976 
L 477.453439 446.650467 
L 484.634063 443.06196 
L 491.814688 439.473457 
L 498.995312 435.884958 
L 506.175937 432.296463 
L 513.356561 428.707973 
L 520.537185 425.11949 
L 527.71781 421.531014 
L 534.898434 417.942545 
L 542.079059 414.354086 
L 549.259683 410.765638 
L 556.440308 407.177202 
L 563.620932 403.588778 
L 570.801556 400.000371 
L 577.982181 396.41198 
L 585.162805 392.823609 
L 592.34343 389.23526 
L 599.524054 385.646936 
L 606.704679 382.058641 
L 613.885303 378.470378 
L 621.065927 374.882152 
L 628.246552 371.293968 
L 635.427176 367.705832 
L 642.607801 364.11775 
L 649.788425 360.52973 
L 656.96905 356.94178 
L 664.149674 353.353909 
L 671.330298 349.766129 
L 678.510923 346.178449 
L 685.691547 342.590884 
L 692.872172 339.003447 
L 700.052796 335.416155 
L 707.233421 331.829025 
L 714.414045 328.242078 
L 721.594669 324.655334 
L 728.775294 321.068818 
L 735.955918 317.482556 
L 743.136543 313.896578 
L 750.317167 310.310915 
L 757.497792 306.725602 
L 764.678416 303.14068 
L 771.85904 299.556189 
L 779.039665 295.972177 
L 786.220289 292.388694 
L 793.400914 288.805796 
L 800.581538 285.223544 
L 807.762163 281.642003 
L 814.942787 278.061246 
L 822.123411 274.481351 
L 829.304036 270.902403 
L 836.48466 267.324495 
L 843.665285 263.747726 
L 850.845909 260.172205 
" clip-path="url(#p6bcd6ea3a9)" style="fill: none; stroke: #79b5d9; stroke-width: 1.5; stroke-linecap: square"/>
   </g>
   <g id="line2d_20">
    <path d="M 139.964091 101.811376 
L 147.144715 85.703392 
L 154.32534 83.823309 
L 161.505964 83.722008 
L 168.686589 83.518424 
L 175.867213 83.439168 
L 183.047837 83.996722 
L 190.228462 83.057791 
L 197.409086 83.895308 
L 204.589711 84.038012 
L 211.770335 83.698805 
L 218.95096 83.391256 
L 226.131584 83.624763 
L 233.312208 83.764684 
L 240.492833 83.496458 
L 247.673457 83.707813 
L 254.854082 83.773069 
L 262.034706 83.581636 
L 269.215331 83.330142 
L 276.395955 84.061577 
L 283.576579 83.428306 
L 290.757204 83.27628 
L 297.937828 84.323127 
L 305.118453 83.838282 
L 312.299077 83.485869 
L 319.479702 83.507439 
L 326.660326 83.980195 
L 333.84095 83.353581 
L 341.021575 83.636819 
L 348.202199 84.043296 
L 355.382824 83.828201 
L 362.563448 83.468873 
L 369.744073 83.773975 
L 376.924697 84.163087 
L 384.105321 83.722938 
L 391.285946 84.026652 
L 398.46657 84.325031 
L 405.647195 84.322996 
L 412.827819 83.935558 
L 420.008444 85.605504 
L 427.189068 85.240908 
L 434.369692 85.462115 
L 441.550317 85.931815 
L 448.730941 87.017464 
L 455.911566 86.941529 
L 463.09219 88.819986 
L 470.272815 90.033313 
L 477.453439 91.131825 
L 484.634063 92.490876 
L 491.814688 94.768558 
L 498.995312 97.208889 
L 506.175937 99.743699 
L 513.356561 103.20296 
L 520.537185 106.91919 
L 527.71781 110.779182 
L 534.898434 115.417469 
L 542.079059 121.417977 
L 549.259683 126.3637 
L 556.440308 133.552677 
L 563.620932 140.296876 
L 570.801556 147.27235 
L 577.982181 155.170897 
L 585.162805 163.145949 
L 592.34343 171.01233 
L 599.524054 179.808476 
L 606.704679 187.332666 
L 613.885303 196.145344 
L 621.065927 203.290796 
L 628.246552 211.182584 
L 635.427176 218.033363 
L 642.607801 224.791751 
L 649.788425 230.977916 
L 656.96905 236.835004 
L 664.149674 242.088321 
L 671.330298 246.721359 
L 678.510923 251.316611 
L 685.691547 255.201977 
L 692.872172 258.71858 
L 700.052796 262.268511 
L 707.233421 264.600025 
L 714.414045 267.829691 
L 721.594669 269.319416 
L 728.775294 272.032248 
L 735.955918 273.52714 
L 743.136543 275.273537 
L 750.317167 276.892946 
L 757.497792 277.880719 
L 764.678416 279.469464 
L 771.85904 279.942864 
L 779.039665 281.445154 
L 786.220289 281.644449 
L 793.400914 282.845211 
L 800.581538 283.232959 
L 807.762163 283.852707 
L 814.942787 284.535769 
L 822.123411 284.699527 
L 829.304036 285.514105 
L 836.48466 285.39574 
L 843.665285 286.27012 
L 850.845909 285.953606 
" clip-path="url(#p6bcd6ea3a9)" style="fill: none; stroke: #fd9649; stroke-width: 1.5; stroke-linecap: square"/>
   </g>
   <g id="line2d_21">
    <path d="M 139.964091 615.310909 
L 147.144715 611.727535 
L 154.32534 608.140581 
L 161.505964 604.55208 
L 168.686589 600.963182 
L 175.867213 597.374219 
L 183.047837 593.78519 
L 190.228462 590.196201 
L 197.409086 586.60715 
L 204.589711 583.018145 
L 211.770335 579.429174 
L 218.95096 575.840052 
L 226.131584 572.25106 
L 233.312208 568.662081 
L 240.492833 565.072975 
L 247.673457 561.484047 
L 254.854082 557.894966 
L 262.034706 554.305977 
L 269.215331 550.71699 
L 276.395955 547.127865 
L 283.576579 543.538973 
L 290.757204 539.949888 
L 297.937828 536.360818 
L 305.118453 532.771922 
L 312.299077 529.182755 
L 319.479702 525.593833 
L 326.660326 522.004794 
L 333.84095 518.415749 
L 341.021575 514.82679 
L 348.202199 511.237691 
L 355.382824 507.648758 
L 362.563448 504.059689 
L 369.744073 500.470667 
L 376.924697 496.881723 
L 384.105321 493.29257 
L 391.285946 489.703658 
L 398.46657 486.114633 
L 405.647195 482.525493 
L 412.827819 478.936619 
L 420.008444 475.347488 
L 427.189068 471.758533 
L 434.369692 468.169512 
L 441.550317 464.580464 
L 448.730941 460.991505 
L 455.911566 457.402406 
L 463.09219 453.81347 
L 470.272815 450.224421 
L 477.453439 446.635341 
L 484.634063 443.046454 
L 491.814688 439.4573 
L 498.995312 435.868321 
L 506.175937 432.279366 
L 513.356561 428.690201 
L 520.537185 425.101314 
L 527.71781 421.512222 
L 534.898434 417.923247 
L 542.079059 414.334233 
L 549.259683 410.745179 
L 556.440308 407.15623 
L 563.620932 403.567126 
L 570.801556 399.978178 
L 577.982181 396.389174 
L 585.162805 392.80002 
L 592.34343 389.211166 
L 599.524054 385.62206 
L 606.704679 382.033 
L 613.885303 378.444087 
L 621.065927 374.854946 
L 628.246552 371.266033 
L 635.427176 367.676965 
L 642.607801 364.087981 
L 649.788425 360.498974 
L 656.96905 356.909904 
L 664.149674 353.320981 
L 671.330298 349.73188 
L 678.510923 346.142881 
L 685.691547 342.553959 
L 692.872172 338.96476 
L 700.052796 335.375872 
L 707.233421 331.786846 
L 714.414045 328.197747 
L 721.594669 324.608838 
L 728.775294 321.019736 
L 735.955918 317.430804 
L 743.136543 313.84175 
L 750.317167 310.252761 
L 757.497792 306.663775 
L 764.678416 303.074678 
L 771.85904 299.485787 
L 779.039665 295.89672 
L 786.220289 292.307621 
L 793.400914 288.718788 
L 800.581538 285.129616 
L 807.762163 281.540658 
L 814.942787 277.951693 
L 822.123411 274.362612 
L 829.304036 270.773691 
L 836.48466 267.184622 
L 843.665285 263.595655 
L 850.845909 260.006651 
" clip-path="url(#p6bcd6ea3a9)" style="fill: none; stroke: #2575b7; stroke-width: 1.5; stroke-linecap: square"/>
   </g>
   <g id="line2d_22">
    <path d="M 139.964091 101.811376 
L 147.144715 142.870267 
L 154.32534 153.685123 
L 161.505964 156.744406 
L 168.686589 157.431137 
L 175.867213 157.776883 
L 183.047837 157.727817 
L 190.228462 157.921221 
L 197.409086 157.747605 
L 204.589711 157.840683 
L 211.770335 158.131541 
L 218.95096 157.542091 
L 226.131584 157.722098 
L 233.312208 157.957923 
L 240.492833 157.45016 
L 247.673457 157.994993 
L 254.854082 157.63311 
L 262.034706 157.821602 
L 269.215331 158.0066 
L 276.395955 157.397144 
L 283.576579 158.139256 
L 290.757204 157.747567 
L 297.937828 157.473828 
L 305.118453 158.171247 
L 312.299077 157.297134 
L 319.479702 157.886359 
L 326.660326 157.748261 
L 333.84095 157.605785 
L 341.021575 157.959242 
L 348.202199 157.492419 
L 355.382824 158.007618 
L 362.563448 157.712628 
L 369.744073 157.71216 
L 376.924697 158.145304 
L 384.105321 157.366561 
L 391.285946 157.997768 
L 398.46657 157.945664 
L 405.647195 157.257016 
L 412.827819 158.098564 
L 420.008444 157.423423 
L 427.189068 157.812132 
L 434.369692 157.791391 
L 441.550317 157.626303 
L 448.730941 157.985272 
L 455.911566 157.517522 
L 463.09219 158.015521 
L 470.272815 157.83695 
L 477.453439 157.499819 
L 484.634063 158.254189 
L 491.814688 157.465847 
L 498.995312 157.718475 
L 506.175937 158.063734 
L 513.356561 157.203909 
L 520.537185 157.988191 
L 527.71781 157.535311 
L 534.898434 157.802578 
L 542.079059 157.828049 
L 549.259683 157.625855 
L 556.440308 158.041452 
L 563.620932 157.544776 
L 570.801556 157.958436 
L 577.982181 158.034852 
L 585.162805 157.259883 
L 592.34343 158.205796 
L 599.524054 157.672076 
L 606.704679 157.452112 
L 613.885303 158.046025 
L 621.065927 157.301263 
L 628.246552 157.924411 
L 635.427176 157.615671 
L 642.607801 157.817946 
L 649.788425 157.880276 
L 656.96905 157.571326 
L 664.149674 158.1235 
L 671.330298 157.625939 
L 678.510923 157.73488 
L 685.691547 158.257935 
L 692.872172 157.198619 
L 700.052796 157.951794 
L 707.233421 157.843342 
L 714.414045 157.355854 
L 721.594669 157.969886 
L 728.775294 157.431538 
L 735.955918 157.916673 
L 743.136543 157.675315 
L 750.317167 157.819226 
L 757.497792 157.971701 
L 764.678416 157.47424 
L 771.85904 158.170356 
L 779.039665 157.831921 
L 786.220289 157.336556 
L 793.400914 158.324607 
L 800.581538 157.351809 
L 807.762163 157.667681 
L 814.942787 157.881307 
L 822.123411 157.425086 
L 829.304036 157.925085 
L 836.48466 157.530327 
L 843.665285 157.760338 
L 850.845909 157.759566 
" clip-path="url(#p6bcd6ea3a9)" style="fill: none; stroke: #dc4c03; stroke-width: 1.5; stroke-linecap: square"/>
   </g>
   <g id="line2d_23">
    <path d="M 139.964091 615.310909 
L 147.144715 612.580611 
L 154.32534 610.166609 
L 161.505964 607.83391 
L 168.686589 605.52218 
L 175.867213 603.222069 
L 183.047837 600.920961 
L 190.228462 598.628068 
L 197.409086 596.328636 
L 204.589711 594.029554 
L 211.770335 591.75582 
L 218.95096 589.47306 
L 226.131584 587.171999 
L 233.312208 584.900003 
L 240.492833 582.608525 
L 247.673457 580.330891 
L 254.854082 578.051248 
L 262.034706 575.768331 
L 269.215331 573.506344 
L 276.395955 571.219999 
L 283.576579 568.943547 
L 290.757204 566.706469 
L 297.937828 564.421541 
L 305.118453 562.157405 
L 312.299077 559.896463 
L 319.479702 557.629003 
L 326.660326 555.374595 
L 333.84095 553.107158 
L 341.021575 550.858617 
L 348.202199 548.600658 
L 355.382824 546.333105 
L 362.563448 544.106148 
L 369.744073 541.852429 
L 376.924697 539.591746 
L 384.105321 537.354268 
L 391.285946 535.092876 
L 398.46657 532.850323 
L 405.647195 530.590253 
L 412.827819 528.338868 
L 420.008444 526.091239 
L 427.189068 523.808674 
L 434.369692 521.558985 
L 441.550317 519.297692 
L 448.730941 516.992712 
L 455.911566 514.709656 
L 463.09219 512.380823 
L 470.272815 510.050424 
L 477.453439 507.678252 
L 484.634063 505.280051 
L 491.814688 502.853509 
L 498.995312 500.342518 
L 506.175937 497.800714 
L 513.356561 495.144829 
L 520.537185 492.406675 
L 527.71781 489.538304 
L 534.898434 486.481109 
L 542.079059 483.263401 
L 549.259683 479.7102 
L 556.440308 475.875427 
L 563.620932 471.544779 
L 570.801556 466.709611 
L 577.982181 461.206362 
L 585.162805 455.036357 
L 592.34343 448.22929 
L 599.524054 440.907822 
L 606.704679 433.243719 
L 613.885303 425.360238 
L 621.065927 417.350033 
L 628.246552 409.259652 
L 635.427176 401.131085 
L 642.607801 392.973067 
L 649.788425 384.806444 
L 656.96905 376.629716 
L 664.149674 368.455126 
L 671.330298 360.277937 
L 678.510923 352.106898 
L 685.691547 343.93789 
L 692.872172 335.773567 
L 700.052796 327.617565 
L 707.233421 319.462593 
L 714.414045 311.318352 
L 721.594669 303.178918 
L 728.775294 295.042436 
L 735.955918 286.919127 
L 743.136543 278.79668 
L 750.317167 270.683378 
L 757.497792 262.577824 
L 764.678416 254.475192 
L 771.85904 246.38428 
L 779.039665 238.2961 
L 786.220289 230.216555 
L 793.400914 222.144516 
L 800.581538 214.075424 
L 807.762163 206.018433 
L 814.942787 197.964541 
L 822.123411 189.916402 
L 829.304036 181.880207 
L 836.48466 173.844309 
L 843.665285 165.818756 
L 850.845909 157.800292 
" clip-path="url(#p6bcd6ea3a9)" style="fill: none; stroke: #08306b; stroke-width: 1.5; stroke-linecap: square"/>
   </g>
   <g id="line2d_24">
    <path d="M 139.964091 101.811376 
L 147.144715 85.821779 
L 154.32534 81.446894 
L 161.505964 80.257171 
L 168.686589 79.849342 
L 175.867213 79.831961 
L 183.047837 79.698939 
L 190.228462 79.822055 
L 197.409086 79.595049 
L 204.589711 79.297915 
L 211.770335 79.979606 
L 218.95096 80.218439 
L 226.131584 79.60472 
L 233.312208 80.09171 
L 240.492833 79.721778 
L 247.673457 79.833468 
L 254.854082 79.78865 
L 262.034706 79.528015 
L 269.215331 80.053645 
L 276.395955 79.485362 
L 283.576579 79.228962 
L 290.757204 80.576738 
L 297.937828 79.866009 
L 305.118453 79.88016 
L 312.299077 79.970156 
L 319.479702 79.732391 
L 326.660326 79.954763 
L 333.84095 79.57905 
L 341.021575 79.912092 
L 348.202199 79.796708 
L 355.382824 79.205035 
L 362.563448 80.278009 
L 369.744073 80.224443 
L 376.924697 79.814871 
L 384.105321 80.343305 
L 391.285946 79.933108 
L 398.46657 80.321848 
L 405.647195 80.075823 
L 412.827819 80.292635 
L 420.008444 80.832244 
L 427.189068 80.139581 
L 434.369692 81.107828 
L 441.550317 82.032905 
L 448.730941 81.653021 
L 455.911566 82.766849 
L 463.09219 82.896254 
L 470.272815 83.952032 
L 477.453439 84.621947 
L 484.634063 85.802753 
L 491.814688 87.792481 
L 498.995312 88.888655 
L 506.175937 91.662591 
L 513.356561 93.769348 
L 520.537185 97.178292 
L 527.71781 101.332138 
L 534.898434 105.547677 
L 542.079059 112.524362 
L 549.259683 118.783872 
L 556.440308 128.751232 
L 563.620932 139.040875 
L 570.801556 152.988572 
L 577.982181 168.270362 
L 585.162805 185.941017 
L 592.34343 204.134585 
L 599.524054 220.402085 
L 606.704679 234.6199 
L 613.885303 245.728418 
L 621.065927 254.173295 
L 628.246552 259.731999 
L 635.427176 264.06483 
L 642.607801 266.503971 
L 649.788425 268.666892 
L 656.96905 269.655882 
L 664.149674 270.833808 
L 671.330298 271.161458 
L 678.510923 271.833945 
L 685.691547 272.042791 
L 692.872172 272.118692 
L 700.052796 272.630252 
L 707.233421 272.270542 
L 714.414045 272.665708 
L 721.594669 272.803276 
L 728.775294 272.304444 
L 735.955918 272.944971 
L 743.136543 272.604903 
L 750.317167 272.662849 
L 757.497792 272.915093 
L 764.678416 272.510713 
L 771.85904 272.951047 
L 779.039665 272.710818 
L 786.220289 272.782942 
L 793.400914 272.995378 
L 800.581538 272.544148 
L 807.762163 273.018002 
L 814.942787 272.872154 
L 822.123411 272.532805 
L 829.304036 273.115479 
L 836.48466 272.586919 
L 843.665285 272.652626 
L 850.845909 272.783611 
" clip-path="url(#p6bcd6ea3a9)" style="fill: none; stroke: #7f2704; stroke-width: 1.5; stroke-linecap: square"/>
   </g>
   <g id="patch_3">
    <path d="M 104.42 643.48 
L 104.42 23.76 
" style="fill: none; stroke: #000000; stroke-width: 0.8; stroke-linejoin: miter; stroke-linecap: square"/>
   </g>
   <g id="patch_4">
    <path d="M 886.39 643.48 
L 886.39 23.76 
" style="fill: none; stroke: #000000; stroke-width: 0.8; stroke-linejoin: miter; stroke-linecap: square"/>
   </g>
   <g id="patch_5">
    <path d="M 104.42 643.48 
L 886.39 643.48 
" style="fill: none; stroke: #000000; stroke-width: 0.8; stroke-linejoin: miter; stroke-linecap: square"/>
   </g>
   <g id="patch_6">
    <path d="M 104.42 23.76 
L 886.39 23.76 
" style="fill: none; stroke: #000000; stroke-width: 0.8; stroke-linejoin: miter; stroke-linecap: square"/>
   </g>
   <g id="legend_1">
    <g id="patch_7">
     <path d="M 901.79 364.27875 
L 1051.867813 364.27875 
Q 1056.267813 364.27875 1056.267813 359.87875 
L 1056.267813 39.16 
Q 1056.267813 34.76 1051.867813 34.76 
L 901.79 34.76 
Q 897.39 34.76 897.39 39.16 
L 897.39 359.87875 
Q 897.39 364.27875 901.79 364.27875 
z
" style="fill: #ffffff; opacity: 0.8; stroke: #cccccc; stroke-linejoin: miter"/>
    </g>
    <g id="PathCollection_3">
     <g>
      <use xlink:href="#m80f1702e56" x="928.19" y="54.501563" style="fill: #1f77b4; stroke: #1f77b4"/>
     </g>
    </g>
    <g id="text_19">
     <!-- Xi -->
     <g transform="translate(967.79 60.276563) scale(0.22 -0.22)">
      <use xlink:href="#DejaVuSans-58"/>
      <use xlink:href="#DejaVuSans-69" x="68.505859"/>
     </g>
    </g>
    <g id="PathCollection_4">
     <g>
      <use xlink:href="#m62fcbac0dc" x="928.19" y="86.793438" style="fill: #ff7f0e; stroke: #ff7f0e"/>
     </g>
    </g>
    <g id="text_20">
     <!-- Xa -->
     <g transform="translate(967.79 92.568438) scale(0.22 -0.22)">
      <use xlink:href="#DejaVuSans-58"/>
      <use xlink:href="#DejaVuSans-61" x="68.505859"/>
     </g>
    </g>
    <g id="line2d_25">
     <path d="M 906.19 117.160313 
L 928.19 117.160313 
L 950.19 117.160313 
" style="fill: none; stroke: #d0e1f2; stroke-width: 1.5; stroke-linecap: square"/>
    </g>
    <g id="text_21">
     <!-- Xi-AAII -->
     <g transform="translate(967.79 124.860313) scale(0.22 -0.22)">
      <defs>
       <path id="DejaVuSans-2d" d="M 313 2009 
L 1997 2009 
L 1997 1497 
L 313 1497 
L 313 2009 
z
" transform="scale(0.015625)"/>
       <path id="DejaVuSans-49" d="M 628 4666 
L 1259 4666 
L 1259 0 
L 628 0 
L 628 4666 
z
" transform="scale(0.015625)"/>
      </defs>
      <use xlink:href="#DejaVuSans-58"/>
      <use xlink:href="#DejaVuSans-69" x="68.505859"/>
      <use xlink:href="#DejaVuSans-2d" x="96.289062"/>
      <use xlink:href="#DejaVuSans-41" x="130.123047"/>
      <use xlink:href="#DejaVuSans-41" x="201.28125"/>
      <use xlink:href="#DejaVuSans-49" x="269.689453"/>
      <use xlink:href="#DejaVuSans-49" x="299.181641"/>
     </g>
    </g>
    <g id="line2d_26">
     <path d="M 906.19 149.452188 
L 928.19 149.452188 
L 950.19 149.452188 
" style="fill: none; stroke: #fdd9b4; stroke-width: 1.5; stroke-linecap: square"/>
    </g>
    <g id="text_22">
     <!-- Xa-AAII -->
     <g transform="translate(967.79 157.152188) scale(0.22 -0.22)">
      <use xlink:href="#DejaVuSans-58"/>
      <use xlink:href="#DejaVuSans-61" x="68.505859"/>
      <use xlink:href="#DejaVuSans-2d" x="129.785156"/>
      <use xlink:href="#DejaVuSans-41" x="163.619141"/>
      <use xlink:href="#DejaVuSans-41" x="234.777344"/>
      <use xlink:href="#DejaVuSans-49" x="303.185547"/>
      <use xlink:href="#DejaVuSans-49" x="332.677734"/>
     </g>
    </g>
    <g id="line2d_27">
     <path d="M 906.19 181.744063 
L 928.19 181.744063 
L 950.19 181.744063 
" style="fill: none; stroke: #79b5d9; stroke-width: 1.5; stroke-linecap: square"/>
    </g>
    <g id="text_23">
     <!-- Xi-AIII -->
     <g transform="translate(967.79 189.444063) scale(0.22 -0.22)">
      <use xlink:href="#DejaVuSans-58"/>
      <use xlink:href="#DejaVuSans-69" x="68.505859"/>
      <use xlink:href="#DejaVuSans-2d" x="96.289062"/>
      <use xlink:href="#DejaVuSans-41" x="130.123047"/>
      <use xlink:href="#DejaVuSans-49" x="198.53125"/>
      <use xlink:href="#DejaVuSans-49" x="228.023438"/>
      <use xlink:href="#DejaVuSans-49" x="257.515625"/>
     </g>
    </g>
    <g id="line2d_28">
     <path d="M 906.19 214.035938 
L 928.19 214.035938 
L 950.19 214.035938 
" style="fill: none; stroke: #fd9649; stroke-width: 1.5; stroke-linecap: square"/>
    </g>
    <g id="text_24">
     <!-- Xa-AIII -->
     <g transform="translate(967.79 221.735938) scale(0.22 -0.22)">
      <use xlink:href="#DejaVuSans-58"/>
      <use xlink:href="#DejaVuSans-61" x="68.505859"/>
      <use xlink:href="#DejaVuSans-2d" x="129.785156"/>
      <use xlink:href="#DejaVuSans-41" x="163.619141"/>
      <use xlink:href="#DejaVuSans-49" x="232.027344"/>
      <use xlink:href="#DejaVuSans-49" x="261.519531"/>
      <use xlink:href="#DejaVuSans-49" x="291.011719"/>
     </g>
    </g>
    <g id="line2d_29">
     <path d="M 906.19 246.327813 
L 928.19 246.327813 
L 950.19 246.327813 
" style="fill: none; stroke: #2575b7; stroke-width: 1.5; stroke-linecap: square"/>
    </g>
    <g id="text_25">
     <!-- Xi-IAII -->
     <g transform="translate(967.79 254.027813) scale(0.22 -0.22)">
      <use xlink:href="#DejaVuSans-58"/>
      <use xlink:href="#DejaVuSans-69" x="68.505859"/>
      <use xlink:href="#DejaVuSans-2d" x="96.289062"/>
      <use xlink:href="#DejaVuSans-49" x="132.373047"/>
      <use xlink:href="#DejaVuSans-41" x="161.865234"/>
      <use xlink:href="#DejaVuSans-49" x="230.273438"/>
      <use xlink:href="#DejaVuSans-49" x="259.765625"/>
     </g>
    </g>
    <g id="line2d_30">
     <path d="M 906.19 278.619688 
L 928.19 278.619688 
L 950.19 278.619688 
" style="fill: none; stroke: #dc4c03; stroke-width: 1.5; stroke-linecap: square"/>
    </g>
    <g id="text_26">
     <!-- Xa-IAII -->
     <g transform="translate(967.79 286.319688) scale(0.22 -0.22)">
      <use xlink:href="#DejaVuSans-58"/>
      <use xlink:href="#DejaVuSans-61" x="68.505859"/>
      <use xlink:href="#DejaVuSans-2d" x="129.785156"/>
      <use xlink:href="#DejaVuSans-49" x="165.869141"/>
      <use xlink:href="#DejaVuSans-41" x="195.361328"/>
      <use xlink:href="#DejaVuSans-49" x="263.769531"/>
      <use xlink:href="#DejaVuSans-49" x="293.261719"/>
     </g>
    </g>
    <g id="line2d_31">
     <path d="M 906.19 310.911563 
L 928.19 310.911563 
L 950.19 310.911563 
" style="fill: none; stroke: #08306b; stroke-width: 1.5; stroke-linecap: square"/>
    </g>
    <g id="text_27">
     <!-- Xi-IIII -->
     <g transform="translate(967.79 318.611563) scale(0.22 -0.22)">
      <use xlink:href="#DejaVuSans-58"/>
      <use xlink:href="#DejaVuSans-69" x="68.505859"/>
      <use xlink:href="#DejaVuSans-2d" x="96.289062"/>
      <use xlink:href="#DejaVuSans-49" x="132.373047"/>
      <use xlink:href="#DejaVuSans-49" x="161.865234"/>
      <use xlink:href="#DejaVuSans-49" x="191.357422"/>
      <use xlink:href="#DejaVuSans-49" x="220.849609"/>
     </g>
    </g>
    <g id="line2d_32">
     <path d="M 906.19 343.203438 
L 928.19 343.203438 
L 950.19 343.203438 
" style="fill: none; stroke: #7f2704; stroke-width: 1.5; stroke-linecap: square"/>
    </g>
    <g id="text_28">
     <!-- Xa-IIII -->
     <g transform="translate(967.79 350.903438) scale(0.22 -0.22)">
      <use xlink:href="#DejaVuSans-58"/>
      <use xlink:href="#DejaVuSans-61" x="68.505859"/>
      <use xlink:href="#DejaVuSans-2d" x="129.785156"/>
      <use xlink:href="#DejaVuSans-49" x="165.869141"/>
      <use xlink:href="#DejaVuSans-49" x="195.361328"/>
      <use xlink:href="#DejaVuSans-49" x="224.853516"/>
      <use xlink:href="#DejaVuSans-49" x="254.345703"/>
     </g>
    </g>
   </g>
  </g>
 </g>
 <defs>
  <clipPath id="p6bcd6ea3a9">
   <rect x="104.42" y="23.76" width="781.97" height="619.72"/>
  </clipPath>
 </defs>
</svg>
