<?xml version="1.0" encoding="utf-8" standalone="no"?>
<!DOCTYPE svg PUBLIC "-//W3C//DTD SVG 1.1//EN"
  "http://www.w3.org/Graphics/SVG/1.1/DTD/svg11.dtd">
<svg xmlns:xlink="http://www.w3.org/1999/xlink" width="1080pt" height="720pt" viewBox="0 0 1080 720" xmlns="http://www.w3.org/2000/svg" version="1.1">
 <metadata>
  <rdf:RDF xmlns:dc="http://purl.org/dc/elements/1.1/" xmlns:cc="http://creativecommons.org/ns#" xmlns:rdf="http://www.w3.org/1999/02/22-rdf-syntax-ns#">
   <cc:Work>
    <dc:type rdf:resource="http://purl.org/dc/dcmitype/StillImage"/>
    <dc:date>2023-01-11T19:55:45.231621</dc:date>
    <dc:format>image/svg+xml</dc:format>
    <dc:creator>
     <cc:Agent>
      <dc:title>Matplotlib v3.6.2, https://matplotlib.org/</dc:title>
     </cc:Agent>
    </dc:creator>
   </cc:Work>
  </rdf:RDF>
 </metadata>
 <defs>
  <style type="text/css">*{stroke-linejoin: round; stroke-linecap: butt}</style>
 </defs>
 <g id="figure_1">
  <g id="patch_1">
   <path d="M 0 720 
L 1080 720 
L 1080 0 
L 0 0 
z
" style="fill: #ffffff"/>
  </g>
  <g id="axes_1">
   <g id="patch_2">
    <path d="M 104.42 643.48 
L 886.39 643.48 
L 886.39 23.76 
L 104.42 23.76 
z
" style="fill: #ffffff"/>
   </g>
   <g id="PathCollection_1">
    <defs>
     <path id="m80f1702e56" d="M 0 3 
C 0.795609 3 1.55874 2.683901 2.12132 2.12132 
C 2.683901 1.55874 3 0.795609 3 0 
C 3 -0.795609 2.683901 -1.55874 2.12132 -2.12132 
C 1.55874 -2.683901 0.795609 -3 0 -3 
C -0.795609 -3 -1.55874 -2.683901 -2.12132 -2.12132 
C -2.683901 -1.55874 -3 -0.795609 -3 0 
C -3 0.795609 -2.683901 1.55874 -2.12132 2.12132 
C -1.55874 2.683901 -0.795609 3 0 3 
z
" style="stroke: #1f77b4"/>
    </defs>
    <g clip-path="url(#p6bcd6ea3a9)">
     <use xlink:href="#m80f1702e56" x="139.964091" y="615.310909" style="fill: #1f77b4; stroke: #1f77b4"/>
     <use xlink:href="#m80f1702e56" x="177.378923" y="611.022381" style="fill: #1f77b4; stroke: #1f77b4"/>
     <use xlink:href="#m80f1702e56" x="214.793756" y="606.733853" style="fill: #1f77b4; stroke: #1f77b4"/>
     <use xlink:href="#m80f1702e56" x="252.208589" y="602.445324" style="fill: #1f77b4; stroke: #1f77b4"/>
     <use xlink:href="#m80f1702e56" x="289.623421" y="598.156796" style="fill: #1f77b4; stroke: #1f77b4"/>
     <use xlink:href="#m80f1702e56" x="327.038254" y="593.868268" style="fill: #1f77b4; stroke: #1f77b4"/>
     <use xlink:href="#m80f1702e56" x="364.453086" y="589.57974" style="fill: #1f77b4; stroke: #1f77b4"/>
     <use xlink:href="#m80f1702e56" x="401.867919" y="585.291212" style="fill: #1f77b4; stroke: #1f77b4"/>
     <use xlink:href="#m80f1702e56" x="439.282751" y="581.002683" style="fill: #1f77b4; stroke: #1f77b4"/>
     <use xlink:href="#m80f1702e56" x="476.697584" y="569.371903" style="fill: #1f77b4; stroke: #1f77b4"/>
     <use xlink:href="#m80f1702e56" x="514.112416" y="567.018417" style="fill: #1f77b4; stroke: #1f77b4"/>
     <use xlink:href="#m80f1702e56" x="551.527249" y="522.988588" style="fill: #1f77b4; stroke: #1f77b4"/>
     <use xlink:href="#m80f1702e56" x="588.942081" y="478.95876" style="fill: #1f77b4; stroke: #1f77b4"/>
     <use xlink:href="#m80f1702e56" x="626.356914" y="478.95876" style="fill: #1f77b4; stroke: #1f77b4"/>
     <use xlink:href="#m80f1702e56" x="663.771746" y="478.95876" style="fill: #1f77b4; stroke: #1f77b4"/>
     <use xlink:href="#m80f1702e56" x="701.186579" y="478.95876" style="fill: #1f77b4; stroke: #1f77b4"/>
     <use xlink:href="#m80f1702e56" x="738.601411" y="478.95876" style="fill: #1f77b4; stroke: #1f77b4"/>
     <use xlink:href="#m80f1702e56" x="776.016244" y="478.95876" style="fill: #1f77b4; stroke: #1f77b4"/>
     <use xlink:href="#m80f1702e56" x="813.431077" y="478.95876" style="fill: #1f77b4; stroke: #1f77b4"/>
     <use xlink:href="#m80f1702e56" x="850.845909" y="478.95876" style="fill: #1f77b4; stroke: #1f77b4"/>
    </g>
   </g>
   <g id="PathCollection_2">
    <defs>
     <path id="m62fcbac0dc" d="M 0 3 
C 0.795609 3 1.55874 2.683901 2.12132 2.12132 
C 2.683901 1.55874 3 0.795609 3 0 
C 3 -0.795609 2.683901 -1.55874 2.12132 -2.12132 
C 1.55874 -2.683901 0.795609 -3 0 -3 
C -0.795609 -3 -1.55874 -2.683901 -2.12132 -2.12132 
C -2.683901 -1.55874 -3 -0.795609 -3 0 
C -3 0.795609 -2.683901 1.55874 -2.12132 2.12132 
C -1.55874 2.683901 -0.795609 3 0 3 
z
" style="stroke: #ff7f0e"/>
    </defs>
    <g clip-path="url(#p6bcd6ea3a9)">
     <use xlink:href="#m62fcbac0dc" x="139.964091" y="101.811376" style="fill: #ff7f0e; stroke: #ff7f0e"/>
     <use xlink:href="#m62fcbac0dc" x="177.378923" y="99.192541" style="fill: #ff7f0e; stroke: #ff7f0e"/>
     <use xlink:href="#m62fcbac0dc" x="214.793756" y="96.573705" style="fill: #ff7f0e; stroke: #ff7f0e"/>
     <use xlink:href="#m62fcbac0dc" x="252.208589" y="93.95487" style="fill: #ff7f0e; stroke: #ff7f0e"/>
     <use xlink:href="#m62fcbac0dc" x="289.623421" y="91.336035" style="fill: #ff7f0e; stroke: #ff7f0e"/>
     <use xlink:href="#m62fcbac0dc" x="327.038254" y="88.7172" style="fill: #ff7f0e; stroke: #ff7f0e"/>
     <use xlink:href="#m62fcbac0dc" x="364.453086" y="86.098365" style="fill: #ff7f0e; stroke: #ff7f0e"/>
     <use xlink:href="#m62fcbac0dc" x="401.867919" y="83.47953" style="fill: #ff7f0e; stroke: #ff7f0e"/>
     <use xlink:href="#m62fcbac0dc" x="439.282751" y="80.860695" style="fill: #ff7f0e; stroke: #ff7f0e"/>
     <use xlink:href="#m62fcbac0dc" x="476.697584" y="113.550867" style="fill: #ff7f0e; stroke: #ff7f0e"/>
     <use xlink:href="#m62fcbac0dc" x="514.112416" y="51.929091" style="fill: #ff7f0e; stroke: #ff7f0e"/>
     <use xlink:href="#m62fcbac0dc" x="551.527249" y="90.127012" style="fill: #ff7f0e; stroke: #ff7f0e"/>
     <use xlink:href="#m62fcbac0dc" x="588.942081" y="128.324932" style="fill: #ff7f0e; stroke: #ff7f0e"/>
     <use xlink:href="#m62fcbac0dc" x="626.356914" y="128.324932" style="fill: #ff7f0e; stroke: #ff7f0e"/>
     <use xlink:href="#m62fcbac0dc" x="663.771746" y="128.324932" style="fill: #ff7f0e; stroke: #ff7f0e"/>
     <use xlink:href="#m62fcbac0dc" x="701.186579" y="128.324932" style="fill: #ff7f0e; stroke: #ff7f0e"/>
     <use xlink:href="#m62fcbac0dc" x="738.601411" y="128.324932" style="fill: #ff7f0e; stroke: #ff7f0e"/>
     <use xlink:href="#m62fcbac0dc" x="776.016244" y="128.324932" style="fill: #ff7f0e; stroke: #ff7f0e"/>
     <use xlink:href="#m62fcbac0dc" x="813.431077" y="128.324932" style="fill: #ff7f0e; stroke: #ff7f0e"/>
     <use xlink:href="#m62fcbac0dc" x="850.845909" y="128.324932" style="fill: #ff7f0e; stroke: #ff7f0e"/>
    </g>
   </g>
   <g id="matplotlib.axis_1">
    <g id="xtick_1">
     <g id="line2d_1">
      <defs>
       <path id="m3385fdae1e" d="M 0 0 
L 0 3.5 
" style="stroke: #000000; stroke-width: 0.8"/>
      </defs>
      <g>
       <use xlink:href="#m3385fdae1e" x="139.964091" y="643.48" style="stroke: #000000; stroke-width: 0.8"/>
      </g>
     </g>
     <g id="text_1">
      <!-- 0.0 -->
      <g transform="translate(122.470653 667.196563) scale(0.22 -0.22)">
       <defs>
        <path id="DejaVuSans-30" d="M 2034 4250 
Q 1547 4250 1301 3770 
Q 1056 3291 1056 2328 
Q 1056 1369 1301 889 
Q 1547 409 2034 409 
Q 2525 409 2770 889 
Q 3016 1369 3016 2328 
Q 3016 3291 2770 3770 
Q 2525 4250 2034 4250 
z
M 2034 4750 
Q 2819 4750 3233 4129 
Q 3647 3509 3647 2328 
Q 3647 1150 3233 529 
Q 2819 -91 2034 -91 
Q 1250 -91 836 529 
Q 422 1150 422 2328 
Q 422 3509 836 4129 
Q 1250 4750 2034 4750 
z
" transform="scale(0.015625)"/>
        <path id="DejaVuSans-2e" d="M 684 794 
L 1344 794 
L 1344 0 
L 684 0 
L 684 794 
z
" transform="scale(0.015625)"/>
       </defs>
       <use xlink:href="#DejaVuSans-30"/>
       <use xlink:href="#DejaVuSans-2e" x="63.623047"/>
       <use xlink:href="#DejaVuSans-30" x="95.410156"/>
      </g>
     </g>
    </g>
    <g id="xtick_2">
     <g id="line2d_2">
      <g>
       <use xlink:href="#m3385fdae1e" x="233.501172" y="643.48" style="stroke: #000000; stroke-width: 0.8"/>
      </g>
     </g>
     <g id="text_2">
      <!-- 2.5 -->
      <g transform="translate(216.007735 667.196563) scale(0.22 -0.22)">
       <defs>
        <path id="DejaVuSans-32" d="M 1228 531 
L 3431 531 
L 3431 0 
L 469 0 
L 469 531 
Q 828 903 1448 1529 
Q 2069 2156 2228 2338 
Q 2531 2678 2651 2914 
Q 2772 3150 2772 3378 
Q 2772 3750 2511 3984 
Q 2250 4219 1831 4219 
Q 1534 4219 1204 4116 
Q 875 4013 500 3803 
L 500 4441 
Q 881 4594 1212 4672 
Q 1544 4750 1819 4750 
Q 2544 4750 2975 4387 
Q 3406 4025 3406 3419 
Q 3406 3131 3298 2873 
Q 3191 2616 2906 2266 
Q 2828 2175 2409 1742 
Q 1991 1309 1228 531 
z
" transform="scale(0.015625)"/>
        <path id="DejaVuSans-35" d="M 691 4666 
L 3169 4666 
L 3169 4134 
L 1269 4134 
L 1269 2991 
Q 1406 3038 1543 3061 
Q 1681 3084 1819 3084 
Q 2600 3084 3056 2656 
Q 3513 2228 3513 1497 
Q 3513 744 3044 326 
Q 2575 -91 1722 -91 
Q 1428 -91 1123 -41 
Q 819 9 494 109 
L 494 744 
Q 775 591 1075 516 
Q 1375 441 1709 441 
Q 2250 441 2565 725 
Q 2881 1009 2881 1497 
Q 2881 1984 2565 2268 
Q 2250 2553 1709 2553 
Q 1456 2553 1204 2497 
Q 953 2441 691 2322 
L 691 4666 
z
" transform="scale(0.015625)"/>
       </defs>
       <use xlink:href="#DejaVuSans-32"/>
       <use xlink:href="#DejaVuSans-2e" x="63.623047"/>
       <use xlink:href="#DejaVuSans-35" x="95.410156"/>
      </g>
     </g>
    </g>
    <g id="xtick_3">
     <g id="line2d_3">
      <g>
       <use xlink:href="#m3385fdae1e" x="327.038254" y="643.48" style="stroke: #000000; stroke-width: 0.8"/>
      </g>
     </g>
     <g id="text_3">
      <!-- 5.0 -->
      <g transform="translate(309.544816 667.196563) scale(0.22 -0.22)">
       <use xlink:href="#DejaVuSans-35"/>
       <use xlink:href="#DejaVuSans-2e" x="63.623047"/>
       <use xlink:href="#DejaVuSans-30" x="95.410156"/>
      </g>
     </g>
    </g>
    <g id="xtick_4">
     <g id="line2d_4">
      <g>
       <use xlink:href="#m3385fdae1e" x="420.575335" y="643.48" style="stroke: #000000; stroke-width: 0.8"/>
      </g>
     </g>
     <g id="text_4">
      <!-- 7.5 -->
      <g transform="translate(403.081897 667.196563) scale(0.22 -0.22)">
       <defs>
        <path id="DejaVuSans-37" d="M 525 4666 
L 3525 4666 
L 3525 4397 
L 1831 0 
L 1172 0 
L 2766 4134 
L 525 4134 
L 525 4666 
z
" transform="scale(0.015625)"/>
       </defs>
       <use xlink:href="#DejaVuSans-37"/>
       <use xlink:href="#DejaVuSans-2e" x="63.623047"/>
       <use xlink:href="#DejaVuSans-35" x="95.410156"/>
      </g>
     </g>
    </g>
    <g id="xtick_5">
     <g id="line2d_5">
      <g>
       <use xlink:href="#m3385fdae1e" x="514.112416" y="643.48" style="stroke: #000000; stroke-width: 0.8"/>
      </g>
     </g>
     <g id="text_5">
      <!-- 10.0 -->
      <g transform="translate(489.620229 667.196563) scale(0.22 -0.22)">
       <defs>
        <path id="DejaVuSans-31" d="M 794 531 
L 1825 531 
L 1825 4091 
L 703 3866 
L 703 4441 
L 1819 4666 
L 2450 4666 
L 2450 531 
L 3481 531 
L 3481 0 
L 794 0 
L 794 531 
z
" transform="scale(0.015625)"/>
       </defs>
       <use xlink:href="#DejaVuSans-31"/>
       <use xlink:href="#DejaVuSans-30" x="63.623047"/>
       <use xlink:href="#DejaVuSans-2e" x="127.246094"/>
       <use xlink:href="#DejaVuSans-30" x="159.033203"/>
      </g>
     </g>
    </g>
    <g id="xtick_6">
     <g id="line2d_6">
      <g>
       <use xlink:href="#m3385fdae1e" x="607.649498" y="643.48" style="stroke: #000000; stroke-width: 0.8"/>
      </g>
     </g>
     <g id="text_6">
      <!-- 12.5 -->
      <g transform="translate(583.15731 667.196563) scale(0.22 -0.22)">
       <use xlink:href="#DejaVuSans-31"/>
       <use xlink:href="#DejaVuSans-32" x="63.623047"/>
       <use xlink:href="#DejaVuSans-2e" x="127.246094"/>
       <use xlink:href="#DejaVuSans-35" x="159.033203"/>
      </g>
     </g>
    </g>
    <g id="xtick_7">
     <g id="line2d_7">
      <g>
       <use xlink:href="#m3385fdae1e" x="701.186579" y="643.48" style="stroke: #000000; stroke-width: 0.8"/>
      </g>
     </g>
     <g id="text_7">
      <!-- 15.0 -->
      <g transform="translate(676.694391 667.196563) scale(0.22 -0.22)">
       <use xlink:href="#DejaVuSans-31"/>
       <use xlink:href="#DejaVuSans-35" x="63.623047"/>
       <use xlink:href="#DejaVuSans-2e" x="127.246094"/>
       <use xlink:href="#DejaVuSans-30" x="159.033203"/>
      </g>
     </g>
    </g>
    <g id="xtick_8">
     <g id="line2d_8">
      <g>
       <use xlink:href="#m3385fdae1e" x="794.72366" y="643.48" style="stroke: #000000; stroke-width: 0.8"/>
      </g>
     </g>
     <g id="text_8">
      <!-- 17.5 -->
      <g transform="translate(770.231473 667.196563) scale(0.22 -0.22)">
       <use xlink:href="#DejaVuSans-31"/>
       <use xlink:href="#DejaVuSans-37" x="63.623047"/>
       <use xlink:href="#DejaVuSans-2e" x="127.246094"/>
       <use xlink:href="#DejaVuSans-35" x="159.033203"/>
      </g>
     </g>
    </g>
    <g id="text_9">
     <!-- Time (days) -->
     <g transform="translate(430.446563 692.488438) scale(0.22 -0.22)">
      <defs>
       <path id="DejaVuSans-54" d="M -19 4666 
L 3928 4666 
L 3928 4134 
L 2272 4134 
L 2272 0 
L 1638 0 
L 1638 4134 
L -19 4134 
L -19 4666 
z
" transform="scale(0.015625)"/>
       <path id="DejaVuSans-69" d="M 603 3500 
L 1178 3500 
L 1178 0 
L 603 0 
L 603 3500 
z
M 603 4863 
L 1178 4863 
L 1178 4134 
L 603 4134 
L 603 4863 
z
" transform="scale(0.015625)"/>
       <path id="DejaVuSans-6d" d="M 3328 2828 
Q 3544 3216 3844 3400 
Q 4144 3584 4550 3584 
Q 5097 3584 5394 3201 
Q 5691 2819 5691 2113 
L 5691 0 
L 5113 0 
L 5113 2094 
Q 5113 2597 4934 2840 
Q 4756 3084 4391 3084 
Q 3944 3084 3684 2787 
Q 3425 2491 3425 1978 
L 3425 0 
L 2847 0 
L 2847 2094 
Q 2847 2600 2669 2842 
Q 2491 3084 2119 3084 
Q 1678 3084 1418 2786 
Q 1159 2488 1159 1978 
L 1159 0 
L 581 0 
L 581 3500 
L 1159 3500 
L 1159 2956 
Q 1356 3278 1631 3431 
Q 1906 3584 2284 3584 
Q 2666 3584 2933 3390 
Q 3200 3197 3328 2828 
z
" transform="scale(0.015625)"/>
       <path id="DejaVuSans-65" d="M 3597 1894 
L 3597 1613 
L 953 1613 
Q 991 1019 1311 708 
Q 1631 397 2203 397 
Q 2534 397 2845 478 
Q 3156 559 3463 722 
L 3463 178 
Q 3153 47 2828 -22 
Q 2503 -91 2169 -91 
Q 1331 -91 842 396 
Q 353 884 353 1716 
Q 353 2575 817 3079 
Q 1281 3584 2069 3584 
Q 2775 3584 3186 3129 
Q 3597 2675 3597 1894 
z
M 3022 2063 
Q 3016 2534 2758 2815 
Q 2500 3097 2075 3097 
Q 1594 3097 1305 2825 
Q 1016 2553 972 2059 
L 3022 2063 
z
" transform="scale(0.015625)"/>
       <path id="DejaVuSans-20" transform="scale(0.015625)"/>
       <path id="DejaVuSans-28" d="M 1984 4856 
Q 1566 4138 1362 3434 
Q 1159 2731 1159 2009 
Q 1159 1288 1364 580 
Q 1569 -128 1984 -844 
L 1484 -844 
Q 1016 -109 783 600 
Q 550 1309 550 2009 
Q 550 2706 781 3412 
Q 1013 4119 1484 4856 
L 1984 4856 
z
" transform="scale(0.015625)"/>
       <path id="DejaVuSans-64" d="M 2906 2969 
L 2906 4863 
L 3481 4863 
L 3481 0 
L 2906 0 
L 2906 525 
Q 2725 213 2448 61 
Q 2172 -91 1784 -91 
Q 1150 -91 751 415 
Q 353 922 353 1747 
Q 353 2572 751 3078 
Q 1150 3584 1784 3584 
Q 2172 3584 2448 3432 
Q 2725 3281 2906 2969 
z
M 947 1747 
Q 947 1113 1208 752 
Q 1469 391 1925 391 
Q 2381 391 2643 752 
Q 2906 1113 2906 1747 
Q 2906 2381 2643 2742 
Q 2381 3103 1925 3103 
Q 1469 3103 1208 2742 
Q 947 2381 947 1747 
z
" transform="scale(0.015625)"/>
       <path id="DejaVuSans-61" d="M 2194 1759 
Q 1497 1759 1228 1600 
Q 959 1441 959 1056 
Q 959 750 1161 570 
Q 1363 391 1709 391 
Q 2188 391 2477 730 
Q 2766 1069 2766 1631 
L 2766 1759 
L 2194 1759 
z
M 3341 1997 
L 3341 0 
L 2766 0 
L 2766 531 
Q 2569 213 2275 61 
Q 1981 -91 1556 -91 
Q 1019 -91 701 211 
Q 384 513 384 1019 
Q 384 1609 779 1909 
Q 1175 2209 1959 2209 
L 2766 2209 
L 2766 2266 
Q 2766 2663 2505 2880 
Q 2244 3097 1772 3097 
Q 1472 3097 1187 3025 
Q 903 2953 641 2809 
L 641 3341 
Q 956 3463 1253 3523 
Q 1550 3584 1831 3584 
Q 2591 3584 2966 3190 
Q 3341 2797 3341 1997 
z
" transform="scale(0.015625)"/>
       <path id="DejaVuSans-79" d="M 2059 -325 
Q 1816 -950 1584 -1140 
Q 1353 -1331 966 -1331 
L 506 -1331 
L 506 -850 
L 844 -850 
Q 1081 -850 1212 -737 
Q 1344 -625 1503 -206 
L 1606 56 
L 191 3500 
L 800 3500 
L 1894 763 
L 2988 3500 
L 3597 3500 
L 2059 -325 
z
" transform="scale(0.015625)"/>
       <path id="DejaVuSans-73" d="M 2834 3397 
L 2834 2853 
Q 2591 2978 2328 3040 
Q 2066 3103 1784 3103 
Q 1356 3103 1142 2972 
Q 928 2841 928 2578 
Q 928 2378 1081 2264 
Q 1234 2150 1697 2047 
L 1894 2003 
Q 2506 1872 2764 1633 
Q 3022 1394 3022 966 
Q 3022 478 2636 193 
Q 2250 -91 1575 -91 
Q 1294 -91 989 -36 
Q 684 19 347 128 
L 347 722 
Q 666 556 975 473 
Q 1284 391 1588 391 
Q 1994 391 2212 530 
Q 2431 669 2431 922 
Q 2431 1156 2273 1281 
Q 2116 1406 1581 1522 
L 1381 1569 
Q 847 1681 609 1914 
Q 372 2147 372 2553 
Q 372 3047 722 3315 
Q 1072 3584 1716 3584 
Q 2034 3584 2315 3537 
Q 2597 3491 2834 3397 
z
" transform="scale(0.015625)"/>
       <path id="DejaVuSans-29" d="M 513 4856 
L 1013 4856 
Q 1481 4119 1714 3412 
Q 1947 2706 1947 2009 
Q 1947 1309 1714 600 
Q 1481 -109 1013 -844 
L 513 -844 
Q 928 -128 1133 580 
Q 1338 1288 1338 2009 
Q 1338 2731 1133 3434 
Q 928 4138 513 4856 
z
" transform="scale(0.015625)"/>
      </defs>
      <use xlink:href="#DejaVuSans-54"/>
      <use xlink:href="#DejaVuSans-69" x="57.958984"/>
      <use xlink:href="#DejaVuSans-6d" x="85.742188"/>
      <use xlink:href="#DejaVuSans-65" x="183.154297"/>
      <use xlink:href="#DejaVuSans-20" x="244.677734"/>
      <use xlink:href="#DejaVuSans-28" x="276.464844"/>
      <use xlink:href="#DejaVuSans-64" x="315.478516"/>
      <use xlink:href="#DejaVuSans-61" x="378.955078"/>
      <use xlink:href="#DejaVuSans-79" x="440.234375"/>
      <use xlink:href="#DejaVuSans-73" x="499.414062"/>
      <use xlink:href="#DejaVuSans-29" x="551.513672"/>
     </g>
    </g>
   </g>
   <g id="matplotlib.axis_2">
    <g id="ytick_1">
     <g id="line2d_9">
      <defs>
       <path id="ma600d9e374" d="M 0 0 
L -3.5 0 
" style="stroke: #000000; stroke-width: 0.8"/>
      </defs>
      <g>
       <use xlink:href="#ma600d9e374" x="104.42" y="615.655789" style="stroke: #000000; stroke-width: 0.8"/>
      </g>
     </g>
     <g id="text_10">
      <!-- 0.00 -->
      <g transform="translate(48.435625 624.01407) scale(0.22 -0.22)">
       <use xlink:href="#DejaVuSans-30"/>
       <use xlink:href="#DejaVuSans-2e" x="63.623047"/>
       <use xlink:href="#DejaVuSans-30" x="95.410156"/>
       <use xlink:href="#DejaVuSans-30" x="159.033203"/>
      </g>
     </g>
    </g>
    <g id="ytick_2">
     <g id="line2d_10">
      <g>
       <use xlink:href="#ma600d9e374" x="104.42" y="535.500127" style="stroke: #000000; stroke-width: 0.8"/>
      </g>
     </g>
     <g id="text_11">
      <!-- 0.25 -->
      <g transform="translate(48.435625 543.858409) scale(0.22 -0.22)">
       <use xlink:href="#DejaVuSans-30"/>
       <use xlink:href="#DejaVuSans-2e" x="63.623047"/>
       <use xlink:href="#DejaVuSans-32" x="95.410156"/>
       <use xlink:href="#DejaVuSans-35" x="159.033203"/>
      </g>
     </g>
    </g>
    <g id="ytick_3">
     <g id="line2d_11">
      <g>
       <use xlink:href="#ma600d9e374" x="104.42" y="455.344465" style="stroke: #000000; stroke-width: 0.8"/>
      </g>
     </g>
     <g id="text_12">
      <!-- 0.50 -->
      <g transform="translate(48.435625 463.702747) scale(0.22 -0.22)">
       <use xlink:href="#DejaVuSans-30"/>
       <use xlink:href="#DejaVuSans-2e" x="63.623047"/>
       <use xlink:href="#DejaVuSans-35" x="95.410156"/>
       <use xlink:href="#DejaVuSans-30" x="159.033203"/>
      </g>
     </g>
    </g>
    <g id="ytick_4">
     <g id="line2d_12">
      <g>
       <use xlink:href="#ma600d9e374" x="104.42" y="375.188804" style="stroke: #000000; stroke-width: 0.8"/>
      </g>
     </g>
     <g id="text_13">
      <!-- 0.75 -->
      <g transform="translate(48.435625 383.547085) scale(0.22 -0.22)">
       <use xlink:href="#DejaVuSans-30"/>
       <use xlink:href="#DejaVuSans-2e" x="63.623047"/>
       <use xlink:href="#DejaVuSans-37" x="95.410156"/>
       <use xlink:href="#DejaVuSans-35" x="159.033203"/>
      </g>
     </g>
    </g>
    <g id="ytick_5">
     <g id="line2d_13">
      <g>
       <use xlink:href="#ma600d9e374" x="104.42" y="295.033142" style="stroke: #000000; stroke-width: 0.8"/>
      </g>
     </g>
     <g id="text_14">
      <!-- 1.00 -->
      <g transform="translate(48.435625 303.391423) scale(0.22 -0.22)">
       <use xlink:href="#DejaVuSans-31"/>
       <use xlink:href="#DejaVuSans-2e" x="63.623047"/>
       <use xlink:href="#DejaVuSans-30" x="95.410156"/>
       <use xlink:href="#DejaVuSans-30" x="159.033203"/>
      </g>
     </g>
    </g>
    <g id="ytick_6">
     <g id="line2d_14">
      <g>
       <use xlink:href="#ma600d9e374" x="104.42" y="214.87748" style="stroke: #000000; stroke-width: 0.8"/>
      </g>
     </g>
     <g id="text_15">
      <!-- 1.25 -->
      <g transform="translate(48.435625 223.235761) scale(0.22 -0.22)">
       <use xlink:href="#DejaVuSans-31"/>
       <use xlink:href="#DejaVuSans-2e" x="63.623047"/>
       <use xlink:href="#DejaVuSans-32" x="95.410156"/>
       <use xlink:href="#DejaVuSans-35" x="159.033203"/>
      </g>
     </g>
    </g>
    <g id="ytick_7">
     <g id="line2d_15">
      <g>
       <use xlink:href="#ma600d9e374" x="104.42" y="134.721818" style="stroke: #000000; stroke-width: 0.8"/>
      </g>
     </g>
     <g id="text_16">
      <!-- 1.50 -->
      <g transform="translate(48.435625 143.080099) scale(0.22 -0.22)">
       <use xlink:href="#DejaVuSans-31"/>
       <use xlink:href="#DejaVuSans-2e" x="63.623047"/>
       <use xlink:href="#DejaVuSans-35" x="95.410156"/>
       <use xlink:href="#DejaVuSans-30" x="159.033203"/>
      </g>
     </g>
    </g>
    <g id="ytick_8">
     <g id="line2d_16">
      <g>
       <use xlink:href="#ma600d9e374" x="104.42" y="54.566156" style="stroke: #000000; stroke-width: 0.8"/>
      </g>
     </g>
     <g id="text_17">
      <!-- 1.75 -->
      <g transform="translate(48.435625 62.924438) scale(0.22 -0.22)">
       <use xlink:href="#DejaVuSans-31"/>
       <use xlink:href="#DejaVuSans-2e" x="63.623047"/>
       <use xlink:href="#DejaVuSans-37" x="95.410156"/>
       <use xlink:href="#DejaVuSans-35" x="159.033203"/>
      </g>
     </g>
    </g>
    <g id="text_18">
     <!-- X:A -->
     <g transform="translate(39.860313 352.385312) rotate(-90) scale(0.22 -0.22)">
      <defs>
       <path id="DejaVuSans-58" d="M 403 4666 
L 1081 4666 
L 2241 2931 
L 3406 4666 
L 4084 4666 
L 2584 2425 
L 4184 0 
L 3506 0 
L 2194 1984 
L 872 0 
L 191 0 
L 1856 2491 
L 403 4666 
z
" transform="scale(0.015625)"/>
       <path id="DejaVuSans-3a" d="M 750 794 
L 1409 794 
L 1409 0 
L 750 0 
L 750 794 
z
M 750 3309 
L 1409 3309 
L 1409 2516 
L 750 2516 
L 750 3309 
z
" transform="scale(0.015625)"/>
       <path id="DejaVuSans-41" d="M 2188 4044 
L 1331 1722 
L 3047 1722 
L 2188 4044 
z
M 1831 4666 
L 2547 4666 
L 4325 0 
L 3669 0 
L 3244 1197 
L 1141 1197 
L 716 0 
L 50 0 
L 1831 4666 
z
" transform="scale(0.015625)"/>
      </defs>
      <use xlink:href="#DejaVuSans-58"/>
      <use xlink:href="#DejaVuSans-3a" x="68.505859"/>
      <use xlink:href="#DejaVuSans-41" x="102.197266"/>
     </g>
    </g>
   </g>
   <g id="line2d_17">
    <path d="M 139.964091 615.310909 
L 147.144715 613.782428 
L 154.32534 612.254033 
L 161.505964 610.725725 
L 168.686589 609.197488 
L 175.867213 607.669318 
L 183.047837 606.141223 
L 190.228462 604.613201 
L 197.409086 603.085249 
L 204.589711 601.557369 
L 211.770335 600.029562 
L 218.95096 598.501828 
L 226.131584 596.974164 
L 233.312208 595.446568 
L 240.492833 593.919043 
L 247.673457 592.391593 
L 254.854082 590.86422 
L 262.034706 589.336922 
L 269.215331 587.809691 
L 276.395955 586.282522 
L 283.576579 584.755425 
L 290.757204 583.228407 
L 297.937828 581.701464 
L 305.118453 580.174587 
L 312.299077 578.647778 
L 319.479702 577.121044 
L 326.660326 575.594384 
L 333.84095 574.067795 
L 341.021575 572.541273 
L 348.202199 571.014823 
L 355.382824 569.488449 
L 362.563448 567.962149 
L 369.744073 566.435919 
L 376.924697 564.909754 
L 384.105321 563.38366 
L 391.285946 561.857642 
L 398.46657 560.331701 
L 405.647195 558.805831 
L 412.827819 557.280023 
L 420.008444 555.754285 
L 427.189068 554.228624 
L 434.369692 552.703043 
L 441.550317 551.177532 
L 448.730941 549.652082 
L 455.911566 548.1267 
L 463.09219 546.601397 
L 470.272815 545.076173 
L 477.453439 543.55102 
L 484.634063 542.025926 
L 491.814688 540.500903 
L 498.995312 538.975959 
L 506.175937 537.451092 
L 513.356561 535.926291 
L 520.537185 534.401555 
L 527.71781 532.876893 
L 534.898434 531.352308 
L 542.079059 529.827796 
L 549.259683 528.303349 
L 556.440308 526.778971 
L 563.620932 525.254668 
L 570.801556 523.730442 
L 577.982181 522.206287 
L 585.162805 520.682195 
L 592.34343 519.158173 
L 599.524054 517.634228 
L 606.704679 516.110361 
L 613.885303 514.586565 
L 621.065927 513.062831 
L 628.246552 511.539164 
L 635.427176 510.015575 
L 642.607801 508.492066 
L 649.788425 506.96863 
L 656.96905 505.445253 
L 664.149674 503.921943 
L 671.330298 502.398711 
L 678.510923 500.875558 
L 685.691547 499.352477 
L 692.872172 497.829455 
L 700.052796 496.306505 
L 707.233421 494.783633 
L 714.414045 493.260836 
L 721.594669 491.738105 
L 728.775294 490.215441 
L 735.955918 488.692851 
L 743.136543 487.170337 
L 750.317167 485.647896 
L 757.497792 484.12552 
L 764.678416 482.603212 
L 771.85904 481.08098 
L 779.039665 479.558825 
L 786.220289 478.036742 
L 793.400914 476.514722 
L 800.581538 474.992769 
L 807.762163 473.470892 
L 814.942787 471.949095 
L 822.123411 470.427372 
L 829.304036 468.905711 
L 836.48466 467.384117 
L 843.665285 465.862598 
L 850.845909 464.341152 
" clip-path="url(#p6bcd6ea3a9)" style="fill: none; stroke: #d0e1f2; stroke-width: 1.5; stroke-linecap: square"/>
   </g>
   <g id="line2d_18">
    <path d="M 139.964091 101.811376 
L 147.144715 103.839889 
L 154.32534 104.917564 
L 161.505964 104.981438 
L 168.686589 105.09615 
L 175.867213 105.406582 
L 183.047837 105.485826 
L 190.228462 105.445557 
L 197.409086 105.550049 
L 204.589711 105.656226 
L 211.770335 105.637487 
L 218.95096 105.514635 
L 226.131584 105.451306 
L 233.312208 105.718905 
L 240.492833 106.061266 
L 247.673457 106.100281 
L 254.854082 105.740548 
L 262.034706 105.170328 
L 269.215331 104.861548 
L 276.395955 105.284968 
L 283.576579 105.68069 
L 290.757204 105.62619 
L 297.937828 105.28462 
L 305.118453 105.31491 
L 312.299077 105.583019 
L 319.479702 105.64628 
L 326.660326 105.486754 
L 333.84095 105.386229 
L 341.021575 105.613277 
L 348.202199 105.800156 
L 355.382824 105.729773 
L 362.563448 105.446877 
L 369.744073 105.257726 
L 376.924697 105.53961 
L 384.105321 105.86151 
L 391.285946 105.83059 
L 398.46657 105.451163 
L 405.647195 105.120857 
L 412.827819 105.45096 
L 420.008444 105.946415 
L 427.189068 105.974753 
L 434.369692 105.473434 
L 441.550317 104.942789 
L 448.730941 105.265461 
L 455.911566 105.873849 
L 463.09219 105.949925 
L 470.272815 105.418237 
L 477.453439 104.90351 
L 484.634063 105.309344 
L 491.814688 105.770008 
L 498.995312 105.724384 
L 506.175937 105.281997 
L 513.356561 105.161288 
L 520.537185 105.565931 
L 527.71781 105.758663 
L 534.898434 105.565657 
L 542.079059 105.25375 
L 549.259683 105.413356 
L 556.440308 105.750346 
L 563.620932 105.797757 
L 570.801556 105.504571 
L 577.982181 105.203295 
L 585.162805 105.463989 
L 592.34343 105.897735 
L 599.524054 105.941621 
L 606.704679 105.519533 
L 613.885303 105.035461 
L 621.065927 105.276665 
L 628.246552 105.899468 
L 635.427176 106.048885 
L 642.607801 105.549917 
L 649.788425 104.901771 
L 656.96905 105.136104 
L 664.149674 105.750265 
L 671.330298 105.864356 
L 678.510923 105.40195 
L 685.691547 104.989217 
L 692.872172 105.386792 
L 700.052796 105.73254 
L 707.233421 105.645757 
L 714.414045 105.288791 
L 721.594669 105.302508 
L 728.775294 105.648383 
L 735.955918 105.76712 
L 743.136543 105.548937 
L 750.317167 105.26274 
L 757.497792 105.447756 
L 764.678416 105.818734 
L 771.85904 105.877352 
L 779.039665 105.543082 
L 786.220289 105.141728 
L 793.400914 105.338653 
L 800.581538 105.907593 
L 807.762163 106.072371 
L 814.942787 105.630899 
L 822.123411 104.974674 
L 829.304036 105.023339 
L 836.48466 105.351029 
L 843.665285 105.44715 
L 850.845909 105.46025 
" clip-path="url(#p6bcd6ea3a9)" style="fill: none; stroke: #fdd9b4; stroke-width: 1.5; stroke-linecap: square"/>
   </g>
   <g id="line2d_19">
    <path d="M 139.964091 615.310909 
L 147.144715 613.77944 
L 154.32534 612.243715 
L 161.505964 610.707227 
L 168.686589 609.170507 
L 175.867213 607.633575 
L 183.047837 606.09683 
L 190.228462 604.559913 
L 197.409086 603.022891 
L 204.589711 601.486326 
L 211.770335 599.94923 
L 218.95096 598.412542 
L 226.131584 596.875897 
L 233.312208 595.338641 
L 240.492833 593.802468 
L 247.673457 592.265381 
L 254.854082 590.728835 
L 262.034706 589.192344 
L 269.215331 587.655591 
L 276.395955 586.119369 
L 283.576579 584.582709 
L 290.757204 583.046667 
L 297.937828 581.510197 
L 305.118453 579.974238 
L 312.299077 578.438217 
L 319.479702 576.90195 
L 326.660326 575.366668 
L 333.84095 573.830508 
L 341.021575 572.295182 
L 348.202199 570.759884 
L 355.382824 569.224405 
L 362.563448 567.68968 
L 369.744073 566.154556 
L 376.924697 564.620194 
L 384.105321 563.085536 
L 391.285946 561.551528 
L 398.46657 560.017477 
L 405.647195 558.483576 
L 412.827819 556.950482 
L 420.008444 555.416744 
L 427.189068 553.88415 
L 434.369692 552.351466 
L 441.550317 550.818841 
L 448.730941 549.287165 
L 455.911566 547.75513 
L 463.09219 546.224079 
L 470.272815 544.692853 
L 477.453439 543.162415 
L 484.634063 541.632034 
L 491.814688 540.102119 
L 498.995312 538.572848 
L 506.175937 537.043298 
L 513.356561 535.515057 
L 520.537185 533.986609 
L 527.71781 532.458571 
L 534.898434 530.931545 
L 542.079059 529.404193 
L 549.259683 527.878073 
L 556.440308 526.351841 
L 563.620932 524.826512 
L 570.801556 523.301352 
L 577.982181 521.776834 
L 585.162805 520.252869 
L 592.34343 518.72897 
L 599.524054 517.206336 
L 606.704679 515.68348 
L 613.885303 514.161361 
L 621.065927 512.640153 
L 628.246552 511.11864 
L 635.427176 509.598572 
L 642.607801 508.078369 
L 649.788425 506.55914 
L 656.96905 505.040156 
L 664.149674 503.521851 
L 671.330298 502.004067 
L 678.510923 500.486566 
L 685.691547 498.97014 
L 692.872172 497.453585 
L 700.052796 495.93791 
L 707.233421 494.422862 
L 714.414045 492.908037 
L 721.594669 491.394121 
L 728.775294 489.880337 
L 735.955918 488.367485 
L 743.136543 486.854781 
L 750.317167 485.342807 
L 757.497792 483.831437 
L 764.678416 482.320013 
L 771.85904 480.809943 
L 779.039665 479.299708 
L 786.220289 477.790107 
L 793.400914 476.281331 
L 800.581538 474.772527 
L 807.762163 473.264746 
L 814.942787 471.757005 
L 822.123411 470.250106 
L 829.304036 468.743369 
L 836.48466 467.237282 
L 843.665285 465.731627 
L 850.845909 464.226204 
" clip-path="url(#p6bcd6ea3a9)" style="fill: none; stroke: #79b5d9; stroke-width: 1.5; stroke-linecap: square"/>
   </g>
   <g id="line2d_20">
    <path d="M 139.964091 101.811376 
L 147.144715 90.8162 
L 154.32534 88.711263 
L 161.505964 87.927192 
L 168.686589 87.606343 
L 175.867213 87.717341 
L 183.047837 87.466265 
L 190.228462 87.573631 
L 197.409086 87.908409 
L 204.589711 87.365905 
L 211.770335 87.914443 
L 218.95096 87.691466 
L 226.131584 87.443419 
L 233.312208 88.46239 
L 240.492833 87.409823 
L 247.673457 88.262252 
L 254.854082 88.119773 
L 262.034706 87.990697 
L 269.215331 88.500371 
L 276.395955 88.087057 
L 283.576579 88.702373 
L 290.757204 88.248576 
L 297.937828 88.840265 
L 305.118453 88.611165 
L 312.299077 88.732036 
L 319.479702 89.580092 
L 326.660326 88.730859 
L 333.84095 89.914605 
L 341.021575 89.724001 
L 348.202199 89.817809 
L 355.382824 90.610285 
L 362.563448 90.255368 
L 369.744073 91.098309 
L 376.924697 90.815814 
L 384.105321 91.571635 
L 391.285946 91.473185 
L 398.46657 91.954095 
L 405.647195 92.63842 
L 412.827819 92.234652 
L 420.008444 93.691013 
L 427.189068 93.408432 
L 434.369692 93.937294 
L 441.550317 94.967564 
L 448.730941 94.728817 
L 455.911566 95.914766 
L 463.09219 95.784923 
L 470.272815 96.756447 
L 477.453439 96.861653 
L 484.634063 97.638326 
L 491.814688 98.256363 
L 498.995312 98.377751 
L 506.175937 99.931133 
L 513.356561 99.638764 
L 520.537185 100.687445 
L 527.71781 101.782745 
L 534.898434 101.713077 
L 542.079059 103.29317 
L 549.259683 103.243075 
L 556.440308 104.438738 
L 563.620932 104.727561 
L 570.801556 105.699869 
L 577.982181 106.347658 
L 585.162805 106.882516 
L 592.34343 108.358958 
L 599.524054 108.210103 
L 606.704679 109.655202 
L 613.885303 110.611675 
L 621.065927 110.742581 
L 628.246552 112.67548 
L 635.427176 112.592505 
L 642.607801 113.98137 
L 649.788425 114.379918 
L 656.96905 115.422349 
L 664.149674 116.134378 
L 671.330298 116.877569 
L 678.510923 118.180938 
L 685.691547 118.273134 
L 692.872172 119.855365 
L 700.052796 120.642878 
L 707.233421 121.227843 
L 714.414045 122.504115 
L 721.594669 122.904633 
L 728.775294 124.208261 
L 735.955918 124.561254 
L 743.136543 125.776629 
L 750.317167 126.489908 
L 757.497792 126.997623 
L 764.678416 128.81028 
L 771.85904 128.640867 
L 779.039665 130.040014 
L 786.220289 131.097502 
L 793.400914 131.382019 
L 800.581538 132.8851 
L 807.762163 133.08861 
L 814.942787 134.344245 
L 822.123411 134.700646 
L 829.304036 135.79234 
L 836.48466 136.424287 
L 843.665285 137.11443 
L 850.845909 138.332524 
" clip-path="url(#p6bcd6ea3a9)" style="fill: none; stroke: #fd9649; stroke-width: 1.5; stroke-linecap: square"/>
   </g>
   <g id="line2d_21">
    <path d="M 139.964091 615.310909 
L 147.144715 613.781898 
L 154.32534 612.252469 
L 161.505964 610.722735 
L 168.686589 609.19286 
L 175.867213 607.662958 
L 183.047837 606.132965 
L 190.228462 604.602854 
L 197.409086 603.07267 
L 204.589711 601.542519 
L 211.770335 600.012476 
L 218.95096 598.482437 
L 226.131584 596.952345 
L 233.312208 595.42218 
L 240.492833 593.891959 
L 247.673457 592.361735 
L 254.854082 590.831597 
L 262.034706 589.30165 
L 269.215331 587.771773 
L 276.395955 586.241809 
L 283.576579 584.711669 
L 290.757204 583.181334 
L 297.937828 581.650857 
L 305.118453 580.120356 
L 312.299077 578.59002 
L 319.479702 577.060071 
L 326.660326 575.530275 
L 333.84095 574.000367 
L 341.021575 572.470247 
L 348.202199 570.939938 
L 355.382824 569.409582 
L 362.563448 567.87944 
L 369.744073 566.349502 
L 376.924697 564.819525 
L 384.105321 563.289435 
L 391.285946 561.759223 
L 398.46657 560.228954 
L 405.647195 558.698761 
L 412.827819 557.168761 
L 420.008444 555.638808 
L 427.189068 554.10878 
L 434.369692 552.57862 
L 441.550317 551.048335 
L 448.730941 549.517995 
L 455.911566 547.98773 
L 463.09219 546.457729 
L 470.272815 544.927967 
L 477.453439 543.398162 
L 484.634063 541.868129 
L 491.814688 540.337802 
L 498.995312 538.807235 
L 506.175937 537.276602 
L 513.356561 535.746196 
L 520.537185 534.216327 
L 527.71781 532.686592 
L 534.898434 531.156697 
L 542.079059 529.626551 
L 549.259683 528.096205 
L 556.440308 526.565854 
L 563.620932 525.035797 
L 570.801556 523.505873 
L 577.982181 521.975879 
L 585.162805 520.445757 
L 592.34343 518.915523 
L 599.524054 517.385266 
L 606.704679 515.855147 
L 613.885303 514.325174 
L 621.065927 512.795191 
L 628.246552 511.26511 
L 635.427176 509.734903 
L 642.607801 508.204603 
L 649.788425 506.674301 
L 656.96905 505.144147 
L 664.149674 503.614273 
L 671.330298 502.084483 
L 678.510923 500.554558 
L 685.691547 499.024385 
L 692.872172 497.493959 
L 700.052796 495.96338 
L 707.233421 494.432856 
L 714.414045 492.902701 
L 721.594669 491.372941 
L 728.775294 489.843137 
L 735.955918 488.313126 
L 743.136543 486.782877 
L 750.317167 485.252499 
L 757.497792 483.722231 
L 764.678416 482.192278 
L 771.85904 480.662349 
L 779.039665 479.132317 
L 786.220289 477.602149 
L 793.400914 476.071887 
L 800.581538 474.541648 
L 807.762163 473.011589 
L 814.942787 471.481592 
L 822.123411 469.951549 
L 829.304036 468.421419 
L 836.48466 466.891212 
L 843.665285 465.360984 
L 850.845909 463.83084 
" clip-path="url(#p6bcd6ea3a9)" style="fill: none; stroke: #2575b7; stroke-width: 1.5; stroke-linecap: square"/>
   </g>
   <g id="line2d_22">
    <path d="M 139.964091 101.811376 
L 147.144715 103.062164 
L 154.32534 103.841296 
L 161.505964 104.272565 
L 168.686589 104.552396 
L 175.867213 104.806338 
L 183.047837 104.958661 
L 190.228462 104.980378 
L 197.409086 104.918757 
L 204.589711 104.897328 
L 211.770335 104.995385 
L 218.95096 105.097785 
L 226.131584 105.142439 
L 233.312208 105.107418 
L 240.492833 105.010796 
L 247.673457 104.910651 
L 254.854082 104.905247 
L 262.034706 105.105011 
L 269.215331 105.376363 
L 276.395955 105.552875 
L 283.576579 105.54191 
L 290.757204 105.324623 
L 297.937828 104.955962 
L 305.118453 104.564666 
L 312.299077 104.353265 
L 319.479702 104.558094 
L 326.660326 104.925131 
L 333.84095 105.16467 
L 341.021575 105.170329 
L 348.202199 104.968271 
L 355.382824 104.717206 
L 362.563448 104.7054 
L 369.744073 104.918201 
L 376.924697 105.088379 
L 384.105321 105.132097 
L 391.285946 105.042702 
L 398.46657 104.890723 
L 405.647195 104.823868 
L 412.827819 104.968652 
L 420.008444 105.162468 
L 427.189068 105.274318 
L 434.369692 105.243281 
L 441.550317 105.076673 
L 448.730941 104.850052 
L 455.911566 104.707215 
L 463.09219 104.850238 
L 470.272815 105.240626 
L 477.453439 105.580427 
L 484.634063 105.676838 
L 491.814688 105.463192 
L 498.995312 104.998965 
L 506.175937 104.469772 
L 513.356561 104.187366 
L 520.537185 104.480763 
L 527.71781 104.912382 
L 534.898434 105.163038 
L 542.079059 105.134975 
L 549.259683 104.887588 
L 556.440308 104.63742 
L 563.620932 104.718056 
L 570.801556 104.946396 
L 577.982181 105.095921 
L 585.162805 105.103509 
L 592.34343 104.987466 
L 599.524054 104.847524 
L 606.704679 104.860712 
L 613.885303 105.033638 
L 621.065927 105.19351 
L 628.246552 105.246415 
L 635.427176 105.162947 
L 642.607801 104.978204 
L 649.788425 104.791792 
L 656.96905 104.767823 
L 664.149674 105.042318 
L 671.330298 105.400438 
L 678.510923 105.61212 
L 685.691547 105.560271 
L 692.872172 105.240768 
L 700.052796 104.762459 
L 707.233421 104.347161 
L 714.414045 104.329662 
L 721.594669 104.733726 
L 728.775294 105.084376 
L 735.955918 105.203183 
L 743.136543 105.060725 
L 750.317167 104.776441 
L 757.497792 104.618629 
L 764.678416 104.812125 
L 771.85904 105.028708 
L 779.039665 105.131749 
L 786.220289 105.084394 
L 793.400914 104.933391 
L 800.581538 104.809083 
L 807.762163 104.883806 
L 814.942787 105.026065 
L 822.123411 105.115966 
L 829.304036 105.111185 
L 836.48466 105.021532 
L 843.665285 104.908945 
L 850.845909 104.887493 
" clip-path="url(#p6bcd6ea3a9)" style="fill: none; stroke: #dc4c03; stroke-width: 1.5; stroke-linecap: square"/>
   </g>
   <g id="line2d_23">
    <path d="M 139.964091 615.310909 
L 147.144715 613.772851 
L 154.32534 612.235039 
L 161.505964 610.697473 
L 168.686589 609.160154 
L 175.867213 607.623081 
L 183.047837 606.086254 
L 190.228462 604.549674 
L 197.409086 603.01334 
L 204.589711 601.477252 
L 211.770335 599.94141 
L 218.95096 598.405814 
L 226.131584 596.870464 
L 233.312208 595.335361 
L 240.492833 593.800503 
L 247.673457 592.265891 
L 254.854082 590.731525 
L 262.034706 589.197405 
L 269.215331 587.663531 
L 276.395955 586.129902 
L 283.576579 584.59652 
L 290.757204 583.063383 
L 297.937828 581.530491 
L 305.118453 579.997846 
L 312.299077 578.465446 
L 319.479702 576.933291 
L 326.660326 575.401382 
L 333.84095 573.869718 
L 341.021575 572.3383 
L 348.202199 570.807127 
L 355.382824 569.2762 
L 362.563448 567.745518 
L 369.744073 566.215081 
L 376.924697 564.684889 
L 384.105321 563.154942 
L 391.285946 561.625241 
L 398.46657 560.095785 
L 405.647195 558.566574 
L 412.827819 557.037608 
L 420.008444 555.508886 
L 427.189068 553.98041 
L 434.369692 552.452179 
L 441.550317 550.924193 
L 448.730941 549.396451 
L 455.911566 547.868954 
L 463.09219 546.341702 
L 470.272815 544.814695 
L 477.453439 543.287932 
L 484.634063 541.761414 
L 491.814688 540.235141 
L 498.995312 538.709112 
L 506.175937 537.183328 
L 513.356561 535.657788 
L 520.537185 534.132493 
L 527.71781 532.607442 
L 534.898434 531.082635 
L 542.079059 529.558073 
L 549.259683 528.033755 
L 556.440308 526.509681 
L 563.620932 524.985852 
L 570.801556 523.462266 
L 577.982181 521.938925 
L 585.162805 520.415828 
L 592.34343 518.892975 
L 599.524054 517.370366 
L 606.704679 515.848001 
L 613.885303 514.325879 
L 621.065927 512.804002 
L 628.246552 511.282369 
L 635.427176 509.760979 
L 642.607801 508.239833 
L 649.788425 506.718931 
L 656.96905 505.198273 
L 664.149674 503.677858 
L 671.330298 502.157687 
L 678.510923 500.637759 
L 685.691547 499.118075 
L 692.872172 497.598635 
L 700.052796 496.079438 
L 707.233421 494.560484 
L 714.414045 493.041774 
L 721.594669 491.523307 
L 728.775294 490.005083 
L 735.955918 488.487103 
L 743.136543 486.969366 
L 750.317167 485.451872 
L 757.497792 483.934621 
L 764.678416 482.417614 
L 771.85904 480.900849 
L 779.039665 479.384328 
L 786.220289 477.868049 
L 793.400914 476.352014 
L 800.581538 474.836221 
L 807.762163 473.320671 
L 814.942787 471.805364 
L 822.123411 470.2903 
L 829.304036 468.775479 
L 836.48466 467.2609 
L 843.665285 465.746564 
L 850.845909 464.232471 
" clip-path="url(#p6bcd6ea3a9)" style="fill: none; stroke: #08306b; stroke-width: 1.5; stroke-linecap: square"/>
   </g>
   <g id="line2d_24">
    <path d="M 139.964091 101.811376 
L 147.144715 97.466535 
L 154.32534 94.580391 
L 161.505964 92.749952 
L 168.686589 91.517173 
L 175.867213 90.599766 
L 183.047837 90.016537 
L 190.228462 89.724476 
L 197.409086 89.587263 
L 204.589711 89.408211 
L 211.770335 89.229219 
L 218.95096 89.115935 
L 226.131584 89.082855 
L 233.312208 89.110817 
L 240.492833 89.146995 
L 247.673457 89.113316 
L 254.854082 89.028535 
L 262.034706 88.951098 
L 269.215331 88.914596 
L 276.395955 88.933285 
L 283.576579 89.002086 
L 290.757204 89.09658 
L 297.937828 89.173014 
L 305.118453 89.168009 
L 312.299077 88.975448 
L 319.479702 88.677731 
L 326.660326 88.419436 
L 333.84095 88.298377 
L 341.021575 88.365607 
L 348.202199 88.625415 
L 355.382824 89.035327 
L 362.563448 89.506106 
L 369.744073 89.90175 
L 376.924697 90.039498 
L 384.105321 89.763489 
L 391.285946 89.407931 
L 398.46657 89.182251 
L 405.647195 89.16502 
L 412.827819 89.348488 
L 420.008444 89.63858 
L 427.189068 89.854901 
L 434.369692 89.836993 
L 441.550317 89.808186 
L 448.730941 89.887846 
L 455.911566 90.126262 
L 463.09219 90.519402 
L 470.272815 91.008917 
L 477.453439 91.482137 
L 484.634063 91.777934 
L 491.814688 92.015301 
L 498.995312 92.455871 
L 506.175937 93.247336 
L 513.356561 94.421219 
L 520.537185 95.892876 
L 527.71781 97.461492 
L 534.898434 98.810086 
L 542.079059 99.740439 
L 549.259683 100.66549 
L 556.440308 101.87203 
L 563.620932 103.483382 
L 570.801556 105.462631 
L 577.982181 107.612629 
L 585.162805 109.575991 
L 592.34343 110.981166 
L 599.524054 112.276923 
L 606.704679 113.613878 
L 613.885303 115.00686 
L 621.065927 116.427943 
L 628.246552 117.806438 
L 635.427176 119.0289 
L 642.607801 120.145451 
L 649.788425 121.274658 
L 656.96905 122.278574 
L 664.149674 123.080103 
L 671.330298 123.665631 
L 678.510923 124.085025 
L 685.691547 124.451641 
L 692.872172 124.942314 
L 700.052796 125.647344 
L 707.233421 126.3367 
L 714.414045 126.864212 
L 721.594669 127.16857 
L 728.775294 127.272452 
L 735.955918 127.28253 
L 743.136543 127.389464 
L 750.317167 127.760064 
L 757.497792 128.166356 
L 764.678416 128.477487 
L 771.85904 128.637156 
L 779.039665 128.649769 
L 786.220289 128.580445 
L 793.400914 128.555011 
L 800.581538 128.726948 
L 807.762163 128.975103 
L 814.942787 129.178519 
L 822.123411 129.283392 
L 829.304036 129.278498 
L 836.48466 129.195189 
L 843.665285 129.107399 
L 850.845909 129.131638 
" clip-path="url(#p6bcd6ea3a9)" style="fill: none; stroke: #7f2704; stroke-width: 1.5; stroke-linecap: square"/>
   </g>
   <g id="patch_3">
    <path d="M 104.42 643.48 
L 104.42 23.76 
" style="fill: none; stroke: #000000; stroke-width: 0.8; stroke-linejoin: miter; stroke-linecap: square"/>
   </g>
   <g id="patch_4">
    <path d="M 886.39 643.48 
L 886.39 23.76 
" style="fill: none; stroke: #000000; stroke-width: 0.8; stroke-linejoin: miter; stroke-linecap: square"/>
   </g>
   <g id="patch_5">
    <path d="M 104.42 643.48 
L 886.39 643.48 
" style="fill: none; stroke: #000000; stroke-width: 0.8; stroke-linejoin: miter; stroke-linecap: square"/>
   </g>
   <g id="patch_6">
    <path d="M 104.42 23.76 
L 886.39 23.76 
" style="fill: none; stroke: #000000; stroke-width: 0.8; stroke-linejoin: miter; stroke-linecap: square"/>
   </g>
   <g id="legend_1">
    <g id="patch_7">
     <path d="M 901.79 364.27875 
L 1051.867813 364.27875 
Q 1056.267813 364.27875 1056.267813 359.87875 
L 1056.267813 39.16 
Q 1056.267813 34.76 1051.867813 34.76 
L 901.79 34.76 
Q 897.39 34.76 897.39 39.16 
L 897.39 359.87875 
Q 897.39 364.27875 901.79 364.27875 
z
" style="fill: #ffffff; opacity: 0.8; stroke: #cccccc; stroke-linejoin: miter"/>
    </g>
    <g id="PathCollection_3">
     <g>
      <use xlink:href="#m80f1702e56" x="928.19" y="54.501563" style="fill: #1f77b4; stroke: #1f77b4"/>
     </g>
    </g>
    <g id="text_19">
     <!-- Xi -->
     <g transform="translate(967.79 60.276563) scale(0.22 -0.22)">
      <use xlink:href="#DejaVuSans-58"/>
      <use xlink:href="#DejaVuSans-69" x="68.505859"/>
     </g>
    </g>
    <g id="PathCollection_4">
     <g>
      <use xlink:href="#m62fcbac0dc" x="928.19" y="86.793438" style="fill: #ff7f0e; stroke: #ff7f0e"/>
     </g>
    </g>
    <g id="text_20">
     <!-- Xa -->
     <g transform="translate(967.79 92.568438) scale(0.22 -0.22)">
      <use xlink:href="#DejaVuSans-58"/>
      <use xlink:href="#DejaVuSans-61" x="68.505859"/>
     </g>
    </g>
    <g id="line2d_25">
     <path d="M 906.19 117.160313 
L 928.19 117.160313 
L 950.19 117.160313 
" style="fill: none; stroke: #d0e1f2; stroke-width: 1.5; stroke-linecap: square"/>
    </g>
    <g id="text_21">
     <!-- Xi-AAII -->
     <g transform="translate(967.79 124.860313) scale(0.22 -0.22)">
      <defs>
       <path id="DejaVuSans-2d" d="M 313 2009 
L 1997 2009 
L 1997 1497 
L 313 1497 
L 313 2009 
z
" transform="scale(0.015625)"/>
       <path id="DejaVuSans-49" d="M 628 4666 
L 1259 4666 
L 1259 0 
L 628 0 
L 628 4666 
z
" transform="scale(0.015625)"/>
      </defs>
      <use xlink:href="#DejaVuSans-58"/>
      <use xlink:href="#DejaVuSans-69" x="68.505859"/>
      <use xlink:href="#DejaVuSans-2d" x="96.289062"/>
      <use xlink:href="#DejaVuSans-41" x="130.123047"/>
      <use xlink:href="#DejaVuSans-41" x="201.28125"/>
      <use xlink:href="#DejaVuSans-49" x="269.689453"/>
      <use xlink:href="#DejaVuSans-49" x="299.181641"/>
     </g>
    </g>
    <g id="line2d_26">
     <path d="M 906.19 149.452188 
L 928.19 149.452188 
L 950.19 149.452188 
" style="fill: none; stroke: #fdd9b4; stroke-width: 1.5; stroke-linecap: square"/>
    </g>
    <g id="text_22">
     <!-- Xa-AAII -->
     <g transform="translate(967.79 157.152188) scale(0.22 -0.22)">
      <use xlink:href="#DejaVuSans-58"/>
      <use xlink:href="#DejaVuSans-61" x="68.505859"/>
      <use xlink:href="#DejaVuSans-2d" x="129.785156"/>
      <use xlink:href="#DejaVuSans-41" x="163.619141"/>
      <use xlink:href="#DejaVuSans-41" x="234.777344"/>
      <use xlink:href="#DejaVuSans-49" x="303.185547"/>
      <use xlink:href="#DejaVuSans-49" x="332.677734"/>
     </g>
    </g>
    <g id="line2d_27">
     <path d="M 906.19 181.744063 
L 928.19 181.744063 
L 950.19 181.744063 
" style="fill: none; stroke: #79b5d9; stroke-width: 1.5; stroke-linecap: square"/>
    </g>
    <g id="text_23">
     <!-- Xi-AIII -->
     <g transform="translate(967.79 189.444063) scale(0.22 -0.22)">
      <use xlink:href="#DejaVuSans-58"/>
      <use xlink:href="#DejaVuSans-69" x="68.505859"/>
      <use xlink:href="#DejaVuSans-2d" x="96.289062"/>
      <use xlink:href="#DejaVuSans-41" x="130.123047"/>
      <use xlink:href="#DejaVuSans-49" x="198.53125"/>
      <use xlink:href="#DejaVuSans-49" x="228.023438"/>
      <use xlink:href="#DejaVuSans-49" x="257.515625"/>
     </g>
    </g>
    <g id="line2d_28">
     <path d="M 906.19 214.035938 
L 928.19 214.035938 
L 950.19 214.035938 
" style="fill: none; stroke: #fd9649; stroke-width: 1.5; stroke-linecap: square"/>
    </g>
    <g id="text_24">
     <!-- Xa-AIII -->
     <g transform="translate(967.79 221.735938) scale(0.22 -0.22)">
      <use xlink:href="#DejaVuSans-58"/>
      <use xlink:href="#DejaVuSans-61" x="68.505859"/>
      <use xlink:href="#DejaVuSans-2d" x="129.785156"/>
      <use xlink:href="#DejaVuSans-41" x="163.619141"/>
      <use xlink:href="#DejaVuSans-49" x="232.027344"/>
      <use xlink:href="#DejaVuSans-49" x="261.519531"/>
      <use xlink:href="#DejaVuSans-49" x="291.011719"/>
     </g>
    </g>
    <g id="line2d_29">
     <path d="M 906.19 246.327813 
L 928.19 246.327813 
L 950.19 246.327813 
" style="fill: none; stroke: #2575b7; stroke-width: 1.5; stroke-linecap: square"/>
    </g>
    <g id="text_25">
     <!-- Xi-IAII -->
     <g transform="translate(967.79 254.027813) scale(0.22 -0.22)">
      <use xlink:href="#DejaVuSans-58"/>
      <use xlink:href="#DejaVuSans-69" x="68.505859"/>
      <use xlink:href="#DejaVuSans-2d" x="96.289062"/>
      <use xlink:href="#DejaVuSans-49" x="132.373047"/>
      <use xlink:href="#DejaVuSans-41" x="161.865234"/>
      <use xlink:href="#DejaVuSans-49" x="230.273438"/>
      <use xlink:href="#DejaVuSans-49" x="259.765625"/>
     </g>
    </g>
    <g id="line2d_30">
     <path d="M 906.19 278.619688 
L 928.19 278.619688 
L 950.19 278.619688 
" style="fill: none; stroke: #dc4c03; stroke-width: 1.5; stroke-linecap: square"/>
    </g>
    <g id="text_26">
     <!-- Xa-IAII -->
     <g transform="translate(967.79 286.319688) scale(0.22 -0.22)">
      <use xlink:href="#DejaVuSans-58"/>
      <use xlink:href="#DejaVuSans-61" x="68.505859"/>
      <use xlink:href="#DejaVuSans-2d" x="129.785156"/>
      <use xlink:href="#DejaVuSans-49" x="165.869141"/>
      <use xlink:href="#DejaVuSans-41" x="195.361328"/>
      <use xlink:href="#DejaVuSans-49" x="263.769531"/>
      <use xlink:href="#DejaVuSans-49" x="293.261719"/>
     </g>
    </g>
    <g id="line2d_31">
     <path d="M 906.19 310.911563 
L 928.19 310.911563 
L 950.19 310.911563 
" style="fill: none; stroke: #08306b; stroke-width: 1.5; stroke-linecap: square"/>
    </g>
    <g id="text_27">
     <!-- Xi-IIII -->
     <g transform="translate(967.79 318.611563) scale(0.22 -0.22)">
      <use xlink:href="#DejaVuSans-58"/>
      <use xlink:href="#DejaVuSans-69" x="68.505859"/>
      <use xlink:href="#DejaVuSans-2d" x="96.289062"/>
      <use xlink:href="#DejaVuSans-49" x="132.373047"/>
      <use xlink:href="#DejaVuSans-49" x="161.865234"/>
      <use xlink:href="#DejaVuSans-49" x="191.357422"/>
      <use xlink:href="#DejaVuSans-49" x="220.849609"/>
     </g>
    </g>
    <g id="line2d_32">
     <path d="M 906.19 343.203438 
L 928.19 343.203438 
L 950.19 343.203438 
" style="fill: none; stroke: #7f2704; stroke-width: 1.5; stroke-linecap: square"/>
    </g>
    <g id="text_28">
     <!-- Xa-IIII -->
     <g transform="translate(967.79 350.903438) scale(0.22 -0.22)">
      <use xlink:href="#DejaVuSans-58"/>
      <use xlink:href="#DejaVuSans-61" x="68.505859"/>
      <use xlink:href="#DejaVuSans-2d" x="129.785156"/>
      <use xlink:href="#DejaVuSans-49" x="165.869141"/>
      <use xlink:href="#DejaVuSans-49" x="195.361328"/>
      <use xlink:href="#DejaVuSans-49" x="224.853516"/>
      <use xlink:href="#DejaVuSans-49" x="254.345703"/>
     </g>
    </g>
   </g>
  </g>
 </g>
 <defs>
  <clipPath id="p6bcd6ea3a9">
   <rect x="104.42" y="23.76" width="781.97" height="619.72"/>
  </clipPath>
 </defs>
</svg>
