<?xml version="1.0" encoding="utf-8" standalone="no"?>
<!DOCTYPE svg PUBLIC "-//W3C//DTD SVG 1.1//EN"
  "http://www.w3.org/Graphics/SVG/1.1/DTD/svg11.dtd">
<svg xmlns:xlink="http://www.w3.org/1999/xlink" width="1080pt" height="720pt" viewBox="0 0 1080 720" xmlns="http://www.w3.org/2000/svg" version="1.1">
 <metadata>
  <rdf:RDF xmlns:dc="http://purl.org/dc/elements/1.1/" xmlns:cc="http://creativecommons.org/ns#" xmlns:rdf="http://www.w3.org/1999/02/22-rdf-syntax-ns#">
   <cc:Work>
    <dc:type rdf:resource="http://purl.org/dc/dcmitype/StillImage"/>
    <dc:date>2023-02-17T15:04:33.416516</dc:date>
    <dc:format>image/svg+xml</dc:format>
    <dc:creator>
     <cc:Agent>
      <dc:title>Matplotlib v3.6.2, https://matplotlib.org/</dc:title>
     </cc:Agent>
    </dc:creator>
   </cc:Work>
  </rdf:RDF>
 </metadata>
 <defs>
  <style type="text/css">*{stroke-linejoin: round; stroke-linecap: butt}</style>
 </defs>
 <g id="figure_1">
  <g id="patch_1">
   <path d="M 0 720 
L 1080 720 
L 1080 0 
L 0 0 
z
" style="fill: #ffffff"/>
  </g>
  <g id="axes_1">
   <g id="patch_2">
    <path d="M 104.42 643.48 
L 886.39 643.48 
L 886.39 23.76 
L 104.42 23.76 
z
" style="fill: #ffffff"/>
   </g>
   <g id="PathCollection_1">
    <defs>
     <path id="m80f1702e56" d="M 0 3 
C 0.795609 3 1.55874 2.683901 2.12132 2.12132 
C 2.683901 1.55874 3 0.795609 3 0 
C 3 -0.795609 2.683901 -1.55874 2.12132 -2.12132 
C 1.55874 -2.683901 0.795609 -3 0 -3 
C -0.795609 -3 -1.55874 -2.683901 -2.12132 -2.12132 
C -2.683901 -1.55874 -3 -0.795609 -3 0 
C -3 0.795609 -2.683901 1.55874 -2.12132 2.12132 
C -1.55874 2.683901 -0.795609 3 0 3 
z
" style="stroke: #1f77b4"/>
    </defs>
    <g clip-path="url(#p653cff3d34)">
     <use xlink:href="#m80f1702e56" x="139.964091" y="615.310909" style="fill: #1f77b4; stroke: #1f77b4"/>
     <use xlink:href="#m80f1702e56" x="228.824318" y="521.608891" style="fill: #1f77b4; stroke: #1f77b4"/>
     <use xlink:href="#m80f1702e56" x="317.684545" y="501.72945" style="fill: #1f77b4; stroke: #1f77b4"/>
     <use xlink:href="#m80f1702e56" x="406.544773" y="437.604419" style="fill: #1f77b4; stroke: #1f77b4"/>
     <use xlink:href="#m80f1702e56" x="495.405" y="392.867232" style="fill: #1f77b4; stroke: #1f77b4"/>
     <use xlink:href="#m80f1702e56" x="584.265227" y="348.130046" style="fill: #1f77b4; stroke: #1f77b4"/>
     <use xlink:href="#m80f1702e56" x="673.125455" y="255.476363" style="fill: #1f77b4; stroke: #1f77b4"/>
     <use xlink:href="#m80f1702e56" x="761.985682" y="255.476363" style="fill: #1f77b4; stroke: #1f77b4"/>
     <use xlink:href="#m80f1702e56" x="850.845909" y="255.476363" style="fill: #1f77b4; stroke: #1f77b4"/>
    </g>
   </g>
   <g id="PathCollection_2">
    <defs>
     <path id="m62fcbac0dc" d="M 0 3 
C 0.795609 3 1.55874 2.683901 2.12132 2.12132 
C 2.683901 1.55874 3 0.795609 3 0 
C 3 -0.795609 2.683901 -1.55874 2.12132 -2.12132 
C 1.55874 -2.683901 0.795609 -3 0 -3 
C -0.795609 -3 -1.55874 -2.683901 -2.12132 -2.12132 
C -2.683901 -1.55874 -3 -0.795609 -3 0 
C -3 0.795609 -2.683901 1.55874 -2.12132 2.12132 
C -1.55874 2.683901 -0.795609 3 0 3 
z
" style="stroke: #ff7f0e"/>
    </defs>
    <g clip-path="url(#p653cff3d34)">
     <use xlink:href="#m62fcbac0dc" x="139.964091" y="119.790519" style="fill: #ff7f0e; stroke: #ff7f0e"/>
     <use xlink:href="#m62fcbac0dc" x="228.824318" y="51.929091" style="fill: #ff7f0e; stroke: #ff7f0e"/>
     <use xlink:href="#m62fcbac0dc" x="317.684545" y="153.461662" style="fill: #ff7f0e; stroke: #ff7f0e"/>
     <use xlink:href="#m62fcbac0dc" x="406.544773" y="201.783379" style="fill: #ff7f0e; stroke: #ff7f0e"/>
     <use xlink:href="#m62fcbac0dc" x="495.405" y="221.140446" style="fill: #ff7f0e; stroke: #ff7f0e"/>
     <use xlink:href="#m62fcbac0dc" x="584.265227" y="240.497513" style="fill: #ff7f0e; stroke: #ff7f0e"/>
     <use xlink:href="#m62fcbac0dc" x="673.125455" y="283.214431" style="fill: #ff7f0e; stroke: #ff7f0e"/>
     <use xlink:href="#m62fcbac0dc" x="761.985682" y="283.214431" style="fill: #ff7f0e; stroke: #ff7f0e"/>
     <use xlink:href="#m62fcbac0dc" x="850.845909" y="283.214431" style="fill: #ff7f0e; stroke: #ff7f0e"/>
    </g>
   </g>
   <g id="matplotlib.axis_1">
    <g id="xtick_1">
     <g id="line2d_1">
      <defs>
       <path id="m3385fdae1e" d="M 0 0 
L 0 3.5 
" style="stroke: #000000; stroke-width: 0.8"/>
      </defs>
      <g>
       <use xlink:href="#m3385fdae1e" x="139.964091" y="643.48" style="stroke: #000000; stroke-width: 0.8"/>
      </g>
     </g>
     <g id="text_1">
      <!-- 7 -->
      <g transform="translate(132.965341 667.196563) scale(0.22 -0.22)">
       <defs>
        <path id="DejaVuSans-37" d="M 525 4666 
L 3525 4666 
L 3525 4397 
L 1831 0 
L 1172 0 
L 2766 4134 
L 525 4134 
L 525 4666 
z
" transform="scale(0.015625)"/>
       </defs>
       <use xlink:href="#DejaVuSans-37"/>
      </g>
     </g>
    </g>
    <g id="xtick_2">
     <g id="line2d_2">
      <g>
       <use xlink:href="#m3385fdae1e" x="228.824318" y="643.48" style="stroke: #000000; stroke-width: 0.8"/>
      </g>
     </g>
     <g id="text_2">
      <!-- 8 -->
      <g transform="translate(221.825568 667.196563) scale(0.22 -0.22)">
       <defs>
        <path id="DejaVuSans-38" d="M 2034 2216 
Q 1584 2216 1326 1975 
Q 1069 1734 1069 1313 
Q 1069 891 1326 650 
Q 1584 409 2034 409 
Q 2484 409 2743 651 
Q 3003 894 3003 1313 
Q 3003 1734 2745 1975 
Q 2488 2216 2034 2216 
z
M 1403 2484 
Q 997 2584 770 2862 
Q 544 3141 544 3541 
Q 544 4100 942 4425 
Q 1341 4750 2034 4750 
Q 2731 4750 3128 4425 
Q 3525 4100 3525 3541 
Q 3525 3141 3298 2862 
Q 3072 2584 2669 2484 
Q 3125 2378 3379 2068 
Q 3634 1759 3634 1313 
Q 3634 634 3220 271 
Q 2806 -91 2034 -91 
Q 1263 -91 848 271 
Q 434 634 434 1313 
Q 434 1759 690 2068 
Q 947 2378 1403 2484 
z
M 1172 3481 
Q 1172 3119 1398 2916 
Q 1625 2713 2034 2713 
Q 2441 2713 2670 2916 
Q 2900 3119 2900 3481 
Q 2900 3844 2670 4047 
Q 2441 4250 2034 4250 
Q 1625 4250 1398 4047 
Q 1172 3844 1172 3481 
z
" transform="scale(0.015625)"/>
       </defs>
       <use xlink:href="#DejaVuSans-38"/>
      </g>
     </g>
    </g>
    <g id="xtick_3">
     <g id="line2d_3">
      <g>
       <use xlink:href="#m3385fdae1e" x="317.684545" y="643.48" style="stroke: #000000; stroke-width: 0.8"/>
      </g>
     </g>
     <g id="text_3">
      <!-- 9 -->
      <g transform="translate(310.685795 667.196563) scale(0.22 -0.22)">
       <defs>
        <path id="DejaVuSans-39" d="M 703 97 
L 703 672 
Q 941 559 1184 500 
Q 1428 441 1663 441 
Q 2288 441 2617 861 
Q 2947 1281 2994 2138 
Q 2813 1869 2534 1725 
Q 2256 1581 1919 1581 
Q 1219 1581 811 2004 
Q 403 2428 403 3163 
Q 403 3881 828 4315 
Q 1253 4750 1959 4750 
Q 2769 4750 3195 4129 
Q 3622 3509 3622 2328 
Q 3622 1225 3098 567 
Q 2575 -91 1691 -91 
Q 1453 -91 1209 -44 
Q 966 3 703 97 
z
M 1959 2075 
Q 2384 2075 2632 2365 
Q 2881 2656 2881 3163 
Q 2881 3666 2632 3958 
Q 2384 4250 1959 4250 
Q 1534 4250 1286 3958 
Q 1038 3666 1038 3163 
Q 1038 2656 1286 2365 
Q 1534 2075 1959 2075 
z
" transform="scale(0.015625)"/>
       </defs>
       <use xlink:href="#DejaVuSans-39"/>
      </g>
     </g>
    </g>
    <g id="xtick_4">
     <g id="line2d_4">
      <g>
       <use xlink:href="#m3385fdae1e" x="406.544773" y="643.48" style="stroke: #000000; stroke-width: 0.8"/>
      </g>
     </g>
     <g id="text_4">
      <!-- 10 -->
      <g transform="translate(392.547273 667.196563) scale(0.22 -0.22)">
       <defs>
        <path id="DejaVuSans-31" d="M 794 531 
L 1825 531 
L 1825 4091 
L 703 3866 
L 703 4441 
L 1819 4666 
L 2450 4666 
L 2450 531 
L 3481 531 
L 3481 0 
L 794 0 
L 794 531 
z
" transform="scale(0.015625)"/>
        <path id="DejaVuSans-30" d="M 2034 4250 
Q 1547 4250 1301 3770 
Q 1056 3291 1056 2328 
Q 1056 1369 1301 889 
Q 1547 409 2034 409 
Q 2525 409 2770 889 
Q 3016 1369 3016 2328 
Q 3016 3291 2770 3770 
Q 2525 4250 2034 4250 
z
M 2034 4750 
Q 2819 4750 3233 4129 
Q 3647 3509 3647 2328 
Q 3647 1150 3233 529 
Q 2819 -91 2034 -91 
Q 1250 -91 836 529 
Q 422 1150 422 2328 
Q 422 3509 836 4129 
Q 1250 4750 2034 4750 
z
" transform="scale(0.015625)"/>
       </defs>
       <use xlink:href="#DejaVuSans-31"/>
       <use xlink:href="#DejaVuSans-30" x="63.623047"/>
      </g>
     </g>
    </g>
    <g id="xtick_5">
     <g id="line2d_5">
      <g>
       <use xlink:href="#m3385fdae1e" x="495.405" y="643.48" style="stroke: #000000; stroke-width: 0.8"/>
      </g>
     </g>
     <g id="text_5">
      <!-- 11 -->
      <g transform="translate(481.4075 667.196563) scale(0.22 -0.22)">
       <use xlink:href="#DejaVuSans-31"/>
       <use xlink:href="#DejaVuSans-31" x="63.623047"/>
      </g>
     </g>
    </g>
    <g id="xtick_6">
     <g id="line2d_6">
      <g>
       <use xlink:href="#m3385fdae1e" x="584.265227" y="643.48" style="stroke: #000000; stroke-width: 0.8"/>
      </g>
     </g>
     <g id="text_6">
      <!-- 12 -->
      <g transform="translate(570.267727 667.196563) scale(0.22 -0.22)">
       <defs>
        <path id="DejaVuSans-32" d="M 1228 531 
L 3431 531 
L 3431 0 
L 469 0 
L 469 531 
Q 828 903 1448 1529 
Q 2069 2156 2228 2338 
Q 2531 2678 2651 2914 
Q 2772 3150 2772 3378 
Q 2772 3750 2511 3984 
Q 2250 4219 1831 4219 
Q 1534 4219 1204 4116 
Q 875 4013 500 3803 
L 500 4441 
Q 881 4594 1212 4672 
Q 1544 4750 1819 4750 
Q 2544 4750 2975 4387 
Q 3406 4025 3406 3419 
Q 3406 3131 3298 2873 
Q 3191 2616 2906 2266 
Q 2828 2175 2409 1742 
Q 1991 1309 1228 531 
z
" transform="scale(0.015625)"/>
       </defs>
       <use xlink:href="#DejaVuSans-31"/>
       <use xlink:href="#DejaVuSans-32" x="63.623047"/>
      </g>
     </g>
    </g>
    <g id="xtick_7">
     <g id="line2d_7">
      <g>
       <use xlink:href="#m3385fdae1e" x="673.125455" y="643.48" style="stroke: #000000; stroke-width: 0.8"/>
      </g>
     </g>
     <g id="text_7">
      <!-- 13 -->
      <g transform="translate(659.127955 667.196563) scale(0.22 -0.22)">
       <defs>
        <path id="DejaVuSans-33" d="M 2597 2516 
Q 3050 2419 3304 2112 
Q 3559 1806 3559 1356 
Q 3559 666 3084 287 
Q 2609 -91 1734 -91 
Q 1441 -91 1130 -33 
Q 819 25 488 141 
L 488 750 
Q 750 597 1062 519 
Q 1375 441 1716 441 
Q 2309 441 2620 675 
Q 2931 909 2931 1356 
Q 2931 1769 2642 2001 
Q 2353 2234 1838 2234 
L 1294 2234 
L 1294 2753 
L 1863 2753 
Q 2328 2753 2575 2939 
Q 2822 3125 2822 3475 
Q 2822 3834 2567 4026 
Q 2313 4219 1838 4219 
Q 1578 4219 1281 4162 
Q 984 4106 628 3988 
L 628 4550 
Q 988 4650 1302 4700 
Q 1616 4750 1894 4750 
Q 2613 4750 3031 4423 
Q 3450 4097 3450 3541 
Q 3450 3153 3228 2886 
Q 3006 2619 2597 2516 
z
" transform="scale(0.015625)"/>
       </defs>
       <use xlink:href="#DejaVuSans-31"/>
       <use xlink:href="#DejaVuSans-33" x="63.623047"/>
      </g>
     </g>
    </g>
    <g id="xtick_8">
     <g id="line2d_8">
      <g>
       <use xlink:href="#m3385fdae1e" x="761.985682" y="643.48" style="stroke: #000000; stroke-width: 0.8"/>
      </g>
     </g>
     <g id="text_8">
      <!-- 14 -->
      <g transform="translate(747.988182 667.196563) scale(0.22 -0.22)">
       <defs>
        <path id="DejaVuSans-34" d="M 2419 4116 
L 825 1625 
L 2419 1625 
L 2419 4116 
z
M 2253 4666 
L 3047 4666 
L 3047 1625 
L 3713 1625 
L 3713 1100 
L 3047 1100 
L 3047 0 
L 2419 0 
L 2419 1100 
L 313 1100 
L 313 1709 
L 2253 4666 
z
" transform="scale(0.015625)"/>
       </defs>
       <use xlink:href="#DejaVuSans-31"/>
       <use xlink:href="#DejaVuSans-34" x="63.623047"/>
      </g>
     </g>
    </g>
    <g id="xtick_9">
     <g id="line2d_9">
      <g>
       <use xlink:href="#m3385fdae1e" x="850.845909" y="643.48" style="stroke: #000000; stroke-width: 0.8"/>
      </g>
     </g>
     <g id="text_9">
      <!-- 15 -->
      <g transform="translate(836.848409 667.196563) scale(0.22 -0.22)">
       <defs>
        <path id="DejaVuSans-35" d="M 691 4666 
L 3169 4666 
L 3169 4134 
L 1269 4134 
L 1269 2991 
Q 1406 3038 1543 3061 
Q 1681 3084 1819 3084 
Q 2600 3084 3056 2656 
Q 3513 2228 3513 1497 
Q 3513 744 3044 326 
Q 2575 -91 1722 -91 
Q 1428 -91 1123 -41 
Q 819 9 494 109 
L 494 744 
Q 775 591 1075 516 
Q 1375 441 1709 441 
Q 2250 441 2565 725 
Q 2881 1009 2881 1497 
Q 2881 1984 2565 2268 
Q 2250 2553 1709 2553 
Q 1456 2553 1204 2497 
Q 953 2441 691 2322 
L 691 4666 
z
" transform="scale(0.015625)"/>
       </defs>
       <use xlink:href="#DejaVuSans-31"/>
       <use xlink:href="#DejaVuSans-35" x="63.623047"/>
      </g>
     </g>
    </g>
    <g id="text_10">
     <!-- Time (days) -->
     <g transform="translate(430.446563 692.488438) scale(0.22 -0.22)">
      <defs>
       <path id="DejaVuSans-54" d="M -19 4666 
L 3928 4666 
L 3928 4134 
L 2272 4134 
L 2272 0 
L 1638 0 
L 1638 4134 
L -19 4134 
L -19 4666 
z
" transform="scale(0.015625)"/>
       <path id="DejaVuSans-69" d="M 603 3500 
L 1178 3500 
L 1178 0 
L 603 0 
L 603 3500 
z
M 603 4863 
L 1178 4863 
L 1178 4134 
L 603 4134 
L 603 4863 
z
" transform="scale(0.015625)"/>
       <path id="DejaVuSans-6d" d="M 3328 2828 
Q 3544 3216 3844 3400 
Q 4144 3584 4550 3584 
Q 5097 3584 5394 3201 
Q 5691 2819 5691 2113 
L 5691 0 
L 5113 0 
L 5113 2094 
Q 5113 2597 4934 2840 
Q 4756 3084 4391 3084 
Q 3944 3084 3684 2787 
Q 3425 2491 3425 1978 
L 3425 0 
L 2847 0 
L 2847 2094 
Q 2847 2600 2669 2842 
Q 2491 3084 2119 3084 
Q 1678 3084 1418 2786 
Q 1159 2488 1159 1978 
L 1159 0 
L 581 0 
L 581 3500 
L 1159 3500 
L 1159 2956 
Q 1356 3278 1631 3431 
Q 1906 3584 2284 3584 
Q 2666 3584 2933 3390 
Q 3200 3197 3328 2828 
z
" transform="scale(0.015625)"/>
       <path id="DejaVuSans-65" d="M 3597 1894 
L 3597 1613 
L 953 1613 
Q 991 1019 1311 708 
Q 1631 397 2203 397 
Q 2534 397 2845 478 
Q 3156 559 3463 722 
L 3463 178 
Q 3153 47 2828 -22 
Q 2503 -91 2169 -91 
Q 1331 -91 842 396 
Q 353 884 353 1716 
Q 353 2575 817 3079 
Q 1281 3584 2069 3584 
Q 2775 3584 3186 3129 
Q 3597 2675 3597 1894 
z
M 3022 2063 
Q 3016 2534 2758 2815 
Q 2500 3097 2075 3097 
Q 1594 3097 1305 2825 
Q 1016 2553 972 2059 
L 3022 2063 
z
" transform="scale(0.015625)"/>
       <path id="DejaVuSans-20" transform="scale(0.015625)"/>
       <path id="DejaVuSans-28" d="M 1984 4856 
Q 1566 4138 1362 3434 
Q 1159 2731 1159 2009 
Q 1159 1288 1364 580 
Q 1569 -128 1984 -844 
L 1484 -844 
Q 1016 -109 783 600 
Q 550 1309 550 2009 
Q 550 2706 781 3412 
Q 1013 4119 1484 4856 
L 1984 4856 
z
" transform="scale(0.015625)"/>
       <path id="DejaVuSans-64" d="M 2906 2969 
L 2906 4863 
L 3481 4863 
L 3481 0 
L 2906 0 
L 2906 525 
Q 2725 213 2448 61 
Q 2172 -91 1784 -91 
Q 1150 -91 751 415 
Q 353 922 353 1747 
Q 353 2572 751 3078 
Q 1150 3584 1784 3584 
Q 2172 3584 2448 3432 
Q 2725 3281 2906 2969 
z
M 947 1747 
Q 947 1113 1208 752 
Q 1469 391 1925 391 
Q 2381 391 2643 752 
Q 2906 1113 2906 1747 
Q 2906 2381 2643 2742 
Q 2381 3103 1925 3103 
Q 1469 3103 1208 2742 
Q 947 2381 947 1747 
z
" transform="scale(0.015625)"/>
       <path id="DejaVuSans-61" d="M 2194 1759 
Q 1497 1759 1228 1600 
Q 959 1441 959 1056 
Q 959 750 1161 570 
Q 1363 391 1709 391 
Q 2188 391 2477 730 
Q 2766 1069 2766 1631 
L 2766 1759 
L 2194 1759 
z
M 3341 1997 
L 3341 0 
L 2766 0 
L 2766 531 
Q 2569 213 2275 61 
Q 1981 -91 1556 -91 
Q 1019 -91 701 211 
Q 384 513 384 1019 
Q 384 1609 779 1909 
Q 1175 2209 1959 2209 
L 2766 2209 
L 2766 2266 
Q 2766 2663 2505 2880 
Q 2244 3097 1772 3097 
Q 1472 3097 1187 3025 
Q 903 2953 641 2809 
L 641 3341 
Q 956 3463 1253 3523 
Q 1550 3584 1831 3584 
Q 2591 3584 2966 3190 
Q 3341 2797 3341 1997 
z
" transform="scale(0.015625)"/>
       <path id="DejaVuSans-79" d="M 2059 -325 
Q 1816 -950 1584 -1140 
Q 1353 -1331 966 -1331 
L 506 -1331 
L 506 -850 
L 844 -850 
Q 1081 -850 1212 -737 
Q 1344 -625 1503 -206 
L 1606 56 
L 191 3500 
L 800 3500 
L 1894 763 
L 2988 3500 
L 3597 3500 
L 2059 -325 
z
" transform="scale(0.015625)"/>
       <path id="DejaVuSans-73" d="M 2834 3397 
L 2834 2853 
Q 2591 2978 2328 3040 
Q 2066 3103 1784 3103 
Q 1356 3103 1142 2972 
Q 928 2841 928 2578 
Q 928 2378 1081 2264 
Q 1234 2150 1697 2047 
L 1894 2003 
Q 2506 1872 2764 1633 
Q 3022 1394 3022 966 
Q 3022 478 2636 193 
Q 2250 -91 1575 -91 
Q 1294 -91 989 -36 
Q 684 19 347 128 
L 347 722 
Q 666 556 975 473 
Q 1284 391 1588 391 
Q 1994 391 2212 530 
Q 2431 669 2431 922 
Q 2431 1156 2273 1281 
Q 2116 1406 1581 1522 
L 1381 1569 
Q 847 1681 609 1914 
Q 372 2147 372 2553 
Q 372 3047 722 3315 
Q 1072 3584 1716 3584 
Q 2034 3584 2315 3537 
Q 2597 3491 2834 3397 
z
" transform="scale(0.015625)"/>
       <path id="DejaVuSans-29" d="M 513 4856 
L 1013 4856 
Q 1481 4119 1714 3412 
Q 1947 2706 1947 2009 
Q 1947 1309 1714 600 
Q 1481 -109 1013 -844 
L 513 -844 
Q 928 -128 1133 580 
Q 1338 1288 1338 2009 
Q 1338 2731 1133 3434 
Q 928 4138 513 4856 
z
" transform="scale(0.015625)"/>
      </defs>
      <use xlink:href="#DejaVuSans-54"/>
      <use xlink:href="#DejaVuSans-69" x="57.958984"/>
      <use xlink:href="#DejaVuSans-6d" x="85.742188"/>
      <use xlink:href="#DejaVuSans-65" x="183.154297"/>
      <use xlink:href="#DejaVuSans-20" x="244.677734"/>
      <use xlink:href="#DejaVuSans-28" x="276.464844"/>
      <use xlink:href="#DejaVuSans-64" x="315.478516"/>
      <use xlink:href="#DejaVuSans-61" x="378.955078"/>
      <use xlink:href="#DejaVuSans-79" x="440.234375"/>
      <use xlink:href="#DejaVuSans-73" x="499.414062"/>
      <use xlink:href="#DejaVuSans-29" x="551.513672"/>
     </g>
    </g>
   </g>
   <g id="matplotlib.axis_2">
    <g id="ytick_1">
     <g id="line2d_10">
      <defs>
       <path id="ma600d9e374" d="M 0 0 
L -3.5 0 
" style="stroke: #000000; stroke-width: 0.8"/>
      </defs>
      <g>
       <use xlink:href="#ma600d9e374" x="104.42" y="615.643714" style="stroke: #000000; stroke-width: 0.8"/>
      </g>
     </g>
     <g id="text_11">
      <!-- 0.00 -->
      <g transform="translate(48.435625 624.001995) scale(0.22 -0.22)">
       <defs>
        <path id="DejaVuSans-2e" d="M 684 794 
L 1344 794 
L 1344 0 
L 684 0 
L 684 794 
z
" transform="scale(0.015625)"/>
       </defs>
       <use xlink:href="#DejaVuSans-30"/>
       <use xlink:href="#DejaVuSans-2e" x="63.623047"/>
       <use xlink:href="#DejaVuSans-30" x="95.410156"/>
       <use xlink:href="#DejaVuSans-30" x="159.033203"/>
      </g>
     </g>
    </g>
    <g id="ytick_2">
     <g id="line2d_11">
      <g>
       <use xlink:href="#ma600d9e374" x="104.42" y="538.29454" style="stroke: #000000; stroke-width: 0.8"/>
      </g>
     </g>
     <g id="text_12">
      <!-- 0.25 -->
      <g transform="translate(48.435625 546.652821) scale(0.22 -0.22)">
       <use xlink:href="#DejaVuSans-30"/>
       <use xlink:href="#DejaVuSans-2e" x="63.623047"/>
       <use xlink:href="#DejaVuSans-32" x="95.410156"/>
       <use xlink:href="#DejaVuSans-35" x="159.033203"/>
      </g>
     </g>
    </g>
    <g id="ytick_3">
     <g id="line2d_12">
      <g>
       <use xlink:href="#ma600d9e374" x="104.42" y="460.945366" style="stroke: #000000; stroke-width: 0.8"/>
      </g>
     </g>
     <g id="text_13">
      <!-- 0.50 -->
      <g transform="translate(48.435625 469.303647) scale(0.22 -0.22)">
       <use xlink:href="#DejaVuSans-30"/>
       <use xlink:href="#DejaVuSans-2e" x="63.623047"/>
       <use xlink:href="#DejaVuSans-35" x="95.410156"/>
       <use xlink:href="#DejaVuSans-30" x="159.033203"/>
      </g>
     </g>
    </g>
    <g id="ytick_4">
     <g id="line2d_13">
      <g>
       <use xlink:href="#ma600d9e374" x="104.42" y="383.596192" style="stroke: #000000; stroke-width: 0.8"/>
      </g>
     </g>
     <g id="text_14">
      <!-- 0.75 -->
      <g transform="translate(48.435625 391.954473) scale(0.22 -0.22)">
       <use xlink:href="#DejaVuSans-30"/>
       <use xlink:href="#DejaVuSans-2e" x="63.623047"/>
       <use xlink:href="#DejaVuSans-37" x="95.410156"/>
       <use xlink:href="#DejaVuSans-35" x="159.033203"/>
      </g>
     </g>
    </g>
    <g id="ytick_5">
     <g id="line2d_14">
      <g>
       <use xlink:href="#ma600d9e374" x="104.42" y="306.247017" style="stroke: #000000; stroke-width: 0.8"/>
      </g>
     </g>
     <g id="text_15">
      <!-- 1.00 -->
      <g transform="translate(48.435625 314.605299) scale(0.22 -0.22)">
       <use xlink:href="#DejaVuSans-31"/>
       <use xlink:href="#DejaVuSans-2e" x="63.623047"/>
       <use xlink:href="#DejaVuSans-30" x="95.410156"/>
       <use xlink:href="#DejaVuSans-30" x="159.033203"/>
      </g>
     </g>
    </g>
    <g id="ytick_6">
     <g id="line2d_15">
      <g>
       <use xlink:href="#ma600d9e374" x="104.42" y="228.897843" style="stroke: #000000; stroke-width: 0.8"/>
      </g>
     </g>
     <g id="text_16">
      <!-- 1.25 -->
      <g transform="translate(48.435625 237.256124) scale(0.22 -0.22)">
       <use xlink:href="#DejaVuSans-31"/>
       <use xlink:href="#DejaVuSans-2e" x="63.623047"/>
       <use xlink:href="#DejaVuSans-32" x="95.410156"/>
       <use xlink:href="#DejaVuSans-35" x="159.033203"/>
      </g>
     </g>
    </g>
    <g id="ytick_7">
     <g id="line2d_16">
      <g>
       <use xlink:href="#ma600d9e374" x="104.42" y="151.548669" style="stroke: #000000; stroke-width: 0.8"/>
      </g>
     </g>
     <g id="text_17">
      <!-- 1.50 -->
      <g transform="translate(48.435625 159.90695) scale(0.22 -0.22)">
       <use xlink:href="#DejaVuSans-31"/>
       <use xlink:href="#DejaVuSans-2e" x="63.623047"/>
       <use xlink:href="#DejaVuSans-35" x="95.410156"/>
       <use xlink:href="#DejaVuSans-30" x="159.033203"/>
      </g>
     </g>
    </g>
    <g id="ytick_8">
     <g id="line2d_17">
      <g>
       <use xlink:href="#ma600d9e374" x="104.42" y="74.199495" style="stroke: #000000; stroke-width: 0.8"/>
      </g>
     </g>
     <g id="text_18">
      <!-- 1.75 -->
      <g transform="translate(48.435625 82.557776) scale(0.22 -0.22)">
       <use xlink:href="#DejaVuSans-31"/>
       <use xlink:href="#DejaVuSans-2e" x="63.623047"/>
       <use xlink:href="#DejaVuSans-37" x="95.410156"/>
       <use xlink:href="#DejaVuSans-35" x="159.033203"/>
      </g>
     </g>
    </g>
    <g id="text_19">
     <!-- X:A -->
     <g transform="translate(39.860313 352.385312) rotate(-90) scale(0.22 -0.22)">
      <defs>
       <path id="DejaVuSans-58" d="M 403 4666 
L 1081 4666 
L 2241 2931 
L 3406 4666 
L 4084 4666 
L 2584 2425 
L 4184 0 
L 3506 0 
L 2194 1984 
L 872 0 
L 191 0 
L 1856 2491 
L 403 4666 
z
" transform="scale(0.015625)"/>
       <path id="DejaVuSans-3a" d="M 750 794 
L 1409 794 
L 1409 0 
L 750 0 
L 750 794 
z
M 750 3309 
L 1409 3309 
L 1409 2516 
L 750 2516 
L 750 3309 
z
" transform="scale(0.015625)"/>
       <path id="DejaVuSans-41" d="M 2188 4044 
L 1331 1722 
L 3047 1722 
L 2188 4044 
z
M 1831 4666 
L 2547 4666 
L 4325 0 
L 3669 0 
L 3244 1197 
L 1141 1197 
L 716 0 
L 50 0 
L 1831 4666 
z
" transform="scale(0.015625)"/>
      </defs>
      <use xlink:href="#DejaVuSans-58"/>
      <use xlink:href="#DejaVuSans-3a" x="68.505859"/>
      <use xlink:href="#DejaVuSans-41" x="102.197266"/>
     </g>
    </g>
   </g>
   <g id="line2d_18">
    <path d="M 139.964091 615.310909 
L 147.144715 611.811942 
L 154.32534 608.312982 
L 161.505964 604.81403 
L 168.686589 601.315086 
L 175.867213 597.81615 
L 183.047837 594.31722 
L 190.228462 590.818298 
L 197.409086 587.319383 
L 204.589711 583.820474 
L 211.770335 580.321572 
L 218.95096 576.822677 
L 226.131584 573.323788 
L 233.312208 569.824905 
L 240.492833 566.326028 
L 247.673457 562.827157 
L 254.854082 559.328292 
L 262.034706 555.829433 
L 269.215331 552.330579 
L 276.395955 548.831731 
L 283.576579 545.332887 
L 290.757204 541.834049 
L 297.937828 538.335216 
L 305.118453 534.836388 
L 312.299077 531.337587 
L 319.479702 527.838825 
L 326.660326 524.340098 
L 333.84095 520.8414 
L 341.021575 517.342727 
L 348.202199 513.844074 
L 355.382824 510.345437 
L 362.563448 506.846811 
L 369.744073 503.348193 
L 376.924697 499.84958 
L 384.105321 496.350968 
L 391.285946 492.852354 
L 398.46657 489.353736 
L 405.647195 485.855111 
L 412.827819 482.356477 
L 420.008444 478.857831 
L 427.189068 475.359173 
L 434.369692 471.8605 
L 441.550317 468.361812 
L 448.730941 464.863107 
L 455.911566 461.364385 
L 463.09219 457.865645 
L 470.272815 454.366888 
L 477.453439 450.868113 
L 484.634063 447.36932 
L 491.814688 443.870511 
L 498.995312 440.371685 
L 506.175937 436.872845 
L 513.356561 433.373991 
L 520.537185 429.875126 
L 527.71781 426.37625 
L 534.898434 422.877366 
L 542.079059 419.378477 
L 549.259683 415.879585 
L 556.440308 412.380693 
L 563.620932 408.881804 
L 570.801556 405.382921 
L 577.982181 401.884049 
L 585.162805 398.385191 
L 592.34343 394.886351 
L 599.524054 391.387533 
L 606.704679 387.888743 
L 613.885303 384.389986 
L 621.065927 380.891266 
L 628.246552 377.392588 
L 635.427176 373.89396 
L 642.607801 370.395385 
L 649.788425 366.896872 
L 656.96905 363.398426 
L 664.149674 359.900054 
L 671.330298 356.401763 
L 678.510923 352.90356 
L 685.691547 349.405453 
L 692.872172 345.907449 
L 700.052796 342.409556 
L 707.233421 338.911784 
L 714.414045 335.414139 
L 721.594669 331.916632 
L 728.775294 328.41927 
L 735.955918 324.922064 
L 743.136543 321.425023 
L 750.317167 317.928156 
L 757.497792 314.431474 
L 764.678416 310.934987 
L 771.85904 307.438705 
L 779.039665 303.94264 
L 786.220289 300.446802 
L 793.400914 296.951203 
L 800.581538 293.455855 
L 807.762163 289.960768 
L 814.942787 286.465956 
L 822.123411 282.97143 
L 829.304036 279.477204 
L 836.48466 275.983289 
L 843.665285 272.4897 
L 850.845909 268.99645 
" clip-path="url(#p653cff3d34)" style="fill: none; stroke: #d0e1f2; stroke-width: 1.5; stroke-linecap: square"/>
   </g>
   <g id="line2d_19">
    <path d="M 139.964091 119.790519 
L 147.144715 121.230381 
L 154.32534 122.666062 
L 161.505964 124.097575 
L 168.686589 125.52493 
L 175.867213 126.948141 
L 183.047837 128.367219 
L 190.228462 129.782176 
L 197.409086 131.193024 
L 204.589711 132.599776 
L 211.770335 134.002442 
L 218.95096 135.401036 
L 226.131584 136.795568 
L 233.312208 138.186051 
L 240.492833 139.572496 
L 247.673457 140.954915 
L 254.854082 142.33332 
L 262.034706 143.707722 
L 269.215331 145.078134 
L 276.395955 146.444565 
L 283.576579 147.807029 
L 290.757204 149.165537 
L 297.937828 150.5201 
L 305.118453 151.870729 
L 312.299077 153.217437 
L 319.479702 154.560235 
L 326.660326 155.899135 
L 333.84095 157.234147 
L 341.021575 158.565283 
L 348.202199 159.892554 
L 355.382824 161.215972 
L 362.563448 162.535546 
L 369.744073 163.851289 
L 376.924697 165.163212 
L 384.105321 166.471325 
L 391.285946 167.77564 
L 398.46657 169.076168 
L 405.647195 170.372919 
L 412.827819 171.665904 
L 420.008444 172.955135 
L 427.189068 174.240622 
L 434.369692 175.522376 
L 441.550317 176.800408 
L 448.730941 178.074728 
L 455.911566 179.345348 
L 463.09219 180.612278 
L 470.272815 181.875529 
L 477.453439 183.135111 
L 484.634063 184.391036 
L 491.814688 185.643313 
L 498.995312 186.891953 
L 506.175937 188.136968 
L 513.356561 189.378367 
L 520.537185 190.61616 
L 527.71781 191.850359 
L 534.898434 193.080974 
L 542.079059 194.308015 
L 549.259683 195.531493 
L 556.440308 196.751418 
L 563.620932 197.9678 
L 570.801556 199.180649 
L 577.982181 200.389976 
L 585.162805 201.595791 
L 592.34343 202.798105 
L 599.524054 203.996927 
L 606.704679 205.192268 
L 613.885303 206.384137 
L 621.065927 207.572545 
L 628.246552 208.757502 
L 635.427176 209.939018 
L 642.607801 211.117103 
L 649.788425 212.291766 
L 656.96905 213.463019 
L 664.149674 214.63087 
L 671.330298 215.79533 
L 678.510923 216.956408 
L 685.691547 218.114115 
L 692.872172 219.26846 
L 700.052796 220.419453 
L 707.233421 221.567103 
L 714.414045 222.711421 
L 721.594669 223.852416 
L 728.775294 224.990098 
L 735.955918 226.124476 
L 743.136543 227.25556 
L 750.317167 228.38336 
L 757.497792 229.507884 
L 764.678416 230.629143 
L 771.85904 231.747147 
L 779.039665 232.861904 
L 786.220289 233.973424 
L 793.400914 235.081716 
L 800.581538 236.18679 
L 807.762163 237.288655 
L 814.942787 238.387321 
L 822.123411 239.482796 
L 829.304036 240.57509 
L 836.48466 241.664213 
L 843.665285 242.750172 
L 850.845909 243.832979 
" clip-path="url(#p653cff3d34)" style="fill: none; stroke: #fdd9b4; stroke-width: 1.5; stroke-linecap: square"/>
   </g>
   <g id="line2d_20">
    <path d="M 139.964091 615.310909 
L 147.144715 611.766561 
L 154.32534 608.222098 
L 161.505964 604.677576 
L 168.686589 601.133051 
L 175.867213 597.588554 
L 183.047837 594.044096 
L 190.228462 590.499675 
L 197.409086 586.955304 
L 204.589711 583.410983 
L 211.770335 579.866704 
L 218.95096 576.322469 
L 226.131584 572.778289 
L 233.312208 569.234167 
L 240.492833 565.690086 
L 247.673457 562.146036 
L 254.854082 558.602025 
L 262.034706 555.058076 
L 269.215331 551.514199 
L 276.395955 547.970359 
L 283.576579 544.426548 
L 290.757204 540.882789 
L 297.937828 537.339097 
L 305.118453 533.795445 
L 312.299077 530.251829 
L 319.479702 526.708264 
L 326.660326 523.164763 
L 333.84095 519.621305 
L 341.021575 516.07788 
L 348.202199 512.534497 
L 355.382824 508.991186 
L 362.563448 505.447939 
L 369.744073 501.904717 
L 376.924697 498.361515 
L 384.105321 494.818366 
L 391.285946 491.275312 
L 398.46657 487.732304 
L 405.647195 484.189322 
L 412.827819 480.646392 
L 420.008444 477.103539 
L 427.189068 473.560732 
L 434.369692 470.017969 
L 441.550317 466.47527 
L 448.730941 462.93265 
L 455.911566 459.390084 
L 463.09219 455.847567 
L 470.272815 452.305126 
L 477.453439 448.762788 
L 484.634063 445.220523 
L 491.814688 441.678328 
L 498.995312 438.136233 
L 506.175937 434.594253 
L 513.356561 431.052366 
L 520.537185 427.510577 
L 527.71781 423.968917 
L 534.898434 420.427385 
L 542.079059 416.885962 
L 549.259683 413.344658 
L 556.440308 409.803492 
L 563.620932 406.262446 
L 570.801556 402.721513 
L 577.982181 399.180696 
L 585.162805 395.639992 
L 592.34343 392.099388 
L 599.524054 388.558878 
L 606.704679 385.018461 
L 613.885303 381.478127 
L 621.065927 377.937869 
L 628.246552 374.397684 
L 635.427176 370.857567 
L 642.607801 367.317515 
L 649.788425 363.777525 
L 656.96905 360.237594 
L 664.149674 356.697718 
L 671.330298 353.157897 
L 678.510923 349.61813 
L 685.691547 346.078416 
L 692.872172 342.538753 
L 700.052796 338.999141 
L 707.233421 335.459579 
L 714.414045 331.920068 
L 721.594669 328.380606 
L 728.775294 324.841193 
L 735.955918 321.301829 
L 743.136543 317.762514 
L 750.317167 314.223248 
L 757.497792 310.68403 
L 764.678416 307.144861 
L 771.85904 303.60574 
L 779.039665 300.066667 
L 786.220289 296.527642 
L 793.400914 292.988666 
L 800.581538 289.449737 
L 807.762163 285.910857 
L 814.942787 282.372024 
L 822.123411 278.83324 
L 829.304036 275.294503 
L 836.48466 271.755815 
L 843.665285 268.217174 
L 850.845909 264.678581 
" clip-path="url(#p653cff3d34)" style="fill: none; stroke: #79b5d9; stroke-width: 1.5; stroke-linecap: square"/>
   </g>
   <g id="line2d_21">
    <path d="M 139.964091 119.790519 
L 147.144715 108.180251 
L 154.32534 103.250875 
L 161.505964 100.735583 
L 168.686589 99.667906 
L 175.867213 99.130047 
L 183.047837 98.818378 
L 190.228462 98.824874 
L 197.409086 98.752763 
L 204.589711 98.615341 
L 211.770335 98.637615 
L 218.95096 98.773219 
L 226.131584 98.718372 
L 233.312208 98.366705 
L 240.492833 98.236898 
L 247.673457 98.540627 
L 254.854082 99.069154 
L 262.034706 99.193329 
L 269.215331 98.685265 
L 276.395955 98.49952 
L 283.576579 98.82645 
L 290.757204 99.029015 
L 297.937828 98.680344 
L 305.118453 98.55766 
L 312.299077 98.787146 
L 319.479702 98.925373 
L 326.660326 98.588309 
L 333.84095 98.419159 
L 341.021575 98.683974 
L 348.202199 99.091633 
L 355.382824 98.865073 
L 362.563448 98.256106 
L 369.744073 98.290741 
L 376.924697 99.087127 
L 384.105321 99.782308 
L 391.285946 99.28158 
L 398.46657 98.978083 
L 405.647195 99.401946 
L 412.827819 99.88575 
L 420.008444 99.732721 
L 427.189068 99.88373 
L 434.369692 100.499905 
L 441.550317 101.031888 
L 448.730941 101.163795 
L 455.911566 101.772763 
L 463.09219 103.091789 
L 470.272815 104.464302 
L 477.453439 105.215894 
L 484.634063 106.51426 
L 491.814688 108.697297 
L 498.995312 110.917125 
L 506.175937 112.819971 
L 513.356561 115.674399 
L 520.537185 119.528414 
L 527.71781 123.115295 
L 534.898434 126.772703 
L 542.079059 131.774819 
L 549.259683 137.636606 
L 556.440308 142.900593 
L 563.620932 148.812293 
L 570.801556 155.908192 
L 577.982181 163.053301 
L 585.162805 169.993391 
L 592.34343 177.647233 
L 599.524054 185.700938 
L 606.704679 193.291366 
L 613.885303 200.923571 
L 621.065927 208.668453 
L 628.246552 216.175237 
L 635.427176 223.628334 
L 642.607801 230.599988 
L 649.788425 236.588597 
L 656.96905 242.027437 
L 664.149674 247.975882 
L 671.330298 253.547706 
L 678.510923 258.16056 
L 685.691547 262.549953 
L 692.872172 266.817093 
L 700.052796 270.355034 
L 707.233421 273.51813 
L 714.414045 276.773786 
L 721.594669 279.444789 
L 728.775294 281.513978 
L 735.955918 283.769698 
L 743.136543 285.953901 
L 750.317167 287.506744 
L 757.497792 288.76525 
L 764.678416 290.406633 
L 771.85904 291.770508 
L 779.039665 292.623624 
L 786.220289 293.483946 
L 793.400914 294.638363 
L 800.581538 295.455687 
L 807.762163 295.887455 
L 814.942787 296.490208 
L 822.123411 297.32235 
L 829.304036 297.820356 
L 836.48466 297.985366 
L 843.665285 298.351797 
L 850.845909 298.815712 
" clip-path="url(#p653cff3d34)" style="fill: none; stroke: #fd9649; stroke-width: 1.5; stroke-linecap: square"/>
   </g>
   <g id="line2d_22">
    <path d="M 139.964091 615.310909 
L 147.144715 608.764889 
L 154.32534 606.401044 
L 161.505964 604.181799 
L 168.686589 602.079636 
L 175.867213 600.078692 
L 183.047837 598.165083 
L 190.228462 596.325608 
L 197.409086 594.54775 
L 204.589711 592.819673 
L 211.770335 591.130225 
L 218.95096 589.468936 
L 226.131584 587.826965 
L 233.312208 586.19784 
L 240.492833 584.574939 
L 247.673457 582.951935 
L 254.854082 581.322799 
L 262.034706 579.681805 
L 269.215331 578.023529 
L 276.395955 576.342847 
L 283.576579 574.634937 
L 290.757204 572.895277 
L 297.937828 571.121364 
L 305.118453 569.313804 
L 312.299077 567.466094 
L 319.479702 565.571763 
L 326.660326 563.625021 
L 333.84095 561.620757 
L 341.021575 559.55454 
L 348.202199 557.422617 
L 355.382824 555.221918 
L 362.563448 552.950051 
L 369.744073 550.605303 
L 376.924697 548.186642 
L 384.105321 545.693716 
L 391.285946 543.126852 
L 398.46657 540.487195 
L 405.647195 537.775923 
L 412.827819 534.984416 
L 420.008444 532.102756 
L 427.189068 529.122319 
L 434.369692 526.035773 
L 441.550317 522.837083 
L 448.730941 519.521506 
L 455.911566 516.085593 
L 463.09219 512.527191 
L 470.272815 508.845437 
L 477.453439 505.040766 
L 484.634063 501.114904 
L 491.814688 497.070874 
L 498.995312 492.91299 
L 506.175937 488.643279 
L 513.356561 484.249806 
L 520.537185 479.71889 
L 527.71781 475.038754 
L 534.898434 470.199506 
L 542.079059 465.193142 
L 549.259683 460.013541 
L 556.440308 454.656467 
L 563.620932 449.119572 
L 570.801556 443.402391 
L 577.982181 437.506345 
L 585.162805 431.434739 
L 592.34343 425.192766 
L 599.524054 418.787466 
L 606.704679 412.216626 
L 613.885303 405.463273 
L 621.065927 398.513926 
L 628.246552 391.358648 
L 635.427176 383.991051 
L 642.607801 376.40829 
L 649.788425 368.611069 
L 656.96905 360.603636 
L 664.149674 352.393786 
L 671.330298 343.99286 
L 678.510923 335.415745 
L 685.691547 326.680875 
L 692.872172 317.810227 
L 700.052796 308.827234 
L 707.233421 299.726435 
L 714.414045 290.632656 
L 721.594669 281.712103 
L 728.775294 273.122092 
L 735.955918 265.011054 
L 743.136543 257.51853 
L 750.317167 250.775174 
L 757.497792 244.902751 
L 764.678416 240.01414 
L 771.85904 236.237699 
L 779.039665 233.720591 
L 786.220289 232.492598 
L 793.400914 232.504586 
L 800.581538 233.631222 
L 807.762163 235.670964 
L 814.942787 238.346071 
L 822.123411 241.302597 
L 829.304036 244.110392 
L 836.48466 246.314655 
L 843.665285 248.352723 
L 850.845909 250.405406 
" clip-path="url(#p653cff3d34)" style="fill: none; stroke: #2575b7; stroke-width: 1.5; stroke-linecap: square"/>
   </g>
   <g id="line2d_23">
    <path d="M 139.964091 119.790519 
L 147.144715 121.600156 
L 154.32534 123.403188 
L 161.505964 125.19964 
L 168.686589 126.989536 
L 175.867213 128.7729 
L 183.047837 130.549755 
L 190.228462 132.320125 
L 197.409086 134.084035 
L 204.589711 135.841507 
L 211.770335 137.592565 
L 218.95096 139.337232 
L 226.131584 141.075532 
L 233.312208 142.807488 
L 240.492833 144.533124 
L 247.673457 146.252461 
L 254.854082 147.965524 
L 262.034706 149.672335 
L 269.215331 151.372916 
L 276.395955 153.067292 
L 283.576579 154.755484 
L 290.757204 156.437514 
L 297.937828 158.113406 
L 305.118453 159.783182 
L 312.299077 161.446864 
L 319.479702 163.104474 
L 326.660326 164.756035 
L 333.84095 166.401568 
L 341.021575 168.041095 
L 348.202199 169.67464 
L 355.382824 171.302222 
L 362.563448 172.923865 
L 369.744073 174.539589 
L 376.924697 176.149417 
L 384.105321 177.753369 
L 391.285946 179.351468 
L 398.46657 180.943734 
L 405.647195 182.530188 
L 412.827819 184.110851 
L 420.008444 185.685746 
L 427.189068 187.254893 
L 434.369692 188.818314 
L 441.550317 190.37603 
L 448.730941 191.928062 
L 455.911566 193.474429 
L 463.09219 195.015153 
L 470.272815 196.550252 
L 477.453439 198.079745 
L 484.634063 199.603652 
L 491.814688 201.121991 
L 498.995312 202.63478 
L 506.175937 204.141973 
L 513.356561 205.643541 
L 520.537185 207.139589 
L 527.71781 208.630195 
L 534.898434 210.11541 
L 542.079059 211.595258 
L 549.259683 213.069738 
L 556.440308 214.538819 
L 563.620932 216.002444 
L 570.801556 217.460528 
L 577.982181 218.91296 
L 585.162805 220.359601 
L 592.34343 221.800284 
L 599.524054 223.234763 
L 606.704679 224.656201 
L 613.885303 226.064698 
L 621.065927 227.465573 
L 628.246552 228.862254 
L 635.427176 230.256287 
L 642.607801 231.647331 
L 649.788425 233.033156 
L 656.96905 234.40965 
L 664.149674 235.770812 
L 671.330298 237.108754 
L 678.510923 238.413705 
L 685.691547 239.674005 
L 692.872172 240.876108 
L 700.052796 242.0048 
L 707.233421 243.046837 
L 714.414045 243.976479 
L 721.594669 244.764779 
L 728.775294 245.384662 
L 735.955918 245.810918 
L 743.136543 246.020207 
L 750.317167 245.991059 
L 757.497792 245.703868 
L 764.678416 245.140901 
L 771.85904 244.26474 
L 779.039665 243.129458 
L 786.220289 241.925776 
L 793.400914 240.800117 
L 800.581538 239.84914 
L 807.762163 239.119736 
L 814.942787 238.609034 
L 822.123411 238.264396 
L 829.304036 237.98342 
L 836.48466 237.62806 
L 843.665285 237.299577 
L 850.845909 237.064019 
" clip-path="url(#p653cff3d34)" style="fill: none; stroke: #dc4c03; stroke-width: 1.5; stroke-linecap: square"/>
   </g>
   <g id="line2d_24">
    <path d="M 139.964091 615.310909 
L 147.144715 600.535047 
L 154.32534 589.369989 
L 161.505964 580.749687 
L 168.686589 573.973567 
L 175.867213 568.596355 
L 183.047837 564.24016 
L 190.228462 560.673689 
L 197.409086 557.749552 
L 204.589711 555.307008 
L 211.770335 553.211515 
L 218.95096 551.425157 
L 226.131584 549.903738 
L 233.312208 548.578332 
L 240.492833 547.375115 
L 247.673457 546.29447 
L 254.854082 545.338241 
L 262.034706 544.488207 
L 269.215331 543.706608 
L 276.395955 542.952752 
L 283.576579 542.243826 
L 290.757204 541.594985 
L 297.937828 541.005442 
L 305.118453 540.458939 
L 312.299077 539.92375 
L 319.479702 539.372216 
L 326.660326 538.833523 
L 333.84095 538.333589 
L 341.021575 537.880003 
L 348.202199 537.462064 
L 355.382824 537.050782 
L 362.563448 536.599962 
L 369.744073 536.111545 
L 376.924697 535.637784 
L 384.105321 535.203364 
L 391.285946 534.806869 
L 398.46657 534.420781 
L 405.647195 533.991481 
L 412.827819 533.48724 
L 420.008444 532.97527 
L 427.189068 532.500384 
L 434.369692 532.069317 
L 441.550317 531.650729 
L 448.730941 531.175207 
L 455.911566 530.582585 
L 463.09219 529.962133 
L 470.272815 529.362752 
L 477.453439 528.780141 
L 484.634063 528.159176 
L 491.814688 527.405804 
L 498.995312 526.549326 
L 506.175937 525.668621 
L 513.356561 524.769986 
L 520.537185 523.787338 
L 527.71781 522.584717 
L 534.898434 521.131494 
L 542.079059 519.512922 
L 549.259683 517.674754 
L 556.440308 515.418204 
L 563.620932 512.486445 
L 570.801556 508.80745 
L 577.982181 504.069433 
L 585.162805 497.582925 
L 592.34343 488.469458 
L 599.524054 475.864921 
L 606.704679 459.06412 
L 613.885303 438.996326 
L 621.065927 418.195345 
L 628.246552 398.059916 
L 635.427176 378.720424 
L 642.607801 360.68819 
L 649.788425 344.726964 
L 656.96905 330.737771 
L 664.149674 318.342271 
L 671.330298 307.417465 
L 678.510923 297.915822 
L 685.691547 289.682496 
L 692.872172 282.519747 
L 700.052796 276.285773 
L 707.233421 270.879515 
L 714.414045 266.234116 
L 721.594669 262.236762 
L 728.775294 258.785896 
L 735.955918 255.8033 
L 743.136543 253.224846 
L 750.317167 251.000497 
L 757.497792 249.094268 
L 764.678416 247.46092 
L 771.85904 246.053099 
L 779.039665 244.840278 
L 786.220289 243.795523 
L 793.400914 242.895493 
L 800.581538 242.120445 
L 807.762163 241.454227 
L 814.942787 240.884283 
L 822.123411 240.400418 
L 829.304036 239.984201 
L 836.48466 239.624512 
L 843.665285 239.313862 
L 850.845909 239.046018 
" clip-path="url(#p653cff3d34)" style="fill: none; stroke: #08306b; stroke-width: 1.5; stroke-linecap: square"/>
   </g>
   <g id="line2d_25">
    <path d="M 139.964091 119.790519 
L 147.144715 108.496437 
L 154.32534 100.62637 
L 161.505964 95.140854 
L 168.686589 91.316428 
L 175.867213 88.698825 
L 183.047837 86.905163 
L 190.228462 85.7101 
L 197.409086 84.99535 
L 204.589711 84.610984 
L 211.770335 84.417861 
L 218.95096 84.412422 
L 226.131584 84.578297 
L 233.312208 84.842992 
L 240.492833 85.110076 
L 247.673457 85.40992 
L 254.854082 85.779977 
L 262.034706 86.210678 
L 269.215331 86.645919 
L 276.395955 87.016568 
L 283.576579 87.374663 
L 290.757204 87.771446 
L 297.937828 88.21949 
L 305.118453 88.693478 
L 312.299077 89.1302 
L 319.479702 89.471465 
L 326.660326 89.793886 
L 333.84095 90.17053 
L 341.021575 90.628424 
L 348.202199 91.148623 
L 355.382824 91.66621 
L 362.563448 92.072802 
L 369.744073 92.375343 
L 376.924697 92.712058 
L 384.105321 93.153882 
L 391.285946 93.704572 
L 398.46657 94.300707 
L 405.647195 94.811688 
L 412.827819 95.158197 
L 420.008444 95.522215 
L 427.189068 96.03485 
L 434.369692 96.726018 
L 441.550317 97.524461 
L 448.730941 98.257742 
L 455.911566 98.77683 
L 463.09219 99.336161 
L 470.272815 100.092868 
L 477.453439 101.063033 
L 484.634063 102.127738 
L 491.814688 103.064812 
L 498.995312 103.996129 
L 506.175937 105.204419 
L 513.356561 106.790315 
L 520.537185 108.671341 
L 527.71781 110.589933 
L 534.898434 112.639444 
L 542.079059 115.299571 
L 549.259683 118.786759 
L 556.440308 123.062907 
L 563.620932 128.175635 
L 570.801556 135.064215 
L 577.982181 144.616748 
L 585.162805 157.491733 
L 592.34343 174.3999 
L 599.524054 194.94417 
L 606.704679 216.216284 
L 613.885303 235.675125 
L 621.065927 251.382861 
L 628.246552 263.194948 
L 635.427176 271.655766 
L 642.607801 277.479236 
L 649.788425 281.686944 
L 656.96905 284.797278 
L 664.149674 286.946757 
L 671.330298 288.395731 
L 678.510923 289.449186 
L 685.691547 290.248378 
L 692.872172 290.795593 
L 700.052796 291.133314 
L 707.233421 291.341392 
L 714.414045 291.527999 
L 721.594669 291.697241 
L 728.775294 291.817028 
L 735.955918 291.880081 
L 743.136543 291.895558 
L 750.317167 291.889057 
L 757.497792 291.902562 
L 764.678416 291.95 
L 771.85904 291.998919 
L 779.039665 292.033043 
L 786.220289 292.043555 
L 793.400914 292.029102 
L 800.581538 291.99579 
L 807.762163 291.957187 
L 814.942787 291.934323 
L 822.123411 291.949399 
L 829.304036 291.968709 
L 836.48466 291.981813 
L 843.665285 291.990276 
L 850.845909 291.996257 
" clip-path="url(#p653cff3d34)" style="fill: none; stroke: #7f2704; stroke-width: 1.5; stroke-linecap: square"/>
   </g>
   <g id="patch_3">
    <path d="M 104.42 643.48 
L 104.42 23.76 
" style="fill: none; stroke: #000000; stroke-width: 0.8; stroke-linejoin: miter; stroke-linecap: square"/>
   </g>
   <g id="patch_4">
    <path d="M 886.39 643.48 
L 886.39 23.76 
" style="fill: none; stroke: #000000; stroke-width: 0.8; stroke-linejoin: miter; stroke-linecap: square"/>
   </g>
   <g id="patch_5">
    <path d="M 104.42 643.48 
L 886.39 643.48 
" style="fill: none; stroke: #000000; stroke-width: 0.8; stroke-linejoin: miter; stroke-linecap: square"/>
   </g>
   <g id="patch_6">
    <path d="M 104.42 23.76 
L 886.39 23.76 
" style="fill: none; stroke: #000000; stroke-width: 0.8; stroke-linejoin: miter; stroke-linecap: square"/>
   </g>
   <g id="legend_1">
    <g id="patch_7">
     <path d="M 901.79 364.27875 
L 1051.867813 364.27875 
Q 1056.267813 364.27875 1056.267813 359.87875 
L 1056.267813 39.16 
Q 1056.267813 34.76 1051.867813 34.76 
L 901.79 34.76 
Q 897.39 34.76 897.39 39.16 
L 897.39 359.87875 
Q 897.39 364.27875 901.79 364.27875 
z
" style="fill: #ffffff; opacity: 0.8; stroke: #cccccc; stroke-linejoin: miter"/>
    </g>
    <g id="PathCollection_3">
     <g>
      <use xlink:href="#m80f1702e56" x="928.19" y="54.501562" style="fill: #1f77b4; stroke: #1f77b4"/>
     </g>
    </g>
    <g id="text_20">
     <!-- Xi -->
     <g transform="translate(967.79 60.276562) scale(0.22 -0.22)">
      <use xlink:href="#DejaVuSans-58"/>
      <use xlink:href="#DejaVuSans-69" x="68.505859"/>
     </g>
    </g>
    <g id="PathCollection_4">
     <g>
      <use xlink:href="#m62fcbac0dc" x="928.19" y="86.793437" style="fill: #ff7f0e; stroke: #ff7f0e"/>
     </g>
    </g>
    <g id="text_21">
     <!-- Xa -->
     <g transform="translate(967.79 92.568437) scale(0.22 -0.22)">
      <use xlink:href="#DejaVuSans-58"/>
      <use xlink:href="#DejaVuSans-61" x="68.505859"/>
     </g>
    </g>
    <g id="line2d_26">
     <path d="M 906.19 117.160312 
L 928.19 117.160312 
L 950.19 117.160312 
" style="fill: none; stroke: #d0e1f2; stroke-width: 1.5; stroke-linecap: square"/>
    </g>
    <g id="text_22">
     <!-- Xi-AAII -->
     <g transform="translate(967.79 124.860312) scale(0.22 -0.22)">
      <defs>
       <path id="DejaVuSans-2d" d="M 313 2009 
L 1997 2009 
L 1997 1497 
L 313 1497 
L 313 2009 
z
" transform="scale(0.015625)"/>
       <path id="DejaVuSans-49" d="M 628 4666 
L 1259 4666 
L 1259 0 
L 628 0 
L 628 4666 
z
" transform="scale(0.015625)"/>
      </defs>
      <use xlink:href="#DejaVuSans-58"/>
      <use xlink:href="#DejaVuSans-69" x="68.505859"/>
      <use xlink:href="#DejaVuSans-2d" x="96.289062"/>
      <use xlink:href="#DejaVuSans-41" x="130.123047"/>
      <use xlink:href="#DejaVuSans-41" x="201.28125"/>
      <use xlink:href="#DejaVuSans-49" x="269.689453"/>
      <use xlink:href="#DejaVuSans-49" x="299.181641"/>
     </g>
    </g>
    <g id="line2d_27">
     <path d="M 906.19 149.452187 
L 928.19 149.452187 
L 950.19 149.452187 
" style="fill: none; stroke: #fdd9b4; stroke-width: 1.5; stroke-linecap: square"/>
    </g>
    <g id="text_23">
     <!-- Xa-AAII -->
     <g transform="translate(967.79 157.152187) scale(0.22 -0.22)">
      <use xlink:href="#DejaVuSans-58"/>
      <use xlink:href="#DejaVuSans-61" x="68.505859"/>
      <use xlink:href="#DejaVuSans-2d" x="129.785156"/>
      <use xlink:href="#DejaVuSans-41" x="163.619141"/>
      <use xlink:href="#DejaVuSans-41" x="234.777344"/>
      <use xlink:href="#DejaVuSans-49" x="303.185547"/>
      <use xlink:href="#DejaVuSans-49" x="332.677734"/>
     </g>
    </g>
    <g id="line2d_28">
     <path d="M 906.19 181.744062 
L 928.19 181.744062 
L 950.19 181.744062 
" style="fill: none; stroke: #79b5d9; stroke-width: 1.5; stroke-linecap: square"/>
    </g>
    <g id="text_24">
     <!-- Xi-AIII -->
     <g transform="translate(967.79 189.444062) scale(0.22 -0.22)">
      <use xlink:href="#DejaVuSans-58"/>
      <use xlink:href="#DejaVuSans-69" x="68.505859"/>
      <use xlink:href="#DejaVuSans-2d" x="96.289062"/>
      <use xlink:href="#DejaVuSans-41" x="130.123047"/>
      <use xlink:href="#DejaVuSans-49" x="198.53125"/>
      <use xlink:href="#DejaVuSans-49" x="228.023438"/>
      <use xlink:href="#DejaVuSans-49" x="257.515625"/>
     </g>
    </g>
    <g id="line2d_29">
     <path d="M 906.19 214.035937 
L 928.19 214.035937 
L 950.19 214.035937 
" style="fill: none; stroke: #fd9649; stroke-width: 1.5; stroke-linecap: square"/>
    </g>
    <g id="text_25">
     <!-- Xa-AIII -->
     <g transform="translate(967.79 221.735937) scale(0.22 -0.22)">
      <use xlink:href="#DejaVuSans-58"/>
      <use xlink:href="#DejaVuSans-61" x="68.505859"/>
      <use xlink:href="#DejaVuSans-2d" x="129.785156"/>
      <use xlink:href="#DejaVuSans-41" x="163.619141"/>
      <use xlink:href="#DejaVuSans-49" x="232.027344"/>
      <use xlink:href="#DejaVuSans-49" x="261.519531"/>
      <use xlink:href="#DejaVuSans-49" x="291.011719"/>
     </g>
    </g>
    <g id="line2d_30">
     <path d="M 906.19 246.327812 
L 928.19 246.327812 
L 950.19 246.327812 
" style="fill: none; stroke: #2575b7; stroke-width: 1.5; stroke-linecap: square"/>
    </g>
    <g id="text_26">
     <!-- Xi-IAII -->
     <g transform="translate(967.79 254.027812) scale(0.22 -0.22)">
      <use xlink:href="#DejaVuSans-58"/>
      <use xlink:href="#DejaVuSans-69" x="68.505859"/>
      <use xlink:href="#DejaVuSans-2d" x="96.289062"/>
      <use xlink:href="#DejaVuSans-49" x="132.373047"/>
      <use xlink:href="#DejaVuSans-41" x="161.865234"/>
      <use xlink:href="#DejaVuSans-49" x="230.273438"/>
      <use xlink:href="#DejaVuSans-49" x="259.765625"/>
     </g>
    </g>
    <g id="line2d_31">
     <path d="M 906.19 278.619687 
L 928.19 278.619687 
L 950.19 278.619687 
" style="fill: none; stroke: #dc4c03; stroke-width: 1.5; stroke-linecap: square"/>
    </g>
    <g id="text_27">
     <!-- Xa-IAII -->
     <g transform="translate(967.79 286.319687) scale(0.22 -0.22)">
      <use xlink:href="#DejaVuSans-58"/>
      <use xlink:href="#DejaVuSans-61" x="68.505859"/>
      <use xlink:href="#DejaVuSans-2d" x="129.785156"/>
      <use xlink:href="#DejaVuSans-49" x="165.869141"/>
      <use xlink:href="#DejaVuSans-41" x="195.361328"/>
      <use xlink:href="#DejaVuSans-49" x="263.769531"/>
      <use xlink:href="#DejaVuSans-49" x="293.261719"/>
     </g>
    </g>
    <g id="line2d_32">
     <path d="M 906.19 310.911563 
L 928.19 310.911563 
L 950.19 310.911563 
" style="fill: none; stroke: #08306b; stroke-width: 1.5; stroke-linecap: square"/>
    </g>
    <g id="text_28">
     <!-- Xi-IIII -->
     <g transform="translate(967.79 318.611562) scale(0.22 -0.22)">
      <use xlink:href="#DejaVuSans-58"/>
      <use xlink:href="#DejaVuSans-69" x="68.505859"/>
      <use xlink:href="#DejaVuSans-2d" x="96.289062"/>
      <use xlink:href="#DejaVuSans-49" x="132.373047"/>
      <use xlink:href="#DejaVuSans-49" x="161.865234"/>
      <use xlink:href="#DejaVuSans-49" x="191.357422"/>
      <use xlink:href="#DejaVuSans-49" x="220.849609"/>
     </g>
    </g>
    <g id="line2d_33">
     <path d="M 906.19 343.203438 
L 928.19 343.203438 
L 950.19 343.203438 
" style="fill: none; stroke: #7f2704; stroke-width: 1.5; stroke-linecap: square"/>
    </g>
    <g id="text_29">
     <!-- Xa-IIII -->
     <g transform="translate(967.79 350.903437) scale(0.22 -0.22)">
      <use xlink:href="#DejaVuSans-58"/>
      <use xlink:href="#DejaVuSans-61" x="68.505859"/>
      <use xlink:href="#DejaVuSans-2d" x="129.785156"/>
      <use xlink:href="#DejaVuSans-49" x="165.869141"/>
      <use xlink:href="#DejaVuSans-49" x="195.361328"/>
      <use xlink:href="#DejaVuSans-49" x="224.853516"/>
      <use xlink:href="#DejaVuSans-49" x="254.345703"/>
     </g>
    </g>
   </g>
  </g>
 </g>
 <defs>
  <clipPath id="p653cff3d34">
   <rect x="104.42" y="23.76" width="781.97" height="619.72"/>
  </clipPath>
 </defs>
</svg>
