<?xml version="1.0" encoding="utf-8" standalone="no"?>
<!DOCTYPE svg PUBLIC "-//W3C//DTD SVG 1.1//EN"
  "http://www.w3.org/Graphics/SVG/1.1/DTD/svg11.dtd">
<svg xmlns:xlink="http://www.w3.org/1999/xlink" width="1080pt" height="720pt" viewBox="0 0 1080 720" xmlns="http://www.w3.org/2000/svg" version="1.1">
 <metadata>
  <rdf:RDF xmlns:dc="http://purl.org/dc/elements/1.1/" xmlns:cc="http://creativecommons.org/ns#" xmlns:rdf="http://www.w3.org/1999/02/22-rdf-syntax-ns#">
   <cc:Work>
    <dc:type rdf:resource="http://purl.org/dc/dcmitype/StillImage"/>
    <dc:date>2023-02-17T15:04:34.304113</dc:date>
    <dc:format>image/svg+xml</dc:format>
    <dc:creator>
     <cc:Agent>
      <dc:title>Matplotlib v3.6.2, https://matplotlib.org/</dc:title>
     </cc:Agent>
    </dc:creator>
   </cc:Work>
  </rdf:RDF>
 </metadata>
 <defs>
  <style type="text/css">*{stroke-linejoin: round; stroke-linecap: butt}</style>
 </defs>
 <g id="figure_1">
  <g id="patch_1">
   <path d="M 0 720 
L 1080 720 
L 1080 0 
L 0 0 
z
" style="fill: #ffffff"/>
  </g>
  <g id="axes_1">
   <g id="patch_2">
    <path d="M 104.42 643.48 
L 886.39 643.48 
L 886.39 23.76 
L 104.42 23.76 
z
" style="fill: #ffffff"/>
   </g>
   <g id="PathCollection_1">
    <defs>
     <path id="m80f1702e56" d="M 0 3 
C 0.795609 3 1.55874 2.683901 2.12132 2.12132 
C 2.683901 1.55874 3 0.795609 3 0 
C 3 -0.795609 2.683901 -1.55874 2.12132 -2.12132 
C 1.55874 -2.683901 0.795609 -3 0 -3 
C -0.795609 -3 -1.55874 -2.683901 -2.12132 -2.12132 
C -2.683901 -1.55874 -3 -0.795609 -3 0 
C -3 0.795609 -2.683901 1.55874 -2.12132 2.12132 
C -1.55874 2.683901 -0.795609 3 0 3 
z
" style="stroke: #1f77b4"/>
    </defs>
    <g clip-path="url(#p653cff3d34)">
     <use xlink:href="#m80f1702e56" x="139.964091" y="615.310909" style="fill: #1f77b4; stroke: #1f77b4"/>
     <use xlink:href="#m80f1702e56" x="228.824318" y="521.608891" style="fill: #1f77b4; stroke: #1f77b4"/>
     <use xlink:href="#m80f1702e56" x="317.684545" y="521.608891" style="fill: #1f77b4; stroke: #1f77b4"/>
     <use xlink:href="#m80f1702e56" x="406.544773" y="521.608891" style="fill: #1f77b4; stroke: #1f77b4"/>
     <use xlink:href="#m80f1702e56" x="495.405" y="521.608891" style="fill: #1f77b4; stroke: #1f77b4"/>
     <use xlink:href="#m80f1702e56" x="584.265227" y="521.608891" style="fill: #1f77b4; stroke: #1f77b4"/>
     <use xlink:href="#m80f1702e56" x="673.125455" y="521.608891" style="fill: #1f77b4; stroke: #1f77b4"/>
     <use xlink:href="#m80f1702e56" x="761.985682" y="521.608891" style="fill: #1f77b4; stroke: #1f77b4"/>
     <use xlink:href="#m80f1702e56" x="850.845909" y="521.608891" style="fill: #1f77b4; stroke: #1f77b4"/>
    </g>
   </g>
   <g id="PathCollection_2">
    <defs>
     <path id="m62fcbac0dc" d="M 0 3 
C 0.795609 3 1.55874 2.683901 2.12132 2.12132 
C 2.683901 1.55874 3 0.795609 3 0 
C 3 -0.795609 2.683901 -1.55874 2.12132 -2.12132 
C 1.55874 -2.683901 0.795609 -3 0 -3 
C -0.795609 -3 -1.55874 -2.683901 -2.12132 -2.12132 
C -2.683901 -1.55874 -3 -0.795609 -3 0 
C -3 0.795609 -2.683901 1.55874 -2.12132 2.12132 
C -1.55874 2.683901 -0.795609 3 0 3 
z
" style="stroke: #ff7f0e"/>
    </defs>
    <g clip-path="url(#p653cff3d34)">
     <use xlink:href="#m62fcbac0dc" x="139.964091" y="119.790519" style="fill: #ff7f0e; stroke: #ff7f0e"/>
     <use xlink:href="#m62fcbac0dc" x="228.824318" y="51.929091" style="fill: #ff7f0e; stroke: #ff7f0e"/>
     <use xlink:href="#m62fcbac0dc" x="317.684545" y="51.929091" style="fill: #ff7f0e; stroke: #ff7f0e"/>
     <use xlink:href="#m62fcbac0dc" x="406.544773" y="51.929091" style="fill: #ff7f0e; stroke: #ff7f0e"/>
     <use xlink:href="#m62fcbac0dc" x="495.405" y="51.929091" style="fill: #ff7f0e; stroke: #ff7f0e"/>
     <use xlink:href="#m62fcbac0dc" x="584.265227" y="51.929091" style="fill: #ff7f0e; stroke: #ff7f0e"/>
     <use xlink:href="#m62fcbac0dc" x="673.125455" y="51.929091" style="fill: #ff7f0e; stroke: #ff7f0e"/>
     <use xlink:href="#m62fcbac0dc" x="761.985682" y="51.929091" style="fill: #ff7f0e; stroke: #ff7f0e"/>
     <use xlink:href="#m62fcbac0dc" x="850.845909" y="51.929091" style="fill: #ff7f0e; stroke: #ff7f0e"/>
    </g>
   </g>
   <g id="matplotlib.axis_1">
    <g id="xtick_1">
     <g id="line2d_1">
      <defs>
       <path id="m3385fdae1e" d="M 0 0 
L 0 3.5 
" style="stroke: #000000; stroke-width: 0.8"/>
      </defs>
      <g>
       <use xlink:href="#m3385fdae1e" x="139.964091" y="643.48" style="stroke: #000000; stroke-width: 0.8"/>
      </g>
     </g>
     <g id="text_1">
      <!-- 7 -->
      <g transform="translate(132.965341 667.196563) scale(0.22 -0.22)">
       <defs>
        <path id="DejaVuSans-37" d="M 525 4666 
L 3525 4666 
L 3525 4397 
L 1831 0 
L 1172 0 
L 2766 4134 
L 525 4134 
L 525 4666 
z
" transform="scale(0.015625)"/>
       </defs>
       <use xlink:href="#DejaVuSans-37"/>
      </g>
     </g>
    </g>
    <g id="xtick_2">
     <g id="line2d_2">
      <g>
       <use xlink:href="#m3385fdae1e" x="228.824318" y="643.48" style="stroke: #000000; stroke-width: 0.8"/>
      </g>
     </g>
     <g id="text_2">
      <!-- 8 -->
      <g transform="translate(221.825568 667.196563) scale(0.22 -0.22)">
       <defs>
        <path id="DejaVuSans-38" d="M 2034 2216 
Q 1584 2216 1326 1975 
Q 1069 1734 1069 1313 
Q 1069 891 1326 650 
Q 1584 409 2034 409 
Q 2484 409 2743 651 
Q 3003 894 3003 1313 
Q 3003 1734 2745 1975 
Q 2488 2216 2034 2216 
z
M 1403 2484 
Q 997 2584 770 2862 
Q 544 3141 544 3541 
Q 544 4100 942 4425 
Q 1341 4750 2034 4750 
Q 2731 4750 3128 4425 
Q 3525 4100 3525 3541 
Q 3525 3141 3298 2862 
Q 3072 2584 2669 2484 
Q 3125 2378 3379 2068 
Q 3634 1759 3634 1313 
Q 3634 634 3220 271 
Q 2806 -91 2034 -91 
Q 1263 -91 848 271 
Q 434 634 434 1313 
Q 434 1759 690 2068 
Q 947 2378 1403 2484 
z
M 1172 3481 
Q 1172 3119 1398 2916 
Q 1625 2713 2034 2713 
Q 2441 2713 2670 2916 
Q 2900 3119 2900 3481 
Q 2900 3844 2670 4047 
Q 2441 4250 2034 4250 
Q 1625 4250 1398 4047 
Q 1172 3844 1172 3481 
z
" transform="scale(0.015625)"/>
       </defs>
       <use xlink:href="#DejaVuSans-38"/>
      </g>
     </g>
    </g>
    <g id="xtick_3">
     <g id="line2d_3">
      <g>
       <use xlink:href="#m3385fdae1e" x="317.684545" y="643.48" style="stroke: #000000; stroke-width: 0.8"/>
      </g>
     </g>
     <g id="text_3">
      <!-- 9 -->
      <g transform="translate(310.685795 667.196563) scale(0.22 -0.22)">
       <defs>
        <path id="DejaVuSans-39" d="M 703 97 
L 703 672 
Q 941 559 1184 500 
Q 1428 441 1663 441 
Q 2288 441 2617 861 
Q 2947 1281 2994 2138 
Q 2813 1869 2534 1725 
Q 2256 1581 1919 1581 
Q 1219 1581 811 2004 
Q 403 2428 403 3163 
Q 403 3881 828 4315 
Q 1253 4750 1959 4750 
Q 2769 4750 3195 4129 
Q 3622 3509 3622 2328 
Q 3622 1225 3098 567 
Q 2575 -91 1691 -91 
Q 1453 -91 1209 -44 
Q 966 3 703 97 
z
M 1959 2075 
Q 2384 2075 2632 2365 
Q 2881 2656 2881 3163 
Q 2881 3666 2632 3958 
Q 2384 4250 1959 4250 
Q 1534 4250 1286 3958 
Q 1038 3666 1038 3163 
Q 1038 2656 1286 2365 
Q 1534 2075 1959 2075 
z
" transform="scale(0.015625)"/>
       </defs>
       <use xlink:href="#DejaVuSans-39"/>
      </g>
     </g>
    </g>
    <g id="xtick_4">
     <g id="line2d_4">
      <g>
       <use xlink:href="#m3385fdae1e" x="406.544773" y="643.48" style="stroke: #000000; stroke-width: 0.8"/>
      </g>
     </g>
     <g id="text_4">
      <!-- 10 -->
      <g transform="translate(392.547273 667.196563) scale(0.22 -0.22)">
       <defs>
        <path id="DejaVuSans-31" d="M 794 531 
L 1825 531 
L 1825 4091 
L 703 3866 
L 703 4441 
L 1819 4666 
L 2450 4666 
L 2450 531 
L 3481 531 
L 3481 0 
L 794 0 
L 794 531 
z
" transform="scale(0.015625)"/>
        <path id="DejaVuSans-30" d="M 2034 4250 
Q 1547 4250 1301 3770 
Q 1056 3291 1056 2328 
Q 1056 1369 1301 889 
Q 1547 409 2034 409 
Q 2525 409 2770 889 
Q 3016 1369 3016 2328 
Q 3016 3291 2770 3770 
Q 2525 4250 2034 4250 
z
M 2034 4750 
Q 2819 4750 3233 4129 
Q 3647 3509 3647 2328 
Q 3647 1150 3233 529 
Q 2819 -91 2034 -91 
Q 1250 -91 836 529 
Q 422 1150 422 2328 
Q 422 3509 836 4129 
Q 1250 4750 2034 4750 
z
" transform="scale(0.015625)"/>
       </defs>
       <use xlink:href="#DejaVuSans-31"/>
       <use xlink:href="#DejaVuSans-30" x="63.623047"/>
      </g>
     </g>
    </g>
    <g id="xtick_5">
     <g id="line2d_5">
      <g>
       <use xlink:href="#m3385fdae1e" x="495.405" y="643.48" style="stroke: #000000; stroke-width: 0.8"/>
      </g>
     </g>
     <g id="text_5">
      <!-- 11 -->
      <g transform="translate(481.4075 667.196563) scale(0.22 -0.22)">
       <use xlink:href="#DejaVuSans-31"/>
       <use xlink:href="#DejaVuSans-31" x="63.623047"/>
      </g>
     </g>
    </g>
    <g id="xtick_6">
     <g id="line2d_6">
      <g>
       <use xlink:href="#m3385fdae1e" x="584.265227" y="643.48" style="stroke: #000000; stroke-width: 0.8"/>
      </g>
     </g>
     <g id="text_6">
      <!-- 12 -->
      <g transform="translate(570.267727 667.196563) scale(0.22 -0.22)">
       <defs>
        <path id="DejaVuSans-32" d="M 1228 531 
L 3431 531 
L 3431 0 
L 469 0 
L 469 531 
Q 828 903 1448 1529 
Q 2069 2156 2228 2338 
Q 2531 2678 2651 2914 
Q 2772 3150 2772 3378 
Q 2772 3750 2511 3984 
Q 2250 4219 1831 4219 
Q 1534 4219 1204 4116 
Q 875 4013 500 3803 
L 500 4441 
Q 881 4594 1212 4672 
Q 1544 4750 1819 4750 
Q 2544 4750 2975 4387 
Q 3406 4025 3406 3419 
Q 3406 3131 3298 2873 
Q 3191 2616 2906 2266 
Q 2828 2175 2409 1742 
Q 1991 1309 1228 531 
z
" transform="scale(0.015625)"/>
       </defs>
       <use xlink:href="#DejaVuSans-31"/>
       <use xlink:href="#DejaVuSans-32" x="63.623047"/>
      </g>
     </g>
    </g>
    <g id="xtick_7">
     <g id="line2d_7">
      <g>
       <use xlink:href="#m3385fdae1e" x="673.125455" y="643.48" style="stroke: #000000; stroke-width: 0.8"/>
      </g>
     </g>
     <g id="text_7">
      <!-- 13 -->
      <g transform="translate(659.127955 667.196563) scale(0.22 -0.22)">
       <defs>
        <path id="DejaVuSans-33" d="M 2597 2516 
Q 3050 2419 3304 2112 
Q 3559 1806 3559 1356 
Q 3559 666 3084 287 
Q 2609 -91 1734 -91 
Q 1441 -91 1130 -33 
Q 819 25 488 141 
L 488 750 
Q 750 597 1062 519 
Q 1375 441 1716 441 
Q 2309 441 2620 675 
Q 2931 909 2931 1356 
Q 2931 1769 2642 2001 
Q 2353 2234 1838 2234 
L 1294 2234 
L 1294 2753 
L 1863 2753 
Q 2328 2753 2575 2939 
Q 2822 3125 2822 3475 
Q 2822 3834 2567 4026 
Q 2313 4219 1838 4219 
Q 1578 4219 1281 4162 
Q 984 4106 628 3988 
L 628 4550 
Q 988 4650 1302 4700 
Q 1616 4750 1894 4750 
Q 2613 4750 3031 4423 
Q 3450 4097 3450 3541 
Q 3450 3153 3228 2886 
Q 3006 2619 2597 2516 
z
" transform="scale(0.015625)"/>
       </defs>
       <use xlink:href="#DejaVuSans-31"/>
       <use xlink:href="#DejaVuSans-33" x="63.623047"/>
      </g>
     </g>
    </g>
    <g id="xtick_8">
     <g id="line2d_8">
      <g>
       <use xlink:href="#m3385fdae1e" x="761.985682" y="643.48" style="stroke: #000000; stroke-width: 0.8"/>
      </g>
     </g>
     <g id="text_8">
      <!-- 14 -->
      <g transform="translate(747.988182 667.196563) scale(0.22 -0.22)">
       <defs>
        <path id="DejaVuSans-34" d="M 2419 4116 
L 825 1625 
L 2419 1625 
L 2419 4116 
z
M 2253 4666 
L 3047 4666 
L 3047 1625 
L 3713 1625 
L 3713 1100 
L 3047 1100 
L 3047 0 
L 2419 0 
L 2419 1100 
L 313 1100 
L 313 1709 
L 2253 4666 
z
" transform="scale(0.015625)"/>
       </defs>
       <use xlink:href="#DejaVuSans-31"/>
       <use xlink:href="#DejaVuSans-34" x="63.623047"/>
      </g>
     </g>
    </g>
    <g id="xtick_9">
     <g id="line2d_9">
      <g>
       <use xlink:href="#m3385fdae1e" x="850.845909" y="643.48" style="stroke: #000000; stroke-width: 0.8"/>
      </g>
     </g>
     <g id="text_9">
      <!-- 15 -->
      <g transform="translate(836.848409 667.196563) scale(0.22 -0.22)">
       <defs>
        <path id="DejaVuSans-35" d="M 691 4666 
L 3169 4666 
L 3169 4134 
L 1269 4134 
L 1269 2991 
Q 1406 3038 1543 3061 
Q 1681 3084 1819 3084 
Q 2600 3084 3056 2656 
Q 3513 2228 3513 1497 
Q 3513 744 3044 326 
Q 2575 -91 1722 -91 
Q 1428 -91 1123 -41 
Q 819 9 494 109 
L 494 744 
Q 775 591 1075 516 
Q 1375 441 1709 441 
Q 2250 441 2565 725 
Q 2881 1009 2881 1497 
Q 2881 1984 2565 2268 
Q 2250 2553 1709 2553 
Q 1456 2553 1204 2497 
Q 953 2441 691 2322 
L 691 4666 
z
" transform="scale(0.015625)"/>
       </defs>
       <use xlink:href="#DejaVuSans-31"/>
       <use xlink:href="#DejaVuSans-35" x="63.623047"/>
      </g>
     </g>
    </g>
    <g id="text_10">
     <!-- Time (days) -->
     <g transform="translate(430.446563 692.488438) scale(0.22 -0.22)">
      <defs>
       <path id="DejaVuSans-54" d="M -19 4666 
L 3928 4666 
L 3928 4134 
L 2272 4134 
L 2272 0 
L 1638 0 
L 1638 4134 
L -19 4134 
L -19 4666 
z
" transform="scale(0.015625)"/>
       <path id="DejaVuSans-69" d="M 603 3500 
L 1178 3500 
L 1178 0 
L 603 0 
L 603 3500 
z
M 603 4863 
L 1178 4863 
L 1178 4134 
L 603 4134 
L 603 4863 
z
" transform="scale(0.015625)"/>
       <path id="DejaVuSans-6d" d="M 3328 2828 
Q 3544 3216 3844 3400 
Q 4144 3584 4550 3584 
Q 5097 3584 5394 3201 
Q 5691 2819 5691 2113 
L 5691 0 
L 5113 0 
L 5113 2094 
Q 5113 2597 4934 2840 
Q 4756 3084 4391 3084 
Q 3944 3084 3684 2787 
Q 3425 2491 3425 1978 
L 3425 0 
L 2847 0 
L 2847 2094 
Q 2847 2600 2669 2842 
Q 2491 3084 2119 3084 
Q 1678 3084 1418 2786 
Q 1159 2488 1159 1978 
L 1159 0 
L 581 0 
L 581 3500 
L 1159 3500 
L 1159 2956 
Q 1356 3278 1631 3431 
Q 1906 3584 2284 3584 
Q 2666 3584 2933 3390 
Q 3200 3197 3328 2828 
z
" transform="scale(0.015625)"/>
       <path id="DejaVuSans-65" d="M 3597 1894 
L 3597 1613 
L 953 1613 
Q 991 1019 1311 708 
Q 1631 397 2203 397 
Q 2534 397 2845 478 
Q 3156 559 3463 722 
L 3463 178 
Q 3153 47 2828 -22 
Q 2503 -91 2169 -91 
Q 1331 -91 842 396 
Q 353 884 353 1716 
Q 353 2575 817 3079 
Q 1281 3584 2069 3584 
Q 2775 3584 3186 3129 
Q 3597 2675 3597 1894 
z
M 3022 2063 
Q 3016 2534 2758 2815 
Q 2500 3097 2075 3097 
Q 1594 3097 1305 2825 
Q 1016 2553 972 2059 
L 3022 2063 
z
" transform="scale(0.015625)"/>
       <path id="DejaVuSans-20" transform="scale(0.015625)"/>
       <path id="DejaVuSans-28" d="M 1984 4856 
Q 1566 4138 1362 3434 
Q 1159 2731 1159 2009 
Q 1159 1288 1364 580 
Q 1569 -128 1984 -844 
L 1484 -844 
Q 1016 -109 783 600 
Q 550 1309 550 2009 
Q 550 2706 781 3412 
Q 1013 4119 1484 4856 
L 1984 4856 
z
" transform="scale(0.015625)"/>
       <path id="DejaVuSans-64" d="M 2906 2969 
L 2906 4863 
L 3481 4863 
L 3481 0 
L 2906 0 
L 2906 525 
Q 2725 213 2448 61 
Q 2172 -91 1784 -91 
Q 1150 -91 751 415 
Q 353 922 353 1747 
Q 353 2572 751 3078 
Q 1150 3584 1784 3584 
Q 2172 3584 2448 3432 
Q 2725 3281 2906 2969 
z
M 947 1747 
Q 947 1113 1208 752 
Q 1469 391 1925 391 
Q 2381 391 2643 752 
Q 2906 1113 2906 1747 
Q 2906 2381 2643 2742 
Q 2381 3103 1925 3103 
Q 1469 3103 1208 2742 
Q 947 2381 947 1747 
z
" transform="scale(0.015625)"/>
       <path id="DejaVuSans-61" d="M 2194 1759 
Q 1497 1759 1228 1600 
Q 959 1441 959 1056 
Q 959 750 1161 570 
Q 1363 391 1709 391 
Q 2188 391 2477 730 
Q 2766 1069 2766 1631 
L 2766 1759 
L 2194 1759 
z
M 3341 1997 
L 3341 0 
L 2766 0 
L 2766 531 
Q 2569 213 2275 61 
Q 1981 -91 1556 -91 
Q 1019 -91 701 211 
Q 384 513 384 1019 
Q 384 1609 779 1909 
Q 1175 2209 1959 2209 
L 2766 2209 
L 2766 2266 
Q 2766 2663 2505 2880 
Q 2244 3097 1772 3097 
Q 1472 3097 1187 3025 
Q 903 2953 641 2809 
L 641 3341 
Q 956 3463 1253 3523 
Q 1550 3584 1831 3584 
Q 2591 3584 2966 3190 
Q 3341 2797 3341 1997 
z
" transform="scale(0.015625)"/>
       <path id="DejaVuSans-79" d="M 2059 -325 
Q 1816 -950 1584 -1140 
Q 1353 -1331 966 -1331 
L 506 -1331 
L 506 -850 
L 844 -850 
Q 1081 -850 1212 -737 
Q 1344 -625 1503 -206 
L 1606 56 
L 191 3500 
L 800 3500 
L 1894 763 
L 2988 3500 
L 3597 3500 
L 2059 -325 
z
" transform="scale(0.015625)"/>
       <path id="DejaVuSans-73" d="M 2834 3397 
L 2834 2853 
Q 2591 2978 2328 3040 
Q 2066 3103 1784 3103 
Q 1356 3103 1142 2972 
Q 928 2841 928 2578 
Q 928 2378 1081 2264 
Q 1234 2150 1697 2047 
L 1894 2003 
Q 2506 1872 2764 1633 
Q 3022 1394 3022 966 
Q 3022 478 2636 193 
Q 2250 -91 1575 -91 
Q 1294 -91 989 -36 
Q 684 19 347 128 
L 347 722 
Q 666 556 975 473 
Q 1284 391 1588 391 
Q 1994 391 2212 530 
Q 2431 669 2431 922 
Q 2431 1156 2273 1281 
Q 2116 1406 1581 1522 
L 1381 1569 
Q 847 1681 609 1914 
Q 372 2147 372 2553 
Q 372 3047 722 3315 
Q 1072 3584 1716 3584 
Q 2034 3584 2315 3537 
Q 2597 3491 2834 3397 
z
" transform="scale(0.015625)"/>
       <path id="DejaVuSans-29" d="M 513 4856 
L 1013 4856 
Q 1481 4119 1714 3412 
Q 1947 2706 1947 2009 
Q 1947 1309 1714 600 
Q 1481 -109 1013 -844 
L 513 -844 
Q 928 -128 1133 580 
Q 1338 1288 1338 2009 
Q 1338 2731 1133 3434 
Q 928 4138 513 4856 
z
" transform="scale(0.015625)"/>
      </defs>
      <use xlink:href="#DejaVuSans-54"/>
      <use xlink:href="#DejaVuSans-69" x="57.958984"/>
      <use xlink:href="#DejaVuSans-6d" x="85.742188"/>
      <use xlink:href="#DejaVuSans-65" x="183.154297"/>
      <use xlink:href="#DejaVuSans-20" x="244.677734"/>
      <use xlink:href="#DejaVuSans-28" x="276.464844"/>
      <use xlink:href="#DejaVuSans-64" x="315.478516"/>
      <use xlink:href="#DejaVuSans-61" x="378.955078"/>
      <use xlink:href="#DejaVuSans-79" x="440.234375"/>
      <use xlink:href="#DejaVuSans-73" x="499.414062"/>
      <use xlink:href="#DejaVuSans-29" x="551.513672"/>
     </g>
    </g>
   </g>
   <g id="matplotlib.axis_2">
    <g id="ytick_1">
     <g id="line2d_10">
      <defs>
       <path id="ma600d9e374" d="M 0 0 
L -3.5 0 
" style="stroke: #000000; stroke-width: 0.8"/>
      </defs>
      <g>
       <use xlink:href="#ma600d9e374" x="104.42" y="615.643714" style="stroke: #000000; stroke-width: 0.8"/>
      </g>
     </g>
     <g id="text_11">
      <!-- 0.00 -->
      <g transform="translate(48.435625 624.001995) scale(0.22 -0.22)">
       <defs>
        <path id="DejaVuSans-2e" d="M 684 794 
L 1344 794 
L 1344 0 
L 684 0 
L 684 794 
z
" transform="scale(0.015625)"/>
       </defs>
       <use xlink:href="#DejaVuSans-30"/>
       <use xlink:href="#DejaVuSans-2e" x="63.623047"/>
       <use xlink:href="#DejaVuSans-30" x="95.410156"/>
       <use xlink:href="#DejaVuSans-30" x="159.033203"/>
      </g>
     </g>
    </g>
    <g id="ytick_2">
     <g id="line2d_11">
      <g>
       <use xlink:href="#ma600d9e374" x="104.42" y="538.29454" style="stroke: #000000; stroke-width: 0.8"/>
      </g>
     </g>
     <g id="text_12">
      <!-- 0.25 -->
      <g transform="translate(48.435625 546.652821) scale(0.22 -0.22)">
       <use xlink:href="#DejaVuSans-30"/>
       <use xlink:href="#DejaVuSans-2e" x="63.623047"/>
       <use xlink:href="#DejaVuSans-32" x="95.410156"/>
       <use xlink:href="#DejaVuSans-35" x="159.033203"/>
      </g>
     </g>
    </g>
    <g id="ytick_3">
     <g id="line2d_12">
      <g>
       <use xlink:href="#ma600d9e374" x="104.42" y="460.945366" style="stroke: #000000; stroke-width: 0.8"/>
      </g>
     </g>
     <g id="text_13">
      <!-- 0.50 -->
      <g transform="translate(48.435625 469.303647) scale(0.22 -0.22)">
       <use xlink:href="#DejaVuSans-30"/>
       <use xlink:href="#DejaVuSans-2e" x="63.623047"/>
       <use xlink:href="#DejaVuSans-35" x="95.410156"/>
       <use xlink:href="#DejaVuSans-30" x="159.033203"/>
      </g>
     </g>
    </g>
    <g id="ytick_4">
     <g id="line2d_13">
      <g>
       <use xlink:href="#ma600d9e374" x="104.42" y="383.596192" style="stroke: #000000; stroke-width: 0.8"/>
      </g>
     </g>
     <g id="text_14">
      <!-- 0.75 -->
      <g transform="translate(48.435625 391.954473) scale(0.22 -0.22)">
       <use xlink:href="#DejaVuSans-30"/>
       <use xlink:href="#DejaVuSans-2e" x="63.623047"/>
       <use xlink:href="#DejaVuSans-37" x="95.410156"/>
       <use xlink:href="#DejaVuSans-35" x="159.033203"/>
      </g>
     </g>
    </g>
    <g id="ytick_5">
     <g id="line2d_14">
      <g>
       <use xlink:href="#ma600d9e374" x="104.42" y="306.247017" style="stroke: #000000; stroke-width: 0.8"/>
      </g>
     </g>
     <g id="text_15">
      <!-- 1.00 -->
      <g transform="translate(48.435625 314.605299) scale(0.22 -0.22)">
       <use xlink:href="#DejaVuSans-31"/>
       <use xlink:href="#DejaVuSans-2e" x="63.623047"/>
       <use xlink:href="#DejaVuSans-30" x="95.410156"/>
       <use xlink:href="#DejaVuSans-30" x="159.033203"/>
      </g>
     </g>
    </g>
    <g id="ytick_6">
     <g id="line2d_15">
      <g>
       <use xlink:href="#ma600d9e374" x="104.42" y="228.897843" style="stroke: #000000; stroke-width: 0.8"/>
      </g>
     </g>
     <g id="text_16">
      <!-- 1.25 -->
      <g transform="translate(48.435625 237.256124) scale(0.22 -0.22)">
       <use xlink:href="#DejaVuSans-31"/>
       <use xlink:href="#DejaVuSans-2e" x="63.623047"/>
       <use xlink:href="#DejaVuSans-32" x="95.410156"/>
       <use xlink:href="#DejaVuSans-35" x="159.033203"/>
      </g>
     </g>
    </g>
    <g id="ytick_7">
     <g id="line2d_16">
      <g>
       <use xlink:href="#ma600d9e374" x="104.42" y="151.548669" style="stroke: #000000; stroke-width: 0.8"/>
      </g>
     </g>
     <g id="text_17">
      <!-- 1.50 -->
      <g transform="translate(48.435625 159.90695) scale(0.22 -0.22)">
       <use xlink:href="#DejaVuSans-31"/>
       <use xlink:href="#DejaVuSans-2e" x="63.623047"/>
       <use xlink:href="#DejaVuSans-35" x="95.410156"/>
       <use xlink:href="#DejaVuSans-30" x="159.033203"/>
      </g>
     </g>
    </g>
    <g id="ytick_8">
     <g id="line2d_17">
      <g>
       <use xlink:href="#ma600d9e374" x="104.42" y="74.199495" style="stroke: #000000; stroke-width: 0.8"/>
      </g>
     </g>
     <g id="text_18">
      <!-- 1.75 -->
      <g transform="translate(48.435625 82.557776) scale(0.22 -0.22)">
       <use xlink:href="#DejaVuSans-31"/>
       <use xlink:href="#DejaVuSans-2e" x="63.623047"/>
       <use xlink:href="#DejaVuSans-37" x="95.410156"/>
       <use xlink:href="#DejaVuSans-35" x="159.033203"/>
      </g>
     </g>
    </g>
    <g id="text_19">
     <!-- X:A -->
     <g transform="translate(39.860313 352.385312) rotate(-90) scale(0.22 -0.22)">
      <defs>
       <path id="DejaVuSans-58" d="M 403 4666 
L 1081 4666 
L 2241 2931 
L 3406 4666 
L 4084 4666 
L 2584 2425 
L 4184 0 
L 3506 0 
L 2194 1984 
L 872 0 
L 191 0 
L 1856 2491 
L 403 4666 
z
" transform="scale(0.015625)"/>
       <path id="DejaVuSans-3a" d="M 750 794 
L 1409 794 
L 1409 0 
L 750 0 
L 750 794 
z
M 750 3309 
L 1409 3309 
L 1409 2516 
L 750 2516 
L 750 3309 
z
" transform="scale(0.015625)"/>
       <path id="DejaVuSans-41" d="M 2188 4044 
L 1331 1722 
L 3047 1722 
L 2188 4044 
z
M 1831 4666 
L 2547 4666 
L 4325 0 
L 3669 0 
L 3244 1197 
L 1141 1197 
L 716 0 
L 50 0 
L 1831 4666 
z
" transform="scale(0.015625)"/>
      </defs>
      <use xlink:href="#DejaVuSans-58"/>
      <use xlink:href="#DejaVuSans-3a" x="68.505859"/>
      <use xlink:href="#DejaVuSans-41" x="102.197266"/>
     </g>
    </g>
   </g>
   <g id="line2d_18">
    <path d="M 139.964091 615.310909 
L 147.144715 567.073776 
L 154.32534 544.012638 
L 161.505964 532.96924 
L 168.686589 527.69628 
L 175.867213 525.193273 
L 183.047837 523.965586 
L 190.228462 523.410483 
L 197.409086 523.119755 
L 204.589711 522.987296 
L 211.770335 522.941652 
L 218.95096 522.89086 
L 226.131584 522.876507 
L 233.312208 522.889383 
L 240.492833 522.874696 
L 247.673457 522.850153 
L 254.854082 522.852422 
L 262.034706 522.881165 
L 269.215331 522.899899 
L 276.395955 522.855685 
L 283.576579 522.806713 
L 290.757204 522.81941 
L 297.937828 522.892417 
L 305.118453 522.956244 
L 312.299077 522.903632 
L 319.479702 522.831972 
L 326.660326 522.843513 
L 333.84095 522.920056 
L 341.021575 522.930156 
L 348.202199 522.855253 
L 355.382824 522.832263 
L 362.563448 522.886023 
L 369.744073 522.938026 
L 376.924697 522.875267 
L 384.105321 522.815294 
L 391.285946 522.840935 
L 398.46657 522.926425 
L 405.647195 522.940278 
L 412.827819 522.837349 
L 420.008444 522.791642 
L 427.189068 522.863373 
L 434.369692 522.974619 
L 441.550317 522.933356 
L 448.730941 522.818774 
L 455.911566 522.811972 
L 463.09219 522.920161 
L 470.272815 522.984933 
L 477.453439 522.882215 
L 484.634063 522.825835 
L 491.814688 522.878614 
L 498.995312 522.956238 
L 506.175937 522.899875 
L 513.356561 522.838864 
L 520.537185 522.858517 
L 527.71781 522.925612 
L 534.898434 522.909733 
L 542.079059 522.839789 
L 549.259683 522.831218 
L 556.440308 522.894989 
L 563.620932 522.943662 
L 570.801556 522.868223 
L 577.982181 522.800975 
L 585.162805 522.833904 
L 592.34343 522.937436 
L 599.524054 522.961766 
L 606.704679 522.843705 
L 613.885303 522.787195 
L 621.065927 522.864766 
L 628.246552 522.987534 
L 635.427176 522.940226 
L 642.607801 522.831071 
L 649.788425 522.832229 
L 656.96905 522.93301 
L 664.149674 522.959236 
L 671.330298 522.86887 
L 678.510923 522.839539 
L 685.691547 522.896661 
L 692.872172 522.941192 
L 700.052796 522.875201 
L 707.233421 522.834399 
L 714.414045 522.868736 
L 721.594669 522.930921 
L 728.775294 522.897981 
L 735.955918 522.824486 
L 743.136543 522.823282 
L 750.317167 522.901035 
L 757.497792 522.960229 
L 764.678416 522.873216 
L 771.85904 522.788282 
L 779.039665 522.822739 
L 786.220289 522.947228 
L 793.400914 522.98692 
L 800.581538 522.859445 
L 807.762163 522.798017 
L 814.942787 522.876369 
L 822.123411 522.990797 
L 829.304036 522.938242 
L 836.48466 522.883206 
L 843.665285 522.891302 
L 850.845909 522.905813 
" clip-path="url(#p653cff3d34)" style="fill: none; stroke: #d0e1f2; stroke-width: 1.5; stroke-linecap: square"/>
   </g>
   <g id="line2d_19">
    <path d="M 139.964091 119.790519 
L 147.144715 119.981105 
L 154.32534 120.171617 
L 161.505964 120.362056 
L 168.686589 120.552422 
L 175.867213 120.742715 
L 183.047837 120.932935 
L 190.228462 121.123081 
L 197.409086 121.313155 
L 204.589711 121.503155 
L 211.770335 121.693082 
L 218.95096 121.882937 
L 226.131584 122.072718 
L 233.312208 122.262426 
L 240.492833 122.452062 
L 247.673457 122.641624 
L 254.854082 122.831114 
L 262.034706 123.020531 
L 269.215331 123.209875 
L 276.395955 123.399147 
L 283.576579 123.588345 
L 290.757204 123.777471 
L 297.937828 123.966524 
L 305.118453 124.155505 
L 312.299077 124.344413 
L 319.479702 124.533248 
L 326.660326 124.72201 
L 333.84095 124.910701 
L 341.021575 125.099318 
L 348.202199 125.287863 
L 355.382824 125.476336 
L 362.563448 125.664736 
L 369.744073 125.853064 
L 376.924697 126.041319 
L 384.105321 126.229502 
L 391.285946 126.417613 
L 398.46657 126.605652 
L 405.647195 126.793618 
L 412.827819 126.981512 
L 420.008444 127.169333 
L 427.189068 127.357083 
L 434.369692 127.54476 
L 441.550317 127.732365 
L 448.730941 127.919898 
L 455.911566 128.107359 
L 463.09219 128.294748 
L 470.272815 128.482065 
L 477.453439 128.66931 
L 484.634063 128.856483 
L 491.814688 129.043584 
L 498.995312 129.230613 
L 506.175937 129.41757 
L 513.356561 129.604456 
L 520.537185 129.791269 
L 527.71781 129.978011 
L 534.898434 130.164681 
L 542.079059 130.351279 
L 549.259683 130.537806 
L 556.440308 130.72426 
L 563.620932 130.910643 
L 570.801556 131.096955 
L 577.982181 131.283195 
L 585.162805 131.469363 
L 592.34343 131.65546 
L 599.524054 131.841485 
L 606.704679 132.027439 
L 613.885303 132.213321 
L 621.065927 132.399132 
L 628.246552 132.584871 
L 635.427176 132.770539 
L 642.607801 132.956136 
L 649.788425 133.141661 
L 656.96905 133.327115 
L 664.149674 133.512498 
L 671.330298 133.697809 
L 678.510923 133.883049 
L 685.691547 134.068218 
L 692.872172 134.253316 
L 700.052796 134.438343 
L 707.233421 134.623298 
L 714.414045 134.808183 
L 721.594669 134.992996 
L 728.775294 135.177739 
L 735.955918 135.36241 
L 743.136543 135.54701 
L 750.317167 135.73154 
L 757.497792 135.915998 
L 764.678416 136.100386 
L 771.85904 136.284703 
L 779.039665 136.468949 
L 786.220289 136.653124 
L 793.400914 136.837228 
L 800.581538 137.021262 
L 807.762163 137.205224 
L 814.942787 137.389116 
L 822.123411 137.572938 
L 829.304036 137.756689 
L 836.48466 137.940369 
L 843.665285 138.123978 
L 850.845909 138.307517 
" clip-path="url(#p653cff3d34)" style="fill: none; stroke: #fdd9b4; stroke-width: 1.5; stroke-linecap: square"/>
   </g>
   <g id="line2d_20">
    <path d="M 139.964091 615.310909 
L 147.144715 613.455946 
L 154.32534 611.600813 
L 161.505964 609.745572 
L 168.686589 607.890229 
L 175.867213 606.034817 
L 183.047837 604.17937 
L 190.228462 602.323905 
L 197.409086 600.468438 
L 204.589711 598.612962 
L 211.770335 596.757476 
L 218.95096 594.901985 
L 226.131584 593.046503 
L 233.312208 591.191026 
L 240.492833 589.335544 
L 247.673457 587.480055 
L 254.854082 585.624561 
L 262.034706 583.769069 
L 269.215331 581.913594 
L 276.395955 580.058141 
L 283.576579 578.202686 
L 290.757204 576.347216 
L 297.937828 574.49173 
L 305.118453 572.63624 
L 312.299077 570.780775 
L 319.479702 568.925373 
L 326.660326 567.070051 
L 333.84095 565.21478 
L 341.021575 563.35957 
L 348.202199 561.50446 
L 355.382824 559.649518 
L 362.563448 557.794818 
L 369.744073 555.940404 
L 376.924697 554.086363 
L 384.105321 552.232821 
L 391.285946 550.379946 
L 398.46657 548.527951 
L 405.647195 546.677062 
L 412.827819 544.827548 
L 420.008444 542.979782 
L 427.189068 541.134237 
L 434.369692 539.291488 
L 441.550317 537.452215 
L 448.730941 535.617187 
L 455.911566 533.787316 
L 463.09219 531.96371 
L 470.272815 530.14768 
L 477.453439 528.340729 
L 484.634063 526.544532 
L 491.814688 524.760981 
L 498.995312 522.992185 
L 506.175937 521.240467 
L 513.356561 519.508349 
L 520.537185 517.798468 
L 527.71781 516.1136 
L 534.898434 514.456519 
L 542.079059 512.82997 
L 549.259683 511.236669 
L 556.440308 509.679139 
L 563.620932 508.159671 
L 570.801556 506.680246 
L 577.982181 505.24247 
L 585.162805 503.847581 
L 592.34343 502.496445 
L 599.524054 501.189521 
L 606.704679 499.926851 
L 613.885303 498.70817 
L 621.065927 497.532918 
L 628.246552 496.400234 
L 635.427176 495.309025 
L 642.607801 494.258051 
L 649.788425 493.245937 
L 656.96905 492.271238 
L 664.149674 491.332443 
L 671.330298 490.427981 
L 678.510923 489.556308 
L 685.691547 488.715894 
L 692.872172 487.905246 
L 700.052796 487.122916 
L 707.233421 486.367498 
L 714.414045 485.637627 
L 721.594669 484.932 
L 728.775294 484.249408 
L 735.955918 483.588702 
L 743.136543 482.948783 
L 750.317167 482.328605 
L 757.497792 481.727172 
L 764.678416 481.143542 
L 771.85904 480.576838 
L 779.039665 480.026263 
L 786.220289 479.491054 
L 793.400914 478.970482 
L 800.581538 478.463852 
L 807.762163 477.9705 
L 814.942787 477.489815 
L 822.123411 477.021247 
L 829.304036 476.564266 
L 836.48466 476.118364 
L 843.665285 475.683054 
L 850.845909 475.257874 
" clip-path="url(#p653cff3d34)" style="fill: none; stroke: #79b5d9; stroke-width: 1.5; stroke-linecap: square"/>
   </g>
   <g id="line2d_21">
    <path d="M 139.964091 119.790519 
L 147.144715 111.316424 
L 154.32534 106.252171 
L 161.505964 104.085569 
L 168.686589 102.884128 
L 175.867213 101.810966 
L 183.047837 101.262676 
L 190.228462 100.977108 
L 197.409086 100.709654 
L 204.589711 100.561399 
L 211.770335 100.567235 
L 218.95096 100.633494 
L 226.131584 100.573668 
L 233.312208 100.450808 
L 240.492833 100.390176 
L 247.673457 100.435735 
L 254.854082 100.559085 
L 262.034706 100.659468 
L 269.215331 100.551955 
L 276.395955 100.19222 
L 283.576579 99.902204 
L 290.757204 99.890362 
L 297.937828 100.207704 
L 305.118453 100.747793 
L 312.299077 101.246745 
L 319.479702 101.283229 
L 326.660326 100.820228 
L 333.84095 100.501421 
L 341.021575 100.516612 
L 348.202199 100.784596 
L 355.382824 100.953792 
L 362.563448 100.789762 
L 369.744073 100.687326 
L 376.924697 100.759254 
L 384.105321 100.981873 
L 391.285946 101.198873 
L 398.46657 101.178735 
L 405.647195 101.114493 
L 412.827819 101.316249 
L 420.008444 101.892554 
L 427.189068 102.748009 
L 434.369692 103.583259 
L 441.550317 104.013307 
L 448.730941 104.449702 
L 455.911566 105.303564 
L 463.09219 106.636009 
L 470.272815 108.187261 
L 477.453439 109.477062 
L 484.634063 110.767337 
L 491.814688 112.4426 
L 498.995312 114.550695 
L 506.175937 116.827769 
L 513.356561 118.790298 
L 520.537185 120.642104 
L 527.71781 122.66014 
L 534.898434 124.88039 
L 542.079059 127.143426 
L 549.259683 129.10591 
L 556.440308 130.838389 
L 563.620932 132.494816 
L 570.801556 134.051131 
L 577.982181 135.490992 
L 585.162805 136.80577 
L 592.34343 138.004721 
L 599.524054 139.157653 
L 606.704679 140.159604 
L 613.885303 140.952377 
L 621.065927 141.582719 
L 628.246552 142.202328 
L 635.427176 142.926694 
L 642.607801 143.578599 
L 649.788425 144.061085 
L 656.96905 144.381623 
L 664.149674 144.651556 
L 671.330298 145.070681 
L 678.510923 145.610562 
L 685.691547 146.039988 
L 692.872172 146.241557 
L 700.052796 146.224885 
L 707.233421 146.12661 
L 714.414045 146.210387 
L 721.594669 146.724306 
L 728.775294 147.329096 
L 735.955918 147.662796 
L 743.136543 147.585754 
L 750.317167 147.1805 
L 757.497792 146.751741 
L 764.678416 146.825415 
L 771.85904 147.48712 
L 779.039665 148.058985 
L 786.220289 148.209464 
L 793.400914 147.906178 
L 800.581538 147.415924 
L 807.762163 147.304664 
L 814.942787 147.790146 
L 822.123411 148.191587 
L 829.304036 148.304872 
L 836.48466 148.142076 
L 843.665285 147.92895 
L 850.845909 148.039215 
" clip-path="url(#p653cff3d34)" style="fill: none; stroke: #fd9649; stroke-width: 1.5; stroke-linecap: square"/>
   </g>
   <g id="line2d_22">
    <path d="M 139.964091 615.310909 
L 147.144715 613.443379 
L 154.32534 611.575826 
L 161.505964 609.708256 
L 168.686589 607.840676 
L 175.867213 605.973093 
L 183.047837 604.105507 
L 190.228462 602.237917 
L 197.409086 600.370323 
L 204.589711 598.502729 
L 211.770335 596.635138 
L 218.95096 594.767547 
L 226.131584 592.899954 
L 233.312208 591.032358 
L 240.492833 589.164761 
L 247.673457 587.297166 
L 254.854082 585.429576 
L 262.034706 583.561992 
L 269.215331 581.694409 
L 276.395955 579.826823 
L 283.576579 577.959235 
L 290.757204 576.091648 
L 297.937828 574.224069 
L 305.118453 572.35651 
L 312.299077 570.488985 
L 319.479702 568.621504 
L 326.660326 566.754072 
L 333.84095 564.886701 
L 341.021575 563.01942 
L 348.202199 561.152273 
L 355.382824 559.285317 
L 362.563448 557.418624 
L 369.744073 555.552271 
L 376.924697 553.686356 
L 384.105321 551.821019 
L 391.285946 549.956448 
L 398.46657 548.092877 
L 405.647195 546.230589 
L 412.827819 544.369944 
L 420.008444 542.511334 
L 427.189068 540.655274 
L 434.369692 538.802416 
L 441.550317 536.953546 
L 448.730941 535.109591 
L 455.911566 533.271615 
L 463.09219 531.440871 
L 470.272815 529.618831 
L 477.453439 527.807179 
L 484.634063 526.007816 
L 491.814688 524.222868 
L 498.995312 522.454676 
L 506.175937 520.705806 
L 513.356561 518.979 
L 520.537185 517.277072 
L 527.71781 515.602988 
L 534.898434 513.959617 
L 542.079059 512.349715 
L 549.259683 510.775924 
L 556.440308 509.24074 
L 563.620932 507.746249 
L 570.801556 506.294181 
L 577.982181 504.885868 
L 585.162805 503.52223 
L 592.34343 502.203778 
L 599.524054 500.930619 
L 606.704679 499.7025 
L 613.885303 498.518739 
L 621.065927 497.378447 
L 628.246552 496.280556 
L 635.427176 495.22382 
L 642.607801 494.206815 
L 649.788425 493.227959 
L 656.96905 492.285689 
L 664.149674 491.378376 
L 671.330298 490.504404 
L 678.510923 489.662198 
L 685.691547 488.850223 
L 692.872172 488.066988 
L 700.052796 487.311039 
L 707.233421 486.580973 
L 714.414045 485.875462 
L 721.594669 485.193241 
L 728.775294 484.533112 
L 735.955918 483.893947 
L 743.136543 483.274688 
L 750.317167 482.674341 
L 757.497792 482.091948 
L 764.678416 481.526616 
L 771.85904 480.977505 
L 779.039665 480.443826 
L 786.220289 479.924841 
L 793.400914 479.419865 
L 800.581538 478.928239 
L 807.762163 478.449344 
L 814.942787 477.982599 
L 822.123411 477.527457 
L 829.304036 477.083405 
L 836.48466 476.649965 
L 843.665285 476.226692 
L 850.845909 475.813148 
" clip-path="url(#p653cff3d34)" style="fill: none; stroke: #2575b7; stroke-width: 1.5; stroke-linecap: square"/>
   </g>
   <g id="line2d_23">
    <path d="M 139.964091 119.790519 
L 147.144715 121.714179 
L 154.32534 122.942096 
L 161.505964 123.554807 
L 168.686589 123.839936 
L 175.867213 124.162172 
L 183.047837 124.395784 
L 190.228462 124.48991 
L 197.409086 124.482915 
L 204.589711 124.491916 
L 211.770335 124.58297 
L 218.95096 124.66446 
L 226.131584 124.689136 
L 233.312208 124.647055 
L 240.492833 124.565579 
L 247.673457 124.509376 
L 254.854082 124.583077 
L 262.034706 124.792815 
L 269.215331 124.983565 
L 276.395955 125.049039 
L 283.576579 124.945153 
L 290.757204 124.690028 
L 297.937828 124.363992 
L 305.118453 124.109577 
L 312.299077 124.131521 
L 319.479702 124.439769 
L 326.660326 124.712502 
L 333.84095 124.796551 
L 341.021575 124.663903 
L 348.202199 124.411706 
L 355.382824 124.262261 
L 362.563448 124.428142 
L 369.744073 124.637416 
L 376.924697 124.741525 
L 384.105321 124.694407 
L 391.285946 124.535499 
L 398.46657 124.38974 
L 405.647195 124.4516 
L 412.827819 124.669045 
L 420.008444 124.845908 
L 427.189068 124.876964 
L 434.369692 124.739385 
L 441.550317 124.492734 
L 448.730941 124.27897 
L 455.911566 124.320962 
L 463.09219 124.685527 
L 470.272815 125.05843 
L 477.453439 125.205746 
L 484.634063 125.035555 
L 491.814688 124.597941 
L 498.995312 124.084995 
L 506.175937 123.830812 
L 513.356561 124.14952 
L 520.537185 124.560067 
L 527.71781 124.771084 
L 534.898434 124.700048 
L 542.079059 124.429291 
L 549.259683 124.205996 
L 556.440308 124.346262 
L 563.620932 124.57563 
L 570.801556 124.702694 
L 577.982181 124.675164 
L 585.162805 124.531269 
L 592.34343 124.399761 
L 599.524054 124.47239 
L 606.704679 124.662849 
L 613.885303 124.802887 
L 621.065927 124.81161 
L 628.246552 124.680701 
L 635.427176 124.474412 
L 642.607801 124.32957 
L 649.788425 124.444289 
L 656.96905 124.783023 
L 664.149674 125.072457 
L 671.330298 125.140484 
L 678.510923 124.934143 
L 685.691547 124.519614 
L 692.872172 124.082224 
L 700.052796 123.92644 
L 707.233421 124.26142 
L 714.414045 124.629012 
L 721.594669 124.795253 
L 728.775294 124.696254 
L 735.955918 124.421401 
L 743.136543 124.213362 
L 750.317167 124.363923 
L 757.497792 124.595461 
L 764.678416 124.722244 
L 771.85904 124.689566 
L 779.039665 124.534921 
L 786.220289 124.388005 
L 793.400914 124.450666 
L 800.581538 124.654381 
L 807.762163 124.812554 
L 814.942787 124.832645 
L 822.123411 124.70014 
L 829.304036 124.478554 
L 836.48466 124.309429 
L 843.665285 124.375513 
L 850.845909 124.473046 
" clip-path="url(#p653cff3d34)" style="fill: none; stroke: #dc4c03; stroke-width: 1.5; stroke-linecap: square"/>
   </g>
   <g id="line2d_24">
    <path d="M 139.964091 615.310909 
L 147.144715 613.450156 
L 154.32534 611.589903 
L 161.505964 609.73015 
L 168.686589 607.870898 
L 175.867213 606.012147 
L 183.047837 604.153895 
L 190.228462 602.296143 
L 197.409086 600.438891 
L 204.589711 598.582139 
L 211.770335 596.725886 
L 218.95096 594.870132 
L 226.131584 593.014878 
L 233.312208 591.160123 
L 240.492833 589.305867 
L 247.673457 587.452111 
L 254.854082 585.598853 
L 262.034706 583.746095 
L 269.215331 581.893838 
L 276.395955 580.042081 
L 283.576579 578.190826 
L 290.757204 576.340075 
L 297.937828 574.489831 
L 305.118453 572.6401 
L 312.299077 570.790889 
L 319.479702 568.942207 
L 326.660326 567.094067 
L 333.84095 565.246488 
L 341.021575 563.399494 
L 348.202199 561.553121 
L 355.382824 559.707412 
L 362.563448 557.862427 
L 369.744073 556.018238 
L 376.924697 554.174943 
L 384.105321 552.332668 
L 391.285946 550.491572 
L 398.46657 548.651854 
L 405.647195 546.813759 
L 412.827819 544.977578 
L 420.008444 543.14369 
L 427.189068 541.312564 
L 434.369692 539.484758 
L 441.550317 537.660921 
L 448.730941 535.841848 
L 455.911566 534.028469 
L 463.09219 532.221887 
L 470.272815 530.423381 
L 477.453439 528.634411 
L 484.634063 526.856641 
L 491.814688 525.091952 
L 498.995312 523.342416 
L 506.175937 521.610295 
L 513.356561 519.898033 
L 520.537185 518.208207 
L 527.71781 516.543537 
L 534.898434 514.906726 
L 542.079059 513.300432 
L 549.259683 511.727267 
L 556.440308 510.189688 
L 563.620932 508.689914 
L 570.801556 507.229865 
L 577.982181 505.811101 
L 585.162805 504.434824 
L 592.34343 503.101878 
L 599.524054 501.812721 
L 606.704679 500.567389 
L 613.885303 499.365629 
L 621.065927 498.206912 
L 628.246552 497.090433 
L 635.427176 496.015126 
L 642.607801 494.979792 
L 649.788425 493.983079 
L 656.96905 493.023575 
L 664.149674 492.09982 
L 671.330298 491.210309 
L 678.510923 490.353502 
L 685.691547 489.527903 
L 692.872172 488.732039 
L 700.052796 487.964478 
L 707.233421 487.223841 
L 714.414045 486.508798 
L 721.594669 485.818068 
L 728.775294 485.150438 
L 735.955918 484.504759 
L 743.136543 483.879937 
L 750.317167 483.274938 
L 757.497792 482.688783 
L 764.678416 482.120547 
L 771.85904 481.569363 
L 779.039665 481.034413 
L 786.220289 480.514925 
L 793.400914 480.01017 
L 800.581538 479.519462 
L 807.762163 479.042159 
L 814.942787 478.577651 
L 822.123411 478.125371 
L 829.304036 477.684778 
L 836.48466 477.255362 
L 843.665285 476.836644 
L 850.845909 476.428174 
" clip-path="url(#p653cff3d34)" style="fill: none; stroke: #08306b; stroke-width: 1.5; stroke-linecap: square"/>
   </g>
   <g id="line2d_25">
    <path d="M 139.964091 119.790519 
L 147.144715 111.056814 
L 154.32534 105.891136 
L 161.505964 103.655326 
L 168.686589 102.349196 
L 175.867213 101.24418 
L 183.047837 100.684834 
L 190.228462 100.388475 
L 197.409086 100.112418 
L 204.589711 99.963666 
L 211.770335 99.970348 
L 218.95096 100.030935 
L 226.131584 99.961492 
L 233.312208 99.842254 
L 240.492833 99.789323 
L 247.673457 99.840089 
L 254.854082 99.961261 
L 262.034706 100.048867 
L 269.215331 99.917946 
L 276.395955 99.570955 
L 283.576579 99.313671 
L 290.757204 99.329102 
L 297.937828 99.652528 
L 305.118453 100.171502 
L 312.299077 100.625847 
L 319.479702 100.608071 
L 326.660326 100.157685 
L 333.84095 99.861857 
L 341.021575 99.898304 
L 348.202199 100.181809 
L 355.382824 100.364224 
L 362.563448 100.193636 
L 369.744073 100.075289 
L 376.924697 100.141158 
L 384.105321 100.376527 
L 391.285946 100.625556 
L 398.46657 100.633235 
L 405.647195 100.549202 
L 412.827819 100.713981 
L 420.008444 101.263227 
L 427.189068 102.120141 
L 434.369692 102.995468 
L 441.550317 103.467024 
L 448.730941 103.879522 
L 455.911566 104.692973 
L 463.09219 106.00204 
L 470.272815 107.573614 
L 477.453439 108.905522 
L 484.634063 110.166343 
L 491.814688 111.799055 
L 498.995312 113.893025 
L 506.175937 116.209857 
L 513.356561 118.2333 
L 520.537185 120.07828 
L 527.71781 122.088743 
L 534.898434 124.331138 
L 542.079059 126.655103 
L 549.259683 128.696697 
L 556.440308 130.452808 
L 563.620932 132.142951 
L 570.801556 133.759014 
L 577.982181 135.281823 
L 585.162805 136.681142 
L 592.34343 137.939257 
L 599.524054 139.18227 
L 606.704679 140.268382 
L 613.885303 141.099476 
L 621.065927 141.707615 
L 628.246552 142.255045 
L 635.427176 143.004192 
L 642.607801 143.855956 
L 649.788425 144.515043 
L 656.96905 144.867656 
L 664.149674 144.98504 
L 671.330298 145.123481 
L 678.510923 145.640639 
L 685.691547 146.294881 
L 692.872172 146.740183 
L 700.052796 146.851915 
L 707.233421 146.712405 
L 714.414045 146.610931 
L 721.594669 146.970645 
L 728.775294 147.531972 
L 735.955918 147.899247 
L 743.136543 147.930923 
L 750.317167 147.703834 
L 757.497792 147.513203 
L 764.678416 147.79238 
L 771.85904 148.260319 
L 779.039665 148.547621 
L 786.220289 148.534204 
L 793.400914 148.300894 
L 800.581538 148.129429 
L 807.762163 148.390029 
L 814.942787 148.775728 
L 822.123411 148.987443 
L 829.304036 148.9333 
L 836.48466 148.697462 
L 843.665285 148.540131 
L 850.845909 148.721122 
" clip-path="url(#p653cff3d34)" style="fill: none; stroke: #7f2704; stroke-width: 1.5; stroke-linecap: square"/>
   </g>
   <g id="patch_3">
    <path d="M 104.42 643.48 
L 104.42 23.76 
" style="fill: none; stroke: #000000; stroke-width: 0.8; stroke-linejoin: miter; stroke-linecap: square"/>
   </g>
   <g id="patch_4">
    <path d="M 886.39 643.48 
L 886.39 23.76 
" style="fill: none; stroke: #000000; stroke-width: 0.8; stroke-linejoin: miter; stroke-linecap: square"/>
   </g>
   <g id="patch_5">
    <path d="M 104.42 643.48 
L 886.39 643.48 
" style="fill: none; stroke: #000000; stroke-width: 0.8; stroke-linejoin: miter; stroke-linecap: square"/>
   </g>
   <g id="patch_6">
    <path d="M 104.42 23.76 
L 886.39 23.76 
" style="fill: none; stroke: #000000; stroke-width: 0.8; stroke-linejoin: miter; stroke-linecap: square"/>
   </g>
   <g id="legend_1">
    <g id="patch_7">
     <path d="M 901.79 364.27875 
L 1051.867813 364.27875 
Q 1056.267813 364.27875 1056.267813 359.87875 
L 1056.267813 39.16 
Q 1056.267813 34.76 1051.867813 34.76 
L 901.79 34.76 
Q 897.39 34.76 897.39 39.16 
L 897.39 359.87875 
Q 897.39 364.27875 901.79 364.27875 
z
" style="fill: #ffffff; opacity: 0.8; stroke: #cccccc; stroke-linejoin: miter"/>
    </g>
    <g id="PathCollection_3">
     <g>
      <use xlink:href="#m80f1702e56" x="928.19" y="54.501562" style="fill: #1f77b4; stroke: #1f77b4"/>
     </g>
    </g>
    <g id="text_20">
     <!-- Xi -->
     <g transform="translate(967.79 60.276562) scale(0.22 -0.22)">
      <use xlink:href="#DejaVuSans-58"/>
      <use xlink:href="#DejaVuSans-69" x="68.505859"/>
     </g>
    </g>
    <g id="PathCollection_4">
     <g>
      <use xlink:href="#m62fcbac0dc" x="928.19" y="86.793437" style="fill: #ff7f0e; stroke: #ff7f0e"/>
     </g>
    </g>
    <g id="text_21">
     <!-- Xa -->
     <g transform="translate(967.79 92.568437) scale(0.22 -0.22)">
      <use xlink:href="#DejaVuSans-58"/>
      <use xlink:href="#DejaVuSans-61" x="68.505859"/>
     </g>
    </g>
    <g id="line2d_26">
     <path d="M 906.19 117.160312 
L 928.19 117.160312 
L 950.19 117.160312 
" style="fill: none; stroke: #d0e1f2; stroke-width: 1.5; stroke-linecap: square"/>
    </g>
    <g id="text_22">
     <!-- Xi-AAII -->
     <g transform="translate(967.79 124.860312) scale(0.22 -0.22)">
      <defs>
       <path id="DejaVuSans-2d" d="M 313 2009 
L 1997 2009 
L 1997 1497 
L 313 1497 
L 313 2009 
z
" transform="scale(0.015625)"/>
       <path id="DejaVuSans-49" d="M 628 4666 
L 1259 4666 
L 1259 0 
L 628 0 
L 628 4666 
z
" transform="scale(0.015625)"/>
      </defs>
      <use xlink:href="#DejaVuSans-58"/>
      <use xlink:href="#DejaVuSans-69" x="68.505859"/>
      <use xlink:href="#DejaVuSans-2d" x="96.289062"/>
      <use xlink:href="#DejaVuSans-41" x="130.123047"/>
      <use xlink:href="#DejaVuSans-41" x="201.28125"/>
      <use xlink:href="#DejaVuSans-49" x="269.689453"/>
      <use xlink:href="#DejaVuSans-49" x="299.181641"/>
     </g>
    </g>
    <g id="line2d_27">
     <path d="M 906.19 149.452187 
L 928.19 149.452187 
L 950.19 149.452187 
" style="fill: none; stroke: #fdd9b4; stroke-width: 1.5; stroke-linecap: square"/>
    </g>
    <g id="text_23">
     <!-- Xa-AAII -->
     <g transform="translate(967.79 157.152187) scale(0.22 -0.22)">
      <use xlink:href="#DejaVuSans-58"/>
      <use xlink:href="#DejaVuSans-61" x="68.505859"/>
      <use xlink:href="#DejaVuSans-2d" x="129.785156"/>
      <use xlink:href="#DejaVuSans-41" x="163.619141"/>
      <use xlink:href="#DejaVuSans-41" x="234.777344"/>
      <use xlink:href="#DejaVuSans-49" x="303.185547"/>
      <use xlink:href="#DejaVuSans-49" x="332.677734"/>
     </g>
    </g>
    <g id="line2d_28">
     <path d="M 906.19 181.744062 
L 928.19 181.744062 
L 950.19 181.744062 
" style="fill: none; stroke: #79b5d9; stroke-width: 1.5; stroke-linecap: square"/>
    </g>
    <g id="text_24">
     <!-- Xi-AIII -->
     <g transform="translate(967.79 189.444062) scale(0.22 -0.22)">
      <use xlink:href="#DejaVuSans-58"/>
      <use xlink:href="#DejaVuSans-69" x="68.505859"/>
      <use xlink:href="#DejaVuSans-2d" x="96.289062"/>
      <use xlink:href="#DejaVuSans-41" x="130.123047"/>
      <use xlink:href="#DejaVuSans-49" x="198.53125"/>
      <use xlink:href="#DejaVuSans-49" x="228.023438"/>
      <use xlink:href="#DejaVuSans-49" x="257.515625"/>
     </g>
    </g>
    <g id="line2d_29">
     <path d="M 906.19 214.035937 
L 928.19 214.035937 
L 950.19 214.035937 
" style="fill: none; stroke: #fd9649; stroke-width: 1.5; stroke-linecap: square"/>
    </g>
    <g id="text_25">
     <!-- Xa-AIII -->
     <g transform="translate(967.79 221.735937) scale(0.22 -0.22)">
      <use xlink:href="#DejaVuSans-58"/>
      <use xlink:href="#DejaVuSans-61" x="68.505859"/>
      <use xlink:href="#DejaVuSans-2d" x="129.785156"/>
      <use xlink:href="#DejaVuSans-41" x="163.619141"/>
      <use xlink:href="#DejaVuSans-49" x="232.027344"/>
      <use xlink:href="#DejaVuSans-49" x="261.519531"/>
      <use xlink:href="#DejaVuSans-49" x="291.011719"/>
     </g>
    </g>
    <g id="line2d_30">
     <path d="M 906.19 246.327812 
L 928.19 246.327812 
L 950.19 246.327812 
" style="fill: none; stroke: #2575b7; stroke-width: 1.5; stroke-linecap: square"/>
    </g>
    <g id="text_26">
     <!-- Xi-IAII -->
     <g transform="translate(967.79 254.027812) scale(0.22 -0.22)">
      <use xlink:href="#DejaVuSans-58"/>
      <use xlink:href="#DejaVuSans-69" x="68.505859"/>
      <use xlink:href="#DejaVuSans-2d" x="96.289062"/>
      <use xlink:href="#DejaVuSans-49" x="132.373047"/>
      <use xlink:href="#DejaVuSans-41" x="161.865234"/>
      <use xlink:href="#DejaVuSans-49" x="230.273438"/>
      <use xlink:href="#DejaVuSans-49" x="259.765625"/>
     </g>
    </g>
    <g id="line2d_31">
     <path d="M 906.19 278.619687 
L 928.19 278.619687 
L 950.19 278.619687 
" style="fill: none; stroke: #dc4c03; stroke-width: 1.5; stroke-linecap: square"/>
    </g>
    <g id="text_27">
     <!-- Xa-IAII -->
     <g transform="translate(967.79 286.319687) scale(0.22 -0.22)">
      <use xlink:href="#DejaVuSans-58"/>
      <use xlink:href="#DejaVuSans-61" x="68.505859"/>
      <use xlink:href="#DejaVuSans-2d" x="129.785156"/>
      <use xlink:href="#DejaVuSans-49" x="165.869141"/>
      <use xlink:href="#DejaVuSans-41" x="195.361328"/>
      <use xlink:href="#DejaVuSans-49" x="263.769531"/>
      <use xlink:href="#DejaVuSans-49" x="293.261719"/>
     </g>
    </g>
    <g id="line2d_32">
     <path d="M 906.19 310.911563 
L 928.19 310.911563 
L 950.19 310.911563 
" style="fill: none; stroke: #08306b; stroke-width: 1.5; stroke-linecap: square"/>
    </g>
    <g id="text_28">
     <!-- Xi-IIII -->
     <g transform="translate(967.79 318.611562) scale(0.22 -0.22)">
      <use xlink:href="#DejaVuSans-58"/>
      <use xlink:href="#DejaVuSans-69" x="68.505859"/>
      <use xlink:href="#DejaVuSans-2d" x="96.289062"/>
      <use xlink:href="#DejaVuSans-49" x="132.373047"/>
      <use xlink:href="#DejaVuSans-49" x="161.865234"/>
      <use xlink:href="#DejaVuSans-49" x="191.357422"/>
      <use xlink:href="#DejaVuSans-49" x="220.849609"/>
     </g>
    </g>
    <g id="line2d_33">
     <path d="M 906.19 343.203438 
L 928.19 343.203438 
L 950.19 343.203438 
" style="fill: none; stroke: #7f2704; stroke-width: 1.5; stroke-linecap: square"/>
    </g>
    <g id="text_29">
     <!-- Xa-IIII -->
     <g transform="translate(967.79 350.903437) scale(0.22 -0.22)">
      <use xlink:href="#DejaVuSans-58"/>
      <use xlink:href="#DejaVuSans-61" x="68.505859"/>
      <use xlink:href="#DejaVuSans-2d" x="129.785156"/>
      <use xlink:href="#DejaVuSans-49" x="165.869141"/>
      <use xlink:href="#DejaVuSans-49" x="195.361328"/>
      <use xlink:href="#DejaVuSans-49" x="224.853516"/>
      <use xlink:href="#DejaVuSans-49" x="254.345703"/>
     </g>
    </g>
   </g>
  </g>
 </g>
 <defs>
  <clipPath id="p653cff3d34">
   <rect x="104.42" y="23.76" width="781.97" height="619.72"/>
  </clipPath>
 </defs>
</svg>
