<?xml version="1.0" encoding="utf-8" standalone="no"?>
<!DOCTYPE svg PUBLIC "-//W3C//DTD SVG 1.1//EN"
  "http://www.w3.org/Graphics/SVG/1.1/DTD/svg11.dtd">
<svg xmlns:xlink="http://www.w3.org/1999/xlink" width="1080pt" height="720pt" viewBox="0 0 1080 720" xmlns="http://www.w3.org/2000/svg" version="1.1">
 <metadata>
  <rdf:RDF xmlns:dc="http://purl.org/dc/elements/1.1/" xmlns:cc="http://creativecommons.org/ns#" xmlns:rdf="http://www.w3.org/1999/02/22-rdf-syntax-ns#">
   <cc:Work>
    <dc:type rdf:resource="http://purl.org/dc/dcmitype/StillImage"/>
    <dc:date>2023-01-11T19:55:52.531873</dc:date>
    <dc:format>image/svg+xml</dc:format>
    <dc:creator>
     <cc:Agent>
      <dc:title>Matplotlib v3.6.2, https://matplotlib.org/</dc:title>
     </cc:Agent>
    </dc:creator>
   </cc:Work>
  </rdf:RDF>
 </metadata>
 <defs>
  <style type="text/css">*{stroke-linejoin: round; stroke-linecap: butt}</style>
 </defs>
 <g id="figure_1">
  <g id="patch_1">
   <path d="M 0 720 
L 1080 720 
L 1080 0 
L 0 0 
z
" style="fill: #ffffff"/>
  </g>
  <g id="axes_1">
   <g id="patch_2">
    <path d="M 104.42 595.44 
L 883.87 595.44 
L 883.87 23.76 
L 104.42 23.76 
z
" style="fill: #ffffff"/>
   </g>
   <g id="PathCollection_1">
    <defs>
     <path id="m80f1702e56" d="M 0 3 
C 0.795609 3 1.55874 2.683901 2.12132 2.12132 
C 2.683901 1.55874 3 0.795609 3 0 
C 3 -0.795609 2.683901 -1.55874 2.12132 -2.12132 
C 1.55874 -2.683901 0.795609 -3 0 -3 
C -0.795609 -3 -1.55874 -2.683901 -2.12132 -2.12132 
C -2.683901 -1.55874 -3 -0.795609 -3 0 
C -3 0.795609 -2.683901 1.55874 -2.12132 2.12132 
C -1.55874 2.683901 -0.795609 3 0 3 
z
" style="stroke: #1f77b4"/>
    </defs>
    <g clip-path="url(#p13386ddcbc)">
     <use xlink:href="#m80f1702e56" x="139.849545" y="569.454545" style="fill: #1f77b4; stroke: #1f77b4"/>
     <use xlink:href="#m80f1702e56" x="177.143804" y="565.498459" style="fill: #1f77b4; stroke: #1f77b4"/>
     <use xlink:href="#m80f1702e56" x="214.438062" y="561.542373" style="fill: #1f77b4; stroke: #1f77b4"/>
     <use xlink:href="#m80f1702e56" x="251.732321" y="557.586287" style="fill: #1f77b4; stroke: #1f77b4"/>
     <use xlink:href="#m80f1702e56" x="289.026579" y="553.6302" style="fill: #1f77b4; stroke: #1f77b4"/>
     <use xlink:href="#m80f1702e56" x="326.320837" y="549.674114" style="fill: #1f77b4; stroke: #1f77b4"/>
     <use xlink:href="#m80f1702e56" x="363.615096" y="545.718028" style="fill: #1f77b4; stroke: #1f77b4"/>
     <use xlink:href="#m80f1702e56" x="400.909354" y="541.761941" style="fill: #1f77b4; stroke: #1f77b4"/>
     <use xlink:href="#m80f1702e56" x="438.203612" y="537.805855" style="fill: #1f77b4; stroke: #1f77b4"/>
     <use xlink:href="#m80f1702e56" x="475.497871" y="527.076679" style="fill: #1f77b4; stroke: #1f77b4"/>
     <use xlink:href="#m80f1702e56" x="512.792129" y="524.905633" style="fill: #1f77b4; stroke: #1f77b4"/>
     <use xlink:href="#m80f1702e56" x="550.086388" y="484.288948" style="fill: #1f77b4; stroke: #1f77b4"/>
     <use xlink:href="#m80f1702e56" x="587.380646" y="443.672262" style="fill: #1f77b4; stroke: #1f77b4"/>
     <use xlink:href="#m80f1702e56" x="624.674904" y="225.470051" style="fill: #1f77b4; stroke: #1f77b4"/>
     <use xlink:href="#m80f1702e56" x="661.969163" y="225.470051" style="fill: #1f77b4; stroke: #1f77b4"/>
     <use xlink:href="#m80f1702e56" x="699.263421" y="225.470051" style="fill: #1f77b4; stroke: #1f77b4"/>
     <use xlink:href="#m80f1702e56" x="736.557679" y="225.470051" style="fill: #1f77b4; stroke: #1f77b4"/>
     <use xlink:href="#m80f1702e56" x="773.851938" y="225.470051" style="fill: #1f77b4; stroke: #1f77b4"/>
     <use xlink:href="#m80f1702e56" x="811.146196" y="225.470051" style="fill: #1f77b4; stroke: #1f77b4"/>
     <use xlink:href="#m80f1702e56" x="848.440455" y="225.470051" style="fill: #1f77b4; stroke: #1f77b4"/>
    </g>
   </g>
   <g id="PathCollection_2">
    <defs>
     <path id="m62fcbac0dc" d="M 0 3 
C 0.795609 3 1.55874 2.683901 2.12132 2.12132 
C 2.683901 1.55874 3 0.795609 3 0 
C 3 -0.795609 2.683901 -1.55874 2.12132 -2.12132 
C 1.55874 -2.683901 0.795609 -3 0 -3 
C -0.795609 -3 -1.55874 -2.683901 -2.12132 -2.12132 
C -2.683901 -1.55874 -3 -0.795609 -3 0 
C -3 0.795609 -2.683901 1.55874 -2.12132 2.12132 
C -1.55874 2.683901 -0.795609 3 0 3 
z
" style="stroke: #ff7f0e"/>
    </defs>
    <g clip-path="url(#p13386ddcbc)">
     <use xlink:href="#m62fcbac0dc" x="139.849545" y="95.760921" style="fill: #ff7f0e; stroke: #ff7f0e"/>
     <use xlink:href="#m62fcbac0dc" x="177.143804" y="93.345095" style="fill: #ff7f0e; stroke: #ff7f0e"/>
     <use xlink:href="#m62fcbac0dc" x="214.438062" y="90.929269" style="fill: #ff7f0e; stroke: #ff7f0e"/>
     <use xlink:href="#m62fcbac0dc" x="251.732321" y="88.513443" style="fill: #ff7f0e; stroke: #ff7f0e"/>
     <use xlink:href="#m62fcbac0dc" x="289.026579" y="86.097617" style="fill: #ff7f0e; stroke: #ff7f0e"/>
     <use xlink:href="#m62fcbac0dc" x="326.320837" y="83.681791" style="fill: #ff7f0e; stroke: #ff7f0e"/>
     <use xlink:href="#m62fcbac0dc" x="363.615096" y="81.265965" style="fill: #ff7f0e; stroke: #ff7f0e"/>
     <use xlink:href="#m62fcbac0dc" x="400.909354" y="78.850139" style="fill: #ff7f0e; stroke: #ff7f0e"/>
     <use xlink:href="#m62fcbac0dc" x="438.203612" y="76.434313" style="fill: #ff7f0e; stroke: #ff7f0e"/>
     <use xlink:href="#m62fcbac0dc" x="475.497871" y="106.59038" style="fill: #ff7f0e; stroke: #ff7f0e"/>
     <use xlink:href="#m62fcbac0dc" x="512.792129" y="49.745455" style="fill: #ff7f0e; stroke: #ff7f0e"/>
     <use xlink:href="#m62fcbac0dc" x="550.086388" y="84.982315" style="fill: #ff7f0e; stroke: #ff7f0e"/>
     <use xlink:href="#m62fcbac0dc" x="587.380646" y="120.219176" style="fill: #ff7f0e; stroke: #ff7f0e"/>
     <use xlink:href="#m62fcbac0dc" x="624.674904" y="251.986309" style="fill: #ff7f0e; stroke: #ff7f0e"/>
     <use xlink:href="#m62fcbac0dc" x="661.969163" y="251.986309" style="fill: #ff7f0e; stroke: #ff7f0e"/>
     <use xlink:href="#m62fcbac0dc" x="699.263421" y="251.986309" style="fill: #ff7f0e; stroke: #ff7f0e"/>
     <use xlink:href="#m62fcbac0dc" x="736.557679" y="251.986309" style="fill: #ff7f0e; stroke: #ff7f0e"/>
     <use xlink:href="#m62fcbac0dc" x="773.851938" y="251.986309" style="fill: #ff7f0e; stroke: #ff7f0e"/>
     <use xlink:href="#m62fcbac0dc" x="811.146196" y="251.986309" style="fill: #ff7f0e; stroke: #ff7f0e"/>
     <use xlink:href="#m62fcbac0dc" x="848.440455" y="251.986309" style="fill: #ff7f0e; stroke: #ff7f0e"/>
    </g>
   </g>
   <g id="matplotlib.axis_1">
    <g id="xtick_1">
     <g id="line2d_1">
      <defs>
       <path id="m3385fdae1e" d="M 0 0 
L 0 3.5 
" style="stroke: #000000; stroke-width: 0.8"/>
      </defs>
      <g>
       <use xlink:href="#m3385fdae1e" x="139.849545" y="595.44" style="stroke: #000000; stroke-width: 0.8"/>
      </g>
     </g>
     <g id="text_1">
      <!-- 0.0 -->
      <g transform="translate(122.356108 619.156562) scale(0.22 -0.22)">
       <defs>
        <path id="DejaVuSans-30" d="M 2034 4250 
Q 1547 4250 1301 3770 
Q 1056 3291 1056 2328 
Q 1056 1369 1301 889 
Q 1547 409 2034 409 
Q 2525 409 2770 889 
Q 3016 1369 3016 2328 
Q 3016 3291 2770 3770 
Q 2525 4250 2034 4250 
z
M 2034 4750 
Q 2819 4750 3233 4129 
Q 3647 3509 3647 2328 
Q 3647 1150 3233 529 
Q 2819 -91 2034 -91 
Q 1250 -91 836 529 
Q 422 1150 422 2328 
Q 422 3509 836 4129 
Q 1250 4750 2034 4750 
z
" transform="scale(0.015625)"/>
        <path id="DejaVuSans-2e" d="M 684 794 
L 1344 794 
L 1344 0 
L 684 0 
L 684 794 
z
" transform="scale(0.015625)"/>
       </defs>
       <use xlink:href="#DejaVuSans-30"/>
       <use xlink:href="#DejaVuSans-2e" x="63.623047"/>
       <use xlink:href="#DejaVuSans-30" x="95.410156"/>
      </g>
     </g>
    </g>
    <g id="xtick_2">
     <g id="line2d_2">
      <g>
       <use xlink:href="#m3385fdae1e" x="233.085191" y="595.44" style="stroke: #000000; stroke-width: 0.8"/>
      </g>
     </g>
     <g id="text_2">
      <!-- 2.5 -->
      <g transform="translate(215.591754 619.156562) scale(0.22 -0.22)">
       <defs>
        <path id="DejaVuSans-32" d="M 1228 531 
L 3431 531 
L 3431 0 
L 469 0 
L 469 531 
Q 828 903 1448 1529 
Q 2069 2156 2228 2338 
Q 2531 2678 2651 2914 
Q 2772 3150 2772 3378 
Q 2772 3750 2511 3984 
Q 2250 4219 1831 4219 
Q 1534 4219 1204 4116 
Q 875 4013 500 3803 
L 500 4441 
Q 881 4594 1212 4672 
Q 1544 4750 1819 4750 
Q 2544 4750 2975 4387 
Q 3406 4025 3406 3419 
Q 3406 3131 3298 2873 
Q 3191 2616 2906 2266 
Q 2828 2175 2409 1742 
Q 1991 1309 1228 531 
z
" transform="scale(0.015625)"/>
        <path id="DejaVuSans-35" d="M 691 4666 
L 3169 4666 
L 3169 4134 
L 1269 4134 
L 1269 2991 
Q 1406 3038 1543 3061 
Q 1681 3084 1819 3084 
Q 2600 3084 3056 2656 
Q 3513 2228 3513 1497 
Q 3513 744 3044 326 
Q 2575 -91 1722 -91 
Q 1428 -91 1123 -41 
Q 819 9 494 109 
L 494 744 
Q 775 591 1075 516 
Q 1375 441 1709 441 
Q 2250 441 2565 725 
Q 2881 1009 2881 1497 
Q 2881 1984 2565 2268 
Q 2250 2553 1709 2553 
Q 1456 2553 1204 2497 
Q 953 2441 691 2322 
L 691 4666 
z
" transform="scale(0.015625)"/>
       </defs>
       <use xlink:href="#DejaVuSans-32"/>
       <use xlink:href="#DejaVuSans-2e" x="63.623047"/>
       <use xlink:href="#DejaVuSans-35" x="95.410156"/>
      </g>
     </g>
    </g>
    <g id="xtick_3">
     <g id="line2d_3">
      <g>
       <use xlink:href="#m3385fdae1e" x="326.320837" y="595.44" style="stroke: #000000; stroke-width: 0.8"/>
      </g>
     </g>
     <g id="text_3">
      <!-- 5.0 -->
      <g transform="translate(308.8274 619.156562) scale(0.22 -0.22)">
       <use xlink:href="#DejaVuSans-35"/>
       <use xlink:href="#DejaVuSans-2e" x="63.623047"/>
       <use xlink:href="#DejaVuSans-30" x="95.410156"/>
      </g>
     </g>
    </g>
    <g id="xtick_4">
     <g id="line2d_4">
      <g>
       <use xlink:href="#m3385fdae1e" x="419.556483" y="595.44" style="stroke: #000000; stroke-width: 0.8"/>
      </g>
     </g>
     <g id="text_4">
      <!-- 7.5 -->
      <g transform="translate(402.063046 619.156562) scale(0.22 -0.22)">
       <defs>
        <path id="DejaVuSans-37" d="M 525 4666 
L 3525 4666 
L 3525 4397 
L 1831 0 
L 1172 0 
L 2766 4134 
L 525 4134 
L 525 4666 
z
" transform="scale(0.015625)"/>
       </defs>
       <use xlink:href="#DejaVuSans-37"/>
       <use xlink:href="#DejaVuSans-2e" x="63.623047"/>
       <use xlink:href="#DejaVuSans-35" x="95.410156"/>
      </g>
     </g>
    </g>
    <g id="xtick_5">
     <g id="line2d_5">
      <g>
       <use xlink:href="#m3385fdae1e" x="512.792129" y="595.44" style="stroke: #000000; stroke-width: 0.8"/>
      </g>
     </g>
     <g id="text_5">
      <!-- 10.0 -->
      <g transform="translate(488.299942 619.156562) scale(0.22 -0.22)">
       <defs>
        <path id="DejaVuSans-31" d="M 794 531 
L 1825 531 
L 1825 4091 
L 703 3866 
L 703 4441 
L 1819 4666 
L 2450 4666 
L 2450 531 
L 3481 531 
L 3481 0 
L 794 0 
L 794 531 
z
" transform="scale(0.015625)"/>
       </defs>
       <use xlink:href="#DejaVuSans-31"/>
       <use xlink:href="#DejaVuSans-30" x="63.623047"/>
       <use xlink:href="#DejaVuSans-2e" x="127.246094"/>
       <use xlink:href="#DejaVuSans-30" x="159.033203"/>
      </g>
     </g>
    </g>
    <g id="xtick_6">
     <g id="line2d_6">
      <g>
       <use xlink:href="#m3385fdae1e" x="606.027775" y="595.44" style="stroke: #000000; stroke-width: 0.8"/>
      </g>
     </g>
     <g id="text_6">
      <!-- 12.5 -->
      <g transform="translate(581.535588 619.156562) scale(0.22 -0.22)">
       <use xlink:href="#DejaVuSans-31"/>
       <use xlink:href="#DejaVuSans-32" x="63.623047"/>
       <use xlink:href="#DejaVuSans-2e" x="127.246094"/>
       <use xlink:href="#DejaVuSans-35" x="159.033203"/>
      </g>
     </g>
    </g>
    <g id="xtick_7">
     <g id="line2d_7">
      <g>
       <use xlink:href="#m3385fdae1e" x="699.263421" y="595.44" style="stroke: #000000; stroke-width: 0.8"/>
      </g>
     </g>
     <g id="text_7">
      <!-- 15.0 -->
      <g transform="translate(674.771234 619.156562) scale(0.22 -0.22)">
       <use xlink:href="#DejaVuSans-31"/>
       <use xlink:href="#DejaVuSans-35" x="63.623047"/>
       <use xlink:href="#DejaVuSans-2e" x="127.246094"/>
       <use xlink:href="#DejaVuSans-30" x="159.033203"/>
      </g>
     </g>
    </g>
    <g id="xtick_8">
     <g id="line2d_8">
      <g>
       <use xlink:href="#m3385fdae1e" x="792.499067" y="595.44" style="stroke: #000000; stroke-width: 0.8"/>
      </g>
     </g>
     <g id="text_8">
      <!-- 17.5 -->
      <g transform="translate(768.006879 619.156562) scale(0.22 -0.22)">
       <use xlink:href="#DejaVuSans-31"/>
       <use xlink:href="#DejaVuSans-37" x="63.623047"/>
       <use xlink:href="#DejaVuSans-2e" x="127.246094"/>
       <use xlink:href="#DejaVuSans-35" x="159.033203"/>
      </g>
     </g>
    </g>
    <g id="text_9">
     <!-- Time (days) -->
     <g transform="translate(429.186563 644.448437) scale(0.22 -0.22)">
      <defs>
       <path id="DejaVuSans-54" d="M -19 4666 
L 3928 4666 
L 3928 4134 
L 2272 4134 
L 2272 0 
L 1638 0 
L 1638 4134 
L -19 4134 
L -19 4666 
z
" transform="scale(0.015625)"/>
       <path id="DejaVuSans-69" d="M 603 3500 
L 1178 3500 
L 1178 0 
L 603 0 
L 603 3500 
z
M 603 4863 
L 1178 4863 
L 1178 4134 
L 603 4134 
L 603 4863 
z
" transform="scale(0.015625)"/>
       <path id="DejaVuSans-6d" d="M 3328 2828 
Q 3544 3216 3844 3400 
Q 4144 3584 4550 3584 
Q 5097 3584 5394 3201 
Q 5691 2819 5691 2113 
L 5691 0 
L 5113 0 
L 5113 2094 
Q 5113 2597 4934 2840 
Q 4756 3084 4391 3084 
Q 3944 3084 3684 2787 
Q 3425 2491 3425 1978 
L 3425 0 
L 2847 0 
L 2847 2094 
Q 2847 2600 2669 2842 
Q 2491 3084 2119 3084 
Q 1678 3084 1418 2786 
Q 1159 2488 1159 1978 
L 1159 0 
L 581 0 
L 581 3500 
L 1159 3500 
L 1159 2956 
Q 1356 3278 1631 3431 
Q 1906 3584 2284 3584 
Q 2666 3584 2933 3390 
Q 3200 3197 3328 2828 
z
" transform="scale(0.015625)"/>
       <path id="DejaVuSans-65" d="M 3597 1894 
L 3597 1613 
L 953 1613 
Q 991 1019 1311 708 
Q 1631 397 2203 397 
Q 2534 397 2845 478 
Q 3156 559 3463 722 
L 3463 178 
Q 3153 47 2828 -22 
Q 2503 -91 2169 -91 
Q 1331 -91 842 396 
Q 353 884 353 1716 
Q 353 2575 817 3079 
Q 1281 3584 2069 3584 
Q 2775 3584 3186 3129 
Q 3597 2675 3597 1894 
z
M 3022 2063 
Q 3016 2534 2758 2815 
Q 2500 3097 2075 3097 
Q 1594 3097 1305 2825 
Q 1016 2553 972 2059 
L 3022 2063 
z
" transform="scale(0.015625)"/>
       <path id="DejaVuSans-20" transform="scale(0.015625)"/>
       <path id="DejaVuSans-28" d="M 1984 4856 
Q 1566 4138 1362 3434 
Q 1159 2731 1159 2009 
Q 1159 1288 1364 580 
Q 1569 -128 1984 -844 
L 1484 -844 
Q 1016 -109 783 600 
Q 550 1309 550 2009 
Q 550 2706 781 3412 
Q 1013 4119 1484 4856 
L 1984 4856 
z
" transform="scale(0.015625)"/>
       <path id="DejaVuSans-64" d="M 2906 2969 
L 2906 4863 
L 3481 4863 
L 3481 0 
L 2906 0 
L 2906 525 
Q 2725 213 2448 61 
Q 2172 -91 1784 -91 
Q 1150 -91 751 415 
Q 353 922 353 1747 
Q 353 2572 751 3078 
Q 1150 3584 1784 3584 
Q 2172 3584 2448 3432 
Q 2725 3281 2906 2969 
z
M 947 1747 
Q 947 1113 1208 752 
Q 1469 391 1925 391 
Q 2381 391 2643 752 
Q 2906 1113 2906 1747 
Q 2906 2381 2643 2742 
Q 2381 3103 1925 3103 
Q 1469 3103 1208 2742 
Q 947 2381 947 1747 
z
" transform="scale(0.015625)"/>
       <path id="DejaVuSans-61" d="M 2194 1759 
Q 1497 1759 1228 1600 
Q 959 1441 959 1056 
Q 959 750 1161 570 
Q 1363 391 1709 391 
Q 2188 391 2477 730 
Q 2766 1069 2766 1631 
L 2766 1759 
L 2194 1759 
z
M 3341 1997 
L 3341 0 
L 2766 0 
L 2766 531 
Q 2569 213 2275 61 
Q 1981 -91 1556 -91 
Q 1019 -91 701 211 
Q 384 513 384 1019 
Q 384 1609 779 1909 
Q 1175 2209 1959 2209 
L 2766 2209 
L 2766 2266 
Q 2766 2663 2505 2880 
Q 2244 3097 1772 3097 
Q 1472 3097 1187 3025 
Q 903 2953 641 2809 
L 641 3341 
Q 956 3463 1253 3523 
Q 1550 3584 1831 3584 
Q 2591 3584 2966 3190 
Q 3341 2797 3341 1997 
z
" transform="scale(0.015625)"/>
       <path id="DejaVuSans-79" d="M 2059 -325 
Q 1816 -950 1584 -1140 
Q 1353 -1331 966 -1331 
L 506 -1331 
L 506 -850 
L 844 -850 
Q 1081 -850 1212 -737 
Q 1344 -625 1503 -206 
L 1606 56 
L 191 3500 
L 800 3500 
L 1894 763 
L 2988 3500 
L 3597 3500 
L 2059 -325 
z
" transform="scale(0.015625)"/>
       <path id="DejaVuSans-73" d="M 2834 3397 
L 2834 2853 
Q 2591 2978 2328 3040 
Q 2066 3103 1784 3103 
Q 1356 3103 1142 2972 
Q 928 2841 928 2578 
Q 928 2378 1081 2264 
Q 1234 2150 1697 2047 
L 1894 2003 
Q 2506 1872 2764 1633 
Q 3022 1394 3022 966 
Q 3022 478 2636 193 
Q 2250 -91 1575 -91 
Q 1294 -91 989 -36 
Q 684 19 347 128 
L 347 722 
Q 666 556 975 473 
Q 1284 391 1588 391 
Q 1994 391 2212 530 
Q 2431 669 2431 922 
Q 2431 1156 2273 1281 
Q 2116 1406 1581 1522 
L 1381 1569 
Q 847 1681 609 1914 
Q 372 2147 372 2553 
Q 372 3047 722 3315 
Q 1072 3584 1716 3584 
Q 2034 3584 2315 3537 
Q 2597 3491 2834 3397 
z
" transform="scale(0.015625)"/>
       <path id="DejaVuSans-29" d="M 513 4856 
L 1013 4856 
Q 1481 4119 1714 3412 
Q 1947 2706 1947 2009 
Q 1947 1309 1714 600 
Q 1481 -109 1013 -844 
L 513 -844 
Q 928 -128 1133 580 
Q 1338 1288 1338 2009 
Q 1338 2731 1133 3434 
Q 928 4138 513 4856 
z
" transform="scale(0.015625)"/>
      </defs>
      <use xlink:href="#DejaVuSans-54"/>
      <use xlink:href="#DejaVuSans-69" x="57.958984"/>
      <use xlink:href="#DejaVuSans-6d" x="85.742188"/>
      <use xlink:href="#DejaVuSans-65" x="183.154297"/>
      <use xlink:href="#DejaVuSans-20" x="244.677734"/>
      <use xlink:href="#DejaVuSans-28" x="276.464844"/>
      <use xlink:href="#DejaVuSans-64" x="315.478516"/>
      <use xlink:href="#DejaVuSans-61" x="378.955078"/>
      <use xlink:href="#DejaVuSans-79" x="440.234375"/>
      <use xlink:href="#DejaVuSans-73" x="499.414062"/>
      <use xlink:href="#DejaVuSans-29" x="551.513672"/>
     </g>
    </g>
   </g>
   <g id="matplotlib.axis_2">
    <g id="ytick_1">
     <g id="line2d_9">
      <defs>
       <path id="ma600d9e374" d="M 0 0 
L -3.5 0 
" style="stroke: #000000; stroke-width: 0.8"/>
      </defs>
      <g>
       <use xlink:href="#ma600d9e374" x="104.42" y="569.772691" style="stroke: #000000; stroke-width: 0.8"/>
      </g>
     </g>
     <g id="text_10">
      <!-- 0.00 -->
      <g transform="translate(48.435625 578.130972) scale(0.22 -0.22)">
       <use xlink:href="#DejaVuSans-30"/>
       <use xlink:href="#DejaVuSans-2e" x="63.623047"/>
       <use xlink:href="#DejaVuSans-30" x="95.410156"/>
       <use xlink:href="#DejaVuSans-30" x="159.033203"/>
      </g>
     </g>
    </g>
    <g id="ytick_2">
     <g id="line2d_10">
      <g>
       <use xlink:href="#ma600d9e374" x="104.42" y="495.830606" style="stroke: #000000; stroke-width: 0.8"/>
      </g>
     </g>
     <g id="text_11">
      <!-- 0.25 -->
      <g transform="translate(48.435625 504.188887) scale(0.22 -0.22)">
       <use xlink:href="#DejaVuSans-30"/>
       <use xlink:href="#DejaVuSans-2e" x="63.623047"/>
       <use xlink:href="#DejaVuSans-32" x="95.410156"/>
       <use xlink:href="#DejaVuSans-35" x="159.033203"/>
      </g>
     </g>
    </g>
    <g id="ytick_3">
     <g id="line2d_11">
      <g>
       <use xlink:href="#ma600d9e374" x="104.42" y="421.888521" style="stroke: #000000; stroke-width: 0.8"/>
      </g>
     </g>
     <g id="text_12">
      <!-- 0.50 -->
      <g transform="translate(48.435625 430.246803) scale(0.22 -0.22)">
       <use xlink:href="#DejaVuSans-30"/>
       <use xlink:href="#DejaVuSans-2e" x="63.623047"/>
       <use xlink:href="#DejaVuSans-35" x="95.410156"/>
       <use xlink:href="#DejaVuSans-30" x="159.033203"/>
      </g>
     </g>
    </g>
    <g id="ytick_4">
     <g id="line2d_12">
      <g>
       <use xlink:href="#ma600d9e374" x="104.42" y="347.946437" style="stroke: #000000; stroke-width: 0.8"/>
      </g>
     </g>
     <g id="text_13">
      <!-- 0.75 -->
      <g transform="translate(48.435625 356.304718) scale(0.22 -0.22)">
       <use xlink:href="#DejaVuSans-30"/>
       <use xlink:href="#DejaVuSans-2e" x="63.623047"/>
       <use xlink:href="#DejaVuSans-37" x="95.410156"/>
       <use xlink:href="#DejaVuSans-35" x="159.033203"/>
      </g>
     </g>
    </g>
    <g id="ytick_5">
     <g id="line2d_13">
      <g>
       <use xlink:href="#ma600d9e374" x="104.42" y="274.004352" style="stroke: #000000; stroke-width: 0.8"/>
      </g>
     </g>
     <g id="text_14">
      <!-- 1.00 -->
      <g transform="translate(48.435625 282.362633) scale(0.22 -0.22)">
       <use xlink:href="#DejaVuSans-31"/>
       <use xlink:href="#DejaVuSans-2e" x="63.623047"/>
       <use xlink:href="#DejaVuSans-30" x="95.410156"/>
       <use xlink:href="#DejaVuSans-30" x="159.033203"/>
      </g>
     </g>
    </g>
    <g id="ytick_6">
     <g id="line2d_14">
      <g>
       <use xlink:href="#ma600d9e374" x="104.42" y="200.062267" style="stroke: #000000; stroke-width: 0.8"/>
      </g>
     </g>
     <g id="text_15">
      <!-- 1.25 -->
      <g transform="translate(48.435625 208.420548) scale(0.22 -0.22)">
       <use xlink:href="#DejaVuSans-31"/>
       <use xlink:href="#DejaVuSans-2e" x="63.623047"/>
       <use xlink:href="#DejaVuSans-32" x="95.410156"/>
       <use xlink:href="#DejaVuSans-35" x="159.033203"/>
      </g>
     </g>
    </g>
    <g id="ytick_7">
     <g id="line2d_15">
      <g>
       <use xlink:href="#ma600d9e374" x="104.42" y="126.120182" style="stroke: #000000; stroke-width: 0.8"/>
      </g>
     </g>
     <g id="text_16">
      <!-- 1.50 -->
      <g transform="translate(48.435625 134.478464) scale(0.22 -0.22)">
       <use xlink:href="#DejaVuSans-31"/>
       <use xlink:href="#DejaVuSans-2e" x="63.623047"/>
       <use xlink:href="#DejaVuSans-35" x="95.410156"/>
       <use xlink:href="#DejaVuSans-30" x="159.033203"/>
      </g>
     </g>
    </g>
    <g id="ytick_8">
     <g id="line2d_16">
      <g>
       <use xlink:href="#ma600d9e374" x="104.42" y="52.178098" style="stroke: #000000; stroke-width: 0.8"/>
      </g>
     </g>
     <g id="text_17">
      <!-- 1.75 -->
      <g transform="translate(48.435625 60.536379) scale(0.22 -0.22)">
       <use xlink:href="#DejaVuSans-31"/>
       <use xlink:href="#DejaVuSans-2e" x="63.623047"/>
       <use xlink:href="#DejaVuSans-37" x="95.410156"/>
       <use xlink:href="#DejaVuSans-35" x="159.033203"/>
      </g>
     </g>
    </g>
    <g id="text_18">
     <!-- X:A -->
     <g transform="translate(39.860313 328.365312) rotate(-90) scale(0.22 -0.22)">
      <defs>
       <path id="DejaVuSans-58" d="M 403 4666 
L 1081 4666 
L 2241 2931 
L 3406 4666 
L 4084 4666 
L 2584 2425 
L 4184 0 
L 3506 0 
L 2194 1984 
L 872 0 
L 191 0 
L 1856 2491 
L 403 4666 
z
" transform="scale(0.015625)"/>
       <path id="DejaVuSans-3a" d="M 750 794 
L 1409 794 
L 1409 0 
L 750 0 
L 750 794 
z
M 750 3309 
L 1409 3309 
L 1409 2516 
L 750 2516 
L 750 3309 
z
" transform="scale(0.015625)"/>
       <path id="DejaVuSans-41" d="M 2188 4044 
L 1331 1722 
L 3047 1722 
L 2188 4044 
z
M 1831 4666 
L 2547 4666 
L 4325 0 
L 3669 0 
L 3244 1197 
L 1141 1197 
L 716 0 
L 50 0 
L 1831 4666 
z
" transform="scale(0.015625)"/>
      </defs>
      <use xlink:href="#DejaVuSans-58"/>
      <use xlink:href="#DejaVuSans-3a" x="68.505859"/>
      <use xlink:href="#DejaVuSans-41" x="102.197266"/>
     </g>
    </g>
   </g>
   <g id="line2d_17">
    <path d="M 139.849545 569.454545 
L 147.007029 476.641028 
L 154.164513 440.859416 
L 161.321997 427.455255 
L 168.479481 422.380524 
L 175.636965 420.382952 
L 182.794449 419.635425 
L 189.951933 419.294483 
L 197.109417 419.188487 
L 204.266901 419.094081 
L 211.424385 419.103947 
L 218.581869 419.074672 
L 225.739353 419.007849 
L 232.896837 419.064753 
L 240.05432 419.150808 
L 247.211804 419.032095 
L 254.369288 419.000631 
L 261.526772 419.157255 
L 268.684256 419.089763 
L 275.84174 418.939002 
L 282.999224 419.117245 
L 290.156708 419.21185 
L 297.314192 418.946564 
L 304.471676 419.04989 
L 311.62916 419.277479 
L 318.786644 419.027309 
L 325.944128 419.052439 
L 333.101612 419.219005 
L 340.259096 419.04137 
L 347.416579 419.069724 
L 354.574063 419.158543 
L 361.731547 419.01955 
L 368.889031 419.058893 
L 376.046515 419.163667 
L 383.203999 418.996951 
L 390.361483 419.00336 
L 397.518967 419.204064 
L 404.676451 419.052184 
L 411.833935 418.921615 
L 418.991419 419.184328 
L 426.148903 419.191116 
L 433.306387 418.955137 
L 440.463871 419.1376 
L 447.621354 419.196436 
L 454.778838 419.016554 
L 461.936322 419.128597 
L 469.093806 419.12428 
L 476.25129 419.019112 
L 483.408774 419.1182 
L 490.566258 419.098516 
L 497.723742 418.985754 
L 504.881226 419.097831 
L 512.03871 419.158192 
L 519.196194 418.941875 
L 526.353678 419.016818 
L 533.511162 419.266584 
L 540.668646 419.026946 
L 547.826129 418.947832 
L 554.983613 419.257939 
L 562.141097 419.128997 
L 569.298581 419.005784 
L 576.456065 419.200146 
L 583.613549 419.092614 
L 590.771033 419.039699 
L 597.928517 419.156261 
L 605.086001 419.049316 
L 612.243485 419.025763 
L 619.400969 419.15181 
L 626.558453 419.04322 
L 633.715937 418.955969 
L 640.873421 419.144997 
L 648.030904 419.164178 
L 655.188388 418.90054 
L 662.345872 419.054055 
L 669.503356 419.315501 
L 676.66084 419.014248 
L 683.818324 419.032537 
L 690.975808 419.266577 
L 698.133292 419.060733 
L 705.290776 419.07485 
L 712.44826 419.159953 
L 719.605744 419.032941 
L 726.763228 419.077236 
L 733.920712 419.131966 
L 741.078196 418.995197 
L 748.23568 419.040694 
L 755.393163 419.186781 
L 762.550647 418.992995 
L 769.708131 418.923155 
L 776.865615 419.209536 
L 784.023099 419.194182 
L 791.180583 419.016157 
L 798.338067 419.157144 
L 805.495551 419.112469 
L 812.653035 419.040444 
L 819.810519 419.132095 
L 826.968003 419.058011 
L 834.125487 419.011269 
L 841.282971 419.129894 
L 848.440455 419.121131 
" clip-path="url(#p13386ddcbc)" style="fill: none; stroke: #d0e1f2; stroke-width: 1.5; stroke-linecap: square"/>
   </g>
   <g id="line2d_18">
    <path d="M 139.849545 95.760921 
L 147.007029 109.92006 
L 154.164513 125.98289 
L 161.321997 136.336664 
L 168.479481 142.199034 
L 175.636965 145.322346 
L 182.794449 146.944354 
L 189.951933 147.762614 
L 197.109417 148.169205 
L 204.266901 148.377344 
L 211.424385 148.471398 
L 218.581869 148.512506 
L 225.739353 148.526235 
L 232.896837 148.557282 
L 240.05432 148.585501 
L 247.211804 148.537096 
L 254.369288 148.528701 
L 261.526772 148.612973 
L 268.684256 148.578031 
L 275.84174 148.498497 
L 282.999224 148.596154 
L 290.156708 148.647666 
L 297.314192 148.503589 
L 304.471676 148.560322 
L 311.62916 148.684443 
L 318.786644 148.547878 
L 325.944128 148.561816 
L 333.101612 148.652829 
L 340.259096 148.555646 
L 347.416579 148.571243 
L 354.574063 148.619836 
L 361.731547 148.543745 
L 368.889031 148.565313 
L 376.046515 148.622646 
L 383.203999 148.531436 
L 390.361483 148.534978 
L 397.518967 148.644716 
L 404.676451 148.561691 
L 411.833935 148.490479 
L 418.991419 148.63393 
L 426.148903 148.637466 
L 433.306387 148.508716 
L 440.463871 148.608463 
L 447.621354 148.640429 
L 454.778838 148.542111 
L 461.936322 148.603492 
L 469.093806 148.60106 
L 476.25129 148.543507 
L 483.408774 148.597785 
L 490.566258 148.586977 
L 497.723742 148.525281 
L 504.881226 148.586631 
L 512.03871 148.61962 
L 519.196194 148.501428 
L 526.353678 148.542421 
L 533.511162 148.678806 
L 540.668646 148.547921 
L 547.826129 148.504892 
L 554.983613 148.674104 
L 562.141097 148.603492 
L 569.298581 148.536313 
L 576.456065 148.642617 
L 583.613549 148.583693 
L 590.771033 148.554789 
L 597.928517 148.61862 
L 605.086001 148.560035 
L 612.243485 148.547163 
L 619.400969 148.616173 
L 626.558453 148.556742 
L 633.715937 148.509062 
L 640.873421 148.612427 
L 648.030904 148.622857 
L 655.188388 148.479022 
L 662.345872 148.562866 
L 669.503356 148.705382 
L 676.66084 148.540909 
L 683.818324 148.551095 
L 690.975808 148.678821 
L 698.133292 148.566215 
L 705.290776 148.574057 
L 712.44826 148.620615 
L 719.605744 148.55106 
L 726.763228 148.575347 
L 733.920712 148.6053 
L 741.078196 148.530437 
L 748.23568 148.555357 
L 755.393163 148.635282 
L 762.550647 148.529375 
L 769.708131 148.491299 
L 776.865615 148.647663 
L 784.023099 148.639098 
L 791.180583 148.54189 
L 798.338067 148.619106 
L 805.495551 148.594576 
L 812.653035 148.555169 
L 819.810519 148.605392 
L 826.968003 148.564795 
L 834.125487 148.539214 
L 841.282971 148.604173 
L 848.440455 148.599338 
" clip-path="url(#p13386ddcbc)" style="fill: none; stroke: #fdd9b4; stroke-width: 1.5; stroke-linecap: square"/>
   </g>
   <g id="line2d_19">
    <path d="M 139.849545 569.454545 
L 147.007029 454.161429 
L 154.164513 424.058867 
L 161.321997 415.606638 
L 168.479481 413.134711 
L 175.636965 412.397492 
L 182.794449 412.132469 
L 189.951933 412.105355 
L 197.109417 412.036727 
L 204.266901 412.060408 
L 211.424385 412.047272 
L 218.581869 411.941217 
L 225.739353 412.054873 
L 232.896837 412.177126 
L 240.05432 411.985962 
L 247.211804 412.066609 
L 254.369288 412.126428 
L 261.526772 411.974627 
L 268.684256 412.117575 
L 275.84174 412.057087 
L 282.999224 411.952055 
L 290.156708 412.169155 
L 297.314192 412.02486 
L 304.471676 411.939136 
L 311.62916 412.230483 
L 318.786644 412.013354 
L 325.944128 411.991548 
L 333.101612 412.234793 
L 340.259096 411.989188 
L 347.416579 412.084703 
L 354.574063 412.116973 
L 361.731547 411.981955 
L 368.889031 412.137879 
L 376.046515 412.025663 
L 383.203999 411.9882 
L 390.361483 412.171707 
L 397.518967 411.968334 
L 404.676451 411.990431 
L 411.833935 412.224728 
L 418.991419 411.946988 
L 426.148903 412.02698 
L 433.306387 412.227698 
L 440.463871 411.958532 
L 447.621354 412.114665 
L 454.778838 412.111775 
L 461.936322 411.98676 
L 469.093806 412.156929 
L 476.25129 412.012339 
L 483.408774 412.02152 
L 490.566258 412.14951 
L 497.723742 411.949779 
L 504.881226 412.049034 
L 512.03871 412.165804 
L 519.196194 411.907994 
L 526.353678 412.085976 
L 533.511162 412.179303 
L 540.668646 411.925261 
L 547.826129 412.156602 
L 554.983613 412.099119 
L 562.141097 411.987601 
L 569.298581 412.17974 
L 576.456065 412.006878 
L 583.613549 412.048496 
L 590.771033 412.120171 
L 597.928517 411.95662 
L 605.086001 412.094643 
L 612.243485 412.090296 
L 619.400969 411.912916 
L 626.558453 412.145073 
L 633.715937 412.096033 
L 640.873421 411.910899 
L 648.030904 412.206363 
L 655.188388 412.065322 
L 662.345872 411.987864 
L 669.503356 412.207063 
L 676.66084 412.000773 
L 683.818324 412.071695 
L 690.975808 412.102746 
L 698.133292 411.972066 
L 705.290776 412.122735 
L 712.44826 412.03497 
L 719.605744 411.949809 
L 726.763228 412.176797 
L 733.920712 412.007629 
L 741.078196 411.935666 
L 748.23568 412.242182 
L 755.393163 412.005287 
L 762.550647 411.99859 
L 769.708131 412.230098 
L 776.865615 411.986589 
L 784.023099 412.095792 
L 791.180583 412.097135 
L 798.338067 411.98609 
L 805.495551 412.139632 
L 812.653035 412.008291 
L 819.810519 411.994421 
L 826.968003 412.171354 
L 834.125487 411.975095 
L 841.282971 412.021816 
L 848.440455 412.180495 
" clip-path="url(#p13386ddcbc)" style="fill: none; stroke: #b7d4ea; stroke-width: 1.5; stroke-linecap: square"/>
   </g>
   <g id="line2d_20">
    <path d="M 139.849545 95.760921 
L 147.007029 98.648475 
L 154.164513 101.421055 
L 161.321997 104.083307 
L 168.479481 106.63962 
L 175.636965 109.094226 
L 182.794449 111.451199 
L 189.951933 113.714457 
L 197.109417 115.887756 
L 204.266901 117.9747 
L 211.424385 119.978747 
L 218.581869 121.903212 
L 225.739353 123.751279 
L 232.896837 125.525998 
L 240.05432 127.230297 
L 247.211804 128.866989 
L 254.369288 130.438768 
L 261.526772 131.948221 
L 268.684256 133.397834 
L 275.84174 134.789987 
L 282.999224 136.126968 
L 290.156708 137.410976 
L 297.314192 138.644111 
L 304.471676 139.828401 
L 311.62916 140.965789 
L 318.786644 142.058132 
L 325.944128 143.107225 
L 333.101612 144.114786 
L 340.259096 145.082458 
L 347.416579 146.01183 
L 354.574063 146.90442 
L 361.731547 147.761686 
L 368.889031 148.585032 
L 376.046515 149.375799 
L 383.203999 150.135282 
L 390.361483 150.864723 
L 397.518967 151.565305 
L 404.676451 152.238179 
L 411.833935 152.884443 
L 418.991419 153.505143 
L 426.148903 154.101301 
L 433.306387 154.673886 
L 440.463871 155.223826 
L 447.621354 155.752027 
L 454.778838 156.259342 
L 461.936322 156.746601 
L 469.093806 157.214599 
L 476.25129 157.664094 
L 483.408774 158.095823 
L 490.566258 158.510488 
L 497.723742 158.90876 
L 504.881226 159.291293 
L 512.03871 159.658708 
L 519.196194 160.011598 
L 526.353678 160.350547 
L 533.511162 160.6761 
L 540.668646 160.988785 
L 547.826129 161.289118 
L 554.983613 161.577581 
L 562.141097 161.854645 
L 569.298581 162.120765 
L 576.456065 162.376366 
L 583.613549 162.62187 
L 590.771033 162.857675 
L 597.928517 163.084161 
L 605.086001 163.301701 
L 612.243485 163.510646 
L 619.400969 163.711335 
L 626.558453 163.904099 
L 633.715937 164.089245 
L 640.873421 164.267076 
L 648.030904 164.437886 
L 655.188388 164.601944 
L 662.345872 164.759523 
L 669.503356 164.910879 
L 676.66084 165.056253 
L 683.818324 165.195887 
L 690.975808 165.330005 
L 698.133292 165.458824 
L 705.290776 165.582557 
L 712.44826 165.7014 
L 719.605744 165.815549 
L 726.763228 165.925193 
L 733.920712 166.030502 
L 741.078196 166.131653 
L 748.23568 166.228812 
L 755.393163 166.322128 
L 762.550647 166.411761 
L 769.708131 166.497856 
L 776.865615 166.580546 
L 784.023099 166.659973 
L 791.180583 166.736263 
L 798.338067 166.809538 
L 805.495551 166.879922 
L 812.653035 166.947524 
L 819.810519 167.012456 
L 826.968003 167.074826 
L 834.125487 167.134729 
L 841.282971 167.192269 
L 848.440455 167.247537 
" clip-path="url(#p13386ddcbc)" style="fill: none; stroke: #fdc38d; stroke-width: 1.5; stroke-linecap: square"/>
   </g>
   <g id="line2d_21">
    <path d="M 139.849545 569.454545 
L 147.007029 451.911221 
L 154.164513 427.727176 
L 161.321997 422.510058 
L 168.479481 421.296701 
L 175.636965 420.97198 
L 182.794449 420.911469 
L 189.951933 420.875964 
L 197.109417 420.870357 
L 204.266901 420.739583 
L 211.424385 421.057011 
L 218.581869 420.845576 
L 225.739353 420.98195 
L 232.896837 420.85015 
L 240.05432 420.929275 
L 247.211804 420.808867 
L 254.369288 420.974139 
L 261.526772 420.681315 
L 268.684256 421.046212 
L 275.84174 420.88101 
L 282.999224 420.988327 
L 290.156708 420.857622 
L 297.314192 420.929691 
L 304.471676 420.821274 
L 311.62916 420.957652 
L 318.786644 420.699447 
L 325.944128 421.036035 
L 333.101612 420.86867 
L 340.259096 420.983447 
L 347.416579 420.852887 
L 354.574063 420.938346 
L 361.731547 420.814254 
L 368.889031 420.965277 
L 376.046515 420.706213 
L 383.203999 421.023643 
L 390.361483 420.870298 
L 397.518967 420.980453 
L 404.676451 420.851934 
L 411.833935 420.942845 
L 418.991419 420.812597 
L 426.148903 420.966236 
L 433.306387 420.714256 
L 440.463871 421.014125 
L 447.621354 420.869202 
L 454.778838 420.977213 
L 461.936322 420.850595 
L 469.093806 420.946416 
L 476.25129 420.810647 
L 483.408774 420.967404 
L 490.566258 420.721404 
L 497.723742 421.005747 
L 504.881226 420.868834 
L 512.03871 420.974194 
L 519.196194 420.849718 
L 526.353678 420.948885 
L 533.511162 420.809462 
L 540.668646 420.967745 
L 547.826129 420.728012 
L 554.983613 420.998632 
L 562.141097 420.86835 
L 569.298581 420.971375 
L 576.456065 420.849006 
L 583.613549 420.950644 
L 590.771033 420.808651 
L 597.928517 420.967714 
L 605.086001 420.734094 
L 612.243485 420.992485 
L 619.400969 420.867888 
L 626.558453 420.968782 
L 633.715937 420.848453 
L 640.873421 420.951864 
L 648.030904 420.808173 
L 655.188388 420.967393 
L 662.345872 420.739697 
L 669.503356 420.987173 
L 676.66084 420.86739 
L 683.818324 420.966417 
L 690.975808 420.848004 
L 698.133292 420.952693 
L 705.290776 420.807943 
L 712.44826 420.966889 
L 719.605744 420.744862 
L 726.763228 420.982568 
L 733.920712 420.866853 
L 741.078196 420.964277 
L 748.23568 420.847629 
L 755.393163 420.953236 
L 762.550647 420.807904 
L 769.708131 420.966269 
L 776.865615 420.749627 
L 784.023099 420.97857 
L 791.180583 420.866268 
L 798.338067 420.962352 
L 805.495551 420.847301 
L 812.653035 420.953571 
L 819.810519 420.808009 
L 826.968003 420.965584 
L 834.125487 420.754025 
L 841.282971 420.975097 
L 848.440455 420.951171 
" clip-path="url(#p13386ddcbc)" style="fill: none; stroke: #94c4df; stroke-width: 1.5; stroke-linecap: square"/>
   </g>
   <g id="line2d_22">
    <path d="M 139.849545 95.760921 
L 147.007029 130.580188 
L 154.164513 142.398323 
L 161.321997 146.397273 
L 168.479481 147.739557 
L 175.636965 148.192661 
L 182.794449 148.335199 
L 189.951933 148.388467 
L 197.109417 148.397213 
L 204.266901 148.407724 
L 211.424385 148.409297 
L 218.581869 148.405982 
L 225.739353 148.413287 
L 232.896837 148.409447 
L 240.05432 148.412747 
L 247.211804 148.408337 
L 254.369288 148.414666 
L 261.526772 148.403438 
L 268.684256 148.4175 
L 275.84174 148.411173 
L 282.999224 148.415264 
L 290.156708 148.410265 
L 297.314192 148.413019 
L 304.471676 148.408869 
L 311.62916 148.414092 
L 318.786644 148.40416 
L 325.944128 148.417117 
L 333.101612 148.410699 
L 340.259096 148.415079 
L 347.416579 148.410084 
L 354.574063 148.413351 
L 361.731547 148.408599 
L 368.889031 148.414385 
L 376.046515 148.404419 
L 383.203999 148.416639 
L 390.361483 148.410762 
L 397.518967 148.414964 
L 404.676451 148.410047 
L 411.833935 148.413523 
L 418.991419 148.408535 
L 426.148903 148.414422 
L 433.306387 148.40473 
L 440.463871 148.416272 
L 447.621354 148.410718 
L 454.778838 148.41484 
L 461.936322 148.409996 
L 469.093806 148.413659 
L 476.25129 148.40846 
L 483.408774 148.414466 
L 490.566258 148.405006 
L 497.723742 148.415948 
L 504.881226 148.410703 
L 512.03871 148.414724 
L 519.196194 148.409962 
L 526.353678 148.413754 
L 533.511162 148.408414 
L 540.668646 148.414479 
L 547.826129 148.405261 
L 554.983613 148.415674 
L 562.141097 148.410684 
L 569.298581 148.414616 
L 576.456065 148.409934 
L 583.613549 148.413821 
L 590.771033 148.408383 
L 597.928517 148.414478 
L 605.086001 148.405496 
L 612.243485 148.415436 
L 619.400969 148.410665 
L 626.558453 148.414516 
L 633.715937 148.409913 
L 640.873421 148.413868 
L 648.030904 148.408364 
L 655.188388 148.414466 
L 662.345872 148.405712 
L 669.503356 148.415231 
L 676.66084 148.410645 
L 683.818324 148.414425 
L 690.975808 148.409896 
L 698.133292 148.4139 
L 705.290776 148.408355 
L 712.44826 148.414447 
L 719.605744 148.405911 
L 726.763228 148.415054 
L 733.920712 148.410624 
L 741.078196 148.414343 
L 748.23568 148.409881 
L 755.393163 148.413921 
L 762.550647 148.408353 
L 769.708131 148.414423 
L 776.865615 148.406095 
L 784.023099 148.414899 
L 791.180583 148.410601 
L 798.338067 148.414269 
L 805.495551 148.409868 
L 812.653035 148.413933 
L 819.810519 148.408357 
L 826.968003 148.414396 
L 834.125487 148.406265 
L 841.282971 148.414765 
L 848.440455 148.413868 
" clip-path="url(#p13386ddcbc)" style="fill: none; stroke: #fda762; stroke-width: 1.5; stroke-linecap: square"/>
   </g>
   <g id="line2d_23">
    <path d="M 139.849545 569.454545 
L 147.007029 566.601633 
L 154.164513 563.909572 
L 161.321997 561.276092 
L 168.479481 558.664193 
L 175.636965 556.06148 
L 182.794449 553.459091 
L 189.951933 550.854008 
L 197.109417 548.247627 
L 204.266901 545.634353 
L 211.424385 543.015067 
L 218.581869 540.393569 
L 225.739353 537.766697 
L 232.896837 535.126835 
L 240.05432 532.480034 
L 247.211804 529.831679 
L 254.369288 527.175458 
L 261.526772 524.499758 
L 268.684256 521.816839 
L 275.84174 519.134022 
L 282.999224 516.440094 
L 290.156708 513.720445 
L 297.314192 510.994702 
L 304.471676 508.267602 
L 311.62916 505.520985 
L 318.786644 502.752435 
L 325.944128 499.97834 
L 333.101612 497.193608 
L 340.259096 494.383662 
L 347.416579 491.560471 
L 354.574063 488.727134 
L 361.731547 485.872515 
L 368.889031 482.995365 
L 376.046515 480.10622 
L 383.203999 477.202176 
L 390.361483 474.269204 
L 397.518967 471.313907 
L 404.676451 468.34738 
L 411.833935 465.362344 
L 418.991419 462.340195 
L 426.148903 459.295635 
L 433.306387 456.239614 
L 440.463871 453.15804 
L 447.621354 450.034937 
L 454.778838 446.892218 
L 461.936322 443.731299 
L 469.093806 440.532201 
L 476.25129 437.299722 
L 483.408774 434.045344 
L 490.566258 430.760119 
L 497.723742 427.432145 
L 504.881226 424.075177 
L 512.03871 420.690404 
L 519.196194 417.263092 
L 526.353678 413.791531 
L 533.511162 410.290564 
L 540.668646 406.756578 
L 547.826129 403.168602 
L 554.983613 399.532614 
L 562.141097 395.866404 
L 569.298581 392.160564 
L 576.456065 388.387966 
L 583.613549 384.567338 
L 590.771033 380.71117 
L 597.928517 376.799395 
L 605.086001 372.817727 
L 612.243485 368.789114 
L 619.400969 364.710149 
L 626.558453 360.557566 
L 633.715937 356.341233 
L 640.873421 352.069662 
L 648.030904 347.728871 
L 655.188388 343.304758 
L 662.345872 338.814321 
L 669.503356 334.258022 
L 676.66084 329.614189 
L 683.818324 324.874166 
L 690.975808 320.061415 
L 698.133292 315.172847 
L 705.290776 310.175045 
L 712.44826 305.064678 
L 719.605744 299.872892 
L 726.763228 294.588863 
L 733.920712 289.167299 
L 741.078196 283.626769 
L 748.23568 277.986046 
L 755.393163 272.216428 
L 762.550647 266.293679 
L 769.708131 260.243161 
L 776.865615 254.056808 
L 784.023099 247.70195 
L 791.180583 241.184013 
L 798.338067 234.507895 
L 805.495551 227.655061 
L 812.653035 220.598746 
L 819.810519 213.346327 
L 826.968003 205.895229 
L 834.125487 198.225787 
L 841.282971 190.308734 
L 848.440455 182.143682 
" clip-path="url(#p13386ddcbc)" style="fill: none; stroke: #6aaed6; stroke-width: 1.5; stroke-linecap: square"/>
   </g>
   <g id="line2d_24">
    <path d="M 139.849545 95.760921 
L 147.007029 71.760834 
L 154.164513 62.001026 
L 161.321997 58.08325 
L 168.479481 56.53936 
L 175.636965 56.206989 
L 182.794449 56.282357 
L 189.951933 56.523095 
L 197.109417 57.110874 
L 204.266901 57.555669 
L 211.424385 57.992986 
L 218.581869 58.842276 
L 225.739353 59.848883 
L 232.896837 60.326884 
L 240.05432 60.907335 
L 247.211804 62.156186 
L 254.369288 63.523207 
L 261.526772 63.952415 
L 268.684256 64.649004 
L 275.84174 66.354311 
L 282.999224 68.074544 
L 290.156708 68.496926 
L 297.314192 69.47731 
L 304.471676 71.503017 
L 311.62916 72.984723 
L 318.786644 73.751815 
L 325.944128 75.310807 
L 333.101612 77.268628 
L 340.259096 78.404865 
L 347.416579 79.807355 
L 354.574063 81.792585 
L 361.731547 83.468286 
L 368.889031 84.78535 
L 376.046515 86.674459 
L 383.203999 88.951963 
L 390.361483 90.524314 
L 397.518967 91.987521 
L 404.676451 94.284993 
L 411.833935 96.900643 
L 418.991419 98.430035 
L 426.148903 100.07961 
L 433.306387 102.744735 
L 440.463871 105.426684 
L 447.621354 106.993968 
L 454.778838 109.127919 
L 461.936322 111.993148 
L 469.093806 114.231565 
L 476.25129 116.253547 
L 483.408774 118.918102 
L 490.566258 121.685448 
L 497.723742 123.829561 
L 504.881226 126.335035 
L 512.03871 129.349127 
L 519.196194 132.002018 
L 526.353678 134.273498 
L 533.511162 137.154003 
L 540.668646 140.503658 
L 547.826129 143.144996 
L 554.983613 145.528502 
L 562.141097 148.755032 
L 569.298581 152.380955 
L 576.456065 154.982028 
L 583.613549 157.687262 
L 590.771033 161.24353 
L 597.928517 164.699682 
L 605.086001 167.428098 
L 612.243485 170.67816 
L 619.400969 174.379616 
L 626.558453 177.525911 
L 633.715937 180.694947 
L 640.873421 184.372455 
L 648.030904 188.047626 
L 655.188388 191.233656 
L 662.345872 194.763509 
L 669.503356 198.767882 
L 676.66084 202.49814 
L 683.818324 205.764771 
L 690.975808 209.572104 
L 698.133292 213.933224 
L 705.290776 217.779358 
L 712.44826 221.162539 
L 719.605744 225.260048 
L 726.763228 229.860778 
L 733.920712 233.670476 
L 741.078196 237.443696 
L 748.23568 241.878234 
L 755.393163 246.311548 
L 762.550647 250.246551 
L 769.708131 254.5397 
L 776.865615 259.149616 
L 784.023099 263.446169 
L 791.180583 267.761553 
L 798.338067 272.385948 
L 805.495551 277.10677 
L 812.653035 281.567374 
L 819.810519 286.137663 
L 826.968003 290.965101 
L 834.125487 295.906982 
L 841.282971 300.669119 
L 848.440455 305.499016 
" clip-path="url(#p13386ddcbc)" style="fill: none; stroke: #fd8c3b; stroke-width: 1.5; stroke-linecap: square"/>
   </g>
   <g id="line2d_25">
    <path d="M 139.849545 569.454545 
L 147.007029 566.935897 
L 154.164513 564.709026 
L 161.321997 562.557155 
L 168.479481 560.424628 
L 175.636965 558.302818 
L 182.794449 556.18009 
L 189.951933 554.06494 
L 197.109417 551.943757 
L 204.266901 549.822898 
L 211.424385 547.725421 
L 218.581869 545.619618 
L 225.739353 543.496932 
L 232.896837 541.401058 
L 240.05432 539.287214 
L 247.211804 537.186139 
L 254.369288 535.083212 
L 261.526772 532.977263 
L 268.684256 530.890624 
L 275.84174 528.781513 
L 282.999224 526.681529 
L 290.156708 524.617867 
L 297.314192 522.510064 
L 304.471676 520.421442 
L 311.62916 518.335765 
L 318.786644 516.244076 
L 325.944128 514.164427 
L 333.101612 512.072759 
L 340.259096 509.998523 
L 347.416579 507.915598 
L 354.574063 505.823823 
L 361.731547 503.769497 
L 368.889031 501.690484 
L 376.046515 499.605047 
L 383.203999 497.541016 
L 390.361483 495.454924 
L 397.518967 493.386211 
L 404.676451 491.30134 
L 411.833935 489.224479 
L 418.991419 487.151084 
L 426.148903 485.045461 
L 433.306387 482.970165 
L 440.463871 480.884165 
L 447.621354 478.757865 
L 454.778838 476.651789 
L 461.936322 474.503484 
L 469.093806 472.353736 
L 476.25129 470.165451 
L 483.408774 467.953156 
L 490.566258 465.714717 
L 497.723742 463.398375 
L 504.881226 461.053609 
L 512.03871 458.603605 
L 519.196194 456.07771 
L 526.353678 453.431692 
L 533.511162 450.611487 
L 540.668646 447.643212 
L 547.826129 444.365452 
L 554.983613 440.827946 
L 562.141097 436.833004 
L 569.298581 432.372654 
L 576.456065 427.29601 
L 583.613549 421.604297 
L 590.771033 415.324906 
L 597.928517 408.57099 
L 605.086001 401.501 
L 612.243485 394.228638 
L 619.400969 386.839374 
L 626.558453 379.376151 
L 633.715937 371.877701 
L 640.873421 364.352083 
L 648.030904 356.818528 
L 655.188388 349.275651 
L 662.345872 341.734746 
L 669.503356 334.191444 
L 676.66084 326.653815 
L 683.818324 319.118059 
L 690.975808 311.586625 
L 698.133292 304.062867 
L 705.290776 296.540059 
L 712.44826 289.027151 
L 719.605744 281.518677 
L 726.763228 274.012925 
L 733.920712 266.519326 
L 741.078196 259.026522 
L 748.23568 251.542154 
L 755.393163 244.064933 
L 762.550647 236.590409 
L 769.708131 229.126695 
L 776.865615 221.665502 
L 784.023099 214.212274 
L 791.180583 206.76597 
L 798.338067 199.322386 
L 805.495551 191.889964 
L 812.653035 184.4604 
L 819.810519 177.036144 
L 826.968003 169.622905 
L 834.125487 162.209941 
L 841.282971 154.806521 
L 848.440455 147.409639 
" clip-path="url(#p13386ddcbc)" style="fill: none; stroke: #4a98c9; stroke-width: 1.5; stroke-linecap: square"/>
   </g>
   <g id="line2d_26">
    <path d="M 139.849545 95.760921 
L 147.007029 81.01082 
L 154.164513 76.975071 
L 161.321997 75.877573 
L 168.479481 75.501359 
L 175.636965 75.485326 
L 182.794449 75.362615 
L 189.951933 75.476188 
L 197.109417 75.266779 
L 204.266901 74.992678 
L 211.424385 75.621525 
L 218.581869 75.841844 
L 225.739353 75.2757 
L 232.896837 75.724939 
L 240.05432 75.383684 
L 247.211804 75.486715 
L 254.369288 75.445372 
L 261.526772 75.204941 
L 268.684256 75.689825 
L 275.84174 75.165595 
L 282.999224 74.929071 
L 290.156708 76.172368 
L 297.314192 75.516734 
L 304.471676 75.529788 
L 311.62916 75.612808 
L 318.786644 75.393474 
L 325.944128 75.598608 
L 333.101612 75.25202 
L 340.259096 75.559245 
L 347.416579 75.452805 
L 354.574063 74.906998 
L 361.731547 75.896796 
L 368.889031 75.847383 
L 376.046515 75.46956 
L 383.203999 75.957031 
L 390.361483 75.578632 
L 397.518967 75.937237 
L 404.676451 75.710283 
L 411.833935 75.910288 
L 418.991419 76.408068 
L 426.148903 75.769099 
L 433.306387 76.662288 
L 440.463871 77.515655 
L 447.621354 77.165219 
L 454.778838 78.192704 
L 461.936322 78.312078 
L 469.093806 79.286013 
L 476.25129 79.903997 
L 483.408774 80.993269 
L 490.566258 82.828755 
L 497.723742 83.839955 
L 504.881226 86.398858 
L 512.03871 88.342302 
L 519.196194 91.486989 
L 526.353678 95.318833 
L 533.511162 99.207588 
L 540.668646 105.643448 
L 547.826129 111.417728 
L 554.983613 120.612429 
L 562.141097 130.10443 
L 569.298581 142.970917 
L 576.456065 157.068081 
L 583.613549 173.368926 
L 590.771033 190.152149 
L 597.928517 205.158611 
L 605.086001 218.274276 
L 612.243485 228.521675 
L 619.400969 236.311915 
L 626.558453 241.439714 
L 633.715937 245.436669 
L 640.873421 247.686731 
L 648.030904 249.681984 
L 655.188388 250.594308 
L 662.345872 251.680923 
L 669.503356 251.983174 
L 676.66084 252.603531 
L 683.818324 252.796187 
L 690.975808 252.866204 
L 698.133292 253.338109 
L 705.290776 253.006284 
L 712.44826 253.370816 
L 719.605744 253.49772 
L 726.763228 253.037558 
L 733.920712 253.628431 
L 741.078196 253.314725 
L 748.23568 253.368179 
L 755.393163 253.60087 
L 762.550647 253.227836 
L 769.708131 253.634036 
L 776.865615 253.41243 
L 784.023099 253.478962 
L 791.180583 253.674931 
L 798.338067 253.25868 
L 805.495551 253.695801 
L 812.653035 253.561259 
L 819.810519 253.248216 
L 826.968003 253.785721 
L 834.125487 253.298135 
L 841.282971 253.358748 
L 848.440455 253.47958 
" clip-path="url(#p13386ddcbc)" style="fill: none; stroke: #f3701b; stroke-width: 1.5; stroke-linecap: square"/>
   </g>
   <g id="line2d_27">
    <path d="M 139.849545 569.454545 
L 147.007029 566.607971 
L 154.164513 563.914889 
L 161.321997 561.268968 
L 168.479481 558.635646 
L 175.636965 556.006305 
L 182.794449 553.374099 
L 189.951933 550.740705 
L 197.109417 548.099733 
L 204.266901 545.455766 
L 211.424385 542.809547 
L 218.581869 540.151604 
L 225.739353 537.487218 
L 232.896837 534.822561 
L 240.05432 532.144266 
L 247.211804 529.453958 
L 254.369288 526.765607 
L 261.526772 524.064198 
L 268.684256 521.343766 
L 275.84174 518.625185 
L 282.999224 515.894097 
L 290.156708 513.141927 
L 297.314192 510.388131 
L 304.471676 507.618869 
L 311.62916 504.831663 
L 318.786644 502.038737 
L 325.944128 499.226963 
L 333.101612 496.398267 
L 340.259096 493.561963 
L 347.416579 490.704315 
L 354.574063 487.826462 
L 361.731547 484.941855 
L 368.889031 482.035406 
L 376.046515 479.101638 
L 383.203999 476.16162 
L 390.361483 473.200638 
L 397.518967 470.207382 
L 404.676451 467.205008 
L 411.833935 464.179183 
L 418.991419 461.122606 
L 426.148903 458.052331 
L 433.306387 454.954046 
L 440.463871 451.826813 
L 447.621354 448.682402 
L 454.778838 445.506259 
L 461.936322 442.29858 
L 469.093806 439.073007 
L 476.25129 435.813751 
L 483.408774 432.515346 
L 490.566258 429.199366 
L 497.723742 425.850117 
L 504.881226 422.453263 
L 512.03871 419.036099 
L 519.196194 415.58374 
L 526.353678 412.081794 
L 533.511162 408.554019 
L 540.668646 404.984661 
L 547.826129 401.367529 
L 554.983613 397.718753 
L 562.141097 394.022068 
L 569.298581 390.275374 
L 576.456065 386.493512 
L 583.613549 382.659177 
L 590.771033 378.766066 
L 597.928517 374.836492 
L 605.086001 370.853095 
L 612.243485 366.797466 
L 619.400969 362.70177 
L 626.558453 358.550858 
L 633.715937 354.318576 
L 640.873421 350.038426 
L 648.030904 345.694188 
L 655.188388 341.267772 
L 662.345872 336.783721 
L 669.503356 332.223443 
L 676.66084 327.578393 
L 683.818324 322.866476 
L 690.975808 318.068073 
L 698.133292 313.17332 
L 705.290776 308.205038 
L 712.44826 303.144076 
L 719.605744 297.964667 
L 726.763228 292.703697 
L 733.920712 287.348038 
L 741.078196 281.850584 
L 748.23568 276.255292 
L 755.393163 270.555267 
L 762.550647 264.699497 
L 769.708131 258.727608 
L 776.865615 252.625061 
L 784.023099 246.359075 
L 791.180583 239.955718 
L 798.338067 233.39385 
L 805.495551 226.650621 
L 812.653035 219.745264 
L 819.810519 212.658404 
L 826.968003 205.352936 
L 834.125487 197.855503 
L 841.282971 190.160743 
L 848.440455 182.211725 
" clip-path="url(#p13386ddcbc)" style="fill: none; stroke: #2e7ebc; stroke-width: 1.5; stroke-linecap: square"/>
   </g>
   <g id="line2d_28">
    <path d="M 139.849545 95.760921 
L 147.007029 70.626285 
L 154.164513 62.222557 
L 161.321997 59.586633 
L 168.479481 58.791625 
L 175.636965 58.852489 
L 182.794449 59.043304 
L 189.951933 59.617306 
L 197.109417 59.888861 
L 204.266901 60.458522 
L 211.424385 61.477837 
L 218.581869 61.897212 
L 225.739353 62.391387 
L 232.896837 63.742531 
L 240.05432 64.462302 
L 247.211804 64.788524 
L 254.369288 66.392391 
L 261.526772 67.622683 
L 268.684256 67.844899 
L 275.84174 69.479419 
L 282.999224 70.988562 
L 290.156708 71.463947 
L 297.314192 73.112 
L 304.471676 74.487975 
L 311.62916 75.374589 
L 318.786644 77.148412 
L 325.944128 78.47004 
L 333.101612 79.599988 
L 340.259096 81.580682 
L 347.416579 83.040772 
L 354.574063 84.156539 
L 361.731547 86.374495 
L 368.889031 88.225431 
L 376.046515 89.213226 
L 383.203999 91.509586 
L 390.361483 93.735442 
L 397.518967 94.841988 
L 404.676451 97.133783 
L 411.833935 99.322445 
L 418.991419 100.783384 
L 426.148903 103.172917 
L 433.306387 105.252557 
L 440.463871 107.006977 
L 447.621354 109.562735 
L 454.778838 111.709505 
L 461.936322 113.53985 
L 469.093806 116.304838 
L 476.25129 118.742218 
L 483.408774 120.473006 
L 490.566258 123.360841 
L 497.723742 126.215119 
L 504.881226 127.964182 
L 512.03871 130.850376 
L 519.196194 133.813017 
L 526.353678 135.837843 
L 533.511162 138.798497 
L 540.668646 141.631763 
L 547.826129 143.983037 
L 554.983613 147.092308 
L 562.141097 149.925349 
L 569.298581 152.44072 
L 576.456065 155.733131 
L 583.613549 158.767473 
L 590.771033 161.248313 
L 597.928517 164.692199 
L 605.086001 168.134171 
L 612.243485 170.56986 
L 619.400969 174.029237 
L 626.558453 177.753322 
L 633.715937 180.370482 
L 640.873421 183.873142 
L 648.030904 187.510585 
L 655.188388 190.455569 
L 662.345872 194.107828 
L 669.503356 197.66942 
L 676.66084 200.865034 
L 683.818324 204.686077 
L 690.975808 208.36817 
L 698.133292 211.625519 
L 705.290776 215.603045 
L 712.44826 219.640185 
L 719.605744 222.840405 
L 726.763228 226.848798 
L 733.920712 231.321496 
L 741.078196 234.644159 
L 748.23568 238.622936 
L 755.393163 243.192105 
L 762.550647 246.785588 
L 769.708131 250.926484 
L 776.865615 255.343909 
L 784.023099 259.234664 
L 791.180583 263.586368 
L 798.338067 268.008303 
L 805.495551 272.10596 
L 812.653035 276.607993 
L 819.810519 281.258118 
L 826.968003 285.418165 
L 834.125487 289.949372 
L 841.282971 294.977754 
L 848.440455 299.552176 
" clip-path="url(#p13386ddcbc)" style="fill: none; stroke: #e25508; stroke-width: 1.5; stroke-linecap: square"/>
   </g>
   <g id="line2d_29">
    <path d="M 139.849545 569.454545 
L 147.007029 566.445716 
L 154.164513 563.562932 
L 161.321997 560.734615 
L 168.479481 557.938352 
L 175.636965 555.152968 
L 182.794449 552.374457 
L 189.951933 549.599834 
L 197.109417 546.821836 
L 204.266901 544.042446 
L 211.424385 541.262536 
L 218.581869 538.479199 
L 225.739353 535.688208 
L 232.896837 532.893011 
L 240.05432 530.096486 
L 247.211804 527.297438 
L 254.369288 524.490601 
L 261.526772 521.670603 
L 268.684256 518.844296 
L 275.84174 516.016196 
L 282.999224 513.184372 
L 290.156708 510.340467 
L 297.314192 507.479034 
L 304.471676 504.610503 
L 311.62916 501.739456 
L 318.786644 498.862272 
L 325.944128 495.967273 
L 333.101612 493.051871 
L 340.259096 490.12875 
L 347.416579 487.201404 
L 354.574063 484.263719 
L 361.731547 481.301661 
L 368.889031 478.319967 
L 376.046515 475.329494 
L 383.203999 472.330508 
L 390.361483 469.313732 
L 397.518967 466.268814 
L 404.676451 463.207154 
L 411.833935 460.133978 
L 418.991419 457.045742 
L 426.148903 453.930806 
L 433.306387 450.788645 
L 440.463871 447.629505 
L 447.621354 444.454963 
L 454.778838 441.258244 
L 461.936322 438.027293 
L 469.093806 434.768865 
L 476.25129 431.491676 
L 483.408774 428.194814 
L 490.566258 424.868066 
L 497.723742 421.500211 
L 504.881226 418.103649 
L 512.03871 414.685411 
L 519.196194 411.241731 
L 526.353678 407.758262 
L 533.511162 404.229892 
L 540.668646 400.671123 
L 547.826129 397.08539 
L 554.983613 393.465026 
L 562.141097 389.793988 
L 569.298581 386.078487 
L 576.456065 382.328816 
L 583.613549 378.543751 
L 590.771033 374.71153 
L 597.928517 370.821308 
L 605.086001 366.885685 
L 612.243485 362.909487 
L 619.400969 358.887309 
L 626.558453 354.804091 
L 633.715937 350.658051 
L 640.873421 346.4616 
L 648.030904 342.21634 
L 655.188388 337.91309 
L 662.345872 333.534672 
L 669.503356 329.086978 
L 676.66084 324.581447 
L 683.818324 320.016881 
L 690.975808 315.379998 
L 698.133292 310.653499 
L 705.290776 305.850356 
L 712.44826 300.979137 
L 719.605744 296.035091 
L 726.763228 291.000586 
L 733.920712 285.864619 
L 741.078196 280.642835 
L 748.23568 275.338706 
L 755.393163 269.943572 
L 762.550647 264.437807 
L 769.708131 258.821324 
L 776.865615 253.10513 
L 784.023099 247.288373 
L 791.180583 241.360065 
L 798.338067 235.302615 
L 805.495551 229.121149 
L 812.653035 222.821404 
L 819.810519 216.40048 
L 826.968003 209.84809 
L 834.125487 203.150056 
L 841.282971 196.311471 
L 848.440455 189.329845 
" clip-path="url(#p13386ddcbc)" style="fill: none; stroke: #1764ab; stroke-width: 1.5; stroke-linecap: square"/>
   </g>
   <g id="line2d_30">
    <path d="M 139.849545 95.760921 
L 147.007029 79.277648 
L 154.164513 71.073661 
L 161.321997 66.79584 
L 168.479481 64.837481 
L 175.636965 63.806276 
L 182.794449 63.416669 
L 189.951933 63.480966 
L 197.109417 63.523015 
L 204.266901 63.706947 
L 211.424385 64.125876 
L 218.581869 64.604963 
L 225.739353 64.875202 
L 232.896837 65.214103 
L 240.05432 65.859639 
L 247.211804 66.760876 
L 254.369288 67.577929 
L 261.526772 67.964672 
L 268.684256 68.438652 
L 275.84174 69.350903 
L 282.999224 70.602605 
L 290.156708 71.647001 
L 297.314192 72.142611 
L 304.471676 72.845047 
L 311.62916 74.105096 
L 318.786644 75.714022 
L 325.944128 76.914101 
L 333.101612 77.57026 
L 340.259096 78.571971 
L 347.416579 80.19076 
L 354.574063 82.062397 
L 361.731547 83.299832 
L 368.889031 84.258334 
L 376.046515 85.680565 
L 383.203999 87.625172 
L 390.361483 89.541917 
L 397.518967 90.816872 
L 404.676451 92.21525 
L 411.833935 94.102441 
L 418.991419 96.304831 
L 426.148903 98.15272 
L 433.306387 99.666804 
L 440.463871 101.508088 
L 447.621354 103.816224 
L 454.778838 106.240088 
L 461.936322 108.122689 
L 469.093806 109.914672 
L 476.25129 112.159148 
L 483.408774 114.855993 
L 490.566258 117.484852 
L 497.723742 119.479568 
L 504.881226 121.582659 
L 512.03871 124.221363 
L 519.196194 127.25166 
L 526.353678 129.971189 
L 533.511162 132.182362 
L 540.668646 134.690681 
L 547.826129 137.724711 
L 554.983613 140.963651 
L 562.141097 143.677454 
L 569.298581 146.246833 
L 576.456065 149.221009 
L 583.613549 152.60645 
L 590.771033 155.92368 
L 597.928517 158.750744 
L 605.086001 161.732436 
L 612.243485 165.143631 
L 619.400969 168.821342 
L 626.558453 172.191667 
L 633.715937 175.270434 
L 640.873421 178.641158 
L 648.030904 182.440344 
L 655.188388 186.380298 
L 662.345872 189.865976 
L 669.503356 193.225058 
L 676.66084 196.958804 
L 683.818324 201.102727 
L 690.975808 205.258345 
L 698.133292 208.897321 
L 705.290776 212.577791 
L 712.44826 216.665675 
L 719.605744 221.088887 
L 726.763228 225.35619 
L 733.920712 229.21577 
L 741.078196 233.25853 
L 748.23568 237.671952 
L 755.393163 242.28768 
L 762.550647 246.61811 
L 769.708131 250.772702 
L 776.865615 255.150506 
L 784.023099 259.81644 
L 791.180583 264.568775 
L 798.338067 269.037771 
L 805.495551 273.466392 
L 812.653035 278.084501 
L 819.810519 282.910036 
L 826.968003 287.787822 
L 834.125487 292.473335 
L 841.282971 297.183937 
L 848.440455 301.953256 
" clip-path="url(#p13386ddcbc)" style="fill: none; stroke: #c54102; stroke-width: 1.5; stroke-linecap: square"/>
   </g>
   <g id="line2d_31">
    <path d="M 139.849545 569.454545 
L 147.007029 564.932763 
L 154.164513 561.756026 
L 161.321997 559.222556 
L 168.479481 557.102017 
L 175.636965 555.288964 
L 182.794449 553.723771 
L 189.951933 552.368914 
L 197.109417 551.199356 
L 204.266901 550.166611 
L 211.424385 549.27669 
L 218.581869 548.523042 
L 225.739353 547.839972 
L 232.896837 547.223605 
L 240.05432 546.714198 
L 247.211804 546.240037 
L 254.369288 545.805793 
L 261.526772 545.450688 
L 268.684256 545.099555 
L 275.84174 544.77622 
L 282.999224 544.52397 
L 290.156708 544.25133 
L 297.314192 543.992098 
L 304.471676 543.809077 
L 311.62916 543.585579 
L 318.786644 543.371945 
L 325.944128 543.22782 
L 333.101612 543.02725 
L 340.259096 542.857927 
L 347.416579 542.721949 
L 354.574063 542.539761 
L 361.731547 542.404667 
L 368.889031 542.261474 
L 376.046515 542.098612 
L 383.203999 541.98522 
L 390.361483 541.832715 
L 397.518967 541.67961 
L 404.676451 541.582373 
L 411.833935 541.41306 
L 418.991419 541.269532 
L 426.148903 541.169097 
L 433.306387 540.979604 
L 440.463871 540.850846 
L 447.621354 540.695381 
L 454.778838 540.513441 
L 461.936322 540.368771 
L 469.093806 540.155129 
L 476.25129 539.973953 
L 483.408774 539.75739 
L 490.566258 539.500394 
L 497.723742 539.279944 
L 504.881226 538.935731 
L 512.03871 538.614513 
L 519.196194 538.227451 
L 526.353678 537.706089 
L 533.511162 537.092926 
L 540.668646 536.24375 
L 547.826129 535.064084 
L 554.983613 533.133094 
L 562.141097 529.268552 
L 569.298581 518.465478 
L 576.456065 493.312562 
L 583.613549 461.086285 
L 590.771033 429.92683 
L 597.928517 401.784704 
L 605.086001 376.97323 
L 612.243485 355.399374 
L 619.400969 336.609226 
L 626.558453 320.348564 
L 633.715937 306.249229 
L 640.873421 293.974957 
L 648.030904 283.419234 
L 655.188388 274.339374 
L 662.345872 266.286841 
L 669.503356 259.189199 
L 676.66084 253.30472 
L 683.818324 248.213323 
L 690.975808 243.606431 
L 698.133292 239.785781 
L 705.290776 236.431978 
L 712.44826 233.452268 
L 719.605744 231.001055 
L 726.763228 228.806237 
L 733.920712 226.800782 
L 741.078196 225.250847 
L 748.23568 223.949752 
L 755.393163 222.516416 
L 762.550647 221.269596 
L 769.708131 220.556829 
L 776.865615 219.714544 
L 784.023099 218.966887 
L 791.180583 218.450923 
L 798.338067 217.878484 
L 805.495551 217.447879 
L 812.653035 217.110414 
L 819.810519 216.694519 
L 826.968003 216.382846 
L 834.125487 216.225284 
L 841.282971 215.942202 
L 848.440455 215.675929 
" clip-path="url(#p13386ddcbc)" style="fill: none; stroke: #084a91; stroke-width: 1.5; stroke-linecap: square"/>
   </g>
   <g id="line2d_32">
    <path d="M 139.849545 95.760921 
L 147.007029 80.017076 
L 154.164513 74.612779 
L 161.321997 72.734109 
L 168.479481 72.102624 
L 175.636965 71.90072 
L 182.794449 71.822569 
L 189.951933 71.803839 
L 197.109417 71.895212 
L 204.266901 71.775774 
L 211.424385 71.835944 
L 218.581869 72.256721 
L 225.739353 72.348631 
L 232.896837 72.243933 
L 240.05432 72.684062 
L 247.211804 72.811201 
L 254.369288 72.798561 
L 261.526772 73.309065 
L 268.684256 73.369426 
L 275.84174 73.376263 
L 282.999224 74.023117 
L 290.156708 74.056965 
L 297.314192 73.983166 
L 304.471676 74.768023 
L 311.62916 74.772137 
L 318.786644 74.713956 
L 325.944128 75.502032 
L 333.101612 75.361786 
L 340.259096 75.538665 
L 347.416579 76.101993 
L 354.574063 75.93 
L 361.731547 76.358325 
L 368.889031 76.626253 
L 376.046515 76.566533 
L 383.203999 77.190421 
L 390.361483 77.242498 
L 397.518967 77.268276 
L 404.676451 78.118544 
L 411.833935 77.955201 
L 418.991419 78.177243 
L 426.148903 79.08831 
L 433.306387 78.787676 
L 440.463871 79.426249 
L 447.621354 79.810927 
L 454.778838 79.944543 
L 461.936322 80.775478 
L 469.093806 80.834383 
L 476.25129 81.602534 
L 483.408774 82.188288 
L 490.566258 82.578798 
L 497.723742 84.005017 
L 504.881226 84.315309 
L 512.03871 85.799784 
L 519.196194 87.572556 
L 526.353678 89.111921 
L 533.511162 91.874062 
L 540.668646 95.386365 
L 547.826129 101.491329 
L 554.983613 111.896012 
L 562.141097 133.904399 
L 569.298581 178.723027 
L 576.456065 216.830717 
L 583.613549 231.605205 
L 590.771033 236.843381 
L 597.928517 238.664744 
L 605.086001 239.208519 
L 612.243485 239.49172 
L 619.400969 239.506065 
L 626.558453 239.576809 
L 633.715937 239.619753 
L 640.873421 239.516216 
L 648.030904 239.633922 
L 655.188388 239.913611 
L 662.345872 239.686003 
L 669.503356 239.18041 
L 676.66084 239.414535 
L 683.818324 239.648202 
L 690.975808 239.366748 
L 698.133292 239.544873 
L 705.290776 239.594577 
L 712.44826 239.45532 
L 719.605744 239.660718 
L 726.763228 239.663524 
L 733.920712 239.406233 
L 741.078196 239.657261 
L 748.23568 239.989389 
L 755.393163 239.495839 
L 762.550647 239.045375 
L 769.708131 239.588644 
L 776.865615 239.508861 
L 784.023099 239.38968 
L 791.180583 239.611265 
L 798.338067 239.493756 
L 805.495551 239.552845 
L 812.653035 239.693752 
L 819.810519 239.507825 
L 826.968003 239.466773 
L 834.125487 239.714311 
L 841.282971 239.563345 
L 848.440455 239.377748 
" clip-path="url(#p13386ddcbc)" style="fill: none; stroke: #9e3303; stroke-width: 1.5; stroke-linecap: square"/>
   </g>
   <g id="line2d_33">
    <path d="M 139.849545 569.454545 
L 147.007029 566.404916 
L 154.164513 563.392099 
L 161.321997 560.41236 
L 168.479481 557.461225 
L 175.636965 554.536604 
L 182.794449 551.636691 
L 189.951933 548.759632 
L 197.109417 545.903523 
L 204.266901 543.066412 
L 211.424385 540.2463 
L 218.581869 537.441137 
L 225.739353 534.648826 
L 232.896837 531.86722 
L 240.05432 529.094123 
L 247.211804 526.327294 
L 254.369288 523.564438 
L 261.526772 520.803216 
L 268.684256 518.041839 
L 275.84174 515.279946 
L 282.999224 512.517232 
L 290.156708 509.753277 
L 297.314192 506.987543 
L 304.471676 504.219379 
L 311.62916 501.448015 
L 318.786644 498.672568 
L 325.944128 495.892036 
L 333.101612 493.105304 
L 340.259096 490.311138 
L 347.416579 487.508192 
L 354.574063 484.694999 
L 361.731547 481.869982 
L 368.889031 479.031442 
L 376.046515 476.177569 
L 383.203999 473.306434 
L 390.361483 470.416122 
L 397.518967 467.50635 
L 404.676451 464.577217 
L 411.833935 461.628557 
L 418.991419 458.660077 
L 426.148903 455.671361 
L 433.306387 452.661867 
L 440.463871 449.630928 
L 447.621354 446.577751 
L 454.778838 443.50142 
L 461.936322 440.400892 
L 469.093806 437.275 
L 476.25129 434.122451 
L 483.408774 430.941828 
L 490.566258 427.731587 
L 497.723742 424.490062 
L 504.881226 421.21546 
L 512.03871 417.905861 
L 519.196194 414.559224 
L 526.353678 411.173379 
L 533.511162 407.746134 
L 540.668646 404.277343 
L 547.826129 400.766736 
L 554.983613 397.213418 
L 562.141097 393.616386 
L 569.298581 389.974531 
L 576.456065 386.286638 
L 583.613549 382.551384 
L 590.771033 378.767341 
L 597.928517 374.932972 
L 605.086001 371.046636 
L 612.243485 367.106583 
L 619.400969 363.110958 
L 626.558453 359.057798 
L 633.715937 354.945034 
L 640.873421 350.77049 
L 648.030904 346.531884 
L 655.188388 342.226826 
L 662.345872 337.852821 
L 669.503356 333.407266 
L 676.66084 328.887451 
L 683.818324 324.290562 
L 690.975808 319.613674 
L 698.133292 314.855022 
L 705.290776 310.016977 
L 712.44826 305.096252 
L 719.605744 300.088881 
L 726.763228 294.990998 
L 733.920712 289.798831 
L 741.078196 284.508707 
L 748.23568 279.11705 
L 755.393163 273.62038 
L 762.550647 268.015316 
L 769.708131 262.298572 
L 776.865615 256.466961 
L 784.023099 250.517392 
L 791.180583 244.446872 
L 798.338067 238.252504 
L 805.495551 231.93149 
L 812.653035 225.481127 
L 819.810519 218.898811 
L 826.968003 212.182035 
L 834.125487 205.328387 
L 841.282971 198.335554 
L 848.440455 191.20132 
" clip-path="url(#p13386ddcbc)" style="fill: none; stroke: #08306b; stroke-width: 1.5; stroke-linecap: square"/>
   </g>
   <g id="line2d_34">
    <path d="M 139.849545 95.760921 
L 147.007029 92.04283 
L 154.164513 88.606982 
L 161.321997 85.440128 
L 168.479481 82.523833 
L 175.636965 79.85087 
L 182.794449 77.415225 
L 189.951933 75.210429 
L 197.109417 73.229567 
L 204.266901 71.465276 
L 211.424385 69.909741 
L 218.581869 68.554698 
L 225.739353 67.391437 
L 232.896837 66.410795 
L 240.05432 65.603162 
L 247.211804 64.958479 
L 254.369288 64.466236 
L 261.526772 64.115475 
L 268.684256 63.896785 
L 275.84174 63.809125 
L 282.999224 63.853263 
L 290.156708 64.029349 
L 297.314192 64.336915 
L 304.471676 64.774874 
L 311.62916 65.341522 
L 318.786644 66.034533 
L 325.944128 66.850967 
L 333.101612 67.787262 
L 340.259096 68.839238 
L 347.416579 70.002098 
L 354.574063 71.270424 
L 361.731547 72.638183 
L 368.889031 74.098719 
L 376.046515 75.644762 
L 383.203999 77.268419 
L 390.361483 78.962027 
L 397.518967 80.728252 
L 404.676451 82.571279 
L 411.833935 84.493715 
L 418.991419 86.497631 
L 426.148903 88.584562 
L 433.306387 90.755505 
L 440.463871 93.010921 
L 447.621354 95.350732 
L 454.778838 97.774325 
L 461.936322 100.280551 
L 469.093806 102.867722 
L 476.25129 105.533615 
L 483.408774 108.275468 
L 490.566258 111.089983 
L 497.723742 113.973328 
L 504.881226 116.921129 
L 512.03871 119.928478 
L 519.196194 122.989932 
L 526.353678 126.099507 
L 533.511162 129.251382 
L 540.668646 132.453462 
L 547.826129 135.710809 
L 554.983613 139.024293 
L 562.141097 142.394549 
L 569.298581 145.821987 
L 576.456065 149.306783 
L 583.613549 152.848882 
L 590.771033 156.448002 
L 597.928517 160.103626 
L 605.086001 163.81501 
L 612.243485 167.581178 
L 619.400969 171.400922 
L 626.558453 175.272808 
L 633.715937 179.195166 
L 640.873421 183.1661 
L 648.030904 187.183479 
L 655.188388 191.244947 
L 662.345872 195.347912 
L 669.503356 199.489555 
L 676.66084 203.666825 
L 683.818324 207.876441 
L 690.975808 212.114892 
L 698.133292 216.382498 
L 705.290776 220.693669 
L 712.44826 225.045646 
L 719.605744 229.433602 
L 726.763228 233.85309 
L 733.920712 238.300035 
L 741.078196 242.770743 
L 748.23568 247.261891 
L 755.393163 251.770535 
L 762.550647 256.294106 
L 769.708131 260.830412 
L 776.865615 265.377636 
L 784.023099 269.934337 
L 791.180583 274.499452 
L 798.338067 279.072291 
L 805.495551 283.652542 
L 812.653035 288.240269 
L 819.810519 292.835912 
L 826.968003 297.440287 
L 834.125487 302.054584 
L 841.282971 306.680373 
L 848.440455 311.319597 
" clip-path="url(#p13386ddcbc)" style="fill: none; stroke: #7f2704; stroke-width: 1.5; stroke-linecap: square"/>
   </g>
   <g id="patch_3">
    <path d="M 104.42 595.44 
L 104.42 23.76 
" style="fill: none; stroke: #000000; stroke-width: 0.8; stroke-linejoin: miter; stroke-linecap: square"/>
   </g>
   <g id="patch_4">
    <path d="M 883.87 595.44 
L 883.87 23.76 
" style="fill: none; stroke: #000000; stroke-width: 0.8; stroke-linejoin: miter; stroke-linecap: square"/>
   </g>
   <g id="patch_5">
    <path d="M 104.42 595.44 
L 883.87 595.44 
" style="fill: none; stroke: #000000; stroke-width: 0.8; stroke-linejoin: miter; stroke-linecap: square"/>
   </g>
   <g id="patch_6">
    <path d="M 104.42 23.76 
L 883.87 23.76 
" style="fill: none; stroke: #000000; stroke-width: 0.8; stroke-linejoin: miter; stroke-linecap: square"/>
   </g>
   <g id="legend_1">
    <g id="patch_7">
     <path d="M 899.27 687.1975 
L 1052.056562 687.1975 
Q 1056.456563 687.1975 1056.456563 682.7975 
L 1056.456563 39.16 
Q 1056.456563 34.76 1052.056562 34.76 
L 899.27 34.76 
Q 894.87 34.76 894.87 39.16 
L 894.87 682.7975 
Q 894.87 687.1975 899.27 687.1975 
z
" style="fill: #ffffff; opacity: 0.8; stroke: #cccccc; stroke-linejoin: miter"/>
    </g>
    <g id="PathCollection_3">
     <g>
      <use xlink:href="#m80f1702e56" x="925.67" y="54.501563" style="fill: #1f77b4; stroke: #1f77b4"/>
     </g>
    </g>
    <g id="text_19">
     <!-- Xi -->
     <g transform="translate(965.27 60.276563) scale(0.22 -0.22)">
      <use xlink:href="#DejaVuSans-58"/>
      <use xlink:href="#DejaVuSans-69" x="68.505859"/>
     </g>
    </g>
    <g id="PathCollection_4">
     <g>
      <use xlink:href="#m62fcbac0dc" x="925.67" y="86.793438" style="fill: #ff7f0e; stroke: #ff7f0e"/>
     </g>
    </g>
    <g id="text_20">
     <!-- Xa -->
     <g transform="translate(965.27 92.568438) scale(0.22 -0.22)">
      <use xlink:href="#DejaVuSans-58"/>
      <use xlink:href="#DejaVuSans-61" x="68.505859"/>
     </g>
    </g>
    <g id="line2d_35">
     <path d="M 903.67 117.160313 
L 925.67 117.160313 
L 947.67 117.160313 
" style="fill: none; stroke: #d0e1f2; stroke-width: 1.5; stroke-linecap: square"/>
    </g>
    <g id="text_21">
     <!-- Xi-IIAA -->
     <g transform="translate(965.27 124.860313) scale(0.22 -0.22)">
      <defs>
       <path id="DejaVuSans-2d" d="M 313 2009 
L 1997 2009 
L 1997 1497 
L 313 1497 
L 313 2009 
z
" transform="scale(0.015625)"/>
       <path id="DejaVuSans-49" d="M 628 4666 
L 1259 4666 
L 1259 0 
L 628 0 
L 628 4666 
z
" transform="scale(0.015625)"/>
      </defs>
      <use xlink:href="#DejaVuSans-58"/>
      <use xlink:href="#DejaVuSans-69" x="68.505859"/>
      <use xlink:href="#DejaVuSans-2d" x="96.289062"/>
      <use xlink:href="#DejaVuSans-49" x="132.373047"/>
      <use xlink:href="#DejaVuSans-49" x="161.865234"/>
      <use xlink:href="#DejaVuSans-41" x="191.357422"/>
      <use xlink:href="#DejaVuSans-41" x="262.515625"/>
     </g>
    </g>
    <g id="line2d_36">
     <path d="M 903.67 149.452188 
L 925.67 149.452188 
L 947.67 149.452188 
" style="fill: none; stroke: #fdd9b4; stroke-width: 1.5; stroke-linecap: square"/>
    </g>
    <g id="text_22">
     <!-- Xa-IIAA -->
     <g transform="translate(965.27 157.152188) scale(0.22 -0.22)">
      <use xlink:href="#DejaVuSans-58"/>
      <use xlink:href="#DejaVuSans-61" x="68.505859"/>
      <use xlink:href="#DejaVuSans-2d" x="129.785156"/>
      <use xlink:href="#DejaVuSans-49" x="165.869141"/>
      <use xlink:href="#DejaVuSans-49" x="195.361328"/>
      <use xlink:href="#DejaVuSans-41" x="224.853516"/>
      <use xlink:href="#DejaVuSans-41" x="296.011719"/>
     </g>
    </g>
    <g id="line2d_37">
     <path d="M 903.67 181.744063 
L 925.67 181.744063 
L 947.67 181.744063 
" style="fill: none; stroke: #b7d4ea; stroke-width: 1.5; stroke-linecap: square"/>
    </g>
    <g id="text_23">
     <!-- Xi-IIAI -->
     <g transform="translate(965.27 189.444063) scale(0.22 -0.22)">
      <use xlink:href="#DejaVuSans-58"/>
      <use xlink:href="#DejaVuSans-69" x="68.505859"/>
      <use xlink:href="#DejaVuSans-2d" x="96.289062"/>
      <use xlink:href="#DejaVuSans-49" x="132.373047"/>
      <use xlink:href="#DejaVuSans-49" x="161.865234"/>
      <use xlink:href="#DejaVuSans-41" x="191.357422"/>
      <use xlink:href="#DejaVuSans-49" x="259.765625"/>
     </g>
    </g>
    <g id="line2d_38">
     <path d="M 903.67 214.035938 
L 925.67 214.035938 
L 947.67 214.035938 
" style="fill: none; stroke: #fdc38d; stroke-width: 1.5; stroke-linecap: square"/>
    </g>
    <g id="text_24">
     <!-- Xa-IIAI -->
     <g transform="translate(965.27 221.735938) scale(0.22 -0.22)">
      <use xlink:href="#DejaVuSans-58"/>
      <use xlink:href="#DejaVuSans-61" x="68.505859"/>
      <use xlink:href="#DejaVuSans-2d" x="129.785156"/>
      <use xlink:href="#DejaVuSans-49" x="165.869141"/>
      <use xlink:href="#DejaVuSans-49" x="195.361328"/>
      <use xlink:href="#DejaVuSans-41" x="224.853516"/>
      <use xlink:href="#DejaVuSans-49" x="293.261719"/>
     </g>
    </g>
    <g id="line2d_39">
     <path d="M 903.67 246.327813 
L 925.67 246.327813 
L 947.67 246.327813 
" style="fill: none; stroke: #94c4df; stroke-width: 1.5; stroke-linecap: square"/>
    </g>
    <g id="text_25">
     <!-- Xi-IIAN -->
     <g transform="translate(965.27 254.027813) scale(0.22 -0.22)">
      <defs>
       <path id="DejaVuSans-4e" d="M 628 4666 
L 1478 4666 
L 3547 763 
L 3547 4666 
L 4159 4666 
L 4159 0 
L 3309 0 
L 1241 3903 
L 1241 0 
L 628 0 
L 628 4666 
z
" transform="scale(0.015625)"/>
      </defs>
      <use xlink:href="#DejaVuSans-58"/>
      <use xlink:href="#DejaVuSans-69" x="68.505859"/>
      <use xlink:href="#DejaVuSans-2d" x="96.289062"/>
      <use xlink:href="#DejaVuSans-49" x="132.373047"/>
      <use xlink:href="#DejaVuSans-49" x="161.865234"/>
      <use xlink:href="#DejaVuSans-41" x="191.357422"/>
      <use xlink:href="#DejaVuSans-4e" x="259.765625"/>
     </g>
    </g>
    <g id="line2d_40">
     <path d="M 903.67 278.619688 
L 925.67 278.619688 
L 947.67 278.619688 
" style="fill: none; stroke: #fda762; stroke-width: 1.5; stroke-linecap: square"/>
    </g>
    <g id="text_26">
     <!-- Xa-IIAN -->
     <g transform="translate(965.27 286.319688) scale(0.22 -0.22)">
      <use xlink:href="#DejaVuSans-58"/>
      <use xlink:href="#DejaVuSans-61" x="68.505859"/>
      <use xlink:href="#DejaVuSans-2d" x="129.785156"/>
      <use xlink:href="#DejaVuSans-49" x="165.869141"/>
      <use xlink:href="#DejaVuSans-49" x="195.361328"/>
      <use xlink:href="#DejaVuSans-41" x="224.853516"/>
      <use xlink:href="#DejaVuSans-4e" x="293.261719"/>
     </g>
    </g>
    <g id="line2d_41">
     <path d="M 903.67 310.911563 
L 925.67 310.911563 
L 947.67 310.911563 
" style="fill: none; stroke: #6aaed6; stroke-width: 1.5; stroke-linecap: square"/>
    </g>
    <g id="text_27">
     <!-- Xi-IIIA -->
     <g transform="translate(965.27 318.611563) scale(0.22 -0.22)">
      <use xlink:href="#DejaVuSans-58"/>
      <use xlink:href="#DejaVuSans-69" x="68.505859"/>
      <use xlink:href="#DejaVuSans-2d" x="96.289062"/>
      <use xlink:href="#DejaVuSans-49" x="132.373047"/>
      <use xlink:href="#DejaVuSans-49" x="161.865234"/>
      <use xlink:href="#DejaVuSans-49" x="191.357422"/>
      <use xlink:href="#DejaVuSans-41" x="220.849609"/>
     </g>
    </g>
    <g id="line2d_42">
     <path d="M 903.67 343.203438 
L 925.67 343.203438 
L 947.67 343.203438 
" style="fill: none; stroke: #fd8c3b; stroke-width: 1.5; stroke-linecap: square"/>
    </g>
    <g id="text_28">
     <!-- Xa-IIIA -->
     <g transform="translate(965.27 350.903438) scale(0.22 -0.22)">
      <use xlink:href="#DejaVuSans-58"/>
      <use xlink:href="#DejaVuSans-61" x="68.505859"/>
      <use xlink:href="#DejaVuSans-2d" x="129.785156"/>
      <use xlink:href="#DejaVuSans-49" x="165.869141"/>
      <use xlink:href="#DejaVuSans-49" x="195.361328"/>
      <use xlink:href="#DejaVuSans-49" x="224.853516"/>
      <use xlink:href="#DejaVuSans-41" x="254.345703"/>
     </g>
    </g>
    <g id="line2d_43">
     <path d="M 903.67 375.495313 
L 925.67 375.495313 
L 947.67 375.495313 
" style="fill: none; stroke: #4a98c9; stroke-width: 1.5; stroke-linecap: square"/>
    </g>
    <g id="text_29">
     <!-- Xi-IIII -->
     <g transform="translate(965.27 383.195313) scale(0.22 -0.22)">
      <use xlink:href="#DejaVuSans-58"/>
      <use xlink:href="#DejaVuSans-69" x="68.505859"/>
      <use xlink:href="#DejaVuSans-2d" x="96.289062"/>
      <use xlink:href="#DejaVuSans-49" x="132.373047"/>
      <use xlink:href="#DejaVuSans-49" x="161.865234"/>
      <use xlink:href="#DejaVuSans-49" x="191.357422"/>
      <use xlink:href="#DejaVuSans-49" x="220.849609"/>
     </g>
    </g>
    <g id="line2d_44">
     <path d="M 903.67 407.787188 
L 925.67 407.787188 
L 947.67 407.787188 
" style="fill: none; stroke: #f3701b; stroke-width: 1.5; stroke-linecap: square"/>
    </g>
    <g id="text_30">
     <!-- Xa-IIII -->
     <g transform="translate(965.27 415.487188) scale(0.22 -0.22)">
      <use xlink:href="#DejaVuSans-58"/>
      <use xlink:href="#DejaVuSans-61" x="68.505859"/>
      <use xlink:href="#DejaVuSans-2d" x="129.785156"/>
      <use xlink:href="#DejaVuSans-49" x="165.869141"/>
      <use xlink:href="#DejaVuSans-49" x="195.361328"/>
      <use xlink:href="#DejaVuSans-49" x="224.853516"/>
      <use xlink:href="#DejaVuSans-49" x="254.345703"/>
     </g>
    </g>
    <g id="line2d_45">
     <path d="M 903.67 440.079063 
L 925.67 440.079063 
L 947.67 440.079063 
" style="fill: none; stroke: #2e7ebc; stroke-width: 1.5; stroke-linecap: square"/>
    </g>
    <g id="text_31">
     <!-- Xi-IIIN -->
     <g transform="translate(965.27 447.779063) scale(0.22 -0.22)">
      <use xlink:href="#DejaVuSans-58"/>
      <use xlink:href="#DejaVuSans-69" x="68.505859"/>
      <use xlink:href="#DejaVuSans-2d" x="96.289062"/>
      <use xlink:href="#DejaVuSans-49" x="132.373047"/>
      <use xlink:href="#DejaVuSans-49" x="161.865234"/>
      <use xlink:href="#DejaVuSans-49" x="191.357422"/>
      <use xlink:href="#DejaVuSans-4e" x="220.849609"/>
     </g>
    </g>
    <g id="line2d_46">
     <path d="M 903.67 472.370938 
L 925.67 472.370938 
L 947.67 472.370938 
" style="fill: none; stroke: #e25508; stroke-width: 1.5; stroke-linecap: square"/>
    </g>
    <g id="text_32">
     <!-- Xa-IIIN -->
     <g transform="translate(965.27 480.070938) scale(0.22 -0.22)">
      <use xlink:href="#DejaVuSans-58"/>
      <use xlink:href="#DejaVuSans-61" x="68.505859"/>
      <use xlink:href="#DejaVuSans-2d" x="129.785156"/>
      <use xlink:href="#DejaVuSans-49" x="165.869141"/>
      <use xlink:href="#DejaVuSans-49" x="195.361328"/>
      <use xlink:href="#DejaVuSans-49" x="224.853516"/>
      <use xlink:href="#DejaVuSans-4e" x="254.345703"/>
     </g>
    </g>
    <g id="line2d_47">
     <path d="M 903.67 504.662813 
L 925.67 504.662813 
L 947.67 504.662813 
" style="fill: none; stroke: #1764ab; stroke-width: 1.5; stroke-linecap: square"/>
    </g>
    <g id="text_33">
     <!-- Xi-IINA -->
     <g transform="translate(965.27 512.362813) scale(0.22 -0.22)">
      <use xlink:href="#DejaVuSans-58"/>
      <use xlink:href="#DejaVuSans-69" x="68.505859"/>
      <use xlink:href="#DejaVuSans-2d" x="96.289062"/>
      <use xlink:href="#DejaVuSans-49" x="132.373047"/>
      <use xlink:href="#DejaVuSans-49" x="161.865234"/>
      <use xlink:href="#DejaVuSans-4e" x="191.357422"/>
      <use xlink:href="#DejaVuSans-41" x="266.162109"/>
     </g>
    </g>
    <g id="line2d_48">
     <path d="M 903.67 536.954688 
L 925.67 536.954688 
L 947.67 536.954688 
" style="fill: none; stroke: #c54102; stroke-width: 1.5; stroke-linecap: square"/>
    </g>
    <g id="text_34">
     <!-- Xa-IINA -->
     <g transform="translate(965.27 544.654688) scale(0.22 -0.22)">
      <use xlink:href="#DejaVuSans-58"/>
      <use xlink:href="#DejaVuSans-61" x="68.505859"/>
      <use xlink:href="#DejaVuSans-2d" x="129.785156"/>
      <use xlink:href="#DejaVuSans-49" x="165.869141"/>
      <use xlink:href="#DejaVuSans-49" x="195.361328"/>
      <use xlink:href="#DejaVuSans-4e" x="224.853516"/>
      <use xlink:href="#DejaVuSans-41" x="299.658203"/>
     </g>
    </g>
    <g id="line2d_49">
     <path d="M 903.67 569.246563 
L 925.67 569.246563 
L 947.67 569.246563 
" style="fill: none; stroke: #084a91; stroke-width: 1.5; stroke-linecap: square"/>
    </g>
    <g id="text_35">
     <!-- Xi-IINI -->
     <g transform="translate(965.27 576.946563) scale(0.22 -0.22)">
      <use xlink:href="#DejaVuSans-58"/>
      <use xlink:href="#DejaVuSans-69" x="68.505859"/>
      <use xlink:href="#DejaVuSans-2d" x="96.289062"/>
      <use xlink:href="#DejaVuSans-49" x="132.373047"/>
      <use xlink:href="#DejaVuSans-49" x="161.865234"/>
      <use xlink:href="#DejaVuSans-4e" x="191.357422"/>
      <use xlink:href="#DejaVuSans-49" x="266.162109"/>
     </g>
    </g>
    <g id="line2d_50">
     <path d="M 903.67 601.538438 
L 925.67 601.538438 
L 947.67 601.538438 
" style="fill: none; stroke: #9e3303; stroke-width: 1.5; stroke-linecap: square"/>
    </g>
    <g id="text_36">
     <!-- Xa-IINI -->
     <g transform="translate(965.27 609.238438) scale(0.22 -0.22)">
      <use xlink:href="#DejaVuSans-58"/>
      <use xlink:href="#DejaVuSans-61" x="68.505859"/>
      <use xlink:href="#DejaVuSans-2d" x="129.785156"/>
      <use xlink:href="#DejaVuSans-49" x="165.869141"/>
      <use xlink:href="#DejaVuSans-49" x="195.361328"/>
      <use xlink:href="#DejaVuSans-4e" x="224.853516"/>
      <use xlink:href="#DejaVuSans-49" x="299.658203"/>
     </g>
    </g>
    <g id="line2d_51">
     <path d="M 903.67 633.830313 
L 925.67 633.830313 
L 947.67 633.830313 
" style="fill: none; stroke: #08306b; stroke-width: 1.5; stroke-linecap: square"/>
    </g>
    <g id="text_37">
     <!-- Xi-IINN -->
     <g transform="translate(965.27 641.530313) scale(0.22 -0.22)">
      <use xlink:href="#DejaVuSans-58"/>
      <use xlink:href="#DejaVuSans-69" x="68.505859"/>
      <use xlink:href="#DejaVuSans-2d" x="96.289062"/>
      <use xlink:href="#DejaVuSans-49" x="132.373047"/>
      <use xlink:href="#DejaVuSans-49" x="161.865234"/>
      <use xlink:href="#DejaVuSans-4e" x="191.357422"/>
      <use xlink:href="#DejaVuSans-4e" x="266.162109"/>
     </g>
    </g>
    <g id="line2d_52">
     <path d="M 903.67 666.122188 
L 925.67 666.122188 
L 947.67 666.122188 
" style="fill: none; stroke: #7f2704; stroke-width: 1.5; stroke-linecap: square"/>
    </g>
    <g id="text_38">
     <!-- Xa-IINN -->
     <g transform="translate(965.27 673.822188) scale(0.22 -0.22)">
      <use xlink:href="#DejaVuSans-58"/>
      <use xlink:href="#DejaVuSans-61" x="68.505859"/>
      <use xlink:href="#DejaVuSans-2d" x="129.785156"/>
      <use xlink:href="#DejaVuSans-49" x="165.869141"/>
      <use xlink:href="#DejaVuSans-49" x="195.361328"/>
      <use xlink:href="#DejaVuSans-4e" x="224.853516"/>
      <use xlink:href="#DejaVuSans-4e" x="299.658203"/>
     </g>
    </g>
   </g>
  </g>
 </g>
 <defs>
  <clipPath id="p13386ddcbc">
   <rect x="104.42" y="23.76" width="779.45" height="571.68"/>
  </clipPath>
 </defs>
</svg>
