<?xml version="1.0" encoding="utf-8" standalone="no"?>
<!DOCTYPE svg PUBLIC "-//W3C//DTD SVG 1.1//EN"
  "http://www.w3.org/Graphics/SVG/1.1/DTD/svg11.dtd">
<svg xmlns:xlink="http://www.w3.org/1999/xlink" width="1080pt" height="720pt" viewBox="0 0 1080 720" xmlns="http://www.w3.org/2000/svg" version="1.1">
 <metadata>
  <rdf:RDF xmlns:dc="http://purl.org/dc/elements/1.1/" xmlns:cc="http://creativecommons.org/ns#" xmlns:rdf="http://www.w3.org/1999/02/22-rdf-syntax-ns#">
   <cc:Work>
    <dc:type rdf:resource="http://purl.org/dc/dcmitype/StillImage"/>
    <dc:date>2023-01-10T19:25:23.603702</dc:date>
    <dc:format>image/svg+xml</dc:format>
    <dc:creator>
     <cc:Agent>
      <dc:title>Matplotlib v3.6.2, https://matplotlib.org/</dc:title>
     </cc:Agent>
    </dc:creator>
   </cc:Work>
  </rdf:RDF>
 </metadata>
 <defs>
  <style type="text/css">*{stroke-linejoin: round; stroke-linecap: butt}</style>
 </defs>
 <g id="figure_1">
  <g id="patch_1">
   <path d="M 0 720 
L 1080 720 
L 1080 0 
L 0 0 
z
" style="fill: #ffffff"/>
  </g>
  <g id="axes_1">
   <g id="patch_2">
    <path d="M 135 640.8 
L 972 640.8 
L 972 86.4 
L 135 86.4 
z
" style="fill: #ffffff"/>
   </g>
   <g id="PathCollection_1">
    <defs>
     <path id="m80f1702e56" d="M 0 3 
C 0.795609 3 1.55874 2.683901 2.12132 2.12132 
C 2.683901 1.55874 3 0.795609 3 0 
C 3 -0.795609 2.683901 -1.55874 2.12132 -2.12132 
C 1.55874 -2.683901 0.795609 -3 0 -3 
C -0.795609 -3 -1.55874 -2.683901 -2.12132 -2.12132 
C -2.683901 -1.55874 -3 -0.795609 -3 0 
C -3 0.795609 -2.683901 1.55874 -2.12132 2.12132 
C -1.55874 2.683901 -0.795609 3 0 3 
z
" style="stroke: #1f77b4"/>
    </defs>
    <g clip-path="url(#p294e5309c2)">
     <use xlink:href="#m80f1702e56" x="173.045455" y="615.6" style="fill: #1f77b4; stroke: #1f77b4"/>
     <use xlink:href="#m80f1702e56" x="213.093301" y="611.763493" style="fill: #1f77b4; stroke: #1f77b4"/>
     <use xlink:href="#m80f1702e56" x="253.141148" y="607.926986" style="fill: #1f77b4; stroke: #1f77b4"/>
     <use xlink:href="#m80f1702e56" x="293.188995" y="604.090479" style="fill: #1f77b4; stroke: #1f77b4"/>
     <use xlink:href="#m80f1702e56" x="333.236842" y="600.253972" style="fill: #1f77b4; stroke: #1f77b4"/>
     <use xlink:href="#m80f1702e56" x="373.284689" y="596.417466" style="fill: #1f77b4; stroke: #1f77b4"/>
     <use xlink:href="#m80f1702e56" x="413.332536" y="592.580959" style="fill: #1f77b4; stroke: #1f77b4"/>
     <use xlink:href="#m80f1702e56" x="453.380383" y="588.744452" style="fill: #1f77b4; stroke: #1f77b4"/>
     <use xlink:href="#m80f1702e56" x="493.42823" y="584.907945" style="fill: #1f77b4; stroke: #1f77b4"/>
     <use xlink:href="#m80f1702e56" x="533.476077" y="574.503077" style="fill: #1f77b4; stroke: #1f77b4"/>
     <use xlink:href="#m80f1702e56" x="573.523923" y="572.397655" style="fill: #1f77b4; stroke: #1f77b4"/>
     <use xlink:href="#m80f1702e56" x="613.57177" y="533.008677" style="fill: #1f77b4; stroke: #1f77b4"/>
     <use xlink:href="#m80f1702e56" x="653.619617" y="493.6197" style="fill: #1f77b4; stroke: #1f77b4"/>
     <use xlink:href="#m80f1702e56" x="693.667464" y="493.6197" style="fill: #1f77b4; stroke: #1f77b4"/>
     <use xlink:href="#m80f1702e56" x="733.715311" y="493.6197" style="fill: #1f77b4; stroke: #1f77b4"/>
     <use xlink:href="#m80f1702e56" x="773.763158" y="493.6197" style="fill: #1f77b4; stroke: #1f77b4"/>
     <use xlink:href="#m80f1702e56" x="813.811005" y="493.6197" style="fill: #1f77b4; stroke: #1f77b4"/>
     <use xlink:href="#m80f1702e56" x="853.858852" y="493.6197" style="fill: #1f77b4; stroke: #1f77b4"/>
     <use xlink:href="#m80f1702e56" x="893.906699" y="493.6197" style="fill: #1f77b4; stroke: #1f77b4"/>
     <use xlink:href="#m80f1702e56" x="933.954545" y="493.6197" style="fill: #1f77b4; stroke: #1f77b4"/>
    </g>
   </g>
   <g id="PathCollection_2">
    <defs>
     <path id="m62fcbac0dc" d="M 0 3 
C 0.795609 3 1.55874 2.683901 2.12132 2.12132 
C 2.683901 1.55874 3 0.795609 3 0 
C 3 -0.795609 2.683901 -1.55874 2.12132 -2.12132 
C 1.55874 -2.683901 0.795609 -3 0 -3 
C -0.795609 -3 -1.55874 -2.683901 -2.12132 -2.12132 
C -2.683901 -1.55874 -3 -0.795609 -3 0 
C -3 0.795609 -2.683901 1.55874 -2.12132 2.12132 
C -1.55874 2.683901 -0.795609 3 0 3 
z
" style="stroke: #ff7f0e"/>
    </defs>
    <g clip-path="url(#p294e5309c2)">
     <use xlink:href="#m62fcbac0dc" x="173.045455" y="156.22457" style="fill: #ff7f0e; stroke: #ff7f0e"/>
     <use xlink:href="#m62fcbac0dc" x="213.093301" y="153.881767" style="fill: #ff7f0e; stroke: #ff7f0e"/>
     <use xlink:href="#m62fcbac0dc" x="253.141148" y="151.538963" style="fill: #ff7f0e; stroke: #ff7f0e"/>
     <use xlink:href="#m62fcbac0dc" x="293.188995" y="149.19616" style="fill: #ff7f0e; stroke: #ff7f0e"/>
     <use xlink:href="#m62fcbac0dc" x="333.236842" y="146.853356" style="fill: #ff7f0e; stroke: #ff7f0e"/>
     <use xlink:href="#m62fcbac0dc" x="373.284689" y="144.510553" style="fill: #ff7f0e; stroke: #ff7f0e"/>
     <use xlink:href="#m62fcbac0dc" x="413.332536" y="142.167749" style="fill: #ff7f0e; stroke: #ff7f0e"/>
     <use xlink:href="#m62fcbac0dc" x="453.380383" y="139.824946" style="fill: #ff7f0e; stroke: #ff7f0e"/>
     <use xlink:href="#m62fcbac0dc" x="493.42823" y="137.482142" style="fill: #ff7f0e; stroke: #ff7f0e"/>
     <use xlink:href="#m62fcbac0dc" x="533.476077" y="166.726691" style="fill: #ff7f0e; stroke: #ff7f0e"/>
     <use xlink:href="#m62fcbac0dc" x="573.523923" y="111.6" style="fill: #ff7f0e; stroke: #ff7f0e"/>
     <use xlink:href="#m62fcbac0dc" x="613.57177" y="145.771767" style="fill: #ff7f0e; stroke: #ff7f0e"/>
     <use xlink:href="#m62fcbac0dc" x="653.619617" y="179.943533" style="fill: #ff7f0e; stroke: #ff7f0e"/>
     <use xlink:href="#m62fcbac0dc" x="693.667464" y="179.943533" style="fill: #ff7f0e; stroke: #ff7f0e"/>
     <use xlink:href="#m62fcbac0dc" x="733.715311" y="179.943533" style="fill: #ff7f0e; stroke: #ff7f0e"/>
     <use xlink:href="#m62fcbac0dc" x="773.763158" y="179.943533" style="fill: #ff7f0e; stroke: #ff7f0e"/>
     <use xlink:href="#m62fcbac0dc" x="813.811005" y="179.943533" style="fill: #ff7f0e; stroke: #ff7f0e"/>
     <use xlink:href="#m62fcbac0dc" x="853.858852" y="179.943533" style="fill: #ff7f0e; stroke: #ff7f0e"/>
     <use xlink:href="#m62fcbac0dc" x="893.906699" y="179.943533" style="fill: #ff7f0e; stroke: #ff7f0e"/>
     <use xlink:href="#m62fcbac0dc" x="933.954545" y="179.943533" style="fill: #ff7f0e; stroke: #ff7f0e"/>
    </g>
   </g>
   <g id="matplotlib.axis_1">
    <g id="xtick_1">
     <g id="line2d_1">
      <defs>
       <path id="m3385fdae1e" d="M 0 0 
L 0 3.5 
" style="stroke: #000000; stroke-width: 0.8"/>
      </defs>
      <g>
       <use xlink:href="#m3385fdae1e" x="173.045455" y="640.8" style="stroke: #000000; stroke-width: 0.8"/>
      </g>
     </g>
     <g id="text_1">
      <!-- 0.0 -->
      <g transform="translate(155.552017 664.516562) scale(0.22 -0.22)">
       <defs>
        <path id="DejaVuSans-30" d="M 2034 4250 
Q 1547 4250 1301 3770 
Q 1056 3291 1056 2328 
Q 1056 1369 1301 889 
Q 1547 409 2034 409 
Q 2525 409 2770 889 
Q 3016 1369 3016 2328 
Q 3016 3291 2770 3770 
Q 2525 4250 2034 4250 
z
M 2034 4750 
Q 2819 4750 3233 4129 
Q 3647 3509 3647 2328 
Q 3647 1150 3233 529 
Q 2819 -91 2034 -91 
Q 1250 -91 836 529 
Q 422 1150 422 2328 
Q 422 3509 836 4129 
Q 1250 4750 2034 4750 
z
" transform="scale(0.015625)"/>
        <path id="DejaVuSans-2e" d="M 684 794 
L 1344 794 
L 1344 0 
L 684 0 
L 684 794 
z
" transform="scale(0.015625)"/>
       </defs>
       <use xlink:href="#DejaVuSans-30"/>
       <use xlink:href="#DejaVuSans-2e" x="63.623047"/>
       <use xlink:href="#DejaVuSans-30" x="95.410156"/>
      </g>
     </g>
    </g>
    <g id="xtick_2">
     <g id="line2d_2">
      <g>
       <use xlink:href="#m3385fdae1e" x="273.165072" y="640.8" style="stroke: #000000; stroke-width: 0.8"/>
      </g>
     </g>
     <g id="text_2">
      <!-- 2.5 -->
      <g transform="translate(255.671634 664.516562) scale(0.22 -0.22)">
       <defs>
        <path id="DejaVuSans-32" d="M 1228 531 
L 3431 531 
L 3431 0 
L 469 0 
L 469 531 
Q 828 903 1448 1529 
Q 2069 2156 2228 2338 
Q 2531 2678 2651 2914 
Q 2772 3150 2772 3378 
Q 2772 3750 2511 3984 
Q 2250 4219 1831 4219 
Q 1534 4219 1204 4116 
Q 875 4013 500 3803 
L 500 4441 
Q 881 4594 1212 4672 
Q 1544 4750 1819 4750 
Q 2544 4750 2975 4387 
Q 3406 4025 3406 3419 
Q 3406 3131 3298 2873 
Q 3191 2616 2906 2266 
Q 2828 2175 2409 1742 
Q 1991 1309 1228 531 
z
" transform="scale(0.015625)"/>
        <path id="DejaVuSans-35" d="M 691 4666 
L 3169 4666 
L 3169 4134 
L 1269 4134 
L 1269 2991 
Q 1406 3038 1543 3061 
Q 1681 3084 1819 3084 
Q 2600 3084 3056 2656 
Q 3513 2228 3513 1497 
Q 3513 744 3044 326 
Q 2575 -91 1722 -91 
Q 1428 -91 1123 -41 
Q 819 9 494 109 
L 494 744 
Q 775 591 1075 516 
Q 1375 441 1709 441 
Q 2250 441 2565 725 
Q 2881 1009 2881 1497 
Q 2881 1984 2565 2268 
Q 2250 2553 1709 2553 
Q 1456 2553 1204 2497 
Q 953 2441 691 2322 
L 691 4666 
z
" transform="scale(0.015625)"/>
       </defs>
       <use xlink:href="#DejaVuSans-32"/>
       <use xlink:href="#DejaVuSans-2e" x="63.623047"/>
       <use xlink:href="#DejaVuSans-35" x="95.410156"/>
      </g>
     </g>
    </g>
    <g id="xtick_3">
     <g id="line2d_3">
      <g>
       <use xlink:href="#m3385fdae1e" x="373.284689" y="640.8" style="stroke: #000000; stroke-width: 0.8"/>
      </g>
     </g>
     <g id="text_3">
      <!-- 5.0 -->
      <g transform="translate(355.791251 664.516562) scale(0.22 -0.22)">
       <use xlink:href="#DejaVuSans-35"/>
       <use xlink:href="#DejaVuSans-2e" x="63.623047"/>
       <use xlink:href="#DejaVuSans-30" x="95.410156"/>
      </g>
     </g>
    </g>
    <g id="xtick_4">
     <g id="line2d_4">
      <g>
       <use xlink:href="#m3385fdae1e" x="473.404306" y="640.8" style="stroke: #000000; stroke-width: 0.8"/>
      </g>
     </g>
     <g id="text_4">
      <!-- 7.5 -->
      <g transform="translate(455.910869 664.516562) scale(0.22 -0.22)">
       <defs>
        <path id="DejaVuSans-37" d="M 525 4666 
L 3525 4666 
L 3525 4397 
L 1831 0 
L 1172 0 
L 2766 4134 
L 525 4134 
L 525 4666 
z
" transform="scale(0.015625)"/>
       </defs>
       <use xlink:href="#DejaVuSans-37"/>
       <use xlink:href="#DejaVuSans-2e" x="63.623047"/>
       <use xlink:href="#DejaVuSans-35" x="95.410156"/>
      </g>
     </g>
    </g>
    <g id="xtick_5">
     <g id="line2d_5">
      <g>
       <use xlink:href="#m3385fdae1e" x="573.523923" y="640.8" style="stroke: #000000; stroke-width: 0.8"/>
      </g>
     </g>
     <g id="text_5">
      <!-- 10.0 -->
      <g transform="translate(549.031736 664.516562) scale(0.22 -0.22)">
       <defs>
        <path id="DejaVuSans-31" d="M 794 531 
L 1825 531 
L 1825 4091 
L 703 3866 
L 703 4441 
L 1819 4666 
L 2450 4666 
L 2450 531 
L 3481 531 
L 3481 0 
L 794 0 
L 794 531 
z
" transform="scale(0.015625)"/>
       </defs>
       <use xlink:href="#DejaVuSans-31"/>
       <use xlink:href="#DejaVuSans-30" x="63.623047"/>
       <use xlink:href="#DejaVuSans-2e" x="127.246094"/>
       <use xlink:href="#DejaVuSans-30" x="159.033203"/>
      </g>
     </g>
    </g>
    <g id="xtick_6">
     <g id="line2d_6">
      <g>
       <use xlink:href="#m3385fdae1e" x="673.643541" y="640.8" style="stroke: #000000; stroke-width: 0.8"/>
      </g>
     </g>
     <g id="text_6">
      <!-- 12.5 -->
      <g transform="translate(649.151353 664.516562) scale(0.22 -0.22)">
       <use xlink:href="#DejaVuSans-31"/>
       <use xlink:href="#DejaVuSans-32" x="63.623047"/>
       <use xlink:href="#DejaVuSans-2e" x="127.246094"/>
       <use xlink:href="#DejaVuSans-35" x="159.033203"/>
      </g>
     </g>
    </g>
    <g id="xtick_7">
     <g id="line2d_7">
      <g>
       <use xlink:href="#m3385fdae1e" x="773.763158" y="640.8" style="stroke: #000000; stroke-width: 0.8"/>
      </g>
     </g>
     <g id="text_7">
      <!-- 15.0 -->
      <g transform="translate(749.27097 664.516562) scale(0.22 -0.22)">
       <use xlink:href="#DejaVuSans-31"/>
       <use xlink:href="#DejaVuSans-35" x="63.623047"/>
       <use xlink:href="#DejaVuSans-2e" x="127.246094"/>
       <use xlink:href="#DejaVuSans-30" x="159.033203"/>
      </g>
     </g>
    </g>
    <g id="xtick_8">
     <g id="line2d_8">
      <g>
       <use xlink:href="#m3385fdae1e" x="873.882775" y="640.8" style="stroke: #000000; stroke-width: 0.8"/>
      </g>
     </g>
     <g id="text_8">
      <!-- 17.5 -->
      <g transform="translate(849.390588 664.516562) scale(0.22 -0.22)">
       <use xlink:href="#DejaVuSans-31"/>
       <use xlink:href="#DejaVuSans-37" x="63.623047"/>
       <use xlink:href="#DejaVuSans-2e" x="127.246094"/>
       <use xlink:href="#DejaVuSans-35" x="159.033203"/>
      </g>
     </g>
    </g>
    <g id="text_9">
     <!-- Time (days) -->
     <g transform="translate(488.541562 689.808437) scale(0.22 -0.22)">
      <defs>
       <path id="DejaVuSans-54" d="M -19 4666 
L 3928 4666 
L 3928 4134 
L 2272 4134 
L 2272 0 
L 1638 0 
L 1638 4134 
L -19 4134 
L -19 4666 
z
" transform="scale(0.015625)"/>
       <path id="DejaVuSans-69" d="M 603 3500 
L 1178 3500 
L 1178 0 
L 603 0 
L 603 3500 
z
M 603 4863 
L 1178 4863 
L 1178 4134 
L 603 4134 
L 603 4863 
z
" transform="scale(0.015625)"/>
       <path id="DejaVuSans-6d" d="M 3328 2828 
Q 3544 3216 3844 3400 
Q 4144 3584 4550 3584 
Q 5097 3584 5394 3201 
Q 5691 2819 5691 2113 
L 5691 0 
L 5113 0 
L 5113 2094 
Q 5113 2597 4934 2840 
Q 4756 3084 4391 3084 
Q 3944 3084 3684 2787 
Q 3425 2491 3425 1978 
L 3425 0 
L 2847 0 
L 2847 2094 
Q 2847 2600 2669 2842 
Q 2491 3084 2119 3084 
Q 1678 3084 1418 2786 
Q 1159 2488 1159 1978 
L 1159 0 
L 581 0 
L 581 3500 
L 1159 3500 
L 1159 2956 
Q 1356 3278 1631 3431 
Q 1906 3584 2284 3584 
Q 2666 3584 2933 3390 
Q 3200 3197 3328 2828 
z
" transform="scale(0.015625)"/>
       <path id="DejaVuSans-65" d="M 3597 1894 
L 3597 1613 
L 953 1613 
Q 991 1019 1311 708 
Q 1631 397 2203 397 
Q 2534 397 2845 478 
Q 3156 559 3463 722 
L 3463 178 
Q 3153 47 2828 -22 
Q 2503 -91 2169 -91 
Q 1331 -91 842 396 
Q 353 884 353 1716 
Q 353 2575 817 3079 
Q 1281 3584 2069 3584 
Q 2775 3584 3186 3129 
Q 3597 2675 3597 1894 
z
M 3022 2063 
Q 3016 2534 2758 2815 
Q 2500 3097 2075 3097 
Q 1594 3097 1305 2825 
Q 1016 2553 972 2059 
L 3022 2063 
z
" transform="scale(0.015625)"/>
       <path id="DejaVuSans-20" transform="scale(0.015625)"/>
       <path id="DejaVuSans-28" d="M 1984 4856 
Q 1566 4138 1362 3434 
Q 1159 2731 1159 2009 
Q 1159 1288 1364 580 
Q 1569 -128 1984 -844 
L 1484 -844 
Q 1016 -109 783 600 
Q 550 1309 550 2009 
Q 550 2706 781 3412 
Q 1013 4119 1484 4856 
L 1984 4856 
z
" transform="scale(0.015625)"/>
       <path id="DejaVuSans-64" d="M 2906 2969 
L 2906 4863 
L 3481 4863 
L 3481 0 
L 2906 0 
L 2906 525 
Q 2725 213 2448 61 
Q 2172 -91 1784 -91 
Q 1150 -91 751 415 
Q 353 922 353 1747 
Q 353 2572 751 3078 
Q 1150 3584 1784 3584 
Q 2172 3584 2448 3432 
Q 2725 3281 2906 2969 
z
M 947 1747 
Q 947 1113 1208 752 
Q 1469 391 1925 391 
Q 2381 391 2643 752 
Q 2906 1113 2906 1747 
Q 2906 2381 2643 2742 
Q 2381 3103 1925 3103 
Q 1469 3103 1208 2742 
Q 947 2381 947 1747 
z
" transform="scale(0.015625)"/>
       <path id="DejaVuSans-61" d="M 2194 1759 
Q 1497 1759 1228 1600 
Q 959 1441 959 1056 
Q 959 750 1161 570 
Q 1363 391 1709 391 
Q 2188 391 2477 730 
Q 2766 1069 2766 1631 
L 2766 1759 
L 2194 1759 
z
M 3341 1997 
L 3341 0 
L 2766 0 
L 2766 531 
Q 2569 213 2275 61 
Q 1981 -91 1556 -91 
Q 1019 -91 701 211 
Q 384 513 384 1019 
Q 384 1609 779 1909 
Q 1175 2209 1959 2209 
L 2766 2209 
L 2766 2266 
Q 2766 2663 2505 2880 
Q 2244 3097 1772 3097 
Q 1472 3097 1187 3025 
Q 903 2953 641 2809 
L 641 3341 
Q 956 3463 1253 3523 
Q 1550 3584 1831 3584 
Q 2591 3584 2966 3190 
Q 3341 2797 3341 1997 
z
" transform="scale(0.015625)"/>
       <path id="DejaVuSans-79" d="M 2059 -325 
Q 1816 -950 1584 -1140 
Q 1353 -1331 966 -1331 
L 506 -1331 
L 506 -850 
L 844 -850 
Q 1081 -850 1212 -737 
Q 1344 -625 1503 -206 
L 1606 56 
L 191 3500 
L 800 3500 
L 1894 763 
L 2988 3500 
L 3597 3500 
L 2059 -325 
z
" transform="scale(0.015625)"/>
       <path id="DejaVuSans-73" d="M 2834 3397 
L 2834 2853 
Q 2591 2978 2328 3040 
Q 2066 3103 1784 3103 
Q 1356 3103 1142 2972 
Q 928 2841 928 2578 
Q 928 2378 1081 2264 
Q 1234 2150 1697 2047 
L 1894 2003 
Q 2506 1872 2764 1633 
Q 3022 1394 3022 966 
Q 3022 478 2636 193 
Q 2250 -91 1575 -91 
Q 1294 -91 989 -36 
Q 684 19 347 128 
L 347 722 
Q 666 556 975 473 
Q 1284 391 1588 391 
Q 1994 391 2212 530 
Q 2431 669 2431 922 
Q 2431 1156 2273 1281 
Q 2116 1406 1581 1522 
L 1381 1569 
Q 847 1681 609 1914 
Q 372 2147 372 2553 
Q 372 3047 722 3315 
Q 1072 3584 1716 3584 
Q 2034 3584 2315 3537 
Q 2597 3491 2834 3397 
z
" transform="scale(0.015625)"/>
       <path id="DejaVuSans-29" d="M 513 4856 
L 1013 4856 
Q 1481 4119 1714 3412 
Q 1947 2706 1947 2009 
Q 1947 1309 1714 600 
Q 1481 -109 1013 -844 
L 513 -844 
Q 928 -128 1133 580 
Q 1338 1288 1338 2009 
Q 1338 2731 1133 3434 
Q 928 4138 513 4856 
z
" transform="scale(0.015625)"/>
      </defs>
      <use xlink:href="#DejaVuSans-54"/>
      <use xlink:href="#DejaVuSans-69" x="57.958984"/>
      <use xlink:href="#DejaVuSans-6d" x="85.742188"/>
      <use xlink:href="#DejaVuSans-65" x="183.154297"/>
      <use xlink:href="#DejaVuSans-20" x="244.677734"/>
      <use xlink:href="#DejaVuSans-28" x="276.464844"/>
      <use xlink:href="#DejaVuSans-64" x="315.478516"/>
      <use xlink:href="#DejaVuSans-61" x="378.955078"/>
      <use xlink:href="#DejaVuSans-79" x="440.234375"/>
      <use xlink:href="#DejaVuSans-73" x="499.414062"/>
      <use xlink:href="#DejaVuSans-29" x="551.513672"/>
     </g>
    </g>
   </g>
   <g id="matplotlib.axis_2">
    <g id="ytick_1">
     <g id="line2d_9">
      <defs>
       <path id="ma600d9e374" d="M 0 0 
L -3.5 0 
" style="stroke: #000000; stroke-width: 0.8"/>
      </defs>
      <g>
       <use xlink:href="#ma600d9e374" x="135" y="615.908529" style="stroke: #000000; stroke-width: 0.8"/>
      </g>
     </g>
     <g id="text_10">
      <!-- 0.00 -->
      <g transform="translate(79.015625 624.26681) scale(0.22 -0.22)">
       <use xlink:href="#DejaVuSans-30"/>
       <use xlink:href="#DejaVuSans-2e" x="63.623047"/>
       <use xlink:href="#DejaVuSans-30" x="95.410156"/>
       <use xlink:href="#DejaVuSans-30" x="159.033203"/>
      </g>
     </g>
    </g>
    <g id="ytick_2">
     <g id="line2d_10">
      <g>
       <use xlink:href="#ma600d9e374" x="135" y="544.201469" style="stroke: #000000; stroke-width: 0.8"/>
      </g>
     </g>
     <g id="text_11">
      <!-- 0.25 -->
      <g transform="translate(79.015625 552.559751) scale(0.22 -0.22)">
       <use xlink:href="#DejaVuSans-30"/>
       <use xlink:href="#DejaVuSans-2e" x="63.623047"/>
       <use xlink:href="#DejaVuSans-32" x="95.410156"/>
       <use xlink:href="#DejaVuSans-35" x="159.033203"/>
      </g>
     </g>
    </g>
    <g id="ytick_3">
     <g id="line2d_11">
      <g>
       <use xlink:href="#ma600d9e374" x="135" y="472.49441" style="stroke: #000000; stroke-width: 0.8"/>
      </g>
     </g>
     <g id="text_12">
      <!-- 0.50 -->
      <g transform="translate(79.015625 480.852691) scale(0.22 -0.22)">
       <use xlink:href="#DejaVuSans-30"/>
       <use xlink:href="#DejaVuSans-2e" x="63.623047"/>
       <use xlink:href="#DejaVuSans-35" x="95.410156"/>
       <use xlink:href="#DejaVuSans-30" x="159.033203"/>
      </g>
     </g>
    </g>
    <g id="ytick_4">
     <g id="line2d_12">
      <g>
       <use xlink:href="#ma600d9e374" x="135" y="400.78735" style="stroke: #000000; stroke-width: 0.8"/>
      </g>
     </g>
     <g id="text_13">
      <!-- 0.75 -->
      <g transform="translate(79.015625 409.145632) scale(0.22 -0.22)">
       <use xlink:href="#DejaVuSans-30"/>
       <use xlink:href="#DejaVuSans-2e" x="63.623047"/>
       <use xlink:href="#DejaVuSans-37" x="95.410156"/>
       <use xlink:href="#DejaVuSans-35" x="159.033203"/>
      </g>
     </g>
    </g>
    <g id="ytick_5">
     <g id="line2d_13">
      <g>
       <use xlink:href="#ma600d9e374" x="135" y="329.080291" style="stroke: #000000; stroke-width: 0.8"/>
      </g>
     </g>
     <g id="text_14">
      <!-- 1.00 -->
      <g transform="translate(79.015625 337.438572) scale(0.22 -0.22)">
       <use xlink:href="#DejaVuSans-31"/>
       <use xlink:href="#DejaVuSans-2e" x="63.623047"/>
       <use xlink:href="#DejaVuSans-30" x="95.410156"/>
       <use xlink:href="#DejaVuSans-30" x="159.033203"/>
      </g>
     </g>
    </g>
    <g id="ytick_6">
     <g id="line2d_14">
      <g>
       <use xlink:href="#ma600d9e374" x="135" y="257.373231" style="stroke: #000000; stroke-width: 0.8"/>
      </g>
     </g>
     <g id="text_15">
      <!-- 1.25 -->
      <g transform="translate(79.015625 265.731513) scale(0.22 -0.22)">
       <use xlink:href="#DejaVuSans-31"/>
       <use xlink:href="#DejaVuSans-2e" x="63.623047"/>
       <use xlink:href="#DejaVuSans-32" x="95.410156"/>
       <use xlink:href="#DejaVuSans-35" x="159.033203"/>
      </g>
     </g>
    </g>
    <g id="ytick_7">
     <g id="line2d_15">
      <g>
       <use xlink:href="#ma600d9e374" x="135" y="185.666172" style="stroke: #000000; stroke-width: 0.8"/>
      </g>
     </g>
     <g id="text_16">
      <!-- 1.50 -->
      <g transform="translate(79.015625 194.024453) scale(0.22 -0.22)">
       <use xlink:href="#DejaVuSans-31"/>
       <use xlink:href="#DejaVuSans-2e" x="63.623047"/>
       <use xlink:href="#DejaVuSans-35" x="95.410156"/>
       <use xlink:href="#DejaVuSans-30" x="159.033203"/>
      </g>
     </g>
    </g>
    <g id="ytick_8">
     <g id="line2d_16">
      <g>
       <use xlink:href="#ma600d9e374" x="135" y="113.959112" style="stroke: #000000; stroke-width: 0.8"/>
      </g>
     </g>
     <g id="text_17">
      <!-- 1.75 -->
      <g transform="translate(79.015625 122.317393) scale(0.22 -0.22)">
       <use xlink:href="#DejaVuSans-31"/>
       <use xlink:href="#DejaVuSans-2e" x="63.623047"/>
       <use xlink:href="#DejaVuSans-37" x="95.410156"/>
       <use xlink:href="#DejaVuSans-35" x="159.033203"/>
      </g>
     </g>
    </g>
    <g id="text_18">
     <!-- X:A -->
     <g transform="translate(70.440313 382.365312) rotate(-90) scale(0.22 -0.22)">
      <defs>
       <path id="DejaVuSans-58" d="M 403 4666 
L 1081 4666 
L 2241 2931 
L 3406 4666 
L 4084 4666 
L 2584 2425 
L 4184 0 
L 3506 0 
L 2194 1984 
L 872 0 
L 191 0 
L 1856 2491 
L 403 4666 
z
" transform="scale(0.015625)"/>
       <path id="DejaVuSans-3a" d="M 750 794 
L 1409 794 
L 1409 0 
L 750 0 
L 750 794 
z
M 750 3309 
L 1409 3309 
L 1409 2516 
L 750 2516 
L 750 3309 
z
" transform="scale(0.015625)"/>
       <path id="DejaVuSans-41" d="M 2188 4044 
L 1331 1722 
L 3047 1722 
L 2188 4044 
z
M 1831 4666 
L 2547 4666 
L 4325 0 
L 3669 0 
L 3244 1197 
L 1141 1197 
L 716 0 
L 50 0 
L 1831 4666 
z
" transform="scale(0.015625)"/>
      </defs>
      <use xlink:href="#DejaVuSans-58"/>
      <use xlink:href="#DejaVuSans-3a" x="68.505859"/>
      <use xlink:href="#DejaVuSans-41" x="102.197266"/>
     </g>
    </g>
   </g>
   <g id="line2d_17">
    <path d="M 173.045455 615.6 
L 180.731405 614.199005 
L 188.417355 612.826712 
L 196.103306 611.460615 
L 203.789256 610.098463 
L 211.475207 608.73573 
L 219.161157 607.375746 
L 226.847107 606.013796 
L 234.533058 604.647508 
L 242.219008 603.289548 
L 249.904959 601.937879 
L 257.590909 600.573899 
L 265.27686 599.207169 
L 272.96281 597.854226 
L 280.64876 596.490342 
L 288.334711 595.127123 
L 296.020661 593.773052 
L 303.706612 592.406857 
L 311.392562 591.045041 
L 319.078512 589.69427 
L 326.764463 588.327268 
L 334.450413 586.960719 
L 342.136364 585.616188 
L 349.822314 584.255433 
L 357.508264 582.881748 
L 365.194215 581.537657 
L 372.880165 580.179627 
L 380.566116 578.809481 
L 388.252066 577.460755 
L 395.938017 576.096406 
L 403.623967 574.734821 
L 411.309917 573.38172 
L 418.995868 572.015791 
L 426.681818 570.658176 
L 434.367769 569.305392 
L 442.053719 567.93678 
L 449.739669 566.579214 
L 457.42562 565.2336 
L 465.11157 563.86619 
L 472.797521 562.50541 
L 480.483471 561.156953 
L 488.169421 559.790026 
L 495.855372 558.432774 
L 503.541322 557.080536 
L 511.227273 555.713753 
L 518.913223 554.358965 
L 526.599174 553.00796 
L 534.285124 551.63858 
L 541.971074 550.284063 
L 549.657025 548.938956 
L 557.342975 547.567414 
L 565.028926 546.21055 
L 572.714876 544.869069 
L 580.400826 543.498563 
L 588.086777 542.141875 
L 595.772727 540.795113 
L 603.458678 539.427349 
L 611.144628 538.073823 
L 618.830579 536.719915 
L 626.516529 535.355617 
L 634.202479 534.004545 
L 641.88843 532.648703 
L 649.57438 531.2836 
L 657.260331 529.934922 
L 664.946281 528.582616 
L 672.632231 527.212839 
L 680.318182 525.864901 
L 688.004132 524.519152 
L 695.690083 523.147185 
L 703.376033 521.79784 
L 711.061983 520.450233 
L 718.747934 519.082437 
L 726.433884 517.733255 
L 734.119835 516.377858 
L 741.805785 515.016077 
L 749.491736 513.667566 
L 757.177686 512.30844 
L 764.863636 510.948771 
L 772.549587 509.602457 
L 780.235537 508.242916 
L 787.921488 506.880338 
L 795.607438 505.537981 
L 803.293388 504.182782 
L 810.979339 502.815088 
L 818.665289 501.473731 
L 826.35124 500.121437 
L 834.03719 498.755128 
L 841.72314 497.411425 
L 849.409091 496.05412 
L 857.095041 494.694653 
L 864.780992 493.348315 
L 872.466942 491.987673 
L 880.152893 490.632546 
L 887.838843 489.286065 
L 895.524793 487.923536 
L 903.210744 486.56881 
L 910.896694 485.226795 
L 918.582645 483.866624 
L 926.268595 482.511208 
L 933.954545 481.162044 
" clip-path="url(#p294e5309c2)" style="fill: none; stroke: #d0e1f2; stroke-width: 1.5; stroke-linecap: square"/>
   </g>
   <g id="line2d_18">
    <path d="M 173.045455 156.22457 
L 180.731405 158.318547 
L 188.417355 158.915665 
L 196.103306 159.169329 
L 203.789256 159.216836 
L 211.475207 159.298492 
L 219.161157 159.236796 
L 226.847107 159.28597 
L 234.533058 159.578285 
L 242.219008 159.419894 
L 249.904959 158.918705 
L 257.590909 159.090015 
L 265.27686 159.426849 
L 272.96281 159.025438 
L 280.64876 159.210123 
L 288.334711 159.36765 
L 296.020661 159.035491 
L 303.706612 159.360353 
L 311.392562 159.457395 
L 319.078512 158.954192 
L 326.764463 159.339683 
L 334.450413 159.724002 
L 342.136364 158.894263 
L 349.822314 158.940188 
L 357.508264 159.737579 
L 365.194215 158.929423 
L 372.880165 158.848357 
L 380.566116 159.444954 
L 388.252066 158.904472 
L 395.938017 159.182948 
L 403.623967 159.321034 
L 411.309917 159.006209 
L 418.995868 159.381359 
L 426.681818 159.314948 
L 434.367769 158.987447 
L 442.053719 159.529156 
L 449.739669 159.478634 
L 457.42562 158.768337 
L 465.11157 159.246588 
L 472.797521 159.388787 
L 480.483471 158.86589 
L 488.169421 159.333937 
L 495.855372 159.292083 
L 503.541322 158.978897 
L 511.227273 159.456057 
L 518.913223 159.291616 
L 526.599174 158.919142 
L 534.285124 159.557611 
L 541.971074 159.397513 
L 549.657025 158.714386 
L 557.342975 159.483027 
L 565.028926 159.478154 
L 572.714876 158.622275 
L 580.400826 159.338946 
L 588.086777 159.335889 
L 595.772727 158.790474 
L 603.458678 159.370496 
L 611.144628 159.197343 
L 618.830579 159.04041 
L 626.516529 159.448638 
L 634.202479 159.148377 
L 641.88843 159.104064 
L 649.57438 159.575637 
L 657.260331 159.157386 
L 664.946281 158.929924 
L 672.632231 159.679404 
L 680.318182 159.244675 
L 688.004132 158.672472 
L 695.690083 159.546797 
L 703.376033 159.216323 
L 711.061983 158.773458 
L 718.747934 159.425402 
L 726.433884 159.090304 
L 734.119835 159.079277 
L 741.805785 159.417759 
L 749.491736 159.046427 
L 757.177686 159.245887 
L 764.863636 159.485506 
L 772.549587 159.00231 
L 780.235537 159.237751 
L 787.921488 159.65952 
L 795.607438 158.974915 
L 803.293388 158.981126 
L 810.979339 159.703692 
L 818.665289 158.996347 
L 826.35124 158.860864 
L 834.03719 159.508207 
L 841.72314 158.949178 
L 849.409091 159.104827 
L 857.095041 159.386884 
L 864.780992 158.967419 
L 872.466942 159.313652 
L 880.152893 159.371697 
L 887.838843 158.963097 
L 895.524793 159.428584 
L 903.210744 159.482143 
L 910.896694 158.83941 
L 918.582645 159.180694 
L 926.268595 159.281131 
L 933.954545 159.048747 
" clip-path="url(#p294e5309c2)" style="fill: none; stroke: #fdd9b4; stroke-width: 1.5; stroke-linecap: square"/>
   </g>
   <g id="line2d_19">
    <path d="M 173.045455 615.6 
L 180.731405 614.396682 
L 188.417355 613.168467 
L 196.103306 611.933403 
L 203.789256 610.694821 
L 211.475207 609.454536 
L 219.161157 608.21245 
L 226.847107 606.970121 
L 234.533058 605.725289 
L 242.219008 604.478614 
L 249.904959 603.232573 
L 257.590909 601.98322 
L 265.27686 600.730135 
L 272.96281 599.478572 
L 280.64876 598.224227 
L 288.334711 596.965036 
L 296.020661 595.707202 
L 303.706612 594.445834 
L 311.392562 593.179669 
L 319.078512 591.914795 
L 326.764463 590.645552 
L 334.450413 589.371163 
L 342.136364 588.098302 
L 349.822314 586.820512 
L 357.508264 585.536986 
L 365.194215 584.255107 
L 372.880165 582.967787 
L 380.566116 581.674753 
L 388.252066 580.382834 
L 395.938017 579.084804 
L 403.623967 577.781868 
L 411.309917 576.478861 
L 418.995868 575.169177 
L 426.681818 573.855314 
L 434.367769 572.540439 
L 442.053719 571.218311 
L 449.739669 569.89213 
L 457.42562 568.56482 
L 465.11157 567.229474 
L 472.797521 565.88978 
L 480.483471 564.549111 
L 488.169421 563.199782 
L 495.855372 561.846027 
L 503.541322 560.490615 
L 511.227273 559.126391 
L 518.913223 557.75823 
L 526.599174 556.38677 
L 534.285124 555.00666 
L 541.971074 553.623098 
L 549.657025 552.234774 
L 557.342975 550.837714 
L 565.028926 549.437434 
L 572.714876 548.031673 
L 580.400826 546.616502 
L 588.086777 545.198195 
L 595.772727 543.774225 
L 603.458678 542.339994 
L 611.144628 540.902571 
L 618.830579 539.459032 
L 626.516529 538.005058 
L 634.202479 536.547739 
L 641.88843 535.083038 
L 649.57438 533.608478 
L 657.260331 532.130175 
L 664.946281 530.64315 
L 672.632231 529.146723 
L 680.318182 527.646178 
L 688.004132 526.135937 
L 695.690083 524.616014 
L 703.376033 523.092064 
L 711.061983 521.557675 
L 718.747934 520.012775 
L 726.433884 518.464019 
L 734.119835 516.904254 
L 741.805785 515.333547 
L 749.491736 513.758433 
L 757.177686 512.171635 
L 764.863636 510.574501 
L 772.549587 508.971387 
L 780.235537 507.356002 
L 787.921488 505.730994 
L 795.607438 504.098495 
L 803.293388 502.453122 
L 810.979339 500.798206 
L 818.665289 499.13524 
L 826.35124 497.458398 
L 834.03719 495.771535 
L 841.72314 494.076695 
L 849.409091 492.366941 
L 857.095041 490.64662 
L 864.780992 488.917784 
L 872.466942 487.17355 
L 880.152893 485.418769 
L 887.838843 483.653609 
L 895.524793 481.8731 
L 903.210744 480.082153 
L 910.896694 478.278839 
L 918.582645 476.460073 
L 926.268595 474.630139 
L 933.954545 472.786734 
" clip-path="url(#p294e5309c2)" style="fill: none; stroke: #79b5d9; stroke-width: 1.5; stroke-linecap: square"/>
   </g>
   <g id="line2d_20">
    <path d="M 173.045455 156.22457 
L 180.731405 146.563608 
L 188.417355 143.787332 
L 196.103306 142.73433 
L 203.789256 142.452007 
L 211.475207 142.390399 
L 219.161157 142.538593 
L 226.847107 142.424099 
L 234.533058 142.641672 
L 242.219008 142.972518 
L 249.904959 142.694007 
L 257.590909 142.872886 
L 265.27686 143.593893 
L 272.96281 143.363211 
L 280.64876 143.35077 
L 288.334711 144.101311 
L 296.020661 143.855169 
L 303.706612 143.949106 
L 311.392562 144.705967 
L 319.078512 144.397904 
L 326.764463 144.578269 
L 334.450413 145.434594 
L 342.136364 145.07543 
L 349.822314 145.278426 
L 357.508264 146.239318 
L 365.194215 145.867849 
L 372.880165 146.11963 
L 380.566116 147.04213 
L 388.252066 146.696585 
L 395.938017 147.080613 
L 403.623967 147.827164 
L 411.309917 147.554545 
L 418.995868 148.087947 
L 426.681818 148.697739 
L 434.367769 148.46861 
L 442.053719 149.1245 
L 449.739669 149.737708 
L 457.42562 149.460956 
L 465.11157 150.205265 
L 472.797521 150.904479 
L 480.483471 150.584368 
L 488.169421 151.376331 
L 495.855372 152.058767 
L 503.541322 151.824353 
L 511.227273 152.659459 
L 518.913223 153.158317 
L 526.599174 153.112852 
L 534.285124 154.001904 
L 541.971074 154.327264 
L 549.657025 154.428759 
L 557.342975 155.397812 
L 565.028926 155.643357 
L 572.714876 155.774128 
L 580.400826 156.868593 
L 588.086777 157.118257 
L 595.772727 157.207575 
L 603.458678 158.404249 
L 611.144628 158.670616 
L 618.830579 158.803789 
L 626.516529 159.994102 
L 634.202479 160.191609 
L 641.88843 160.510806 
L 649.57438 161.618759 
L 657.260331 161.738414 
L 664.946281 162.251866 
L 672.632231 163.314917 
L 680.318182 163.382975 
L 688.004132 164.009915 
L 695.690083 165.151726 
L 703.376033 165.154508 
L 711.061983 165.811192 
L 718.747934 167.100124 
L 726.433884 167.076111 
L 734.119835 167.747488 
L 741.805785 169.049899 
L 749.491736 169.066466 
L 757.177686 169.8432 
L 764.863636 170.946743 
L 772.549587 171.079283 
L 780.235537 172.005916 
L 787.921488 172.915985 
L 795.607438 173.147965 
L 803.293388 174.206501 
L 810.979339 175.079265 
L 818.665289 175.285659 
L 826.35124 176.459515 
L 834.03719 177.431641 
L 841.72314 177.559156 
L 849.409091 178.798338 
L 857.095041 179.831371 
L 864.780992 180.008587 
L 872.466942 181.273695 
L 880.152893 182.155251 
L 887.838843 182.546466 
L 895.524793 183.836967 
L 903.210744 184.529925 
L 910.896694 185.128194 
L 918.582645 186.469723 
L 926.268595 187.234658 
L 933.954545 188.031704 
" clip-path="url(#p294e5309c2)" style="fill: none; stroke: #fd9649; stroke-width: 1.5; stroke-linecap: square"/>
   </g>
   <g id="line2d_21">
    <path d="M 173.045455 615.6 
L 180.731405 614.224681 
L 188.417355 612.849368 
L 196.103306 611.47406 
L 203.789256 610.098757 
L 211.475207 608.72346 
L 219.161157 607.348168 
L 226.847107 605.972881 
L 234.533058 604.597599 
L 242.219008 603.222322 
L 249.904959 601.847051 
L 257.590909 600.471785 
L 265.27686 599.096524 
L 272.96281 597.721269 
L 280.64876 596.346019 
L 288.334711 594.970774 
L 296.020661 593.595534 
L 303.706612 592.2203 
L 311.392562 590.84507 
L 319.078512 589.469846 
L 326.764463 588.094628 
L 334.450413 586.719414 
L 342.136364 585.344206 
L 349.822314 583.969003 
L 357.508264 582.593805 
L 365.194215 581.218613 
L 372.880165 579.843426 
L 380.566116 578.468244 
L 388.252066 577.093067 
L 395.938017 575.717896 
L 403.623967 574.342729 
L 411.309917 572.967568 
L 418.995868 571.592413 
L 426.681818 570.217262 
L 434.367769 568.842117 
L 442.053719 567.466977 
L 449.739669 566.091843 
L 457.42562 564.716713 
L 465.11157 563.341589 
L 472.797521 561.96647 
L 480.483471 560.591356 
L 488.169421 559.216248 
L 495.855372 557.841145 
L 503.541322 556.466047 
L 511.227273 555.090954 
L 518.913223 553.715867 
L 526.599174 552.340785 
L 534.285124 550.965708 
L 541.971074 549.590636 
L 549.657025 548.21557 
L 557.342975 546.840509 
L 565.028926 545.465453 
L 572.714876 544.090402 
L 580.400826 542.715357 
L 588.086777 541.340317 
L 595.772727 539.965282 
L 603.458678 538.590252 
L 611.144628 537.215228 
L 618.830579 535.840209 
L 626.516529 534.465195 
L 634.202479 533.090186 
L 641.88843 531.715183 
L 649.57438 530.340185 
L 657.260331 528.965192 
L 664.946281 527.590204 
L 672.632231 526.215222 
L 680.318182 524.840245 
L 688.004132 523.465273 
L 695.690083 522.090306 
L 703.376033 520.715345 
L 711.061983 519.340389 
L 718.747934 517.965438 
L 726.433884 516.590492 
L 734.119835 515.215552 
L 741.805785 513.840617 
L 749.491736 512.465687 
L 757.177686 511.090762 
L 764.863636 509.715843 
L 772.549587 508.340929 
L 780.235537 506.96602 
L 787.921488 505.591116 
L 795.607438 504.216218 
L 803.293388 502.841325 
L 810.979339 501.466437 
L 818.665289 500.091554 
L 826.35124 498.716677 
L 834.03719 497.341805 
L 841.72314 495.966938 
L 849.409091 494.592077 
L 857.095041 493.21722 
L 864.780992 491.842369 
L 872.466942 490.467523 
L 880.152893 489.092683 
L 887.838843 487.717847 
L 895.524793 486.343017 
L 903.210744 484.968193 
L 910.896694 483.593373 
L 918.582645 482.218559 
L 926.268595 480.84375 
L 933.954545 479.468946 
" clip-path="url(#p294e5309c2)" style="fill: none; stroke: #2575b7; stroke-width: 1.5; stroke-linecap: square"/>
   </g>
   <g id="line2d_22">
    <path d="M 173.045455 156.22457 
L 180.731405 159.475703 
L 188.417355 159.902962 
L 196.103306 160.083246 
L 203.789256 160.327281 
L 211.475207 160.389236 
L 219.161157 160.507729 
L 226.847107 160.36362 
L 234.533058 160.55192 
L 242.219008 160.80935 
L 249.904959 160.382056 
L 257.590909 159.999446 
L 265.27686 160.566637 
L 272.96281 160.423957 
L 280.64876 160.18068 
L 288.334711 160.579992 
L 296.020661 160.344636 
L 303.706612 160.343558 
L 311.392562 160.711968 
L 319.078512 160.323903 
L 326.764463 160.22731 
L 334.450413 160.927771 
L 342.136364 160.427749 
L 349.822314 159.813 
L 357.508264 160.832246 
L 365.194215 160.486304 
L 372.880165 159.751798 
L 380.566116 160.589576 
L 388.252066 160.279834 
L 395.938017 160.207721 
L 403.623967 160.555851 
L 411.309917 160.227263 
L 418.995868 160.474798 
L 426.681818 160.586698 
L 434.367769 160.190444 
L 442.053719 160.583388 
L 449.739669 160.785796 
L 457.42562 160.072634 
L 465.11157 160.264107 
L 472.797521 160.640441 
L 480.483471 160.108081 
L 488.169421 160.427745 
L 495.855372 160.543642 
L 503.541322 160.155384 
L 511.227273 160.586761 
L 518.913223 160.558056 
L 526.599174 160.093534 
L 534.285124 160.676992 
L 541.971074 160.698917 
L 549.657025 159.918218 
L 557.342975 160.551294 
L 565.028926 160.786096 
L 572.714876 159.835555 
L 580.400826 160.409279 
L 588.086777 160.590249 
L 595.772727 159.958838 
L 603.458678 160.510797 
L 611.144628 160.419119 
L 618.830579 160.21475 
L 626.516529 160.62257 
L 634.202479 160.361264 
L 641.88843 160.281785 
L 649.57438 160.770366 
L 657.260331 160.376008 
L 664.946281 160.07862 
L 672.632231 160.888377 
L 680.318182 160.486269 
L 688.004132 159.781705 
L 695.690083 160.717166 
L 703.376033 160.426925 
L 711.061983 159.92859 
L 718.747934 160.588973 
L 726.433884 160.263669 
L 734.119835 160.298339 
L 741.805785 160.583409 
L 749.491736 160.225083 
L 757.177686 160.48468 
L 764.863636 160.653612 
L 772.549587 160.162544 
L 780.235537 160.499065 
L 787.921488 160.87146 
L 795.607438 160.092115 
L 803.293388 160.197641 
L 810.979339 160.934137 
L 818.665289 160.09199 
L 826.35124 160.069254 
L 834.03719 160.669337 
L 841.72314 160.060904 
L 849.409091 160.36363 
L 857.095041 160.512024 
L 864.780992 160.16999 
L 872.466942 160.567501 
L 880.152893 160.478757 
L 887.838843 160.187265 
L 895.524793 160.72785 
L 903.210744 160.583208 
L 910.896694 159.962883 
L 918.582645 160.504232 
L 926.268595 160.485471 
L 933.954545 160.126444 
" clip-path="url(#p294e5309c2)" style="fill: none; stroke: #dc4c03; stroke-width: 1.5; stroke-linecap: square"/>
   </g>
   <g id="line2d_23">
    <path d="M 173.045455 615.6 
L 180.731405 614.282447 
L 188.417355 612.971804 
L 196.103306 611.666129 
L 203.789256 610.361268 
L 211.475207 609.05705 
L 219.161157 607.75355 
L 226.847107 606.449954 
L 234.533058 605.145949 
L 242.219008 603.841789 
L 249.904959 602.537411 
L 257.590909 601.232425 
L 265.27686 599.926388 
L 272.96281 598.61961 
L 280.64876 597.312347 
L 288.334711 596.004596 
L 296.020661 594.696094 
L 303.706612 593.386323 
L 311.392562 592.074841 
L 319.078512 590.762249 
L 326.764463 589.449043 
L 334.450413 588.13527 
L 342.136364 586.820522 
L 349.822314 585.503941 
L 357.508264 584.184664 
L 365.194215 582.863717 
L 372.880165 581.542145 
L 380.566116 580.220172 
L 388.252066 578.897197 
L 395.938017 577.571797 
L 403.623967 576.242547 
L 411.309917 574.911219 
L 418.995868 573.579137 
L 426.681818 572.246456 
L 434.367769 570.912201 
L 442.053719 569.574329 
L 449.739669 568.233032 
L 457.42562 566.890051 
L 465.11157 565.545729 
L 472.797521 564.199562 
L 480.483471 562.85022 
L 488.169421 561.497539 
L 495.855372 560.142566 
L 503.541322 558.785526 
L 511.227273 557.426135 
L 518.913223 556.063593 
L 526.599174 554.697408 
L 534.285124 553.32836 
L 541.971074 551.956835 
L 549.657025 550.582763 
L 557.342975 549.205617 
L 565.028926 547.824442 
L 572.714876 546.439113 
L 580.400826 545.050704 
L 588.086777 543.659738 
L 595.772727 542.266071 
L 603.458678 540.868891 
L 611.144628 539.466747 
L 618.830579 538.059508 
L 626.516529 536.648866 
L 634.202479 535.235581 
L 641.88843 533.819402 
L 649.57438 532.399066 
L 657.260331 530.972621 
L 664.946281 529.541211 
L 672.632231 528.10626 
L 680.318182 526.667978 
L 688.004132 525.225626 
L 695.690083 523.777594 
L 703.376033 522.324096 
L 711.061983 520.866252 
L 718.747934 519.404226 
L 726.433884 517.937591 
L 734.119835 516.465341 
L 741.805785 514.987329 
L 749.491736 513.504326 
L 757.177686 512.016555 
L 764.863636 510.523786 
L 772.549587 509.025337 
L 780.235537 507.520367 
L 787.921488 506.009454 
L 795.607438 504.493282 
L 803.293388 502.971978 
L 810.979339 501.445115 
L 818.665289 499.911711 
L 826.35124 498.3707 
L 834.03719 496.823105 
L 841.72314 495.269966 
L 849.409091 493.711462 
L 857.095041 492.146918 
L 864.780992 490.574809 
L 872.466942 488.994045 
L 880.152893 487.406434 
L 887.838843 485.812816 
L 895.524793 484.213047 
L 903.210744 482.606016 
L 910.896694 480.990133 
L 918.582645 479.366635 
L 926.268595 477.735799 
L 933.954545 476.097297 
" clip-path="url(#p294e5309c2)" style="fill: none; stroke: #08306b; stroke-width: 1.5; stroke-linecap: square"/>
   </g>
   <g id="line2d_24">
    <path d="M 173.045455 156.22457 
L 180.731405 150.050315 
L 188.417355 146.629989 
L 196.103306 145.219844 
L 203.789256 144.208513 
L 211.475207 143.550435 
L 219.161157 143.297467 
L 226.847107 143.152551 
L 234.533058 143.015641 
L 242.219008 143.010851 
L 249.904959 143.137078 
L 257.590909 143.264116 
L 265.27686 143.241386 
L 272.96281 143.215082 
L 280.64876 143.310554 
L 288.334711 143.550722 
L 296.020661 143.856457 
L 303.706612 144.046583 
L 311.392562 143.971806 
L 319.078512 143.893429 
L 326.764463 144.032871 
L 334.450413 144.43286 
L 342.136364 144.95746 
L 349.822314 145.292072 
L 357.508264 145.120665 
L 365.194215 144.873486 
L 372.880165 144.989867 
L 380.566116 145.583418 
L 388.252066 146.442251 
L 395.938017 147.028974 
L 403.623967 146.805297 
L 411.309917 146.497907 
L 418.995868 146.657538 
L 426.681818 147.37073 
L 434.367769 148.279188 
L 442.053719 148.5996 
L 449.739669 148.435114 
L 457.42562 148.501146 
L 465.11157 148.960586 
L 472.797521 149.641397 
L 480.483471 150.044098 
L 488.169421 150.130655 
L 495.855372 150.343637 
L 503.541322 150.800267 
L 511.227273 151.415169 
L 518.913223 151.900374 
L 526.599174 152.089169 
L 534.285124 152.318954 
L 541.971074 152.77143 
L 549.657025 153.447866 
L 557.342975 154.169098 
L 565.028926 154.585421 
L 572.714876 154.677214 
L 580.400826 154.900041 
L 588.086777 155.491473 
L 595.772727 156.424823 
L 603.458678 157.409157 
L 611.144628 157.89914 
L 618.830579 157.874079 
L 626.516529 158.037022 
L 634.202479 158.721308 
L 641.88843 159.859239 
L 649.57438 160.982086 
L 657.260331 161.346807 
L 664.946281 161.440453 
L 672.632231 161.862835 
L 680.318182 162.730025 
L 688.004132 163.782466 
L 695.690083 164.414922 
L 703.376033 164.746749 
L 711.061983 165.257468 
L 718.747934 166.048823 
L 726.433884 166.98543 
L 734.119835 167.703686 
L 741.805785 168.181237 
L 749.491736 168.762175 
L 757.177686 169.571687 
L 764.863636 170.555835 
L 772.549587 171.48156 
L 780.235537 172.051941 
L 787.921488 172.535461 
L 795.607438 173.245092 
L 803.293388 174.270546 
L 810.979339 175.481471 
L 818.665289 176.527452 
L 826.35124 177.023733 
L 834.03719 177.420108 
L 841.72314 178.174468 
L 849.409091 179.400608 
L 857.095041 180.872292 
L 864.780992 182.023245 
L 872.466942 182.461371 
L 880.152893 182.954858 
L 887.838843 183.885761 
L 895.524793 185.242302 
L 903.210744 186.626129 
L 910.896694 187.445914 
L 918.582645 188.245446 
L 926.268595 189.185051 
L 933.954545 190.181538 
" clip-path="url(#p294e5309c2)" style="fill: none; stroke: #7f2704; stroke-width: 1.5; stroke-linecap: square"/>
   </g>
   <g id="patch_3">
    <path d="M 135 640.8 
L 135 86.4 
" style="fill: none; stroke: #000000; stroke-width: 0.8; stroke-linejoin: miter; stroke-linecap: square"/>
   </g>
   <g id="patch_4">
    <path d="M 972 640.8 
L 972 86.4 
" style="fill: none; stroke: #000000; stroke-width: 0.8; stroke-linejoin: miter; stroke-linecap: square"/>
   </g>
   <g id="patch_5">
    <path d="M 135 640.8 
L 972 640.8 
" style="fill: none; stroke: #000000; stroke-width: 0.8; stroke-linejoin: miter; stroke-linecap: square"/>
   </g>
   <g id="patch_6">
    <path d="M 135 86.4 
L 972 86.4 
" style="fill: none; stroke: #000000; stroke-width: 0.8; stroke-linejoin: miter; stroke-linecap: square"/>
   </g>
   <g id="legend_1">
    <g id="patch_7">
     <path d="M 150.4 528.359375 
L 318.806563 528.359375 
Q 323.206563 528.359375 323.206563 523.959375 
L 323.206563 203.240625 
Q 323.206563 198.840625 318.806563 198.840625 
L 150.4 198.840625 
Q 146 198.840625 146 203.240625 
L 146 523.959375 
Q 146 528.359375 150.4 528.359375 
z
" style="fill: #ffffff; opacity: 0.8; stroke: #cccccc; stroke-linejoin: miter"/>
    </g>
    <g id="PathCollection_3">
     <g>
      <use xlink:href="#m80f1702e56" x="176.8" y="218.582187" style="fill: #1f77b4; stroke: #1f77b4"/>
     </g>
    </g>
    <g id="text_19">
     <!-- Xi -->
     <g transform="translate(216.4 224.357187) scale(0.22 -0.22)">
      <use xlink:href="#DejaVuSans-58"/>
      <use xlink:href="#DejaVuSans-69" x="68.505859"/>
     </g>
    </g>
    <g id="PathCollection_4">
     <g>
      <use xlink:href="#m62fcbac0dc" x="176.8" y="250.874062" style="fill: #ff7f0e; stroke: #ff7f0e"/>
     </g>
    </g>
    <g id="text_20">
     <!-- Xa -->
     <g transform="translate(216.4 256.649062) scale(0.22 -0.22)">
      <use xlink:href="#DejaVuSans-58"/>
      <use xlink:href="#DejaVuSans-61" x="68.505859"/>
     </g>
    </g>
    <g id="line2d_25">
     <path d="M 154.8 281.240937 
L 176.8 281.240937 
L 198.8 281.240937 
" style="fill: none; stroke: #d0e1f2; stroke-width: 1.5; stroke-linecap: square"/>
    </g>
    <g id="text_21">
     <!-- Xi-AAAA -->
     <g transform="translate(216.4 288.940937) scale(0.22 -0.22)">
      <defs>
       <path id="DejaVuSans-2d" d="M 313 2009 
L 1997 2009 
L 1997 1497 
L 313 1497 
L 313 2009 
z
" transform="scale(0.015625)"/>
      </defs>
      <use xlink:href="#DejaVuSans-58"/>
      <use xlink:href="#DejaVuSans-69" x="68.505859"/>
      <use xlink:href="#DejaVuSans-2d" x="96.289062"/>
      <use xlink:href="#DejaVuSans-41" x="130.123047"/>
      <use xlink:href="#DejaVuSans-41" x="201.28125"/>
      <use xlink:href="#DejaVuSans-41" x="272.439453"/>
      <use xlink:href="#DejaVuSans-41" x="343.597656"/>
     </g>
    </g>
    <g id="line2d_26">
     <path d="M 154.8 313.532812 
L 176.8 313.532812 
L 198.8 313.532812 
" style="fill: none; stroke: #fdd9b4; stroke-width: 1.5; stroke-linecap: square"/>
    </g>
    <g id="text_22">
     <!-- Xa-AAAA -->
     <g transform="translate(216.4 321.232812) scale(0.22 -0.22)">
      <use xlink:href="#DejaVuSans-58"/>
      <use xlink:href="#DejaVuSans-61" x="68.505859"/>
      <use xlink:href="#DejaVuSans-2d" x="129.785156"/>
      <use xlink:href="#DejaVuSans-41" x="163.619141"/>
      <use xlink:href="#DejaVuSans-41" x="234.777344"/>
      <use xlink:href="#DejaVuSans-41" x="305.935547"/>
      <use xlink:href="#DejaVuSans-41" x="377.09375"/>
     </g>
    </g>
    <g id="line2d_27">
     <path d="M 154.8 345.824687 
L 176.8 345.824687 
L 198.8 345.824687 
" style="fill: none; stroke: #79b5d9; stroke-width: 1.5; stroke-linecap: square"/>
    </g>
    <g id="text_23">
     <!-- Xi-AIAA -->
     <g transform="translate(216.4 353.524687) scale(0.22 -0.22)">
      <defs>
       <path id="DejaVuSans-49" d="M 628 4666 
L 1259 4666 
L 1259 0 
L 628 0 
L 628 4666 
z
" transform="scale(0.015625)"/>
      </defs>
      <use xlink:href="#DejaVuSans-58"/>
      <use xlink:href="#DejaVuSans-69" x="68.505859"/>
      <use xlink:href="#DejaVuSans-2d" x="96.289062"/>
      <use xlink:href="#DejaVuSans-41" x="130.123047"/>
      <use xlink:href="#DejaVuSans-49" x="198.53125"/>
      <use xlink:href="#DejaVuSans-41" x="228.023438"/>
      <use xlink:href="#DejaVuSans-41" x="299.181641"/>
     </g>
    </g>
    <g id="line2d_28">
     <path d="M 154.8 378.116562 
L 176.8 378.116562 
L 198.8 378.116562 
" style="fill: none; stroke: #fd9649; stroke-width: 1.5; stroke-linecap: square"/>
    </g>
    <g id="text_24">
     <!-- Xa-AIAA -->
     <g transform="translate(216.4 385.816562) scale(0.22 -0.22)">
      <use xlink:href="#DejaVuSans-58"/>
      <use xlink:href="#DejaVuSans-61" x="68.505859"/>
      <use xlink:href="#DejaVuSans-2d" x="129.785156"/>
      <use xlink:href="#DejaVuSans-41" x="163.619141"/>
      <use xlink:href="#DejaVuSans-49" x="232.027344"/>
      <use xlink:href="#DejaVuSans-41" x="261.519531"/>
      <use xlink:href="#DejaVuSans-41" x="332.677734"/>
     </g>
    </g>
    <g id="line2d_29">
     <path d="M 154.8 410.408437 
L 176.8 410.408437 
L 198.8 410.408437 
" style="fill: none; stroke: #2575b7; stroke-width: 1.5; stroke-linecap: square"/>
    </g>
    <g id="text_25">
     <!-- Xi-IAAA -->
     <g transform="translate(216.4 418.108437) scale(0.22 -0.22)">
      <use xlink:href="#DejaVuSans-58"/>
      <use xlink:href="#DejaVuSans-69" x="68.505859"/>
      <use xlink:href="#DejaVuSans-2d" x="96.289062"/>
      <use xlink:href="#DejaVuSans-49" x="132.373047"/>
      <use xlink:href="#DejaVuSans-41" x="161.865234"/>
      <use xlink:href="#DejaVuSans-41" x="233.023438"/>
      <use xlink:href="#DejaVuSans-41" x="304.181641"/>
     </g>
    </g>
    <g id="line2d_30">
     <path d="M 154.8 442.700312 
L 176.8 442.700312 
L 198.8 442.700312 
" style="fill: none; stroke: #dc4c03; stroke-width: 1.5; stroke-linecap: square"/>
    </g>
    <g id="text_26">
     <!-- Xa-IAAA -->
     <g transform="translate(216.4 450.400312) scale(0.22 -0.22)">
      <use xlink:href="#DejaVuSans-58"/>
      <use xlink:href="#DejaVuSans-61" x="68.505859"/>
      <use xlink:href="#DejaVuSans-2d" x="129.785156"/>
      <use xlink:href="#DejaVuSans-49" x="165.869141"/>
      <use xlink:href="#DejaVuSans-41" x="195.361328"/>
      <use xlink:href="#DejaVuSans-41" x="266.519531"/>
      <use xlink:href="#DejaVuSans-41" x="337.677734"/>
     </g>
    </g>
    <g id="line2d_31">
     <path d="M 154.8 474.992188 
L 176.8 474.992188 
L 198.8 474.992188 
" style="fill: none; stroke: #08306b; stroke-width: 1.5; stroke-linecap: square"/>
    </g>
    <g id="text_27">
     <!-- Xi-IIAA -->
     <g transform="translate(216.4 482.692187) scale(0.22 -0.22)">
      <use xlink:href="#DejaVuSans-58"/>
      <use xlink:href="#DejaVuSans-69" x="68.505859"/>
      <use xlink:href="#DejaVuSans-2d" x="96.289062"/>
      <use xlink:href="#DejaVuSans-49" x="132.373047"/>
      <use xlink:href="#DejaVuSans-49" x="161.865234"/>
      <use xlink:href="#DejaVuSans-41" x="191.357422"/>
      <use xlink:href="#DejaVuSans-41" x="262.515625"/>
     </g>
    </g>
    <g id="line2d_32">
     <path d="M 154.8 507.284062 
L 176.8 507.284062 
L 198.8 507.284062 
" style="fill: none; stroke: #7f2704; stroke-width: 1.5; stroke-linecap: square"/>
    </g>
    <g id="text_28">
     <!-- Xa-IIAA -->
     <g transform="translate(216.4 514.984062) scale(0.22 -0.22)">
      <use xlink:href="#DejaVuSans-58"/>
      <use xlink:href="#DejaVuSans-61" x="68.505859"/>
      <use xlink:href="#DejaVuSans-2d" x="129.785156"/>
      <use xlink:href="#DejaVuSans-49" x="165.869141"/>
      <use xlink:href="#DejaVuSans-49" x="195.361328"/>
      <use xlink:href="#DejaVuSans-41" x="224.853516"/>
      <use xlink:href="#DejaVuSans-41" x="296.011719"/>
     </g>
    </g>
   </g>
  </g>
 </g>
 <defs>
  <clipPath id="p294e5309c2">
   <rect x="135" y="86.4" width="837" height="554.4"/>
  </clipPath>
 </defs>
</svg>
