<?xml version="1.0" encoding="utf-8" standalone="no"?>
<!DOCTYPE svg PUBLIC "-//W3C//DTD SVG 1.1//EN"
  "http://www.w3.org/Graphics/SVG/1.1/DTD/svg11.dtd">
<svg xmlns:xlink="http://www.w3.org/1999/xlink" width="1080pt" height="720pt" viewBox="0 0 1080 720" xmlns="http://www.w3.org/2000/svg" version="1.1">
 <metadata>
  <rdf:RDF xmlns:dc="http://purl.org/dc/elements/1.1/" xmlns:cc="http://creativecommons.org/ns#" xmlns:rdf="http://www.w3.org/1999/02/22-rdf-syntax-ns#">
   <cc:Work>
    <dc:type rdf:resource="http://purl.org/dc/dcmitype/StillImage"/>
    <dc:date>2023-01-10T19:25:25.173319</dc:date>
    <dc:format>image/svg+xml</dc:format>
    <dc:creator>
     <cc:Agent>
      <dc:title>Matplotlib v3.6.2, https://matplotlib.org/</dc:title>
     </cc:Agent>
    </dc:creator>
   </cc:Work>
  </rdf:RDF>
 </metadata>
 <defs>
  <style type="text/css">*{stroke-linejoin: round; stroke-linecap: butt}</style>
 </defs>
 <g id="figure_1">
  <g id="patch_1">
   <path d="M 0 720 
L 1080 720 
L 1080 0 
L 0 0 
z
" style="fill: #ffffff"/>
  </g>
  <g id="axes_1">
   <g id="patch_2">
    <path d="M 135 640.8 
L 972 640.8 
L 972 86.4 
L 135 86.4 
z
" style="fill: #ffffff"/>
   </g>
   <g id="PathCollection_1">
    <defs>
     <path id="m80f1702e56" d="M 0 3 
C 0.795609 3 1.55874 2.683901 2.12132 2.12132 
C 2.683901 1.55874 3 0.795609 3 0 
C 3 -0.795609 2.683901 -1.55874 2.12132 -2.12132 
C 1.55874 -2.683901 0.795609 -3 0 -3 
C -0.795609 -3 -1.55874 -2.683901 -2.12132 -2.12132 
C -2.683901 -1.55874 -3 -0.795609 -3 0 
C -3 0.795609 -2.683901 1.55874 -2.12132 2.12132 
C -1.55874 2.683901 -0.795609 3 0 3 
z
" style="stroke: #1f77b4"/>
    </defs>
    <g clip-path="url(#p294e5309c2)">
     <use xlink:href="#m80f1702e56" x="173.045455" y="615.6" style="fill: #1f77b4; stroke: #1f77b4"/>
     <use xlink:href="#m80f1702e56" x="268.159091" y="584.907945" style="fill: #1f77b4; stroke: #1f77b4"/>
     <use xlink:href="#m80f1702e56" x="363.272727" y="574.503077" style="fill: #1f77b4; stroke: #1f77b4"/>
     <use xlink:href="#m80f1702e56" x="458.386364" y="572.397655" style="fill: #1f77b4; stroke: #1f77b4"/>
     <use xlink:href="#m80f1702e56" x="553.5" y="533.008677" style="fill: #1f77b4; stroke: #1f77b4"/>
     <use xlink:href="#m80f1702e56" x="648.613636" y="493.6197" style="fill: #1f77b4; stroke: #1f77b4"/>
     <use xlink:href="#m80f1702e56" x="743.727273" y="493.6197" style="fill: #1f77b4; stroke: #1f77b4"/>
     <use xlink:href="#m80f1702e56" x="838.840909" y="493.6197" style="fill: #1f77b4; stroke: #1f77b4"/>
     <use xlink:href="#m80f1702e56" x="933.954545" y="493.6197" style="fill: #1f77b4; stroke: #1f77b4"/>
    </g>
   </g>
   <g id="PathCollection_2">
    <defs>
     <path id="m62fcbac0dc" d="M 0 3 
C 0.795609 3 1.55874 2.683901 2.12132 2.12132 
C 2.683901 1.55874 3 0.795609 3 0 
C 3 -0.795609 2.683901 -1.55874 2.12132 -2.12132 
C 1.55874 -2.683901 0.795609 -3 0 -3 
C -0.795609 -3 -1.55874 -2.683901 -2.12132 -2.12132 
C -2.683901 -1.55874 -3 -0.795609 -3 0 
C -3 0.795609 -2.683901 1.55874 -2.12132 2.12132 
C -1.55874 2.683901 -0.795609 3 0 3 
z
" style="stroke: #ff7f0e"/>
    </defs>
    <g clip-path="url(#p294e5309c2)">
     <use xlink:href="#m62fcbac0dc" x="173.045455" y="156.22457" style="fill: #ff7f0e; stroke: #ff7f0e"/>
     <use xlink:href="#m62fcbac0dc" x="268.159091" y="137.482142" style="fill: #ff7f0e; stroke: #ff7f0e"/>
     <use xlink:href="#m62fcbac0dc" x="363.272727" y="166.726691" style="fill: #ff7f0e; stroke: #ff7f0e"/>
     <use xlink:href="#m62fcbac0dc" x="458.386364" y="111.6" style="fill: #ff7f0e; stroke: #ff7f0e"/>
     <use xlink:href="#m62fcbac0dc" x="553.5" y="145.771767" style="fill: #ff7f0e; stroke: #ff7f0e"/>
     <use xlink:href="#m62fcbac0dc" x="648.613636" y="179.943533" style="fill: #ff7f0e; stroke: #ff7f0e"/>
     <use xlink:href="#m62fcbac0dc" x="743.727273" y="179.943533" style="fill: #ff7f0e; stroke: #ff7f0e"/>
     <use xlink:href="#m62fcbac0dc" x="838.840909" y="179.943533" style="fill: #ff7f0e; stroke: #ff7f0e"/>
     <use xlink:href="#m62fcbac0dc" x="933.954545" y="179.943533" style="fill: #ff7f0e; stroke: #ff7f0e"/>
    </g>
   </g>
   <g id="matplotlib.axis_1">
    <g id="xtick_1">
     <g id="line2d_1">
      <defs>
       <path id="m3385fdae1e" d="M 0 0 
L 0 3.5 
" style="stroke: #000000; stroke-width: 0.8"/>
      </defs>
      <g>
       <use xlink:href="#m3385fdae1e" x="173.045455" y="640.8" style="stroke: #000000; stroke-width: 0.8"/>
      </g>
     </g>
     <g id="text_1">
      <!-- 7 -->
      <g transform="translate(166.046705 664.516562) scale(0.22 -0.22)">
       <defs>
        <path id="DejaVuSans-37" d="M 525 4666 
L 3525 4666 
L 3525 4397 
L 1831 0 
L 1172 0 
L 2766 4134 
L 525 4134 
L 525 4666 
z
" transform="scale(0.015625)"/>
       </defs>
       <use xlink:href="#DejaVuSans-37"/>
      </g>
     </g>
    </g>
    <g id="xtick_2">
     <g id="line2d_2">
      <g>
       <use xlink:href="#m3385fdae1e" x="268.159091" y="640.8" style="stroke: #000000; stroke-width: 0.8"/>
      </g>
     </g>
     <g id="text_2">
      <!-- 8 -->
      <g transform="translate(261.160341 664.516562) scale(0.22 -0.22)">
       <defs>
        <path id="DejaVuSans-38" d="M 2034 2216 
Q 1584 2216 1326 1975 
Q 1069 1734 1069 1313 
Q 1069 891 1326 650 
Q 1584 409 2034 409 
Q 2484 409 2743 651 
Q 3003 894 3003 1313 
Q 3003 1734 2745 1975 
Q 2488 2216 2034 2216 
z
M 1403 2484 
Q 997 2584 770 2862 
Q 544 3141 544 3541 
Q 544 4100 942 4425 
Q 1341 4750 2034 4750 
Q 2731 4750 3128 4425 
Q 3525 4100 3525 3541 
Q 3525 3141 3298 2862 
Q 3072 2584 2669 2484 
Q 3125 2378 3379 2068 
Q 3634 1759 3634 1313 
Q 3634 634 3220 271 
Q 2806 -91 2034 -91 
Q 1263 -91 848 271 
Q 434 634 434 1313 
Q 434 1759 690 2068 
Q 947 2378 1403 2484 
z
M 1172 3481 
Q 1172 3119 1398 2916 
Q 1625 2713 2034 2713 
Q 2441 2713 2670 2916 
Q 2900 3119 2900 3481 
Q 2900 3844 2670 4047 
Q 2441 4250 2034 4250 
Q 1625 4250 1398 4047 
Q 1172 3844 1172 3481 
z
" transform="scale(0.015625)"/>
       </defs>
       <use xlink:href="#DejaVuSans-38"/>
      </g>
     </g>
    </g>
    <g id="xtick_3">
     <g id="line2d_3">
      <g>
       <use xlink:href="#m3385fdae1e" x="363.272727" y="640.8" style="stroke: #000000; stroke-width: 0.8"/>
      </g>
     </g>
     <g id="text_3">
      <!-- 9 -->
      <g transform="translate(356.273977 664.516562) scale(0.22 -0.22)">
       <defs>
        <path id="DejaVuSans-39" d="M 703 97 
L 703 672 
Q 941 559 1184 500 
Q 1428 441 1663 441 
Q 2288 441 2617 861 
Q 2947 1281 2994 2138 
Q 2813 1869 2534 1725 
Q 2256 1581 1919 1581 
Q 1219 1581 811 2004 
Q 403 2428 403 3163 
Q 403 3881 828 4315 
Q 1253 4750 1959 4750 
Q 2769 4750 3195 4129 
Q 3622 3509 3622 2328 
Q 3622 1225 3098 567 
Q 2575 -91 1691 -91 
Q 1453 -91 1209 -44 
Q 966 3 703 97 
z
M 1959 2075 
Q 2384 2075 2632 2365 
Q 2881 2656 2881 3163 
Q 2881 3666 2632 3958 
Q 2384 4250 1959 4250 
Q 1534 4250 1286 3958 
Q 1038 3666 1038 3163 
Q 1038 2656 1286 2365 
Q 1534 2075 1959 2075 
z
" transform="scale(0.015625)"/>
       </defs>
       <use xlink:href="#DejaVuSans-39"/>
      </g>
     </g>
    </g>
    <g id="xtick_4">
     <g id="line2d_4">
      <g>
       <use xlink:href="#m3385fdae1e" x="458.386364" y="640.8" style="stroke: #000000; stroke-width: 0.8"/>
      </g>
     </g>
     <g id="text_4">
      <!-- 10 -->
      <g transform="translate(444.388864 664.516562) scale(0.22 -0.22)">
       <defs>
        <path id="DejaVuSans-31" d="M 794 531 
L 1825 531 
L 1825 4091 
L 703 3866 
L 703 4441 
L 1819 4666 
L 2450 4666 
L 2450 531 
L 3481 531 
L 3481 0 
L 794 0 
L 794 531 
z
" transform="scale(0.015625)"/>
        <path id="DejaVuSans-30" d="M 2034 4250 
Q 1547 4250 1301 3770 
Q 1056 3291 1056 2328 
Q 1056 1369 1301 889 
Q 1547 409 2034 409 
Q 2525 409 2770 889 
Q 3016 1369 3016 2328 
Q 3016 3291 2770 3770 
Q 2525 4250 2034 4250 
z
M 2034 4750 
Q 2819 4750 3233 4129 
Q 3647 3509 3647 2328 
Q 3647 1150 3233 529 
Q 2819 -91 2034 -91 
Q 1250 -91 836 529 
Q 422 1150 422 2328 
Q 422 3509 836 4129 
Q 1250 4750 2034 4750 
z
" transform="scale(0.015625)"/>
       </defs>
       <use xlink:href="#DejaVuSans-31"/>
       <use xlink:href="#DejaVuSans-30" x="63.623047"/>
      </g>
     </g>
    </g>
    <g id="xtick_5">
     <g id="line2d_5">
      <g>
       <use xlink:href="#m3385fdae1e" x="553.5" y="640.8" style="stroke: #000000; stroke-width: 0.8"/>
      </g>
     </g>
     <g id="text_5">
      <!-- 11 -->
      <g transform="translate(539.5025 664.516562) scale(0.22 -0.22)">
       <use xlink:href="#DejaVuSans-31"/>
       <use xlink:href="#DejaVuSans-31" x="63.623047"/>
      </g>
     </g>
    </g>
    <g id="xtick_6">
     <g id="line2d_6">
      <g>
       <use xlink:href="#m3385fdae1e" x="648.613636" y="640.8" style="stroke: #000000; stroke-width: 0.8"/>
      </g>
     </g>
     <g id="text_6">
      <!-- 12 -->
      <g transform="translate(634.616136 664.516562) scale(0.22 -0.22)">
       <defs>
        <path id="DejaVuSans-32" d="M 1228 531 
L 3431 531 
L 3431 0 
L 469 0 
L 469 531 
Q 828 903 1448 1529 
Q 2069 2156 2228 2338 
Q 2531 2678 2651 2914 
Q 2772 3150 2772 3378 
Q 2772 3750 2511 3984 
Q 2250 4219 1831 4219 
Q 1534 4219 1204 4116 
Q 875 4013 500 3803 
L 500 4441 
Q 881 4594 1212 4672 
Q 1544 4750 1819 4750 
Q 2544 4750 2975 4387 
Q 3406 4025 3406 3419 
Q 3406 3131 3298 2873 
Q 3191 2616 2906 2266 
Q 2828 2175 2409 1742 
Q 1991 1309 1228 531 
z
" transform="scale(0.015625)"/>
       </defs>
       <use xlink:href="#DejaVuSans-31"/>
       <use xlink:href="#DejaVuSans-32" x="63.623047"/>
      </g>
     </g>
    </g>
    <g id="xtick_7">
     <g id="line2d_7">
      <g>
       <use xlink:href="#m3385fdae1e" x="743.727273" y="640.8" style="stroke: #000000; stroke-width: 0.8"/>
      </g>
     </g>
     <g id="text_7">
      <!-- 13 -->
      <g transform="translate(729.729773 664.516562) scale(0.22 -0.22)">
       <defs>
        <path id="DejaVuSans-33" d="M 2597 2516 
Q 3050 2419 3304 2112 
Q 3559 1806 3559 1356 
Q 3559 666 3084 287 
Q 2609 -91 1734 -91 
Q 1441 -91 1130 -33 
Q 819 25 488 141 
L 488 750 
Q 750 597 1062 519 
Q 1375 441 1716 441 
Q 2309 441 2620 675 
Q 2931 909 2931 1356 
Q 2931 1769 2642 2001 
Q 2353 2234 1838 2234 
L 1294 2234 
L 1294 2753 
L 1863 2753 
Q 2328 2753 2575 2939 
Q 2822 3125 2822 3475 
Q 2822 3834 2567 4026 
Q 2313 4219 1838 4219 
Q 1578 4219 1281 4162 
Q 984 4106 628 3988 
L 628 4550 
Q 988 4650 1302 4700 
Q 1616 4750 1894 4750 
Q 2613 4750 3031 4423 
Q 3450 4097 3450 3541 
Q 3450 3153 3228 2886 
Q 3006 2619 2597 2516 
z
" transform="scale(0.015625)"/>
       </defs>
       <use xlink:href="#DejaVuSans-31"/>
       <use xlink:href="#DejaVuSans-33" x="63.623047"/>
      </g>
     </g>
    </g>
    <g id="xtick_8">
     <g id="line2d_8">
      <g>
       <use xlink:href="#m3385fdae1e" x="838.840909" y="640.8" style="stroke: #000000; stroke-width: 0.8"/>
      </g>
     </g>
     <g id="text_8">
      <!-- 14 -->
      <g transform="translate(824.843409 664.516562) scale(0.22 -0.22)">
       <defs>
        <path id="DejaVuSans-34" d="M 2419 4116 
L 825 1625 
L 2419 1625 
L 2419 4116 
z
M 2253 4666 
L 3047 4666 
L 3047 1625 
L 3713 1625 
L 3713 1100 
L 3047 1100 
L 3047 0 
L 2419 0 
L 2419 1100 
L 313 1100 
L 313 1709 
L 2253 4666 
z
" transform="scale(0.015625)"/>
       </defs>
       <use xlink:href="#DejaVuSans-31"/>
       <use xlink:href="#DejaVuSans-34" x="63.623047"/>
      </g>
     </g>
    </g>
    <g id="xtick_9">
     <g id="line2d_9">
      <g>
       <use xlink:href="#m3385fdae1e" x="933.954545" y="640.8" style="stroke: #000000; stroke-width: 0.8"/>
      </g>
     </g>
     <g id="text_9">
      <!-- 15 -->
      <g transform="translate(919.957045 664.516562) scale(0.22 -0.22)">
       <defs>
        <path id="DejaVuSans-35" d="M 691 4666 
L 3169 4666 
L 3169 4134 
L 1269 4134 
L 1269 2991 
Q 1406 3038 1543 3061 
Q 1681 3084 1819 3084 
Q 2600 3084 3056 2656 
Q 3513 2228 3513 1497 
Q 3513 744 3044 326 
Q 2575 -91 1722 -91 
Q 1428 -91 1123 -41 
Q 819 9 494 109 
L 494 744 
Q 775 591 1075 516 
Q 1375 441 1709 441 
Q 2250 441 2565 725 
Q 2881 1009 2881 1497 
Q 2881 1984 2565 2268 
Q 2250 2553 1709 2553 
Q 1456 2553 1204 2497 
Q 953 2441 691 2322 
L 691 4666 
z
" transform="scale(0.015625)"/>
       </defs>
       <use xlink:href="#DejaVuSans-31"/>
       <use xlink:href="#DejaVuSans-35" x="63.623047"/>
      </g>
     </g>
    </g>
    <g id="text_10">
     <!-- Time (days) -->
     <g transform="translate(488.541562 689.808437) scale(0.22 -0.22)">
      <defs>
       <path id="DejaVuSans-54" d="M -19 4666 
L 3928 4666 
L 3928 4134 
L 2272 4134 
L 2272 0 
L 1638 0 
L 1638 4134 
L -19 4134 
L -19 4666 
z
" transform="scale(0.015625)"/>
       <path id="DejaVuSans-69" d="M 603 3500 
L 1178 3500 
L 1178 0 
L 603 0 
L 603 3500 
z
M 603 4863 
L 1178 4863 
L 1178 4134 
L 603 4134 
L 603 4863 
z
" transform="scale(0.015625)"/>
       <path id="DejaVuSans-6d" d="M 3328 2828 
Q 3544 3216 3844 3400 
Q 4144 3584 4550 3584 
Q 5097 3584 5394 3201 
Q 5691 2819 5691 2113 
L 5691 0 
L 5113 0 
L 5113 2094 
Q 5113 2597 4934 2840 
Q 4756 3084 4391 3084 
Q 3944 3084 3684 2787 
Q 3425 2491 3425 1978 
L 3425 0 
L 2847 0 
L 2847 2094 
Q 2847 2600 2669 2842 
Q 2491 3084 2119 3084 
Q 1678 3084 1418 2786 
Q 1159 2488 1159 1978 
L 1159 0 
L 581 0 
L 581 3500 
L 1159 3500 
L 1159 2956 
Q 1356 3278 1631 3431 
Q 1906 3584 2284 3584 
Q 2666 3584 2933 3390 
Q 3200 3197 3328 2828 
z
" transform="scale(0.015625)"/>
       <path id="DejaVuSans-65" d="M 3597 1894 
L 3597 1613 
L 953 1613 
Q 991 1019 1311 708 
Q 1631 397 2203 397 
Q 2534 397 2845 478 
Q 3156 559 3463 722 
L 3463 178 
Q 3153 47 2828 -22 
Q 2503 -91 2169 -91 
Q 1331 -91 842 396 
Q 353 884 353 1716 
Q 353 2575 817 3079 
Q 1281 3584 2069 3584 
Q 2775 3584 3186 3129 
Q 3597 2675 3597 1894 
z
M 3022 2063 
Q 3016 2534 2758 2815 
Q 2500 3097 2075 3097 
Q 1594 3097 1305 2825 
Q 1016 2553 972 2059 
L 3022 2063 
z
" transform="scale(0.015625)"/>
       <path id="DejaVuSans-20" transform="scale(0.015625)"/>
       <path id="DejaVuSans-28" d="M 1984 4856 
Q 1566 4138 1362 3434 
Q 1159 2731 1159 2009 
Q 1159 1288 1364 580 
Q 1569 -128 1984 -844 
L 1484 -844 
Q 1016 -109 783 600 
Q 550 1309 550 2009 
Q 550 2706 781 3412 
Q 1013 4119 1484 4856 
L 1984 4856 
z
" transform="scale(0.015625)"/>
       <path id="DejaVuSans-64" d="M 2906 2969 
L 2906 4863 
L 3481 4863 
L 3481 0 
L 2906 0 
L 2906 525 
Q 2725 213 2448 61 
Q 2172 -91 1784 -91 
Q 1150 -91 751 415 
Q 353 922 353 1747 
Q 353 2572 751 3078 
Q 1150 3584 1784 3584 
Q 2172 3584 2448 3432 
Q 2725 3281 2906 2969 
z
M 947 1747 
Q 947 1113 1208 752 
Q 1469 391 1925 391 
Q 2381 391 2643 752 
Q 2906 1113 2906 1747 
Q 2906 2381 2643 2742 
Q 2381 3103 1925 3103 
Q 1469 3103 1208 2742 
Q 947 2381 947 1747 
z
" transform="scale(0.015625)"/>
       <path id="DejaVuSans-61" d="M 2194 1759 
Q 1497 1759 1228 1600 
Q 959 1441 959 1056 
Q 959 750 1161 570 
Q 1363 391 1709 391 
Q 2188 391 2477 730 
Q 2766 1069 2766 1631 
L 2766 1759 
L 2194 1759 
z
M 3341 1997 
L 3341 0 
L 2766 0 
L 2766 531 
Q 2569 213 2275 61 
Q 1981 -91 1556 -91 
Q 1019 -91 701 211 
Q 384 513 384 1019 
Q 384 1609 779 1909 
Q 1175 2209 1959 2209 
L 2766 2209 
L 2766 2266 
Q 2766 2663 2505 2880 
Q 2244 3097 1772 3097 
Q 1472 3097 1187 3025 
Q 903 2953 641 2809 
L 641 3341 
Q 956 3463 1253 3523 
Q 1550 3584 1831 3584 
Q 2591 3584 2966 3190 
Q 3341 2797 3341 1997 
z
" transform="scale(0.015625)"/>
       <path id="DejaVuSans-79" d="M 2059 -325 
Q 1816 -950 1584 -1140 
Q 1353 -1331 966 -1331 
L 506 -1331 
L 506 -850 
L 844 -850 
Q 1081 -850 1212 -737 
Q 1344 -625 1503 -206 
L 1606 56 
L 191 3500 
L 800 3500 
L 1894 763 
L 2988 3500 
L 3597 3500 
L 2059 -325 
z
" transform="scale(0.015625)"/>
       <path id="DejaVuSans-73" d="M 2834 3397 
L 2834 2853 
Q 2591 2978 2328 3040 
Q 2066 3103 1784 3103 
Q 1356 3103 1142 2972 
Q 928 2841 928 2578 
Q 928 2378 1081 2264 
Q 1234 2150 1697 2047 
L 1894 2003 
Q 2506 1872 2764 1633 
Q 3022 1394 3022 966 
Q 3022 478 2636 193 
Q 2250 -91 1575 -91 
Q 1294 -91 989 -36 
Q 684 19 347 128 
L 347 722 
Q 666 556 975 473 
Q 1284 391 1588 391 
Q 1994 391 2212 530 
Q 2431 669 2431 922 
Q 2431 1156 2273 1281 
Q 2116 1406 1581 1522 
L 1381 1569 
Q 847 1681 609 1914 
Q 372 2147 372 2553 
Q 372 3047 722 3315 
Q 1072 3584 1716 3584 
Q 2034 3584 2315 3537 
Q 2597 3491 2834 3397 
z
" transform="scale(0.015625)"/>
       <path id="DejaVuSans-29" d="M 513 4856 
L 1013 4856 
Q 1481 4119 1714 3412 
Q 1947 2706 1947 2009 
Q 1947 1309 1714 600 
Q 1481 -109 1013 -844 
L 513 -844 
Q 928 -128 1133 580 
Q 1338 1288 1338 2009 
Q 1338 2731 1133 3434 
Q 928 4138 513 4856 
z
" transform="scale(0.015625)"/>
      </defs>
      <use xlink:href="#DejaVuSans-54"/>
      <use xlink:href="#DejaVuSans-69" x="57.958984"/>
      <use xlink:href="#DejaVuSans-6d" x="85.742188"/>
      <use xlink:href="#DejaVuSans-65" x="183.154297"/>
      <use xlink:href="#DejaVuSans-20" x="244.677734"/>
      <use xlink:href="#DejaVuSans-28" x="276.464844"/>
      <use xlink:href="#DejaVuSans-64" x="315.478516"/>
      <use xlink:href="#DejaVuSans-61" x="378.955078"/>
      <use xlink:href="#DejaVuSans-79" x="440.234375"/>
      <use xlink:href="#DejaVuSans-73" x="499.414062"/>
      <use xlink:href="#DejaVuSans-29" x="551.513672"/>
     </g>
    </g>
   </g>
   <g id="matplotlib.axis_2">
    <g id="ytick_1">
     <g id="line2d_10">
      <defs>
       <path id="ma600d9e374" d="M 0 0 
L -3.5 0 
" style="stroke: #000000; stroke-width: 0.8"/>
      </defs>
      <g>
       <use xlink:href="#ma600d9e374" x="135" y="615.908529" style="stroke: #000000; stroke-width: 0.8"/>
      </g>
     </g>
     <g id="text_11">
      <!-- 0.00 -->
      <g transform="translate(79.015625 624.26681) scale(0.22 -0.22)">
       <defs>
        <path id="DejaVuSans-2e" d="M 684 794 
L 1344 794 
L 1344 0 
L 684 0 
L 684 794 
z
" transform="scale(0.015625)"/>
       </defs>
       <use xlink:href="#DejaVuSans-30"/>
       <use xlink:href="#DejaVuSans-2e" x="63.623047"/>
       <use xlink:href="#DejaVuSans-30" x="95.410156"/>
       <use xlink:href="#DejaVuSans-30" x="159.033203"/>
      </g>
     </g>
    </g>
    <g id="ytick_2">
     <g id="line2d_11">
      <g>
       <use xlink:href="#ma600d9e374" x="135" y="544.201469" style="stroke: #000000; stroke-width: 0.8"/>
      </g>
     </g>
     <g id="text_12">
      <!-- 0.25 -->
      <g transform="translate(79.015625 552.559751) scale(0.22 -0.22)">
       <use xlink:href="#DejaVuSans-30"/>
       <use xlink:href="#DejaVuSans-2e" x="63.623047"/>
       <use xlink:href="#DejaVuSans-32" x="95.410156"/>
       <use xlink:href="#DejaVuSans-35" x="159.033203"/>
      </g>
     </g>
    </g>
    <g id="ytick_3">
     <g id="line2d_12">
      <g>
       <use xlink:href="#ma600d9e374" x="135" y="472.49441" style="stroke: #000000; stroke-width: 0.8"/>
      </g>
     </g>
     <g id="text_13">
      <!-- 0.50 -->
      <g transform="translate(79.015625 480.852691) scale(0.22 -0.22)">
       <use xlink:href="#DejaVuSans-30"/>
       <use xlink:href="#DejaVuSans-2e" x="63.623047"/>
       <use xlink:href="#DejaVuSans-35" x="95.410156"/>
       <use xlink:href="#DejaVuSans-30" x="159.033203"/>
      </g>
     </g>
    </g>
    <g id="ytick_4">
     <g id="line2d_13">
      <g>
       <use xlink:href="#ma600d9e374" x="135" y="400.78735" style="stroke: #000000; stroke-width: 0.8"/>
      </g>
     </g>
     <g id="text_14">
      <!-- 0.75 -->
      <g transform="translate(79.015625 409.145632) scale(0.22 -0.22)">
       <use xlink:href="#DejaVuSans-30"/>
       <use xlink:href="#DejaVuSans-2e" x="63.623047"/>
       <use xlink:href="#DejaVuSans-37" x="95.410156"/>
       <use xlink:href="#DejaVuSans-35" x="159.033203"/>
      </g>
     </g>
    </g>
    <g id="ytick_5">
     <g id="line2d_14">
      <g>
       <use xlink:href="#ma600d9e374" x="135" y="329.080291" style="stroke: #000000; stroke-width: 0.8"/>
      </g>
     </g>
     <g id="text_15">
      <!-- 1.00 -->
      <g transform="translate(79.015625 337.438572) scale(0.22 -0.22)">
       <use xlink:href="#DejaVuSans-31"/>
       <use xlink:href="#DejaVuSans-2e" x="63.623047"/>
       <use xlink:href="#DejaVuSans-30" x="95.410156"/>
       <use xlink:href="#DejaVuSans-30" x="159.033203"/>
      </g>
     </g>
    </g>
    <g id="ytick_6">
     <g id="line2d_15">
      <g>
       <use xlink:href="#ma600d9e374" x="135" y="257.373231" style="stroke: #000000; stroke-width: 0.8"/>
      </g>
     </g>
     <g id="text_16">
      <!-- 1.25 -->
      <g transform="translate(79.015625 265.731513) scale(0.22 -0.22)">
       <use xlink:href="#DejaVuSans-31"/>
       <use xlink:href="#DejaVuSans-2e" x="63.623047"/>
       <use xlink:href="#DejaVuSans-32" x="95.410156"/>
       <use xlink:href="#DejaVuSans-35" x="159.033203"/>
      </g>
     </g>
    </g>
    <g id="ytick_7">
     <g id="line2d_16">
      <g>
       <use xlink:href="#ma600d9e374" x="135" y="185.666172" style="stroke: #000000; stroke-width: 0.8"/>
      </g>
     </g>
     <g id="text_17">
      <!-- 1.50 -->
      <g transform="translate(79.015625 194.024453) scale(0.22 -0.22)">
       <use xlink:href="#DejaVuSans-31"/>
       <use xlink:href="#DejaVuSans-2e" x="63.623047"/>
       <use xlink:href="#DejaVuSans-35" x="95.410156"/>
       <use xlink:href="#DejaVuSans-30" x="159.033203"/>
      </g>
     </g>
    </g>
    <g id="ytick_8">
     <g id="line2d_17">
      <g>
       <use xlink:href="#ma600d9e374" x="135" y="113.959112" style="stroke: #000000; stroke-width: 0.8"/>
      </g>
     </g>
     <g id="text_18">
      <!-- 1.75 -->
      <g transform="translate(79.015625 122.317393) scale(0.22 -0.22)">
       <use xlink:href="#DejaVuSans-31"/>
       <use xlink:href="#DejaVuSans-2e" x="63.623047"/>
       <use xlink:href="#DejaVuSans-37" x="95.410156"/>
       <use xlink:href="#DejaVuSans-35" x="159.033203"/>
      </g>
     </g>
    </g>
    <g id="text_19">
     <!-- X:A -->
     <g transform="translate(70.440313 382.365312) rotate(-90) scale(0.22 -0.22)">
      <defs>
       <path id="DejaVuSans-58" d="M 403 4666 
L 1081 4666 
L 2241 2931 
L 3406 4666 
L 4084 4666 
L 2584 2425 
L 4184 0 
L 3506 0 
L 2194 1984 
L 872 0 
L 191 0 
L 1856 2491 
L 403 4666 
z
" transform="scale(0.015625)"/>
       <path id="DejaVuSans-3a" d="M 750 794 
L 1409 794 
L 1409 0 
L 750 0 
L 750 794 
z
M 750 3309 
L 1409 3309 
L 1409 2516 
L 750 2516 
L 750 3309 
z
" transform="scale(0.015625)"/>
       <path id="DejaVuSans-41" d="M 2188 4044 
L 1331 1722 
L 3047 1722 
L 2188 4044 
z
M 1831 4666 
L 2547 4666 
L 4325 0 
L 3669 0 
L 3244 1197 
L 1141 1197 
L 716 0 
L 50 0 
L 1831 4666 
z
" transform="scale(0.015625)"/>
      </defs>
      <use xlink:href="#DejaVuSans-58"/>
      <use xlink:href="#DejaVuSans-3a" x="68.505859"/>
      <use xlink:href="#DejaVuSans-41" x="102.197266"/>
     </g>
    </g>
   </g>
   <g id="line2d_18">
    <path d="M 173.045455 615.6 
L 180.731405 570.881449 
L 188.417355 549.50247 
L 196.103306 539.264616 
L 203.789256 534.376283 
L 211.475207 532.055854 
L 219.161157 530.917719 
L 226.847107 530.403107 
L 234.533058 530.133586 
L 242.219008 530.010788 
L 249.904959 529.968474 
L 257.590909 529.921387 
L 265.27686 529.908081 
L 272.96281 529.920017 
L 280.64876 529.906402 
L 288.334711 529.883649 
L 296.020661 529.885753 
L 303.706612 529.912399 
L 311.392562 529.929766 
L 319.078512 529.888778 
L 326.764463 529.843378 
L 334.450413 529.855149 
L 342.136364 529.92283 
L 349.822314 529.982001 
L 357.508264 529.933227 
L 365.194215 529.866794 
L 372.880165 529.877494 
L 380.566116 529.948453 
L 388.252066 529.957817 
L 395.938017 529.888377 
L 403.623967 529.867064 
L 411.309917 529.916902 
L 418.995868 529.965112 
L 426.681818 529.906931 
L 434.367769 529.851333 
L 442.053719 529.875104 
L 449.739669 529.954358 
L 457.42562 529.9672 
L 465.11157 529.871779 
L 472.797521 529.829406 
L 480.483471 529.895905 
L 488.169421 529.999036 
L 495.855372 529.960783 
L 503.541322 529.854559 
L 511.227273 529.848254 
L 518.913223 529.948551 
L 526.599174 530.008598 
L 534.285124 529.913372 
L 541.971074 529.861105 
L 549.657025 529.910034 
L 557.342975 529.981996 
L 565.028926 529.929745 
L 572.714876 529.873184 
L 580.400826 529.891403 
L 588.086777 529.953604 
L 595.772727 529.938883 
L 603.458678 529.874041 
L 611.144628 529.866095 
L 618.830579 529.925215 
L 626.516529 529.970337 
L 634.202479 529.900401 
L 641.88843 529.838059 
L 649.57438 529.868585 
L 657.260331 529.964566 
L 664.946281 529.987121 
L 672.632231 529.877672 
L 680.318182 529.825283 
L 688.004132 529.897197 
L 695.690083 530.011009 
L 703.376033 529.967152 
L 711.061983 529.865959 
L 718.747934 529.867033 
L 726.433884 529.960463 
L 734.119835 529.984775 
L 741.805785 529.901001 
L 749.491736 529.87381 
L 757.177686 529.926765 
L 764.863636 529.968048 
L 772.549587 529.906871 
L 780.235537 529.869044 
L 787.921488 529.900877 
L 795.607438 529.958525 
L 803.293388 529.927988 
L 810.979339 529.859854 
L 818.665289 529.858738 
L 826.35124 529.930819 
L 834.03719 529.985696 
L 841.72314 529.90503 
L 849.409091 529.826291 
L 857.095041 529.858235 
L 864.780992 529.973643 
L 872.466942 530.01044 
L 880.152893 529.892264 
L 887.838843 529.835316 
L 895.524793 529.907953 
L 903.210744 530.014035 
L 910.896694 529.965312 
L 918.582645 529.914291 
L 926.268595 529.921796 
L 933.954545 529.935249 
" clip-path="url(#p294e5309c2)" style="fill: none; stroke: #d0e1f2; stroke-width: 1.5; stroke-linecap: square"/>
   </g>
   <g id="line2d_19">
    <path d="M 173.045455 156.22457 
L 180.731405 156.401254 
L 188.417355 156.57787 
L 196.103306 156.754418 
L 203.789256 156.930898 
L 211.475207 157.10731 
L 219.161157 157.283654 
L 226.847107 157.459931 
L 234.533058 157.63614 
L 242.219008 157.812281 
L 249.904959 157.988354 
L 257.590909 158.16436 
L 265.27686 158.340298 
L 272.96281 158.516168 
L 280.64876 158.691971 
L 288.334711 158.867706 
L 296.020661 159.043374 
L 303.706612 159.218974 
L 311.392562 159.394507 
L 319.078512 159.569972 
L 326.764463 159.74537 
L 334.450413 159.9207 
L 342.136364 160.095963 
L 349.822314 160.271159 
L 357.508264 160.446287 
L 365.194215 160.621348 
L 372.880165 160.796342 
L 380.566116 160.971268 
L 388.252066 161.146127 
L 395.938017 161.320919 
L 403.623967 161.495644 
L 411.309917 161.670302 
L 418.995868 161.844892 
L 426.681818 162.019416 
L 434.367769 162.193872 
L 442.053719 162.368261 
L 449.739669 162.542584 
L 457.42562 162.716839 
L 465.11157 162.891027 
L 472.797521 163.065148 
L 480.483471 163.239203 
L 488.169421 163.41319 
L 495.855372 163.587111 
L 503.541322 163.760965 
L 511.227273 163.934752 
L 518.913223 164.108472 
L 526.599174 164.282125 
L 534.285124 164.455712 
L 541.971074 164.629232 
L 549.657025 164.802685 
L 557.342975 164.976071 
L 565.028926 165.149391 
L 572.714876 165.322645 
L 580.400826 165.495831 
L 588.086777 165.668952 
L 595.772727 165.842005 
L 603.458678 166.014992 
L 611.144628 166.187913 
L 618.830579 166.360767 
L 626.516529 166.533555 
L 634.202479 166.706276 
L 641.88843 166.878931 
L 649.57438 167.051519 
L 657.260331 167.224041 
L 664.946281 167.396497 
L 672.632231 167.568887 
L 680.318182 167.74121 
L 688.004132 167.913467 
L 695.690083 168.085658 
L 703.376033 168.257783 
L 711.061983 168.429842 
L 718.747934 168.601834 
L 726.433884 168.77376 
L 734.119835 168.945621 
L 741.805785 169.117415 
L 749.491736 169.289143 
L 757.177686 169.460805 
L 764.863636 169.632401 
L 772.549587 169.803931 
L 780.235537 169.975396 
L 787.921488 170.146794 
L 795.607438 170.318127 
L 803.293388 170.489393 
L 810.979339 170.660594 
L 818.665289 170.831729 
L 826.35124 171.002798 
L 834.03719 171.173802 
L 841.72314 171.344739 
L 849.409091 171.515612 
L 857.095041 171.686418 
L 864.780992 171.857159 
L 872.466942 172.027834 
L 880.152893 172.198443 
L 887.838843 172.368987 
L 895.524793 172.539466 
L 903.210744 172.709878 
L 910.896694 172.880226 
L 918.582645 173.050508 
L 926.268595 173.220724 
L 933.954545 173.390875 
" clip-path="url(#p294e5309c2)" style="fill: none; stroke: #fdd9b4; stroke-width: 1.5; stroke-linecap: square"/>
   </g>
   <g id="line2d_20">
    <path d="M 173.045455 615.6 
L 180.731405 613.880345 
L 188.417355 612.160531 
L 196.103306 610.440618 
L 203.789256 608.720609 
L 211.475207 607.000538 
L 219.161157 605.280434 
L 226.847107 603.560313 
L 234.533058 601.84019 
L 242.219008 600.120059 
L 249.904959 598.399918 
L 257.590909 596.679773 
L 265.27686 594.959636 
L 272.96281 593.239504 
L 280.64876 591.519368 
L 288.334711 589.799224 
L 296.020661 588.079076 
L 303.706612 586.358931 
L 311.392562 584.6388 
L 319.078512 582.91869 
L 326.764463 581.198578 
L 334.450413 579.478452 
L 342.136364 577.758312 
L 349.822314 576.038168 
L 357.508264 574.318047 
L 365.194215 572.597985 
L 372.880165 570.877996 
L 380.566116 569.158055 
L 388.252066 567.43817 
L 395.938017 565.718378 
L 403.623967 563.998743 
L 411.309917 562.27933 
L 418.995868 560.560184 
L 426.681818 558.841383 
L 434.367769 557.123045 
L 442.053719 555.405325 
L 449.739669 553.68842 
L 457.42562 551.972541 
L 465.11157 550.257938 
L 472.797521 548.544954 
L 480.483471 546.834029 
L 488.169421 545.125697 
L 495.855372 543.420587 
L 503.541322 541.719412 
L 511.227273 540.023018 
L 518.913223 538.332432 
L 526.599174 536.64887 
L 534.285124 534.973724 
L 541.971074 533.308547 
L 549.657025 531.655095 
L 557.342975 530.015321 
L 565.028926 528.391379 
L 572.714876 526.785608 
L 580.400826 525.200451 
L 588.086777 523.638484 
L 595.772727 522.102276 
L 603.458678 520.594373 
L 611.144628 519.117292 
L 618.830579 517.673374 
L 626.516529 516.264742 
L 634.202479 514.89323 
L 641.88843 513.560331 
L 649.57438 512.26719 
L 657.260331 511.014611 
L 664.946281 509.803018 
L 672.632231 508.632451 
L 680.318182 507.502666 
L 688.004132 506.41314 
L 695.690083 505.363078 
L 703.376033 504.351466 
L 711.061983 503.377154 
L 718.747934 502.438866 
L 726.433884 501.535265 
L 734.119835 500.664949 
L 741.805785 499.826462 
L 749.491736 499.018372 
L 757.177686 498.23926 
L 764.863636 497.487744 
L 772.549587 496.76248 
L 780.235537 496.062164 
L 787.921488 495.385533 
L 795.607438 494.731377 
L 803.293388 494.098575 
L 810.979339 493.486063 
L 818.665289 492.892822 
L 826.35124 492.317882 
L 834.03719 491.76032 
L 841.72314 491.219262 
L 849.409091 490.693895 
L 857.095041 490.183481 
L 864.780992 489.687312 
L 872.466942 489.204713 
L 880.152893 488.735038 
L 887.838843 488.277673 
L 895.524793 487.83205 
L 903.210744 487.397661 
L 910.896694 486.974014 
L 918.582645 486.560637 
L 926.268595 486.15708 
L 933.954545 485.762915 
" clip-path="url(#p294e5309c2)" style="fill: none; stroke: #79b5d9; stroke-width: 1.5; stroke-linecap: square"/>
   </g>
   <g id="line2d_21">
    <path d="M 173.045455 156.22457 
L 180.731405 148.368605 
L 188.417355 143.673756 
L 196.103306 141.665193 
L 203.789256 140.551389 
L 211.475207 139.556508 
L 219.161157 139.048211 
L 226.847107 138.783474 
L 234.533058 138.535529 
L 242.219008 138.398088 
L 249.904959 138.403498 
L 257.590909 138.464924 
L 265.27686 138.409463 
L 272.96281 138.295564 
L 280.64876 138.239355 
L 288.334711 138.281591 
L 296.020661 138.395944 
L 303.706612 138.489004 
L 311.392562 138.389334 
L 319.078512 138.055838 
L 326.764463 137.786977 
L 334.450413 137.775999 
L 342.136364 138.070193 
L 349.822314 138.570886 
L 357.508264 139.033443 
L 365.194215 139.067266 
L 372.880165 138.638037 
L 380.566116 138.342485 
L 388.252066 138.356568 
L 395.938017 138.605005 
L 403.623967 138.761859 
L 411.309917 138.609793 
L 418.995868 138.51483 
L 426.681818 138.581511 
L 434.367769 138.787891 
L 442.053719 138.989063 
L 449.739669 138.970393 
L 457.42562 138.910838 
L 465.11157 139.097877 
L 472.797521 139.632144 
L 480.483471 140.425199 
L 488.169421 141.199523 
L 495.855372 141.598203 
L 503.541322 142.002765 
L 511.227273 142.794344 
L 518.913223 144.029595 
L 526.599174 145.467694 
L 534.285124 146.663412 
L 541.971074 147.85957 
L 549.657025 149.412634 
L 557.342975 151.366957 
L 565.028926 153.477934 
L 572.714876 155.297308 
L 580.400826 157.014038 
L 588.086777 158.884872 
L 595.772727 160.943169 
L 603.458678 163.041131 
L 611.144628 164.860465 
L 618.830579 166.466571 
L 626.516529 168.002172 
L 634.202479 169.444964 
L 641.88843 170.779797 
L 649.57438 171.998671 
L 657.260331 173.110166 
L 664.946281 174.178999 
L 672.632231 175.107864 
L 680.318182 175.842809 
L 688.004132 176.427172 
L 695.690083 177.001585 
L 703.376033 177.673113 
L 711.061983 178.277466 
L 718.747934 178.724758 
L 726.433884 179.021914 
L 734.119835 179.272157 
L 741.805785 179.660711 
L 749.491736 180.161211 
L 757.177686 180.559313 
L 764.863636 180.746179 
L 772.549587 180.730723 
L 780.235537 180.639616 
L 787.921488 180.717282 
L 795.607438 181.193715 
L 803.293388 181.754389 
L 810.979339 182.063747 
L 818.665289 181.992325 
L 826.35124 181.616632 
L 834.03719 181.219148 
L 841.72314 181.287448 
L 849.409091 181.900886 
L 857.095041 182.431038 
L 864.780992 182.570539 
L 872.466942 182.289377 
L 880.152893 181.834883 
L 887.838843 181.731739 
L 895.524793 182.181808 
L 903.210744 182.553967 
L 910.896694 182.658988 
L 918.582645 182.508067 
L 926.268595 182.310488 
L 933.954545 182.41271 
" clip-path="url(#p294e5309c2)" style="fill: none; stroke: #fd9649; stroke-width: 1.5; stroke-linecap: square"/>
   </g>
   <g id="line2d_22">
    <path d="M 173.045455 615.6 
L 180.731405 613.868694 
L 188.417355 612.137367 
L 196.103306 610.406024 
L 203.789256 608.674671 
L 211.475207 606.943317 
L 219.161157 605.211959 
L 226.847107 603.480596 
L 234.533058 601.749231 
L 242.219008 600.017866 
L 249.904959 598.286504 
L 257.590909 596.555141 
L 265.27686 594.823777 
L 272.96281 593.09241 
L 280.64876 591.361042 
L 288.334711 589.629675 
L 296.020661 587.898314 
L 303.706612 586.166958 
L 311.392562 584.435603 
L 319.078512 582.704245 
L 326.764463 580.972885 
L 334.450413 579.241527 
L 342.136364 577.510176 
L 349.822314 575.778843 
L 357.508264 574.047541 
L 365.194215 572.316281 
L 372.880165 570.585065 
L 380.566116 568.853907 
L 388.252066 567.122832 
L 395.938017 565.391881 
L 403.623967 563.661107 
L 411.309917 561.930577 
L 418.995868 560.200363 
L 426.681818 558.470553 
L 434.367769 556.74128 
L 442.053719 555.012718 
L 449.739669 553.285083 
L 457.42562 551.558636 
L 465.11157 549.833712 
L 472.797521 548.110676 
L 480.483471 546.390004 
L 488.169421 544.672299 
L 495.855372 542.958292 
L 503.541322 541.248842 
L 511.227273 539.544934 
L 518.913223 537.84773 
L 526.599174 536.158597 
L 534.285124 534.479092 
L 541.971074 532.810982 
L 549.657025 531.156233 
L 557.342975 529.51702 
L 565.028926 527.895718 
L 572.714876 526.294871 
L 580.400826 524.717088 
L 588.086777 523.165117 
L 595.772727 521.641619 
L 603.458678 520.149149 
L 611.144628 518.690156 
L 618.830579 517.266954 
L 626.516529 515.881476 
L 634.202479 514.535327 
L 641.88843 513.229741 
L 649.57438 511.965572 
L 657.260331 510.743292 
L 664.946281 509.563002 
L 672.632231 508.424466 
L 680.318182 507.327052 
L 688.004132 506.269937 
L 695.690083 505.25213 
L 703.376033 504.272476 
L 711.061983 503.329655 
L 718.747934 502.4222 
L 726.433884 501.548663 
L 734.119835 500.707532 
L 741.805785 499.89731 
L 749.491736 499.116537 
L 757.177686 498.363791 
L 764.863636 497.637688 
L 772.549587 496.936881 
L 780.235537 496.260068 
L 787.921488 495.60602 
L 795.607438 494.973562 
L 803.293388 494.361585 
L 810.979339 493.769043 
L 818.665289 493.194955 
L 826.35124 492.638399 
L 834.03719 492.098488 
L 841.72314 491.574393 
L 849.409091 491.065336 
L 857.095041 490.570585 
L 864.780992 490.089457 
L 872.466942 489.621316 
L 880.152893 489.16555 
L 887.838843 488.721588 
L 895.524793 488.288889 
L 903.210744 487.866946 
L 910.896694 487.455285 
L 918.582645 487.053462 
L 926.268595 486.661063 
L 933.954545 486.277685 
" clip-path="url(#p294e5309c2)" style="fill: none; stroke: #2575b7; stroke-width: 1.5; stroke-linecap: square"/>
   </g>
   <g id="line2d_23">
    <path d="M 173.045455 156.22457 
L 180.731405 158.007912 
L 188.417355 159.146261 
L 196.103306 159.714278 
L 203.789256 159.978609 
L 211.475207 160.27734 
L 219.161157 160.493912 
L 226.847107 160.581171 
L 234.533058 160.574687 
L 242.219008 160.583031 
L 249.904959 160.667443 
L 257.590909 160.742989 
L 265.27686 160.765865 
L 272.96281 160.726854 
L 280.64876 160.651321 
L 288.334711 160.599218 
L 296.020661 160.667542 
L 303.706612 160.861981 
L 311.392562 161.038818 
L 319.078512 161.099516 
L 326.764463 161.003208 
L 334.450413 160.766692 
L 342.136364 160.464438 
L 349.822314 160.228581 
L 357.508264 160.248925 
L 365.194215 160.534688 
L 372.880165 160.787527 
L 380.566116 160.865445 
L 388.252066 160.742473 
L 395.938017 160.508672 
L 403.623967 160.370128 
L 411.309917 160.523909 
L 418.995868 160.717918 
L 426.681818 160.814433 
L 434.367769 160.770752 
L 442.053719 160.623435 
L 449.739669 160.488308 
L 457.42562 160.545656 
L 465.11157 160.74724 
L 472.797521 160.911202 
L 480.483471 160.939993 
L 488.169421 160.812449 
L 495.855372 160.583789 
L 503.541322 160.385618 
L 511.227273 160.424547 
L 518.913223 160.76252 
L 526.599174 161.108222 
L 534.285124 161.244792 
L 541.971074 161.087015 
L 549.657025 160.681322 
L 557.342975 160.205793 
L 565.028926 159.970151 
L 572.714876 160.265611 
L 580.400826 160.646211 
L 588.086777 160.841836 
L 595.772727 160.775982 
L 603.458678 160.524974 
L 611.144628 160.317967 
L 618.830579 160.448002 
L 626.516529 160.660639 
L 634.202479 160.778434 
L 641.88843 160.752912 
L 649.57438 160.619514 
L 657.260331 160.497598 
L 664.946281 160.56493 
L 672.632231 160.741496 
L 680.318182 160.871319 
L 688.004132 160.879406 
L 695.690083 160.758045 
L 703.376033 160.566804 
L 711.061983 160.432527 
L 718.747934 160.538878 
L 726.433884 160.852904 
L 734.119835 161.121225 
L 741.805785 161.18429 
L 749.491736 160.993 
L 757.177686 160.608709 
L 764.863636 160.203223 
L 772.549587 160.058803 
L 780.235537 160.369348 
L 787.921488 160.710127 
L 795.607438 160.864242 
L 803.293388 160.772464 
L 810.979339 160.517659 
L 818.665289 160.324796 
L 826.35124 160.464375 
L 834.03719 160.679023 
L 841.72314 160.796559 
L 849.409091 160.766264 
L 857.095041 160.622899 
L 864.780992 160.4867 
L 872.466942 160.54479 
L 880.152893 160.733645 
L 887.838843 160.880281 
L 895.524793 160.898906 
L 903.210744 160.776066 
L 910.896694 160.570644 
L 918.582645 160.413855 
L 926.268595 160.475119 
L 933.954545 160.565538 
" clip-path="url(#p294e5309c2)" style="fill: none; stroke: #dc4c03; stroke-width: 1.5; stroke-linecap: square"/>
   </g>
   <g id="line2d_24">
    <path d="M 173.045455 615.6 
L 180.731405 613.874976 
L 188.417355 612.150417 
L 196.103306 610.426321 
L 203.789256 608.702689 
L 211.475207 606.979521 
L 219.161157 605.256817 
L 226.847107 603.534576 
L 234.533058 601.812798 
L 242.219008 600.091483 
L 249.904959 598.370632 
L 257.590909 596.650244 
L 265.27686 594.930318 
L 272.96281 593.210856 
L 280.64876 591.491856 
L 288.334711 589.773318 
L 296.020661 588.055244 
L 303.706612 586.337632 
L 311.392562 584.620485 
L 319.078512 582.903801 
L 326.764463 581.187583 
L 334.450413 579.471832 
L 342.136364 577.756551 
L 349.822314 576.041746 
L 357.508264 574.327423 
L 365.194215 572.61359 
L 372.880165 570.90026 
L 380.566116 569.18745 
L 388.252066 567.475182 
L 395.938017 565.763489 
L 403.623967 564.052413 
L 411.309917 562.342007 
L 418.995868 560.63234 
L 426.681818 558.923501 
L 434.367769 557.215608 
L 442.053719 555.508809 
L 449.739669 553.803286 
L 457.42562 552.099267 
L 465.11157 550.397023 
L 472.797521 548.696906 
L 480.483471 546.999349 
L 488.169421 545.304869 
L 495.855372 543.614069 
L 503.541322 541.927686 
L 511.227273 540.246581 
L 518.913223 538.571777 
L 526.599174 536.90446 
L 534.285124 535.245984 
L 541.971074 533.59789 
L 549.657025 531.961923 
L 557.342975 530.340005 
L 565.028926 528.73423 
L 572.714876 527.146867 
L 580.400826 525.580303 
L 588.086777 524.03706 
L 595.772727 522.519643 
L 603.458678 521.030517 
L 611.144628 519.572105 
L 618.830579 518.146682 
L 626.516529 516.756307 
L 634.202479 515.402758 
L 641.88843 514.087484 
L 649.57438 512.811597 
L 657.260331 511.575882 
L 664.946281 510.38076 
L 672.632231 509.226267 
L 680.318182 508.112167 
L 688.004132 507.037971 
L 695.690083 506.002932 
L 703.376033 505.006061 
L 711.061983 504.046248 
L 718.747934 503.122239 
L 726.433884 502.232724 
L 734.119835 501.376351 
L 741.805785 500.551724 
L 749.491736 499.757416 
L 757.177686 498.992039 
L 764.863636 498.254227 
L 772.549587 497.542655 
L 780.235537 496.856043 
L 787.921488 496.193157 
L 795.607438 495.552811 
L 803.293388 494.933881 
L 810.979339 494.3353 
L 818.665289 493.756055 
L 826.35124 493.195187 
L 834.03719 492.651787 
L 841.72314 492.125001 
L 849.409091 491.614022 
L 857.095041 491.118093 
L 864.780992 490.636499 
L 872.466942 490.168562 
L 880.152893 489.713648 
L 887.838843 489.27116 
L 895.524793 488.840536 
L 903.210744 488.421246 
L 910.896694 488.012792 
L 918.582645 487.614699 
L 926.268595 487.226524 
L 933.954545 486.847849 
" clip-path="url(#p294e5309c2)" style="fill: none; stroke: #08306b; stroke-width: 1.5; stroke-linecap: square"/>
   </g>
   <g id="line2d_25">
    <path d="M 173.045455 156.22457 
L 180.731405 148.127932 
L 188.417355 143.339056 
L 196.103306 141.266333 
L 203.789256 140.055477 
L 211.475207 139.031065 
L 219.161157 138.512519 
L 226.847107 138.237778 
L 234.533058 137.981858 
L 242.219008 137.843956 
L 249.904959 137.85015 
L 257.590909 137.906318 
L 265.27686 137.841941 
L 272.96281 137.7314 
L 280.64876 137.682331 
L 288.334711 137.729394 
L 296.020661 137.841726 
L 303.706612 137.922942 
L 311.392562 137.801571 
L 319.078512 137.479891 
L 326.764463 137.241374 
L 334.450413 137.255679 
L 342.136364 137.555514 
L 349.822314 138.036632 
L 357.508264 138.457835 
L 365.194215 138.441356 
L 372.880165 138.023822 
L 380.566116 137.749574 
L 388.252066 137.783362 
L 395.938017 138.046187 
L 403.623967 138.215296 
L 411.309917 138.057151 
L 418.995868 137.947437 
L 426.681818 138.008501 
L 434.367769 138.226702 
L 442.053719 138.457566 
L 449.739669 138.464684 
L 457.42562 138.386781 
L 465.11157 138.53954 
L 472.797521 139.048723 
L 480.483471 139.84313 
L 488.169421 140.654608 
L 495.855372 141.091767 
L 503.541322 141.474176 
L 511.227273 142.228291 
L 518.913223 143.44187 
L 526.599174 144.898808 
L 534.285124 146.133562 
L 541.971074 147.302415 
L 549.657025 148.816031 
L 557.342975 150.757259 
L 565.028926 152.905094 
L 572.714876 154.78094 
L 580.400826 156.491341 
L 588.086777 158.355154 
L 595.772727 160.433981 
L 603.458678 162.588428 
L 611.144628 164.481101 
L 618.830579 166.109115 
L 626.516529 167.675974 
L 634.202479 169.174156 
L 641.88843 170.585885 
L 649.57438 171.883133 
L 657.260331 173.049477 
L 664.946281 174.20182 
L 672.632231 175.208707 
L 680.318182 175.979178 
L 688.004132 176.542958 
L 695.690083 177.050456 
L 703.376033 177.744958 
L 711.061983 178.534591 
L 718.747934 179.145603 
L 726.433884 179.472495 
L 734.119835 179.581316 
L 741.805785 179.709659 
L 749.491736 180.189093 
L 757.177686 180.795613 
L 764.863636 181.208433 
L 772.549587 181.312015 
L 780.235537 181.182681 
L 787.921488 181.088609 
L 795.607438 181.422084 
L 803.293388 181.942466 
L 810.979339 182.282951 
L 818.665289 182.312316 
L 826.35124 182.101793 
L 834.03719 181.925067 
L 841.72314 182.18388 
L 849.409091 182.617685 
L 857.095041 182.884031 
L 864.780992 182.871592 
L 872.466942 182.655301 
L 880.152893 182.496343 
L 887.838843 182.737934 
L 895.524793 183.095498 
L 903.210744 183.29177 
L 910.896694 183.241577 
L 918.582645 183.022942 
L 926.268595 182.877087 
L 933.954545 183.044875 
" clip-path="url(#p294e5309c2)" style="fill: none; stroke: #7f2704; stroke-width: 1.5; stroke-linecap: square"/>
   </g>
   <g id="patch_3">
    <path d="M 135 640.8 
L 135 86.4 
" style="fill: none; stroke: #000000; stroke-width: 0.8; stroke-linejoin: miter; stroke-linecap: square"/>
   </g>
   <g id="patch_4">
    <path d="M 972 640.8 
L 972 86.4 
" style="fill: none; stroke: #000000; stroke-width: 0.8; stroke-linejoin: miter; stroke-linecap: square"/>
   </g>
   <g id="patch_5">
    <path d="M 135 640.8 
L 972 640.8 
" style="fill: none; stroke: #000000; stroke-width: 0.8; stroke-linejoin: miter; stroke-linecap: square"/>
   </g>
   <g id="patch_6">
    <path d="M 135 86.4 
L 972 86.4 
" style="fill: none; stroke: #000000; stroke-width: 0.8; stroke-linejoin: miter; stroke-linecap: square"/>
   </g>
   <g id="legend_1">
    <g id="patch_7">
     <path d="M 150.4 528.359375 
L 300.477813 528.359375 
Q 304.877813 528.359375 304.877813 523.959375 
L 304.877813 203.240625 
Q 304.877813 198.840625 300.477813 198.840625 
L 150.4 198.840625 
Q 146 198.840625 146 203.240625 
L 146 523.959375 
Q 146 528.359375 150.4 528.359375 
z
" style="fill: #ffffff; opacity: 0.8; stroke: #cccccc; stroke-linejoin: miter"/>
    </g>
    <g id="PathCollection_3">
     <g>
      <use xlink:href="#m80f1702e56" x="176.8" y="218.582187" style="fill: #1f77b4; stroke: #1f77b4"/>
     </g>
    </g>
    <g id="text_20">
     <!-- Xi -->
     <g transform="translate(216.4 224.357187) scale(0.22 -0.22)">
      <use xlink:href="#DejaVuSans-58"/>
      <use xlink:href="#DejaVuSans-69" x="68.505859"/>
     </g>
    </g>
    <g id="PathCollection_4">
     <g>
      <use xlink:href="#m62fcbac0dc" x="176.8" y="250.874062" style="fill: #ff7f0e; stroke: #ff7f0e"/>
     </g>
    </g>
    <g id="text_21">
     <!-- Xa -->
     <g transform="translate(216.4 256.649062) scale(0.22 -0.22)">
      <use xlink:href="#DejaVuSans-58"/>
      <use xlink:href="#DejaVuSans-61" x="68.505859"/>
     </g>
    </g>
    <g id="line2d_26">
     <path d="M 154.8 281.240937 
L 176.8 281.240937 
L 198.8 281.240937 
" style="fill: none; stroke: #d0e1f2; stroke-width: 1.5; stroke-linecap: square"/>
    </g>
    <g id="text_22">
     <!-- Xi-AAII -->
     <g transform="translate(216.4 288.940937) scale(0.22 -0.22)">
      <defs>
       <path id="DejaVuSans-2d" d="M 313 2009 
L 1997 2009 
L 1997 1497 
L 313 1497 
L 313 2009 
z
" transform="scale(0.015625)"/>
       <path id="DejaVuSans-49" d="M 628 4666 
L 1259 4666 
L 1259 0 
L 628 0 
L 628 4666 
z
" transform="scale(0.015625)"/>
      </defs>
      <use xlink:href="#DejaVuSans-58"/>
      <use xlink:href="#DejaVuSans-69" x="68.505859"/>
      <use xlink:href="#DejaVuSans-2d" x="96.289062"/>
      <use xlink:href="#DejaVuSans-41" x="130.123047"/>
      <use xlink:href="#DejaVuSans-41" x="201.28125"/>
      <use xlink:href="#DejaVuSans-49" x="269.689453"/>
      <use xlink:href="#DejaVuSans-49" x="299.181641"/>
     </g>
    </g>
    <g id="line2d_27">
     <path d="M 154.8 313.532812 
L 176.8 313.532812 
L 198.8 313.532812 
" style="fill: none; stroke: #fdd9b4; stroke-width: 1.5; stroke-linecap: square"/>
    </g>
    <g id="text_23">
     <!-- Xa-AAII -->
     <g transform="translate(216.4 321.232812) scale(0.22 -0.22)">
      <use xlink:href="#DejaVuSans-58"/>
      <use xlink:href="#DejaVuSans-61" x="68.505859"/>
      <use xlink:href="#DejaVuSans-2d" x="129.785156"/>
      <use xlink:href="#DejaVuSans-41" x="163.619141"/>
      <use xlink:href="#DejaVuSans-41" x="234.777344"/>
      <use xlink:href="#DejaVuSans-49" x="303.185547"/>
      <use xlink:href="#DejaVuSans-49" x="332.677734"/>
     </g>
    </g>
    <g id="line2d_28">
     <path d="M 154.8 345.824687 
L 176.8 345.824687 
L 198.8 345.824687 
" style="fill: none; stroke: #79b5d9; stroke-width: 1.5; stroke-linecap: square"/>
    </g>
    <g id="text_24">
     <!-- Xi-AIII -->
     <g transform="translate(216.4 353.524687) scale(0.22 -0.22)">
      <use xlink:href="#DejaVuSans-58"/>
      <use xlink:href="#DejaVuSans-69" x="68.505859"/>
      <use xlink:href="#DejaVuSans-2d" x="96.289062"/>
      <use xlink:href="#DejaVuSans-41" x="130.123047"/>
      <use xlink:href="#DejaVuSans-49" x="198.53125"/>
      <use xlink:href="#DejaVuSans-49" x="228.023438"/>
      <use xlink:href="#DejaVuSans-49" x="257.515625"/>
     </g>
    </g>
    <g id="line2d_29">
     <path d="M 154.8 378.116562 
L 176.8 378.116562 
L 198.8 378.116562 
" style="fill: none; stroke: #fd9649; stroke-width: 1.5; stroke-linecap: square"/>
    </g>
    <g id="text_25">
     <!-- Xa-AIII -->
     <g transform="translate(216.4 385.816562) scale(0.22 -0.22)">
      <use xlink:href="#DejaVuSans-58"/>
      <use xlink:href="#DejaVuSans-61" x="68.505859"/>
      <use xlink:href="#DejaVuSans-2d" x="129.785156"/>
      <use xlink:href="#DejaVuSans-41" x="163.619141"/>
      <use xlink:href="#DejaVuSans-49" x="232.027344"/>
      <use xlink:href="#DejaVuSans-49" x="261.519531"/>
      <use xlink:href="#DejaVuSans-49" x="291.011719"/>
     </g>
    </g>
    <g id="line2d_30">
     <path d="M 154.8 410.408437 
L 176.8 410.408437 
L 198.8 410.408437 
" style="fill: none; stroke: #2575b7; stroke-width: 1.5; stroke-linecap: square"/>
    </g>
    <g id="text_26">
     <!-- Xi-IAII -->
     <g transform="translate(216.4 418.108437) scale(0.22 -0.22)">
      <use xlink:href="#DejaVuSans-58"/>
      <use xlink:href="#DejaVuSans-69" x="68.505859"/>
      <use xlink:href="#DejaVuSans-2d" x="96.289062"/>
      <use xlink:href="#DejaVuSans-49" x="132.373047"/>
      <use xlink:href="#DejaVuSans-41" x="161.865234"/>
      <use xlink:href="#DejaVuSans-49" x="230.273438"/>
      <use xlink:href="#DejaVuSans-49" x="259.765625"/>
     </g>
    </g>
    <g id="line2d_31">
     <path d="M 154.8 442.700312 
L 176.8 442.700312 
L 198.8 442.700312 
" style="fill: none; stroke: #dc4c03; stroke-width: 1.5; stroke-linecap: square"/>
    </g>
    <g id="text_27">
     <!-- Xa-IAII -->
     <g transform="translate(216.4 450.400312) scale(0.22 -0.22)">
      <use xlink:href="#DejaVuSans-58"/>
      <use xlink:href="#DejaVuSans-61" x="68.505859"/>
      <use xlink:href="#DejaVuSans-2d" x="129.785156"/>
      <use xlink:href="#DejaVuSans-49" x="165.869141"/>
      <use xlink:href="#DejaVuSans-41" x="195.361328"/>
      <use xlink:href="#DejaVuSans-49" x="263.769531"/>
      <use xlink:href="#DejaVuSans-49" x="293.261719"/>
     </g>
    </g>
    <g id="line2d_32">
     <path d="M 154.8 474.992188 
L 176.8 474.992188 
L 198.8 474.992188 
" style="fill: none; stroke: #08306b; stroke-width: 1.5; stroke-linecap: square"/>
    </g>
    <g id="text_28">
     <!-- Xi-IIII -->
     <g transform="translate(216.4 482.692187) scale(0.22 -0.22)">
      <use xlink:href="#DejaVuSans-58"/>
      <use xlink:href="#DejaVuSans-69" x="68.505859"/>
      <use xlink:href="#DejaVuSans-2d" x="96.289062"/>
      <use xlink:href="#DejaVuSans-49" x="132.373047"/>
      <use xlink:href="#DejaVuSans-49" x="161.865234"/>
      <use xlink:href="#DejaVuSans-49" x="191.357422"/>
      <use xlink:href="#DejaVuSans-49" x="220.849609"/>
     </g>
    </g>
    <g id="line2d_33">
     <path d="M 154.8 507.284062 
L 176.8 507.284062 
L 198.8 507.284062 
" style="fill: none; stroke: #7f2704; stroke-width: 1.5; stroke-linecap: square"/>
    </g>
    <g id="text_29">
     <!-- Xa-IIII -->
     <g transform="translate(216.4 514.984062) scale(0.22 -0.22)">
      <use xlink:href="#DejaVuSans-58"/>
      <use xlink:href="#DejaVuSans-61" x="68.505859"/>
      <use xlink:href="#DejaVuSans-2d" x="129.785156"/>
      <use xlink:href="#DejaVuSans-49" x="165.869141"/>
      <use xlink:href="#DejaVuSans-49" x="195.361328"/>
      <use xlink:href="#DejaVuSans-49" x="224.853516"/>
      <use xlink:href="#DejaVuSans-49" x="254.345703"/>
     </g>
    </g>
   </g>
  </g>
 </g>
 <defs>
  <clipPath id="p294e5309c2">
   <rect x="135" y="86.4" width="837" height="554.4"/>
  </clipPath>
 </defs>
</svg>
