<?xml version="1.0" encoding="utf-8" standalone="no"?>
<!DOCTYPE svg PUBLIC "-//W3C//DTD SVG 1.1//EN"
  "http://www.w3.org/Graphics/SVG/1.1/DTD/svg11.dtd">
<svg xmlns:xlink="http://www.w3.org/1999/xlink" width="1080pt" height="720pt" viewBox="0 0 1080 720" xmlns="http://www.w3.org/2000/svg" version="1.1">
 <metadata>
  <rdf:RDF xmlns:dc="http://purl.org/dc/elements/1.1/" xmlns:cc="http://creativecommons.org/ns#" xmlns:rdf="http://www.w3.org/1999/02/22-rdf-syntax-ns#">
   <cc:Work>
    <dc:type rdf:resource="http://purl.org/dc/dcmitype/StillImage"/>
    <dc:date>2023-01-10T19:23:32.616395</dc:date>
    <dc:format>image/svg+xml</dc:format>
    <dc:creator>
     <cc:Agent>
      <dc:title>Matplotlib v3.6.2, https://matplotlib.org/</dc:title>
     </cc:Agent>
    </dc:creator>
   </cc:Work>
  </rdf:RDF>
 </metadata>
 <defs>
  <style type="text/css">*{stroke-linejoin: round; stroke-linecap: butt}</style>
 </defs>
 <g id="figure_1">
  <g id="patch_1">
   <path d="M 0 720 
L 1080 720 
L 1080 0 
L 0 0 
z
" style="fill: #ffffff"/>
  </g>
  <g id="axes_1">
   <g id="patch_2">
    <path d="M 135 640.8 
L 972 640.8 
L 972 86.4 
L 135 86.4 
z
" style="fill: #ffffff"/>
   </g>
   <g id="PathCollection_1">
    <defs>
     <path id="m80f1702e56" d="M 0 3 
C 0.795609 3 1.55874 2.683901 2.12132 2.12132 
C 2.683901 1.55874 3 0.795609 3 0 
C 3 -0.795609 2.683901 -1.55874 2.12132 -2.12132 
C 1.55874 -2.683901 0.795609 -3 0 -3 
C -0.795609 -3 -1.55874 -2.683901 -2.12132 -2.12132 
C -2.683901 -1.55874 -3 -0.795609 -3 0 
C -3 0.795609 -2.683901 1.55874 -2.12132 2.12132 
C -1.55874 2.683901 -0.795609 3 0 3 
z
" style="stroke: #1f77b4"/>
    </defs>
    <g clip-path="url(#p294e5309c2)">
     <use xlink:href="#m80f1702e56" x="173.045455" y="615.6" style="fill: #1f77b4; stroke: #1f77b4"/>
     <use xlink:href="#m80f1702e56" x="213.093301" y="611.763493" style="fill: #1f77b4; stroke: #1f77b4"/>
     <use xlink:href="#m80f1702e56" x="253.141148" y="607.926986" style="fill: #1f77b4; stroke: #1f77b4"/>
     <use xlink:href="#m80f1702e56" x="293.188995" y="604.090479" style="fill: #1f77b4; stroke: #1f77b4"/>
     <use xlink:href="#m80f1702e56" x="333.236842" y="600.253972" style="fill: #1f77b4; stroke: #1f77b4"/>
     <use xlink:href="#m80f1702e56" x="373.284689" y="596.417466" style="fill: #1f77b4; stroke: #1f77b4"/>
     <use xlink:href="#m80f1702e56" x="413.332536" y="592.580959" style="fill: #1f77b4; stroke: #1f77b4"/>
     <use xlink:href="#m80f1702e56" x="453.380383" y="588.744452" style="fill: #1f77b4; stroke: #1f77b4"/>
     <use xlink:href="#m80f1702e56" x="493.42823" y="584.907945" style="fill: #1f77b4; stroke: #1f77b4"/>
     <use xlink:href="#m80f1702e56" x="533.476077" y="574.503077" style="fill: #1f77b4; stroke: #1f77b4"/>
     <use xlink:href="#m80f1702e56" x="573.523923" y="572.397655" style="fill: #1f77b4; stroke: #1f77b4"/>
     <use xlink:href="#m80f1702e56" x="613.57177" y="533.008677" style="fill: #1f77b4; stroke: #1f77b4"/>
     <use xlink:href="#m80f1702e56" x="653.619617" y="493.6197" style="fill: #1f77b4; stroke: #1f77b4"/>
     <use xlink:href="#m80f1702e56" x="693.667464" y="493.6197" style="fill: #1f77b4; stroke: #1f77b4"/>
     <use xlink:href="#m80f1702e56" x="733.715311" y="493.6197" style="fill: #1f77b4; stroke: #1f77b4"/>
     <use xlink:href="#m80f1702e56" x="773.763158" y="493.6197" style="fill: #1f77b4; stroke: #1f77b4"/>
     <use xlink:href="#m80f1702e56" x="813.811005" y="493.6197" style="fill: #1f77b4; stroke: #1f77b4"/>
     <use xlink:href="#m80f1702e56" x="853.858852" y="493.6197" style="fill: #1f77b4; stroke: #1f77b4"/>
     <use xlink:href="#m80f1702e56" x="893.906699" y="493.6197" style="fill: #1f77b4; stroke: #1f77b4"/>
     <use xlink:href="#m80f1702e56" x="933.954545" y="493.6197" style="fill: #1f77b4; stroke: #1f77b4"/>
    </g>
   </g>
   <g id="PathCollection_2">
    <defs>
     <path id="m62fcbac0dc" d="M 0 3 
C 0.795609 3 1.55874 2.683901 2.12132 2.12132 
C 2.683901 1.55874 3 0.795609 3 0 
C 3 -0.795609 2.683901 -1.55874 2.12132 -2.12132 
C 1.55874 -2.683901 0.795609 -3 0 -3 
C -0.795609 -3 -1.55874 -2.683901 -2.12132 -2.12132 
C -2.683901 -1.55874 -3 -0.795609 -3 0 
C -3 0.795609 -2.683901 1.55874 -2.12132 2.12132 
C -1.55874 2.683901 -0.795609 3 0 3 
z
" style="stroke: #ff7f0e"/>
    </defs>
    <g clip-path="url(#p294e5309c2)">
     <use xlink:href="#m62fcbac0dc" x="173.045455" y="156.22457" style="fill: #ff7f0e; stroke: #ff7f0e"/>
     <use xlink:href="#m62fcbac0dc" x="213.093301" y="153.881767" style="fill: #ff7f0e; stroke: #ff7f0e"/>
     <use xlink:href="#m62fcbac0dc" x="253.141148" y="151.538963" style="fill: #ff7f0e; stroke: #ff7f0e"/>
     <use xlink:href="#m62fcbac0dc" x="293.188995" y="149.19616" style="fill: #ff7f0e; stroke: #ff7f0e"/>
     <use xlink:href="#m62fcbac0dc" x="333.236842" y="146.853356" style="fill: #ff7f0e; stroke: #ff7f0e"/>
     <use xlink:href="#m62fcbac0dc" x="373.284689" y="144.510553" style="fill: #ff7f0e; stroke: #ff7f0e"/>
     <use xlink:href="#m62fcbac0dc" x="413.332536" y="142.167749" style="fill: #ff7f0e; stroke: #ff7f0e"/>
     <use xlink:href="#m62fcbac0dc" x="453.380383" y="139.824946" style="fill: #ff7f0e; stroke: #ff7f0e"/>
     <use xlink:href="#m62fcbac0dc" x="493.42823" y="137.482142" style="fill: #ff7f0e; stroke: #ff7f0e"/>
     <use xlink:href="#m62fcbac0dc" x="533.476077" y="166.726691" style="fill: #ff7f0e; stroke: #ff7f0e"/>
     <use xlink:href="#m62fcbac0dc" x="573.523923" y="111.6" style="fill: #ff7f0e; stroke: #ff7f0e"/>
     <use xlink:href="#m62fcbac0dc" x="613.57177" y="145.771767" style="fill: #ff7f0e; stroke: #ff7f0e"/>
     <use xlink:href="#m62fcbac0dc" x="653.619617" y="179.943533" style="fill: #ff7f0e; stroke: #ff7f0e"/>
     <use xlink:href="#m62fcbac0dc" x="693.667464" y="179.943533" style="fill: #ff7f0e; stroke: #ff7f0e"/>
     <use xlink:href="#m62fcbac0dc" x="733.715311" y="179.943533" style="fill: #ff7f0e; stroke: #ff7f0e"/>
     <use xlink:href="#m62fcbac0dc" x="773.763158" y="179.943533" style="fill: #ff7f0e; stroke: #ff7f0e"/>
     <use xlink:href="#m62fcbac0dc" x="813.811005" y="179.943533" style="fill: #ff7f0e; stroke: #ff7f0e"/>
     <use xlink:href="#m62fcbac0dc" x="853.858852" y="179.943533" style="fill: #ff7f0e; stroke: #ff7f0e"/>
     <use xlink:href="#m62fcbac0dc" x="893.906699" y="179.943533" style="fill: #ff7f0e; stroke: #ff7f0e"/>
     <use xlink:href="#m62fcbac0dc" x="933.954545" y="179.943533" style="fill: #ff7f0e; stroke: #ff7f0e"/>
    </g>
   </g>
   <g id="matplotlib.axis_1">
    <g id="xtick_1">
     <g id="line2d_1">
      <defs>
       <path id="m3385fdae1e" d="M 0 0 
L 0 3.5 
" style="stroke: #000000; stroke-width: 0.8"/>
      </defs>
      <g>
       <use xlink:href="#m3385fdae1e" x="173.045455" y="640.8" style="stroke: #000000; stroke-width: 0.8"/>
      </g>
     </g>
     <g id="text_1">
      <!-- 0.0 -->
      <g transform="translate(155.552017 664.516562) scale(0.22 -0.22)">
       <defs>
        <path id="DejaVuSans-30" d="M 2034 4250 
Q 1547 4250 1301 3770 
Q 1056 3291 1056 2328 
Q 1056 1369 1301 889 
Q 1547 409 2034 409 
Q 2525 409 2770 889 
Q 3016 1369 3016 2328 
Q 3016 3291 2770 3770 
Q 2525 4250 2034 4250 
z
M 2034 4750 
Q 2819 4750 3233 4129 
Q 3647 3509 3647 2328 
Q 3647 1150 3233 529 
Q 2819 -91 2034 -91 
Q 1250 -91 836 529 
Q 422 1150 422 2328 
Q 422 3509 836 4129 
Q 1250 4750 2034 4750 
z
" transform="scale(0.015625)"/>
        <path id="DejaVuSans-2e" d="M 684 794 
L 1344 794 
L 1344 0 
L 684 0 
L 684 794 
z
" transform="scale(0.015625)"/>
       </defs>
       <use xlink:href="#DejaVuSans-30"/>
       <use xlink:href="#DejaVuSans-2e" x="63.623047"/>
       <use xlink:href="#DejaVuSans-30" x="95.410156"/>
      </g>
     </g>
    </g>
    <g id="xtick_2">
     <g id="line2d_2">
      <g>
       <use xlink:href="#m3385fdae1e" x="273.165072" y="640.8" style="stroke: #000000; stroke-width: 0.8"/>
      </g>
     </g>
     <g id="text_2">
      <!-- 2.5 -->
      <g transform="translate(255.671634 664.516562) scale(0.22 -0.22)">
       <defs>
        <path id="DejaVuSans-32" d="M 1228 531 
L 3431 531 
L 3431 0 
L 469 0 
L 469 531 
Q 828 903 1448 1529 
Q 2069 2156 2228 2338 
Q 2531 2678 2651 2914 
Q 2772 3150 2772 3378 
Q 2772 3750 2511 3984 
Q 2250 4219 1831 4219 
Q 1534 4219 1204 4116 
Q 875 4013 500 3803 
L 500 4441 
Q 881 4594 1212 4672 
Q 1544 4750 1819 4750 
Q 2544 4750 2975 4387 
Q 3406 4025 3406 3419 
Q 3406 3131 3298 2873 
Q 3191 2616 2906 2266 
Q 2828 2175 2409 1742 
Q 1991 1309 1228 531 
z
" transform="scale(0.015625)"/>
        <path id="DejaVuSans-35" d="M 691 4666 
L 3169 4666 
L 3169 4134 
L 1269 4134 
L 1269 2991 
Q 1406 3038 1543 3061 
Q 1681 3084 1819 3084 
Q 2600 3084 3056 2656 
Q 3513 2228 3513 1497 
Q 3513 744 3044 326 
Q 2575 -91 1722 -91 
Q 1428 -91 1123 -41 
Q 819 9 494 109 
L 494 744 
Q 775 591 1075 516 
Q 1375 441 1709 441 
Q 2250 441 2565 725 
Q 2881 1009 2881 1497 
Q 2881 1984 2565 2268 
Q 2250 2553 1709 2553 
Q 1456 2553 1204 2497 
Q 953 2441 691 2322 
L 691 4666 
z
" transform="scale(0.015625)"/>
       </defs>
       <use xlink:href="#DejaVuSans-32"/>
       <use xlink:href="#DejaVuSans-2e" x="63.623047"/>
       <use xlink:href="#DejaVuSans-35" x="95.410156"/>
      </g>
     </g>
    </g>
    <g id="xtick_3">
     <g id="line2d_3">
      <g>
       <use xlink:href="#m3385fdae1e" x="373.284689" y="640.8" style="stroke: #000000; stroke-width: 0.8"/>
      </g>
     </g>
     <g id="text_3">
      <!-- 5.0 -->
      <g transform="translate(355.791251 664.516562) scale(0.22 -0.22)">
       <use xlink:href="#DejaVuSans-35"/>
       <use xlink:href="#DejaVuSans-2e" x="63.623047"/>
       <use xlink:href="#DejaVuSans-30" x="95.410156"/>
      </g>
     </g>
    </g>
    <g id="xtick_4">
     <g id="line2d_4">
      <g>
       <use xlink:href="#m3385fdae1e" x="473.404306" y="640.8" style="stroke: #000000; stroke-width: 0.8"/>
      </g>
     </g>
     <g id="text_4">
      <!-- 7.5 -->
      <g transform="translate(455.910869 664.516562) scale(0.22 -0.22)">
       <defs>
        <path id="DejaVuSans-37" d="M 525 4666 
L 3525 4666 
L 3525 4397 
L 1831 0 
L 1172 0 
L 2766 4134 
L 525 4134 
L 525 4666 
z
" transform="scale(0.015625)"/>
       </defs>
       <use xlink:href="#DejaVuSans-37"/>
       <use xlink:href="#DejaVuSans-2e" x="63.623047"/>
       <use xlink:href="#DejaVuSans-35" x="95.410156"/>
      </g>
     </g>
    </g>
    <g id="xtick_5">
     <g id="line2d_5">
      <g>
       <use xlink:href="#m3385fdae1e" x="573.523923" y="640.8" style="stroke: #000000; stroke-width: 0.8"/>
      </g>
     </g>
     <g id="text_5">
      <!-- 10.0 -->
      <g transform="translate(549.031736 664.516562) scale(0.22 -0.22)">
       <defs>
        <path id="DejaVuSans-31" d="M 794 531 
L 1825 531 
L 1825 4091 
L 703 3866 
L 703 4441 
L 1819 4666 
L 2450 4666 
L 2450 531 
L 3481 531 
L 3481 0 
L 794 0 
L 794 531 
z
" transform="scale(0.015625)"/>
       </defs>
       <use xlink:href="#DejaVuSans-31"/>
       <use xlink:href="#DejaVuSans-30" x="63.623047"/>
       <use xlink:href="#DejaVuSans-2e" x="127.246094"/>
       <use xlink:href="#DejaVuSans-30" x="159.033203"/>
      </g>
     </g>
    </g>
    <g id="xtick_6">
     <g id="line2d_6">
      <g>
       <use xlink:href="#m3385fdae1e" x="673.643541" y="640.8" style="stroke: #000000; stroke-width: 0.8"/>
      </g>
     </g>
     <g id="text_6">
      <!-- 12.5 -->
      <g transform="translate(649.151353 664.516562) scale(0.22 -0.22)">
       <use xlink:href="#DejaVuSans-31"/>
       <use xlink:href="#DejaVuSans-32" x="63.623047"/>
       <use xlink:href="#DejaVuSans-2e" x="127.246094"/>
       <use xlink:href="#DejaVuSans-35" x="159.033203"/>
      </g>
     </g>
    </g>
    <g id="xtick_7">
     <g id="line2d_7">
      <g>
       <use xlink:href="#m3385fdae1e" x="773.763158" y="640.8" style="stroke: #000000; stroke-width: 0.8"/>
      </g>
     </g>
     <g id="text_7">
      <!-- 15.0 -->
      <g transform="translate(749.27097 664.516562) scale(0.22 -0.22)">
       <use xlink:href="#DejaVuSans-31"/>
       <use xlink:href="#DejaVuSans-35" x="63.623047"/>
       <use xlink:href="#DejaVuSans-2e" x="127.246094"/>
       <use xlink:href="#DejaVuSans-30" x="159.033203"/>
      </g>
     </g>
    </g>
    <g id="xtick_8">
     <g id="line2d_8">
      <g>
       <use xlink:href="#m3385fdae1e" x="873.882775" y="640.8" style="stroke: #000000; stroke-width: 0.8"/>
      </g>
     </g>
     <g id="text_8">
      <!-- 17.5 -->
      <g transform="translate(849.390588 664.516562) scale(0.22 -0.22)">
       <use xlink:href="#DejaVuSans-31"/>
       <use xlink:href="#DejaVuSans-37" x="63.623047"/>
       <use xlink:href="#DejaVuSans-2e" x="127.246094"/>
       <use xlink:href="#DejaVuSans-35" x="159.033203"/>
      </g>
     </g>
    </g>
    <g id="text_9">
     <!-- Time (days) -->
     <g transform="translate(488.541562 689.808437) scale(0.22 -0.22)">
      <defs>
       <path id="DejaVuSans-54" d="M -19 4666 
L 3928 4666 
L 3928 4134 
L 2272 4134 
L 2272 0 
L 1638 0 
L 1638 4134 
L -19 4134 
L -19 4666 
z
" transform="scale(0.015625)"/>
       <path id="DejaVuSans-69" d="M 603 3500 
L 1178 3500 
L 1178 0 
L 603 0 
L 603 3500 
z
M 603 4863 
L 1178 4863 
L 1178 4134 
L 603 4134 
L 603 4863 
z
" transform="scale(0.015625)"/>
       <path id="DejaVuSans-6d" d="M 3328 2828 
Q 3544 3216 3844 3400 
Q 4144 3584 4550 3584 
Q 5097 3584 5394 3201 
Q 5691 2819 5691 2113 
L 5691 0 
L 5113 0 
L 5113 2094 
Q 5113 2597 4934 2840 
Q 4756 3084 4391 3084 
Q 3944 3084 3684 2787 
Q 3425 2491 3425 1978 
L 3425 0 
L 2847 0 
L 2847 2094 
Q 2847 2600 2669 2842 
Q 2491 3084 2119 3084 
Q 1678 3084 1418 2786 
Q 1159 2488 1159 1978 
L 1159 0 
L 581 0 
L 581 3500 
L 1159 3500 
L 1159 2956 
Q 1356 3278 1631 3431 
Q 1906 3584 2284 3584 
Q 2666 3584 2933 3390 
Q 3200 3197 3328 2828 
z
" transform="scale(0.015625)"/>
       <path id="DejaVuSans-65" d="M 3597 1894 
L 3597 1613 
L 953 1613 
Q 991 1019 1311 708 
Q 1631 397 2203 397 
Q 2534 397 2845 478 
Q 3156 559 3463 722 
L 3463 178 
Q 3153 47 2828 -22 
Q 2503 -91 2169 -91 
Q 1331 -91 842 396 
Q 353 884 353 1716 
Q 353 2575 817 3079 
Q 1281 3584 2069 3584 
Q 2775 3584 3186 3129 
Q 3597 2675 3597 1894 
z
M 3022 2063 
Q 3016 2534 2758 2815 
Q 2500 3097 2075 3097 
Q 1594 3097 1305 2825 
Q 1016 2553 972 2059 
L 3022 2063 
z
" transform="scale(0.015625)"/>
       <path id="DejaVuSans-20" transform="scale(0.015625)"/>
       <path id="DejaVuSans-28" d="M 1984 4856 
Q 1566 4138 1362 3434 
Q 1159 2731 1159 2009 
Q 1159 1288 1364 580 
Q 1569 -128 1984 -844 
L 1484 -844 
Q 1016 -109 783 600 
Q 550 1309 550 2009 
Q 550 2706 781 3412 
Q 1013 4119 1484 4856 
L 1984 4856 
z
" transform="scale(0.015625)"/>
       <path id="DejaVuSans-64" d="M 2906 2969 
L 2906 4863 
L 3481 4863 
L 3481 0 
L 2906 0 
L 2906 525 
Q 2725 213 2448 61 
Q 2172 -91 1784 -91 
Q 1150 -91 751 415 
Q 353 922 353 1747 
Q 353 2572 751 3078 
Q 1150 3584 1784 3584 
Q 2172 3584 2448 3432 
Q 2725 3281 2906 2969 
z
M 947 1747 
Q 947 1113 1208 752 
Q 1469 391 1925 391 
Q 2381 391 2643 752 
Q 2906 1113 2906 1747 
Q 2906 2381 2643 2742 
Q 2381 3103 1925 3103 
Q 1469 3103 1208 2742 
Q 947 2381 947 1747 
z
" transform="scale(0.015625)"/>
       <path id="DejaVuSans-61" d="M 2194 1759 
Q 1497 1759 1228 1600 
Q 959 1441 959 1056 
Q 959 750 1161 570 
Q 1363 391 1709 391 
Q 2188 391 2477 730 
Q 2766 1069 2766 1631 
L 2766 1759 
L 2194 1759 
z
M 3341 1997 
L 3341 0 
L 2766 0 
L 2766 531 
Q 2569 213 2275 61 
Q 1981 -91 1556 -91 
Q 1019 -91 701 211 
Q 384 513 384 1019 
Q 384 1609 779 1909 
Q 1175 2209 1959 2209 
L 2766 2209 
L 2766 2266 
Q 2766 2663 2505 2880 
Q 2244 3097 1772 3097 
Q 1472 3097 1187 3025 
Q 903 2953 641 2809 
L 641 3341 
Q 956 3463 1253 3523 
Q 1550 3584 1831 3584 
Q 2591 3584 2966 3190 
Q 3341 2797 3341 1997 
z
" transform="scale(0.015625)"/>
       <path id="DejaVuSans-79" d="M 2059 -325 
Q 1816 -950 1584 -1140 
Q 1353 -1331 966 -1331 
L 506 -1331 
L 506 -850 
L 844 -850 
Q 1081 -850 1212 -737 
Q 1344 -625 1503 -206 
L 1606 56 
L 191 3500 
L 800 3500 
L 1894 763 
L 2988 3500 
L 3597 3500 
L 2059 -325 
z
" transform="scale(0.015625)"/>
       <path id="DejaVuSans-73" d="M 2834 3397 
L 2834 2853 
Q 2591 2978 2328 3040 
Q 2066 3103 1784 3103 
Q 1356 3103 1142 2972 
Q 928 2841 928 2578 
Q 928 2378 1081 2264 
Q 1234 2150 1697 2047 
L 1894 2003 
Q 2506 1872 2764 1633 
Q 3022 1394 3022 966 
Q 3022 478 2636 193 
Q 2250 -91 1575 -91 
Q 1294 -91 989 -36 
Q 684 19 347 128 
L 347 722 
Q 666 556 975 473 
Q 1284 391 1588 391 
Q 1994 391 2212 530 
Q 2431 669 2431 922 
Q 2431 1156 2273 1281 
Q 2116 1406 1581 1522 
L 1381 1569 
Q 847 1681 609 1914 
Q 372 2147 372 2553 
Q 372 3047 722 3315 
Q 1072 3584 1716 3584 
Q 2034 3584 2315 3537 
Q 2597 3491 2834 3397 
z
" transform="scale(0.015625)"/>
       <path id="DejaVuSans-29" d="M 513 4856 
L 1013 4856 
Q 1481 4119 1714 3412 
Q 1947 2706 1947 2009 
Q 1947 1309 1714 600 
Q 1481 -109 1013 -844 
L 513 -844 
Q 928 -128 1133 580 
Q 1338 1288 1338 2009 
Q 1338 2731 1133 3434 
Q 928 4138 513 4856 
z
" transform="scale(0.015625)"/>
      </defs>
      <use xlink:href="#DejaVuSans-54"/>
      <use xlink:href="#DejaVuSans-69" x="57.958984"/>
      <use xlink:href="#DejaVuSans-6d" x="85.742188"/>
      <use xlink:href="#DejaVuSans-65" x="183.154297"/>
      <use xlink:href="#DejaVuSans-20" x="244.677734"/>
      <use xlink:href="#DejaVuSans-28" x="276.464844"/>
      <use xlink:href="#DejaVuSans-64" x="315.478516"/>
      <use xlink:href="#DejaVuSans-61" x="378.955078"/>
      <use xlink:href="#DejaVuSans-79" x="440.234375"/>
      <use xlink:href="#DejaVuSans-73" x="499.414062"/>
      <use xlink:href="#DejaVuSans-29" x="551.513672"/>
     </g>
    </g>
   </g>
   <g id="matplotlib.axis_2">
    <g id="ytick_1">
     <g id="line2d_9">
      <defs>
       <path id="ma600d9e374" d="M 0 0 
L -3.5 0 
" style="stroke: #000000; stroke-width: 0.8"/>
      </defs>
      <g>
       <use xlink:href="#ma600d9e374" x="135" y="615.908529" style="stroke: #000000; stroke-width: 0.8"/>
      </g>
     </g>
     <g id="text_10">
      <!-- 0.00 -->
      <g transform="translate(79.015625 624.26681) scale(0.22 -0.22)">
       <use xlink:href="#DejaVuSans-30"/>
       <use xlink:href="#DejaVuSans-2e" x="63.623047"/>
       <use xlink:href="#DejaVuSans-30" x="95.410156"/>
       <use xlink:href="#DejaVuSans-30" x="159.033203"/>
      </g>
     </g>
    </g>
    <g id="ytick_2">
     <g id="line2d_10">
      <g>
       <use xlink:href="#ma600d9e374" x="135" y="544.201469" style="stroke: #000000; stroke-width: 0.8"/>
      </g>
     </g>
     <g id="text_11">
      <!-- 0.25 -->
      <g transform="translate(79.015625 552.559751) scale(0.22 -0.22)">
       <use xlink:href="#DejaVuSans-30"/>
       <use xlink:href="#DejaVuSans-2e" x="63.623047"/>
       <use xlink:href="#DejaVuSans-32" x="95.410156"/>
       <use xlink:href="#DejaVuSans-35" x="159.033203"/>
      </g>
     </g>
    </g>
    <g id="ytick_3">
     <g id="line2d_11">
      <g>
       <use xlink:href="#ma600d9e374" x="135" y="472.49441" style="stroke: #000000; stroke-width: 0.8"/>
      </g>
     </g>
     <g id="text_12">
      <!-- 0.50 -->
      <g transform="translate(79.015625 480.852691) scale(0.22 -0.22)">
       <use xlink:href="#DejaVuSans-30"/>
       <use xlink:href="#DejaVuSans-2e" x="63.623047"/>
       <use xlink:href="#DejaVuSans-35" x="95.410156"/>
       <use xlink:href="#DejaVuSans-30" x="159.033203"/>
      </g>
     </g>
    </g>
    <g id="ytick_4">
     <g id="line2d_12">
      <g>
       <use xlink:href="#ma600d9e374" x="135" y="400.78735" style="stroke: #000000; stroke-width: 0.8"/>
      </g>
     </g>
     <g id="text_13">
      <!-- 0.75 -->
      <g transform="translate(79.015625 409.145632) scale(0.22 -0.22)">
       <use xlink:href="#DejaVuSans-30"/>
       <use xlink:href="#DejaVuSans-2e" x="63.623047"/>
       <use xlink:href="#DejaVuSans-37" x="95.410156"/>
       <use xlink:href="#DejaVuSans-35" x="159.033203"/>
      </g>
     </g>
    </g>
    <g id="ytick_5">
     <g id="line2d_13">
      <g>
       <use xlink:href="#ma600d9e374" x="135" y="329.080291" style="stroke: #000000; stroke-width: 0.8"/>
      </g>
     </g>
     <g id="text_14">
      <!-- 1.00 -->
      <g transform="translate(79.015625 337.438572) scale(0.22 -0.22)">
       <use xlink:href="#DejaVuSans-31"/>
       <use xlink:href="#DejaVuSans-2e" x="63.623047"/>
       <use xlink:href="#DejaVuSans-30" x="95.410156"/>
       <use xlink:href="#DejaVuSans-30" x="159.033203"/>
      </g>
     </g>
    </g>
    <g id="ytick_6">
     <g id="line2d_14">
      <g>
       <use xlink:href="#ma600d9e374" x="135" y="257.373231" style="stroke: #000000; stroke-width: 0.8"/>
      </g>
     </g>
     <g id="text_15">
      <!-- 1.25 -->
      <g transform="translate(79.015625 265.731513) scale(0.22 -0.22)">
       <use xlink:href="#DejaVuSans-31"/>
       <use xlink:href="#DejaVuSans-2e" x="63.623047"/>
       <use xlink:href="#DejaVuSans-32" x="95.410156"/>
       <use xlink:href="#DejaVuSans-35" x="159.033203"/>
      </g>
     </g>
    </g>
    <g id="ytick_7">
     <g id="line2d_15">
      <g>
       <use xlink:href="#ma600d9e374" x="135" y="185.666172" style="stroke: #000000; stroke-width: 0.8"/>
      </g>
     </g>
     <g id="text_16">
      <!-- 1.50 -->
      <g transform="translate(79.015625 194.024453) scale(0.22 -0.22)">
       <use xlink:href="#DejaVuSans-31"/>
       <use xlink:href="#DejaVuSans-2e" x="63.623047"/>
       <use xlink:href="#DejaVuSans-35" x="95.410156"/>
       <use xlink:href="#DejaVuSans-30" x="159.033203"/>
      </g>
     </g>
    </g>
    <g id="ytick_8">
     <g id="line2d_16">
      <g>
       <use xlink:href="#ma600d9e374" x="135" y="113.959112" style="stroke: #000000; stroke-width: 0.8"/>
      </g>
     </g>
     <g id="text_17">
      <!-- 1.75 -->
      <g transform="translate(79.015625 122.317393) scale(0.22 -0.22)">
       <use xlink:href="#DejaVuSans-31"/>
       <use xlink:href="#DejaVuSans-2e" x="63.623047"/>
       <use xlink:href="#DejaVuSans-37" x="95.410156"/>
       <use xlink:href="#DejaVuSans-35" x="159.033203"/>
      </g>
     </g>
    </g>
    <g id="text_18">
     <!-- X:A -->
     <g transform="translate(70.440313 382.365312) rotate(-90) scale(0.22 -0.22)">
      <defs>
       <path id="DejaVuSans-58" d="M 403 4666 
L 1081 4666 
L 2241 2931 
L 3406 4666 
L 4084 4666 
L 2584 2425 
L 4184 0 
L 3506 0 
L 2194 1984 
L 872 0 
L 191 0 
L 1856 2491 
L 403 4666 
z
" transform="scale(0.015625)"/>
       <path id="DejaVuSans-3a" d="M 750 794 
L 1409 794 
L 1409 0 
L 750 0 
L 750 794 
z
M 750 3309 
L 1409 3309 
L 1409 2516 
L 750 2516 
L 750 3309 
z
" transform="scale(0.015625)"/>
       <path id="DejaVuSans-41" d="M 2188 4044 
L 1331 1722 
L 3047 1722 
L 2188 4044 
z
M 1831 4666 
L 2547 4666 
L 4325 0 
L 3669 0 
L 3244 1197 
L 1141 1197 
L 716 0 
L 50 0 
L 1831 4666 
z
" transform="scale(0.015625)"/>
      </defs>
      <use xlink:href="#DejaVuSans-58"/>
      <use xlink:href="#DejaVuSans-3a" x="68.505859"/>
      <use xlink:href="#DejaVuSans-41" x="102.197266"/>
     </g>
    </g>
   </g>
   <g id="line2d_17">
    <path d="M 173.045455 615.6 
L 180.731405 614.282447 
L 188.417355 612.971804 
L 196.103306 611.666129 
L 203.789256 610.361268 
L 211.475207 609.05705 
L 219.161157 607.75355 
L 226.847107 606.449954 
L 234.533058 605.145949 
L 242.219008 603.841789 
L 249.904959 602.537411 
L 257.590909 601.232425 
L 265.27686 599.926388 
L 272.96281 598.61961 
L 280.64876 597.312347 
L 288.334711 596.004596 
L 296.020661 594.696094 
L 303.706612 593.386323 
L 311.392562 592.074841 
L 319.078512 590.762249 
L 326.764463 589.449043 
L 334.450413 588.13527 
L 342.136364 586.820522 
L 349.822314 585.503941 
L 357.508264 584.184664 
L 365.194215 582.863717 
L 372.880165 581.542145 
L 380.566116 580.220172 
L 388.252066 578.897197 
L 395.938017 577.571797 
L 403.623967 576.242547 
L 411.309917 574.911219 
L 418.995868 573.579137 
L 426.681818 572.246456 
L 434.367769 570.912201 
L 442.053719 569.574329 
L 449.739669 568.233032 
L 457.42562 566.890051 
L 465.11157 565.545729 
L 472.797521 564.199562 
L 480.483471 562.85022 
L 488.169421 561.497539 
L 495.855372 560.142566 
L 503.541322 558.785526 
L 511.227273 557.426135 
L 518.913223 556.063593 
L 526.599174 554.697408 
L 534.285124 553.32836 
L 541.971074 551.956835 
L 549.657025 550.582763 
L 557.342975 549.205617 
L 565.028926 547.824442 
L 572.714876 546.439113 
L 580.400826 545.050704 
L 588.086777 543.659738 
L 595.772727 542.266071 
L 603.458678 540.868891 
L 611.144628 539.466747 
L 618.830579 538.059508 
L 626.516529 536.648866 
L 634.202479 535.235581 
L 641.88843 533.819402 
L 649.57438 532.399066 
L 657.260331 530.972621 
L 664.946281 529.541211 
L 672.632231 528.10626 
L 680.318182 526.667978 
L 688.004132 525.225626 
L 695.690083 523.777594 
L 703.376033 522.324096 
L 711.061983 520.866252 
L 718.747934 519.404226 
L 726.433884 517.937591 
L 734.119835 516.465341 
L 741.805785 514.987329 
L 749.491736 513.504326 
L 757.177686 512.016555 
L 764.863636 510.523786 
L 772.549587 509.025337 
L 780.235537 507.520367 
L 787.921488 506.009454 
L 795.607438 504.493282 
L 803.293388 502.971978 
L 810.979339 501.445115 
L 818.665289 499.911711 
L 826.35124 498.3707 
L 834.03719 496.823105 
L 841.72314 495.269966 
L 849.409091 493.711462 
L 857.095041 492.146918 
L 864.780992 490.574809 
L 872.466942 488.994045 
L 880.152893 487.406434 
L 887.838843 485.812816 
L 895.524793 484.213047 
L 903.210744 482.606016 
L 910.896694 480.990133 
L 918.582645 479.366635 
L 926.268595 477.735799 
L 933.954545 476.097297 
" clip-path="url(#p294e5309c2)" style="fill: none; stroke: #d0e1f2; stroke-width: 1.5; stroke-linecap: square"/>
   </g>
   <g id="line2d_18">
    <path d="M 173.045455 156.22457 
L 180.731405 150.050315 
L 188.417355 146.629989 
L 196.103306 145.219844 
L 203.789256 144.208513 
L 211.475207 143.550435 
L 219.161157 143.297467 
L 226.847107 143.152551 
L 234.533058 143.015641 
L 242.219008 143.010851 
L 249.904959 143.137078 
L 257.590909 143.264116 
L 265.27686 143.241386 
L 272.96281 143.215082 
L 280.64876 143.310554 
L 288.334711 143.550722 
L 296.020661 143.856457 
L 303.706612 144.046583 
L 311.392562 143.971806 
L 319.078512 143.893429 
L 326.764463 144.032871 
L 334.450413 144.43286 
L 342.136364 144.95746 
L 349.822314 145.292072 
L 357.508264 145.120665 
L 365.194215 144.873486 
L 372.880165 144.989867 
L 380.566116 145.583418 
L 388.252066 146.442251 
L 395.938017 147.028974 
L 403.623967 146.805297 
L 411.309917 146.497907 
L 418.995868 146.657538 
L 426.681818 147.37073 
L 434.367769 148.279188 
L 442.053719 148.5996 
L 449.739669 148.435114 
L 457.42562 148.501146 
L 465.11157 148.960586 
L 472.797521 149.641397 
L 480.483471 150.044098 
L 488.169421 150.130655 
L 495.855372 150.343637 
L 503.541322 150.800267 
L 511.227273 151.415169 
L 518.913223 151.900374 
L 526.599174 152.089169 
L 534.285124 152.318954 
L 541.971074 152.77143 
L 549.657025 153.447866 
L 557.342975 154.169098 
L 565.028926 154.585421 
L 572.714876 154.677214 
L 580.400826 154.900041 
L 588.086777 155.491473 
L 595.772727 156.424823 
L 603.458678 157.409157 
L 611.144628 157.89914 
L 618.830579 157.874079 
L 626.516529 158.037022 
L 634.202479 158.721308 
L 641.88843 159.859239 
L 649.57438 160.982086 
L 657.260331 161.346807 
L 664.946281 161.440453 
L 672.632231 161.862835 
L 680.318182 162.730025 
L 688.004132 163.782466 
L 695.690083 164.414922 
L 703.376033 164.746749 
L 711.061983 165.257468 
L 718.747934 166.048823 
L 726.433884 166.98543 
L 734.119835 167.703686 
L 741.805785 168.181237 
L 749.491736 168.762175 
L 757.177686 169.571687 
L 764.863636 170.555835 
L 772.549587 171.48156 
L 780.235537 172.051941 
L 787.921488 172.535461 
L 795.607438 173.245092 
L 803.293388 174.270546 
L 810.979339 175.481471 
L 818.665289 176.527452 
L 826.35124 177.023733 
L 834.03719 177.420108 
L 841.72314 178.174468 
L 849.409091 179.400608 
L 857.095041 180.872292 
L 864.780992 182.023245 
L 872.466942 182.461371 
L 880.152893 182.954858 
L 887.838843 183.885761 
L 895.524793 185.242302 
L 903.210744 186.626129 
L 910.896694 187.445914 
L 918.582645 188.245446 
L 926.268595 189.185051 
L 933.954545 190.181538 
" clip-path="url(#p294e5309c2)" style="fill: none; stroke: #fdd9b4; stroke-width: 1.5; stroke-linecap: square"/>
   </g>
   <g id="line2d_19">
    <path d="M 173.045455 615.6 
L 180.731405 614.54194 
L 188.417355 613.701426 
L 196.103306 612.994335 
L 203.789256 612.37944 
L 211.475207 611.832004 
L 219.161157 611.334937 
L 226.847107 610.877039 
L 234.533058 610.449734 
L 242.219008 610.045691 
L 249.904959 609.660895 
L 257.590909 609.291379 
L 265.27686 608.93187 
L 272.96281 608.580293 
L 280.64876 608.234919 
L 288.334711 607.891703 
L 296.020661 607.549773 
L 303.706612 607.206536 
L 311.392562 606.859584 
L 319.078512 606.50796 
L 326.764463 606.148573 
L 334.450413 605.778905 
L 342.136364 605.398714 
L 349.822314 605.004043 
L 357.508264 604.591059 
L 365.194215 604.159196 
L 372.880165 603.703383 
L 380.566116 603.220524 
L 388.252066 602.706508 
L 395.938017 602.155599 
L 403.623967 601.563154 
L 411.309917 600.921988 
L 418.995868 600.22365 
L 426.681818 599.460993 
L 434.367769 598.6227 
L 442.053719 597.694675 
L 449.739669 596.664763 
L 457.42562 595.514796 
L 465.11157 594.224915 
L 472.797521 592.772987 
L 480.483471 591.131801 
L 488.169421 589.273019 
L 495.855372 587.164888 
L 503.541322 584.773038 
L 511.227273 582.066498 
L 518.913223 579.017614 
L 526.599174 575.604423 
L 534.285124 571.823385 
L 541.971074 567.687883 
L 549.657025 563.23418 
L 557.342975 558.524939 
L 565.028926 553.641696 
L 572.714876 548.683989 
L 580.400826 543.754921 
L 588.086777 538.952172 
L 595.772727 534.36431 
L 603.458678 530.058841 
L 611.144628 526.080288 
L 618.830579 522.458631 
L 626.516529 519.202142 
L 634.202479 516.303436 
L 641.88843 513.749565 
L 649.57438 511.515487 
L 657.260331 509.574802 
L 664.946281 507.899115 
L 672.632231 506.457839 
L 680.318182 505.224616 
L 688.004132 504.172502 
L 695.690083 503.276437 
L 703.376033 502.517122 
L 711.061983 501.874056 
L 718.747934 501.329125 
L 726.433884 500.870159 
L 734.119835 500.482573 
L 741.805785 500.155851 
L 749.491736 499.881553 
L 757.177686 499.649924 
L 764.863636 499.455668 
L 772.549587 499.292902 
L 780.235537 499.155011 
L 787.921488 499.04011 
L 795.607438 498.944238 
L 803.293388 498.862103 
L 810.979339 498.794414 
L 818.665289 498.738091 
L 826.35124 498.68926 
L 834.03719 498.649644 
L 841.72314 498.615941 
L 849.409091 498.587359 
L 857.095041 498.564172 
L 864.780992 498.543871 
L 872.466942 498.527332 
L 880.152893 498.513694 
L 887.838843 498.501391 
L 895.524793 498.491953 
L 903.210744 498.484157 
L 910.896694 498.476321 
L 918.582645 498.471116 
L 926.268595 498.466918 
L 933.954545 498.46239 
" clip-path="url(#p294e5309c2)" style="fill: none; stroke: #b7d4ea; stroke-width: 1.5; stroke-linecap: square"/>
   </g>
   <g id="line2d_20">
    <path d="M 173.045455 156.22457 
L 180.731405 139.765835 
L 188.417355 135.328713 
L 196.103306 133.797956 
L 203.789256 133.282836 
L 211.475207 133.331673 
L 219.161157 133.250693 
L 226.847107 133.314601 
L 234.533058 133.542961 
L 242.219008 133.142194 
L 249.904959 133.230766 
L 257.590909 134.079993 
L 265.27686 133.907927 
L 272.96281 133.625623 
L 280.64876 134.168816 
L 288.334711 133.836724 
L 296.020661 133.993313 
L 303.706612 134.125077 
L 311.392562 133.844761 
L 319.078512 134.278309 
L 326.764463 134.362916 
L 334.450413 133.70883 
L 342.136364 134.493683 
L 349.822314 135.140432 
L 357.508264 134.425521 
L 365.194215 134.939188 
L 372.880165 134.832197 
L 380.566116 134.831722 
L 388.252066 135.149036 
L 395.938017 134.912251 
L 403.623967 135.259761 
L 411.309917 135.577628 
L 418.995868 135.03354 
L 426.681818 135.65461 
L 434.367769 136.640454 
L 442.053719 136.068903 
L 449.739669 136.577806 
L 457.42562 136.897263 
L 465.11157 136.974867 
L 472.797521 137.666828 
L 480.483471 137.759293 
L 488.169421 138.340174 
L 495.855372 139.338268 
L 503.541322 139.344758 
L 511.227273 140.320124 
L 518.913223 142.274724 
L 526.599174 142.701821 
L 534.285124 144.063661 
L 541.971074 145.758259 
L 549.657025 147.077654 
L 557.342975 149.250148 
L 565.028926 150.931303 
L 572.714876 153.049572 
L 580.400826 155.735827 
L 588.086777 157.277699 
L 595.772727 159.645377 
L 603.458678 162.631579 
L 611.144628 163.704363 
L 618.830579 165.881134 
L 626.516529 168.229731 
L 634.202479 169.062114 
L 641.88843 170.9254 
L 649.57438 171.972111 
L 657.260331 172.93762 
L 664.946281 174.193854 
L 672.632231 174.620761 
L 680.318182 175.52835 
L 688.004132 176.315921 
L 695.690083 176.267421 
L 703.376033 177.144164 
L 711.061983 177.897689 
L 718.747934 177.599508 
L 726.433884 178.273686 
L 734.119835 178.405653 
L 741.805785 178.36905 
L 749.491736 178.924132 
L 757.177686 178.661453 
L 764.863636 178.82437 
L 772.549587 179.331919 
L 780.235537 178.784558 
L 787.921488 179.051142 
L 795.607438 179.747118 
L 803.293388 178.924418 
L 810.979339 179.259993 
L 818.665289 179.925642 
L 826.35124 179.144904 
L 834.03719 179.612887 
L 841.72314 179.599076 
L 849.409091 179.315922 
L 857.095041 179.730843 
L 864.780992 179.353799 
L 872.466942 179.441251 
L 880.152893 179.705138 
L 887.838843 179.192189 
L 895.524793 179.499953 
L 903.210744 179.854605 
L 910.896694 179.05195 
L 918.582645 179.531207 
L 926.268595 180.073041 
L 933.954545 179.674103 
" clip-path="url(#p294e5309c2)" style="fill: none; stroke: #fdc38d; stroke-width: 1.5; stroke-linecap: square"/>
   </g>
   <g id="line2d_21">
    <path d="M 173.045455 615.6 
L 180.731405 614.295699 
L 188.417355 613.016841 
L 196.103306 611.743226 
L 203.789256 610.472136 
L 211.475207 609.2012 
L 219.161157 607.930697 
L 226.847107 606.658361 
L 234.533058 605.386413 
L 242.219008 604.114579 
L 249.904959 602.839443 
L 257.590909 601.564187 
L 265.27686 600.290498 
L 272.96281 599.012315 
L 280.64876 597.731916 
L 288.334711 596.455704 
L 296.020661 595.175443 
L 303.706612 593.890328 
L 311.392562 592.60813 
L 319.078512 591.321482 
L 326.764463 590.033321 
L 334.450413 588.745024 
L 342.136364 587.4522 
L 349.822314 586.159017 
L 357.508264 584.864941 
L 365.194215 583.56484 
L 372.880165 582.264639 
L 380.566116 580.965706 
L 388.252066 579.659246 
L 395.938017 578.350585 
L 403.623967 577.042558 
L 411.309917 575.727951 
L 418.995868 574.412335 
L 426.681818 573.094471 
L 434.367769 571.771138 
L 442.053719 570.447154 
L 449.739669 569.120249 
L 457.42562 567.786181 
L 465.11157 566.452361 
L 472.797521 565.117468 
L 480.483471 563.772986 
L 488.169421 562.427502 
L 495.855372 561.079853 
L 503.541322 559.724847 
L 511.227273 558.368553 
L 518.913223 557.007475 
L 526.599174 555.640753 
L 534.285124 554.272586 
L 541.971074 552.898706 
L 549.657025 551.517768 
L 557.342975 550.136827 
L 565.028926 548.751234 
L 572.714876 547.355751 
L 580.400826 545.959533 
L 588.086777 544.55759 
L 595.772727 543.14855 
L 603.458678 541.737161 
L 611.144628 540.318299 
L 618.830579 538.893897 
L 626.516529 537.466697 
L 634.202479 536.03082 
L 641.88843 534.588527 
L 649.57438 533.145108 
L 657.260331 531.692891 
L 664.946281 530.231883 
L 672.632231 528.769038 
L 680.318182 527.296885 
L 688.004132 525.818166 
L 695.690083 524.335234 
L 703.376033 522.842342 
L 711.061983 521.343984 
L 718.747934 519.840697 
L 726.433884 518.325983 
L 734.119835 516.805622 
L 741.805785 515.281939 
L 749.491736 513.745055 
L 757.177686 512.200348 
L 764.863636 510.654333 
L 772.549587 509.094428 
L 780.235537 507.525758 
L 787.921488 505.953856 
L 795.607438 504.368264 
L 803.293388 502.775854 
L 810.979339 501.176084 
L 818.665289 499.564249 
L 826.35124 497.945914 
L 834.03719 496.31816 
L 841.72314 494.677917 
L 849.409091 493.031685 
L 857.095041 491.37629 
L 864.780992 489.704975 
L 872.466942 488.028313 
L 880.152893 486.344742 
L 887.838843 484.641964 
L 895.524793 482.932743 
L 903.210744 481.216192 
L 910.896694 479.481372 
L 918.582645 477.739382 
L 926.268595 475.985702 
L 933.954545 474.218733 
" clip-path="url(#p294e5309c2)" style="fill: none; stroke: #94c4df; stroke-width: 1.5; stroke-linecap: square"/>
   </g>
   <g id="line2d_22">
    <path d="M 173.045455 156.22457 
L 180.731405 147.621342 
L 188.417355 145.16171 
L 196.103306 144.18455 
L 203.789256 143.925705 
L 211.475207 143.822857 
L 219.161157 143.965282 
L 226.847107 143.808048 
L 234.533058 143.933259 
L 242.219008 144.296723 
L 249.904959 144.05787 
L 257.590909 144.040844 
L 265.27686 144.698989 
L 272.96281 144.523221 
L 280.64876 144.099347 
L 288.334711 145.08498 
L 296.020661 145.426888 
L 303.706612 144.924862 
L 311.392562 145.554973 
L 319.078512 145.51347 
L 326.764463 145.544948 
L 334.450413 146.015449 
L 342.136364 145.854164 
L 349.822314 146.118599 
L 357.508264 146.700913 
L 365.194215 146.337879 
L 372.880165 146.529876 
L 380.566116 147.651486 
L 388.252066 147.527611 
L 395.938017 147.492898 
L 403.623967 148.279937 
L 411.309917 148.138873 
L 418.995868 148.454721 
L 426.681818 148.948936 
L 434.367769 148.851391 
L 442.053719 149.366892 
L 449.739669 149.963883 
L 457.42562 149.616808 
L 465.11157 150.170531 
L 472.797521 151.333605 
L 480.483471 151.036906 
L 488.169421 151.390288 
L 495.855372 152.146393 
L 503.541322 152.074296 
L 511.227273 152.655721 
L 518.913223 153.077184 
L 526.599174 153.152573 
L 534.285124 153.915677 
L 541.971074 154.368532 
L 549.657025 154.205306 
L 557.342975 155.14804 
L 565.028926 156.115454 
L 572.714876 155.872269 
L 580.400826 156.616478 
L 588.086777 157.206549 
L 595.772727 157.340289 
L 603.458678 158.156371 
L 611.144628 158.484732 
L 618.830579 158.799183 
L 626.516529 159.768659 
L 634.202479 160.050962 
L 641.88843 160.192425 
L 649.57438 161.45741 
L 657.260331 162.098999 
L 664.946281 162.135026 
L 672.632231 163.193649 
L 680.318182 163.607182 
L 688.004132 164.020564 
L 695.690083 164.997486 
L 703.376033 165.270551 
L 711.061983 165.878718 
L 718.747934 166.975663 
L 726.433884 167.132232 
L 734.119835 167.669029 
L 741.805785 169.145002 
L 749.491736 169.388899 
L 757.177686 169.612372 
L 764.863636 171.304914 
L 772.549587 171.733555 
L 780.235537 172.034464 
L 787.921488 173.455297 
L 795.607438 173.776075 
L 803.293388 174.499494 
L 810.979339 175.548125 
L 818.665289 175.952301 
L 826.35124 176.927913 
L 834.03719 177.894558 
L 841.72314 178.236791 
L 849.409091 179.360232 
L 857.095041 180.63968 
L 864.780992 180.691502 
L 872.466942 181.757754 
L 880.152893 183.565728 
L 887.838843 183.603704 
L 895.524793 184.522837 
L 903.210744 186.200484 
L 910.896694 186.458563 
L 918.582645 187.563599 
L 926.268595 188.662468 
L 933.954545 189.477554 
" clip-path="url(#p294e5309c2)" style="fill: none; stroke: #fda762; stroke-width: 1.5; stroke-linecap: square"/>
   </g>
   <g id="line2d_23">
    <path d="M 173.045455 615.6 
L 180.731405 562.583247 
L 188.417355 550.851183 
L 196.103306 548.256106 
L 203.789256 547.687241 
L 211.475207 547.572731 
L 219.161157 547.53021 
L 226.847107 547.528361 
L 234.533058 547.513051 
L 242.219008 547.55037 
L 249.904959 547.479943 
L 257.590909 547.555139 
L 265.27686 547.531269 
L 272.96281 547.520951 
L 280.64876 547.552373 
L 288.334711 547.504987 
L 296.020661 547.569308 
L 303.706612 547.484235 
L 311.392562 547.590418 
L 319.078512 547.476473 
L 326.764463 547.575799 
L 334.450413 547.509357 
L 342.136364 547.539839 
L 349.822314 547.544766 
L 357.508264 547.520359 
L 365.194215 547.55419 
L 372.880165 547.509292 
L 380.566116 547.562342 
L 388.252066 547.492099 
L 395.938017 547.583565 
L 403.623967 547.475081 
L 411.309917 547.582151 
L 418.995868 547.495156 
L 426.681818 547.545784 
L 434.367769 547.54188 
L 442.053719 547.519308 
L 449.739669 547.55911 
L 457.42562 547.510933 
L 465.11157 547.560383 
L 472.797521 547.499138 
L 480.483471 547.574612 
L 488.169421 547.479779 
L 495.855372 547.584113 
L 503.541322 547.482023 
L 511.227273 547.55496 
L 518.913223 547.531904 
L 526.599174 547.518289 
L 534.285124 547.56511 
L 541.971074 547.509572 
L 549.657025 547.563878 
L 557.342975 547.5038 
L 565.028926 547.567321 
L 572.714876 547.487749 
L 580.400826 547.580888 
L 588.086777 547.47549 
L 595.772727 547.565154 
L 603.458678 547.514313 
L 611.144628 547.520377 
L 618.830579 547.567991 
L 626.516529 547.504997 
L 634.202479 547.572657 
L 641.88843 547.505356 
L 649.57438 547.565437 
L 657.260331 547.495528 
L 664.946281 547.574488 
L 672.632231 547.477566 
L 680.318182 547.572111 
L 688.004132 547.494149 
L 695.690083 547.528606 
L 703.376033 547.561771 
L 711.061983 547.498259 
L 718.747934 547.585231 
L 726.433884 547.503099 
L 734.119835 547.570402 
L 741.805785 547.500968 
L 749.491736 547.568611 
L 757.177686 547.485258 
L 764.863636 547.573134 
L 772.549587 547.480216 
L 780.235537 547.542079 
L 787.921488 547.542675 
L 795.607438 547.49358 
L 803.293388 547.596685 
L 810.979339 547.49586 
L 818.665289 547.583063 
L 826.35124 547.503255 
L 834.03719 547.567119 
L 841.72314 547.493843 
L 849.409091 547.569476 
L 857.095041 547.477867 
L 864.780992 547.554872 
L 872.466942 547.514869 
L 880.152893 547.497635 
L 887.838843 547.597893 
L 895.524793 547.483142 
L 903.210744 547.603008 
L 910.896694 547.501668 
L 918.582645 547.57311 
L 926.268595 547.512508 
L 933.954545 547.550052 
" clip-path="url(#p294e5309c2)" style="fill: none; stroke: #6aaed6; stroke-width: 1.5; stroke-linecap: square"/>
   </g>
   <g id="line2d_24">
    <path d="M 173.045455 156.22457 
L 180.731405 156.346325 
L 188.417355 156.469095 
L 196.103306 156.592885 
L 203.789256 156.7177 
L 211.475207 156.843547 
L 219.161157 156.970431 
L 226.847107 157.098357 
L 234.533058 157.22733 
L 242.219008 157.357358 
L 249.904959 157.488444 
L 257.590909 157.620595 
L 265.27686 157.753817 
L 272.96281 157.888114 
L 280.64876 158.023493 
L 288.334711 158.159958 
L 296.020661 158.297516 
L 303.706612 158.436171 
L 311.392562 158.575929 
L 319.078512 158.716795 
L 326.764463 158.858775 
L 334.450413 159.001874 
L 342.136364 159.146097 
L 349.822314 159.291449 
L 357.508264 159.437936 
L 365.194215 159.585562 
L 372.880165 159.734332 
L 380.566116 159.884252 
L 388.252066 160.035327 
L 395.938017 160.187561 
L 403.623967 160.34096 
L 411.309917 160.495527 
L 418.995868 160.651269 
L 426.681818 160.808189 
L 434.367769 160.966293 
L 442.053719 161.125585 
L 449.739669 161.286069 
L 457.42562 161.44775 
L 465.11157 161.610633 
L 472.797521 161.774721 
L 480.483471 161.94002 
L 488.169421 162.106533 
L 495.855372 162.274265 
L 503.541322 162.443219 
L 511.227273 162.6134 
L 518.913223 162.784812 
L 526.599174 162.957459 
L 534.285124 163.131344 
L 541.971074 163.306472 
L 549.657025 163.482846 
L 557.342975 163.660469 
L 565.028926 163.839346 
L 572.714876 164.019479 
L 580.400826 164.200873 
L 588.086777 164.38353 
L 595.772727 164.567453 
L 603.458678 164.752647 
L 611.144628 164.939113 
L 618.830579 165.126855 
L 626.516529 165.315876 
L 634.202479 165.506178 
L 641.88843 165.697764 
L 649.57438 165.890637 
L 657.260331 166.0848 
L 664.946281 166.280254 
L 672.632231 166.477002 
L 680.318182 166.675047 
L 688.004132 166.87439 
L 695.690083 167.075034 
L 703.376033 167.27698 
L 711.061983 167.48023 
L 718.747934 167.684786 
L 726.433884 167.890649 
L 734.119835 168.097822 
L 741.805785 168.306305 
L 749.491736 168.5161 
L 757.177686 168.727208 
L 764.863636 168.93963 
L 772.549587 169.153367 
L 780.235537 169.368419 
L 787.921488 169.584788 
L 795.607438 169.802475 
L 803.293388 170.021479 
L 810.979339 170.241801 
L 818.665289 170.463441 
L 826.35124 170.686399 
L 834.03719 170.910677 
L 841.72314 171.136272 
L 849.409091 171.363186 
L 857.095041 171.591417 
L 864.780992 171.820965 
L 872.466942 172.051831 
L 880.152893 172.284012 
L 887.838843 172.517508 
L 895.524793 172.752318 
L 903.210744 172.988441 
L 910.896694 173.225876 
L 918.582645 173.464622 
L 926.268595 173.704676 
L 933.954545 173.946037 
" clip-path="url(#p294e5309c2)" style="fill: none; stroke: #fd8c3b; stroke-width: 1.5; stroke-linecap: square"/>
   </g>
   <g id="line2d_25">
    <path d="M 173.045455 615.6 
L 180.731405 614.224057 
L 188.417355 612.848334 
L 196.103306 611.472831 
L 203.789256 610.097549 
L 211.475207 608.722488 
L 219.161157 607.347646 
L 226.847107 605.973025 
L 234.533058 604.598624 
L 242.219008 603.224444 
L 249.904959 601.850483 
L 257.590909 600.476743 
L 265.27686 599.103223 
L 272.96281 597.729923 
L 280.64876 596.356843 
L 288.334711 594.983983 
L 296.020661 593.611343 
L 303.706612 592.238923 
L 311.392562 590.866723 
L 319.078512 589.494743 
L 326.764463 588.122982 
L 334.450413 586.751442 
L 342.136364 585.380121 
L 349.822314 584.00902 
L 357.508264 582.638138 
L 365.194215 581.267476 
L 372.880165 579.897034 
L 380.566116 578.526812 
L 388.252066 577.156809 
L 395.938017 575.787025 
L 403.623967 574.417461 
L 411.309917 573.048117 
L 418.995868 571.678992 
L 426.681818 570.310086 
L 434.367769 568.9414 
L 442.053719 567.572932 
L 449.739669 566.204685 
L 457.42562 564.836656 
L 465.11157 563.468847 
L 472.797521 562.101256 
L 480.483471 560.733885 
L 488.169421 559.366733 
L 495.855372 557.999801 
L 503.541322 556.633087 
L 511.227273 555.266592 
L 518.913223 553.900316 
L 526.599174 552.534259 
L 534.285124 551.168421 
L 541.971074 549.802802 
L 549.657025 548.437401 
L 557.342975 547.072219 
L 565.028926 545.707257 
L 572.714876 544.342512 
L 580.400826 542.977987 
L 588.086777 541.61368 
L 595.772727 540.249592 
L 603.458678 538.885722 
L 611.144628 537.522071 
L 618.830579 536.158638 
L 626.516529 534.795424 
L 634.202479 533.432428 
L 641.88843 532.069651 
L 649.57438 530.707092 
L 657.260331 529.344751 
L 664.946281 527.982629 
L 672.632231 526.620725 
L 680.318182 525.259039 
L 688.004132 523.897571 
L 695.690083 522.536321 
L 703.376033 521.17529 
L 711.061983 519.814477 
L 718.747934 518.453881 
L 726.433884 517.093504 
L 734.119835 515.733345 
L 741.805785 514.373403 
L 749.491736 513.01368 
L 757.177686 511.654174 
L 764.863636 510.294886 
L 772.549587 508.935817 
L 780.235537 507.576964 
L 787.921488 506.21833 
L 795.607438 504.859913 
L 803.293388 503.501714 
L 810.979339 502.143733 
L 818.665289 500.785969 
L 826.35124 499.428422 
L 834.03719 498.071094 
L 841.72314 496.713982 
L 849.409091 495.357088 
L 857.095041 494.000412 
L 864.780992 492.643953 
L 872.466942 491.287711 
L 880.152893 489.931687 
L 887.838843 488.57588 
L 895.524793 487.22029 
L 903.210744 485.864917 
L 910.896694 484.509762 
L 918.582645 483.154823 
L 926.268595 481.800102 
L 933.954545 480.445598 
" clip-path="url(#p294e5309c2)" style="fill: none; stroke: #4a98c9; stroke-width: 1.5; stroke-linecap: square"/>
   </g>
   <g id="line2d_26">
    <path d="M 173.045455 156.22457 
L 180.731405 152.337686 
L 188.417355 149.755749 
L 196.103306 148.118243 
L 203.789256 147.015401 
L 211.475207 146.194692 
L 219.161157 145.672936 
L 226.847107 145.411659 
L 234.533058 145.288909 
L 242.219008 145.128729 
L 249.904959 144.968604 
L 257.590909 144.86726 
L 265.27686 144.837667 
L 272.96281 144.862681 
L 280.64876 144.895046 
L 288.334711 144.864917 
L 296.020661 144.789072 
L 303.706612 144.719797 
L 311.392562 144.687143 
L 319.078512 144.703862 
L 326.764463 144.765411 
L 334.450413 144.849945 
L 342.136364 144.918323 
L 349.822314 144.913845 
L 357.508264 144.741581 
L 365.194215 144.475244 
L 372.880165 144.244173 
L 380.566116 144.135875 
L 388.252066 144.196019 
L 395.938017 144.428442 
L 403.623967 144.795148 
L 411.309917 145.216306 
L 418.995868 145.570248 
L 426.681818 145.693477 
L 434.367769 145.44656 
L 442.053719 145.128479 
L 449.739669 144.926586 
L 457.42562 144.911171 
L 465.11157 145.075301 
L 472.797521 145.334817 
L 480.483471 145.528337 
L 488.169421 145.512317 
L 495.855372 145.486546 
L 503.541322 145.55781 
L 511.227273 145.771096 
L 518.913223 146.122798 
L 526.599174 146.560717 
L 534.285124 146.984059 
L 541.971074 147.248678 
L 549.657025 147.461026 
L 557.342975 147.855159 
L 565.028926 148.563201 
L 572.714876 149.613354 
L 580.400826 150.929895 
L 588.086777 152.333175 
L 595.772727 153.539623 
L 603.458678 154.371915 
L 611.144628 155.199463 
L 618.830579 156.278831 
L 626.516529 157.720343 
L 634.202479 159.490975 
L 641.88843 161.414358 
L 649.57438 163.170776 
L 657.260331 164.427842 
L 664.946281 165.587023 
L 672.632231 166.78306 
L 680.318182 168.029219 
L 688.004132 169.300516 
L 695.690083 170.533714 
L 703.376033 171.627326 
L 711.061983 172.62619 
L 718.747934 173.636375 
L 726.433884 174.534476 
L 734.119835 175.251522 
L 741.805785 175.775333 
L 749.491736 176.150523 
L 757.177686 176.478497 
L 764.863636 176.917451 
L 772.549587 177.548169 
L 780.235537 178.164865 
L 787.921488 178.636777 
L 795.607438 178.909054 
L 803.293388 179.001987 
L 810.979339 179.011002 
L 818.665289 179.106666 
L 826.35124 179.438204 
L 834.03719 179.801671 
L 841.72314 180.080009 
L 849.409091 180.222848 
L 857.095041 180.234132 
L 864.780992 180.172114 
L 872.466942 180.149361 
L 880.152893 180.303176 
L 887.838843 180.525174 
L 895.524793 180.70715 
L 903.210744 180.800969 
L 910.896694 180.796591 
L 918.582645 180.722063 
L 926.268595 180.643526 
L 933.954545 180.66521 
" clip-path="url(#p294e5309c2)" style="fill: none; stroke: #f3701b; stroke-width: 1.5; stroke-linecap: square"/>
   </g>
   <g id="line2d_27">
    <path d="M 173.045455 615.6 
L 180.731405 614.233185 
L 188.417355 612.878163 
L 196.103306 611.529769 
L 203.789256 610.18173 
L 211.475207 608.835534 
L 219.161157 607.490032 
L 226.847107 606.144386 
L 234.533058 604.799153 
L 242.219008 603.454263 
L 249.904959 602.108965 
L 257.590909 600.763036 
L 265.27686 599.417237 
L 272.96281 598.071849 
L 280.64876 596.726593 
L 288.334711 595.380623 
L 296.020661 594.033327 
L 303.706612 592.685985 
L 311.392562 591.339412 
L 319.078512 589.993391 
L 326.764463 588.646679 
L 334.450413 587.297567 
L 342.136364 585.947679 
L 349.822314 584.599043 
L 357.508264 583.251839 
L 365.194215 581.904397 
L 372.880165 580.553564 
L 380.566116 579.20082 
L 388.252066 577.849401 
L 395.938017 576.499794 
L 403.623967 575.149878 
L 411.309917 573.796102 
L 418.995868 572.441308 
L 426.681818 571.087532 
L 434.367769 569.734375 
L 442.053719 568.379423 
L 449.739669 567.022415 
L 457.42562 565.665393 
L 465.11157 564.308651 
L 472.797521 562.951215 
L 480.483471 561.591549 
L 488.169421 560.230895 
L 495.855372 558.87032 
L 503.541322 557.509747 
L 511.227273 556.147994 
L 518.913223 554.78345 
L 526.599174 553.41767 
L 534.285124 552.052327 
L 541.971074 550.687494 
L 549.657025 549.321642 
L 557.342975 547.952015 
L 565.028926 546.579991 
L 572.714876 545.208625 
L 580.400826 543.838461 
L 588.086777 542.467535 
L 595.772727 541.092011 
L 603.458678 539.71405 
L 611.144628 538.336609 
L 618.830579 536.959702 
L 626.516529 535.580844 
L 634.202479 534.19809 
L 641.88843 532.814446 
L 649.57438 531.430672 
L 657.260331 530.045895 
L 664.946281 528.65807 
L 672.632231 527.268165 
L 680.318182 525.877547 
L 688.004132 524.486242 
L 695.690083 523.093072 
L 703.376033 521.696429 
L 711.061983 520.297846 
L 718.747934 518.898783 
L 726.433884 517.499214 
L 734.119835 516.097642 
L 741.805785 514.691599 
L 749.491736 513.282685 
L 757.177686 511.873634 
L 764.863636 510.464837 
L 772.549587 509.05433 
L 780.235537 507.638297 
L 787.921488 506.218604 
L 795.607438 504.798738 
L 803.293388 503.379018 
L 810.979339 501.956891 
L 818.665289 500.529014 
L 826.35124 499.098865 
L 834.03719 497.668039 
L 841.72314 496.235806 
L 849.409091 494.799508 
L 857.095041 493.359529 
L 864.780992 491.917859 
L 872.466942 490.474702 
L 880.152893 489.028813 
L 887.838843 487.578343 
L 895.524793 486.12486 
L 903.210744 484.669782 
L 910.896694 483.213027 
L 918.582645 481.753036 
L 926.268595 480.288187 
L 933.954545 478.820483 
" clip-path="url(#p294e5309c2)" style="fill: none; stroke: #2e7ebc; stroke-width: 1.5; stroke-linecap: square"/>
   </g>
   <g id="line2d_28">
    <path d="M 173.045455 156.22457 
L 180.731405 149.845775 
L 188.417355 146.728481 
L 196.103306 145.472873 
L 203.789256 144.520159 
L 211.475207 144.125967 
L 219.161157 143.962281 
L 226.847107 143.789393 
L 234.533058 143.771692 
L 242.219008 143.894317 
L 249.904959 143.939887 
L 257.590909 143.846184 
L 265.27686 143.846542 
L 272.96281 144.03224 
L 280.64876 144.325382 
L 288.334711 144.478902 
L 296.020661 144.313572 
L 303.706612 144.219429 
L 311.392562 144.448463 
L 319.078512 144.943875 
L 326.764463 145.340082 
L 334.450413 145.128829 
L 342.136364 144.797389 
L 349.822314 144.965392 
L 357.508264 145.698845 
L 365.194215 146.506992 
L 372.880165 146.453214 
L 380.566116 145.974644 
L 388.252066 146.041177 
L 395.938017 146.810885 
L 403.623967 147.671315 
L 411.309917 147.584446 
L 418.995868 147.382769 
L 426.681818 147.666444 
L 434.367769 148.33077 
L 442.053719 148.688717 
L 449.739669 148.669616 
L 457.42562 148.867133 
L 465.11157 149.373808 
L 472.797521 149.919279 
L 480.483471 150.070768 
L 488.169421 150.189688 
L 495.855372 150.589217 
L 503.541322 151.256409 
L 511.227273 151.863192 
L 518.913223 151.957721 
L 526.599174 151.986955 
L 534.285124 152.435994 
L 541.971074 153.335931 
L 549.657025 154.264675 
L 557.342975 154.452501 
L 565.028926 154.288199 
L 572.714876 154.636373 
L 580.400826 155.662643 
L 588.086777 156.834975 
L 595.772727 157.099055 
L 603.458678 157.054141 
L 611.144628 157.513665 
L 618.830579 158.493455 
L 626.516529 159.337055 
L 634.202479 159.530855 
L 641.88843 159.883268 
L 649.57438 160.604671 
L 657.260331 161.474633 
L 664.946281 161.963892 
L 672.632231 162.335652 
L 680.318182 162.955054 
L 688.004132 163.838668 
L 695.690083 164.690385 
L 703.376033 165.103624 
L 711.061983 165.48277 
L 718.747934 166.211172 
L 726.433884 167.293429 
L 734.119835 168.358604 
L 741.805785 168.789215 
L 749.491736 168.997959 
L 757.177686 169.680592 
L 764.863636 170.948493 
L 772.549587 172.326183 
L 780.235537 172.877142 
L 787.921488 173.070002 
L 795.607438 173.760789 
L 803.293388 175.040134 
L 810.979339 176.31033 
L 818.665289 176.784328 
L 826.35124 177.295914 
L 834.03719 178.22547 
L 841.72314 179.416143 
L 849.409091 180.265517 
L 857.095041 180.873905 
L 864.780992 181.703819 
L 872.466942 182.812055 
L 880.152893 183.929467 
L 887.838843 184.653918 
L 895.524793 185.346801 
L 903.210744 186.330886 
L 910.896694 187.599658 
L 918.582645 188.824713 
L 926.268595 189.663386 
L 933.954545 190.564075 
" clip-path="url(#p294e5309c2)" style="fill: none; stroke: #e25508; stroke-width: 1.5; stroke-linecap: square"/>
   </g>
   <g id="line2d_29">
    <path d="M 173.045455 615.6 
L 180.731405 614.228615 
L 188.417355 612.85811 
L 196.103306 611.488427 
L 203.789256 610.119508 
L 211.475207 608.75124 
L 219.161157 607.383563 
L 226.847107 606.016447 
L 234.533058 604.649863 
L 242.219008 603.283782 
L 249.904959 601.918172 
L 257.590909 600.553005 
L 265.27686 599.18825 
L 272.96281 597.823878 
L 280.64876 596.459859 
L 288.334711 595.096163 
L 296.020661 593.73276 
L 303.706612 592.36962 
L 311.392562 591.006713 
L 319.078512 589.64401 
L 326.764463 588.28148 
L 334.450413 586.919093 
L 342.136364 585.556819 
L 349.822314 584.194629 
L 357.508264 582.832492 
L 365.194215 581.470378 
L 372.880165 580.108258 
L 380.566116 578.7461 
L 388.252066 577.383876 
L 395.938017 576.021554 
L 403.623967 574.659106 
L 411.309917 573.2965 
L 418.995868 571.933706 
L 426.681818 570.570695 
L 434.367769 569.207436 
L 442.053719 567.843899 
L 449.739669 566.480054 
L 457.42562 565.11587 
L 465.11157 563.751321 
L 472.797521 562.386427 
L 480.483471 561.021197 
L 488.169421 559.655626 
L 495.855372 558.289708 
L 503.541322 556.923438 
L 511.227273 555.556809 
L 518.913223 554.189816 
L 526.599174 552.822452 
L 534.285124 551.454711 
L 541.971074 550.086587 
L 549.657025 548.718074 
L 557.342975 547.349165 
L 565.028926 545.979853 
L 572.714876 544.610133 
L 580.400826 543.239996 
L 588.086777 541.869437 
L 595.772727 540.498447 
L 603.458678 539.127021 
L 611.144628 537.755151 
L 618.830579 536.382829 
L 626.516529 535.010048 
L 634.202479 533.6368 
L 641.88843 532.263079 
L 649.57438 530.888875 
L 657.260331 529.514182 
L 664.946281 528.138992 
L 672.632231 526.763295 
L 680.318182 525.387085 
L 688.004132 524.010353 
L 695.690083 522.63309 
L 703.376033 521.255288 
L 711.061983 519.876939 
L 718.747934 518.498033 
L 726.433884 517.118563 
L 734.119835 515.738518 
L 741.805785 514.357891 
L 749.491736 512.976671 
L 757.177686 511.594851 
L 764.863636 510.21242 
L 772.549587 508.829369 
L 780.235537 507.445704 
L 787.921488 506.061462 
L 795.607438 504.676645 
L 803.293388 503.29125 
L 810.979339 501.905276 
L 818.665289 500.518719 
L 826.35124 499.131579 
L 834.03719 497.743853 
L 841.72314 496.355541 
L 849.409091 494.96664 
L 857.095041 493.577148 
L 864.780992 492.187066 
L 872.466942 490.79639 
L 880.152893 489.40512 
L 887.838843 488.013255 
L 895.524793 486.620794 
L 903.210744 485.227735 
L 910.896694 483.834078 
L 918.582645 482.439822 
L 926.268595 481.044967 
L 933.954545 479.649511 
" clip-path="url(#p294e5309c2)" style="fill: none; stroke: #1764ab; stroke-width: 1.5; stroke-linecap: square"/>
   </g>
   <g id="line2d_30">
    <path d="M 173.045455 156.22457 
L 180.731405 154.935032 
L 188.417355 153.725103 
L 196.103306 152.592504 
L 203.789256 151.53469 
L 211.475207 150.54675 
L 219.161157 149.625921 
L 226.847107 148.770554 
L 234.533058 147.979007 
L 242.219008 147.249648 
L 249.904959 146.580848 
L 257.590909 145.970986 
L 265.27686 145.418448 
L 272.96281 144.921628 
L 280.64876 144.478925 
L 288.334711 144.088745 
L 296.020661 143.749503 
L 303.706612 143.459617 
L 311.392562 143.217516 
L 319.078512 143.021632 
L 326.764463 142.870407 
L 334.450413 142.762288 
L 342.136364 142.69573 
L 349.822314 142.669193 
L 357.508264 142.681145 
L 365.194215 142.730062 
L 372.880165 142.814424 
L 380.566116 142.932721 
L 388.252066 143.083448 
L 395.938017 143.265106 
L 403.623967 143.476205 
L 411.309917 143.715259 
L 418.995868 143.980793 
L 426.681818 144.271335 
L 434.367769 144.585421 
L 442.053719 144.921595 
L 449.739669 145.278406 
L 457.42562 145.654411 
L 465.11157 146.048264 
L 472.797521 146.460316 
L 480.483471 146.8906 
L 488.169421 147.338706 
L 495.855372 147.804219 
L 503.541322 148.286723 
L 511.227273 148.785799 
L 518.913223 149.301027 
L 526.599174 149.831984 
L 534.285124 150.378244 
L 541.971074 150.939381 
L 549.657025 151.514965 
L 557.342975 152.104564 
L 565.028926 152.707744 
L 572.714876 153.324069 
L 580.400826 153.9531 
L 588.086777 154.594398 
L 595.772727 155.247519 
L 603.458678 155.912019 
L 611.144628 156.587449 
L 618.830579 157.273361 
L 626.516529 157.969304 
L 634.202479 158.674822 
L 641.88843 159.389461 
L 649.57438 160.112762 
L 657.260331 160.844264 
L 664.946281 161.583505 
L 672.632231 162.33002 
L 680.318182 163.083342 
L 688.004132 163.843002 
L 695.690083 164.608527 
L 703.376033 165.379446 
L 711.061983 166.15528 
L 718.747934 166.935553 
L 726.433884 167.719784 
L 734.119835 168.50749 
L 741.805785 169.298188 
L 749.491736 170.091389 
L 757.177686 170.886604 
L 764.863636 171.683343 
L 772.549587 172.481111 
L 780.235537 173.280064 
L 787.921488 174.081722 
L 795.607438 174.886011 
L 803.293388 175.692752 
L 810.979339 176.501768 
L 818.665289 177.312889 
L 826.35124 178.125949 
L 834.03719 178.940785 
L 841.72314 179.75724 
L 849.409091 180.575163 
L 857.095041 181.394404 
L 864.780992 182.21482 
L 872.466942 183.036273 
L 880.152893 183.858629 
L 887.838843 184.681757 
L 895.524793 185.505533 
L 903.210744 186.329837 
L 910.896694 187.154552 
L 918.582645 187.979568 
L 926.268595 188.804778 
L 933.954545 189.63008 
" clip-path="url(#p294e5309c2)" style="fill: none; stroke: #c54102; stroke-width: 1.5; stroke-linecap: square"/>
   </g>
   <g id="line2d_31">
    <path d="M 173.045455 615.6 
L 180.731405 614.231189 
L 188.417355 612.863227 
L 196.103306 611.4954 
L 203.789256 610.127631 
L 211.475207 608.759897 
L 219.161157 607.39214 
L 226.847107 606.024387 
L 234.533058 604.656681 
L 242.219008 603.288878 
L 249.904959 601.921129 
L 257.590909 600.553402 
L 265.27686 599.18554 
L 272.96281 597.817831 
L 280.64876 596.450008 
L 288.334711 595.082149 
L 296.020661 593.714433 
L 303.706612 592.346493 
L 311.392562 590.97869 
L 319.078512 589.610787 
L 326.764463 588.242886 
L 334.450413 586.874993 
L 342.136364 585.507012 
L 349.822314 584.139107 
L 357.508264 582.771063 
L 365.194215 581.403068 
L 372.880165 580.035082 
L 380.566116 578.666913 
L 388.252066 577.298909 
L 395.938017 575.930745 
L 403.623967 574.562548 
L 411.309917 573.19442 
L 418.995868 571.826105 
L 426.681818 570.457882 
L 434.367769 569.089515 
L 442.053719 567.721173 
L 449.739669 566.352767 
L 457.42562 564.984283 
L 465.11157 563.615855 
L 472.797521 562.247233 
L 480.483471 560.878663 
L 488.169421 559.510081 
L 495.855372 558.141274 
L 503.541322 556.772619 
L 511.227273 555.403755 
L 518.913223 554.034883 
L 526.599174 552.665973 
L 534.285124 551.296941 
L 541.971074 549.927927 
L 549.657025 548.558752 
L 557.342975 547.189602 
L 565.028926 545.820326 
L 572.714876 544.450967 
L 580.400826 543.081658 
L 588.086777 541.712094 
L 595.772727 540.342579 
L 603.458678 538.973016 
L 611.144628 537.603227 
L 618.830579 536.233533 
L 626.516529 534.863608 
L 634.202479 533.493689 
L 641.88843 532.123645 
L 649.57438 530.753522 
L 657.260331 529.383351 
L 664.946281 528.013006 
L 672.632231 526.642682 
L 680.318182 525.272184 
L 688.004132 523.90158 
L 695.690083 522.531033 
L 703.376033 521.16018 
L 711.061983 519.789366 
L 718.747934 518.41844 
L 726.433884 517.04734 
L 734.119835 515.676238 
L 741.805785 514.304933 
L 749.491736 512.93361 
L 757.177686 511.562111 
L 764.863636 510.190551 
L 772.549587 508.818898 
L 780.235537 507.447046 
L 787.921488 506.075224 
L 795.607438 504.703201 
L 803.293388 503.331056 
L 810.979339 501.958864 
L 818.665289 500.58647 
L 826.35124 499.214045 
L 834.03719 497.841426 
L 841.72314 496.468744 
L 849.409091 495.095946 
L 857.095041 493.722952 
L 864.780992 492.349973 
L 872.466942 490.976756 
L 880.152893 489.603431 
L 887.838843 488.230106 
L 895.524793 486.85647 
L 903.210744 485.482852 
L 910.896694 484.109027 
L 918.582645 482.735105 
L 926.268595 481.361068 
L 933.954545 479.98688 
" clip-path="url(#p294e5309c2)" style="fill: none; stroke: #084a91; stroke-width: 1.5; stroke-linecap: square"/>
   </g>
   <g id="line2d_32">
    <path d="M 173.045455 156.22457 
L 180.731405 146.516995 
L 188.417355 144.613229 
L 196.103306 143.811222 
L 203.789256 143.531438 
L 211.475207 143.591257 
L 219.161157 143.472719 
L 226.847107 143.43456 
L 234.533058 143.855229 
L 242.219008 143.479575 
L 249.904959 143.641787 
L 257.590909 144.076088 
L 265.27686 143.404175 
L 272.96281 144.185046 
L 280.64876 144.060711 
L 288.334711 143.744598 
L 296.020661 144.826672 
L 303.706612 144.055638 
L 311.392562 144.66562 
L 319.078512 144.549481 
L 326.764463 144.624994 
L 334.450413 144.968759 
L 342.136364 144.733077 
L 349.822314 145.391603 
L 357.508264 145.045931 
L 365.194215 145.378563 
L 372.880165 146.050195 
L 380.566116 145.369531 
L 388.252066 146.448583 
L 395.938017 146.390809 
L 403.623967 146.358623 
L 411.309917 147.280795 
L 418.995868 146.861218 
L 426.681818 147.629553 
L 434.367769 147.47714 
L 442.053719 147.945051 
L 449.739669 148.23169 
L 457.42562 148.245211 
L 465.11157 149.189025 
L 472.797521 148.833785 
L 480.483471 149.419916 
L 488.169421 150.369286 
L 495.855372 149.789018 
L 503.541322 151.099115 
L 511.227273 151.032793 
L 518.913223 151.440387 
L 526.599174 152.061637 
L 534.285124 152.141971 
L 541.971074 152.98047 
L 549.657025 152.954114 
L 557.342975 153.768176 
L 565.028926 154.077354 
L 572.714876 154.275264 
L 580.400826 155.598577 
L 588.086777 155.267892 
L 595.772727 156.093532 
L 603.458678 157.180587 
L 611.144628 156.91659 
L 618.830579 158.287766 
L 626.516529 158.266416 
L 634.202479 159.08913 
L 641.88843 159.538235 
L 649.57438 160.060146 
L 657.260331 160.956038 
L 664.946281 161.074762 
L 672.632231 162.23505 
L 680.318182 162.63643 
L 688.004132 162.939738 
L 695.690083 164.664646 
L 703.376033 164.425432 
L 711.061983 165.494254 
L 718.747934 166.435814 
L 726.433884 166.693094 
L 734.119835 167.907114 
L 741.805785 168.16021 
L 749.491736 169.25846 
L 757.177686 169.683064 
L 764.863636 170.546219 
L 772.549587 171.574591 
L 780.235537 171.735143 
L 787.921488 173.255839 
L 795.607438 173.923322 
L 803.293388 174.508589 
L 810.979339 175.744575 
L 818.665289 176.140504 
L 826.35124 177.374159 
L 834.03719 177.849747 
L 841.72314 178.874965 
L 849.409091 179.930911 
L 857.095041 180.244339 
L 864.780992 181.903748 
L 872.466942 182.421107 
L 880.152893 183.086838 
L 887.838843 184.98862 
L 895.524793 185.026192 
L 903.210744 186.510688 
L 910.896694 187.176774 
L 918.582645 188.140242 
L 926.268595 189.240137 
L 933.954545 190.094062 
" clip-path="url(#p294e5309c2)" style="fill: none; stroke: #9e3303; stroke-width: 1.5; stroke-linecap: square"/>
   </g>
   <g id="line2d_33">
    <path d="M 173.045455 615.6 
L 180.731405 614.219948 
L 188.417355 612.845809 
L 196.103306 611.477086 
L 203.789256 610.113273 
L 211.475207 608.753351 
L 219.161157 607.396942 
L 226.847107 606.043938 
L 234.533058 604.694213 
L 242.219008 603.347621 
L 249.904959 602.004 
L 257.590909 600.663171 
L 265.27686 599.324934 
L 272.96281 597.989074 
L 280.64876 596.655356 
L 288.334711 595.323529 
L 296.020661 593.993323 
L 303.706612 592.664449 
L 311.392562 591.336603 
L 319.078512 590.00946 
L 326.764463 588.682679 
L 334.450413 587.355901 
L 342.136364 586.028748 
L 349.822314 584.700824 
L 357.508264 583.371717 
L 365.194215 582.041222 
L 372.880165 580.709851 
L 380.566116 579.377653 
L 388.252066 578.044617 
L 395.938017 576.710724 
L 403.623967 575.375945 
L 411.309917 574.040246 
L 418.995868 572.703583 
L 426.681818 571.365905 
L 434.367769 570.027153 
L 442.053719 568.687259 
L 449.739669 567.346148 
L 457.42562 566.003735 
L 465.11157 564.659931 
L 472.797521 563.314634 
L 480.483471 561.967737 
L 488.169421 560.619126 
L 495.855372 559.268675 
L 503.541322 557.916253 
L 511.227273 556.561721 
L 518.913223 555.204931 
L 526.599174 553.845727 
L 534.285124 552.483945 
L 541.971074 551.119465 
L 549.657025 549.752415 
L 557.342975 548.382844 
L 565.028926 547.010774 
L 572.714876 545.636224 
L 580.400826 544.259206 
L 588.086777 542.879728 
L 595.772727 541.497792 
L 603.458678 540.113393 
L 611.144628 538.726523 
L 618.830579 537.337166 
L 626.516529 535.945304 
L 634.202479 534.550911 
L 641.88843 533.153956 
L 649.57438 531.754403 
L 657.260331 530.352209 
L 664.946281 528.947329 
L 672.632231 527.539709 
L 680.318182 526.129292 
L 688.004132 524.716014 
L 695.690083 523.299806 
L 703.376033 521.880595 
L 711.061983 520.458299 
L 718.747934 519.032835 
L 726.433884 517.604112 
L 734.119835 516.172034 
L 741.805785 514.736499 
L 749.491736 513.2974 
L 757.177686 511.854626 
L 764.863636 510.408074 
L 772.549587 508.958013 
L 780.235537 507.504564 
L 787.921488 506.047704 
L 795.607438 504.587407 
L 803.293388 503.123646 
L 810.979339 501.656393 
L 818.665289 500.185621 
L 826.35124 498.7113 
L 834.03719 497.2334 
L 841.72314 495.751889 
L 849.409091 494.266736 
L 857.095041 492.777907 
L 864.780992 491.285368 
L 872.466942 489.789085 
L 880.152893 488.289021 
L 887.838843 486.78514 
L 895.524793 485.277405 
L 903.210744 483.765776 
L 910.896694 482.250214 
L 918.582645 480.730679 
L 926.268595 479.207129 
L 933.954545 477.679522 
" clip-path="url(#p294e5309c2)" style="fill: none; stroke: #08306b; stroke-width: 1.5; stroke-linecap: square"/>
   </g>
   <g id="line2d_34">
    <path d="M 173.045455 156.22457 
L 180.731405 154.687271 
L 188.417355 153.266845 
L 196.103306 151.959155 
L 203.789256 150.758835 
L 211.475207 149.653164 
L 219.161157 148.637098 
L 226.847107 147.708952 
L 234.533058 146.866814 
L 242.219008 146.108543 
L 249.904959 145.431774 
L 257.590909 144.83391 
L 265.27686 144.312129 
L 272.96281 143.863383 
L 280.64876 143.484393 
L 288.334711 143.171656 
L 296.020661 142.921439 
L 303.706612 142.729782 
L 311.392562 142.592499 
L 319.078512 142.505176 
L 326.764463 142.46317 
L 334.450413 142.461613 
L 342.136364 142.495406 
L 349.822314 142.559227 
L 357.508264 142.647523 
L 365.194215 142.757108 
L 372.880165 142.893471 
L 380.566116 143.057282 
L 388.252066 143.248529 
L 395.938017 143.467088 
L 403.623967 143.712718 
L 411.309917 143.985066 
L 418.995868 144.283663 
L 426.681818 144.607929 
L 434.367769 144.957166 
L 442.053719 145.330563 
L 449.739669 145.727197 
L 457.42562 146.146029 
L 465.11157 146.585904 
L 472.797521 147.045557 
L 480.483471 147.523605 
L 488.169421 148.018554 
L 495.855372 148.528792 
L 503.541322 149.052597 
L 511.227273 149.588129 
L 518.913223 150.133438 
L 526.599174 150.686455 
L 534.285124 151.245001 
L 541.971074 151.807539 
L 549.657025 152.376237 
L 557.342975 152.952108 
L 565.028926 153.535817 
L 572.714876 154.127947 
L 580.400826 154.729006 
L 588.086777 155.339422 
L 595.772727 155.959542 
L 603.458678 156.589638 
L 611.144628 157.2299 
L 618.830579 157.880441 
L 626.516529 158.541295 
L 634.202479 159.212416 
L 641.88843 159.893682 
L 649.57438 160.584888 
L 657.260331 161.285754 
L 664.946281 161.99592 
L 672.632231 162.714946 
L 680.318182 163.442315 
L 688.004132 164.17743 
L 695.690083 164.919616 
L 703.376033 165.668119 
L 711.061983 166.422105 
L 718.747934 167.180664 
L 726.433884 167.942805 
L 734.119835 168.707458 
L 741.805785 169.473476 
L 749.491736 170.239631 
L 757.177686 171.004618 
L 764.863636 171.767283 
L 772.549587 172.532092 
L 780.235537 173.301276 
L 787.921488 174.074836 
L 795.607438 174.852765 
L 803.293388 175.635041 
L 810.979339 176.421635 
L 818.665289 177.212507 
L 826.35124 178.007605 
L 834.03719 178.806867 
L 841.72314 179.610221 
L 849.409091 180.417583 
L 857.095041 181.22886 
L 864.780992 182.043947 
L 872.466942 182.86273 
L 880.152893 183.685083 
L 887.838843 184.510869 
L 895.524793 185.339943 
L 903.210744 186.172146 
L 910.896694 187.007311 
L 918.582645 187.845259 
L 926.268595 188.685801 
L 933.954545 189.528737 
" clip-path="url(#p294e5309c2)" style="fill: none; stroke: #7f2704; stroke-width: 1.5; stroke-linecap: square"/>
   </g>
   <g id="patch_3">
    <path d="M 135 640.8 
L 135 86.4 
" style="fill: none; stroke: #000000; stroke-width: 0.8; stroke-linejoin: miter; stroke-linecap: square"/>
   </g>
   <g id="patch_4">
    <path d="M 972 640.8 
L 972 86.4 
" style="fill: none; stroke: #000000; stroke-width: 0.8; stroke-linejoin: miter; stroke-linecap: square"/>
   </g>
   <g id="patch_5">
    <path d="M 135 640.8 
L 972 640.8 
" style="fill: none; stroke: #000000; stroke-width: 0.8; stroke-linejoin: miter; stroke-linecap: square"/>
   </g>
   <g id="patch_6">
    <path d="M 135 86.4 
L 972 86.4 
" style="fill: none; stroke: #000000; stroke-width: 0.8; stroke-linejoin: miter; stroke-linecap: square"/>
   </g>
   <g id="legend_1">
    <g id="patch_7">
     <path d="M 803.813437 749.8375 
L 956.6 749.8375 
Q 961 749.8375 961 745.4375 
L 961 101.8 
Q 961 97.4 956.6 97.4 
L 803.813437 97.4 
Q 799.413437 97.4 799.413437 101.8 
L 799.413437 745.4375 
Q 799.413437 749.8375 803.813437 749.8375 
z
" style="fill: #ffffff; opacity: 0.8; stroke: #cccccc; stroke-linejoin: miter"/>
    </g>
    <g id="PathCollection_3">
     <g>
      <use xlink:href="#m80f1702e56" x="830.213437" y="117.141563" style="fill: #1f77b4; stroke: #1f77b4"/>
     </g>
    </g>
    <g id="text_19">
     <!-- Xi -->
     <g transform="translate(869.813437 122.916563) scale(0.22 -0.22)">
      <use xlink:href="#DejaVuSans-58"/>
      <use xlink:href="#DejaVuSans-69" x="68.505859"/>
     </g>
    </g>
    <g id="PathCollection_4">
     <g>
      <use xlink:href="#m62fcbac0dc" x="830.213437" y="149.433438" style="fill: #ff7f0e; stroke: #ff7f0e"/>
     </g>
    </g>
    <g id="text_20">
     <!-- Xa -->
     <g transform="translate(869.813437 155.208438) scale(0.22 -0.22)">
      <use xlink:href="#DejaVuSans-58"/>
      <use xlink:href="#DejaVuSans-61" x="68.505859"/>
     </g>
    </g>
    <g id="line2d_35">
     <path d="M 808.213437 179.800313 
L 830.213437 179.800313 
L 852.213437 179.800313 
" style="fill: none; stroke: #d0e1f2; stroke-width: 1.5; stroke-linecap: square"/>
    </g>
    <g id="text_21">
     <!-- Xi-IIAA -->
     <g transform="translate(869.813437 187.500313) scale(0.22 -0.22)">
      <defs>
       <path id="DejaVuSans-2d" d="M 313 2009 
L 1997 2009 
L 1997 1497 
L 313 1497 
L 313 2009 
z
" transform="scale(0.015625)"/>
       <path id="DejaVuSans-49" d="M 628 4666 
L 1259 4666 
L 1259 0 
L 628 0 
L 628 4666 
z
" transform="scale(0.015625)"/>
      </defs>
      <use xlink:href="#DejaVuSans-58"/>
      <use xlink:href="#DejaVuSans-69" x="68.505859"/>
      <use xlink:href="#DejaVuSans-2d" x="96.289062"/>
      <use xlink:href="#DejaVuSans-49" x="132.373047"/>
      <use xlink:href="#DejaVuSans-49" x="161.865234"/>
      <use xlink:href="#DejaVuSans-41" x="191.357422"/>
      <use xlink:href="#DejaVuSans-41" x="262.515625"/>
     </g>
    </g>
    <g id="line2d_36">
     <path d="M 808.213437 212.092188 
L 830.213437 212.092188 
L 852.213437 212.092188 
" style="fill: none; stroke: #fdd9b4; stroke-width: 1.5; stroke-linecap: square"/>
    </g>
    <g id="text_22">
     <!-- Xa-IIAA -->
     <g transform="translate(869.813437 219.792188) scale(0.22 -0.22)">
      <use xlink:href="#DejaVuSans-58"/>
      <use xlink:href="#DejaVuSans-61" x="68.505859"/>
      <use xlink:href="#DejaVuSans-2d" x="129.785156"/>
      <use xlink:href="#DejaVuSans-49" x="165.869141"/>
      <use xlink:href="#DejaVuSans-49" x="195.361328"/>
      <use xlink:href="#DejaVuSans-41" x="224.853516"/>
      <use xlink:href="#DejaVuSans-41" x="296.011719"/>
     </g>
    </g>
    <g id="line2d_37">
     <path d="M 808.213437 244.384063 
L 830.213437 244.384063 
L 852.213437 244.384063 
" style="fill: none; stroke: #b7d4ea; stroke-width: 1.5; stroke-linecap: square"/>
    </g>
    <g id="text_23">
     <!-- Xi-IIAI -->
     <g transform="translate(869.813437 252.084063) scale(0.22 -0.22)">
      <use xlink:href="#DejaVuSans-58"/>
      <use xlink:href="#DejaVuSans-69" x="68.505859"/>
      <use xlink:href="#DejaVuSans-2d" x="96.289062"/>
      <use xlink:href="#DejaVuSans-49" x="132.373047"/>
      <use xlink:href="#DejaVuSans-49" x="161.865234"/>
      <use xlink:href="#DejaVuSans-41" x="191.357422"/>
      <use xlink:href="#DejaVuSans-49" x="259.765625"/>
     </g>
    </g>
    <g id="line2d_38">
     <path d="M 808.213437 276.675938 
L 830.213437 276.675938 
L 852.213437 276.675938 
" style="fill: none; stroke: #fdc38d; stroke-width: 1.5; stroke-linecap: square"/>
    </g>
    <g id="text_24">
     <!-- Xa-IIAI -->
     <g transform="translate(869.813437 284.375938) scale(0.22 -0.22)">
      <use xlink:href="#DejaVuSans-58"/>
      <use xlink:href="#DejaVuSans-61" x="68.505859"/>
      <use xlink:href="#DejaVuSans-2d" x="129.785156"/>
      <use xlink:href="#DejaVuSans-49" x="165.869141"/>
      <use xlink:href="#DejaVuSans-49" x="195.361328"/>
      <use xlink:href="#DejaVuSans-41" x="224.853516"/>
      <use xlink:href="#DejaVuSans-49" x="293.261719"/>
     </g>
    </g>
    <g id="line2d_39">
     <path d="M 808.213437 308.967813 
L 830.213437 308.967813 
L 852.213437 308.967813 
" style="fill: none; stroke: #94c4df; stroke-width: 1.5; stroke-linecap: square"/>
    </g>
    <g id="text_25">
     <!-- Xi-IIAN -->
     <g transform="translate(869.813437 316.667813) scale(0.22 -0.22)">
      <defs>
       <path id="DejaVuSans-4e" d="M 628 4666 
L 1478 4666 
L 3547 763 
L 3547 4666 
L 4159 4666 
L 4159 0 
L 3309 0 
L 1241 3903 
L 1241 0 
L 628 0 
L 628 4666 
z
" transform="scale(0.015625)"/>
      </defs>
      <use xlink:href="#DejaVuSans-58"/>
      <use xlink:href="#DejaVuSans-69" x="68.505859"/>
      <use xlink:href="#DejaVuSans-2d" x="96.289062"/>
      <use xlink:href="#DejaVuSans-49" x="132.373047"/>
      <use xlink:href="#DejaVuSans-49" x="161.865234"/>
      <use xlink:href="#DejaVuSans-41" x="191.357422"/>
      <use xlink:href="#DejaVuSans-4e" x="259.765625"/>
     </g>
    </g>
    <g id="line2d_40">
     <path d="M 808.213437 341.259688 
L 830.213437 341.259688 
L 852.213437 341.259688 
" style="fill: none; stroke: #fda762; stroke-width: 1.5; stroke-linecap: square"/>
    </g>
    <g id="text_26">
     <!-- Xa-IIAN -->
     <g transform="translate(869.813437 348.959688) scale(0.22 -0.22)">
      <use xlink:href="#DejaVuSans-58"/>
      <use xlink:href="#DejaVuSans-61" x="68.505859"/>
      <use xlink:href="#DejaVuSans-2d" x="129.785156"/>
      <use xlink:href="#DejaVuSans-49" x="165.869141"/>
      <use xlink:href="#DejaVuSans-49" x="195.361328"/>
      <use xlink:href="#DejaVuSans-41" x="224.853516"/>
      <use xlink:href="#DejaVuSans-4e" x="293.261719"/>
     </g>
    </g>
    <g id="line2d_41">
     <path d="M 808.213437 373.551563 
L 830.213437 373.551563 
L 852.213437 373.551563 
" style="fill: none; stroke: #6aaed6; stroke-width: 1.5; stroke-linecap: square"/>
    </g>
    <g id="text_27">
     <!-- Xi-IIIA -->
     <g transform="translate(869.813437 381.251563) scale(0.22 -0.22)">
      <use xlink:href="#DejaVuSans-58"/>
      <use xlink:href="#DejaVuSans-69" x="68.505859"/>
      <use xlink:href="#DejaVuSans-2d" x="96.289062"/>
      <use xlink:href="#DejaVuSans-49" x="132.373047"/>
      <use xlink:href="#DejaVuSans-49" x="161.865234"/>
      <use xlink:href="#DejaVuSans-49" x="191.357422"/>
      <use xlink:href="#DejaVuSans-41" x="220.849609"/>
     </g>
    </g>
    <g id="line2d_42">
     <path d="M 808.213437 405.843438 
L 830.213437 405.843438 
L 852.213437 405.843438 
" style="fill: none; stroke: #fd8c3b; stroke-width: 1.5; stroke-linecap: square"/>
    </g>
    <g id="text_28">
     <!-- Xa-IIIA -->
     <g transform="translate(869.813437 413.543438) scale(0.22 -0.22)">
      <use xlink:href="#DejaVuSans-58"/>
      <use xlink:href="#DejaVuSans-61" x="68.505859"/>
      <use xlink:href="#DejaVuSans-2d" x="129.785156"/>
      <use xlink:href="#DejaVuSans-49" x="165.869141"/>
      <use xlink:href="#DejaVuSans-49" x="195.361328"/>
      <use xlink:href="#DejaVuSans-49" x="224.853516"/>
      <use xlink:href="#DejaVuSans-41" x="254.345703"/>
     </g>
    </g>
    <g id="line2d_43">
     <path d="M 808.213437 438.135313 
L 830.213437 438.135313 
L 852.213437 438.135313 
" style="fill: none; stroke: #4a98c9; stroke-width: 1.5; stroke-linecap: square"/>
    </g>
    <g id="text_29">
     <!-- Xi-IIII -->
     <g transform="translate(869.813437 445.835313) scale(0.22 -0.22)">
      <use xlink:href="#DejaVuSans-58"/>
      <use xlink:href="#DejaVuSans-69" x="68.505859"/>
      <use xlink:href="#DejaVuSans-2d" x="96.289062"/>
      <use xlink:href="#DejaVuSans-49" x="132.373047"/>
      <use xlink:href="#DejaVuSans-49" x="161.865234"/>
      <use xlink:href="#DejaVuSans-49" x="191.357422"/>
      <use xlink:href="#DejaVuSans-49" x="220.849609"/>
     </g>
    </g>
    <g id="line2d_44">
     <path d="M 808.213437 470.427188 
L 830.213437 470.427188 
L 852.213437 470.427188 
" style="fill: none; stroke: #f3701b; stroke-width: 1.5; stroke-linecap: square"/>
    </g>
    <g id="text_30">
     <!-- Xa-IIII -->
     <g transform="translate(869.813437 478.127188) scale(0.22 -0.22)">
      <use xlink:href="#DejaVuSans-58"/>
      <use xlink:href="#DejaVuSans-61" x="68.505859"/>
      <use xlink:href="#DejaVuSans-2d" x="129.785156"/>
      <use xlink:href="#DejaVuSans-49" x="165.869141"/>
      <use xlink:href="#DejaVuSans-49" x="195.361328"/>
      <use xlink:href="#DejaVuSans-49" x="224.853516"/>
      <use xlink:href="#DejaVuSans-49" x="254.345703"/>
     </g>
    </g>
    <g id="line2d_45">
     <path d="M 808.213437 502.719063 
L 830.213437 502.719063 
L 852.213437 502.719063 
" style="fill: none; stroke: #2e7ebc; stroke-width: 1.5; stroke-linecap: square"/>
    </g>
    <g id="text_31">
     <!-- Xi-IIIN -->
     <g transform="translate(869.813437 510.419063) scale(0.22 -0.22)">
      <use xlink:href="#DejaVuSans-58"/>
      <use xlink:href="#DejaVuSans-69" x="68.505859"/>
      <use xlink:href="#DejaVuSans-2d" x="96.289062"/>
      <use xlink:href="#DejaVuSans-49" x="132.373047"/>
      <use xlink:href="#DejaVuSans-49" x="161.865234"/>
      <use xlink:href="#DejaVuSans-49" x="191.357422"/>
      <use xlink:href="#DejaVuSans-4e" x="220.849609"/>
     </g>
    </g>
    <g id="line2d_46">
     <path d="M 808.213437 535.010938 
L 830.213437 535.010938 
L 852.213437 535.010938 
" style="fill: none; stroke: #e25508; stroke-width: 1.5; stroke-linecap: square"/>
    </g>
    <g id="text_32">
     <!-- Xa-IIIN -->
     <g transform="translate(869.813437 542.710938) scale(0.22 -0.22)">
      <use xlink:href="#DejaVuSans-58"/>
      <use xlink:href="#DejaVuSans-61" x="68.505859"/>
      <use xlink:href="#DejaVuSans-2d" x="129.785156"/>
      <use xlink:href="#DejaVuSans-49" x="165.869141"/>
      <use xlink:href="#DejaVuSans-49" x="195.361328"/>
      <use xlink:href="#DejaVuSans-49" x="224.853516"/>
      <use xlink:href="#DejaVuSans-4e" x="254.345703"/>
     </g>
    </g>
    <g id="line2d_47">
     <path d="M 808.213437 567.302813 
L 830.213437 567.302813 
L 852.213437 567.302813 
" style="fill: none; stroke: #1764ab; stroke-width: 1.5; stroke-linecap: square"/>
    </g>
    <g id="text_33">
     <!-- Xi-IINA -->
     <g transform="translate(869.813437 575.002813) scale(0.22 -0.22)">
      <use xlink:href="#DejaVuSans-58"/>
      <use xlink:href="#DejaVuSans-69" x="68.505859"/>
      <use xlink:href="#DejaVuSans-2d" x="96.289062"/>
      <use xlink:href="#DejaVuSans-49" x="132.373047"/>
      <use xlink:href="#DejaVuSans-49" x="161.865234"/>
      <use xlink:href="#DejaVuSans-4e" x="191.357422"/>
      <use xlink:href="#DejaVuSans-41" x="266.162109"/>
     </g>
    </g>
    <g id="line2d_48">
     <path d="M 808.213437 599.594688 
L 830.213437 599.594688 
L 852.213437 599.594688 
" style="fill: none; stroke: #c54102; stroke-width: 1.5; stroke-linecap: square"/>
    </g>
    <g id="text_34">
     <!-- Xa-IINA -->
     <g transform="translate(869.813437 607.294688) scale(0.22 -0.22)">
      <use xlink:href="#DejaVuSans-58"/>
      <use xlink:href="#DejaVuSans-61" x="68.505859"/>
      <use xlink:href="#DejaVuSans-2d" x="129.785156"/>
      <use xlink:href="#DejaVuSans-49" x="165.869141"/>
      <use xlink:href="#DejaVuSans-49" x="195.361328"/>
      <use xlink:href="#DejaVuSans-4e" x="224.853516"/>
      <use xlink:href="#DejaVuSans-41" x="299.658203"/>
     </g>
    </g>
    <g id="line2d_49">
     <path d="M 808.213437 631.886563 
L 830.213437 631.886563 
L 852.213437 631.886563 
" style="fill: none; stroke: #084a91; stroke-width: 1.5; stroke-linecap: square"/>
    </g>
    <g id="text_35">
     <!-- Xi-IINI -->
     <g transform="translate(869.813437 639.586563) scale(0.22 -0.22)">
      <use xlink:href="#DejaVuSans-58"/>
      <use xlink:href="#DejaVuSans-69" x="68.505859"/>
      <use xlink:href="#DejaVuSans-2d" x="96.289062"/>
      <use xlink:href="#DejaVuSans-49" x="132.373047"/>
      <use xlink:href="#DejaVuSans-49" x="161.865234"/>
      <use xlink:href="#DejaVuSans-4e" x="191.357422"/>
      <use xlink:href="#DejaVuSans-49" x="266.162109"/>
     </g>
    </g>
    <g id="line2d_50">
     <path d="M 808.213437 664.178438 
L 830.213437 664.178438 
L 852.213437 664.178438 
" style="fill: none; stroke: #9e3303; stroke-width: 1.5; stroke-linecap: square"/>
    </g>
    <g id="text_36">
     <!-- Xa-IINI -->
     <g transform="translate(869.813437 671.878438) scale(0.22 -0.22)">
      <use xlink:href="#DejaVuSans-58"/>
      <use xlink:href="#DejaVuSans-61" x="68.505859"/>
      <use xlink:href="#DejaVuSans-2d" x="129.785156"/>
      <use xlink:href="#DejaVuSans-49" x="165.869141"/>
      <use xlink:href="#DejaVuSans-49" x="195.361328"/>
      <use xlink:href="#DejaVuSans-4e" x="224.853516"/>
      <use xlink:href="#DejaVuSans-49" x="299.658203"/>
     </g>
    </g>
    <g id="line2d_51">
     <path d="M 808.213437 696.470313 
L 830.213437 696.470313 
L 852.213437 696.470313 
" style="fill: none; stroke: #08306b; stroke-width: 1.5; stroke-linecap: square"/>
    </g>
    <g id="text_37">
     <!-- Xi-IINN -->
     <g transform="translate(869.813437 704.170313) scale(0.22 -0.22)">
      <use xlink:href="#DejaVuSans-58"/>
      <use xlink:href="#DejaVuSans-69" x="68.505859"/>
      <use xlink:href="#DejaVuSans-2d" x="96.289062"/>
      <use xlink:href="#DejaVuSans-49" x="132.373047"/>
      <use xlink:href="#DejaVuSans-49" x="161.865234"/>
      <use xlink:href="#DejaVuSans-4e" x="191.357422"/>
      <use xlink:href="#DejaVuSans-4e" x="266.162109"/>
     </g>
    </g>
    <g id="line2d_52">
     <path style="fill: none; stroke: #7f2704; stroke-width: 1.5; stroke-linecap: square"/>
    </g>
    <g id="text_38">
     <!-- Xa-IINN -->
     <g transform="translate(869.813437 736.462188) scale(0.22 -0.22)">
      <use xlink:href="#DejaVuSans-58"/>
      <use xlink:href="#DejaVuSans-61" x="68.505859"/>
      <use xlink:href="#DejaVuSans-2d" x="129.785156"/>
      <use xlink:href="#DejaVuSans-49" x="165.869141"/>
      <use xlink:href="#DejaVuSans-49" x="195.361328"/>
      <use xlink:href="#DejaVuSans-4e" x="224.853516"/>
      <use xlink:href="#DejaVuSans-4e" x="299.658203"/>
     </g>
    </g>
   </g>
  </g>
 </g>
 <defs>
  <clipPath id="p294e5309c2">
   <rect x="135" y="86.4" width="837" height="554.4"/>
  </clipPath>
 </defs>
</svg>
