<?xml version="1.0" encoding="utf-8" standalone="no"?>
<!DOCTYPE svg PUBLIC "-//W3C//DTD SVG 1.1//EN"
  "http://www.w3.org/Graphics/SVG/1.1/DTD/svg11.dtd">
<svg xmlns:xlink="http://www.w3.org/1999/xlink" width="1080pt" height="720pt" viewBox="0 0 1080 720" xmlns="http://www.w3.org/2000/svg" version="1.1">
 <metadata>
  <rdf:RDF xmlns:dc="http://purl.org/dc/elements/1.1/" xmlns:cc="http://creativecommons.org/ns#" xmlns:rdf="http://www.w3.org/1999/02/22-rdf-syntax-ns#">
   <cc:Work>
    <dc:type rdf:resource="http://purl.org/dc/dcmitype/StillImage"/>
    <dc:date>2023-01-10T19:23:33.092763</dc:date>
    <dc:format>image/svg+xml</dc:format>
    <dc:creator>
     <cc:Agent>
      <dc:title>Matplotlib v3.6.2, https://matplotlib.org/</dc:title>
     </cc:Agent>
    </dc:creator>
   </cc:Work>
  </rdf:RDF>
 </metadata>
 <defs>
  <style type="text/css">*{stroke-linejoin: round; stroke-linecap: butt}</style>
 </defs>
 <g id="figure_1">
  <g id="patch_1">
   <path d="M 0 720 
L 1080 720 
L 1080 0 
L 0 0 
z
" style="fill: #ffffff"/>
  </g>
  <g id="axes_1">
   <g id="patch_2">
    <path d="M 135 640.8 
L 972 640.8 
L 972 86.4 
L 135 86.4 
z
" style="fill: #ffffff"/>
   </g>
   <g id="PathCollection_1">
    <defs>
     <path id="m80f1702e56" d="M 0 3 
C 0.795609 3 1.55874 2.683901 2.12132 2.12132 
C 2.683901 1.55874 3 0.795609 3 0 
C 3 -0.795609 2.683901 -1.55874 2.12132 -2.12132 
C 1.55874 -2.683901 0.795609 -3 0 -3 
C -0.795609 -3 -1.55874 -2.683901 -2.12132 -2.12132 
C -2.683901 -1.55874 -3 -0.795609 -3 0 
C -3 0.795609 -2.683901 1.55874 -2.12132 2.12132 
C -1.55874 2.683901 -0.795609 3 0 3 
z
" style="stroke: #1f77b4"/>
    </defs>
    <g clip-path="url(#p294e5309c2)">
     <use xlink:href="#m80f1702e56" x="173.045455" y="615.6" style="fill: #1f77b4; stroke: #1f77b4"/>
     <use xlink:href="#m80f1702e56" x="268.159091" y="584.907945" style="fill: #1f77b4; stroke: #1f77b4"/>
     <use xlink:href="#m80f1702e56" x="363.272727" y="574.503077" style="fill: #1f77b4; stroke: #1f77b4"/>
     <use xlink:href="#m80f1702e56" x="458.386364" y="572.397655" style="fill: #1f77b4; stroke: #1f77b4"/>
     <use xlink:href="#m80f1702e56" x="553.5" y="533.008677" style="fill: #1f77b4; stroke: #1f77b4"/>
     <use xlink:href="#m80f1702e56" x="648.613636" y="493.6197" style="fill: #1f77b4; stroke: #1f77b4"/>
     <use xlink:href="#m80f1702e56" x="743.727273" y="493.6197" style="fill: #1f77b4; stroke: #1f77b4"/>
     <use xlink:href="#m80f1702e56" x="838.840909" y="493.6197" style="fill: #1f77b4; stroke: #1f77b4"/>
     <use xlink:href="#m80f1702e56" x="933.954545" y="493.6197" style="fill: #1f77b4; stroke: #1f77b4"/>
    </g>
   </g>
   <g id="PathCollection_2">
    <defs>
     <path id="m62fcbac0dc" d="M 0 3 
C 0.795609 3 1.55874 2.683901 2.12132 2.12132 
C 2.683901 1.55874 3 0.795609 3 0 
C 3 -0.795609 2.683901 -1.55874 2.12132 -2.12132 
C 1.55874 -2.683901 0.795609 -3 0 -3 
C -0.795609 -3 -1.55874 -2.683901 -2.12132 -2.12132 
C -2.683901 -1.55874 -3 -0.795609 -3 0 
C -3 0.795609 -2.683901 1.55874 -2.12132 2.12132 
C -1.55874 2.683901 -0.795609 3 0 3 
z
" style="stroke: #ff7f0e"/>
    </defs>
    <g clip-path="url(#p294e5309c2)">
     <use xlink:href="#m62fcbac0dc" x="173.045455" y="156.22457" style="fill: #ff7f0e; stroke: #ff7f0e"/>
     <use xlink:href="#m62fcbac0dc" x="268.159091" y="137.482142" style="fill: #ff7f0e; stroke: #ff7f0e"/>
     <use xlink:href="#m62fcbac0dc" x="363.272727" y="166.726691" style="fill: #ff7f0e; stroke: #ff7f0e"/>
     <use xlink:href="#m62fcbac0dc" x="458.386364" y="111.6" style="fill: #ff7f0e; stroke: #ff7f0e"/>
     <use xlink:href="#m62fcbac0dc" x="553.5" y="145.771767" style="fill: #ff7f0e; stroke: #ff7f0e"/>
     <use xlink:href="#m62fcbac0dc" x="648.613636" y="179.943533" style="fill: #ff7f0e; stroke: #ff7f0e"/>
     <use xlink:href="#m62fcbac0dc" x="743.727273" y="179.943533" style="fill: #ff7f0e; stroke: #ff7f0e"/>
     <use xlink:href="#m62fcbac0dc" x="838.840909" y="179.943533" style="fill: #ff7f0e; stroke: #ff7f0e"/>
     <use xlink:href="#m62fcbac0dc" x="933.954545" y="179.943533" style="fill: #ff7f0e; stroke: #ff7f0e"/>
    </g>
   </g>
   <g id="matplotlib.axis_1">
    <g id="xtick_1">
     <g id="line2d_1">
      <defs>
       <path id="m3385fdae1e" d="M 0 0 
L 0 3.5 
" style="stroke: #000000; stroke-width: 0.8"/>
      </defs>
      <g>
       <use xlink:href="#m3385fdae1e" x="173.045455" y="640.8" style="stroke: #000000; stroke-width: 0.8"/>
      </g>
     </g>
     <g id="text_1">
      <!-- 7 -->
      <g transform="translate(166.046705 664.516562) scale(0.22 -0.22)">
       <defs>
        <path id="DejaVuSans-37" d="M 525 4666 
L 3525 4666 
L 3525 4397 
L 1831 0 
L 1172 0 
L 2766 4134 
L 525 4134 
L 525 4666 
z
" transform="scale(0.015625)"/>
       </defs>
       <use xlink:href="#DejaVuSans-37"/>
      </g>
     </g>
    </g>
    <g id="xtick_2">
     <g id="line2d_2">
      <g>
       <use xlink:href="#m3385fdae1e" x="268.159091" y="640.8" style="stroke: #000000; stroke-width: 0.8"/>
      </g>
     </g>
     <g id="text_2">
      <!-- 8 -->
      <g transform="translate(261.160341 664.516562) scale(0.22 -0.22)">
       <defs>
        <path id="DejaVuSans-38" d="M 2034 2216 
Q 1584 2216 1326 1975 
Q 1069 1734 1069 1313 
Q 1069 891 1326 650 
Q 1584 409 2034 409 
Q 2484 409 2743 651 
Q 3003 894 3003 1313 
Q 3003 1734 2745 1975 
Q 2488 2216 2034 2216 
z
M 1403 2484 
Q 997 2584 770 2862 
Q 544 3141 544 3541 
Q 544 4100 942 4425 
Q 1341 4750 2034 4750 
Q 2731 4750 3128 4425 
Q 3525 4100 3525 3541 
Q 3525 3141 3298 2862 
Q 3072 2584 2669 2484 
Q 3125 2378 3379 2068 
Q 3634 1759 3634 1313 
Q 3634 634 3220 271 
Q 2806 -91 2034 -91 
Q 1263 -91 848 271 
Q 434 634 434 1313 
Q 434 1759 690 2068 
Q 947 2378 1403 2484 
z
M 1172 3481 
Q 1172 3119 1398 2916 
Q 1625 2713 2034 2713 
Q 2441 2713 2670 2916 
Q 2900 3119 2900 3481 
Q 2900 3844 2670 4047 
Q 2441 4250 2034 4250 
Q 1625 4250 1398 4047 
Q 1172 3844 1172 3481 
z
" transform="scale(0.015625)"/>
       </defs>
       <use xlink:href="#DejaVuSans-38"/>
      </g>
     </g>
    </g>
    <g id="xtick_3">
     <g id="line2d_3">
      <g>
       <use xlink:href="#m3385fdae1e" x="363.272727" y="640.8" style="stroke: #000000; stroke-width: 0.8"/>
      </g>
     </g>
     <g id="text_3">
      <!-- 9 -->
      <g transform="translate(356.273977 664.516562) scale(0.22 -0.22)">
       <defs>
        <path id="DejaVuSans-39" d="M 703 97 
L 703 672 
Q 941 559 1184 500 
Q 1428 441 1663 441 
Q 2288 441 2617 861 
Q 2947 1281 2994 2138 
Q 2813 1869 2534 1725 
Q 2256 1581 1919 1581 
Q 1219 1581 811 2004 
Q 403 2428 403 3163 
Q 403 3881 828 4315 
Q 1253 4750 1959 4750 
Q 2769 4750 3195 4129 
Q 3622 3509 3622 2328 
Q 3622 1225 3098 567 
Q 2575 -91 1691 -91 
Q 1453 -91 1209 -44 
Q 966 3 703 97 
z
M 1959 2075 
Q 2384 2075 2632 2365 
Q 2881 2656 2881 3163 
Q 2881 3666 2632 3958 
Q 2384 4250 1959 4250 
Q 1534 4250 1286 3958 
Q 1038 3666 1038 3163 
Q 1038 2656 1286 2365 
Q 1534 2075 1959 2075 
z
" transform="scale(0.015625)"/>
       </defs>
       <use xlink:href="#DejaVuSans-39"/>
      </g>
     </g>
    </g>
    <g id="xtick_4">
     <g id="line2d_4">
      <g>
       <use xlink:href="#m3385fdae1e" x="458.386364" y="640.8" style="stroke: #000000; stroke-width: 0.8"/>
      </g>
     </g>
     <g id="text_4">
      <!-- 10 -->
      <g transform="translate(444.388864 664.516562) scale(0.22 -0.22)">
       <defs>
        <path id="DejaVuSans-31" d="M 794 531 
L 1825 531 
L 1825 4091 
L 703 3866 
L 703 4441 
L 1819 4666 
L 2450 4666 
L 2450 531 
L 3481 531 
L 3481 0 
L 794 0 
L 794 531 
z
" transform="scale(0.015625)"/>
        <path id="DejaVuSans-30" d="M 2034 4250 
Q 1547 4250 1301 3770 
Q 1056 3291 1056 2328 
Q 1056 1369 1301 889 
Q 1547 409 2034 409 
Q 2525 409 2770 889 
Q 3016 1369 3016 2328 
Q 3016 3291 2770 3770 
Q 2525 4250 2034 4250 
z
M 2034 4750 
Q 2819 4750 3233 4129 
Q 3647 3509 3647 2328 
Q 3647 1150 3233 529 
Q 2819 -91 2034 -91 
Q 1250 -91 836 529 
Q 422 1150 422 2328 
Q 422 3509 836 4129 
Q 1250 4750 2034 4750 
z
" transform="scale(0.015625)"/>
       </defs>
       <use xlink:href="#DejaVuSans-31"/>
       <use xlink:href="#DejaVuSans-30" x="63.623047"/>
      </g>
     </g>
    </g>
    <g id="xtick_5">
     <g id="line2d_5">
      <g>
       <use xlink:href="#m3385fdae1e" x="553.5" y="640.8" style="stroke: #000000; stroke-width: 0.8"/>
      </g>
     </g>
     <g id="text_5">
      <!-- 11 -->
      <g transform="translate(539.5025 664.516562) scale(0.22 -0.22)">
       <use xlink:href="#DejaVuSans-31"/>
       <use xlink:href="#DejaVuSans-31" x="63.623047"/>
      </g>
     </g>
    </g>
    <g id="xtick_6">
     <g id="line2d_6">
      <g>
       <use xlink:href="#m3385fdae1e" x="648.613636" y="640.8" style="stroke: #000000; stroke-width: 0.8"/>
      </g>
     </g>
     <g id="text_6">
      <!-- 12 -->
      <g transform="translate(634.616136 664.516562) scale(0.22 -0.22)">
       <defs>
        <path id="DejaVuSans-32" d="M 1228 531 
L 3431 531 
L 3431 0 
L 469 0 
L 469 531 
Q 828 903 1448 1529 
Q 2069 2156 2228 2338 
Q 2531 2678 2651 2914 
Q 2772 3150 2772 3378 
Q 2772 3750 2511 3984 
Q 2250 4219 1831 4219 
Q 1534 4219 1204 4116 
Q 875 4013 500 3803 
L 500 4441 
Q 881 4594 1212 4672 
Q 1544 4750 1819 4750 
Q 2544 4750 2975 4387 
Q 3406 4025 3406 3419 
Q 3406 3131 3298 2873 
Q 3191 2616 2906 2266 
Q 2828 2175 2409 1742 
Q 1991 1309 1228 531 
z
" transform="scale(0.015625)"/>
       </defs>
       <use xlink:href="#DejaVuSans-31"/>
       <use xlink:href="#DejaVuSans-32" x="63.623047"/>
      </g>
     </g>
    </g>
    <g id="xtick_7">
     <g id="line2d_7">
      <g>
       <use xlink:href="#m3385fdae1e" x="743.727273" y="640.8" style="stroke: #000000; stroke-width: 0.8"/>
      </g>
     </g>
     <g id="text_7">
      <!-- 13 -->
      <g transform="translate(729.729773 664.516562) scale(0.22 -0.22)">
       <defs>
        <path id="DejaVuSans-33" d="M 2597 2516 
Q 3050 2419 3304 2112 
Q 3559 1806 3559 1356 
Q 3559 666 3084 287 
Q 2609 -91 1734 -91 
Q 1441 -91 1130 -33 
Q 819 25 488 141 
L 488 750 
Q 750 597 1062 519 
Q 1375 441 1716 441 
Q 2309 441 2620 675 
Q 2931 909 2931 1356 
Q 2931 1769 2642 2001 
Q 2353 2234 1838 2234 
L 1294 2234 
L 1294 2753 
L 1863 2753 
Q 2328 2753 2575 2939 
Q 2822 3125 2822 3475 
Q 2822 3834 2567 4026 
Q 2313 4219 1838 4219 
Q 1578 4219 1281 4162 
Q 984 4106 628 3988 
L 628 4550 
Q 988 4650 1302 4700 
Q 1616 4750 1894 4750 
Q 2613 4750 3031 4423 
Q 3450 4097 3450 3541 
Q 3450 3153 3228 2886 
Q 3006 2619 2597 2516 
z
" transform="scale(0.015625)"/>
       </defs>
       <use xlink:href="#DejaVuSans-31"/>
       <use xlink:href="#DejaVuSans-33" x="63.623047"/>
      </g>
     </g>
    </g>
    <g id="xtick_8">
     <g id="line2d_8">
      <g>
       <use xlink:href="#m3385fdae1e" x="838.840909" y="640.8" style="stroke: #000000; stroke-width: 0.8"/>
      </g>
     </g>
     <g id="text_8">
      <!-- 14 -->
      <g transform="translate(824.843409 664.516562) scale(0.22 -0.22)">
       <defs>
        <path id="DejaVuSans-34" d="M 2419 4116 
L 825 1625 
L 2419 1625 
L 2419 4116 
z
M 2253 4666 
L 3047 4666 
L 3047 1625 
L 3713 1625 
L 3713 1100 
L 3047 1100 
L 3047 0 
L 2419 0 
L 2419 1100 
L 313 1100 
L 313 1709 
L 2253 4666 
z
" transform="scale(0.015625)"/>
       </defs>
       <use xlink:href="#DejaVuSans-31"/>
       <use xlink:href="#DejaVuSans-34" x="63.623047"/>
      </g>
     </g>
    </g>
    <g id="xtick_9">
     <g id="line2d_9">
      <g>
       <use xlink:href="#m3385fdae1e" x="933.954545" y="640.8" style="stroke: #000000; stroke-width: 0.8"/>
      </g>
     </g>
     <g id="text_9">
      <!-- 15 -->
      <g transform="translate(919.957045 664.516562) scale(0.22 -0.22)">
       <defs>
        <path id="DejaVuSans-35" d="M 691 4666 
L 3169 4666 
L 3169 4134 
L 1269 4134 
L 1269 2991 
Q 1406 3038 1543 3061 
Q 1681 3084 1819 3084 
Q 2600 3084 3056 2656 
Q 3513 2228 3513 1497 
Q 3513 744 3044 326 
Q 2575 -91 1722 -91 
Q 1428 -91 1123 -41 
Q 819 9 494 109 
L 494 744 
Q 775 591 1075 516 
Q 1375 441 1709 441 
Q 2250 441 2565 725 
Q 2881 1009 2881 1497 
Q 2881 1984 2565 2268 
Q 2250 2553 1709 2553 
Q 1456 2553 1204 2497 
Q 953 2441 691 2322 
L 691 4666 
z
" transform="scale(0.015625)"/>
       </defs>
       <use xlink:href="#DejaVuSans-31"/>
       <use xlink:href="#DejaVuSans-35" x="63.623047"/>
      </g>
     </g>
    </g>
    <g id="text_10">
     <!-- Time (days) -->
     <g transform="translate(488.541562 689.808437) scale(0.22 -0.22)">
      <defs>
       <path id="DejaVuSans-54" d="M -19 4666 
L 3928 4666 
L 3928 4134 
L 2272 4134 
L 2272 0 
L 1638 0 
L 1638 4134 
L -19 4134 
L -19 4666 
z
" transform="scale(0.015625)"/>
       <path id="DejaVuSans-69" d="M 603 3500 
L 1178 3500 
L 1178 0 
L 603 0 
L 603 3500 
z
M 603 4863 
L 1178 4863 
L 1178 4134 
L 603 4134 
L 603 4863 
z
" transform="scale(0.015625)"/>
       <path id="DejaVuSans-6d" d="M 3328 2828 
Q 3544 3216 3844 3400 
Q 4144 3584 4550 3584 
Q 5097 3584 5394 3201 
Q 5691 2819 5691 2113 
L 5691 0 
L 5113 0 
L 5113 2094 
Q 5113 2597 4934 2840 
Q 4756 3084 4391 3084 
Q 3944 3084 3684 2787 
Q 3425 2491 3425 1978 
L 3425 0 
L 2847 0 
L 2847 2094 
Q 2847 2600 2669 2842 
Q 2491 3084 2119 3084 
Q 1678 3084 1418 2786 
Q 1159 2488 1159 1978 
L 1159 0 
L 581 0 
L 581 3500 
L 1159 3500 
L 1159 2956 
Q 1356 3278 1631 3431 
Q 1906 3584 2284 3584 
Q 2666 3584 2933 3390 
Q 3200 3197 3328 2828 
z
" transform="scale(0.015625)"/>
       <path id="DejaVuSans-65" d="M 3597 1894 
L 3597 1613 
L 953 1613 
Q 991 1019 1311 708 
Q 1631 397 2203 397 
Q 2534 397 2845 478 
Q 3156 559 3463 722 
L 3463 178 
Q 3153 47 2828 -22 
Q 2503 -91 2169 -91 
Q 1331 -91 842 396 
Q 353 884 353 1716 
Q 353 2575 817 3079 
Q 1281 3584 2069 3584 
Q 2775 3584 3186 3129 
Q 3597 2675 3597 1894 
z
M 3022 2063 
Q 3016 2534 2758 2815 
Q 2500 3097 2075 3097 
Q 1594 3097 1305 2825 
Q 1016 2553 972 2059 
L 3022 2063 
z
" transform="scale(0.015625)"/>
       <path id="DejaVuSans-20" transform="scale(0.015625)"/>
       <path id="DejaVuSans-28" d="M 1984 4856 
Q 1566 4138 1362 3434 
Q 1159 2731 1159 2009 
Q 1159 1288 1364 580 
Q 1569 -128 1984 -844 
L 1484 -844 
Q 1016 -109 783 600 
Q 550 1309 550 2009 
Q 550 2706 781 3412 
Q 1013 4119 1484 4856 
L 1984 4856 
z
" transform="scale(0.015625)"/>
       <path id="DejaVuSans-64" d="M 2906 2969 
L 2906 4863 
L 3481 4863 
L 3481 0 
L 2906 0 
L 2906 525 
Q 2725 213 2448 61 
Q 2172 -91 1784 -91 
Q 1150 -91 751 415 
Q 353 922 353 1747 
Q 353 2572 751 3078 
Q 1150 3584 1784 3584 
Q 2172 3584 2448 3432 
Q 2725 3281 2906 2969 
z
M 947 1747 
Q 947 1113 1208 752 
Q 1469 391 1925 391 
Q 2381 391 2643 752 
Q 2906 1113 2906 1747 
Q 2906 2381 2643 2742 
Q 2381 3103 1925 3103 
Q 1469 3103 1208 2742 
Q 947 2381 947 1747 
z
" transform="scale(0.015625)"/>
       <path id="DejaVuSans-61" d="M 2194 1759 
Q 1497 1759 1228 1600 
Q 959 1441 959 1056 
Q 959 750 1161 570 
Q 1363 391 1709 391 
Q 2188 391 2477 730 
Q 2766 1069 2766 1631 
L 2766 1759 
L 2194 1759 
z
M 3341 1997 
L 3341 0 
L 2766 0 
L 2766 531 
Q 2569 213 2275 61 
Q 1981 -91 1556 -91 
Q 1019 -91 701 211 
Q 384 513 384 1019 
Q 384 1609 779 1909 
Q 1175 2209 1959 2209 
L 2766 2209 
L 2766 2266 
Q 2766 2663 2505 2880 
Q 2244 3097 1772 3097 
Q 1472 3097 1187 3025 
Q 903 2953 641 2809 
L 641 3341 
Q 956 3463 1253 3523 
Q 1550 3584 1831 3584 
Q 2591 3584 2966 3190 
Q 3341 2797 3341 1997 
z
" transform="scale(0.015625)"/>
       <path id="DejaVuSans-79" d="M 2059 -325 
Q 1816 -950 1584 -1140 
Q 1353 -1331 966 -1331 
L 506 -1331 
L 506 -850 
L 844 -850 
Q 1081 -850 1212 -737 
Q 1344 -625 1503 -206 
L 1606 56 
L 191 3500 
L 800 3500 
L 1894 763 
L 2988 3500 
L 3597 3500 
L 2059 -325 
z
" transform="scale(0.015625)"/>
       <path id="DejaVuSans-73" d="M 2834 3397 
L 2834 2853 
Q 2591 2978 2328 3040 
Q 2066 3103 1784 3103 
Q 1356 3103 1142 2972 
Q 928 2841 928 2578 
Q 928 2378 1081 2264 
Q 1234 2150 1697 2047 
L 1894 2003 
Q 2506 1872 2764 1633 
Q 3022 1394 3022 966 
Q 3022 478 2636 193 
Q 2250 -91 1575 -91 
Q 1294 -91 989 -36 
Q 684 19 347 128 
L 347 722 
Q 666 556 975 473 
Q 1284 391 1588 391 
Q 1994 391 2212 530 
Q 2431 669 2431 922 
Q 2431 1156 2273 1281 
Q 2116 1406 1581 1522 
L 1381 1569 
Q 847 1681 609 1914 
Q 372 2147 372 2553 
Q 372 3047 722 3315 
Q 1072 3584 1716 3584 
Q 2034 3584 2315 3537 
Q 2597 3491 2834 3397 
z
" transform="scale(0.015625)"/>
       <path id="DejaVuSans-29" d="M 513 4856 
L 1013 4856 
Q 1481 4119 1714 3412 
Q 1947 2706 1947 2009 
Q 1947 1309 1714 600 
Q 1481 -109 1013 -844 
L 513 -844 
Q 928 -128 1133 580 
Q 1338 1288 1338 2009 
Q 1338 2731 1133 3434 
Q 928 4138 513 4856 
z
" transform="scale(0.015625)"/>
      </defs>
      <use xlink:href="#DejaVuSans-54"/>
      <use xlink:href="#DejaVuSans-69" x="57.958984"/>
      <use xlink:href="#DejaVuSans-6d" x="85.742188"/>
      <use xlink:href="#DejaVuSans-65" x="183.154297"/>
      <use xlink:href="#DejaVuSans-20" x="244.677734"/>
      <use xlink:href="#DejaVuSans-28" x="276.464844"/>
      <use xlink:href="#DejaVuSans-64" x="315.478516"/>
      <use xlink:href="#DejaVuSans-61" x="378.955078"/>
      <use xlink:href="#DejaVuSans-79" x="440.234375"/>
      <use xlink:href="#DejaVuSans-73" x="499.414062"/>
      <use xlink:href="#DejaVuSans-29" x="551.513672"/>
     </g>
    </g>
   </g>
   <g id="matplotlib.axis_2">
    <g id="ytick_1">
     <g id="line2d_10">
      <defs>
       <path id="ma600d9e374" d="M 0 0 
L -3.5 0 
" style="stroke: #000000; stroke-width: 0.8"/>
      </defs>
      <g>
       <use xlink:href="#ma600d9e374" x="135" y="615.908529" style="stroke: #000000; stroke-width: 0.8"/>
      </g>
     </g>
     <g id="text_11">
      <!-- 0.00 -->
      <g transform="translate(79.015625 624.26681) scale(0.22 -0.22)">
       <defs>
        <path id="DejaVuSans-2e" d="M 684 794 
L 1344 794 
L 1344 0 
L 684 0 
L 684 794 
z
" transform="scale(0.015625)"/>
       </defs>
       <use xlink:href="#DejaVuSans-30"/>
       <use xlink:href="#DejaVuSans-2e" x="63.623047"/>
       <use xlink:href="#DejaVuSans-30" x="95.410156"/>
       <use xlink:href="#DejaVuSans-30" x="159.033203"/>
      </g>
     </g>
    </g>
    <g id="ytick_2">
     <g id="line2d_11">
      <g>
       <use xlink:href="#ma600d9e374" x="135" y="544.201469" style="stroke: #000000; stroke-width: 0.8"/>
      </g>
     </g>
     <g id="text_12">
      <!-- 0.25 -->
      <g transform="translate(79.015625 552.559751) scale(0.22 -0.22)">
       <use xlink:href="#DejaVuSans-30"/>
       <use xlink:href="#DejaVuSans-2e" x="63.623047"/>
       <use xlink:href="#DejaVuSans-32" x="95.410156"/>
       <use xlink:href="#DejaVuSans-35" x="159.033203"/>
      </g>
     </g>
    </g>
    <g id="ytick_3">
     <g id="line2d_12">
      <g>
       <use xlink:href="#ma600d9e374" x="135" y="472.49441" style="stroke: #000000; stroke-width: 0.8"/>
      </g>
     </g>
     <g id="text_13">
      <!-- 0.50 -->
      <g transform="translate(79.015625 480.852691) scale(0.22 -0.22)">
       <use xlink:href="#DejaVuSans-30"/>
       <use xlink:href="#DejaVuSans-2e" x="63.623047"/>
       <use xlink:href="#DejaVuSans-35" x="95.410156"/>
       <use xlink:href="#DejaVuSans-30" x="159.033203"/>
      </g>
     </g>
    </g>
    <g id="ytick_4">
     <g id="line2d_13">
      <g>
       <use xlink:href="#ma600d9e374" x="135" y="400.78735" style="stroke: #000000; stroke-width: 0.8"/>
      </g>
     </g>
     <g id="text_14">
      <!-- 0.75 -->
      <g transform="translate(79.015625 409.145632) scale(0.22 -0.22)">
       <use xlink:href="#DejaVuSans-30"/>
       <use xlink:href="#DejaVuSans-2e" x="63.623047"/>
       <use xlink:href="#DejaVuSans-37" x="95.410156"/>
       <use xlink:href="#DejaVuSans-35" x="159.033203"/>
      </g>
     </g>
    </g>
    <g id="ytick_5">
     <g id="line2d_14">
      <g>
       <use xlink:href="#ma600d9e374" x="135" y="329.080291" style="stroke: #000000; stroke-width: 0.8"/>
      </g>
     </g>
     <g id="text_15">
      <!-- 1.00 -->
      <g transform="translate(79.015625 337.438572) scale(0.22 -0.22)">
       <use xlink:href="#DejaVuSans-31"/>
       <use xlink:href="#DejaVuSans-2e" x="63.623047"/>
       <use xlink:href="#DejaVuSans-30" x="95.410156"/>
       <use xlink:href="#DejaVuSans-30" x="159.033203"/>
      </g>
     </g>
    </g>
    <g id="ytick_6">
     <g id="line2d_15">
      <g>
       <use xlink:href="#ma600d9e374" x="135" y="257.373231" style="stroke: #000000; stroke-width: 0.8"/>
      </g>
     </g>
     <g id="text_16">
      <!-- 1.25 -->
      <g transform="translate(79.015625 265.731513) scale(0.22 -0.22)">
       <use xlink:href="#DejaVuSans-31"/>
       <use xlink:href="#DejaVuSans-2e" x="63.623047"/>
       <use xlink:href="#DejaVuSans-32" x="95.410156"/>
       <use xlink:href="#DejaVuSans-35" x="159.033203"/>
      </g>
     </g>
    </g>
    <g id="ytick_7">
     <g id="line2d_16">
      <g>
       <use xlink:href="#ma600d9e374" x="135" y="185.666172" style="stroke: #000000; stroke-width: 0.8"/>
      </g>
     </g>
     <g id="text_17">
      <!-- 1.50 -->
      <g transform="translate(79.015625 194.024453) scale(0.22 -0.22)">
       <use xlink:href="#DejaVuSans-31"/>
       <use xlink:href="#DejaVuSans-2e" x="63.623047"/>
       <use xlink:href="#DejaVuSans-35" x="95.410156"/>
       <use xlink:href="#DejaVuSans-30" x="159.033203"/>
      </g>
     </g>
    </g>
    <g id="ytick_8">
     <g id="line2d_17">
      <g>
       <use xlink:href="#ma600d9e374" x="135" y="113.959112" style="stroke: #000000; stroke-width: 0.8"/>
      </g>
     </g>
     <g id="text_18">
      <!-- 1.75 -->
      <g transform="translate(79.015625 122.317393) scale(0.22 -0.22)">
       <use xlink:href="#DejaVuSans-31"/>
       <use xlink:href="#DejaVuSans-2e" x="63.623047"/>
       <use xlink:href="#DejaVuSans-37" x="95.410156"/>
       <use xlink:href="#DejaVuSans-35" x="159.033203"/>
      </g>
     </g>
    </g>
    <g id="text_19">
     <!-- X:A -->
     <g transform="translate(70.440313 382.365312) rotate(-90) scale(0.22 -0.22)">
      <defs>
       <path id="DejaVuSans-58" d="M 403 4666 
L 1081 4666 
L 2241 2931 
L 3406 4666 
L 4084 4666 
L 2584 2425 
L 4184 0 
L 3506 0 
L 2194 1984 
L 872 0 
L 191 0 
L 1856 2491 
L 403 4666 
z
" transform="scale(0.015625)"/>
       <path id="DejaVuSans-3a" d="M 750 794 
L 1409 794 
L 1409 0 
L 750 0 
L 750 794 
z
M 750 3309 
L 1409 3309 
L 1409 2516 
L 750 2516 
L 750 3309 
z
" transform="scale(0.015625)"/>
       <path id="DejaVuSans-41" d="M 2188 4044 
L 1331 1722 
L 3047 1722 
L 2188 4044 
z
M 1831 4666 
L 2547 4666 
L 4325 0 
L 3669 0 
L 3244 1197 
L 1141 1197 
L 716 0 
L 50 0 
L 1831 4666 
z
" transform="scale(0.015625)"/>
      </defs>
      <use xlink:href="#DejaVuSans-58"/>
      <use xlink:href="#DejaVuSans-3a" x="68.505859"/>
      <use xlink:href="#DejaVuSans-41" x="102.197266"/>
     </g>
    </g>
   </g>
   <g id="line2d_18">
    <path d="M 173.045455 615.6 
L 180.731405 613.385279 
L 188.417355 611.196535 
L 196.103306 609.033269 
L 203.789256 606.894983 
L 211.475207 604.781322 
L 219.161157 602.691974 
L 226.847107 600.626592 
L 234.533058 598.584823 
L 242.219008 596.566406 
L 249.904959 594.571077 
L 257.590909 592.598552 
L 265.27686 590.648536 
L 272.96281 588.720728 
L 280.64876 586.814881 
L 288.334711 584.930753 
L 296.020661 583.068092 
L 303.706612 581.226636 
L 311.392562 579.406113 
L 319.078512 577.606242 
L 326.764463 575.826739 
L 334.450413 574.067397 
L 342.136364 572.328022 
L 349.822314 570.608398 
L 357.508264 568.908291 
L 365.194215 567.227443 
L 372.880165 565.565577 
L 380.566116 563.922393 
L 388.252066 562.297634 
L 395.938017 560.691182 
L 403.623967 559.102862 
L 411.309917 557.532468 
L 418.995868 555.979767 
L 426.681818 554.444494 
L 434.367769 552.926368 
L 442.053719 551.425228 
L 449.739669 549.940919 
L 457.42562 548.473256 
L 465.11157 547.022035 
L 472.797521 545.587034 
L 480.483471 544.168011 
L 488.169421 542.764755 
L 495.855372 541.377125 
L 503.541322 540.004967 
L 511.227273 538.648108 
L 518.913223 537.306357 
L 526.599174 535.979505 
L 534.285124 534.667327 
L 541.971074 533.369603 
L 549.657025 532.086218 
L 557.342975 530.817056 
L 565.028926 529.561977 
L 572.714876 528.320814 
L 580.400826 527.093371 
L 588.086777 525.879427 
L 595.772727 524.678741 
L 603.458678 523.49118 
L 611.144628 522.316684 
L 618.830579 521.155146 
L 626.516529 520.006424 
L 634.202479 518.870344 
L 641.88843 517.746694 
L 649.57438 516.63523 
L 657.260331 515.535835 
L 664.946281 514.448461 
L 672.632231 513.373002 
L 680.318182 512.309323 
L 688.004132 511.257261 
L 695.690083 510.216623 
L 703.376033 509.187216 
L 711.061983 508.168971 
L 718.747934 507.161801 
L 726.433884 506.165592 
L 734.119835 505.180211 
L 741.805785 504.205505 
L 749.491736 503.241305 
L 757.177686 502.287474 
L 764.863636 501.343941 
L 772.549587 500.410614 
L 780.235537 499.487387 
L 787.921488 498.574134 
L 795.607438 497.670717 
L 803.293388 496.776979 
L 810.979339 495.892782 
L 818.665289 495.018067 
L 826.35124 494.152765 
L 834.03719 493.296786 
L 841.72314 492.450022 
L 849.409091 491.612342 
L 857.095041 490.783599 
L 864.780992 489.96363 
L 872.466942 489.152368 
L 880.152893 488.349779 
L 887.838843 487.555802 
L 895.524793 486.770345 
L 903.210744 485.993293 
L 910.896694 485.224503 
L 918.582645 484.463808 
L 926.268595 483.711154 
L 933.954545 482.966508 
" clip-path="url(#p294e5309c2)" style="fill: none; stroke: #d0e1f2; stroke-width: 1.5; stroke-linecap: square"/>
   </g>
   <g id="line2d_19">
    <path d="M 173.045455 156.22457 
L 180.731405 149.59729 
L 188.417355 145.436783 
L 196.103306 142.93119 
L 203.789256 141.242273 
L 211.475207 140.148465 
L 219.161157 139.573209 
L 226.847107 139.282989 
L 234.533058 139.007159 
L 242.219008 138.825992 
L 249.904959 138.788262 
L 257.590909 138.86967 
L 265.27686 138.97713 
L 272.96281 138.998262 
L 280.64876 139.007524 
L 288.334711 139.08617 
L 296.020661 139.267184 
L 303.706612 139.536753 
L 311.392562 139.834269 
L 319.078512 140.052258 
L 326.764463 140.066781 
L 334.450413 140.023672 
L 342.136364 140.108235 
L 349.822314 140.417557 
L 357.508264 140.960507 
L 365.194215 141.657737 
L 372.880165 142.341683 
L 380.566116 142.756566 
L 388.252066 142.789732 
L 395.938017 142.834103 
L 403.623967 143.069084 
L 411.309917 143.546369 
L 418.995868 144.195615 
L 426.681818 144.824438 
L 434.367769 145.166928 
L 442.053719 145.404286 
L 449.739669 145.729583 
L 457.42562 146.209534 
L 465.11157 146.831032 
L 472.797521 147.501147 
L 480.483471 148.047218 
L 488.169421 148.394615 
L 495.855372 148.737555 
L 503.541322 149.203903 
L 511.227273 149.843351 
L 518.913223 150.627422 
L 526.599174 151.449468 
L 534.285124 152.124671 
L 541.971074 152.491921 
L 549.657025 152.771636 
L 557.342975 153.189417 
L 565.028926 153.856975 
L 572.714876 154.773073 
L 580.400826 155.823527 
L 588.086777 156.781201 
L 595.772727 157.324149 
L 603.458678 157.564312 
L 611.144628 157.876876 
L 618.830579 158.45679 
L 626.516529 159.351023 
L 634.202479 160.458562 
L 641.88843 161.530417 
L 649.57438 162.180509 
L 657.260331 162.516914 
L 664.946281 162.927159 
L 672.632231 163.556072 
L 680.318182 164.423161 
L 688.004132 165.422616 
L 695.690083 166.323308 
L 703.376033 166.878655 
L 711.061983 167.359319 
L 718.747934 167.940749 
L 726.433884 168.686099 
L 734.119835 169.572967 
L 741.805785 170.493395 
L 749.491736 171.253942 
L 757.177686 171.793858 
L 764.863636 172.328156 
L 772.549587 172.974107 
L 780.235537 173.774877 
L 787.921488 174.699521 
L 795.607438 175.642988 
L 803.293388 176.426118 
L 810.979339 176.935659 
L 818.665289 177.393305 
L 826.35124 177.970987 
L 834.03719 178.748576 
L 841.72314 179.714289 
L 849.409091 180.764697 
L 857.095041 181.704715 
L 864.780992 182.279202 
L 872.466942 182.6321 
L 880.152893 183.057731 
L 887.838843 183.711856 
L 895.524793 184.628403 
L 903.210744 185.719472 
L 910.896694 186.775328 
L 918.582645 187.469628 
L 926.268595 187.978694 
L 933.954545 188.558333 
" clip-path="url(#p294e5309c2)" style="fill: none; stroke: #fdd9b4; stroke-width: 1.5; stroke-linecap: square"/>
   </g>
   <g id="line2d_20">
    <path d="M 173.045455 615.6 
L 180.731405 613.277905 
L 188.417355 611.029508 
L 196.103306 608.841361 
L 203.789256 606.701962 
L 211.475207 604.605605 
L 219.161157 602.549397 
L 226.847107 600.529083 
L 234.533058 598.539021 
L 242.219008 596.574834 
L 249.904959 594.6374 
L 257.590909 592.726606 
L 265.27686 590.841634 
L 272.96281 588.980979 
L 280.64876 587.142444 
L 288.334711 585.323777 
L 296.020661 583.525532 
L 303.706612 581.748363 
L 311.392562 579.99245 
L 319.078512 578.257543 
L 326.764463 576.542967 
L 334.450413 574.847619 
L 342.136364 573.16997 
L 349.822314 571.508192 
L 357.508264 569.862251 
L 365.194215 568.233454 
L 372.880165 566.622687 
L 380.566116 565.030378 
L 388.252066 563.456489 
L 395.938017 561.900521 
L 403.623967 560.361514 
L 411.309917 558.838043 
L 418.995868 557.328222 
L 426.681818 555.829722 
L 434.367769 554.341806 
L 442.053719 552.866959 
L 449.739669 551.407329 
L 457.42562 549.964313 
L 465.11157 548.53856 
L 472.797521 547.129966 
L 480.483471 545.737679 
L 488.169421 544.360096 
L 495.855372 542.994865 
L 503.541322 541.638882 
L 511.227273 540.288342 
L 518.913223 538.943778 
L 526.599174 537.609902 
L 534.285124 536.289673 
L 541.971074 534.984964 
L 549.657025 533.696558 
L 557.342975 532.424146 
L 565.028926 531.166333 
L 572.714876 529.920633 
L 580.400826 528.683471 
L 588.086777 527.450182 
L 595.772727 526.218718 
L 603.458678 524.99598 
L 611.144628 523.784714 
L 618.830579 522.586486 
L 626.516529 521.401906 
L 634.202479 520.230625 
L 641.88843 519.071339 
L 649.57438 517.921784 
L 657.260331 516.77874 
L 664.946281 515.638485 
L 672.632231 514.504057 
L 680.318182 513.378595 
L 688.004132 512.263395 
L 695.690083 511.159117 
L 703.376033 510.065785 
L 711.061983 508.982792 
L 718.747934 507.908893 
L 726.433884 506.84221 
L 734.119835 505.78023 
L 741.805785 504.721968 
L 749.491736 503.670286 
L 757.177686 502.626774 
L 764.863636 501.59246 
L 772.549587 500.567832 
L 780.235537 499.552832 
L 787.921488 498.546861 
L 795.607438 497.548774 
L 803.293388 496.556884 
L 810.979339 495.56896 
L 818.665289 494.582873 
L 826.35124 493.600575 
L 834.03719 492.624701 
L 841.72314 491.657097 
L 849.409091 490.698891 
L 857.095041 489.750492 
L 864.780992 488.811592 
L 872.466942 487.881163 
L 880.152893 486.957458 
L 887.838843 486.038013 
L 895.524793 485.119645 
L 903.210744 484.201038 
L 910.896694 483.288774 
L 918.582645 482.383272 
L 926.268595 481.484177 
L 933.954545 480.591056 
" clip-path="url(#p294e5309c2)" style="fill: none; stroke: #b7d4ea; stroke-width: 1.5; stroke-linecap: square"/>
   </g>
   <g id="line2d_21">
    <path d="M 173.045455 156.22457 
L 180.731405 150.601893 
L 188.417355 146.511181 
L 196.103306 143.557119 
L 203.789256 141.392404 
L 211.475207 139.837944 
L 219.161157 138.806374 
L 226.847107 138.172511 
L 234.533058 137.772555 
L 242.219008 137.477959 
L 249.904959 137.321033 
L 257.590909 137.312522 
L 265.27686 137.439181 
L 272.96281 137.66411 
L 280.64876 137.926756 
L 288.334711 138.163883 
L 296.020661 138.406601 
L 303.706612 138.691266 
L 311.392562 139.037404 
L 319.078512 139.449306 
L 326.764463 139.916023 
L 334.450413 140.411366 
L 342.136364 140.893913 
L 349.822314 141.311627 
L 357.508264 141.674893 
L 365.194215 142.039736 
L 372.880165 142.447399 
L 380.566116 142.922957 
L 388.252066 143.475317 
L 395.938017 144.097221 
L 403.623967 144.765242 
L 411.309917 145.439783 
L 418.995868 146.065083 
L 426.681818 146.569914 
L 434.367769 146.939207 
L 442.053719 147.26583 
L 449.739669 147.630171 
L 457.42562 148.087272 
L 465.11157 148.666836 
L 472.797521 149.373216 
L 480.483471 150.185424 
L 488.169421 151.057129 
L 495.855372 151.916652 
L 503.541322 152.666973 
L 511.227273 153.187345 
L 518.913223 153.504438 
L 526.599174 153.780454 
L 534.285124 154.117463 
L 541.971074 154.582235 
L 549.657025 155.206239 
L 557.342975 155.985645 
L 565.028926 156.881325 
L 572.714876 157.818849 
L 580.400826 158.688489 
L 588.086777 159.345217 
L 595.772727 159.729154 
L 603.458678 160.067642 
L 611.144628 160.450674 
L 618.830579 160.931316 
L 626.516529 161.532993 
L 634.202479 162.249494 
L 641.88843 163.04497 
L 649.57438 163.853934 
L 657.260331 164.58126 
L 664.946281 165.116334 
L 672.632231 165.557957 
L 680.318182 166.005678 
L 688.004132 166.501963 
L 695.690083 167.070238 
L 703.376033 167.714886 
L 711.061983 168.421248 
L 718.747934 169.155624 
L 726.433884 169.865271 
L 734.119835 170.478404 
L 741.805785 170.969719 
L 749.491736 171.428352 
L 757.177686 171.903588 
L 764.863636 172.428449 
L 772.549587 173.020112 
L 780.235537 173.67991 
L 787.921488 174.393332 
L 795.607438 175.130019 
L 803.293388 175.84377 
L 810.979339 176.472537 
L 818.665289 176.957855 
L 826.35124 177.360387 
L 834.03719 177.757413 
L 841.72314 178.203584 
L 849.409091 178.73326 
L 857.095041 179.360514 
L 864.780992 180.079127 
L 872.466942 180.862593 
L 880.152893 181.664116 
L 887.838843 182.416608 
L 895.524793 183.032695 
L 903.210744 183.477487 
L 910.896694 183.93822 
L 918.582645 184.428563 
L 926.268595 184.940568 
L 933.954545 185.464285 
" clip-path="url(#p294e5309c2)" style="fill: none; stroke: #fdc38d; stroke-width: 1.5; stroke-linecap: square"/>
   </g>
   <g id="line2d_22">
    <path d="M 173.045455 615.6 
L 180.731405 613.391714 
L 188.417355 611.212844 
L 196.103306 609.061559 
L 203.789256 606.936035 
L 211.475207 604.835504 
L 219.161157 602.759518 
L 226.847107 600.707347 
L 234.533058 598.678203 
L 242.219008 596.671957 
L 249.904959 594.688431 
L 257.590909 592.727305 
L 265.27686 590.788126 
L 272.96281 588.870416 
L 280.64876 586.97407 
L 288.334711 585.098989 
L 296.020661 583.24498 
L 303.706612 581.41176 
L 311.392562 579.598954 
L 319.078512 577.806096 
L 326.764463 576.032724 
L 334.450413 574.278919 
L 342.136364 572.544788 
L 349.822314 570.83027 
L 357.508264 569.135132 
L 365.194215 567.458978 
L 372.880165 565.801238 
L 380.566116 564.161176 
L 388.252066 562.538507 
L 395.938017 560.933748 
L 403.623967 559.346991 
L 411.309917 557.778096 
L 418.995868 556.226694 
L 426.681818 554.692187 
L 434.367769 553.173894 
L 442.053719 551.672041 
L 449.739669 550.186762 
L 457.42562 548.717979 
L 465.11157 547.26546 
L 472.797521 545.828823 
L 480.483471 544.407537 
L 488.169421 543.001323 
L 495.855372 541.610378 
L 503.541322 540.234754 
L 511.227273 538.874357 
L 518.913223 537.528947 
L 526.599174 536.198138 
L 534.285124 534.881397 
L 541.971074 533.578292 
L 549.657025 532.289107 
L 557.342975 531.014081 
L 565.028926 529.753242 
L 572.714876 528.506414 
L 580.400826 527.273212 
L 588.086777 526.053044 
L 595.772727 524.84517 
L 603.458678 523.649746 
L 611.144628 522.467285 
L 618.830579 521.297973 
L 626.516529 520.141729 
L 634.202479 518.998209 
L 641.88843 517.866797 
L 649.57438 516.746655 
L 657.260331 515.637949 
L 664.946281 514.541203 
L 672.632231 513.456531 
L 680.318182 512.383823 
L 688.004132 511.322745 
L 695.690083 510.272739 
L 703.376033 509.23326 
L 711.061983 508.204698 
L 718.747934 507.187227 
L 726.433884 506.180832 
L 734.119835 505.185345 
L 741.805785 504.20045 
L 749.491736 503.225677 
L 757.177686 502.260828 
L 764.863636 501.306169 
L 772.549587 500.361788 
L 780.235537 499.427648 
L 787.921488 498.503579 
L 795.607438 497.589285 
L 803.293388 496.684342 
L 810.979339 495.788458 
L 818.665289 494.901921 
L 826.35124 494.02492 
L 834.03719 493.157488 
L 841.72314 492.299501 
L 849.409091 491.45068 
L 857.095041 490.610588 
L 864.780992 489.77869 
L 872.466942 488.955146 
L 880.152893 488.140361 
L 887.838843 487.334508 
L 895.524793 486.53755 
L 903.210744 485.749249 
L 910.896694 484.96916 
L 918.582645 484.196638 
L 926.268595 483.431874 
L 933.954545 482.675234 
" clip-path="url(#p294e5309c2)" style="fill: none; stroke: #94c4df; stroke-width: 1.5; stroke-linecap: square"/>
   </g>
   <g id="line2d_23">
    <path d="M 173.045455 156.22457 
L 180.731405 149.469294 
L 188.417355 145.227802 
L 196.103306 142.675718 
L 203.789256 140.95908 
L 211.475207 139.849805 
L 219.161157 139.267867 
L 226.847107 138.975573 
L 234.533058 138.70251 
L 242.219008 138.529723 
L 249.904959 138.504722 
L 257.590909 138.600829 
L 265.27686 138.720879 
L 272.96281 138.753635 
L 280.64876 138.779516 
L 288.334711 138.87896 
L 296.020661 139.083205 
L 303.706612 139.375468 
L 311.392562 139.690953 
L 319.078512 139.916331 
L 326.764463 139.94036 
L 334.450413 139.926883 
L 342.136364 140.051436 
L 349.822314 140.401761 
L 357.508264 140.977803 
L 365.194215 141.69171 
L 372.880165 142.367834 
L 380.566116 142.74273 
L 388.252066 142.782393 
L 395.938017 142.864935 
L 403.623967 143.148451 
L 411.309917 143.67009 
L 418.995868 144.346285 
L 426.681818 144.972749 
L 434.367769 145.300703 
L 442.053719 145.552034 
L 449.739669 145.901181 
L 457.42562 146.408646 
L 465.11157 147.054249 
L 472.797521 147.737125 
L 480.483471 148.276668 
L 488.169421 148.624305 
L 495.855372 148.978734 
L 503.541322 149.46277 
L 511.227273 150.120672 
L 518.913223 150.918139 
L 526.599174 151.742311 
L 534.285124 152.401766 
L 541.971074 152.75637 
L 549.657025 153.045226 
L 557.342975 153.482279 
L 565.028926 154.169333 
L 572.714876 155.096482 
L 580.400826 156.1421 
L 588.086777 157.072849 
L 595.772727 157.575 
L 603.458678 157.812634 
L 611.144628 158.141737 
L 618.830579 158.742764 
L 626.516529 159.650641 
L 634.202479 160.754757 
L 641.88843 161.798968 
L 649.57438 162.403056 
L 657.260331 162.731169 
L 664.946281 163.145181 
L 672.632231 163.781316 
L 680.318182 164.651519 
L 688.004132 165.643452 
L 695.690083 166.520498 
L 703.376033 167.051232 
L 711.061983 167.520568 
L 718.747934 168.094911 
L 726.433884 168.83397 
L 734.119835 169.712068 
L 741.805785 170.618145 
L 749.491736 171.35609 
L 757.177686 171.878305 
L 764.863636 172.399109 
L 772.549587 173.033022 
L 780.235537 173.82099 
L 787.921488 174.730394 
L 795.607438 175.655039 
L 803.293388 176.415163 
L 810.979339 176.905338 
L 818.665289 177.348401 
L 826.35124 177.912264 
L 834.03719 178.674251 
L 841.72314 179.621327 
L 849.409091 180.650102 
L 857.095041 181.56683 
L 864.780992 182.119987 
L 872.466942 182.455524 
L 880.152893 182.863849 
L 887.838843 183.498947 
L 895.524793 184.39452 
L 903.210744 185.463988 
L 910.896694 186.500492 
L 918.582645 187.180772 
L 926.268595 187.668625 
L 933.954545 188.227159 
" clip-path="url(#p294e5309c2)" style="fill: none; stroke: #fda762; stroke-width: 1.5; stroke-linecap: square"/>
   </g>
   <g id="line2d_24">
    <path d="M 173.045455 615.6 
L 180.731405 613.414632 
L 188.417355 611.253047 
L 196.103306 609.114976 
L 203.789256 607.000153 
L 211.475207 604.908321 
L 219.161157 602.839229 
L 226.847107 600.79263 
L 234.533058 598.768274 
L 242.219008 596.765921 
L 249.904959 594.785335 
L 257.590909 592.826279 
L 265.27686 590.88852 
L 272.96281 588.971823 
L 280.64876 587.075964 
L 288.334711 585.200716 
L 296.020661 583.345859 
L 303.706612 581.511172 
L 311.392562 579.696434 
L 319.078512 577.901429 
L 326.764463 576.12594 
L 334.450413 574.369761 
L 342.136364 572.632683 
L 349.822314 570.914503 
L 357.508264 569.215015 
L 365.194215 567.534018 
L 372.880165 565.871307 
L 380.566116 564.226681 
L 388.252066 562.599943 
L 395.938017 560.990906 
L 403.623967 559.39938 
L 411.309917 557.825178 
L 418.995868 556.26811 
L 426.681818 554.727988 
L 434.367769 553.204625 
L 442.053719 551.697842 
L 449.739669 550.207464 
L 457.42562 548.733313 
L 465.11157 547.275214 
L 472.797521 545.832991 
L 480.483471 544.406471 
L 488.169421 542.995482 
L 495.855372 541.599859 
L 503.541322 540.219437 
L 511.227273 538.854054 
L 518.913223 537.503545 
L 526.599174 536.167748 
L 534.285124 534.846501 
L 541.971074 533.539645 
L 549.657025 532.247026 
L 557.342975 530.968494 
L 565.028926 529.703898 
L 572.714876 528.453087 
L 580.400826 527.21591 
L 588.086777 525.992216 
L 595.772727 524.781854 
L 603.458678 523.584682 
L 611.144628 522.400562 
L 618.830579 521.229356 
L 626.516529 520.070924 
L 634.202479 518.925126 
L 641.88843 517.791822 
L 649.57438 516.67087 
L 657.260331 515.56214 
L 664.946281 514.465504 
L 672.632231 513.380832 
L 680.318182 512.307995 
L 688.004132 511.246864 
L 695.690083 510.197307 
L 703.376033 509.159197 
L 711.061983 508.132413 
L 718.747934 507.116834 
L 726.433884 506.112341 
L 734.119835 505.118811 
L 741.805785 504.136125 
L 749.491736 503.164163 
L 757.177686 502.202806 
L 764.863636 501.251944 
L 772.549587 500.311465 
L 780.235537 499.381254 
L 787.921488 498.461202 
L 795.607438 497.551195 
L 803.293388 496.651123 
L 810.979339 495.760876 
L 818.665289 494.880351 
L 826.35124 494.009444 
L 834.03719 493.148053 
L 841.72314 492.296072 
L 849.409091 491.453399 
L 857.095041 490.61993 
L 864.780992 489.795561 
L 872.466942 488.980196 
L 880.152893 488.173741 
L 887.838843 487.376101 
L 895.524793 486.587181 
L 903.210744 485.806884 
L 910.896694 485.035113 
L 918.582645 484.271773 
L 926.268595 483.516774 
L 933.954545 482.770028 
" clip-path="url(#p294e5309c2)" style="fill: none; stroke: #6aaed6; stroke-width: 1.5; stroke-linecap: square"/>
   </g>
   <g id="line2d_25">
    <path d="M 173.045455 156.22457 
L 180.731405 149.454134 
L 188.417355 145.206596 
L 196.103306 142.66497 
L 203.789256 140.957198 
L 211.475207 139.845209 
L 219.161157 139.257949 
L 226.847107 138.966554 
L 234.533058 138.696813 
L 242.219008 138.521336 
L 249.904959 138.491828 
L 257.590909 138.584945 
L 265.27686 138.706968 
L 272.96281 138.741938 
L 280.64876 138.763833 
L 288.334711 138.856475 
L 296.020661 139.053879 
L 303.706612 139.341875 
L 311.392562 139.658111 
L 319.078512 139.891934 
L 326.764463 139.921815 
L 334.450413 139.899489 
L 342.136364 140.008445 
L 349.822314 140.343204 
L 357.508264 140.909314 
L 365.194215 141.623353 
L 372.880165 142.312929 
L 380.566116 142.716677 
L 388.252066 142.759118 
L 395.938017 142.830163 
L 403.623967 143.098291 
L 411.309917 143.607721 
L 418.995868 144.280408 
L 426.681818 144.916047 
L 434.367769 145.255942 
L 442.053719 145.506603 
L 449.739669 145.851542 
L 457.42562 146.354235 
L 465.11157 146.997084 
L 472.797521 147.681412 
L 480.483471 148.228031 
L 488.169421 148.579712 
L 495.855372 148.935017 
L 503.541322 149.418697 
L 511.227273 150.076516 
L 518.913223 150.875253 
L 526.599174 151.702704 
L 534.285124 152.367676 
L 541.971074 152.726291 
L 549.657025 153.016454 
L 557.342975 153.454908 
L 565.028926 154.145008 
L 572.714876 155.077191 
L 580.400826 156.12898 
L 588.086777 157.064981 
L 595.772727 157.568759 
L 603.458678 157.806549 
L 611.144628 158.137935 
L 618.830579 158.744885 
L 626.516529 159.661556 
L 634.202479 160.774301 
L 641.88843 161.821667 
L 649.57438 162.41946 
L 657.260331 162.747805 
L 664.946281 163.167345 
L 672.632231 163.813086 
L 680.318182 164.69365 
L 688.004132 165.69127 
L 695.690083 166.561797 
L 703.376033 167.084624 
L 711.061983 167.557879 
L 718.747934 168.141657 
L 726.433884 168.89208 
L 734.119835 169.778529 
L 741.805785 170.683642 
L 749.491736 171.405137 
L 757.177686 171.923249 
L 764.863636 172.450421 
L 772.549587 173.097028 
L 780.235537 173.898717 
L 787.921488 174.816403 
L 795.607438 175.736268 
L 803.293388 176.469871 
L 810.979339 176.944635 
L 818.665289 177.392639 
L 826.35124 177.974623 
L 834.03719 178.759338 
L 841.72314 179.723548 
L 849.409091 180.752026 
L 857.095041 181.63756 
L 864.780992 182.140613 
L 872.466942 182.468084 
L 880.152893 182.896363 
L 887.838843 183.565852 
L 895.524793 184.493989 
L 903.210744 185.575252 
L 910.896694 186.581156 
L 918.582645 187.188741 
L 926.268595 187.684555 
L 933.954545 188.246878 
" clip-path="url(#p294e5309c2)" style="fill: none; stroke: #fd8c3b; stroke-width: 1.5; stroke-linecap: square"/>
   </g>
   <g id="line2d_26">
    <path d="M 173.045455 615.6 
L 180.731405 613.874976 
L 188.417355 612.150417 
L 196.103306 610.426321 
L 203.789256 608.702689 
L 211.475207 606.979521 
L 219.161157 605.256817 
L 226.847107 603.534576 
L 234.533058 601.812798 
L 242.219008 600.091483 
L 249.904959 598.370632 
L 257.590909 596.650244 
L 265.27686 594.930318 
L 272.96281 593.210856 
L 280.64876 591.491856 
L 288.334711 589.773318 
L 296.020661 588.055244 
L 303.706612 586.337632 
L 311.392562 584.620485 
L 319.078512 582.903801 
L 326.764463 581.187583 
L 334.450413 579.471832 
L 342.136364 577.756551 
L 349.822314 576.041746 
L 357.508264 574.327423 
L 365.194215 572.61359 
L 372.880165 570.90026 
L 380.566116 569.18745 
L 388.252066 567.475182 
L 395.938017 565.763489 
L 403.623967 564.052413 
L 411.309917 562.342007 
L 418.995868 560.63234 
L 426.681818 558.923501 
L 434.367769 557.215608 
L 442.053719 555.508809 
L 449.739669 553.803286 
L 457.42562 552.099267 
L 465.11157 550.397023 
L 472.797521 548.696906 
L 480.483471 546.999349 
L 488.169421 545.304869 
L 495.855372 543.614069 
L 503.541322 541.927686 
L 511.227273 540.246581 
L 518.913223 538.571777 
L 526.599174 536.90446 
L 534.285124 535.245984 
L 541.971074 533.59789 
L 549.657025 531.961923 
L 557.342975 530.340005 
L 565.028926 528.73423 
L 572.714876 527.146867 
L 580.400826 525.580303 
L 588.086777 524.03706 
L 595.772727 522.519643 
L 603.458678 521.030517 
L 611.144628 519.572105 
L 618.830579 518.146682 
L 626.516529 516.756307 
L 634.202479 515.402758 
L 641.88843 514.087484 
L 649.57438 512.811597 
L 657.260331 511.575882 
L 664.946281 510.38076 
L 672.632231 509.226267 
L 680.318182 508.112167 
L 688.004132 507.037971 
L 695.690083 506.002932 
L 703.376033 505.006061 
L 711.061983 504.046248 
L 718.747934 503.122239 
L 726.433884 502.232724 
L 734.119835 501.376351 
L 741.805785 500.551724 
L 749.491736 499.757416 
L 757.177686 498.992039 
L 764.863636 498.254227 
L 772.549587 497.542655 
L 780.235537 496.856043 
L 787.921488 496.193157 
L 795.607438 495.552811 
L 803.293388 494.933881 
L 810.979339 494.3353 
L 818.665289 493.756055 
L 826.35124 493.195187 
L 834.03719 492.651787 
L 841.72314 492.125001 
L 849.409091 491.614022 
L 857.095041 491.118093 
L 864.780992 490.636499 
L 872.466942 490.168562 
L 880.152893 489.713648 
L 887.838843 489.27116 
L 895.524793 488.840536 
L 903.210744 488.421246 
L 910.896694 488.012792 
L 918.582645 487.614699 
L 926.268595 487.226524 
L 933.954545 486.847849 
" clip-path="url(#p294e5309c2)" style="fill: none; stroke: #4a98c9; stroke-width: 1.5; stroke-linecap: square"/>
   </g>
   <g id="line2d_27">
    <path d="M 173.045455 156.22457 
L 180.731405 148.127932 
L 188.417355 143.339056 
L 196.103306 141.266333 
L 203.789256 140.055477 
L 211.475207 139.031065 
L 219.161157 138.512519 
L 226.847107 138.237778 
L 234.533058 137.981858 
L 242.219008 137.843956 
L 249.904959 137.85015 
L 257.590909 137.906318 
L 265.27686 137.841941 
L 272.96281 137.7314 
L 280.64876 137.682331 
L 288.334711 137.729394 
L 296.020661 137.841726 
L 303.706612 137.922942 
L 311.392562 137.801571 
L 319.078512 137.479891 
L 326.764463 137.241374 
L 334.450413 137.255679 
L 342.136364 137.555514 
L 349.822314 138.036632 
L 357.508264 138.457835 
L 365.194215 138.441356 
L 372.880165 138.023822 
L 380.566116 137.749574 
L 388.252066 137.783362 
L 395.938017 138.046187 
L 403.623967 138.215296 
L 411.309917 138.057151 
L 418.995868 137.947437 
L 426.681818 138.008501 
L 434.367769 138.226702 
L 442.053719 138.457566 
L 449.739669 138.464684 
L 457.42562 138.386781 
L 465.11157 138.53954 
L 472.797521 139.048723 
L 480.483471 139.84313 
L 488.169421 140.654608 
L 495.855372 141.091767 
L 503.541322 141.474176 
L 511.227273 142.228291 
L 518.913223 143.44187 
L 526.599174 144.898808 
L 534.285124 146.133562 
L 541.971074 147.302415 
L 549.657025 148.816031 
L 557.342975 150.757259 
L 565.028926 152.905094 
L 572.714876 154.78094 
L 580.400826 156.491341 
L 588.086777 158.355154 
L 595.772727 160.433981 
L 603.458678 162.588428 
L 611.144628 164.481101 
L 618.830579 166.109115 
L 626.516529 167.675974 
L 634.202479 169.174156 
L 641.88843 170.585885 
L 649.57438 171.883133 
L 657.260331 173.049477 
L 664.946281 174.20182 
L 672.632231 175.208707 
L 680.318182 175.979178 
L 688.004132 176.542958 
L 695.690083 177.050456 
L 703.376033 177.744958 
L 711.061983 178.534591 
L 718.747934 179.145603 
L 726.433884 179.472495 
L 734.119835 179.581316 
L 741.805785 179.709659 
L 749.491736 180.189093 
L 757.177686 180.795613 
L 764.863636 181.208433 
L 772.549587 181.312015 
L 780.235537 181.182681 
L 787.921488 181.088609 
L 795.607438 181.422084 
L 803.293388 181.942466 
L 810.979339 182.282951 
L 818.665289 182.312316 
L 826.35124 182.101793 
L 834.03719 181.925067 
L 841.72314 182.18388 
L 849.409091 182.617685 
L 857.095041 182.884031 
L 864.780992 182.871592 
L 872.466942 182.655301 
L 880.152893 182.496343 
L 887.838843 182.737934 
L 895.524793 183.095498 
L 903.210744 183.29177 
L 910.896694 183.241577 
L 918.582645 183.022942 
L 926.268595 182.877087 
L 933.954545 183.044875 
" clip-path="url(#p294e5309c2)" style="fill: none; stroke: #f3701b; stroke-width: 1.5; stroke-linecap: square"/>
   </g>
   <g id="line2d_28">
    <path d="M 173.045455 615.6 
L 180.731405 613.600918 
L 188.417355 611.609273 
L 196.103306 609.625038 
L 203.789256 607.648191 
L 211.475207 605.678709 
L 219.161157 603.716579 
L 226.847107 601.761792 
L 234.533058 599.81435 
L 242.219008 597.874267 
L 249.904959 595.941567 
L 257.590909 594.016293 
L 265.27686 592.098504 
L 272.96281 590.18828 
L 280.64876 588.285722 
L 288.334711 586.390952 
L 296.020661 584.504118 
L 303.706612 582.625399 
L 311.392562 580.755003 
L 319.078512 578.893168 
L 326.764463 577.040162 
L 334.450413 575.196284 
L 342.136364 573.36187 
L 349.822314 571.537293 
L 357.508264 569.722957 
L 365.194215 567.919298 
L 372.880165 566.126785 
L 380.566116 564.345923 
L 388.252066 562.577246 
L 395.938017 560.821316 
L 403.623967 559.078724 
L 411.309917 557.350083 
L 418.995868 555.636021 
L 426.681818 553.93718 
L 434.367769 552.254215 
L 442.053719 550.587791 
L 449.739669 548.938571 
L 457.42562 547.307221 
L 465.11157 545.694391 
L 472.797521 544.100713 
L 480.483471 542.5268 
L 488.169421 540.973243 
L 495.855372 539.440609 
L 503.541322 537.929423 
L 511.227273 536.440181 
L 518.913223 534.973328 
L 526.599174 533.529269 
L 534.285124 532.108358 
L 541.971074 530.710907 
L 549.657025 529.337177 
L 557.342975 527.987378 
L 565.028926 526.661668 
L 572.714876 525.360156 
L 580.400826 524.082908 
L 588.086777 522.829937 
L 595.772727 521.601212 
L 603.458678 520.39666 
L 611.144628 519.216164 
L 618.830579 518.059571 
L 626.516529 516.926695 
L 634.202479 515.817319 
L 641.88843 514.731193 
L 649.57438 513.668037 
L 657.260331 512.627553 
L 664.946281 511.609417 
L 672.632231 510.613291 
L 680.318182 509.63882 
L 688.004132 508.685638 
L 695.690083 507.753363 
L 703.376033 506.841606 
L 711.061983 505.94997 
L 718.747934 505.078055 
L 726.433884 504.225457 
L 734.119835 503.391771 
L 741.805785 502.576591 
L 749.491736 501.779509 
L 757.177686 501.000121 
L 764.863636 500.238025 
L 772.549587 499.492823 
L 780.235537 498.764124 
L 787.921488 498.051538 
L 795.607438 497.354683 
L 803.293388 496.67318 
L 810.979339 496.006661 
L 818.665289 495.354761 
L 826.35124 494.717124 
L 834.03719 494.093401 
L 841.72314 493.483251 
L 849.409091 492.886338 
L 857.095041 492.302335 
L 864.780992 491.730924 
L 872.466942 491.171793 
L 880.152893 490.624639 
L 887.838843 490.089165 
L 895.524793 489.565082 
L 903.210744 489.052109 
L 910.896694 488.54997 
L 918.582645 488.0584 
L 926.268595 487.577139 
L 933.954545 487.105934 
" clip-path="url(#p294e5309c2)" style="fill: none; stroke: #2e7ebc; stroke-width: 1.5; stroke-linecap: square"/>
   </g>
   <g id="line2d_29">
    <path d="M 173.045455 156.22457 
L 180.731405 150.876948 
L 188.417355 147.530013 
L 196.103306 145.631497 
L 203.789256 144.395771 
L 211.475207 143.507034 
L 219.161157 143.006483 
L 226.847107 142.77522 
L 234.533058 142.582552 
L 242.219008 142.390189 
L 249.904959 142.281886 
L 257.590909 142.272596 
L 265.27686 142.321543 
L 272.96281 142.332357 
L 280.64876 142.25471 
L 288.334711 142.176387 
L 296.020661 142.154151 
L 303.706612 142.209706 
L 311.392562 142.329692 
L 319.078512 142.465688 
L 326.764463 142.53421 
L 334.450413 142.444802 
L 342.136364 142.294697 
L 349.822314 142.226241 
L 357.508264 142.314959 
L 365.194215 142.569082 
L 372.880165 142.92955 
L 380.566116 143.270013 
L 388.252066 143.396835 
L 395.938017 143.268348 
L 403.623967 143.161384 
L 411.309917 143.23286 
L 418.995868 143.52994 
L 426.681818 143.990033 
L 434.367769 144.440795 
L 442.053719 144.617054 
L 449.739669 144.601994 
L 457.42562 144.668711 
L 465.11157 144.946976 
L 472.797521 145.453064 
L 480.483471 146.089756 
L 488.169421 146.646337 
L 495.855372 146.871022 
L 503.541322 146.974283 
L 511.227273 147.220298 
L 518.913223 147.730656 
L 526.599174 148.495334 
L 534.285124 149.372696 
L 541.971074 150.089493 
L 549.657025 150.397229 
L 557.342975 150.631498 
L 565.028926 151.057195 
L 572.714876 151.780162 
L 580.400826 152.756618 
L 588.086777 153.793156 
L 595.772727 154.546844 
L 603.458678 154.940258 
L 611.144628 155.372412 
L 618.830579 156.026678 
L 626.516529 156.945682 
L 634.202479 158.031305 
L 641.88843 159.044682 
L 649.57438 159.690013 
L 657.260331 160.217025 
L 664.946281 160.867849 
L 672.632231 161.734871 
L 680.318182 162.79138 
L 688.004132 163.891574 
L 695.690083 164.771538 
L 703.376033 165.382877 
L 711.061983 166.01418 
L 718.747934 166.81017 
L 726.433884 167.807351 
L 734.119835 168.934005 
L 741.805785 170.010196 
L 749.491736 170.779731 
L 757.177686 171.368897 
L 764.863636 172.030143 
L 772.549587 172.883481 
L 780.235537 173.93852 
L 787.921488 175.094457 
L 795.607438 176.140084 
L 803.293388 176.825194 
L 810.979339 177.36791 
L 818.665289 178.011911 
L 826.35124 178.866405 
L 834.03719 179.924607 
L 841.72314 181.063734 
L 849.409091 182.045013 
L 857.095041 182.64355 
L 864.780992 183.15026 
L 872.466942 183.779327 
L 880.152893 184.617983 
L 887.838843 185.639751 
L 895.524793 186.704454 
L 903.210744 187.558208 
L 910.896694 188.161345 
L 918.582645 188.815506 
L 926.268595 189.513237 
L 933.954545 190.222992 
" clip-path="url(#p294e5309c2)" style="fill: none; stroke: #e25508; stroke-width: 1.5; stroke-linecap: square"/>
   </g>
   <g id="line2d_30">
    <path d="M 173.045455 615.6 
L 180.731405 613.39207 
L 188.417355 611.213979 
L 196.103306 609.064935 
L 203.789256 606.94411 
L 211.475207 604.850621 
L 219.161157 602.78389 
L 226.847107 600.743366 
L 234.533058 598.728508 
L 242.219008 596.738784 
L 249.904959 594.773672 
L 257.590909 592.832656 
L 265.27686 590.915234 
L 272.96281 589.020907 
L 280.64876 587.14919 
L 288.334711 585.299605 
L 296.020661 583.471682 
L 303.706612 581.664963 
L 311.392562 579.878996 
L 319.078512 578.113339 
L 326.764463 576.36756 
L 334.450413 574.641235 
L 342.136364 572.93395 
L 349.822314 571.245299 
L 357.508264 569.574884 
L 365.194215 567.922295 
L 372.880165 566.287249 
L 380.566116 564.669532 
L 388.252066 563.068932 
L 395.938017 561.485234 
L 403.623967 559.918223 
L 411.309917 558.367685 
L 418.995868 556.833404 
L 426.681818 555.315167 
L 434.367769 553.812756 
L 442.053719 552.325958 
L 449.739669 550.854555 
L 457.42562 549.398332 
L 465.11157 547.957072 
L 472.797521 546.530559 
L 480.483471 545.118576 
L 488.169421 543.720905 
L 495.855372 542.33733 
L 503.541322 540.967632 
L 511.227273 539.611594 
L 518.913223 538.268998 
L 526.599174 536.939625 
L 534.285124 535.623256 
L 541.971074 534.319674 
L 549.657025 533.028658 
L 557.342975 531.749989 
L 565.028926 530.483448 
L 572.714876 529.228815 
L 580.400826 527.985869 
L 588.086777 526.754391 
L 595.772727 525.53429 
L 603.458678 524.325599 
L 611.144628 523.128218 
L 618.830579 521.942042 
L 626.516529 520.766969 
L 634.202479 519.602895 
L 641.88843 518.449717 
L 649.57438 517.307333 
L 657.260331 516.175638 
L 664.946281 515.054528 
L 672.632231 513.943901 
L 680.318182 512.843652 
L 688.004132 511.753678 
L 695.690083 510.673875 
L 703.376033 509.604139 
L 711.061983 508.544365 
L 718.747934 507.49445 
L 726.433884 506.45429 
L 734.119835 505.423779 
L 741.805785 504.402814 
L 749.491736 503.39129 
L 757.177686 502.389102 
L 764.863636 501.396146 
L 772.549587 500.412317 
L 780.235537 499.437511 
L 787.921488 498.471621 
L 795.607438 497.514543 
L 803.293388 496.566172 
L 810.979339 495.626403 
L 818.665289 494.69513 
L 826.35124 493.772249 
L 834.03719 492.857652 
L 841.72314 491.951236 
L 849.409091 491.052893 
L 857.095041 490.162519 
L 864.780992 489.280008 
L 872.466942 488.405253 
L 880.152893 487.538149 
L 887.838843 486.678659 
L 895.524793 485.826873 
L 903.210744 484.982726 
L 910.896694 484.146145 
L 918.582645 483.317057 
L 926.268595 482.495391 
L 933.954545 481.681076 
" clip-path="url(#p294e5309c2)" style="fill: none; stroke: #1764ab; stroke-width: 1.5; stroke-linecap: square"/>
   </g>
   <g id="line2d_31">
    <path d="M 173.045455 156.22457 
L 180.731405 154.271313 
L 188.417355 152.482408 
L 196.103306 150.845783 
L 203.789256 149.351116 
L 211.475207 147.988305 
L 219.161157 146.75088 
L 226.847107 145.632777 
L 234.533058 144.628115 
L 242.219008 143.731197 
L 249.904959 142.936511 
L 257.590909 142.238727 
L 265.27686 141.632701 
L 272.96281 141.113472 
L 280.64876 140.676262 
L 288.334711 140.316478 
L 296.020661 140.029712 
L 303.706612 139.811737 
L 311.392562 139.658512 
L 319.078512 139.56618 
L 326.764463 139.531067 
L 334.450413 139.549683 
L 342.136364 139.618723 
L 349.822314 139.735065 
L 357.508264 139.895764 
L 365.194215 140.096946 
L 372.880165 140.335848 
L 380.566116 140.610896 
L 388.252066 140.920537 
L 395.938017 141.263235 
L 403.623967 141.637475 
L 411.309917 142.041763 
L 418.995868 142.474622 
L 426.681818 142.934597 
L 434.367769 143.420249 
L 442.053719 143.930164 
L 449.739669 144.462943 
L 457.42562 145.017208 
L 465.11157 145.591601 
L 472.797521 146.184784 
L 480.483471 146.795438 
L 488.169421 147.422263 
L 495.855372 148.063979 
L 503.541322 148.719327 
L 511.227273 149.387066 
L 518.913223 150.065975 
L 526.599174 150.754852 
L 534.285124 151.452515 
L 541.971074 152.157803 
L 549.657025 152.869573 
L 557.342975 153.586702 
L 565.028926 154.308087 
L 572.714876 155.032643 
L 580.400826 155.759307 
L 588.086777 156.487034 
L 595.772727 157.215494 
L 603.458678 157.945156 
L 611.144628 158.675848 
L 618.830579 159.407394 
L 626.516529 160.139615 
L 634.202479 160.872327 
L 641.88843 161.605347 
L 649.57438 162.338487 
L 657.260331 163.071559 
L 664.946281 163.80437 
L 672.632231 164.536727 
L 680.318182 165.268433 
L 688.004132 165.999289 
L 695.690083 166.729095 
L 703.376033 167.457646 
L 711.061983 168.184738 
L 718.747934 168.91016 
L 726.433884 169.633704 
L 734.119835 170.355155 
L 741.805785 171.074299 
L 749.491736 171.790917 
L 757.177686 172.50479 
L 764.863636 173.215695 
L 772.549587 173.923407 
L 780.235537 174.627699 
L 787.921488 175.328341 
L 795.607438 176.0251 
L 803.293388 176.717744 
L 810.979339 177.406034 
L 818.665289 178.089732 
L 826.35124 178.768596 
L 834.03719 179.442382 
L 841.72314 180.110844 
L 849.409091 180.773734 
L 857.095041 181.430799 
L 864.780992 182.081788 
L 872.466942 182.726443 
L 880.152893 183.364507 
L 887.838843 183.996263 
L 895.524793 184.622989 
L 903.210744 185.24473 
L 910.896694 185.861459 
L 918.582645 186.473155 
L 926.268595 187.0798 
L 933.954545 187.68138 
" clip-path="url(#p294e5309c2)" style="fill: none; stroke: #c54102; stroke-width: 1.5; stroke-linecap: square"/>
   </g>
   <g id="line2d_32">
    <path d="M 173.045455 615.6 
L 180.731405 613.384898 
L 188.417355 611.196085 
L 196.103306 609.032739 
L 203.789256 606.894461 
L 211.475207 604.780872 
L 219.161157 602.691687 
L 226.847107 600.626609 
L 234.533058 598.585315 
L 242.219008 596.567582 
L 249.904959 594.573142 
L 257.590909 592.601661 
L 265.27686 590.652882 
L 272.96281 588.726634 
L 280.64876 586.822635 
L 288.334711 584.940497 
L 296.020661 583.080039 
L 303.706612 581.241113 
L 311.392562 579.423368 
L 319.078512 577.626489 
L 326.764463 575.850386 
L 334.450413 574.094794 
L 342.136364 572.359329 
L 349.822314 570.643877 
L 357.508264 568.948276 
L 365.194215 567.272159 
L 372.880165 565.61526 
L 380.566116 563.977537 
L 388.252066 562.358728 
L 395.938017 560.758419 
L 403.623967 559.176553 
L 411.309917 557.613001 
L 418.995868 556.067377 
L 426.681818 554.539473 
L 434.367769 553.029239 
L 442.053719 551.536385 
L 449.739669 550.060605 
L 457.42562 548.601855 
L 465.11157 547.159928 
L 472.797521 545.734485 
L 480.483471 544.325439 
L 488.169421 542.932666 
L 495.855372 541.555856 
L 503.541322 540.19479 
L 511.227273 538.849443 
L 518.913223 537.519598 
L 526.599174 536.204902 
L 534.285124 534.90532 
L 541.971074 533.62076 
L 549.657025 532.350892 
L 557.342975 531.095526 
L 565.028926 529.854653 
L 572.714876 528.628045 
L 580.400826 527.415408 
L 588.086777 526.21673 
L 595.772727 525.03186 
L 603.458678 523.860504 
L 611.144628 522.702578 
L 618.830579 521.558001 
L 626.516529 520.426528 
L 634.202479 519.307955 
L 641.88843 518.20227 
L 649.57438 517.109313 
L 657.260331 516.028791 
L 664.946281 514.960645 
L 672.632231 513.904834 
L 680.318182 512.861113 
L 688.004132 511.829252 
L 695.690083 510.809282 
L 703.376033 509.80106 
L 711.061983 508.804297 
L 718.747934 507.818961 
L 726.433884 506.844984 
L 734.119835 505.882133 
L 741.805785 504.930268 
L 749.491736 503.989367 
L 757.177686 503.059267 
L 764.863636 502.139745 
L 772.549587 501.230784 
L 780.235537 500.332299 
L 787.921488 499.444067 
L 795.607438 498.565955 
L 803.293388 497.697971 
L 810.979339 496.839975 
L 818.665289 495.991714 
L 826.35124 495.153173 
L 834.03719 494.324322 
L 841.72314 493.504946 
L 849.409091 492.694883 
L 857.095041 491.894159 
L 864.780992 491.102649 
L 872.466942 490.320132 
L 880.152893 489.546595 
L 887.838843 488.781975 
L 895.524793 488.026086 
L 903.210744 487.27882 
L 910.896694 486.540168 
L 918.582645 485.810006 
L 926.268595 485.088159 
L 933.954545 484.374592 
" clip-path="url(#p294e5309c2)" style="fill: none; stroke: #084a91; stroke-width: 1.5; stroke-linecap: square"/>
   </g>
   <g id="line2d_33">
    <path d="M 173.045455 156.22457 
L 180.731405 145.894877 
L 188.417355 142.710343 
L 196.103306 141.15344 
L 203.789256 140.569849 
L 211.475207 140.231642 
L 219.161157 140.166434 
L 226.847107 140.232276 
L 234.533058 140.053653 
L 242.219008 140.070985 
L 249.904959 140.312155 
L 257.590909 140.243708 
L 265.27686 139.927287 
L 272.96281 140.147483 
L 280.64876 140.712973 
L 288.334711 140.534414 
L 296.020661 140.227901 
L 303.706612 140.668272 
L 311.392562 140.983745 
L 319.078512 140.599038 
L 326.764463 140.805695 
L 334.450413 141.404772 
L 342.136364 141.155609 
L 349.822314 141.084227 
L 357.508264 141.781881 
L 365.194215 142.096261 
L 372.880165 141.695141 
L 380.566116 142.132197 
L 388.252066 143.070156 
L 395.938017 142.840356 
L 403.623967 142.82804 
L 411.309917 143.760254 
L 418.995868 144.128065 
L 426.681818 143.965454 
L 434.367769 144.627782 
L 442.053719 145.369873 
L 449.739669 145.290326 
L 457.42562 145.761941 
L 465.11157 146.684585 
L 472.797521 146.814922 
L 480.483471 147.076733 
L 488.169421 148.054271 
L 495.855372 148.681365 
L 503.541322 148.669538 
L 511.227273 149.427044 
L 518.913223 150.635564 
L 526.599174 150.7533 
L 534.285124 151.052826 
L 541.971074 152.279831 
L 549.657025 153.028748 
L 557.342975 153.113589 
L 565.028926 154.01041 
L 572.714876 155.14017 
L 580.400826 155.330808 
L 588.086777 155.972689 
L 595.772727 157.149834 
L 603.458678 157.617513 
L 611.144628 158.055105 
L 618.830579 159.161535 
L 626.516529 160.075079 
L 634.202479 160.296141 
L 641.88843 161.129932 
L 649.57438 162.46428 
L 657.260331 162.888958 
L 664.946281 163.239636 
L 672.632231 164.480066 
L 680.318182 165.596215 
L 688.004132 165.731167 
L 695.690083 166.52019 
L 703.376033 167.875172 
L 711.061983 168.299772 
L 718.747934 168.777977 
L 726.433884 169.94458 
L 734.119835 170.749243 
L 741.805785 171.090259 
L 749.491736 172.013231 
L 757.177686 173.136823 
L 764.863636 173.461571 
L 772.549587 174.049815 
L 780.235537 175.256246 
L 787.921488 176.031641 
L 795.607438 176.213617 
L 803.293388 177.098892 
L 810.979339 178.424463 
L 818.665289 178.735812 
L 826.35124 179.067114 
L 834.03719 180.249472 
L 841.72314 181.191102 
L 849.409091 181.319154 
L 857.095041 182.064397 
L 864.780992 183.21151 
L 872.466942 183.524162 
L 880.152893 183.976269 
L 887.838843 184.991964 
L 895.524793 185.649715 
L 903.210744 185.888859 
L 910.896694 186.661458 
L 918.582645 187.692873 
L 926.268595 188.126251 
L 933.954545 188.636674 
" clip-path="url(#p294e5309c2)" style="fill: none; stroke: #9e3303; stroke-width: 1.5; stroke-linecap: square"/>
   </g>
   <g id="line2d_34">
    <path d="M 173.045455 615.6 
L 180.731405 613.434995 
L 188.417355 611.294201 
L 196.103306 609.177246 
L 203.789256 607.083748 
L 211.475207 605.013284 
L 219.161157 602.965546 
L 226.847107 600.940238 
L 234.533058 598.937067 
L 242.219008 596.955746 
L 249.904959 594.995988 
L 257.590909 593.057511 
L 265.27686 591.140036 
L 272.96281 589.243289 
L 280.64876 587.366995 
L 288.334711 585.510887 
L 296.020661 583.674698 
L 303.706612 581.858166 
L 311.392562 580.061032 
L 319.078512 578.28304 
L 326.764463 576.523938 
L 334.450413 574.783476 
L 342.136364 573.061409 
L 349.822314 571.357494 
L 357.508264 569.671491 
L 365.194215 568.003164 
L 372.880165 566.352281 
L 380.566116 564.718613 
L 388.252066 563.101932 
L 395.938017 561.502023 
L 403.623967 559.918699 
L 411.309917 558.351784 
L 418.995868 556.801105 
L 426.681818 555.266488 
L 434.367769 553.747762 
L 442.053719 552.244755 
L 449.739669 550.757298 
L 457.42562 549.285224 
L 465.11157 547.828363 
L 472.797521 546.386551 
L 480.483471 544.959623 
L 488.169421 543.547414 
L 495.855372 542.149762 
L 503.541322 540.766506 
L 511.227273 539.397486 
L 518.913223 538.042542 
L 526.599174 536.701516 
L 534.285124 535.374253 
L 541.971074 534.060595 
L 549.657025 532.76039 
L 557.342975 531.473483 
L 565.028926 530.199723 
L 572.714876 528.938959 
L 580.400826 527.69104 
L 588.086777 526.455819 
L 595.772727 525.233148 
L 603.458678 524.022881 
L 611.144628 522.824873 
L 618.830579 521.63898 
L 626.516529 520.465059 
L 634.202479 519.302969 
L 641.88843 518.152569 
L 649.57438 517.013728 
L 657.260331 515.886371 
L 664.946281 514.770391 
L 672.632231 513.665675 
L 680.318182 512.572112 
L 688.004132 511.48959 
L 695.690083 510.417999 
L 703.376033 509.357228 
L 711.061983 508.307168 
L 718.747934 507.267712 
L 726.433884 506.238752 
L 734.119835 505.220181 
L 741.805785 504.211895 
L 749.491736 503.213787 
L 757.177686 502.225755 
L 764.863636 501.247694 
L 772.549587 500.279502 
L 780.235537 499.321078 
L 787.921488 498.372321 
L 795.607438 497.433131 
L 803.293388 496.503408 
L 810.979339 495.583055 
L 818.665289 494.671974 
L 826.35124 493.770068 
L 834.03719 492.877241 
L 841.72314 491.993399 
L 849.409091 491.118446 
L 857.095041 490.25229 
L 864.780992 489.394838 
L 872.466942 488.545998 
L 880.152893 487.70568 
L 887.838843 486.873792 
L 895.524793 486.050246 
L 903.210744 485.234953 
L 910.896694 484.427826 
L 918.582645 483.628778 
L 926.268595 482.837721 
L 933.954545 482.054573 
" clip-path="url(#p294e5309c2)" style="fill: none; stroke: #08306b; stroke-width: 1.5; stroke-linecap: square"/>
   </g>
   <g id="line2d_35">
    <path d="M 173.045455 156.22457 
L 180.731405 154.235147 
L 188.417355 152.421616 
L 196.103306 150.766924 
L 203.789256 149.258051 
L 211.475207 147.881765 
L 219.161157 146.631375 
L 226.847107 145.500973 
L 234.533058 144.484816 
L 242.219008 143.577326 
L 249.904959 142.773093 
L 257.590909 142.066869 
L 265.27686 141.453574 
L 272.96281 140.928292 
L 280.64876 140.486274 
L 288.334711 140.122933 
L 296.020661 139.833852 
L 303.706612 139.614776 
L 311.392562 139.461617 
L 319.078512 139.370453 
L 326.764463 139.337525 
L 334.450413 139.359241 
L 342.136364 139.432176 
L 349.822314 139.553068 
L 357.508264 139.718821 
L 365.194215 139.926505 
L 372.880165 140.173355 
L 380.566116 140.456772 
L 388.252066 140.774322 
L 395.938017 141.123329 
L 403.623967 141.501477 
L 411.309917 141.907545 
L 418.995868 142.340343 
L 426.681818 142.798693 
L 434.367769 143.281429 
L 442.053719 143.787398 
L 449.739669 144.315462 
L 457.42562 144.864494 
L 465.11157 145.433381 
L 472.797521 146.021023 
L 480.483471 146.626333 
L 488.169421 147.248237 
L 495.855372 147.885674 
L 503.541322 148.537595 
L 511.227273 149.202967 
L 518.913223 149.880766 
L 526.599174 150.569985 
L 534.285124 151.269627 
L 541.971074 151.978709 
L 549.657025 152.696263 
L 557.342975 153.42133 
L 565.028926 154.152968 
L 572.714876 154.890246 
L 580.400826 155.632247 
L 588.086777 156.378065 
L 595.772727 157.126809 
L 603.458678 157.877601 
L 611.144628 158.629576 
L 618.830579 159.381881 
L 626.516529 160.133676 
L 634.202479 160.884136 
L 641.88843 161.632448 
L 649.57438 162.378069 
L 657.260331 163.122133 
L 664.946281 163.864761 
L 672.632231 164.605797 
L 680.318182 165.345085 
L 688.004132 166.082471 
L 695.690083 166.817801 
L 703.376033 167.550921 
L 711.061983 168.281681 
L 718.747934 169.009929 
L 726.433884 169.735515 
L 734.119835 170.458291 
L 741.805785 171.178109 
L 749.491736 171.894821 
L 757.177686 172.608282 
L 764.863636 173.318346 
L 772.549587 174.02487 
L 780.235537 174.727709 
L 787.921488 175.426723 
L 795.607438 176.121768 
L 803.293388 176.812706 
L 810.979339 177.499396 
L 818.665289 178.181701 
L 826.35124 178.859483 
L 834.03719 179.532605 
L 841.72314 180.200931 
L 849.409091 180.864327 
L 857.095041 181.52266 
L 864.780992 182.175797 
L 872.466942 182.823605 
L 880.152893 183.465954 
L 887.838843 184.102715 
L 895.524793 184.733757 
L 903.210744 185.358954 
L 910.896694 185.978179 
L 918.582645 186.591304 
L 926.268595 187.198206 
L 933.954545 187.798759 
" clip-path="url(#p294e5309c2)" style="fill: none; stroke: #7f2704; stroke-width: 1.5; stroke-linecap: square"/>
   </g>
   <g id="patch_3">
    <path d="M 135 640.8 
L 135 86.4 
" style="fill: none; stroke: #000000; stroke-width: 0.8; stroke-linejoin: miter; stroke-linecap: square"/>
   </g>
   <g id="patch_4">
    <path d="M 972 640.8 
L 972 86.4 
" style="fill: none; stroke: #000000; stroke-width: 0.8; stroke-linejoin: miter; stroke-linecap: square"/>
   </g>
   <g id="patch_5">
    <path d="M 135 640.8 
L 972 640.8 
" style="fill: none; stroke: #000000; stroke-width: 0.8; stroke-linejoin: miter; stroke-linecap: square"/>
   </g>
   <g id="patch_6">
    <path d="M 135 86.4 
L 972 86.4 
" style="fill: none; stroke: #000000; stroke-width: 0.8; stroke-linejoin: miter; stroke-linecap: square"/>
   </g>
   <g id="legend_1">
    <g id="patch_7">
     <path d="M 803.813437 749.8375 
L 956.6 749.8375 
Q 961 749.8375 961 745.4375 
L 961 101.8 
Q 961 97.4 956.6 97.4 
L 803.813437 97.4 
Q 799.413437 97.4 799.413437 101.8 
L 799.413437 745.4375 
Q 799.413437 749.8375 803.813437 749.8375 
z
" style="fill: #ffffff; opacity: 0.8; stroke: #cccccc; stroke-linejoin: miter"/>
    </g>
    <g id="PathCollection_3">
     <g>
      <use xlink:href="#m80f1702e56" x="830.213437" y="117.141563" style="fill: #1f77b4; stroke: #1f77b4"/>
     </g>
    </g>
    <g id="text_20">
     <!-- Xi -->
     <g transform="translate(869.813437 122.916563) scale(0.22 -0.22)">
      <use xlink:href="#DejaVuSans-58"/>
      <use xlink:href="#DejaVuSans-69" x="68.505859"/>
     </g>
    </g>
    <g id="PathCollection_4">
     <g>
      <use xlink:href="#m62fcbac0dc" x="830.213437" y="149.433438" style="fill: #ff7f0e; stroke: #ff7f0e"/>
     </g>
    </g>
    <g id="text_21">
     <!-- Xa -->
     <g transform="translate(869.813437 155.208438) scale(0.22 -0.22)">
      <use xlink:href="#DejaVuSans-58"/>
      <use xlink:href="#DejaVuSans-61" x="68.505859"/>
     </g>
    </g>
    <g id="line2d_36">
     <path d="M 808.213437 179.800313 
L 830.213437 179.800313 
L 852.213437 179.800313 
" style="fill: none; stroke: #d0e1f2; stroke-width: 1.5; stroke-linecap: square"/>
    </g>
    <g id="text_22">
     <!-- Xi-IIAA -->
     <g transform="translate(869.813437 187.500313) scale(0.22 -0.22)">
      <defs>
       <path id="DejaVuSans-2d" d="M 313 2009 
L 1997 2009 
L 1997 1497 
L 313 1497 
L 313 2009 
z
" transform="scale(0.015625)"/>
       <path id="DejaVuSans-49" d="M 628 4666 
L 1259 4666 
L 1259 0 
L 628 0 
L 628 4666 
z
" transform="scale(0.015625)"/>
      </defs>
      <use xlink:href="#DejaVuSans-58"/>
      <use xlink:href="#DejaVuSans-69" x="68.505859"/>
      <use xlink:href="#DejaVuSans-2d" x="96.289062"/>
      <use xlink:href="#DejaVuSans-49" x="132.373047"/>
      <use xlink:href="#DejaVuSans-49" x="161.865234"/>
      <use xlink:href="#DejaVuSans-41" x="191.357422"/>
      <use xlink:href="#DejaVuSans-41" x="262.515625"/>
     </g>
    </g>
    <g id="line2d_37">
     <path d="M 808.213437 212.092188 
L 830.213437 212.092188 
L 852.213437 212.092188 
" style="fill: none; stroke: #fdd9b4; stroke-width: 1.5; stroke-linecap: square"/>
    </g>
    <g id="text_23">
     <!-- Xa-IIAA -->
     <g transform="translate(869.813437 219.792188) scale(0.22 -0.22)">
      <use xlink:href="#DejaVuSans-58"/>
      <use xlink:href="#DejaVuSans-61" x="68.505859"/>
      <use xlink:href="#DejaVuSans-2d" x="129.785156"/>
      <use xlink:href="#DejaVuSans-49" x="165.869141"/>
      <use xlink:href="#DejaVuSans-49" x="195.361328"/>
      <use xlink:href="#DejaVuSans-41" x="224.853516"/>
      <use xlink:href="#DejaVuSans-41" x="296.011719"/>
     </g>
    </g>
    <g id="line2d_38">
     <path d="M 808.213437 244.384063 
L 830.213437 244.384063 
L 852.213437 244.384063 
" style="fill: none; stroke: #b7d4ea; stroke-width: 1.5; stroke-linecap: square"/>
    </g>
    <g id="text_24">
     <!-- Xi-IIAI -->
     <g transform="translate(869.813437 252.084063) scale(0.22 -0.22)">
      <use xlink:href="#DejaVuSans-58"/>
      <use xlink:href="#DejaVuSans-69" x="68.505859"/>
      <use xlink:href="#DejaVuSans-2d" x="96.289062"/>
      <use xlink:href="#DejaVuSans-49" x="132.373047"/>
      <use xlink:href="#DejaVuSans-49" x="161.865234"/>
      <use xlink:href="#DejaVuSans-41" x="191.357422"/>
      <use xlink:href="#DejaVuSans-49" x="259.765625"/>
     </g>
    </g>
    <g id="line2d_39">
     <path d="M 808.213437 276.675938 
L 830.213437 276.675938 
L 852.213437 276.675938 
" style="fill: none; stroke: #fdc38d; stroke-width: 1.5; stroke-linecap: square"/>
    </g>
    <g id="text_25">
     <!-- Xa-IIAI -->
     <g transform="translate(869.813437 284.375938) scale(0.22 -0.22)">
      <use xlink:href="#DejaVuSans-58"/>
      <use xlink:href="#DejaVuSans-61" x="68.505859"/>
      <use xlink:href="#DejaVuSans-2d" x="129.785156"/>
      <use xlink:href="#DejaVuSans-49" x="165.869141"/>
      <use xlink:href="#DejaVuSans-49" x="195.361328"/>
      <use xlink:href="#DejaVuSans-41" x="224.853516"/>
      <use xlink:href="#DejaVuSans-49" x="293.261719"/>
     </g>
    </g>
    <g id="line2d_40">
     <path d="M 808.213437 308.967813 
L 830.213437 308.967813 
L 852.213437 308.967813 
" style="fill: none; stroke: #94c4df; stroke-width: 1.5; stroke-linecap: square"/>
    </g>
    <g id="text_26">
     <!-- Xi-IIAN -->
     <g transform="translate(869.813437 316.667813) scale(0.22 -0.22)">
      <defs>
       <path id="DejaVuSans-4e" d="M 628 4666 
L 1478 4666 
L 3547 763 
L 3547 4666 
L 4159 4666 
L 4159 0 
L 3309 0 
L 1241 3903 
L 1241 0 
L 628 0 
L 628 4666 
z
" transform="scale(0.015625)"/>
      </defs>
      <use xlink:href="#DejaVuSans-58"/>
      <use xlink:href="#DejaVuSans-69" x="68.505859"/>
      <use xlink:href="#DejaVuSans-2d" x="96.289062"/>
      <use xlink:href="#DejaVuSans-49" x="132.373047"/>
      <use xlink:href="#DejaVuSans-49" x="161.865234"/>
      <use xlink:href="#DejaVuSans-41" x="191.357422"/>
      <use xlink:href="#DejaVuSans-4e" x="259.765625"/>
     </g>
    </g>
    <g id="line2d_41">
     <path d="M 808.213437 341.259688 
L 830.213437 341.259688 
L 852.213437 341.259688 
" style="fill: none; stroke: #fda762; stroke-width: 1.5; stroke-linecap: square"/>
    </g>
    <g id="text_27">
     <!-- Xa-IIAN -->
     <g transform="translate(869.813437 348.959688) scale(0.22 -0.22)">
      <use xlink:href="#DejaVuSans-58"/>
      <use xlink:href="#DejaVuSans-61" x="68.505859"/>
      <use xlink:href="#DejaVuSans-2d" x="129.785156"/>
      <use xlink:href="#DejaVuSans-49" x="165.869141"/>
      <use xlink:href="#DejaVuSans-49" x="195.361328"/>
      <use xlink:href="#DejaVuSans-41" x="224.853516"/>
      <use xlink:href="#DejaVuSans-4e" x="293.261719"/>
     </g>
    </g>
    <g id="line2d_42">
     <path d="M 808.213437 373.551563 
L 830.213437 373.551563 
L 852.213437 373.551563 
" style="fill: none; stroke: #6aaed6; stroke-width: 1.5; stroke-linecap: square"/>
    </g>
    <g id="text_28">
     <!-- Xi-IIIA -->
     <g transform="translate(869.813437 381.251563) scale(0.22 -0.22)">
      <use xlink:href="#DejaVuSans-58"/>
      <use xlink:href="#DejaVuSans-69" x="68.505859"/>
      <use xlink:href="#DejaVuSans-2d" x="96.289062"/>
      <use xlink:href="#DejaVuSans-49" x="132.373047"/>
      <use xlink:href="#DejaVuSans-49" x="161.865234"/>
      <use xlink:href="#DejaVuSans-49" x="191.357422"/>
      <use xlink:href="#DejaVuSans-41" x="220.849609"/>
     </g>
    </g>
    <g id="line2d_43">
     <path d="M 808.213437 405.843438 
L 830.213437 405.843438 
L 852.213437 405.843438 
" style="fill: none; stroke: #fd8c3b; stroke-width: 1.5; stroke-linecap: square"/>
    </g>
    <g id="text_29">
     <!-- Xa-IIIA -->
     <g transform="translate(869.813437 413.543438) scale(0.22 -0.22)">
      <use xlink:href="#DejaVuSans-58"/>
      <use xlink:href="#DejaVuSans-61" x="68.505859"/>
      <use xlink:href="#DejaVuSans-2d" x="129.785156"/>
      <use xlink:href="#DejaVuSans-49" x="165.869141"/>
      <use xlink:href="#DejaVuSans-49" x="195.361328"/>
      <use xlink:href="#DejaVuSans-49" x="224.853516"/>
      <use xlink:href="#DejaVuSans-41" x="254.345703"/>
     </g>
    </g>
    <g id="line2d_44">
     <path d="M 808.213437 438.135313 
L 830.213437 438.135313 
L 852.213437 438.135313 
" style="fill: none; stroke: #4a98c9; stroke-width: 1.5; stroke-linecap: square"/>
    </g>
    <g id="text_30">
     <!-- Xi-IIII -->
     <g transform="translate(869.813437 445.835313) scale(0.22 -0.22)">
      <use xlink:href="#DejaVuSans-58"/>
      <use xlink:href="#DejaVuSans-69" x="68.505859"/>
      <use xlink:href="#DejaVuSans-2d" x="96.289062"/>
      <use xlink:href="#DejaVuSans-49" x="132.373047"/>
      <use xlink:href="#DejaVuSans-49" x="161.865234"/>
      <use xlink:href="#DejaVuSans-49" x="191.357422"/>
      <use xlink:href="#DejaVuSans-49" x="220.849609"/>
     </g>
    </g>
    <g id="line2d_45">
     <path d="M 808.213437 470.427188 
L 830.213437 470.427188 
L 852.213437 470.427188 
" style="fill: none; stroke: #f3701b; stroke-width: 1.5; stroke-linecap: square"/>
    </g>
    <g id="text_31">
     <!-- Xa-IIII -->
     <g transform="translate(869.813437 478.127188) scale(0.22 -0.22)">
      <use xlink:href="#DejaVuSans-58"/>
      <use xlink:href="#DejaVuSans-61" x="68.505859"/>
      <use xlink:href="#DejaVuSans-2d" x="129.785156"/>
      <use xlink:href="#DejaVuSans-49" x="165.869141"/>
      <use xlink:href="#DejaVuSans-49" x="195.361328"/>
      <use xlink:href="#DejaVuSans-49" x="224.853516"/>
      <use xlink:href="#DejaVuSans-49" x="254.345703"/>
     </g>
    </g>
    <g id="line2d_46">
     <path d="M 808.213437 502.719063 
L 830.213437 502.719063 
L 852.213437 502.719063 
" style="fill: none; stroke: #2e7ebc; stroke-width: 1.5; stroke-linecap: square"/>
    </g>
    <g id="text_32">
     <!-- Xi-IIIN -->
     <g transform="translate(869.813437 510.419063) scale(0.22 -0.22)">
      <use xlink:href="#DejaVuSans-58"/>
      <use xlink:href="#DejaVuSans-69" x="68.505859"/>
      <use xlink:href="#DejaVuSans-2d" x="96.289062"/>
      <use xlink:href="#DejaVuSans-49" x="132.373047"/>
      <use xlink:href="#DejaVuSans-49" x="161.865234"/>
      <use xlink:href="#DejaVuSans-49" x="191.357422"/>
      <use xlink:href="#DejaVuSans-4e" x="220.849609"/>
     </g>
    </g>
    <g id="line2d_47">
     <path d="M 808.213437 535.010938 
L 830.213437 535.010938 
L 852.213437 535.010938 
" style="fill: none; stroke: #e25508; stroke-width: 1.5; stroke-linecap: square"/>
    </g>
    <g id="text_33">
     <!-- Xa-IIIN -->
     <g transform="translate(869.813437 542.710938) scale(0.22 -0.22)">
      <use xlink:href="#DejaVuSans-58"/>
      <use xlink:href="#DejaVuSans-61" x="68.505859"/>
      <use xlink:href="#DejaVuSans-2d" x="129.785156"/>
      <use xlink:href="#DejaVuSans-49" x="165.869141"/>
      <use xlink:href="#DejaVuSans-49" x="195.361328"/>
      <use xlink:href="#DejaVuSans-49" x="224.853516"/>
      <use xlink:href="#DejaVuSans-4e" x="254.345703"/>
     </g>
    </g>
    <g id="line2d_48">
     <path d="M 808.213437 567.302813 
L 830.213437 567.302813 
L 852.213437 567.302813 
" style="fill: none; stroke: #1764ab; stroke-width: 1.5; stroke-linecap: square"/>
    </g>
    <g id="text_34">
     <!-- Xi-IINA -->
     <g transform="translate(869.813437 575.002813) scale(0.22 -0.22)">
      <use xlink:href="#DejaVuSans-58"/>
      <use xlink:href="#DejaVuSans-69" x="68.505859"/>
      <use xlink:href="#DejaVuSans-2d" x="96.289062"/>
      <use xlink:href="#DejaVuSans-49" x="132.373047"/>
      <use xlink:href="#DejaVuSans-49" x="161.865234"/>
      <use xlink:href="#DejaVuSans-4e" x="191.357422"/>
      <use xlink:href="#DejaVuSans-41" x="266.162109"/>
     </g>
    </g>
    <g id="line2d_49">
     <path d="M 808.213437 599.594688 
L 830.213437 599.594688 
L 852.213437 599.594688 
" style="fill: none; stroke: #c54102; stroke-width: 1.5; stroke-linecap: square"/>
    </g>
    <g id="text_35">
     <!-- Xa-IINA -->
     <g transform="translate(869.813437 607.294688) scale(0.22 -0.22)">
      <use xlink:href="#DejaVuSans-58"/>
      <use xlink:href="#DejaVuSans-61" x="68.505859"/>
      <use xlink:href="#DejaVuSans-2d" x="129.785156"/>
      <use xlink:href="#DejaVuSans-49" x="165.869141"/>
      <use xlink:href="#DejaVuSans-49" x="195.361328"/>
      <use xlink:href="#DejaVuSans-4e" x="224.853516"/>
      <use xlink:href="#DejaVuSans-41" x="299.658203"/>
     </g>
    </g>
    <g id="line2d_50">
     <path d="M 808.213437 631.886563 
L 830.213437 631.886563 
L 852.213437 631.886563 
" style="fill: none; stroke: #084a91; stroke-width: 1.5; stroke-linecap: square"/>
    </g>
    <g id="text_36">
     <!-- Xi-IINI -->
     <g transform="translate(869.813437 639.586563) scale(0.22 -0.22)">
      <use xlink:href="#DejaVuSans-58"/>
      <use xlink:href="#DejaVuSans-69" x="68.505859"/>
      <use xlink:href="#DejaVuSans-2d" x="96.289062"/>
      <use xlink:href="#DejaVuSans-49" x="132.373047"/>
      <use xlink:href="#DejaVuSans-49" x="161.865234"/>
      <use xlink:href="#DejaVuSans-4e" x="191.357422"/>
      <use xlink:href="#DejaVuSans-49" x="266.162109"/>
     </g>
    </g>
    <g id="line2d_51">
     <path d="M 808.213437 664.178438 
L 830.213437 664.178438 
L 852.213437 664.178438 
" style="fill: none; stroke: #9e3303; stroke-width: 1.5; stroke-linecap: square"/>
    </g>
    <g id="text_37">
     <!-- Xa-IINI -->
     <g transform="translate(869.813437 671.878438) scale(0.22 -0.22)">
      <use xlink:href="#DejaVuSans-58"/>
      <use xlink:href="#DejaVuSans-61" x="68.505859"/>
      <use xlink:href="#DejaVuSans-2d" x="129.785156"/>
      <use xlink:href="#DejaVuSans-49" x="165.869141"/>
      <use xlink:href="#DejaVuSans-49" x="195.361328"/>
      <use xlink:href="#DejaVuSans-4e" x="224.853516"/>
      <use xlink:href="#DejaVuSans-49" x="299.658203"/>
     </g>
    </g>
    <g id="line2d_52">
     <path d="M 808.213437 696.470313 
L 830.213437 696.470313 
L 852.213437 696.470313 
" style="fill: none; stroke: #08306b; stroke-width: 1.5; stroke-linecap: square"/>
    </g>
    <g id="text_38">
     <!-- Xi-IINN -->
     <g transform="translate(869.813437 704.170313) scale(0.22 -0.22)">
      <use xlink:href="#DejaVuSans-58"/>
      <use xlink:href="#DejaVuSans-69" x="68.505859"/>
      <use xlink:href="#DejaVuSans-2d" x="96.289062"/>
      <use xlink:href="#DejaVuSans-49" x="132.373047"/>
      <use xlink:href="#DejaVuSans-49" x="161.865234"/>
      <use xlink:href="#DejaVuSans-4e" x="191.357422"/>
      <use xlink:href="#DejaVuSans-4e" x="266.162109"/>
     </g>
    </g>
    <g id="line2d_53">
     <path style="fill: none; stroke: #7f2704; stroke-width: 1.5; stroke-linecap: square"/>
    </g>
    <g id="text_39">
     <!-- Xa-IINN -->
     <g transform="translate(869.813437 736.462188) scale(0.22 -0.22)">
      <use xlink:href="#DejaVuSans-58"/>
      <use xlink:href="#DejaVuSans-61" x="68.505859"/>
      <use xlink:href="#DejaVuSans-2d" x="129.785156"/>
      <use xlink:href="#DejaVuSans-49" x="165.869141"/>
      <use xlink:href="#DejaVuSans-49" x="195.361328"/>
      <use xlink:href="#DejaVuSans-4e" x="224.853516"/>
      <use xlink:href="#DejaVuSans-4e" x="299.658203"/>
     </g>
    </g>
   </g>
  </g>
 </g>
 <defs>
  <clipPath id="p294e5309c2">
   <rect x="135" y="86.4" width="837" height="554.4"/>
  </clipPath>
 </defs>
</svg>
