<?xml version="1.0" encoding="utf-8" standalone="no"?>
<!DOCTYPE svg PUBLIC "-//W3C//DTD SVG 1.1//EN"
  "http://www.w3.org/Graphics/SVG/1.1/DTD/svg11.dtd">
<svg xmlns:xlink="http://www.w3.org/1999/xlink" width="1080pt" height="720pt" viewBox="0 0 1080 720" xmlns="http://www.w3.org/2000/svg" version="1.1">
 <metadata>
  <rdf:RDF xmlns:dc="http://purl.org/dc/elements/1.1/" xmlns:cc="http://creativecommons.org/ns#" xmlns:rdf="http://www.w3.org/1999/02/22-rdf-syntax-ns#">
   <cc:Work>
    <dc:type rdf:resource="http://purl.org/dc/dcmitype/StillImage"/>
    <dc:date>2023-01-11T19:55:53.336873</dc:date>
    <dc:format>image/svg+xml</dc:format>
    <dc:creator>
     <cc:Agent>
      <dc:title>Matplotlib v3.6.2, https://matplotlib.org/</dc:title>
     </cc:Agent>
    </dc:creator>
   </cc:Work>
  </rdf:RDF>
 </metadata>
 <defs>
  <style type="text/css">*{stroke-linejoin: round; stroke-linecap: butt}</style>
 </defs>
 <g id="figure_1">
  <g id="patch_1">
   <path d="M 0 720 
L 1080 720 
L 1080 0 
L 0 0 
z
" style="fill: #ffffff"/>
  </g>
  <g id="axes_1">
   <g id="patch_2">
    <path d="M 104.42 595.44 
L 883.87 595.44 
L 883.87 23.76 
L 104.42 23.76 
z
" style="fill: #ffffff"/>
   </g>
   <g id="PathCollection_1">
    <defs>
     <path id="m80f1702e56" d="M 0 3 
C 0.795609 3 1.55874 2.683901 2.12132 2.12132 
C 2.683901 1.55874 3 0.795609 3 0 
C 3 -0.795609 2.683901 -1.55874 2.12132 -2.12132 
C 1.55874 -2.683901 0.795609 -3 0 -3 
C -0.795609 -3 -1.55874 -2.683901 -2.12132 -2.12132 
C -2.683901 -1.55874 -3 -0.795609 -3 0 
C -3 0.795609 -2.683901 1.55874 -2.12132 2.12132 
C -1.55874 2.683901 -0.795609 3 0 3 
z
" style="stroke: #1f77b4"/>
    </defs>
    <g clip-path="url(#p13386ddcbc)">
     <use xlink:href="#m80f1702e56" x="139.849545" y="569.454545" style="fill: #1f77b4; stroke: #1f77b4"/>
     <use xlink:href="#m80f1702e56" x="177.143804" y="565.498459" style="fill: #1f77b4; stroke: #1f77b4"/>
     <use xlink:href="#m80f1702e56" x="214.438062" y="561.542373" style="fill: #1f77b4; stroke: #1f77b4"/>
     <use xlink:href="#m80f1702e56" x="251.732321" y="557.586287" style="fill: #1f77b4; stroke: #1f77b4"/>
     <use xlink:href="#m80f1702e56" x="289.026579" y="553.6302" style="fill: #1f77b4; stroke: #1f77b4"/>
     <use xlink:href="#m80f1702e56" x="326.320837" y="549.674114" style="fill: #1f77b4; stroke: #1f77b4"/>
     <use xlink:href="#m80f1702e56" x="363.615096" y="545.718028" style="fill: #1f77b4; stroke: #1f77b4"/>
     <use xlink:href="#m80f1702e56" x="400.909354" y="541.761941" style="fill: #1f77b4; stroke: #1f77b4"/>
     <use xlink:href="#m80f1702e56" x="438.203612" y="537.805855" style="fill: #1f77b4; stroke: #1f77b4"/>
     <use xlink:href="#m80f1702e56" x="475.497871" y="527.076679" style="fill: #1f77b4; stroke: #1f77b4"/>
     <use xlink:href="#m80f1702e56" x="512.792129" y="524.905633" style="fill: #1f77b4; stroke: #1f77b4"/>
     <use xlink:href="#m80f1702e56" x="550.086388" y="484.288948" style="fill: #1f77b4; stroke: #1f77b4"/>
     <use xlink:href="#m80f1702e56" x="587.380646" y="443.672262" style="fill: #1f77b4; stroke: #1f77b4"/>
     <use xlink:href="#m80f1702e56" x="624.674904" y="443.672262" style="fill: #1f77b4; stroke: #1f77b4"/>
     <use xlink:href="#m80f1702e56" x="661.969163" y="443.672262" style="fill: #1f77b4; stroke: #1f77b4"/>
     <use xlink:href="#m80f1702e56" x="699.263421" y="443.672262" style="fill: #1f77b4; stroke: #1f77b4"/>
     <use xlink:href="#m80f1702e56" x="736.557679" y="443.672262" style="fill: #1f77b4; stroke: #1f77b4"/>
     <use xlink:href="#m80f1702e56" x="773.851938" y="443.672262" style="fill: #1f77b4; stroke: #1f77b4"/>
     <use xlink:href="#m80f1702e56" x="811.146196" y="443.672262" style="fill: #1f77b4; stroke: #1f77b4"/>
     <use xlink:href="#m80f1702e56" x="848.440455" y="443.672262" style="fill: #1f77b4; stroke: #1f77b4"/>
    </g>
   </g>
   <g id="PathCollection_2">
    <defs>
     <path id="m62fcbac0dc" d="M 0 3 
C 0.795609 3 1.55874 2.683901 2.12132 2.12132 
C 2.683901 1.55874 3 0.795609 3 0 
C 3 -0.795609 2.683901 -1.55874 2.12132 -2.12132 
C 1.55874 -2.683901 0.795609 -3 0 -3 
C -0.795609 -3 -1.55874 -2.683901 -2.12132 -2.12132 
C -2.683901 -1.55874 -3 -0.795609 -3 0 
C -3 0.795609 -2.683901 1.55874 -2.12132 2.12132 
C -1.55874 2.683901 -0.795609 3 0 3 
z
" style="stroke: #ff7f0e"/>
    </defs>
    <g clip-path="url(#p13386ddcbc)">
     <use xlink:href="#m62fcbac0dc" x="139.849545" y="95.760921" style="fill: #ff7f0e; stroke: #ff7f0e"/>
     <use xlink:href="#m62fcbac0dc" x="177.143804" y="93.345095" style="fill: #ff7f0e; stroke: #ff7f0e"/>
     <use xlink:href="#m62fcbac0dc" x="214.438062" y="90.929269" style="fill: #ff7f0e; stroke: #ff7f0e"/>
     <use xlink:href="#m62fcbac0dc" x="251.732321" y="88.513443" style="fill: #ff7f0e; stroke: #ff7f0e"/>
     <use xlink:href="#m62fcbac0dc" x="289.026579" y="86.097617" style="fill: #ff7f0e; stroke: #ff7f0e"/>
     <use xlink:href="#m62fcbac0dc" x="326.320837" y="83.681791" style="fill: #ff7f0e; stroke: #ff7f0e"/>
     <use xlink:href="#m62fcbac0dc" x="363.615096" y="81.265965" style="fill: #ff7f0e; stroke: #ff7f0e"/>
     <use xlink:href="#m62fcbac0dc" x="400.909354" y="78.850139" style="fill: #ff7f0e; stroke: #ff7f0e"/>
     <use xlink:href="#m62fcbac0dc" x="438.203612" y="76.434313" style="fill: #ff7f0e; stroke: #ff7f0e"/>
     <use xlink:href="#m62fcbac0dc" x="475.497871" y="106.59038" style="fill: #ff7f0e; stroke: #ff7f0e"/>
     <use xlink:href="#m62fcbac0dc" x="512.792129" y="49.745455" style="fill: #ff7f0e; stroke: #ff7f0e"/>
     <use xlink:href="#m62fcbac0dc" x="550.086388" y="84.982315" style="fill: #ff7f0e; stroke: #ff7f0e"/>
     <use xlink:href="#m62fcbac0dc" x="587.380646" y="120.219176" style="fill: #ff7f0e; stroke: #ff7f0e"/>
     <use xlink:href="#m62fcbac0dc" x="624.674904" y="120.219176" style="fill: #ff7f0e; stroke: #ff7f0e"/>
     <use xlink:href="#m62fcbac0dc" x="661.969163" y="120.219176" style="fill: #ff7f0e; stroke: #ff7f0e"/>
     <use xlink:href="#m62fcbac0dc" x="699.263421" y="120.219176" style="fill: #ff7f0e; stroke: #ff7f0e"/>
     <use xlink:href="#m62fcbac0dc" x="736.557679" y="120.219176" style="fill: #ff7f0e; stroke: #ff7f0e"/>
     <use xlink:href="#m62fcbac0dc" x="773.851938" y="120.219176" style="fill: #ff7f0e; stroke: #ff7f0e"/>
     <use xlink:href="#m62fcbac0dc" x="811.146196" y="120.219176" style="fill: #ff7f0e; stroke: #ff7f0e"/>
     <use xlink:href="#m62fcbac0dc" x="848.440455" y="120.219176" style="fill: #ff7f0e; stroke: #ff7f0e"/>
    </g>
   </g>
   <g id="matplotlib.axis_1">
    <g id="xtick_1">
     <g id="line2d_1">
      <defs>
       <path id="m3385fdae1e" d="M 0 0 
L 0 3.5 
" style="stroke: #000000; stroke-width: 0.8"/>
      </defs>
      <g>
       <use xlink:href="#m3385fdae1e" x="139.849545" y="595.44" style="stroke: #000000; stroke-width: 0.8"/>
      </g>
     </g>
     <g id="text_1">
      <!-- 0.0 -->
      <g transform="translate(122.356108 619.156562) scale(0.22 -0.22)">
       <defs>
        <path id="DejaVuSans-30" d="M 2034 4250 
Q 1547 4250 1301 3770 
Q 1056 3291 1056 2328 
Q 1056 1369 1301 889 
Q 1547 409 2034 409 
Q 2525 409 2770 889 
Q 3016 1369 3016 2328 
Q 3016 3291 2770 3770 
Q 2525 4250 2034 4250 
z
M 2034 4750 
Q 2819 4750 3233 4129 
Q 3647 3509 3647 2328 
Q 3647 1150 3233 529 
Q 2819 -91 2034 -91 
Q 1250 -91 836 529 
Q 422 1150 422 2328 
Q 422 3509 836 4129 
Q 1250 4750 2034 4750 
z
" transform="scale(0.015625)"/>
        <path id="DejaVuSans-2e" d="M 684 794 
L 1344 794 
L 1344 0 
L 684 0 
L 684 794 
z
" transform="scale(0.015625)"/>
       </defs>
       <use xlink:href="#DejaVuSans-30"/>
       <use xlink:href="#DejaVuSans-2e" x="63.623047"/>
       <use xlink:href="#DejaVuSans-30" x="95.410156"/>
      </g>
     </g>
    </g>
    <g id="xtick_2">
     <g id="line2d_2">
      <g>
       <use xlink:href="#m3385fdae1e" x="233.085191" y="595.44" style="stroke: #000000; stroke-width: 0.8"/>
      </g>
     </g>
     <g id="text_2">
      <!-- 2.5 -->
      <g transform="translate(215.591754 619.156562) scale(0.22 -0.22)">
       <defs>
        <path id="DejaVuSans-32" d="M 1228 531 
L 3431 531 
L 3431 0 
L 469 0 
L 469 531 
Q 828 903 1448 1529 
Q 2069 2156 2228 2338 
Q 2531 2678 2651 2914 
Q 2772 3150 2772 3378 
Q 2772 3750 2511 3984 
Q 2250 4219 1831 4219 
Q 1534 4219 1204 4116 
Q 875 4013 500 3803 
L 500 4441 
Q 881 4594 1212 4672 
Q 1544 4750 1819 4750 
Q 2544 4750 2975 4387 
Q 3406 4025 3406 3419 
Q 3406 3131 3298 2873 
Q 3191 2616 2906 2266 
Q 2828 2175 2409 1742 
Q 1991 1309 1228 531 
z
" transform="scale(0.015625)"/>
        <path id="DejaVuSans-35" d="M 691 4666 
L 3169 4666 
L 3169 4134 
L 1269 4134 
L 1269 2991 
Q 1406 3038 1543 3061 
Q 1681 3084 1819 3084 
Q 2600 3084 3056 2656 
Q 3513 2228 3513 1497 
Q 3513 744 3044 326 
Q 2575 -91 1722 -91 
Q 1428 -91 1123 -41 
Q 819 9 494 109 
L 494 744 
Q 775 591 1075 516 
Q 1375 441 1709 441 
Q 2250 441 2565 725 
Q 2881 1009 2881 1497 
Q 2881 1984 2565 2268 
Q 2250 2553 1709 2553 
Q 1456 2553 1204 2497 
Q 953 2441 691 2322 
L 691 4666 
z
" transform="scale(0.015625)"/>
       </defs>
       <use xlink:href="#DejaVuSans-32"/>
       <use xlink:href="#DejaVuSans-2e" x="63.623047"/>
       <use xlink:href="#DejaVuSans-35" x="95.410156"/>
      </g>
     </g>
    </g>
    <g id="xtick_3">
     <g id="line2d_3">
      <g>
       <use xlink:href="#m3385fdae1e" x="326.320837" y="595.44" style="stroke: #000000; stroke-width: 0.8"/>
      </g>
     </g>
     <g id="text_3">
      <!-- 5.0 -->
      <g transform="translate(308.8274 619.156562) scale(0.22 -0.22)">
       <use xlink:href="#DejaVuSans-35"/>
       <use xlink:href="#DejaVuSans-2e" x="63.623047"/>
       <use xlink:href="#DejaVuSans-30" x="95.410156"/>
      </g>
     </g>
    </g>
    <g id="xtick_4">
     <g id="line2d_4">
      <g>
       <use xlink:href="#m3385fdae1e" x="419.556483" y="595.44" style="stroke: #000000; stroke-width: 0.8"/>
      </g>
     </g>
     <g id="text_4">
      <!-- 7.5 -->
      <g transform="translate(402.063046 619.156562) scale(0.22 -0.22)">
       <defs>
        <path id="DejaVuSans-37" d="M 525 4666 
L 3525 4666 
L 3525 4397 
L 1831 0 
L 1172 0 
L 2766 4134 
L 525 4134 
L 525 4666 
z
" transform="scale(0.015625)"/>
       </defs>
       <use xlink:href="#DejaVuSans-37"/>
       <use xlink:href="#DejaVuSans-2e" x="63.623047"/>
       <use xlink:href="#DejaVuSans-35" x="95.410156"/>
      </g>
     </g>
    </g>
    <g id="xtick_5">
     <g id="line2d_5">
      <g>
       <use xlink:href="#m3385fdae1e" x="512.792129" y="595.44" style="stroke: #000000; stroke-width: 0.8"/>
      </g>
     </g>
     <g id="text_5">
      <!-- 10.0 -->
      <g transform="translate(488.299942 619.156562) scale(0.22 -0.22)">
       <defs>
        <path id="DejaVuSans-31" d="M 794 531 
L 1825 531 
L 1825 4091 
L 703 3866 
L 703 4441 
L 1819 4666 
L 2450 4666 
L 2450 531 
L 3481 531 
L 3481 0 
L 794 0 
L 794 531 
z
" transform="scale(0.015625)"/>
       </defs>
       <use xlink:href="#DejaVuSans-31"/>
       <use xlink:href="#DejaVuSans-30" x="63.623047"/>
       <use xlink:href="#DejaVuSans-2e" x="127.246094"/>
       <use xlink:href="#DejaVuSans-30" x="159.033203"/>
      </g>
     </g>
    </g>
    <g id="xtick_6">
     <g id="line2d_6">
      <g>
       <use xlink:href="#m3385fdae1e" x="606.027775" y="595.44" style="stroke: #000000; stroke-width: 0.8"/>
      </g>
     </g>
     <g id="text_6">
      <!-- 12.5 -->
      <g transform="translate(581.535588 619.156562) scale(0.22 -0.22)">
       <use xlink:href="#DejaVuSans-31"/>
       <use xlink:href="#DejaVuSans-32" x="63.623047"/>
       <use xlink:href="#DejaVuSans-2e" x="127.246094"/>
       <use xlink:href="#DejaVuSans-35" x="159.033203"/>
      </g>
     </g>
    </g>
    <g id="xtick_7">
     <g id="line2d_7">
      <g>
       <use xlink:href="#m3385fdae1e" x="699.263421" y="595.44" style="stroke: #000000; stroke-width: 0.8"/>
      </g>
     </g>
     <g id="text_7">
      <!-- 15.0 -->
      <g transform="translate(674.771234 619.156562) scale(0.22 -0.22)">
       <use xlink:href="#DejaVuSans-31"/>
       <use xlink:href="#DejaVuSans-35" x="63.623047"/>
       <use xlink:href="#DejaVuSans-2e" x="127.246094"/>
       <use xlink:href="#DejaVuSans-30" x="159.033203"/>
      </g>
     </g>
    </g>
    <g id="xtick_8">
     <g id="line2d_8">
      <g>
       <use xlink:href="#m3385fdae1e" x="792.499067" y="595.44" style="stroke: #000000; stroke-width: 0.8"/>
      </g>
     </g>
     <g id="text_8">
      <!-- 17.5 -->
      <g transform="translate(768.006879 619.156562) scale(0.22 -0.22)">
       <use xlink:href="#DejaVuSans-31"/>
       <use xlink:href="#DejaVuSans-37" x="63.623047"/>
       <use xlink:href="#DejaVuSans-2e" x="127.246094"/>
       <use xlink:href="#DejaVuSans-35" x="159.033203"/>
      </g>
     </g>
    </g>
    <g id="text_9">
     <!-- Time (days) -->
     <g transform="translate(429.186563 644.448437) scale(0.22 -0.22)">
      <defs>
       <path id="DejaVuSans-54" d="M -19 4666 
L 3928 4666 
L 3928 4134 
L 2272 4134 
L 2272 0 
L 1638 0 
L 1638 4134 
L -19 4134 
L -19 4666 
z
" transform="scale(0.015625)"/>
       <path id="DejaVuSans-69" d="M 603 3500 
L 1178 3500 
L 1178 0 
L 603 0 
L 603 3500 
z
M 603 4863 
L 1178 4863 
L 1178 4134 
L 603 4134 
L 603 4863 
z
" transform="scale(0.015625)"/>
       <path id="DejaVuSans-6d" d="M 3328 2828 
Q 3544 3216 3844 3400 
Q 4144 3584 4550 3584 
Q 5097 3584 5394 3201 
Q 5691 2819 5691 2113 
L 5691 0 
L 5113 0 
L 5113 2094 
Q 5113 2597 4934 2840 
Q 4756 3084 4391 3084 
Q 3944 3084 3684 2787 
Q 3425 2491 3425 1978 
L 3425 0 
L 2847 0 
L 2847 2094 
Q 2847 2600 2669 2842 
Q 2491 3084 2119 3084 
Q 1678 3084 1418 2786 
Q 1159 2488 1159 1978 
L 1159 0 
L 581 0 
L 581 3500 
L 1159 3500 
L 1159 2956 
Q 1356 3278 1631 3431 
Q 1906 3584 2284 3584 
Q 2666 3584 2933 3390 
Q 3200 3197 3328 2828 
z
" transform="scale(0.015625)"/>
       <path id="DejaVuSans-65" d="M 3597 1894 
L 3597 1613 
L 953 1613 
Q 991 1019 1311 708 
Q 1631 397 2203 397 
Q 2534 397 2845 478 
Q 3156 559 3463 722 
L 3463 178 
Q 3153 47 2828 -22 
Q 2503 -91 2169 -91 
Q 1331 -91 842 396 
Q 353 884 353 1716 
Q 353 2575 817 3079 
Q 1281 3584 2069 3584 
Q 2775 3584 3186 3129 
Q 3597 2675 3597 1894 
z
M 3022 2063 
Q 3016 2534 2758 2815 
Q 2500 3097 2075 3097 
Q 1594 3097 1305 2825 
Q 1016 2553 972 2059 
L 3022 2063 
z
" transform="scale(0.015625)"/>
       <path id="DejaVuSans-20" transform="scale(0.015625)"/>
       <path id="DejaVuSans-28" d="M 1984 4856 
Q 1566 4138 1362 3434 
Q 1159 2731 1159 2009 
Q 1159 1288 1364 580 
Q 1569 -128 1984 -844 
L 1484 -844 
Q 1016 -109 783 600 
Q 550 1309 550 2009 
Q 550 2706 781 3412 
Q 1013 4119 1484 4856 
L 1984 4856 
z
" transform="scale(0.015625)"/>
       <path id="DejaVuSans-64" d="M 2906 2969 
L 2906 4863 
L 3481 4863 
L 3481 0 
L 2906 0 
L 2906 525 
Q 2725 213 2448 61 
Q 2172 -91 1784 -91 
Q 1150 -91 751 415 
Q 353 922 353 1747 
Q 353 2572 751 3078 
Q 1150 3584 1784 3584 
Q 2172 3584 2448 3432 
Q 2725 3281 2906 2969 
z
M 947 1747 
Q 947 1113 1208 752 
Q 1469 391 1925 391 
Q 2381 391 2643 752 
Q 2906 1113 2906 1747 
Q 2906 2381 2643 2742 
Q 2381 3103 1925 3103 
Q 1469 3103 1208 2742 
Q 947 2381 947 1747 
z
" transform="scale(0.015625)"/>
       <path id="DejaVuSans-61" d="M 2194 1759 
Q 1497 1759 1228 1600 
Q 959 1441 959 1056 
Q 959 750 1161 570 
Q 1363 391 1709 391 
Q 2188 391 2477 730 
Q 2766 1069 2766 1631 
L 2766 1759 
L 2194 1759 
z
M 3341 1997 
L 3341 0 
L 2766 0 
L 2766 531 
Q 2569 213 2275 61 
Q 1981 -91 1556 -91 
Q 1019 -91 701 211 
Q 384 513 384 1019 
Q 384 1609 779 1909 
Q 1175 2209 1959 2209 
L 2766 2209 
L 2766 2266 
Q 2766 2663 2505 2880 
Q 2244 3097 1772 3097 
Q 1472 3097 1187 3025 
Q 903 2953 641 2809 
L 641 3341 
Q 956 3463 1253 3523 
Q 1550 3584 1831 3584 
Q 2591 3584 2966 3190 
Q 3341 2797 3341 1997 
z
" transform="scale(0.015625)"/>
       <path id="DejaVuSans-79" d="M 2059 -325 
Q 1816 -950 1584 -1140 
Q 1353 -1331 966 -1331 
L 506 -1331 
L 506 -850 
L 844 -850 
Q 1081 -850 1212 -737 
Q 1344 -625 1503 -206 
L 1606 56 
L 191 3500 
L 800 3500 
L 1894 763 
L 2988 3500 
L 3597 3500 
L 2059 -325 
z
" transform="scale(0.015625)"/>
       <path id="DejaVuSans-73" d="M 2834 3397 
L 2834 2853 
Q 2591 2978 2328 3040 
Q 2066 3103 1784 3103 
Q 1356 3103 1142 2972 
Q 928 2841 928 2578 
Q 928 2378 1081 2264 
Q 1234 2150 1697 2047 
L 1894 2003 
Q 2506 1872 2764 1633 
Q 3022 1394 3022 966 
Q 3022 478 2636 193 
Q 2250 -91 1575 -91 
Q 1294 -91 989 -36 
Q 684 19 347 128 
L 347 722 
Q 666 556 975 473 
Q 1284 391 1588 391 
Q 1994 391 2212 530 
Q 2431 669 2431 922 
Q 2431 1156 2273 1281 
Q 2116 1406 1581 1522 
L 1381 1569 
Q 847 1681 609 1914 
Q 372 2147 372 2553 
Q 372 3047 722 3315 
Q 1072 3584 1716 3584 
Q 2034 3584 2315 3537 
Q 2597 3491 2834 3397 
z
" transform="scale(0.015625)"/>
       <path id="DejaVuSans-29" d="M 513 4856 
L 1013 4856 
Q 1481 4119 1714 3412 
Q 1947 2706 1947 2009 
Q 1947 1309 1714 600 
Q 1481 -109 1013 -844 
L 513 -844 
Q 928 -128 1133 580 
Q 1338 1288 1338 2009 
Q 1338 2731 1133 3434 
Q 928 4138 513 4856 
z
" transform="scale(0.015625)"/>
      </defs>
      <use xlink:href="#DejaVuSans-54"/>
      <use xlink:href="#DejaVuSans-69" x="57.958984"/>
      <use xlink:href="#DejaVuSans-6d" x="85.742188"/>
      <use xlink:href="#DejaVuSans-65" x="183.154297"/>
      <use xlink:href="#DejaVuSans-20" x="244.677734"/>
      <use xlink:href="#DejaVuSans-28" x="276.464844"/>
      <use xlink:href="#DejaVuSans-64" x="315.478516"/>
      <use xlink:href="#DejaVuSans-61" x="378.955078"/>
      <use xlink:href="#DejaVuSans-79" x="440.234375"/>
      <use xlink:href="#DejaVuSans-73" x="499.414062"/>
      <use xlink:href="#DejaVuSans-29" x="551.513672"/>
     </g>
    </g>
   </g>
   <g id="matplotlib.axis_2">
    <g id="ytick_1">
     <g id="line2d_9">
      <defs>
       <path id="ma600d9e374" d="M 0 0 
L -3.5 0 
" style="stroke: #000000; stroke-width: 0.8"/>
      </defs>
      <g>
       <use xlink:href="#ma600d9e374" x="104.42" y="569.772691" style="stroke: #000000; stroke-width: 0.8"/>
      </g>
     </g>
     <g id="text_10">
      <!-- 0.00 -->
      <g transform="translate(48.435625 578.130972) scale(0.22 -0.22)">
       <use xlink:href="#DejaVuSans-30"/>
       <use xlink:href="#DejaVuSans-2e" x="63.623047"/>
       <use xlink:href="#DejaVuSans-30" x="95.410156"/>
       <use xlink:href="#DejaVuSans-30" x="159.033203"/>
      </g>
     </g>
    </g>
    <g id="ytick_2">
     <g id="line2d_10">
      <g>
       <use xlink:href="#ma600d9e374" x="104.42" y="495.830606" style="stroke: #000000; stroke-width: 0.8"/>
      </g>
     </g>
     <g id="text_11">
      <!-- 0.25 -->
      <g transform="translate(48.435625 504.188887) scale(0.22 -0.22)">
       <use xlink:href="#DejaVuSans-30"/>
       <use xlink:href="#DejaVuSans-2e" x="63.623047"/>
       <use xlink:href="#DejaVuSans-32" x="95.410156"/>
       <use xlink:href="#DejaVuSans-35" x="159.033203"/>
      </g>
     </g>
    </g>
    <g id="ytick_3">
     <g id="line2d_11">
      <g>
       <use xlink:href="#ma600d9e374" x="104.42" y="421.888521" style="stroke: #000000; stroke-width: 0.8"/>
      </g>
     </g>
     <g id="text_12">
      <!-- 0.50 -->
      <g transform="translate(48.435625 430.246803) scale(0.22 -0.22)">
       <use xlink:href="#DejaVuSans-30"/>
       <use xlink:href="#DejaVuSans-2e" x="63.623047"/>
       <use xlink:href="#DejaVuSans-35" x="95.410156"/>
       <use xlink:href="#DejaVuSans-30" x="159.033203"/>
      </g>
     </g>
    </g>
    <g id="ytick_4">
     <g id="line2d_12">
      <g>
       <use xlink:href="#ma600d9e374" x="104.42" y="347.946437" style="stroke: #000000; stroke-width: 0.8"/>
      </g>
     </g>
     <g id="text_13">
      <!-- 0.75 -->
      <g transform="translate(48.435625 356.304718) scale(0.22 -0.22)">
       <use xlink:href="#DejaVuSans-30"/>
       <use xlink:href="#DejaVuSans-2e" x="63.623047"/>
       <use xlink:href="#DejaVuSans-37" x="95.410156"/>
       <use xlink:href="#DejaVuSans-35" x="159.033203"/>
      </g>
     </g>
    </g>
    <g id="ytick_5">
     <g id="line2d_13">
      <g>
       <use xlink:href="#ma600d9e374" x="104.42" y="274.004352" style="stroke: #000000; stroke-width: 0.8"/>
      </g>
     </g>
     <g id="text_14">
      <!-- 1.00 -->
      <g transform="translate(48.435625 282.362633) scale(0.22 -0.22)">
       <use xlink:href="#DejaVuSans-31"/>
       <use xlink:href="#DejaVuSans-2e" x="63.623047"/>
       <use xlink:href="#DejaVuSans-30" x="95.410156"/>
       <use xlink:href="#DejaVuSans-30" x="159.033203"/>
      </g>
     </g>
    </g>
    <g id="ytick_6">
     <g id="line2d_14">
      <g>
       <use xlink:href="#ma600d9e374" x="104.42" y="200.062267" style="stroke: #000000; stroke-width: 0.8"/>
      </g>
     </g>
     <g id="text_15">
      <!-- 1.25 -->
      <g transform="translate(48.435625 208.420548) scale(0.22 -0.22)">
       <use xlink:href="#DejaVuSans-31"/>
       <use xlink:href="#DejaVuSans-2e" x="63.623047"/>
       <use xlink:href="#DejaVuSans-32" x="95.410156"/>
       <use xlink:href="#DejaVuSans-35" x="159.033203"/>
      </g>
     </g>
    </g>
    <g id="ytick_7">
     <g id="line2d_15">
      <g>
       <use xlink:href="#ma600d9e374" x="104.42" y="126.120182" style="stroke: #000000; stroke-width: 0.8"/>
      </g>
     </g>
     <g id="text_16">
      <!-- 1.50 -->
      <g transform="translate(48.435625 134.478464) scale(0.22 -0.22)">
       <use xlink:href="#DejaVuSans-31"/>
       <use xlink:href="#DejaVuSans-2e" x="63.623047"/>
       <use xlink:href="#DejaVuSans-35" x="95.410156"/>
       <use xlink:href="#DejaVuSans-30" x="159.033203"/>
      </g>
     </g>
    </g>
    <g id="ytick_8">
     <g id="line2d_16">
      <g>
       <use xlink:href="#ma600d9e374" x="104.42" y="52.178098" style="stroke: #000000; stroke-width: 0.8"/>
      </g>
     </g>
     <g id="text_17">
      <!-- 1.75 -->
      <g transform="translate(48.435625 60.536379) scale(0.22 -0.22)">
       <use xlink:href="#DejaVuSans-31"/>
       <use xlink:href="#DejaVuSans-2e" x="63.623047"/>
       <use xlink:href="#DejaVuSans-37" x="95.410156"/>
       <use xlink:href="#DejaVuSans-35" x="159.033203"/>
      </g>
     </g>
    </g>
    <g id="text_18">
     <!-- X:A -->
     <g transform="translate(39.860313 328.365312) rotate(-90) scale(0.22 -0.22)">
      <defs>
       <path id="DejaVuSans-58" d="M 403 4666 
L 1081 4666 
L 2241 2931 
L 3406 4666 
L 4084 4666 
L 2584 2425 
L 4184 0 
L 3506 0 
L 2194 1984 
L 872 0 
L 191 0 
L 1856 2491 
L 403 4666 
z
" transform="scale(0.015625)"/>
       <path id="DejaVuSans-3a" d="M 750 794 
L 1409 794 
L 1409 0 
L 750 0 
L 750 794 
z
M 750 3309 
L 1409 3309 
L 1409 2516 
L 750 2516 
L 750 3309 
z
" transform="scale(0.015625)"/>
       <path id="DejaVuSans-41" d="M 2188 4044 
L 1331 1722 
L 3047 1722 
L 2188 4044 
z
M 1831 4666 
L 2547 4666 
L 4325 0 
L 3669 0 
L 3244 1197 
L 1141 1197 
L 716 0 
L 50 0 
L 1831 4666 
z
" transform="scale(0.015625)"/>
      </defs>
      <use xlink:href="#DejaVuSans-58"/>
      <use xlink:href="#DejaVuSans-3a" x="68.505859"/>
      <use xlink:href="#DejaVuSans-41" x="102.197266"/>
     </g>
    </g>
   </g>
   <g id="line2d_17">
    <path d="M 139.849545 569.454545 
L 147.007029 568.095926 
L 154.164513 566.744432 
L 161.321997 565.39806 
L 168.479481 564.052528 
L 175.636965 562.70766 
L 182.794449 561.363531 
L 189.951933 560.019303 
L 197.109417 558.674654 
L 204.266901 557.329845 
L 211.424385 555.984811 
L 218.581869 554.63915 
L 225.739353 553.292405 
L 232.896837 551.944897 
L 240.05432 550.596888 
L 247.211804 549.248375 
L 254.369288 547.89909 
L 261.526772 546.548494 
L 268.684256 545.196135 
L 275.84174 543.84263 
L 282.999224 542.488494 
L 290.156708 541.133772 
L 297.314192 539.778045 
L 304.471676 538.420427 
L 311.62916 537.06003 
L 318.786644 535.697911 
L 325.944128 534.335147 
L 333.101612 532.971969 
L 340.259096 531.607759 
L 347.416579 530.241048 
L 354.574063 528.870367 
L 361.731547 527.497542 
L 368.889031 526.123942 
L 376.046515 524.749722 
L 383.203999 523.37388 
L 390.361483 521.994308 
L 397.518967 520.611205 
L 404.676451 519.226364 
L 411.833935 517.840141 
L 418.991419 516.452016 
L 426.148903 515.060617 
L 433.306387 513.665774 
L 440.463871 512.268568 
L 447.621354 510.869231 
L 454.778838 509.467469 
L 461.936322 508.062458 
L 469.093806 506.653691 
L 476.25129 505.241972 
L 483.408774 503.827698 
L 490.566258 502.410797 
L 497.723742 500.990727 
L 504.881226 499.566503 
L 512.03871 498.137995 
L 519.196194 496.706311 
L 526.353678 495.27199 
L 533.511162 493.834883 
L 540.668646 492.394155 
L 547.826129 490.948308 
L 554.983613 489.497207 
L 562.141097 488.042597 
L 569.298581 486.585261 
L 576.456065 485.124941 
L 583.613549 483.660336 
L 590.771033 482.18943 
L 597.928517 480.713404 
L 605.086001 479.233728 
L 612.243485 477.750616 
L 619.400969 476.263307 
L 626.558453 474.770142 
L 633.715937 473.271341 
L 640.873421 471.768057 
L 648.030904 470.260462 
L 655.188388 468.748113 
L 662.345872 467.229975 
L 669.503356 465.705895 
L 676.66084 464.176669 
L 683.818324 462.642526 
L 690.975808 461.103228 
L 698.133292 459.558074 
L 705.290776 458.006197 
L 712.44826 456.44819 
L 719.605744 454.884761 
L 726.763228 453.31604 
L 733.920712 451.741586 
L 741.078196 450.160387 
L 748.23568 448.571345 
L 755.393163 446.975513 
L 762.550647 445.373965 
L 769.708131 443.766884 
L 776.865615 442.153575 
L 784.023099 440.532466 
L 791.180583 438.902431 
L 798.338067 437.265336 
L 805.495551 435.622047 
L 812.653035 433.972414 
L 819.810519 432.315295 
L 826.968003 430.649047 
L 834.125487 428.974945 
L 841.282971 427.293278 
L 848.440455 425.603706 
" clip-path="url(#p13386ddcbc)" style="fill: none; stroke: #d0e1f2; stroke-width: 1.5; stroke-linecap: square"/>
   </g>
   <g id="line2d_18">
    <path d="M 139.849545 95.760921 
L 147.007029 89.394221 
L 154.164513 85.867287 
L 161.321997 84.41319 
L 168.479481 83.370337 
L 175.636965 82.691748 
L 182.794449 82.430894 
L 189.951933 82.281461 
L 197.109417 82.140285 
L 204.266901 82.135345 
L 211.424385 82.265506 
L 218.581869 82.396504 
L 225.739353 82.373066 
L 232.896837 82.345942 
L 240.05432 82.44439 
L 247.211804 82.692043 
L 254.369288 83.007308 
L 261.526772 83.203359 
L 268.684256 83.126252 
L 275.84174 83.045432 
L 282.999224 83.189221 
L 290.156708 83.601677 
L 297.314192 84.142627 
L 304.471676 84.487669 
L 311.62916 84.310919 
L 318.786644 84.056037 
L 325.944128 84.176044 
L 333.101612 84.788096 
L 340.259096 85.673697 
L 347.416579 86.278708 
L 354.574063 86.04806 
L 361.731547 85.731089 
L 368.889031 85.895695 
L 376.046515 86.631117 
L 383.203999 87.56789 
L 390.361483 87.898289 
L 397.518967 87.728676 
L 404.676451 87.796766 
L 411.833935 88.270526 
L 418.991419 88.972557 
L 426.148903 89.38781 
L 433.306387 89.477065 
L 440.463871 89.696685 
L 447.621354 90.167548 
L 454.778838 90.801616 
L 461.936322 91.301944 
L 469.093806 91.496624 
L 476.25129 91.733571 
L 483.408774 92.20015 
L 490.566258 92.89767 
L 497.723742 93.641382 
L 504.881226 94.070681 
L 512.03871 94.165335 
L 519.196194 94.395107 
L 526.353678 95.004973 
L 533.511162 95.967415 
L 540.668646 96.98243 
L 547.826129 97.487685 
L 554.983613 97.461842 
L 562.141097 97.629864 
L 569.298581 98.335479 
L 576.456065 99.508878 
L 583.613549 100.666722 
L 590.771033 101.042812 
L 597.928517 101.139376 
L 605.086001 101.574923 
L 612.243485 102.469143 
L 619.400969 103.554387 
L 626.558453 104.206556 
L 633.715937 104.548726 
L 640.873421 105.075363 
L 648.030904 105.891384 
L 655.188388 106.857183 
L 662.345872 107.597827 
L 669.503356 108.090262 
L 676.66084 108.689307 
L 683.818324 109.524051 
L 690.975808 110.538874 
L 698.133292 111.493453 
L 705.290776 112.081612 
L 712.44826 112.580202 
L 719.605744 113.311952 
L 726.763228 114.369368 
L 733.920712 115.618037 
L 741.078196 116.696619 
L 748.23568 117.208369 
L 755.393163 117.617098 
L 762.550647 118.394971 
L 769.708131 119.659329 
L 776.865615 121.176883 
L 784.023099 122.36371 
L 791.180583 122.815491 
L 798.338067 123.32436 
L 805.495551 124.284278 
L 812.653035 125.683101 
L 819.810519 127.11006 
L 826.968003 127.955397 
L 834.125487 128.77985 
L 841.282971 129.748741 
L 848.440455 130.776287 
" clip-path="url(#p13386ddcbc)" style="fill: none; stroke: #fdd9b4; stroke-width: 1.5; stroke-linecap: square"/>
   </g>
   <g id="line2d_19">
    <path d="M 139.849545 569.454545 
L 147.007029 568.363507 
L 154.164513 567.496795 
L 161.321997 566.767665 
L 168.479481 566.133604 
L 175.636965 565.569106 
L 182.794449 565.056545 
L 189.951933 564.584376 
L 197.109417 564.143752 
L 204.266901 563.727115 
L 211.424385 563.330325 
L 218.581869 562.949292 
L 225.739353 562.578578 
L 232.896837 562.216043 
L 240.05432 561.859903 
L 247.211804 561.505989 
L 254.369288 561.153403 
L 261.526772 560.799467 
L 268.684256 560.441701 
L 275.84174 560.079117 
L 282.999224 559.708528 
L 290.156708 559.327338 
L 297.314192 558.935297 
L 304.471676 558.528325 
L 311.62916 558.102469 
L 318.786644 557.657145 
L 325.944128 557.187125 
L 333.101612 556.689215 
L 340.259096 556.159179 
L 347.416579 555.591099 
L 354.574063 554.980188 
L 361.731547 554.319037 
L 368.889031 553.598933 
L 376.046515 552.812504 
L 383.203999 551.948083 
L 390.361483 550.991132 
L 397.518967 549.929119 
L 404.676451 548.743309 
L 411.833935 547.413224 
L 418.991419 545.916041 
L 426.148903 544.223702 
L 433.306387 542.306983 
L 440.463871 540.133144 
L 447.621354 537.666743 
L 454.778838 534.875843 
L 461.936322 531.73193 
L 469.093806 528.212353 
L 476.25129 524.313464 
L 483.408774 520.049064 
L 490.566258 515.456544 
L 497.723742 510.600522 
L 504.881226 505.565073 
L 512.03871 500.452841 
L 519.196194 495.370139 
L 526.353678 490.417695 
L 533.511162 485.686834 
L 540.668646 481.247169 
L 547.826129 477.144608 
L 554.983613 473.410069 
L 562.141097 470.052079 
L 569.298581 467.063023 
L 576.456065 464.429551 
L 583.613549 462.12584 
L 590.771033 460.124665 
L 597.928517 458.39675 
L 605.086001 456.910551 
L 612.243485 455.63889 
L 619.400969 454.553983 
L 626.558453 453.629988 
L 633.715937 452.847006 
L 640.873421 452.183897 
L 648.030904 451.621981 
L 655.188388 451.148709 
L 662.345872 450.749043 
L 669.503356 450.412138 
L 676.66084 450.129289 
L 683.818324 449.890442 
L 690.975808 449.690131 
L 698.133292 449.522292 
L 705.290776 449.380102 
L 712.44826 449.26162 
L 719.605744 449.16276 
L 726.763228 449.078064 
L 733.920712 449.008266 
L 741.078196 448.950187 
L 748.23568 448.899835 
L 755.393163 448.858983 
L 762.550647 448.82423 
L 769.708131 448.794758 
L 776.865615 448.770847 
L 784.023099 448.749914 
L 791.180583 448.732859 
L 798.338067 448.718796 
L 805.495551 448.70611 
L 812.653035 448.696378 
L 819.810519 448.688338 
L 826.968003 448.680258 
L 834.125487 448.674891 
L 841.282971 448.670562 
L 848.440455 448.665893 
" clip-path="url(#p13386ddcbc)" style="fill: none; stroke: #b7d4ea; stroke-width: 1.5; stroke-linecap: square"/>
   </g>
   <g id="line2d_20">
    <path d="M 139.849545 95.760921 
L 147.007029 78.789185 
L 154.164513 74.213764 
L 161.321997 72.635294 
L 168.479481 72.104119 
L 175.636965 72.154478 
L 182.794449 72.070975 
L 189.951933 72.136874 
L 197.109417 72.372352 
L 204.266901 71.959094 
L 211.424385 72.050426 
L 218.581869 72.926123 
L 225.739353 72.748693 
L 232.896837 72.457591 
L 240.05432 73.017715 
L 247.211804 72.675272 
L 254.369288 72.836741 
L 261.526772 72.972612 
L 268.684256 72.683558 
L 275.84174 73.13062 
L 282.999224 73.217864 
L 290.156708 72.543391 
L 297.314192 73.352707 
L 304.471676 74.019614 
L 311.62916 73.28242 
L 318.786644 73.812098 
L 325.944128 73.701772 
L 333.101612 73.701282 
L 340.259096 74.028487 
L 347.416579 73.784321 
L 354.574063 74.142663 
L 361.731547 74.470437 
L 368.889031 73.909391 
L 376.046515 74.549819 
L 383.203999 75.56639 
L 390.361483 74.977024 
L 397.518967 75.50179 
L 404.676451 75.831204 
L 411.833935 75.911227 
L 418.991419 76.624755 
L 426.148903 76.720102 
L 433.306387 77.319088 
L 440.463871 78.348292 
L 447.621354 78.354984 
L 454.778838 79.360751 
L 461.936322 81.376274 
L 469.093806 81.816683 
L 476.25129 83.22097 
L 483.408774 84.968387 
L 490.566258 86.328906 
L 497.723742 88.569114 
L 504.881226 90.302668 
L 512.03871 92.486961 
L 519.196194 95.256944 
L 526.353678 96.846874 
L 533.511162 99.28835 
L 540.668646 102.367628 
L 547.826129 103.47385 
L 554.983613 105.718468 
L 562.141097 108.140268 
L 569.298581 108.998596 
L 576.456065 110.919958 
L 583.613549 111.999294 
L 590.771033 112.994896 
L 597.928517 114.290286 
L 605.086001 114.730499 
L 612.243485 115.666376 
L 619.400969 116.478495 
L 626.558453 116.428483 
L 633.715937 117.332553 
L 640.873421 118.109565 
L 648.030904 117.80209 
L 655.188388 118.497282 
L 662.345872 118.633362 
L 669.503356 118.595617 
L 676.66084 119.168001 
L 683.818324 118.897135 
L 690.975808 119.065129 
L 698.133292 119.588498 
L 705.290776 119.024077 
L 712.44826 119.298969 
L 719.605744 120.016639 
L 726.763228 119.168296 
L 733.920712 119.51433 
L 741.078196 120.200727 
L 748.23568 119.395654 
L 755.393163 119.878224 
L 762.550647 119.863982 
L 769.708131 119.572003 
L 776.865615 119.999856 
L 784.023099 119.61106 
L 791.180583 119.701239 
L 798.338067 119.97335 
L 805.495551 119.444413 
L 812.653035 119.76177 
L 819.810519 120.127476 
L 826.968003 119.299803 
L 834.125487 119.793998 
L 841.282971 120.35272 
L 848.440455 119.941348 
" clip-path="url(#p13386ddcbc)" style="fill: none; stroke: #fdc38d; stroke-width: 1.5; stroke-linecap: square"/>
   </g>
   <g id="line2d_21">
    <path d="M 139.849545 569.454545 
L 147.007029 568.109591 
L 154.164513 566.790872 
L 161.321997 565.47756 
L 168.479481 564.166851 
L 175.636965 562.856303 
L 182.794449 561.5462 
L 189.951933 560.234206 
L 197.109417 558.922613 
L 204.266901 557.611138 
L 211.424385 556.296257 
L 218.581869 554.981253 
L 225.739353 553.667864 
L 232.896837 552.349842 
L 240.05432 551.029535 
L 247.211804 549.713544 
L 254.369288 548.393379 
L 261.526772 547.068208 
L 268.684256 545.746046 
L 275.84174 544.419294 
L 282.999224 543.090983 
L 290.156708 541.762531 
L 297.314192 540.429412 
L 304.471676 539.095922 
L 311.62916 537.761511 
L 318.786644 536.420887 
L 325.944128 535.08016 
L 333.101612 533.740741 
L 340.259096 532.39356 
L 347.416579 531.04411 
L 354.574063 529.695313 
L 361.731547 528.339731 
L 368.889031 526.983109 
L 376.046515 525.624169 
L 383.203999 524.259589 
L 390.361483 522.894339 
L 397.518967 521.526075 
L 404.676451 520.150426 
L 411.833935 518.775032 
L 418.991419 517.398532 
L 426.148903 516.012144 
L 433.306387 514.624723 
L 440.463871 513.235069 
L 447.621354 511.837829 
L 454.778838 510.439262 
L 461.936322 509.03576 
L 469.093806 507.626439 
L 476.25129 506.215628 
L 483.408774 504.798925 
L 490.566258 503.374945 
L 497.723742 501.950962 
L 504.881226 500.522182 
L 512.03871 499.083203 
L 519.196194 497.643467 
L 526.353678 496.197826 
L 533.511162 494.744868 
L 540.668646 493.289488 
L 547.826129 491.826402 
L 554.983613 490.357603 
L 562.141097 488.885918 
L 569.298581 487.405287 
L 576.456065 485.91804 
L 583.613549 484.429631 
L 590.771033 482.93215 
L 597.928517 481.425604 
L 605.086001 479.917164 
L 612.243485 478.399125 
L 619.400969 476.874316 
L 626.558453 475.345163 
L 633.715937 473.80574 
L 640.873421 472.26068 
L 648.030904 470.710537 
L 655.188388 469.148611 
L 662.345872 467.580862 
L 669.503356 466.009687 
L 676.66084 464.4249 
L 683.818324 462.832047 
L 690.975808 461.237845 
L 698.133292 459.629319 
L 705.290776 458.011755 
L 712.44826 456.390859 
L 719.605744 454.755846 
L 726.763228 453.113802 
L 733.920712 451.46417 
L 741.078196 449.802096 
L 748.23568 448.133319 
L 755.393163 446.45483 
L 762.550647 444.763462 
L 769.708131 443.065919 
L 776.865615 441.358927 
L 784.023099 439.635519 
L 791.180583 437.906598 
L 798.338067 436.170552 
L 805.495551 434.4147 
L 812.653035 432.652205 
L 819.810519 430.882152 
L 826.968003 429.093259 
L 834.125487 427.296974 
L 841.282971 425.488633 
L 848.440455 423.666589 
" clip-path="url(#p13386ddcbc)" style="fill: none; stroke: #94c4df; stroke-width: 1.5; stroke-linecap: square"/>
   </g>
   <g id="line2d_22">
    <path d="M 139.849545 95.760921 
L 147.007029 86.88954 
L 154.164513 84.353244 
L 161.321997 83.345627 
L 168.479481 83.078714 
L 175.636965 82.972661 
L 182.794449 83.119525 
L 189.951933 82.957389 
L 197.109417 83.086503 
L 204.266901 83.461296 
L 211.424385 83.214999 
L 218.581869 83.197442 
L 225.739353 83.876101 
L 232.896837 83.694854 
L 240.05432 83.257768 
L 247.211804 84.274122 
L 254.369288 84.626688 
L 261.526772 84.109013 
L 268.684256 84.758764 
L 275.84174 84.715967 
L 282.999224 84.748427 
L 290.156708 85.233593 
L 297.314192 85.067281 
L 304.471676 85.339958 
L 311.62916 85.940422 
L 318.786644 85.566072 
L 325.944128 85.764054 
L 333.101612 86.920623 
L 340.259096 86.792887 
L 347.416579 86.757093 
L 354.574063 87.568662 
L 361.731547 87.423202 
L 368.889031 87.748894 
L 376.046515 88.258513 
L 383.203999 88.157928 
L 390.361483 88.689497 
L 397.518967 89.305095 
L 404.676451 88.947202 
L 411.833935 89.518184 
L 418.991419 90.717509 
L 426.148903 90.411562 
L 433.306387 90.77596 
L 440.463871 91.555631 
L 447.621354 91.481287 
L 454.778838 92.080834 
L 461.936322 92.515434 
L 469.093806 92.593173 
L 476.25129 93.380062 
L 483.408774 93.847032 
L 490.566258 93.678719 
L 497.723742 94.650836 
L 504.881226 95.648404 
L 512.03871 95.397639 
L 519.196194 96.165044 
L 526.353678 96.773506 
L 533.511162 96.911415 
L 540.668646 97.752933 
L 547.826129 98.091529 
L 554.983613 98.415781 
L 562.141097 99.415474 
L 569.298581 99.706577 
L 576.456065 99.852448 
L 583.613549 101.156862 
L 590.771033 101.818448 
L 597.928517 101.855598 
L 605.086001 102.947217 
L 612.243485 103.37364 
L 619.400969 103.799907 
L 626.558453 104.807277 
L 633.715937 105.088854 
L 640.873421 105.715976 
L 648.030904 106.847113 
L 655.188388 107.008562 
L 662.345872 107.562089 
L 669.503356 109.084067 
L 676.66084 109.335566 
L 683.818324 109.566004 
L 690.975808 111.311301 
L 698.133292 111.753302 
L 705.290776 112.06359 
L 712.44826 113.528709 
L 719.605744 113.859485 
L 726.763228 114.605453 
L 733.920712 115.686768 
L 741.078196 116.103541 
L 748.23568 117.109562 
L 755.393163 118.106336 
L 762.550647 118.459236 
L 769.708131 119.617694 
L 776.865615 120.93702 
L 784.023099 120.990458 
L 791.180583 122.089943 
L 798.338067 123.954271 
L 805.495551 123.993429 
L 812.653035 124.941211 
L 819.810519 126.671149 
L 826.968003 126.937272 
L 834.125487 128.07675 
L 841.282971 129.209869 
L 848.440455 130.050361 
" clip-path="url(#p13386ddcbc)" style="fill: none; stroke: #fda762; stroke-width: 1.5; stroke-linecap: square"/>
   </g>
   <g id="line2d_23">
    <path d="M 139.849545 569.454545 
L 147.007029 514.785322 
L 154.164513 502.687583 
L 161.321997 500.011621 
L 168.479481 499.425025 
L 175.636965 499.306946 
L 182.794449 499.2631 
L 189.951933 499.261193 
L 197.109417 499.245406 
L 204.266901 499.283889 
L 211.424385 499.211266 
L 218.581869 499.288805 
L 225.739353 499.264191 
L 232.896837 499.253552 
L 240.05432 499.285954 
L 247.211804 499.23709 
L 254.369288 499.303417 
L 261.526772 499.215692 
L 268.684256 499.325185 
L 275.84174 499.207688 
L 282.999224 499.31011 
L 290.156708 499.241597 
L 297.314192 499.273029 
L 304.471676 499.278109 
L 311.62916 499.252942 
L 318.786644 499.287827 
L 325.944128 499.241529 
L 333.101612 499.296233 
L 340.259096 499.223801 
L 347.416579 499.318118 
L 354.574063 499.206253 
L 361.731547 499.316659 
L 368.889031 499.226953 
L 376.046515 499.279159 
L 383.203999 499.275134 
L 390.361483 499.251858 
L 397.518967 499.2929 
L 404.676451 499.243222 
L 411.833935 499.294214 
L 418.991419 499.23106 
L 426.148903 499.308885 
L 433.306387 499.211097 
L 440.463871 499.318683 
L 447.621354 499.213411 
L 454.778838 499.288621 
L 461.936322 499.264847 
L 469.093806 499.250807 
L 476.25129 499.299087 
L 483.408774 499.241818 
L 490.566258 499.297817 
L 497.723742 499.235867 
L 504.881226 499.301367 
L 512.03871 499.219315 
L 519.196194 499.315358 
L 526.353678 499.206674 
L 533.511162 499.299133 
L 540.668646 499.246707 
L 547.826129 499.25296 
L 554.983613 499.302058 
L 562.141097 499.237101 
L 569.298581 499.30687 
L 576.456065 499.237471 
L 583.613549 499.299424 
L 590.771033 499.227336 
L 597.928517 499.308758 
L 605.086001 499.208815 
L 612.243485 499.306307 
L 619.400969 499.225915 
L 626.558453 499.261445 
L 633.715937 499.295644 
L 640.873421 499.230153 
L 648.030904 499.319835 
L 655.188388 499.235144 
L 662.345872 499.304545 
L 669.503356 499.232946 
L 676.66084 499.302698 
L 683.818324 499.216747 
L 690.975808 499.307361 
L 698.133292 499.211547 
L 705.290776 499.275339 
L 712.44826 499.275953 
L 719.605744 499.225328 
L 726.763228 499.331647 
L 733.920712 499.227679 
L 741.078196 499.3176 
L 748.23568 499.235305 
L 755.393163 499.30116 
L 762.550647 499.225599 
L 769.708131 499.303589 
L 776.865615 499.209125 
L 784.023099 499.28853 
L 791.180583 499.24728 
L 798.338067 499.22951 
L 805.495551 499.332892 
L 812.653035 499.214564 
L 819.810519 499.338167 
L 826.968003 499.233668 
L 834.125487 499.307337 
L 841.282971 499.244846 
L 848.440455 499.28356 
" clip-path="url(#p13386ddcbc)" style="fill: none; stroke: #6aaed6; stroke-width: 1.5; stroke-linecap: square"/>
   </g>
   <g id="line2d_24">
    <path d="M 139.849545 95.760921 
L 147.007029 95.88647 
L 154.164513 96.013066 
L 161.321997 96.140715 
L 168.479481 96.269421 
L 175.636965 96.39919 
L 182.794449 96.530029 
L 189.951933 96.661942 
L 197.109417 96.794935 
L 204.266901 96.929015 
L 211.424385 97.064188 
L 218.581869 97.200458 
L 225.739353 97.337832 
L 232.896837 97.476315 
L 240.05432 97.615913 
L 247.211804 97.756632 
L 254.369288 97.898477 
L 261.526772 98.041454 
L 268.684256 98.185568 
L 275.84174 98.330825 
L 282.999224 98.477231 
L 290.156708 98.62479 
L 297.314192 98.773508 
L 304.471676 98.92339 
L 311.62916 99.074443 
L 318.786644 99.22667 
L 325.944128 99.380078 
L 333.101612 99.534671 
L 340.259096 99.690454 
L 347.416579 99.847433 
L 354.574063 100.005613 
L 361.731547 100.164998 
L 368.889031 100.325594 
L 376.046515 100.487406 
L 383.203999 100.650437 
L 390.361483 100.814694 
L 397.518967 100.98018 
L 404.676451 101.146901 
L 411.833935 101.31486 
L 418.991419 101.484063 
L 426.148903 101.654514 
L 433.306387 101.826217 
L 440.463871 101.999177 
L 447.621354 102.173397 
L 454.778838 102.348883 
L 461.936322 102.525638 
L 469.093806 102.703666 
L 476.25129 102.882971 
L 483.408774 103.063557 
L 490.566258 103.245428 
L 497.723742 103.428588 
L 504.881226 103.61304 
L 512.03871 103.798788 
L 519.196194 103.985835 
L 526.353678 104.174185 
L 533.511162 104.363842 
L 540.668646 104.554807 
L 547.826129 104.747085 
L 554.983613 104.940679 
L 562.141097 105.135591 
L 569.298581 105.331825 
L 576.456065 105.529383 
L 583.613549 105.728268 
L 590.771033 105.928482 
L 597.928517 106.130028 
L 605.086001 106.332909 
L 612.243485 106.537126 
L 619.400969 106.742683 
L 626.558453 106.94958 
L 633.715937 107.15782 
L 640.873421 107.367406 
L 648.030904 107.578338 
L 655.188388 107.790618 
L 662.345872 108.004248 
L 669.503356 108.219229 
L 676.66084 108.435563 
L 683.818324 108.653251 
L 690.975808 108.872294 
L 698.133292 109.092692 
L 705.290776 109.314448 
L 712.44826 109.537561 
L 719.605744 109.762032 
L 726.763228 109.987862 
L 733.920712 110.215052 
L 741.078196 110.4436 
L 748.23568 110.673508 
L 755.393163 110.904776 
L 762.550647 111.137403 
L 769.708131 111.371389 
L 776.865615 111.606734 
L 784.023099 111.843437 
L 791.180583 112.081498 
L 798.338067 112.320916 
L 805.495551 112.56169 
L 812.653035 112.803819 
L 819.810519 113.047302 
L 826.968003 113.292137 
L 834.125487 113.538324 
L 841.282971 113.78586 
L 848.440455 114.034745 
" clip-path="url(#p13386ddcbc)" style="fill: none; stroke: #fd8c3b; stroke-width: 1.5; stroke-linecap: square"/>
   </g>
   <g id="line2d_25">
    <path d="M 139.849545 569.454545 
L 147.007029 568.035716 
L 154.164513 566.617113 
L 161.321997 565.198738 
L 168.479481 563.78059 
L 175.636965 562.362669 
L 182.794449 560.944975 
L 189.951933 559.527509 
L 197.109417 558.11027 
L 204.266901 556.693258 
L 211.424385 555.276472 
L 218.581869 553.859914 
L 225.739353 552.443583 
L 232.896837 551.027479 
L 240.05432 549.611602 
L 247.211804 548.195951 
L 254.369288 546.780528 
L 261.526772 545.365331 
L 268.684256 543.950361 
L 275.84174 542.535618 
L 282.999224 541.121101 
L 290.156708 539.706811 
L 297.314192 538.292748 
L 304.471676 536.878911 
L 311.62916 535.465301 
L 318.786644 534.051917 
L 325.944128 532.63876 
L 333.101612 531.225829 
L 340.259096 529.813125 
L 347.416579 528.400647 
L 354.574063 526.988395 
L 361.731547 525.57637 
L 368.889031 524.164571 
L 376.046515 522.752998 
L 383.203999 521.341651 
L 390.361483 519.93053 
L 397.518967 518.519636 
L 404.676451 517.108967 
L 411.833935 515.698525 
L 418.991419 514.288309 
L 426.148903 512.878318 
L 433.306387 511.468554 
L 440.463871 510.059015 
L 447.621354 508.649702 
L 454.778838 507.240615 
L 461.936322 505.831754 
L 469.093806 504.423119 
L 476.25129 503.014709 
L 483.408774 501.606525 
L 490.566258 500.198567 
L 497.723742 498.790834 
L 504.881226 497.383327 
L 512.03871 495.976045 
L 519.196194 494.568989 
L 526.353678 493.162158 
L 533.511162 491.755553 
L 540.668646 490.349173 
L 547.826129 488.943018 
L 554.983613 487.537089 
L 562.141097 486.131385 
L 569.298581 484.725906 
L 576.456065 483.320653 
L 583.613549 481.915625 
L 590.771033 480.510821 
L 597.928517 479.106243 
L 605.086001 477.70189 
L 612.243485 476.297762 
L 619.400969 474.893859 
L 626.558453 473.490181 
L 633.715937 472.086728 
L 640.873421 470.683499 
L 648.030904 469.280496 
L 655.188388 467.877717 
L 662.345872 466.475163 
L 669.503356 465.072834 
L 676.66084 463.67073 
L 683.818324 462.26885 
L 690.975808 460.867195 
L 698.133292 459.465764 
L 705.290776 458.064558 
L 712.44826 456.663576 
L 719.605744 455.262819 
L 726.763228 453.862287 
L 733.920712 452.461979 
L 741.078196 451.061895 
L 748.23568 449.662035 
L 755.393163 448.2624 
L 762.550647 446.862989 
L 769.708131 445.463803 
L 776.865615 444.06484 
L 784.023099 442.666102 
L 791.180583 441.267588 
L 798.338067 439.869298 
L 805.495551 438.471232 
L 812.653035 437.07339 
L 819.810519 435.675772 
L 826.968003 434.278378 
L 834.125487 432.881208 
L 841.282971 431.484261 
L 848.440455 430.087539 
" clip-path="url(#p13386ddcbc)" style="fill: none; stroke: #4a98c9; stroke-width: 1.5; stroke-linecap: square"/>
   </g>
   <g id="line2d_26">
    <path d="M 139.849545 95.760921 
L 147.007029 91.752887 
L 154.164513 89.090473 
L 161.321997 87.401928 
L 168.479481 86.264712 
L 175.636965 85.418422 
L 182.794449 84.880404 
L 189.951933 84.610984 
L 197.109417 84.484407 
L 204.266901 84.319235 
L 211.424385 84.154118 
L 218.581869 84.049616 
L 225.739353 84.019101 
L 232.896837 84.044895 
L 240.05432 84.078268 
L 247.211804 84.0472 
L 254.369288 83.968991 
L 261.526772 83.897557 
L 268.684256 83.863885 
L 275.84174 83.881125 
L 282.999224 83.944592 
L 290.156708 84.031761 
L 297.314192 84.102271 
L 304.471676 84.097653 
L 311.62916 83.92002 
L 318.786644 83.645381 
L 325.944128 83.407109 
L 333.101612 83.295434 
L 340.259096 83.357453 
L 347.416579 83.597121 
L 354.574063 83.975257 
L 361.731547 84.409541 
L 368.889031 84.774516 
L 376.046515 84.901585 
L 383.203999 84.646972 
L 390.361483 84.318977 
L 397.518967 84.110791 
L 404.676451 84.094896 
L 411.833935 84.264142 
L 418.991419 84.531747 
L 426.148903 84.731298 
L 433.306387 84.714779 
L 440.463871 84.688205 
L 447.621354 84.76169 
L 454.778838 84.981624 
L 461.936322 85.344288 
L 469.093806 85.795856 
L 476.25129 86.232393 
L 483.408774 86.50526 
L 490.566258 86.724227 
L 497.723742 87.130644 
L 504.881226 87.860756 
L 512.03871 88.943641 
L 519.196194 90.301216 
L 526.353678 91.748235 
L 533.511162 92.992287 
L 540.668646 93.85052 
L 547.826129 94.703862 
L 554.983613 95.816873 
L 562.141097 97.303314 
L 569.298581 99.129135 
L 576.456065 101.112468 
L 583.613549 102.923631 
L 590.771033 104.219879 
L 597.928517 105.41519 
L 605.086001 106.648506 
L 612.243485 107.933506 
L 619.400969 109.244428 
L 626.558453 110.516064 
L 633.715937 111.643762 
L 640.873421 112.673759 
L 648.030904 113.715431 
L 655.188388 114.641525 
L 662.345872 115.38092 
L 669.503356 115.921058 
L 676.66084 116.307942 
L 683.818324 116.646138 
L 690.975808 117.098775 
L 698.133292 117.749151 
L 705.290776 118.385069 
L 712.44826 118.871689 
L 719.605744 119.152453 
L 726.763228 119.248283 
L 733.920712 119.257579 
L 741.078196 119.356224 
L 748.23568 119.698096 
L 755.393163 120.072892 
L 762.550647 120.359905 
L 769.708131 120.507196 
L 776.865615 120.518832 
L 784.023099 120.454882 
L 791.180583 120.431419 
L 798.338067 120.590028 
L 805.495551 120.818946 
L 812.653035 121.006593 
L 819.810519 121.103337 
L 826.968003 121.098822 
L 834.125487 121.021972 
L 841.282971 120.940987 
L 848.440455 120.963347 
" clip-path="url(#p13386ddcbc)" style="fill: none; stroke: #f3701b; stroke-width: 1.5; stroke-linecap: square"/>
   </g>
   <g id="line2d_27">
    <path d="M 139.849545 569.454545 
L 147.007029 568.045128 
L 154.164513 566.647871 
L 161.321997 565.25745 
L 168.479481 563.867394 
L 175.636965 562.479239 
L 182.794449 561.091799 
L 189.951933 559.704211 
L 197.109417 558.317049 
L 204.266901 556.93024 
L 211.424385 555.543011 
L 218.581869 554.155131 
L 225.739353 552.767384 
L 232.896837 551.380063 
L 240.05432 549.992877 
L 247.211804 548.604954 
L 254.369288 547.215664 
L 261.526772 545.826327 
L 268.684256 544.437783 
L 275.84174 543.049809 
L 282.999224 541.661121 
L 290.156708 540.269959 
L 297.314192 538.877996 
L 304.471676 537.487324 
L 311.62916 536.09813 
L 318.786644 534.70869 
L 325.944128 533.315753 
L 333.101612 531.920846 
L 340.259096 530.527305 
L 347.416579 529.135632 
L 354.574063 527.74364 
L 361.731547 526.347668 
L 368.889031 524.950647 
L 376.046515 523.554676 
L 383.203999 522.159343 
L 390.361483 520.762158 
L 397.518967 519.362854 
L 404.676451 517.963535 
L 411.833935 516.564505 
L 418.991419 515.164759 
L 426.148903 513.762714 
L 433.306387 512.35965 
L 440.463871 510.956667 
L 447.621354 509.553687 
L 454.778838 508.14949 
L 461.936322 506.742415 
L 469.093806 505.334065 
L 476.25129 503.926166 
L 483.408774 502.518793 
L 490.566258 501.110368 
L 497.723742 499.698052 
L 504.881226 498.283264 
L 512.03871 496.869154 
L 519.196194 495.456283 
L 526.353678 494.042627 
L 533.511162 492.624229 
L 540.668646 491.203319 
L 547.826129 489.782945 
L 554.983613 488.363121 
L 562.141097 486.941285 
L 569.298581 485.515433 
L 576.456065 484.088662 
L 583.613549 482.661758 
L 590.771033 481.233819 
L 597.928517 479.802737 
L 605.086001 478.36951 
L 612.243485 476.935548 
L 619.400969 475.500878 
L 626.558453 474.064285 
L 633.715937 472.62411 
L 640.873421 471.181935 
L 648.030904 469.739264 
L 655.188388 468.296073 
L 662.345872 466.850815 
L 669.503356 465.400948 
L 676.66084 463.94812 
L 683.818324 462.49515 
L 690.975808 461.042442 
L 698.133292 459.587971 
L 705.290776 458.127802 
L 712.44826 456.663859 
L 719.605744 455.199738 
L 726.763228 453.735767 
L 733.920712 452.269314 
L 741.078196 450.796931 
L 748.23568 449.322207 
L 755.393163 447.846783 
L 762.550647 446.369909 
L 769.708131 444.888843 
L 776.865615 443.403982 
L 784.023099 441.917377 
L 791.180583 440.429238 
L 798.338067 438.938282 
L 805.495551 437.442603 
L 812.653035 435.943816 
L 819.810519 434.443386 
L 826.968003 432.941225 
L 834.125487 431.435728 
L 841.282971 429.925222 
L 848.440455 428.411771 
" clip-path="url(#p13386ddcbc)" style="fill: none; stroke: #2e7ebc; stroke-width: 1.5; stroke-linecap: square"/>
   </g>
   <g id="line2d_28">
    <path d="M 139.849545 95.760921 
L 147.007029 89.183305 
L 154.164513 85.968849 
L 161.321997 84.674105 
L 168.479481 83.691697 
L 175.636965 83.285218 
L 182.794449 83.11643 
L 189.951933 82.938154 
L 197.109417 82.919901 
L 204.266901 83.046348 
L 211.424385 83.093338 
L 218.581869 82.996714 
L 225.739353 82.997083 
L 232.896837 83.18857 
L 240.05432 83.490848 
L 247.211804 83.649153 
L 254.369288 83.47867 
L 261.526772 83.381593 
L 268.684256 83.617765 
L 275.84174 84.128619 
L 282.999224 84.537175 
L 290.156708 84.319338 
L 297.314192 83.977567 
L 304.471676 84.150807 
L 311.62916 84.907121 
L 318.786644 85.740457 
L 325.944128 85.685002 
L 333.101612 85.191516 
L 340.259096 85.260123 
L 347.416579 86.053822 
L 354.574063 86.94107 
L 361.731547 86.851494 
L 368.889031 86.643531 
L 376.046515 86.936048 
L 383.203999 87.62108 
L 390.361483 87.990183 
L 397.518967 87.970488 
L 404.676451 88.17416 
L 411.833935 88.696628 
L 418.991419 89.2591 
L 426.148903 89.415311 
L 433.306387 89.537938 
L 440.463871 89.94992 
L 447.621354 90.637907 
L 454.778838 91.263603 
L 461.936322 91.361079 
L 469.093806 91.391224 
L 476.25129 91.854259 
L 483.408774 92.782246 
L 490.566258 93.739938 
L 497.723742 93.933617 
L 504.881226 93.764194 
L 512.03871 94.123221 
L 519.196194 95.181478 
L 526.353678 96.39035 
L 533.511162 96.662662 
L 540.668646 96.616348 
L 547.826129 97.090195 
L 554.983613 98.100524 
L 562.141097 98.970418 
L 569.298581 99.170258 
L 576.456065 99.533655 
L 583.613549 100.277544 
L 590.771033 101.174621 
L 597.928517 101.67913 
L 605.086001 102.062477 
L 612.243485 102.701185 
L 619.400969 103.61234 
L 626.558453 104.490605 
L 633.715937 104.916724 
L 640.873421 105.307688 
L 648.030904 106.058793 
L 655.188388 107.174783 
L 662.345872 108.273158 
L 669.503356 108.717191 
L 676.66084 108.93244 
L 683.818324 109.636351 
L 690.975808 110.94377 
L 698.133292 112.364402 
L 705.290776 112.932533 
L 712.44826 113.131404 
L 719.605744 113.843722 
L 726.763228 115.162943 
L 733.920712 116.47273 
L 741.078196 116.961502 
L 748.23568 117.489033 
L 755.393163 118.447562 
L 762.550647 119.675347 
L 769.708131 120.551196 
L 776.865615 121.178546 
L 784.023099 122.034328 
L 791.180583 123.177106 
L 798.338067 124.329347 
L 805.495551 125.076377 
L 812.653035 125.790857 
L 819.810519 126.805615 
L 826.968003 128.113933 
L 834.125487 129.377172 
L 841.282971 130.241985 
L 848.440455 131.170747 
" clip-path="url(#p13386ddcbc)" style="fill: none; stroke: #e25508; stroke-width: 1.5; stroke-linecap: square"/>
   </g>
   <g id="line2d_29">
    <path d="M 139.849545 569.454545 
L 147.007029 568.040416 
L 154.164513 566.627194 
L 161.321997 565.214819 
L 168.479481 563.803233 
L 175.636965 562.392317 
L 182.794449 560.982011 
L 189.951933 559.572284 
L 197.109417 558.163106 
L 204.266901 556.754445 
L 211.424385 555.346271 
L 218.581869 553.938553 
L 225.739353 552.531261 
L 232.896837 551.124363 
L 240.05432 549.717829 
L 247.211804 548.311628 
L 254.369288 546.905729 
L 261.526772 545.500102 
L 268.684256 544.094715 
L 275.84174 542.689537 
L 282.999224 541.284539 
L 290.156708 539.879688 
L 297.314192 538.474954 
L 304.471676 537.070306 
L 311.62916 535.665712 
L 318.786644 534.261143 
L 325.944128 532.856567 
L 333.101612 531.451953 
L 340.259096 530.047269 
L 347.416579 528.642486 
L 354.574063 527.237571 
L 361.731547 525.832494 
L 368.889031 524.427224 
L 376.046515 523.02173 
L 383.203999 521.61598 
L 390.361483 520.209943 
L 397.518967 518.803588 
L 404.676451 517.396884 
L 411.833935 515.989803 
L 418.991419 514.582367 
L 426.148903 513.174585 
L 433.306387 511.766451 
L 440.463871 510.357959 
L 447.621354 508.949104 
L 454.778838 507.539878 
L 461.936322 506.130277 
L 469.093806 504.720294 
L 476.25129 503.309922 
L 483.408774 501.899156 
L 490.566258 500.487988 
L 497.723742 499.076411 
L 504.881226 497.66442 
L 512.03871 496.252007 
L 519.196194 494.839165 
L 526.353678 493.425887 
L 533.511162 492.012165 
L 540.668646 490.597993 
L 547.826129 489.183363 
L 554.983613 487.768267 
L 562.141097 486.352698 
L 569.298581 484.936649 
L 576.456065 483.52011 
L 583.613549 482.103074 
L 590.771033 480.685534 
L 597.928517 479.26748 
L 605.086001 477.848905 
L 612.243485 476.429799 
L 619.400969 475.010156 
L 626.558453 473.589965 
L 633.715937 472.169219 
L 640.873421 470.747908 
L 648.030904 469.326024 
L 655.188388 467.903557 
L 662.345872 466.480498 
L 669.503356 465.056838 
L 676.66084 463.632568 
L 683.818324 462.207677 
L 690.975808 460.782158 
L 698.133292 459.355998 
L 705.290776 457.929206 
L 712.44826 456.50182 
L 719.605744 455.073839 
L 726.763228 453.645263 
L 733.920712 452.216089 
L 741.078196 450.786316 
L 748.23568 449.35594 
L 755.393163 447.924961 
L 762.550647 446.493376 
L 769.708131 445.061184 
L 776.865615 443.628384 
L 784.023099 442.194974 
L 791.180583 440.760953 
L 798.338067 439.326319 
L 805.495551 437.891071 
L 812.653035 436.455208 
L 819.810519 435.018729 
L 826.968003 433.581634 
L 834.125487 432.143921 
L 841.282971 430.705589 
L 848.440455 429.266639 
" clip-path="url(#p13386ddcbc)" style="fill: none; stroke: #1764ab; stroke-width: 1.5; stroke-linecap: square"/>
   </g>
   <g id="line2d_30">
    <path d="M 139.849545 95.760921 
L 147.007029 94.431189 
L 154.164513 93.183547 
L 161.321997 92.015647 
L 168.479481 90.924862 
L 175.636965 89.90613 
L 182.794449 88.956599 
L 189.951933 88.074571 
L 197.109417 87.258353 
L 204.266901 86.50626 
L 211.424385 85.816614 
L 218.581869 85.187744 
L 225.739353 84.617984 
L 232.896837 84.105679 
L 240.05432 83.649177 
L 247.211804 83.246836 
L 254.369288 82.89702 
L 261.526772 82.598099 
L 268.684256 82.348451 
L 275.84174 82.146462 
L 282.999224 81.990524 
L 290.156708 81.879035 
L 297.314192 81.810402 
L 304.471676 81.783038 
L 311.62916 81.795363 
L 318.786644 81.845804 
L 325.944128 81.932796 
L 333.101612 82.05478 
L 340.259096 82.210205 
L 347.416579 82.397525 
L 354.574063 82.615203 
L 361.731547 82.861709 
L 368.889031 83.135519 
L 376.046515 83.435117 
L 383.203999 83.758993 
L 390.361483 84.105645 
L 397.518967 84.473577 
L 404.676451 84.861302 
L 411.833935 85.267431 
L 418.991419 85.692326 
L 426.148903 86.136022 
L 433.306387 86.598094 
L 440.463871 87.078117 
L 447.621354 87.57566 
L 454.778838 88.090291 
L 461.936322 88.621578 
L 469.093806 89.169085 
L 476.25129 89.732371 
L 483.408774 90.310998 
L 490.566258 90.904522 
L 497.723742 91.512498 
L 504.881226 92.134479 
L 512.03871 92.770014 
L 519.196194 93.418652 
L 526.353678 94.079938 
L 533.511162 94.753416 
L 540.668646 95.438627 
L 547.826129 96.13511 
L 554.983613 96.842401 
L 562.141097 97.560035 
L 569.298581 98.287544 
L 576.456065 99.024457 
L 583.613549 99.770302 
L 590.771033 100.524605 
L 597.928517 101.286887 
L 605.086001 102.05667 
L 612.243485 102.833472 
L 619.400969 103.61681 
L 626.558453 104.406196 
L 633.715937 105.201143 
L 640.873421 106.001159 
L 648.030904 106.805752 
L 655.188388 107.614427 
L 662.345872 108.426685 
L 669.503356 109.242027 
L 676.66084 110.059951 
L 683.818324 110.879953 
L 690.975808 111.701525 
L 698.133292 112.524159 
L 705.290776 113.348014 
L 712.44826 114.174658 
L 719.605744 115.004017 
L 726.763228 115.835902 
L 733.920712 116.670135 
L 741.078196 117.506538 
L 748.23568 118.34494 
L 755.393163 119.185173 
L 762.550647 120.027077 
L 769.708131 120.870492 
L 776.865615 121.715268 
L 784.023099 122.561256 
L 791.180583 123.408313 
L 798.338067 124.2563 
L 805.495551 125.105084 
L 812.653035 125.954537 
L 819.810519 126.804533 
L 826.968003 127.654954 
L 834.125487 128.505684 
L 841.282971 129.356615 
L 848.440455 130.207641 
" clip-path="url(#p13386ddcbc)" style="fill: none; stroke: #c54102; stroke-width: 1.5; stroke-linecap: square"/>
   </g>
   <g id="line2d_31">
    <path d="M 139.849545 569.454545 
L 147.007029 568.043071 
L 154.164513 566.63247 
L 161.321997 565.22201 
L 168.479481 563.811609 
L 175.636965 562.401245 
L 182.794449 560.990856 
L 189.951933 559.580472 
L 197.109417 558.170136 
L 204.266901 556.759701 
L 211.424385 555.34932 
L 218.581869 553.938962 
L 225.739353 552.528466 
L 232.896837 551.118127 
L 240.05432 549.70767 
L 247.211804 548.297177 
L 254.369288 546.886831 
L 261.526772 545.476254 
L 268.684256 544.065818 
L 275.84174 542.65528 
L 282.999224 541.244742 
L 290.156708 539.834214 
L 297.314192 538.423594 
L 304.471676 537.013053 
L 311.62916 535.602369 
L 318.786644 534.191735 
L 325.944128 532.78111 
L 333.101612 531.370297 
L 340.259096 529.959654 
L 347.416579 528.548846 
L 354.574063 527.138004 
L 361.731547 525.727233 
L 368.889031 524.316269 
L 376.046515 522.9054 
L 383.203999 521.494383 
L 390.361483 520.083392 
L 397.518967 518.672334 
L 404.676451 517.261196 
L 411.833935 515.850115 
L 418.991419 514.438835 
L 426.148903 513.027608 
L 433.306387 511.616369 
L 440.463871 510.204898 
L 447.621354 508.793584 
L 454.778838 507.382054 
L 461.936322 505.970515 
L 469.093806 504.558938 
L 476.25129 503.147235 
L 483.408774 501.735551 
L 490.566258 500.323701 
L 497.723742 498.911875 
L 504.881226 497.499921 
L 512.03871 496.08788 
L 519.196194 494.675891 
L 526.353678 493.26364 
L 533.511162 491.851439 
L 540.668646 490.439188 
L 547.826129 489.026704 
L 554.983613 487.614319 
L 562.141097 486.201695 
L 569.298581 484.789077 
L 576.456065 483.37633 
L 583.613549 481.963502 
L 590.771033 480.550624 
L 597.928517 479.137568 
L 605.086001 477.724532 
L 612.243485 476.311317 
L 619.400969 474.897993 
L 626.558453 473.484727 
L 633.715937 472.071146 
L 640.873421 470.657606 
L 648.030904 469.24395 
L 655.188388 467.830114 
L 662.345872 466.416277 
L 669.503356 465.002229 
L 676.66084 463.588164 
L 683.818324 462.173917 
L 690.975808 460.759607 
L 698.133292 459.345202 
L 705.290776 457.93059 
L 712.44826 456.51601 
L 719.605744 455.101223 
L 726.763228 453.68631 
L 733.920712 452.271348 
L 741.078196 450.856178 
L 748.23568 449.440977 
L 755.393163 448.025575 
L 762.550647 446.610108 
L 769.708131 445.194521 
L 776.865615 443.778732 
L 784.023099 442.362959 
L 791.180583 440.946941 
L 798.338067 439.53081 
L 805.495551 438.114681 
L 812.653035 436.69823 
L 819.810519 435.281798 
L 826.968003 433.865153 
L 834.125487 432.448407 
L 841.282971 431.031543 
L 848.440455 429.614523 
" clip-path="url(#p13386ddcbc)" style="fill: none; stroke: #084a91; stroke-width: 1.5; stroke-linecap: square"/>
   </g>
   <g id="line2d_32">
    <path d="M 139.849545 95.760921 
L 147.007029 85.750771 
L 154.164513 83.787667 
L 161.321997 82.960662 
L 168.479481 82.672158 
L 175.636965 82.733842 
L 182.794449 82.611609 
L 189.951933 82.57226 
L 197.109417 83.006042 
L 204.266901 82.618679 
L 211.424385 82.785947 
L 218.581869 83.233784 
L 225.739353 82.540929 
L 232.896837 83.346139 
L 240.05432 83.217928 
L 247.211804 82.891962 
L 254.369288 84.007763 
L 261.526772 83.212697 
L 268.684256 83.841692 
L 275.84174 83.721932 
L 282.999224 83.799799 
L 290.156708 84.154278 
L 297.314192 83.911251 
L 304.471676 84.590303 
L 311.62916 84.233856 
L 318.786644 84.576855 
L 325.944128 85.269422 
L 333.101612 84.567543 
L 340.259096 85.680227 
L 347.416579 85.620653 
L 354.574063 85.587463 
L 361.731547 86.538379 
L 368.889031 86.105723 
L 376.046515 86.898006 
L 383.203999 86.740844 
L 390.361483 87.223339 
L 397.518967 87.518912 
L 404.676451 87.532854 
L 411.833935 88.506085 
L 418.991419 88.139773 
L 426.148903 88.744173 
L 433.306387 89.723134 
L 440.463871 89.124779 
L 447.621354 90.475711 
L 454.778838 90.407322 
L 461.936322 90.82762 
L 469.093806 91.468234 
L 476.25129 91.551071 
L 483.408774 92.415705 
L 490.566258 92.388528 
L 497.723742 93.227963 
L 504.881226 93.546778 
L 512.03871 93.750856 
L 519.196194 95.115416 
L 526.353678 94.774424 
L 533.511162 95.625798 
L 540.668646 96.746735 
L 547.826129 96.474509 
L 554.983613 97.888424 
L 562.141097 97.866409 
L 569.298581 98.714765 
L 576.456065 99.177869 
L 583.613549 99.716046 
L 590.771033 100.639863 
L 597.928517 100.762287 
L 605.086001 101.958739 
L 612.243485 102.37263 
L 619.400969 102.685392 
L 626.558453 104.464064 
L 633.715937 104.217393 
L 640.873421 105.319529 
L 648.030904 106.290437 
L 655.188388 106.555736 
L 662.345872 107.807595 
L 669.503356 108.06858 
L 676.66084 109.201062 
L 683.818324 109.6389 
L 690.975808 110.528958 
L 698.133292 111.589383 
L 705.290776 111.75494 
L 712.44826 113.323034 
L 719.605744 114.011322 
L 726.763228 114.614831 
L 733.920712 115.889341 
L 741.078196 116.297611 
L 748.23568 117.569717 
L 755.393163 118.060129 
L 762.550647 119.117302 
L 769.708131 120.206161 
L 776.865615 120.529358 
L 784.023099 122.240488 
L 791.180583 122.773973 
L 798.338067 123.460454 
L 805.495551 125.421512 
L 812.653035 125.460255 
L 819.810519 126.991021 
L 826.968003 127.677869 
L 834.125487 128.671367 
L 841.282971 129.805543 
L 848.440455 130.686085 
" clip-path="url(#p13386ddcbc)" style="fill: none; stroke: #9e3303; stroke-width: 1.5; stroke-linecap: square"/>
   </g>
   <g id="line2d_33">
    <path d="M 139.849545 569.454545 
L 147.007029 568.031479 
L 154.164513 566.61451 
L 161.321997 565.203125 
L 168.479481 563.796803 
L 175.636965 562.394494 
L 182.794449 560.995808 
L 189.951933 559.600633 
L 197.109417 558.208838 
L 204.266901 556.820274 
L 211.424385 555.434774 
L 218.581869 554.052153 
L 225.739353 552.672205 
L 232.896837 551.294707 
L 240.05432 549.919419 
L 247.211804 548.546081 
L 254.369288 547.174413 
L 261.526772 545.80412 
L 268.684256 544.434887 
L 275.84174 543.066378 
L 282.999224 541.698243 
L 290.156708 540.330111 
L 297.314192 538.961592 
L 304.471676 537.592278 
L 311.62916 536.221745 
L 318.786644 534.849779 
L 325.944128 533.476911 
L 333.101612 532.103191 
L 340.259096 530.728605 
L 347.416579 529.353136 
L 354.574063 527.976754 
L 361.731547 526.599422 
L 368.889031 525.221097 
L 376.046515 523.841726 
L 383.203999 522.461246 
L 390.361483 521.079589 
L 397.518967 519.696677 
L 404.676451 518.312423 
L 411.833935 516.926734 
L 418.991419 515.539506 
L 426.148903 514.150628 
L 433.306387 512.759981 
L 440.463871 511.367439 
L 447.621354 509.972864 
L 454.778838 508.576113 
L 461.936322 507.177033 
L 469.093806 505.775464 
L 476.25129 504.371237 
L 483.408774 502.964227 
L 490.566258 501.554568 
L 497.723742 500.142309 
L 504.881226 498.727473 
L 512.03871 497.31008 
L 519.196194 495.890143 
L 526.353678 494.467668 
L 533.511162 493.042658 
L 540.668646 491.615109 
L 547.826129 490.185012 
L 554.983613 488.752351 
L 562.141097 487.317106 
L 569.298581 485.879251 
L 576.456065 484.438755 
L 583.613549 482.995579 
L 590.771033 481.549681 
L 597.928517 480.101012 
L 605.086001 478.649518 
L 612.243485 477.19514 
L 619.400969 475.737812 
L 626.558453 474.277462 
L 633.715937 472.814016 
L 640.873421 471.347389 
L 648.030904 469.877495 
L 655.188388 468.40424 
L 662.345872 466.927526 
L 669.503356 465.447247 
L 676.66084 463.963293 
L 683.818324 462.47555 
L 690.975808 460.98391 
L 698.133292 459.488652 
L 705.290776 457.989901 
L 712.44826 456.487633 
L 719.605744 454.98182 
L 726.763228 453.472435 
L 733.920712 451.95945 
L 741.078196 450.442836 
L 748.23568 448.922562 
L 755.393163 447.398597 
L 762.550647 445.870909 
L 769.708131 444.339465 
L 776.865615 442.804231 
L 784.023099 441.265172 
L 791.180583 439.722251 
L 798.338067 438.175432 
L 805.495551 436.624677 
L 812.653035 435.069947 
L 819.810519 433.511203 
L 826.968003 431.948403 
L 834.125487 430.381505 
L 841.282971 428.810468 
L 848.440455 427.235248 
" clip-path="url(#p13386ddcbc)" style="fill: none; stroke: #08306b; stroke-width: 1.5; stroke-linecap: square"/>
   </g>
   <g id="line2d_34">
    <path d="M 139.849545 95.760921 
L 147.007029 94.175706 
L 154.164513 92.711006 
L 161.321997 91.362558 
L 168.479481 90.124824 
L 175.636965 88.984691 
L 182.794449 87.936956 
L 189.951933 86.979881 
L 197.109417 86.111494 
L 204.266901 85.329589 
L 211.424385 84.631725 
L 218.581869 84.015226 
L 225.739353 83.477183 
L 232.896837 83.014449 
L 240.05432 82.623647 
L 247.211804 82.301162 
L 254.369288 82.043146 
L 261.526772 81.845516 
L 268.684256 81.703954 
L 275.84174 81.613909 
L 282.999224 81.570594 
L 290.156708 81.568988 
L 297.314192 81.603835 
L 304.471676 81.669645 
L 311.62916 81.760693 
L 318.786644 81.873693 
L 325.944128 82.014307 
L 333.101612 82.183223 
L 340.259096 82.380432 
L 347.416579 82.605802 
L 354.574063 82.859088 
L 361.731547 83.139925 
L 368.889031 83.447829 
L 376.046515 83.782202 
L 383.203999 84.142324 
L 390.361483 84.52736 
L 397.518967 84.936357 
L 404.676451 85.368242 
L 411.833935 85.821829 
L 418.991419 86.295808 
L 426.148903 86.788757 
L 433.306387 87.299132 
L 440.463871 87.825274 
L 447.621354 88.365405 
L 454.778838 88.91763 
L 461.936322 89.479935 
L 469.093806 90.050189 
L 476.25129 90.626144 
L 483.408774 91.206215 
L 490.566258 91.792639 
L 497.723742 92.38646 
L 504.881226 92.988362 
L 512.03871 93.598948 
L 519.196194 94.218742 
L 526.353678 94.848183 
L 533.511162 95.487632 
L 540.668646 96.137367 
L 547.826129 96.797585 
L 554.983613 97.468403 
L 562.141097 98.149855 
L 569.298581 98.841894 
L 576.456065 99.544394 
L 583.613549 100.257144 
L 590.771033 100.979855 
L 597.928517 101.712156 
L 605.086001 102.453593 
L 612.243485 103.203634 
L 619.400969 103.961661 
L 626.558453 104.72698 
L 633.715937 105.498813 
L 640.873421 106.276301 
L 648.030904 107.058503 
L 655.188388 107.844399 
L 662.345872 108.632885 
L 669.503356 109.422779 
L 676.66084 110.212814 
L 683.818324 111.001645 
L 690.975808 111.788081 
L 698.133292 112.576728 
L 705.290776 113.369887 
L 712.44826 114.167558 
L 719.605744 114.969734 
L 726.763228 115.776393 
L 733.920712 116.587505 
L 741.078196 117.403027 
L 748.23568 118.222907 
L 755.393163 119.047081 
L 762.550647 119.875475 
L 769.708131 120.708001 
L 776.865615 121.544565 
L 784.023099 122.385057 
L 791.180583 123.22936 
L 798.338067 124.077345 
L 805.495551 124.92887 
L 812.653035 125.783785 
L 819.810519 126.641927 
L 826.968003 127.503123 
L 834.125487 128.367189 
L 841.282971 129.233929 
L 848.440455 130.103139 
" clip-path="url(#p13386ddcbc)" style="fill: none; stroke: #7f2704; stroke-width: 1.5; stroke-linecap: square"/>
   </g>
   <g id="patch_3">
    <path d="M 104.42 595.44 
L 104.42 23.76 
" style="fill: none; stroke: #000000; stroke-width: 0.8; stroke-linejoin: miter; stroke-linecap: square"/>
   </g>
   <g id="patch_4">
    <path d="M 883.87 595.44 
L 883.87 23.76 
" style="fill: none; stroke: #000000; stroke-width: 0.8; stroke-linejoin: miter; stroke-linecap: square"/>
   </g>
   <g id="patch_5">
    <path d="M 104.42 595.44 
L 883.87 595.44 
" style="fill: none; stroke: #000000; stroke-width: 0.8; stroke-linejoin: miter; stroke-linecap: square"/>
   </g>
   <g id="patch_6">
    <path d="M 104.42 23.76 
L 883.87 23.76 
" style="fill: none; stroke: #000000; stroke-width: 0.8; stroke-linejoin: miter; stroke-linecap: square"/>
   </g>
   <g id="legend_1">
    <g id="patch_7">
     <path d="M 899.27 687.1975 
L 1052.056562 687.1975 
Q 1056.456563 687.1975 1056.456563 682.7975 
L 1056.456563 39.16 
Q 1056.456563 34.76 1052.056562 34.76 
L 899.27 34.76 
Q 894.87 34.76 894.87 39.16 
L 894.87 682.7975 
Q 894.87 687.1975 899.27 687.1975 
z
" style="fill: #ffffff; opacity: 0.8; stroke: #cccccc; stroke-linejoin: miter"/>
    </g>
    <g id="PathCollection_3">
     <g>
      <use xlink:href="#m80f1702e56" x="925.67" y="54.501563" style="fill: #1f77b4; stroke: #1f77b4"/>
     </g>
    </g>
    <g id="text_19">
     <!-- Xi -->
     <g transform="translate(965.27 60.276563) scale(0.22 -0.22)">
      <use xlink:href="#DejaVuSans-58"/>
      <use xlink:href="#DejaVuSans-69" x="68.505859"/>
     </g>
    </g>
    <g id="PathCollection_4">
     <g>
      <use xlink:href="#m62fcbac0dc" x="925.67" y="86.793438" style="fill: #ff7f0e; stroke: #ff7f0e"/>
     </g>
    </g>
    <g id="text_20">
     <!-- Xa -->
     <g transform="translate(965.27 92.568438) scale(0.22 -0.22)">
      <use xlink:href="#DejaVuSans-58"/>
      <use xlink:href="#DejaVuSans-61" x="68.505859"/>
     </g>
    </g>
    <g id="line2d_35">
     <path d="M 903.67 117.160313 
L 925.67 117.160313 
L 947.67 117.160313 
" style="fill: none; stroke: #d0e1f2; stroke-width: 1.5; stroke-linecap: square"/>
    </g>
    <g id="text_21">
     <!-- Xi-IIAA -->
     <g transform="translate(965.27 124.860313) scale(0.22 -0.22)">
      <defs>
       <path id="DejaVuSans-2d" d="M 313 2009 
L 1997 2009 
L 1997 1497 
L 313 1497 
L 313 2009 
z
" transform="scale(0.015625)"/>
       <path id="DejaVuSans-49" d="M 628 4666 
L 1259 4666 
L 1259 0 
L 628 0 
L 628 4666 
z
" transform="scale(0.015625)"/>
      </defs>
      <use xlink:href="#DejaVuSans-58"/>
      <use xlink:href="#DejaVuSans-69" x="68.505859"/>
      <use xlink:href="#DejaVuSans-2d" x="96.289062"/>
      <use xlink:href="#DejaVuSans-49" x="132.373047"/>
      <use xlink:href="#DejaVuSans-49" x="161.865234"/>
      <use xlink:href="#DejaVuSans-41" x="191.357422"/>
      <use xlink:href="#DejaVuSans-41" x="262.515625"/>
     </g>
    </g>
    <g id="line2d_36">
     <path d="M 903.67 149.452188 
L 925.67 149.452188 
L 947.67 149.452188 
" style="fill: none; stroke: #fdd9b4; stroke-width: 1.5; stroke-linecap: square"/>
    </g>
    <g id="text_22">
     <!-- Xa-IIAA -->
     <g transform="translate(965.27 157.152188) scale(0.22 -0.22)">
      <use xlink:href="#DejaVuSans-58"/>
      <use xlink:href="#DejaVuSans-61" x="68.505859"/>
      <use xlink:href="#DejaVuSans-2d" x="129.785156"/>
      <use xlink:href="#DejaVuSans-49" x="165.869141"/>
      <use xlink:href="#DejaVuSans-49" x="195.361328"/>
      <use xlink:href="#DejaVuSans-41" x="224.853516"/>
      <use xlink:href="#DejaVuSans-41" x="296.011719"/>
     </g>
    </g>
    <g id="line2d_37">
     <path d="M 903.67 181.744063 
L 925.67 181.744063 
L 947.67 181.744063 
" style="fill: none; stroke: #b7d4ea; stroke-width: 1.5; stroke-linecap: square"/>
    </g>
    <g id="text_23">
     <!-- Xi-IIAI -->
     <g transform="translate(965.27 189.444063) scale(0.22 -0.22)">
      <use xlink:href="#DejaVuSans-58"/>
      <use xlink:href="#DejaVuSans-69" x="68.505859"/>
      <use xlink:href="#DejaVuSans-2d" x="96.289062"/>
      <use xlink:href="#DejaVuSans-49" x="132.373047"/>
      <use xlink:href="#DejaVuSans-49" x="161.865234"/>
      <use xlink:href="#DejaVuSans-41" x="191.357422"/>
      <use xlink:href="#DejaVuSans-49" x="259.765625"/>
     </g>
    </g>
    <g id="line2d_38">
     <path d="M 903.67 214.035938 
L 925.67 214.035938 
L 947.67 214.035938 
" style="fill: none; stroke: #fdc38d; stroke-width: 1.5; stroke-linecap: square"/>
    </g>
    <g id="text_24">
     <!-- Xa-IIAI -->
     <g transform="translate(965.27 221.735938) scale(0.22 -0.22)">
      <use xlink:href="#DejaVuSans-58"/>
      <use xlink:href="#DejaVuSans-61" x="68.505859"/>
      <use xlink:href="#DejaVuSans-2d" x="129.785156"/>
      <use xlink:href="#DejaVuSans-49" x="165.869141"/>
      <use xlink:href="#DejaVuSans-49" x="195.361328"/>
      <use xlink:href="#DejaVuSans-41" x="224.853516"/>
      <use xlink:href="#DejaVuSans-49" x="293.261719"/>
     </g>
    </g>
    <g id="line2d_39">
     <path d="M 903.67 246.327813 
L 925.67 246.327813 
L 947.67 246.327813 
" style="fill: none; stroke: #94c4df; stroke-width: 1.5; stroke-linecap: square"/>
    </g>
    <g id="text_25">
     <!-- Xi-IIAN -->
     <g transform="translate(965.27 254.027813) scale(0.22 -0.22)">
      <defs>
       <path id="DejaVuSans-4e" d="M 628 4666 
L 1478 4666 
L 3547 763 
L 3547 4666 
L 4159 4666 
L 4159 0 
L 3309 0 
L 1241 3903 
L 1241 0 
L 628 0 
L 628 4666 
z
" transform="scale(0.015625)"/>
      </defs>
      <use xlink:href="#DejaVuSans-58"/>
      <use xlink:href="#DejaVuSans-69" x="68.505859"/>
      <use xlink:href="#DejaVuSans-2d" x="96.289062"/>
      <use xlink:href="#DejaVuSans-49" x="132.373047"/>
      <use xlink:href="#DejaVuSans-49" x="161.865234"/>
      <use xlink:href="#DejaVuSans-41" x="191.357422"/>
      <use xlink:href="#DejaVuSans-4e" x="259.765625"/>
     </g>
    </g>
    <g id="line2d_40">
     <path d="M 903.67 278.619688 
L 925.67 278.619688 
L 947.67 278.619688 
" style="fill: none; stroke: #fda762; stroke-width: 1.5; stroke-linecap: square"/>
    </g>
    <g id="text_26">
     <!-- Xa-IIAN -->
     <g transform="translate(965.27 286.319688) scale(0.22 -0.22)">
      <use xlink:href="#DejaVuSans-58"/>
      <use xlink:href="#DejaVuSans-61" x="68.505859"/>
      <use xlink:href="#DejaVuSans-2d" x="129.785156"/>
      <use xlink:href="#DejaVuSans-49" x="165.869141"/>
      <use xlink:href="#DejaVuSans-49" x="195.361328"/>
      <use xlink:href="#DejaVuSans-41" x="224.853516"/>
      <use xlink:href="#DejaVuSans-4e" x="293.261719"/>
     </g>
    </g>
    <g id="line2d_41">
     <path d="M 903.67 310.911563 
L 925.67 310.911563 
L 947.67 310.911563 
" style="fill: none; stroke: #6aaed6; stroke-width: 1.5; stroke-linecap: square"/>
    </g>
    <g id="text_27">
     <!-- Xi-IIIA -->
     <g transform="translate(965.27 318.611563) scale(0.22 -0.22)">
      <use xlink:href="#DejaVuSans-58"/>
      <use xlink:href="#DejaVuSans-69" x="68.505859"/>
      <use xlink:href="#DejaVuSans-2d" x="96.289062"/>
      <use xlink:href="#DejaVuSans-49" x="132.373047"/>
      <use xlink:href="#DejaVuSans-49" x="161.865234"/>
      <use xlink:href="#DejaVuSans-49" x="191.357422"/>
      <use xlink:href="#DejaVuSans-41" x="220.849609"/>
     </g>
    </g>
    <g id="line2d_42">
     <path d="M 903.67 343.203438 
L 925.67 343.203438 
L 947.67 343.203438 
" style="fill: none; stroke: #fd8c3b; stroke-width: 1.5; stroke-linecap: square"/>
    </g>
    <g id="text_28">
     <!-- Xa-IIIA -->
     <g transform="translate(965.27 350.903438) scale(0.22 -0.22)">
      <use xlink:href="#DejaVuSans-58"/>
      <use xlink:href="#DejaVuSans-61" x="68.505859"/>
      <use xlink:href="#DejaVuSans-2d" x="129.785156"/>
      <use xlink:href="#DejaVuSans-49" x="165.869141"/>
      <use xlink:href="#DejaVuSans-49" x="195.361328"/>
      <use xlink:href="#DejaVuSans-49" x="224.853516"/>
      <use xlink:href="#DejaVuSans-41" x="254.345703"/>
     </g>
    </g>
    <g id="line2d_43">
     <path d="M 903.67 375.495313 
L 925.67 375.495313 
L 947.67 375.495313 
" style="fill: none; stroke: #4a98c9; stroke-width: 1.5; stroke-linecap: square"/>
    </g>
    <g id="text_29">
     <!-- Xi-IIII -->
     <g transform="translate(965.27 383.195313) scale(0.22 -0.22)">
      <use xlink:href="#DejaVuSans-58"/>
      <use xlink:href="#DejaVuSans-69" x="68.505859"/>
      <use xlink:href="#DejaVuSans-2d" x="96.289062"/>
      <use xlink:href="#DejaVuSans-49" x="132.373047"/>
      <use xlink:href="#DejaVuSans-49" x="161.865234"/>
      <use xlink:href="#DejaVuSans-49" x="191.357422"/>
      <use xlink:href="#DejaVuSans-49" x="220.849609"/>
     </g>
    </g>
    <g id="line2d_44">
     <path d="M 903.67 407.787188 
L 925.67 407.787188 
L 947.67 407.787188 
" style="fill: none; stroke: #f3701b; stroke-width: 1.5; stroke-linecap: square"/>
    </g>
    <g id="text_30">
     <!-- Xa-IIII -->
     <g transform="translate(965.27 415.487188) scale(0.22 -0.22)">
      <use xlink:href="#DejaVuSans-58"/>
      <use xlink:href="#DejaVuSans-61" x="68.505859"/>
      <use xlink:href="#DejaVuSans-2d" x="129.785156"/>
      <use xlink:href="#DejaVuSans-49" x="165.869141"/>
      <use xlink:href="#DejaVuSans-49" x="195.361328"/>
      <use xlink:href="#DejaVuSans-49" x="224.853516"/>
      <use xlink:href="#DejaVuSans-49" x="254.345703"/>
     </g>
    </g>
    <g id="line2d_45">
     <path d="M 903.67 440.079063 
L 925.67 440.079063 
L 947.67 440.079063 
" style="fill: none; stroke: #2e7ebc; stroke-width: 1.5; stroke-linecap: square"/>
    </g>
    <g id="text_31">
     <!-- Xi-IIIN -->
     <g transform="translate(965.27 447.779063) scale(0.22 -0.22)">
      <use xlink:href="#DejaVuSans-58"/>
      <use xlink:href="#DejaVuSans-69" x="68.505859"/>
      <use xlink:href="#DejaVuSans-2d" x="96.289062"/>
      <use xlink:href="#DejaVuSans-49" x="132.373047"/>
      <use xlink:href="#DejaVuSans-49" x="161.865234"/>
      <use xlink:href="#DejaVuSans-49" x="191.357422"/>
      <use xlink:href="#DejaVuSans-4e" x="220.849609"/>
     </g>
    </g>
    <g id="line2d_46">
     <path d="M 903.67 472.370938 
L 925.67 472.370938 
L 947.67 472.370938 
" style="fill: none; stroke: #e25508; stroke-width: 1.5; stroke-linecap: square"/>
    </g>
    <g id="text_32">
     <!-- Xa-IIIN -->
     <g transform="translate(965.27 480.070938) scale(0.22 -0.22)">
      <use xlink:href="#DejaVuSans-58"/>
      <use xlink:href="#DejaVuSans-61" x="68.505859"/>
      <use xlink:href="#DejaVuSans-2d" x="129.785156"/>
      <use xlink:href="#DejaVuSans-49" x="165.869141"/>
      <use xlink:href="#DejaVuSans-49" x="195.361328"/>
      <use xlink:href="#DejaVuSans-49" x="224.853516"/>
      <use xlink:href="#DejaVuSans-4e" x="254.345703"/>
     </g>
    </g>
    <g id="line2d_47">
     <path d="M 903.67 504.662813 
L 925.67 504.662813 
L 947.67 504.662813 
" style="fill: none; stroke: #1764ab; stroke-width: 1.5; stroke-linecap: square"/>
    </g>
    <g id="text_33">
     <!-- Xi-IINA -->
     <g transform="translate(965.27 512.362813) scale(0.22 -0.22)">
      <use xlink:href="#DejaVuSans-58"/>
      <use xlink:href="#DejaVuSans-69" x="68.505859"/>
      <use xlink:href="#DejaVuSans-2d" x="96.289062"/>
      <use xlink:href="#DejaVuSans-49" x="132.373047"/>
      <use xlink:href="#DejaVuSans-49" x="161.865234"/>
      <use xlink:href="#DejaVuSans-4e" x="191.357422"/>
      <use xlink:href="#DejaVuSans-41" x="266.162109"/>
     </g>
    </g>
    <g id="line2d_48">
     <path d="M 903.67 536.954688 
L 925.67 536.954688 
L 947.67 536.954688 
" style="fill: none; stroke: #c54102; stroke-width: 1.5; stroke-linecap: square"/>
    </g>
    <g id="text_34">
     <!-- Xa-IINA -->
     <g transform="translate(965.27 544.654688) scale(0.22 -0.22)">
      <use xlink:href="#DejaVuSans-58"/>
      <use xlink:href="#DejaVuSans-61" x="68.505859"/>
      <use xlink:href="#DejaVuSans-2d" x="129.785156"/>
      <use xlink:href="#DejaVuSans-49" x="165.869141"/>
      <use xlink:href="#DejaVuSans-49" x="195.361328"/>
      <use xlink:href="#DejaVuSans-4e" x="224.853516"/>
      <use xlink:href="#DejaVuSans-41" x="299.658203"/>
     </g>
    </g>
    <g id="line2d_49">
     <path d="M 903.67 569.246563 
L 925.67 569.246563 
L 947.67 569.246563 
" style="fill: none; stroke: #084a91; stroke-width: 1.5; stroke-linecap: square"/>
    </g>
    <g id="text_35">
     <!-- Xi-IINI -->
     <g transform="translate(965.27 576.946563) scale(0.22 -0.22)">
      <use xlink:href="#DejaVuSans-58"/>
      <use xlink:href="#DejaVuSans-69" x="68.505859"/>
      <use xlink:href="#DejaVuSans-2d" x="96.289062"/>
      <use xlink:href="#DejaVuSans-49" x="132.373047"/>
      <use xlink:href="#DejaVuSans-49" x="161.865234"/>
      <use xlink:href="#DejaVuSans-4e" x="191.357422"/>
      <use xlink:href="#DejaVuSans-49" x="266.162109"/>
     </g>
    </g>
    <g id="line2d_50">
     <path d="M 903.67 601.538438 
L 925.67 601.538438 
L 947.67 601.538438 
" style="fill: none; stroke: #9e3303; stroke-width: 1.5; stroke-linecap: square"/>
    </g>
    <g id="text_36">
     <!-- Xa-IINI -->
     <g transform="translate(965.27 609.238438) scale(0.22 -0.22)">
      <use xlink:href="#DejaVuSans-58"/>
      <use xlink:href="#DejaVuSans-61" x="68.505859"/>
      <use xlink:href="#DejaVuSans-2d" x="129.785156"/>
      <use xlink:href="#DejaVuSans-49" x="165.869141"/>
      <use xlink:href="#DejaVuSans-49" x="195.361328"/>
      <use xlink:href="#DejaVuSans-4e" x="224.853516"/>
      <use xlink:href="#DejaVuSans-49" x="299.658203"/>
     </g>
    </g>
    <g id="line2d_51">
     <path d="M 903.67 633.830313 
L 925.67 633.830313 
L 947.67 633.830313 
" style="fill: none; stroke: #08306b; stroke-width: 1.5; stroke-linecap: square"/>
    </g>
    <g id="text_37">
     <!-- Xi-IINN -->
     <g transform="translate(965.27 641.530313) scale(0.22 -0.22)">
      <use xlink:href="#DejaVuSans-58"/>
      <use xlink:href="#DejaVuSans-69" x="68.505859"/>
      <use xlink:href="#DejaVuSans-2d" x="96.289062"/>
      <use xlink:href="#DejaVuSans-49" x="132.373047"/>
      <use xlink:href="#DejaVuSans-49" x="161.865234"/>
      <use xlink:href="#DejaVuSans-4e" x="191.357422"/>
      <use xlink:href="#DejaVuSans-4e" x="266.162109"/>
     </g>
    </g>
    <g id="line2d_52">
     <path d="M 903.67 666.122188 
L 925.67 666.122188 
L 947.67 666.122188 
" style="fill: none; stroke: #7f2704; stroke-width: 1.5; stroke-linecap: square"/>
    </g>
    <g id="text_38">
     <!-- Xa-IINN -->
     <g transform="translate(965.27 673.822188) scale(0.22 -0.22)">
      <use xlink:href="#DejaVuSans-58"/>
      <use xlink:href="#DejaVuSans-61" x="68.505859"/>
      <use xlink:href="#DejaVuSans-2d" x="129.785156"/>
      <use xlink:href="#DejaVuSans-49" x="165.869141"/>
      <use xlink:href="#DejaVuSans-49" x="195.361328"/>
      <use xlink:href="#DejaVuSans-4e" x="224.853516"/>
      <use xlink:href="#DejaVuSans-4e" x="299.658203"/>
     </g>
    </g>
   </g>
  </g>
 </g>
 <defs>
  <clipPath id="p13386ddcbc">
   <rect x="104.42" y="23.76" width="779.45" height="571.68"/>
  </clipPath>
 </defs>
</svg>
