<?xml version="1.0" encoding="utf-8" standalone="no"?>
<!DOCTYPE svg PUBLIC "-//W3C//DTD SVG 1.1//EN"
  "http://www.w3.org/Graphics/SVG/1.1/DTD/svg11.dtd">
<svg xmlns:xlink="http://www.w3.org/1999/xlink" width="1080pt" height="720pt" viewBox="0 0 1080 720" xmlns="http://www.w3.org/2000/svg" version="1.1">
 <metadata>
  <rdf:RDF xmlns:dc="http://purl.org/dc/elements/1.1/" xmlns:cc="http://creativecommons.org/ns#" xmlns:rdf="http://www.w3.org/1999/02/22-rdf-syntax-ns#">
   <cc:Work>
    <dc:type rdf:resource="http://purl.org/dc/dcmitype/StillImage"/>
    <dc:date>2023-01-11T19:55:43.840310</dc:date>
    <dc:format>image/svg+xml</dc:format>
    <dc:creator>
     <cc:Agent>
      <dc:title>Matplotlib v3.6.2, https://matplotlib.org/</dc:title>
     </cc:Agent>
    </dc:creator>
   </cc:Work>
  </rdf:RDF>
 </metadata>
 <defs>
  <style type="text/css">*{stroke-linejoin: round; stroke-linecap: butt}</style>
 </defs>
 <g id="figure_1">
  <g id="patch_1">
   <path d="M 0 720 
L 1080 720 
L 1080 0 
L 0 0 
z
" style="fill: #ffffff"/>
  </g>
  <g id="axes_1">
   <g id="patch_2">
    <path d="M 104.42 643.48 
L 868.03 643.48 
L 868.03 23.76 
L 104.42 23.76 
z
" style="fill: #ffffff"/>
   </g>
   <g id="PathCollection_1">
    <defs>
     <path id="m80f1702e56" d="M 0 3 
C 0.795609 3 1.55874 2.683901 2.12132 2.12132 
C 2.683901 1.55874 3 0.795609 3 0 
C 3 -0.795609 2.683901 -1.55874 2.12132 -2.12132 
C 1.55874 -2.683901 0.795609 -3 0 -3 
C -0.795609 -3 -1.55874 -2.683901 -2.12132 -2.12132 
C -2.683901 -1.55874 -3 -0.795609 -3 0 
C -3 0.795609 -2.683901 1.55874 -2.12132 2.12132 
C -1.55874 2.683901 -0.795609 3 0 3 
z
" style="stroke: #1f77b4"/>
    </defs>
    <g clip-path="url(#p6fa6d501a4)">
     <use xlink:href="#m80f1702e56" x="139.129545" y="615.310909" style="fill: #1f77b4; stroke: #1f77b4"/>
     <use xlink:href="#m80f1702e56" x="175.665909" y="611.022381" style="fill: #1f77b4; stroke: #1f77b4"/>
     <use xlink:href="#m80f1702e56" x="212.202273" y="606.733853" style="fill: #1f77b4; stroke: #1f77b4"/>
     <use xlink:href="#m80f1702e56" x="248.738636" y="602.445324" style="fill: #1f77b4; stroke: #1f77b4"/>
     <use xlink:href="#m80f1702e56" x="285.275" y="598.156796" style="fill: #1f77b4; stroke: #1f77b4"/>
     <use xlink:href="#m80f1702e56" x="321.811364" y="593.868268" style="fill: #1f77b4; stroke: #1f77b4"/>
     <use xlink:href="#m80f1702e56" x="358.347727" y="589.57974" style="fill: #1f77b4; stroke: #1f77b4"/>
     <use xlink:href="#m80f1702e56" x="394.884091" y="585.291212" style="fill: #1f77b4; stroke: #1f77b4"/>
     <use xlink:href="#m80f1702e56" x="431.420455" y="581.002683" style="fill: #1f77b4; stroke: #1f77b4"/>
     <use xlink:href="#m80f1702e56" x="467.956818" y="569.371903" style="fill: #1f77b4; stroke: #1f77b4"/>
     <use xlink:href="#m80f1702e56" x="504.493182" y="567.018417" style="fill: #1f77b4; stroke: #1f77b4"/>
     <use xlink:href="#m80f1702e56" x="541.029545" y="522.988588" style="fill: #1f77b4; stroke: #1f77b4"/>
     <use xlink:href="#m80f1702e56" x="577.565909" y="478.95876" style="fill: #1f77b4; stroke: #1f77b4"/>
     <use xlink:href="#m80f1702e56" x="614.102273" y="478.95876" style="fill: #1f77b4; stroke: #1f77b4"/>
     <use xlink:href="#m80f1702e56" x="650.638636" y="478.95876" style="fill: #1f77b4; stroke: #1f77b4"/>
     <use xlink:href="#m80f1702e56" x="687.175" y="478.95876" style="fill: #1f77b4; stroke: #1f77b4"/>
     <use xlink:href="#m80f1702e56" x="723.711364" y="478.95876" style="fill: #1f77b4; stroke: #1f77b4"/>
     <use xlink:href="#m80f1702e56" x="760.247727" y="478.95876" style="fill: #1f77b4; stroke: #1f77b4"/>
     <use xlink:href="#m80f1702e56" x="796.784091" y="478.95876" style="fill: #1f77b4; stroke: #1f77b4"/>
     <use xlink:href="#m80f1702e56" x="833.320455" y="478.95876" style="fill: #1f77b4; stroke: #1f77b4"/>
    </g>
   </g>
   <g id="PathCollection_2">
    <defs>
     <path id="m62fcbac0dc" d="M 0 3 
C 0.795609 3 1.55874 2.683901 2.12132 2.12132 
C 2.683901 1.55874 3 0.795609 3 0 
C 3 -0.795609 2.683901 -1.55874 2.12132 -2.12132 
C 1.55874 -2.683901 0.795609 -3 0 -3 
C -0.795609 -3 -1.55874 -2.683901 -2.12132 -2.12132 
C -2.683901 -1.55874 -3 -0.795609 -3 0 
C -3 0.795609 -2.683901 1.55874 -2.12132 2.12132 
C -1.55874 2.683901 -0.795609 3 0 3 
z
" style="stroke: #ff7f0e"/>
    </defs>
    <g clip-path="url(#p6fa6d501a4)">
     <use xlink:href="#m62fcbac0dc" x="139.129545" y="101.811376" style="fill: #ff7f0e; stroke: #ff7f0e"/>
     <use xlink:href="#m62fcbac0dc" x="175.665909" y="99.192541" style="fill: #ff7f0e; stroke: #ff7f0e"/>
     <use xlink:href="#m62fcbac0dc" x="212.202273" y="96.573705" style="fill: #ff7f0e; stroke: #ff7f0e"/>
     <use xlink:href="#m62fcbac0dc" x="248.738636" y="93.95487" style="fill: #ff7f0e; stroke: #ff7f0e"/>
     <use xlink:href="#m62fcbac0dc" x="285.275" y="91.336035" style="fill: #ff7f0e; stroke: #ff7f0e"/>
     <use xlink:href="#m62fcbac0dc" x="321.811364" y="88.7172" style="fill: #ff7f0e; stroke: #ff7f0e"/>
     <use xlink:href="#m62fcbac0dc" x="358.347727" y="86.098365" style="fill: #ff7f0e; stroke: #ff7f0e"/>
     <use xlink:href="#m62fcbac0dc" x="394.884091" y="83.47953" style="fill: #ff7f0e; stroke: #ff7f0e"/>
     <use xlink:href="#m62fcbac0dc" x="431.420455" y="80.860695" style="fill: #ff7f0e; stroke: #ff7f0e"/>
     <use xlink:href="#m62fcbac0dc" x="467.956818" y="113.550867" style="fill: #ff7f0e; stroke: #ff7f0e"/>
     <use xlink:href="#m62fcbac0dc" x="504.493182" y="51.929091" style="fill: #ff7f0e; stroke: #ff7f0e"/>
     <use xlink:href="#m62fcbac0dc" x="541.029545" y="90.127012" style="fill: #ff7f0e; stroke: #ff7f0e"/>
     <use xlink:href="#m62fcbac0dc" x="577.565909" y="128.324932" style="fill: #ff7f0e; stroke: #ff7f0e"/>
     <use xlink:href="#m62fcbac0dc" x="614.102273" y="128.324932" style="fill: #ff7f0e; stroke: #ff7f0e"/>
     <use xlink:href="#m62fcbac0dc" x="650.638636" y="128.324932" style="fill: #ff7f0e; stroke: #ff7f0e"/>
     <use xlink:href="#m62fcbac0dc" x="687.175" y="128.324932" style="fill: #ff7f0e; stroke: #ff7f0e"/>
     <use xlink:href="#m62fcbac0dc" x="723.711364" y="128.324932" style="fill: #ff7f0e; stroke: #ff7f0e"/>
     <use xlink:href="#m62fcbac0dc" x="760.247727" y="128.324932" style="fill: #ff7f0e; stroke: #ff7f0e"/>
     <use xlink:href="#m62fcbac0dc" x="796.784091" y="128.324932" style="fill: #ff7f0e; stroke: #ff7f0e"/>
     <use xlink:href="#m62fcbac0dc" x="833.320455" y="128.324932" style="fill: #ff7f0e; stroke: #ff7f0e"/>
    </g>
   </g>
   <g id="matplotlib.axis_1">
    <g id="xtick_1">
     <g id="line2d_1">
      <defs>
       <path id="m3385fdae1e" d="M 0 0 
L 0 3.5 
" style="stroke: #000000; stroke-width: 0.8"/>
      </defs>
      <g>
       <use xlink:href="#m3385fdae1e" x="139.129545" y="643.48" style="stroke: #000000; stroke-width: 0.8"/>
      </g>
     </g>
     <g id="text_1">
      <!-- 0.0 -->
      <g transform="translate(121.636108 667.196563) scale(0.22 -0.22)">
       <defs>
        <path id="DejaVuSans-30" d="M 2034 4250 
Q 1547 4250 1301 3770 
Q 1056 3291 1056 2328 
Q 1056 1369 1301 889 
Q 1547 409 2034 409 
Q 2525 409 2770 889 
Q 3016 1369 3016 2328 
Q 3016 3291 2770 3770 
Q 2525 4250 2034 4250 
z
M 2034 4750 
Q 2819 4750 3233 4129 
Q 3647 3509 3647 2328 
Q 3647 1150 3233 529 
Q 2819 -91 2034 -91 
Q 1250 -91 836 529 
Q 422 1150 422 2328 
Q 422 3509 836 4129 
Q 1250 4750 2034 4750 
z
" transform="scale(0.015625)"/>
        <path id="DejaVuSans-2e" d="M 684 794 
L 1344 794 
L 1344 0 
L 684 0 
L 684 794 
z
" transform="scale(0.015625)"/>
       </defs>
       <use xlink:href="#DejaVuSans-30"/>
       <use xlink:href="#DejaVuSans-2e" x="63.623047"/>
       <use xlink:href="#DejaVuSans-30" x="95.410156"/>
      </g>
     </g>
    </g>
    <g id="xtick_2">
     <g id="line2d_2">
      <g>
       <use xlink:href="#m3385fdae1e" x="230.470455" y="643.48" style="stroke: #000000; stroke-width: 0.8"/>
      </g>
     </g>
     <g id="text_2">
      <!-- 2.5 -->
      <g transform="translate(212.977017 667.196563) scale(0.22 -0.22)">
       <defs>
        <path id="DejaVuSans-32" d="M 1228 531 
L 3431 531 
L 3431 0 
L 469 0 
L 469 531 
Q 828 903 1448 1529 
Q 2069 2156 2228 2338 
Q 2531 2678 2651 2914 
Q 2772 3150 2772 3378 
Q 2772 3750 2511 3984 
Q 2250 4219 1831 4219 
Q 1534 4219 1204 4116 
Q 875 4013 500 3803 
L 500 4441 
Q 881 4594 1212 4672 
Q 1544 4750 1819 4750 
Q 2544 4750 2975 4387 
Q 3406 4025 3406 3419 
Q 3406 3131 3298 2873 
Q 3191 2616 2906 2266 
Q 2828 2175 2409 1742 
Q 1991 1309 1228 531 
z
" transform="scale(0.015625)"/>
        <path id="DejaVuSans-35" d="M 691 4666 
L 3169 4666 
L 3169 4134 
L 1269 4134 
L 1269 2991 
Q 1406 3038 1543 3061 
Q 1681 3084 1819 3084 
Q 2600 3084 3056 2656 
Q 3513 2228 3513 1497 
Q 3513 744 3044 326 
Q 2575 -91 1722 -91 
Q 1428 -91 1123 -41 
Q 819 9 494 109 
L 494 744 
Q 775 591 1075 516 
Q 1375 441 1709 441 
Q 2250 441 2565 725 
Q 2881 1009 2881 1497 
Q 2881 1984 2565 2268 
Q 2250 2553 1709 2553 
Q 1456 2553 1204 2497 
Q 953 2441 691 2322 
L 691 4666 
z
" transform="scale(0.015625)"/>
       </defs>
       <use xlink:href="#DejaVuSans-32"/>
       <use xlink:href="#DejaVuSans-2e" x="63.623047"/>
       <use xlink:href="#DejaVuSans-35" x="95.410156"/>
      </g>
     </g>
    </g>
    <g id="xtick_3">
     <g id="line2d_3">
      <g>
       <use xlink:href="#m3385fdae1e" x="321.811364" y="643.48" style="stroke: #000000; stroke-width: 0.8"/>
      </g>
     </g>
     <g id="text_3">
      <!-- 5.0 -->
      <g transform="translate(304.317926 667.196563) scale(0.22 -0.22)">
       <use xlink:href="#DejaVuSans-35"/>
       <use xlink:href="#DejaVuSans-2e" x="63.623047"/>
       <use xlink:href="#DejaVuSans-30" x="95.410156"/>
      </g>
     </g>
    </g>
    <g id="xtick_4">
     <g id="line2d_4">
      <g>
       <use xlink:href="#m3385fdae1e" x="413.152273" y="643.48" style="stroke: #000000; stroke-width: 0.8"/>
      </g>
     </g>
     <g id="text_4">
      <!-- 7.5 -->
      <g transform="translate(395.658835 667.196563) scale(0.22 -0.22)">
       <defs>
        <path id="DejaVuSans-37" d="M 525 4666 
L 3525 4666 
L 3525 4397 
L 1831 0 
L 1172 0 
L 2766 4134 
L 525 4134 
L 525 4666 
z
" transform="scale(0.015625)"/>
       </defs>
       <use xlink:href="#DejaVuSans-37"/>
       <use xlink:href="#DejaVuSans-2e" x="63.623047"/>
       <use xlink:href="#DejaVuSans-35" x="95.410156"/>
      </g>
     </g>
    </g>
    <g id="xtick_5">
     <g id="line2d_5">
      <g>
       <use xlink:href="#m3385fdae1e" x="504.493182" y="643.48" style="stroke: #000000; stroke-width: 0.8"/>
      </g>
     </g>
     <g id="text_5">
      <!-- 10.0 -->
      <g transform="translate(480.000994 667.196563) scale(0.22 -0.22)">
       <defs>
        <path id="DejaVuSans-31" d="M 794 531 
L 1825 531 
L 1825 4091 
L 703 3866 
L 703 4441 
L 1819 4666 
L 2450 4666 
L 2450 531 
L 3481 531 
L 3481 0 
L 794 0 
L 794 531 
z
" transform="scale(0.015625)"/>
       </defs>
       <use xlink:href="#DejaVuSans-31"/>
       <use xlink:href="#DejaVuSans-30" x="63.623047"/>
       <use xlink:href="#DejaVuSans-2e" x="127.246094"/>
       <use xlink:href="#DejaVuSans-30" x="159.033203"/>
      </g>
     </g>
    </g>
    <g id="xtick_6">
     <g id="line2d_6">
      <g>
       <use xlink:href="#m3385fdae1e" x="595.834091" y="643.48" style="stroke: #000000; stroke-width: 0.8"/>
      </g>
     </g>
     <g id="text_6">
      <!-- 12.5 -->
      <g transform="translate(571.341903 667.196563) scale(0.22 -0.22)">
       <use xlink:href="#DejaVuSans-31"/>
       <use xlink:href="#DejaVuSans-32" x="63.623047"/>
       <use xlink:href="#DejaVuSans-2e" x="127.246094"/>
       <use xlink:href="#DejaVuSans-35" x="159.033203"/>
      </g>
     </g>
    </g>
    <g id="xtick_7">
     <g id="line2d_7">
      <g>
       <use xlink:href="#m3385fdae1e" x="687.175" y="643.48" style="stroke: #000000; stroke-width: 0.8"/>
      </g>
     </g>
     <g id="text_7">
      <!-- 15.0 -->
      <g transform="translate(662.682812 667.196563) scale(0.22 -0.22)">
       <use xlink:href="#DejaVuSans-31"/>
       <use xlink:href="#DejaVuSans-35" x="63.623047"/>
       <use xlink:href="#DejaVuSans-2e" x="127.246094"/>
       <use xlink:href="#DejaVuSans-30" x="159.033203"/>
      </g>
     </g>
    </g>
    <g id="xtick_8">
     <g id="line2d_8">
      <g>
       <use xlink:href="#m3385fdae1e" x="778.515909" y="643.48" style="stroke: #000000; stroke-width: 0.8"/>
      </g>
     </g>
     <g id="text_8">
      <!-- 17.5 -->
      <g transform="translate(754.023722 667.196563) scale(0.22 -0.22)">
       <use xlink:href="#DejaVuSans-31"/>
       <use xlink:href="#DejaVuSans-37" x="63.623047"/>
       <use xlink:href="#DejaVuSans-2e" x="127.246094"/>
       <use xlink:href="#DejaVuSans-35" x="159.033203"/>
      </g>
     </g>
    </g>
    <g id="text_9">
     <!-- Time (days) -->
     <g transform="translate(421.266562 692.488438) scale(0.22 -0.22)">
      <defs>
       <path id="DejaVuSans-54" d="M -19 4666 
L 3928 4666 
L 3928 4134 
L 2272 4134 
L 2272 0 
L 1638 0 
L 1638 4134 
L -19 4134 
L -19 4666 
z
" transform="scale(0.015625)"/>
       <path id="DejaVuSans-69" d="M 603 3500 
L 1178 3500 
L 1178 0 
L 603 0 
L 603 3500 
z
M 603 4863 
L 1178 4863 
L 1178 4134 
L 603 4134 
L 603 4863 
z
" transform="scale(0.015625)"/>
       <path id="DejaVuSans-6d" d="M 3328 2828 
Q 3544 3216 3844 3400 
Q 4144 3584 4550 3584 
Q 5097 3584 5394 3201 
Q 5691 2819 5691 2113 
L 5691 0 
L 5113 0 
L 5113 2094 
Q 5113 2597 4934 2840 
Q 4756 3084 4391 3084 
Q 3944 3084 3684 2787 
Q 3425 2491 3425 1978 
L 3425 0 
L 2847 0 
L 2847 2094 
Q 2847 2600 2669 2842 
Q 2491 3084 2119 3084 
Q 1678 3084 1418 2786 
Q 1159 2488 1159 1978 
L 1159 0 
L 581 0 
L 581 3500 
L 1159 3500 
L 1159 2956 
Q 1356 3278 1631 3431 
Q 1906 3584 2284 3584 
Q 2666 3584 2933 3390 
Q 3200 3197 3328 2828 
z
" transform="scale(0.015625)"/>
       <path id="DejaVuSans-65" d="M 3597 1894 
L 3597 1613 
L 953 1613 
Q 991 1019 1311 708 
Q 1631 397 2203 397 
Q 2534 397 2845 478 
Q 3156 559 3463 722 
L 3463 178 
Q 3153 47 2828 -22 
Q 2503 -91 2169 -91 
Q 1331 -91 842 396 
Q 353 884 353 1716 
Q 353 2575 817 3079 
Q 1281 3584 2069 3584 
Q 2775 3584 3186 3129 
Q 3597 2675 3597 1894 
z
M 3022 2063 
Q 3016 2534 2758 2815 
Q 2500 3097 2075 3097 
Q 1594 3097 1305 2825 
Q 1016 2553 972 2059 
L 3022 2063 
z
" transform="scale(0.015625)"/>
       <path id="DejaVuSans-20" transform="scale(0.015625)"/>
       <path id="DejaVuSans-28" d="M 1984 4856 
Q 1566 4138 1362 3434 
Q 1159 2731 1159 2009 
Q 1159 1288 1364 580 
Q 1569 -128 1984 -844 
L 1484 -844 
Q 1016 -109 783 600 
Q 550 1309 550 2009 
Q 550 2706 781 3412 
Q 1013 4119 1484 4856 
L 1984 4856 
z
" transform="scale(0.015625)"/>
       <path id="DejaVuSans-64" d="M 2906 2969 
L 2906 4863 
L 3481 4863 
L 3481 0 
L 2906 0 
L 2906 525 
Q 2725 213 2448 61 
Q 2172 -91 1784 -91 
Q 1150 -91 751 415 
Q 353 922 353 1747 
Q 353 2572 751 3078 
Q 1150 3584 1784 3584 
Q 2172 3584 2448 3432 
Q 2725 3281 2906 2969 
z
M 947 1747 
Q 947 1113 1208 752 
Q 1469 391 1925 391 
Q 2381 391 2643 752 
Q 2906 1113 2906 1747 
Q 2906 2381 2643 2742 
Q 2381 3103 1925 3103 
Q 1469 3103 1208 2742 
Q 947 2381 947 1747 
z
" transform="scale(0.015625)"/>
       <path id="DejaVuSans-61" d="M 2194 1759 
Q 1497 1759 1228 1600 
Q 959 1441 959 1056 
Q 959 750 1161 570 
Q 1363 391 1709 391 
Q 2188 391 2477 730 
Q 2766 1069 2766 1631 
L 2766 1759 
L 2194 1759 
z
M 3341 1997 
L 3341 0 
L 2766 0 
L 2766 531 
Q 2569 213 2275 61 
Q 1981 -91 1556 -91 
Q 1019 -91 701 211 
Q 384 513 384 1019 
Q 384 1609 779 1909 
Q 1175 2209 1959 2209 
L 2766 2209 
L 2766 2266 
Q 2766 2663 2505 2880 
Q 2244 3097 1772 3097 
Q 1472 3097 1187 3025 
Q 903 2953 641 2809 
L 641 3341 
Q 956 3463 1253 3523 
Q 1550 3584 1831 3584 
Q 2591 3584 2966 3190 
Q 3341 2797 3341 1997 
z
" transform="scale(0.015625)"/>
       <path id="DejaVuSans-79" d="M 2059 -325 
Q 1816 -950 1584 -1140 
Q 1353 -1331 966 -1331 
L 506 -1331 
L 506 -850 
L 844 -850 
Q 1081 -850 1212 -737 
Q 1344 -625 1503 -206 
L 1606 56 
L 191 3500 
L 800 3500 
L 1894 763 
L 2988 3500 
L 3597 3500 
L 2059 -325 
z
" transform="scale(0.015625)"/>
       <path id="DejaVuSans-73" d="M 2834 3397 
L 2834 2853 
Q 2591 2978 2328 3040 
Q 2066 3103 1784 3103 
Q 1356 3103 1142 2972 
Q 928 2841 928 2578 
Q 928 2378 1081 2264 
Q 1234 2150 1697 2047 
L 1894 2003 
Q 2506 1872 2764 1633 
Q 3022 1394 3022 966 
Q 3022 478 2636 193 
Q 2250 -91 1575 -91 
Q 1294 -91 989 -36 
Q 684 19 347 128 
L 347 722 
Q 666 556 975 473 
Q 1284 391 1588 391 
Q 1994 391 2212 530 
Q 2431 669 2431 922 
Q 2431 1156 2273 1281 
Q 2116 1406 1581 1522 
L 1381 1569 
Q 847 1681 609 1914 
Q 372 2147 372 2553 
Q 372 3047 722 3315 
Q 1072 3584 1716 3584 
Q 2034 3584 2315 3537 
Q 2597 3491 2834 3397 
z
" transform="scale(0.015625)"/>
       <path id="DejaVuSans-29" d="M 513 4856 
L 1013 4856 
Q 1481 4119 1714 3412 
Q 1947 2706 1947 2009 
Q 1947 1309 1714 600 
Q 1481 -109 1013 -844 
L 513 -844 
Q 928 -128 1133 580 
Q 1338 1288 1338 2009 
Q 1338 2731 1133 3434 
Q 928 4138 513 4856 
z
" transform="scale(0.015625)"/>
      </defs>
      <use xlink:href="#DejaVuSans-54"/>
      <use xlink:href="#DejaVuSans-69" x="57.958984"/>
      <use xlink:href="#DejaVuSans-6d" x="85.742188"/>
      <use xlink:href="#DejaVuSans-65" x="183.154297"/>
      <use xlink:href="#DejaVuSans-20" x="244.677734"/>
      <use xlink:href="#DejaVuSans-28" x="276.464844"/>
      <use xlink:href="#DejaVuSans-64" x="315.478516"/>
      <use xlink:href="#DejaVuSans-61" x="378.955078"/>
      <use xlink:href="#DejaVuSans-79" x="440.234375"/>
      <use xlink:href="#DejaVuSans-73" x="499.414062"/>
      <use xlink:href="#DejaVuSans-29" x="551.513672"/>
     </g>
    </g>
   </g>
   <g id="matplotlib.axis_2">
    <g id="ytick_1">
     <g id="line2d_9">
      <defs>
       <path id="ma600d9e374" d="M 0 0 
L -3.5 0 
" style="stroke: #000000; stroke-width: 0.8"/>
      </defs>
      <g>
       <use xlink:href="#ma600d9e374" x="104.42" y="615.655789" style="stroke: #000000; stroke-width: 0.8"/>
      </g>
     </g>
     <g id="text_10">
      <!-- 0.00 -->
      <g transform="translate(48.435625 624.01407) scale(0.22 -0.22)">
       <use xlink:href="#DejaVuSans-30"/>
       <use xlink:href="#DejaVuSans-2e" x="63.623047"/>
       <use xlink:href="#DejaVuSans-30" x="95.410156"/>
       <use xlink:href="#DejaVuSans-30" x="159.033203"/>
      </g>
     </g>
    </g>
    <g id="ytick_2">
     <g id="line2d_10">
      <g>
       <use xlink:href="#ma600d9e374" x="104.42" y="535.500127" style="stroke: #000000; stroke-width: 0.8"/>
      </g>
     </g>
     <g id="text_11">
      <!-- 0.25 -->
      <g transform="translate(48.435625 543.858409) scale(0.22 -0.22)">
       <use xlink:href="#DejaVuSans-30"/>
       <use xlink:href="#DejaVuSans-2e" x="63.623047"/>
       <use xlink:href="#DejaVuSans-32" x="95.410156"/>
       <use xlink:href="#DejaVuSans-35" x="159.033203"/>
      </g>
     </g>
    </g>
    <g id="ytick_3">
     <g id="line2d_11">
      <g>
       <use xlink:href="#ma600d9e374" x="104.42" y="455.344465" style="stroke: #000000; stroke-width: 0.8"/>
      </g>
     </g>
     <g id="text_12">
      <!-- 0.50 -->
      <g transform="translate(48.435625 463.702747) scale(0.22 -0.22)">
       <use xlink:href="#DejaVuSans-30"/>
       <use xlink:href="#DejaVuSans-2e" x="63.623047"/>
       <use xlink:href="#DejaVuSans-35" x="95.410156"/>
       <use xlink:href="#DejaVuSans-30" x="159.033203"/>
      </g>
     </g>
    </g>
    <g id="ytick_4">
     <g id="line2d_12">
      <g>
       <use xlink:href="#ma600d9e374" x="104.42" y="375.188804" style="stroke: #000000; stroke-width: 0.8"/>
      </g>
     </g>
     <g id="text_13">
      <!-- 0.75 -->
      <g transform="translate(48.435625 383.547085) scale(0.22 -0.22)">
       <use xlink:href="#DejaVuSans-30"/>
       <use xlink:href="#DejaVuSans-2e" x="63.623047"/>
       <use xlink:href="#DejaVuSans-37" x="95.410156"/>
       <use xlink:href="#DejaVuSans-35" x="159.033203"/>
      </g>
     </g>
    </g>
    <g id="ytick_5">
     <g id="line2d_13">
      <g>
       <use xlink:href="#ma600d9e374" x="104.42" y="295.033142" style="stroke: #000000; stroke-width: 0.8"/>
      </g>
     </g>
     <g id="text_14">
      <!-- 1.00 -->
      <g transform="translate(48.435625 303.391423) scale(0.22 -0.22)">
       <use xlink:href="#DejaVuSans-31"/>
       <use xlink:href="#DejaVuSans-2e" x="63.623047"/>
       <use xlink:href="#DejaVuSans-30" x="95.410156"/>
       <use xlink:href="#DejaVuSans-30" x="159.033203"/>
      </g>
     </g>
    </g>
    <g id="ytick_6">
     <g id="line2d_14">
      <g>
       <use xlink:href="#ma600d9e374" x="104.42" y="214.87748" style="stroke: #000000; stroke-width: 0.8"/>
      </g>
     </g>
     <g id="text_15">
      <!-- 1.25 -->
      <g transform="translate(48.435625 223.235761) scale(0.22 -0.22)">
       <use xlink:href="#DejaVuSans-31"/>
       <use xlink:href="#DejaVuSans-2e" x="63.623047"/>
       <use xlink:href="#DejaVuSans-32" x="95.410156"/>
       <use xlink:href="#DejaVuSans-35" x="159.033203"/>
      </g>
     </g>
    </g>
    <g id="ytick_7">
     <g id="line2d_15">
      <g>
       <use xlink:href="#ma600d9e374" x="104.42" y="134.721818" style="stroke: #000000; stroke-width: 0.8"/>
      </g>
     </g>
     <g id="text_16">
      <!-- 1.50 -->
      <g transform="translate(48.435625 143.080099) scale(0.22 -0.22)">
       <use xlink:href="#DejaVuSans-31"/>
       <use xlink:href="#DejaVuSans-2e" x="63.623047"/>
       <use xlink:href="#DejaVuSans-35" x="95.410156"/>
       <use xlink:href="#DejaVuSans-30" x="159.033203"/>
      </g>
     </g>
    </g>
    <g id="ytick_8">
     <g id="line2d_16">
      <g>
       <use xlink:href="#ma600d9e374" x="104.42" y="54.566156" style="stroke: #000000; stroke-width: 0.8"/>
      </g>
     </g>
     <g id="text_17">
      <!-- 1.75 -->
      <g transform="translate(48.435625 62.924438) scale(0.22 -0.22)">
       <use xlink:href="#DejaVuSans-31"/>
       <use xlink:href="#DejaVuSans-2e" x="63.623047"/>
       <use xlink:href="#DejaVuSans-37" x="95.410156"/>
       <use xlink:href="#DejaVuSans-35" x="159.033203"/>
      </g>
     </g>
    </g>
    <g id="text_18">
     <!-- X:A -->
     <g transform="translate(39.860313 352.385312) rotate(-90) scale(0.22 -0.22)">
      <defs>
       <path id="DejaVuSans-58" d="M 403 4666 
L 1081 4666 
L 2241 2931 
L 3406 4666 
L 4084 4666 
L 2584 2425 
L 4184 0 
L 3506 0 
L 2194 1984 
L 872 0 
L 191 0 
L 1856 2491 
L 403 4666 
z
" transform="scale(0.015625)"/>
       <path id="DejaVuSans-3a" d="M 750 794 
L 1409 794 
L 1409 0 
L 750 0 
L 750 794 
z
M 750 3309 
L 1409 3309 
L 1409 2516 
L 750 2516 
L 750 3309 
z
" transform="scale(0.015625)"/>
       <path id="DejaVuSans-41" d="M 2188 4044 
L 1331 1722 
L 3047 1722 
L 2188 4044 
z
M 1831 4666 
L 2547 4666 
L 4325 0 
L 3669 0 
L 3244 1197 
L 1141 1197 
L 716 0 
L 50 0 
L 1831 4666 
z
" transform="scale(0.015625)"/>
      </defs>
      <use xlink:href="#DejaVuSans-58"/>
      <use xlink:href="#DejaVuSans-3a" x="68.505859"/>
      <use xlink:href="#DejaVuSans-41" x="102.197266"/>
     </g>
    </g>
   </g>
   <g id="line2d_17">
    <path d="M 139.129545 615.310909 
L 146.141575 613.744847 
L 153.153604 612.210869 
L 160.165634 610.683817 
L 167.177663 609.161175 
L 174.189692 607.637884 
L 181.201722 606.117664 
L 188.213751 604.595248 
L 195.225781 603.067983 
L 202.23781 601.550026 
L 209.249839 600.039102 
L 216.261869 598.514417 
L 223.273898 596.986657 
L 230.285927 595.474309 
L 237.297957 593.94973 
L 244.309986 592.425896 
L 251.322016 590.912286 
L 258.334045 589.385125 
L 265.346074 587.862858 
L 272.358104 586.352938 
L 279.370133 584.824874 
L 286.382163 583.297317 
L 293.394192 581.794373 
L 300.406221 580.273292 
L 307.418251 578.737757 
L 314.43028 577.235304 
L 321.442309 575.71727 
L 328.454339 574.185692 
L 335.466368 572.678058 
L 342.478398 571.15296 
L 349.490427 569.630951 
L 356.502456 568.118427 
L 363.514486 566.591562 
L 370.526515 565.073991 
L 377.538545 563.561821 
L 384.550574 562.031958 
L 391.562603 560.514442 
L 398.574633 559.010286 
L 405.586662 557.481766 
L 412.598691 555.960658 
L 419.610721 554.453324 
L 426.62275 552.925344 
L 433.63478 551.408179 
L 440.646809 549.89662 
L 447.658838 548.3688 
L 454.670868 546.85439 
L 461.682897 545.344208 
L 468.694927 543.813487 
L 475.706956 542.299378 
L 482.718985 540.79579 
L 489.731015 539.262652 
L 496.743044 537.74592 
L 503.755073 536.246385 
L 510.767103 534.714404 
L 517.779132 533.197869 
L 524.791162 531.692431 
L 531.803191 530.163515 
L 538.81522 528.650515 
L 545.82725 527.137089 
L 552.839279 525.612047 
L 559.851309 524.10179 
L 566.863338 522.586201 
L 573.875367 521.060261 
L 580.887397 519.552681 
L 587.899426 518.041044 
L 594.911455 516.509878 
L 601.923485 515.003125 
L 608.935514 513.498818 
L 615.947544 511.965205 
L 622.959573 510.456878 
L 629.971602 508.950495 
L 636.983632 507.421544 
L 643.995661 505.913399 
L 651.007691 504.398308 
L 658.01972 502.87608 
L 665.031749 501.368687 
L 672.043779 499.849427 
L 679.055808 498.32956 
L 686.067837 496.824623 
L 693.079867 495.304899 
L 700.091896 493.78178 
L 707.103926 492.281266 
L 714.115955 490.766396 
L 721.127984 489.237558 
L 728.140014 487.738162 
L 735.152043 486.226539 
L 742.164073 484.699249 
L 749.176102 483.19723 
L 756.188131 481.680006 
L 763.200161 480.160365 
L 770.21219 478.6554 
L 777.224219 477.134446 
L 784.236249 475.619656 
L 791.248278 474.114532 
L 798.260308 472.591468 
L 805.272337 471.077126 
L 812.284366 469.576994 
L 819.296396 468.056566 
L 826.308425 466.541453 
L 833.320455 465.033329 
" clip-path="url(#p6fa6d501a4)" style="fill: none; stroke: #d0e1f2; stroke-width: 1.5; stroke-linecap: square"/>
   </g>
   <g id="line2d_18">
    <path d="M 139.129545 101.811376 
L 146.141575 104.152067 
L 153.153604 104.819538 
L 160.165634 105.103089 
L 167.177663 105.156193 
L 174.189692 105.247471 
L 181.201722 105.178505 
L 188.213751 105.233473 
L 195.225781 105.560229 
L 202.23781 105.383176 
L 209.249839 104.822937 
L 216.261869 105.01443 
L 223.273898 105.390951 
L 230.285927 104.942245 
L 237.297957 105.14869 
L 244.309986 105.324777 
L 251.322016 104.953482 
L 258.334045 105.316619 
L 265.346074 105.425095 
L 272.358104 104.862605 
L 279.370133 105.293514 
L 286.382163 105.723114 
L 293.394192 104.795614 
L 300.406221 104.84695 
L 307.418251 105.738291 
L 314.43028 104.834917 
L 321.442309 104.7443 
L 328.454339 105.411188 
L 335.466368 104.807026 
L 342.478398 105.118313 
L 349.490427 105.272668 
L 356.502456 104.92075 
L 363.514486 105.3401 
L 370.526515 105.265865 
L 377.538545 104.899777 
L 384.550574 105.505311 
L 391.562603 105.448837 
L 398.574633 104.654852 
L 405.586662 105.189451 
L 412.598691 105.348404 
L 419.610721 104.763898 
L 426.62275 105.287092 
L 433.63478 105.240306 
L 440.646809 104.89022 
L 447.658838 105.4236 
L 454.670868 105.239784 
L 461.682897 104.823425 
L 468.694927 105.537118 
L 475.706956 105.358158 
L 482.718985 104.594544 
L 489.731015 105.453747 
L 496.743044 105.4483 
L 503.755073 104.49158 
L 510.767103 105.292691 
L 517.779132 105.289274 
L 524.791162 104.679597 
L 531.803191 105.327958 
L 538.81522 105.134403 
L 545.82725 104.958981 
L 552.839279 105.415307 
L 559.851309 105.079668 
L 566.863338 105.030135 
L 573.875367 105.557268 
L 580.887397 105.089739 
L 587.899426 104.835477 
L 594.911455 105.673262 
L 601.923485 105.187312 
L 608.935514 104.547692 
L 615.947544 105.52503 
L 622.959573 105.15562 
L 629.971602 104.660576 
L 636.983632 105.389333 
L 643.995661 105.014753 
L 651.007691 105.002427 
L 658.01972 105.380789 
L 665.031749 104.965706 
L 672.043779 105.188667 
L 679.055808 105.456519 
L 686.067837 104.916391 
L 693.079867 105.179573 
L 700.091896 105.651035 
L 707.103926 104.885769 
L 714.115955 104.892712 
L 721.127984 105.700411 
L 728.140014 104.909727 
L 735.152043 104.758281 
L 742.164073 105.481893 
L 749.176102 104.856999 
L 756.188131 105.030987 
L 763.200161 105.346276 
L 770.21219 104.87739 
L 777.224219 105.264416 
L 784.236249 105.329301 
L 791.248278 104.872559 
L 798.260308 105.392889 
L 805.272337 105.452759 
L 812.284366 104.734299 
L 819.296396 105.115793 
L 826.308425 105.228064 
L 833.320455 104.9683 
" clip-path="url(#p6fa6d501a4)" style="fill: none; stroke: #fdd9b4; stroke-width: 1.5; stroke-linecap: square"/>
   </g>
   <g id="line2d_19">
    <path d="M 139.129545 615.310909 
L 146.141575 613.965815 
L 153.153604 612.59289 
L 160.165634 611.21231 
L 167.177663 609.827797 
L 174.189692 608.44138 
L 181.201722 607.05295 
L 188.213751 605.664249 
L 195.225781 604.272749 
L 202.23781 602.879189 
L 209.249839 601.486338 
L 216.261869 600.089785 
L 223.273898 598.689061 
L 230.285927 597.290037 
L 237.297957 595.887904 
L 244.309986 594.480354 
L 251.322016 593.07432 
L 258.334045 591.664337 
L 265.346074 590.24899 
L 272.358104 588.835088 
L 279.370133 587.416301 
L 286.382163 585.991762 
L 293.394192 584.568931 
L 300.406221 583.140591 
L 307.418251 581.705839 
L 314.43028 580.272927 
L 321.442309 578.833934 
L 328.454339 577.388553 
L 335.466368 575.944419 
L 342.478398 574.493454 
L 349.490427 573.037004 
L 356.502456 571.580476 
L 363.514486 570.116483 
L 370.526515 568.647819 
L 377.538545 567.178025 
L 384.550574 565.700122 
L 391.562603 564.21769 
L 398.574633 562.733994 
L 405.586662 561.241316 
L 412.598691 559.743778 
L 419.610721 558.245149 
L 426.62275 556.736841 
L 433.63478 555.223585 
L 440.646809 553.708478 
L 447.658838 552.183519 
L 454.670868 550.65416 
L 461.682897 549.121113 
L 468.694927 547.578397 
L 475.706956 546.031822 
L 482.718985 544.479925 
L 489.731015 542.918262 
L 496.743044 541.352999 
L 503.755073 539.78161 
L 510.767103 538.199702 
L 517.779132 536.614288 
L 524.791162 535.022544 
L 531.803191 533.419331 
L 538.81522 531.812549 
L 545.82725 530.198931 
L 552.839279 528.573648 
L 559.851309 526.944627 
L 566.863338 525.307353 
L 573.875367 523.659059 
L 580.887397 522.00658 
L 587.899426 520.344353 
L 594.911455 518.671615 
L 601.923485 516.994274 
L 608.935514 515.306095 
L 615.947544 513.607093 
L 622.959573 511.903589 
L 629.971602 510.188416 
L 636.983632 508.461495 
L 643.995661 506.730263 
L 651.007691 504.986725 
L 658.01972 503.230956 
L 665.031749 501.470259 
L 672.043779 499.696504 
L 679.055808 497.911193 
L 686.067837 496.119199 
L 693.079867 494.313488 
L 700.091896 492.49702 
L 707.103926 490.672178 
L 714.115955 488.832945 
L 721.127984 486.983045 
L 728.140014 485.124147 
L 735.152043 483.249738 
L 742.164073 481.364127 
L 749.176102 479.469598 
L 756.188131 477.558399 
L 763.200161 475.635389 
L 770.21219 473.702859 
L 777.224219 471.753118 
L 784.236249 469.791586 
L 791.248278 467.818453 
L 798.260308 465.828163 
L 805.272337 463.826205 
L 812.284366 461.810422 
L 819.296396 459.777367 
L 826.308425 457.731828 
L 833.320455 455.671232 
" clip-path="url(#p6fa6d501a4)" style="fill: none; stroke: #79b5d9; stroke-width: 1.5; stroke-linecap: square"/>
   </g>
   <g id="line2d_20">
    <path d="M 139.129545 101.811376 
L 146.141575 91.012148 
L 153.153604 87.908769 
L 160.165634 86.731701 
L 167.177663 86.416114 
L 174.189692 86.347247 
L 181.201722 86.512902 
L 188.213751 86.384919 
L 195.225781 86.628126 
L 202.23781 86.997952 
L 209.249839 86.686627 
L 216.261869 86.886582 
L 223.273898 87.692539 
L 230.285927 87.434677 
L 237.297957 87.420771 
L 244.309986 88.259741 
L 251.322016 87.984598 
L 258.334045 88.089603 
L 265.346074 88.935638 
L 272.358104 88.591279 
L 279.370133 88.792895 
L 286.382163 89.750113 
L 293.394192 89.348632 
L 300.406221 89.575545 
L 307.418251 90.64965 
L 314.43028 90.234414 
L 321.442309 90.51586 
L 328.454339 91.54705 
L 335.466368 91.160793 
L 342.478398 91.590068 
L 349.490427 92.424578 
L 356.502456 92.119839 
L 363.514486 92.716087 
L 370.526515 93.397725 
L 377.538545 93.1416 
L 384.550574 93.874768 
L 391.562603 94.560224 
L 398.574633 94.250866 
L 405.586662 95.08287 
L 412.598691 95.864466 
L 419.610721 95.506638 
L 426.62275 96.391912 
L 433.63478 97.154753 
L 440.646809 96.89272 
L 447.658838 97.826219 
L 454.670868 98.383853 
L 461.682897 98.333032 
L 468.694927 99.326832 
L 475.706956 99.690527 
L 482.718985 99.80398 
L 489.731015 100.887207 
L 496.743044 101.161683 
L 503.755073 101.307862 
L 510.767103 102.531278 
L 517.779132 102.810357 
L 524.791162 102.910199 
L 531.803191 104.247867 
L 538.81522 104.545617 
L 545.82725 104.694481 
L 552.839279 106.025037 
L 559.851309 106.245815 
L 566.863338 106.60262 
L 573.875367 107.841114 
L 580.887397 107.974866 
L 587.899426 108.548813 
L 594.911455 109.737115 
L 601.923485 109.813191 
L 608.935514 110.513998 
L 615.947544 111.790338 
L 622.959573 111.793448 
L 629.971602 112.527504 
L 636.983632 113.968299 
L 643.995661 113.941456 
L 651.007691 114.691936 
L 658.01972 116.147799 
L 665.031749 116.166317 
L 672.043779 117.034567 
L 679.055808 118.26813 
L 686.067837 118.416286 
L 693.079867 119.452096 
L 700.091896 120.469391 
L 707.103926 120.728702 
L 714.115955 121.911957 
L 721.127984 122.887551 
L 728.140014 123.118262 
L 735.152043 124.430424 
L 742.164073 125.517087 
L 749.176102 125.659625 
L 756.188131 127.044809 
L 763.200161 128.199555 
L 770.21219 128.397651 
L 777.224219 129.811815 
L 784.236249 130.797237 
L 791.248278 131.234545 
L 798.260308 132.677094 
L 805.272337 133.451697 
L 812.284366 134.120456 
L 819.296396 135.620044 
L 826.308425 136.475106 
L 833.320455 137.36606 
" clip-path="url(#p6fa6d501a4)" style="fill: none; stroke: #fd9649; stroke-width: 1.5; stroke-linecap: square"/>
   </g>
   <g id="line2d_21">
    <path d="M 139.129545 615.310909 
L 146.141575 613.773549 
L 153.153604 612.236195 
L 160.165634 610.698847 
L 167.177663 609.161504 
L 174.189692 607.624168 
L 181.201722 606.086837 
L 188.213751 604.549512 
L 195.225781 603.012193 
L 202.23781 601.47488 
L 209.249839 599.937573 
L 216.261869 598.400272 
L 223.273898 596.862976 
L 230.285927 595.325687 
L 237.297957 593.788403 
L 244.309986 592.251125 
L 251.322016 590.713853 
L 258.334045 589.176587 
L 265.346074 587.639327 
L 272.358104 586.102073 
L 279.370133 584.564824 
L 286.382163 583.027582 
L 293.394192 581.490345 
L 300.406221 579.953114 
L 307.418251 578.415889 
L 314.43028 576.87867 
L 321.442309 575.341457 
L 328.454339 573.80425 
L 335.466368 572.267048 
L 342.478398 570.729853 
L 349.490427 569.192663 
L 356.502456 567.655479 
L 363.514486 566.118301 
L 370.526515 564.581129 
L 377.538545 563.043963 
L 384.550574 561.506802 
L 391.562603 559.969648 
L 398.574633 558.432499 
L 405.586662 556.895356 
L 412.598691 555.358219 
L 419.610721 553.821088 
L 426.62275 552.283963 
L 433.63478 550.746844 
L 440.646809 549.209731 
L 447.658838 547.672623 
L 454.670868 546.135521 
L 461.682897 544.598425 
L 468.694927 543.061336 
L 475.706956 541.524252 
L 482.718985 539.987173 
L 489.731015 538.450101 
L 496.743044 536.913035 
L 503.755073 535.375974 
L 510.767103 533.838919 
L 517.779132 532.30187 
L 524.791162 530.764827 
L 531.803191 529.22779 
L 538.81522 527.690759 
L 545.82725 526.153734 
L 552.839279 524.616714 
L 559.851309 523.079701 
L 566.863338 521.542693 
L 573.875367 520.005691 
L 580.887397 518.468695 
L 587.899426 516.931705 
L 594.911455 515.394721 
L 601.923485 513.857742 
L 608.935514 512.32077 
L 615.947544 510.783803 
L 622.959573 509.246842 
L 629.971602 507.709887 
L 636.983632 506.172938 
L 643.995661 504.635995 
L 651.007691 503.099058 
L 658.01972 501.562127 
L 665.031749 500.025201 
L 672.043779 498.488281 
L 679.055808 496.951367 
L 686.067837 495.41446 
L 693.079867 493.877557 
L 700.091896 492.340661 
L 707.103926 490.803771 
L 714.115955 489.266886 
L 721.127984 487.730008 
L 728.140014 486.193135 
L 735.152043 484.656268 
L 742.164073 483.119407 
L 749.176102 481.582552 
L 756.188131 480.045703 
L 763.200161 478.50886 
L 770.21219 476.972022 
L 777.224219 475.43519 
L 784.236249 473.898365 
L 791.248278 472.361545 
L 798.260308 470.824731 
L 805.272337 469.287923 
L 812.284366 467.75112 
L 819.296396 466.214324 
L 826.308425 464.677533 
L 833.320455 463.140749 
" clip-path="url(#p6fa6d501a4)" style="fill: none; stroke: #2575b7; stroke-width: 1.5; stroke-linecap: square"/>
   </g>
   <g id="line2d_22">
    <path d="M 139.129545 101.811376 
L 146.141575 105.44556 
L 153.153604 105.923159 
L 160.165634 106.124684 
L 167.177663 106.397472 
L 174.189692 106.466726 
L 181.201722 106.599181 
L 188.213751 106.438092 
L 195.225781 106.648579 
L 202.23781 106.936339 
L 209.249839 106.458701 
L 216.261869 106.031011 
L 223.273898 106.665029 
L 230.285927 106.505538 
L 237.297957 106.233598 
L 244.309986 106.679958 
L 251.322016 106.416872 
L 258.334045 106.415667 
L 265.346074 106.827484 
L 272.358104 106.393696 
L 279.370133 106.285723 
L 286.382163 107.068712 
L 293.394192 106.509777 
L 300.406221 105.822598 
L 307.418251 106.961932 
L 314.43028 106.575231 
L 321.442309 105.754185 
L 328.454339 106.690671 
L 335.466368 106.344435 
L 342.478398 106.263825 
L 349.490427 106.652973 
L 356.502456 106.28567 
L 363.514486 106.562369 
L 370.526515 106.687454 
L 377.538545 106.244513 
L 384.550574 106.683754 
L 391.562603 106.91001 
L 398.574633 106.112823 
L 405.586662 106.326855 
L 412.598691 106.747529 
L 419.610721 106.152446 
L 426.62275 106.509773 
L 433.63478 106.639325 
L 440.646809 106.205322 
L 447.658838 106.687524 
L 454.670868 106.655437 
L 461.682897 106.136184 
L 468.694927 106.788386 
L 475.706956 106.812895 
L 482.718985 105.940213 
L 489.731015 106.647879 
L 496.743044 106.910346 
L 503.755073 105.84781 
L 510.767103 106.489131 
L 517.779132 106.691423 
L 524.791162 105.985619 
L 531.803191 106.60261 
L 538.81522 106.50013 
L 545.82725 106.271682 
L 552.839279 106.727553 
L 559.851309 106.435459 
L 566.863338 106.346616 
L 573.875367 106.892762 
L 580.887397 106.45194 
L 587.899426 106.119513 
L 594.911455 107.024677 
L 601.923485 106.575192 
L 608.935514 105.787616 
L 615.947544 106.833293 
L 622.959573 106.508856 
L 629.971602 105.951807 
L 636.983632 106.689997 
L 643.995661 106.326366 
L 651.007691 106.36512 
L 658.01972 106.683778 
L 665.031749 106.283233 
L 672.043779 106.573416 
L 679.055808 106.762252 
L 686.067837 106.213325 
L 693.079867 106.589496 
L 700.091896 107.005767 
L 707.103926 106.134599 
L 714.115955 106.252558 
L 721.127984 107.075829 
L 728.140014 106.134459 
L 735.152043 106.109045 
L 742.164073 106.779829 
L 749.176102 106.09971 
L 756.188131 106.438104 
L 763.200161 106.603982 
L 770.21219 106.22165 
L 777.224219 106.665995 
L 784.236249 106.566795 
L 791.248278 106.240959 
L 798.260308 106.845236 
L 805.272337 106.683553 
L 812.284366 105.990141 
L 819.296396 106.595272 
L 826.308425 106.5743 
L 833.320455 106.172973 
" clip-path="url(#p6fa6d501a4)" style="fill: none; stroke: #dc4c03; stroke-width: 1.5; stroke-linecap: square"/>
   </g>
   <g id="line2d_23">
    <path d="M 139.129545 615.310909 
L 146.141575 613.838121 
L 153.153604 612.373056 
L 160.165634 610.913545 
L 167.177663 609.454944 
L 174.189692 607.997062 
L 181.201722 606.539982 
L 188.213751 605.082795 
L 195.225781 603.625151 
L 202.23781 602.167333 
L 209.249839 600.709272 
L 216.261869 599.250531 
L 223.273898 597.790615 
L 230.285927 596.329871 
L 237.297957 594.868585 
L 244.309986 593.406754 
L 251.322016 591.944083 
L 258.334045 590.479993 
L 265.346074 589.013991 
L 272.358104 587.546747 
L 279.370133 586.078818 
L 286.382163 584.610255 
L 293.394192 583.140602 
L 300.406221 581.6689 
L 307.418251 580.194185 
L 314.43028 578.717602 
L 321.442309 577.240321 
L 328.454339 575.762592 
L 335.466368 574.283742 
L 342.478398 572.802182 
L 349.490427 571.316319 
L 356.502456 569.828132 
L 363.514486 568.339104 
L 370.526515 566.849404 
L 377.538545 565.357946 
L 384.550574 563.862445 
L 391.562603 562.363115 
L 398.574633 560.861902 
L 405.586662 559.35919 
L 412.598691 557.854416 
L 419.610721 556.346094 
L 426.62275 554.834038 
L 433.63478 553.319421 
L 440.646809 551.802494 
L 447.658838 550.282937 
L 454.670868 548.759859 
L 461.682897 547.232709 
L 468.694927 545.702358 
L 475.706956 544.169239 
L 482.718985 542.633272 
L 489.731015 541.093869 
L 496.743044 539.549963 
L 503.755073 538.001413 
L 510.767103 536.44942 
L 517.779132 534.894569 
L 524.791162 533.336698 
L 531.803191 531.774901 
L 538.81522 530.207555 
L 545.82725 528.634513 
L 552.839279 527.057668 
L 559.851309 525.477868 
L 566.863338 523.894833 
L 573.875367 522.307153 
L 580.887397 520.712642 
L 587.899426 519.112581 
L 594.911455 517.508564 
L 601.923485 515.900821 
L 608.935514 514.288529 
L 615.947544 512.669889 
L 622.959573 511.045139 
L 629.971602 509.415529 
L 636.983632 507.781247 
L 643.995661 506.141811 
L 651.007691 504.496098 
L 658.01972 502.843945 
L 665.031749 501.186214 
L 672.043779 499.523152 
L 679.055808 497.854503 
L 686.067837 496.179505 
L 693.079867 494.497219 
L 700.091896 492.808288 
L 707.103926 491.113479 
L 714.115955 489.412934 
L 721.127984 487.706173 
L 728.140014 485.992102 
L 735.152043 484.269527 
L 742.164073 482.539593 
L 749.176102 480.803462 
L 756.188131 479.061333 
L 763.200161 477.312453 
L 770.21219 475.555117 
L 777.224219 473.788106 
L 784.236249 472.013441 
L 791.248278 470.232061 
L 798.260308 468.443804 
L 805.272337 466.647432 
L 812.284366 464.841164 
L 819.296396 463.026383 
L 826.308425 461.203401 
L 833.320455 459.371849 
" clip-path="url(#p6fa6d501a4)" style="fill: none; stroke: #08306b; stroke-width: 1.5; stroke-linecap: square"/>
   </g>
   <g id="line2d_24">
    <path d="M 139.129545 101.811376 
L 146.141575 94.909663 
L 153.153604 91.08635 
L 160.165634 89.510061 
L 167.177663 88.379574 
L 174.189692 87.643961 
L 181.201722 87.361187 
L 188.213751 87.199197 
L 195.225781 87.046157 
L 202.23781 87.040802 
L 209.249839 87.181901 
L 216.261869 87.323907 
L 223.273898 87.298499 
L 230.285927 87.269096 
L 237.297957 87.375816 
L 244.309986 87.644281 
L 251.322016 87.986039 
L 258.334045 88.198565 
L 265.346074 88.114977 
L 272.358104 88.027366 
L 279.370133 88.183238 
L 286.382163 88.630354 
L 293.394192 89.216762 
L 300.406221 89.590799 
L 307.418251 89.399196 
L 314.43028 89.122895 
L 321.442309 89.252987 
L 328.454339 89.916471 
L 335.466368 90.876493 
L 342.478398 91.532344 
L 349.490427 91.282314 
L 356.502456 90.938707 
L 363.514486 91.117146 
L 370.526515 91.914367 
L 377.538545 92.92986 
L 384.550574 93.288023 
L 391.562603 93.104157 
L 398.574633 93.17797 
L 405.586662 93.691541 
L 412.598691 94.452566 
L 419.610721 94.902713 
L 426.62275 94.999469 
L 433.63478 95.237545 
L 440.646809 95.747975 
L 447.658838 96.435326 
L 454.670868 96.977698 
L 461.682897 97.188737 
L 468.694927 97.445596 
L 475.706956 97.951383 
L 482.718985 98.707517 
L 489.731015 99.513726 
L 496.743044 99.9791 
L 503.755073 100.081708 
L 510.767103 100.330789 
L 517.779132 100.991904 
L 524.791162 102.035223 
L 531.803191 103.135532 
L 538.81522 103.683245 
L 545.82725 103.655231 
L 552.839279 103.837373 
L 559.851309 104.602282 
L 566.863338 105.874285 
L 573.875367 107.129427 
L 580.887397 107.53712 
L 587.899426 107.641799 
L 594.911455 108.113947 
L 601.923485 109.08331 
L 608.935514 110.259751 
L 615.947544 110.966723 
L 622.959573 111.337647 
L 629.971602 111.908539 
L 636.983632 112.793132 
L 643.995661 113.840091 
L 651.007691 114.642973 
L 658.01972 115.176789 
L 665.031749 115.826174 
L 672.043779 116.731064 
L 679.055808 117.831166 
L 686.067837 118.86596 
L 693.079867 119.503544 
L 700.091896 120.044033 
L 707.103926 120.837273 
L 714.115955 121.983548 
L 721.127984 123.337145 
L 728.140014 124.506364 
L 735.152043 125.061118 
L 742.164073 125.504194 
L 749.176102 126.347433 
L 756.188131 127.718039 
L 763.200161 129.363118 
L 770.21219 130.649678 
L 777.224219 131.139424 
L 784.236249 131.691055 
L 791.248278 132.731637 
L 798.260308 134.248008 
L 805.272337 135.794879 
L 812.284366 136.711252 
L 819.296396 137.604985 
L 826.308425 138.655295 
L 833.320455 139.76919 
" clip-path="url(#p6fa6d501a4)" style="fill: none; stroke: #7f2704; stroke-width: 1.5; stroke-linecap: square"/>
   </g>
   <g id="patch_3">
    <path d="M 104.42 643.48 
L 104.42 23.76 
" style="fill: none; stroke: #000000; stroke-width: 0.8; stroke-linejoin: miter; stroke-linecap: square"/>
   </g>
   <g id="patch_4">
    <path d="M 868.03 643.48 
L 868.03 23.76 
" style="fill: none; stroke: #000000; stroke-width: 0.8; stroke-linejoin: miter; stroke-linecap: square"/>
   </g>
   <g id="patch_5">
    <path d="M 104.42 643.48 
L 868.03 643.48 
" style="fill: none; stroke: #000000; stroke-width: 0.8; stroke-linejoin: miter; stroke-linecap: square"/>
   </g>
   <g id="patch_6">
    <path d="M 104.42 23.76 
L 868.03 23.76 
" style="fill: none; stroke: #000000; stroke-width: 0.8; stroke-linejoin: miter; stroke-linecap: square"/>
   </g>
   <g id="legend_1">
    <g id="patch_7">
     <path d="M 883.43 364.27875 
L 1051.836562 364.27875 
Q 1056.236562 364.27875 1056.236562 359.87875 
L 1056.236562 39.16 
Q 1056.236562 34.76 1051.836562 34.76 
L 883.43 34.76 
Q 879.03 34.76 879.03 39.16 
L 879.03 359.87875 
Q 879.03 364.27875 883.43 364.27875 
z
" style="fill: #ffffff; opacity: 0.8; stroke: #cccccc; stroke-linejoin: miter"/>
    </g>
    <g id="PathCollection_3">
     <g>
      <use xlink:href="#m80f1702e56" x="909.83" y="54.501563" style="fill: #1f77b4; stroke: #1f77b4"/>
     </g>
    </g>
    <g id="text_19">
     <!-- Xi -->
     <g transform="translate(949.43 60.276563) scale(0.22 -0.22)">
      <use xlink:href="#DejaVuSans-58"/>
      <use xlink:href="#DejaVuSans-69" x="68.505859"/>
     </g>
    </g>
    <g id="PathCollection_4">
     <g>
      <use xlink:href="#m62fcbac0dc" x="909.83" y="86.793438" style="fill: #ff7f0e; stroke: #ff7f0e"/>
     </g>
    </g>
    <g id="text_20">
     <!-- Xa -->
     <g transform="translate(949.43 92.568438) scale(0.22 -0.22)">
      <use xlink:href="#DejaVuSans-58"/>
      <use xlink:href="#DejaVuSans-61" x="68.505859"/>
     </g>
    </g>
    <g id="line2d_25">
     <path d="M 887.83 117.160313 
L 909.83 117.160313 
L 931.83 117.160313 
" style="fill: none; stroke: #d0e1f2; stroke-width: 1.5; stroke-linecap: square"/>
    </g>
    <g id="text_21">
     <!-- Xi-AAAA -->
     <g transform="translate(949.43 124.860313) scale(0.22 -0.22)">
      <defs>
       <path id="DejaVuSans-2d" d="M 313 2009 
L 1997 2009 
L 1997 1497 
L 313 1497 
L 313 2009 
z
" transform="scale(0.015625)"/>
      </defs>
      <use xlink:href="#DejaVuSans-58"/>
      <use xlink:href="#DejaVuSans-69" x="68.505859"/>
      <use xlink:href="#DejaVuSans-2d" x="96.289062"/>
      <use xlink:href="#DejaVuSans-41" x="130.123047"/>
      <use xlink:href="#DejaVuSans-41" x="201.28125"/>
      <use xlink:href="#DejaVuSans-41" x="272.439453"/>
      <use xlink:href="#DejaVuSans-41" x="343.597656"/>
     </g>
    </g>
    <g id="line2d_26">
     <path d="M 887.83 149.452188 
L 909.83 149.452188 
L 931.83 149.452188 
" style="fill: none; stroke: #fdd9b4; stroke-width: 1.5; stroke-linecap: square"/>
    </g>
    <g id="text_22">
     <!-- Xa-AAAA -->
     <g transform="translate(949.43 157.152188) scale(0.22 -0.22)">
      <use xlink:href="#DejaVuSans-58"/>
      <use xlink:href="#DejaVuSans-61" x="68.505859"/>
      <use xlink:href="#DejaVuSans-2d" x="129.785156"/>
      <use xlink:href="#DejaVuSans-41" x="163.619141"/>
      <use xlink:href="#DejaVuSans-41" x="234.777344"/>
      <use xlink:href="#DejaVuSans-41" x="305.935547"/>
      <use xlink:href="#DejaVuSans-41" x="377.09375"/>
     </g>
    </g>
    <g id="line2d_27">
     <path d="M 887.83 181.744063 
L 909.83 181.744063 
L 931.83 181.744063 
" style="fill: none; stroke: #79b5d9; stroke-width: 1.5; stroke-linecap: square"/>
    </g>
    <g id="text_23">
     <!-- Xi-AIAA -->
     <g transform="translate(949.43 189.444063) scale(0.22 -0.22)">
      <defs>
       <path id="DejaVuSans-49" d="M 628 4666 
L 1259 4666 
L 1259 0 
L 628 0 
L 628 4666 
z
" transform="scale(0.015625)"/>
      </defs>
      <use xlink:href="#DejaVuSans-58"/>
      <use xlink:href="#DejaVuSans-69" x="68.505859"/>
      <use xlink:href="#DejaVuSans-2d" x="96.289062"/>
      <use xlink:href="#DejaVuSans-41" x="130.123047"/>
      <use xlink:href="#DejaVuSans-49" x="198.53125"/>
      <use xlink:href="#DejaVuSans-41" x="228.023438"/>
      <use xlink:href="#DejaVuSans-41" x="299.181641"/>
     </g>
    </g>
    <g id="line2d_28">
     <path d="M 887.83 214.035938 
L 909.83 214.035938 
L 931.83 214.035938 
" style="fill: none; stroke: #fd9649; stroke-width: 1.5; stroke-linecap: square"/>
    </g>
    <g id="text_24">
     <!-- Xa-AIAA -->
     <g transform="translate(949.43 221.735938) scale(0.22 -0.22)">
      <use xlink:href="#DejaVuSans-58"/>
      <use xlink:href="#DejaVuSans-61" x="68.505859"/>
      <use xlink:href="#DejaVuSans-2d" x="129.785156"/>
      <use xlink:href="#DejaVuSans-41" x="163.619141"/>
      <use xlink:href="#DejaVuSans-49" x="232.027344"/>
      <use xlink:href="#DejaVuSans-41" x="261.519531"/>
      <use xlink:href="#DejaVuSans-41" x="332.677734"/>
     </g>
    </g>
    <g id="line2d_29">
     <path d="M 887.83 246.327813 
L 909.83 246.327813 
L 931.83 246.327813 
" style="fill: none; stroke: #2575b7; stroke-width: 1.5; stroke-linecap: square"/>
    </g>
    <g id="text_25">
     <!-- Xi-IAAA -->
     <g transform="translate(949.43 254.027813) scale(0.22 -0.22)">
      <use xlink:href="#DejaVuSans-58"/>
      <use xlink:href="#DejaVuSans-69" x="68.505859"/>
      <use xlink:href="#DejaVuSans-2d" x="96.289062"/>
      <use xlink:href="#DejaVuSans-49" x="132.373047"/>
      <use xlink:href="#DejaVuSans-41" x="161.865234"/>
      <use xlink:href="#DejaVuSans-41" x="233.023438"/>
      <use xlink:href="#DejaVuSans-41" x="304.181641"/>
     </g>
    </g>
    <g id="line2d_30">
     <path d="M 887.83 278.619688 
L 909.83 278.619688 
L 931.83 278.619688 
" style="fill: none; stroke: #dc4c03; stroke-width: 1.5; stroke-linecap: square"/>
    </g>
    <g id="text_26">
     <!-- Xa-IAAA -->
     <g transform="translate(949.43 286.319688) scale(0.22 -0.22)">
      <use xlink:href="#DejaVuSans-58"/>
      <use xlink:href="#DejaVuSans-61" x="68.505859"/>
      <use xlink:href="#DejaVuSans-2d" x="129.785156"/>
      <use xlink:href="#DejaVuSans-49" x="165.869141"/>
      <use xlink:href="#DejaVuSans-41" x="195.361328"/>
      <use xlink:href="#DejaVuSans-41" x="266.519531"/>
      <use xlink:href="#DejaVuSans-41" x="337.677734"/>
     </g>
    </g>
    <g id="line2d_31">
     <path d="M 887.83 310.911563 
L 909.83 310.911563 
L 931.83 310.911563 
" style="fill: none; stroke: #08306b; stroke-width: 1.5; stroke-linecap: square"/>
    </g>
    <g id="text_27">
     <!-- Xi-IIAA -->
     <g transform="translate(949.43 318.611563) scale(0.22 -0.22)">
      <use xlink:href="#DejaVuSans-58"/>
      <use xlink:href="#DejaVuSans-69" x="68.505859"/>
      <use xlink:href="#DejaVuSans-2d" x="96.289062"/>
      <use xlink:href="#DejaVuSans-49" x="132.373047"/>
      <use xlink:href="#DejaVuSans-49" x="161.865234"/>
      <use xlink:href="#DejaVuSans-41" x="191.357422"/>
      <use xlink:href="#DejaVuSans-41" x="262.515625"/>
     </g>
    </g>
    <g id="line2d_32">
     <path d="M 887.83 343.203438 
L 909.83 343.203438 
L 931.83 343.203438 
" style="fill: none; stroke: #7f2704; stroke-width: 1.5; stroke-linecap: square"/>
    </g>
    <g id="text_28">
     <!-- Xa-IIAA -->
     <g transform="translate(949.43 350.903438) scale(0.22 -0.22)">
      <use xlink:href="#DejaVuSans-58"/>
      <use xlink:href="#DejaVuSans-61" x="68.505859"/>
      <use xlink:href="#DejaVuSans-2d" x="129.785156"/>
      <use xlink:href="#DejaVuSans-49" x="165.869141"/>
      <use xlink:href="#DejaVuSans-49" x="195.361328"/>
      <use xlink:href="#DejaVuSans-41" x="224.853516"/>
      <use xlink:href="#DejaVuSans-41" x="296.011719"/>
     </g>
    </g>
   </g>
  </g>
 </g>
 <defs>
  <clipPath id="p6fa6d501a4">
   <rect x="104.42" y="23.76" width="763.61" height="619.72"/>
  </clipPath>
 </defs>
</svg>
