<?xml version="1.0" encoding="utf-8" standalone="no"?>
<!DOCTYPE svg PUBLIC "-//W3C//DTD SVG 1.1//EN"
  "http://www.w3.org/Graphics/SVG/1.1/DTD/svg11.dtd">
<svg xmlns:xlink="http://www.w3.org/1999/xlink" width="1080pt" height="720pt" viewBox="0 0 1080 720" xmlns="http://www.w3.org/2000/svg" version="1.1">
 <metadata>
  <rdf:RDF xmlns:dc="http://purl.org/dc/elements/1.1/" xmlns:cc="http://creativecommons.org/ns#" xmlns:rdf="http://www.w3.org/1999/02/22-rdf-syntax-ns#">
   <cc:Work>
    <dc:type rdf:resource="http://purl.org/dc/dcmitype/StillImage"/>
    <dc:date>2023-01-11T19:55:45.556307</dc:date>
    <dc:format>image/svg+xml</dc:format>
    <dc:creator>
     <cc:Agent>
      <dc:title>Matplotlib v3.6.2, https://matplotlib.org/</dc:title>
     </cc:Agent>
    </dc:creator>
   </cc:Work>
  </rdf:RDF>
 </metadata>
 <defs>
  <style type="text/css">*{stroke-linejoin: round; stroke-linecap: butt}</style>
 </defs>
 <g id="figure_1">
  <g id="patch_1">
   <path d="M 0 720 
L 1080 720 
L 1080 0 
L 0 0 
z
" style="fill: #ffffff"/>
  </g>
  <g id="axes_1">
   <g id="patch_2">
    <path d="M 104.42 643.48 
L 886.39 643.48 
L 886.39 23.76 
L 104.42 23.76 
z
" style="fill: #ffffff"/>
   </g>
   <g id="PathCollection_1">
    <defs>
     <path id="m80f1702e56" d="M 0 3 
C 0.795609 3 1.55874 2.683901 2.12132 2.12132 
C 2.683901 1.55874 3 0.795609 3 0 
C 3 -0.795609 2.683901 -1.55874 2.12132 -2.12132 
C 1.55874 -2.683901 0.795609 -3 0 -3 
C -0.795609 -3 -1.55874 -2.683901 -2.12132 -2.12132 
C -2.683901 -1.55874 -3 -0.795609 -3 0 
C -3 0.795609 -2.683901 1.55874 -2.12132 2.12132 
C -1.55874 2.683901 -0.795609 3 0 3 
z
" style="stroke: #1f77b4"/>
    </defs>
    <g clip-path="url(#p6bcd6ea3a9)">
     <use xlink:href="#m80f1702e56" x="139.964091" y="615.310909" style="fill: #1f77b4; stroke: #1f77b4"/>
     <use xlink:href="#m80f1702e56" x="228.824318" y="581.002683" style="fill: #1f77b4; stroke: #1f77b4"/>
     <use xlink:href="#m80f1702e56" x="317.684545" y="569.371903" style="fill: #1f77b4; stroke: #1f77b4"/>
     <use xlink:href="#m80f1702e56" x="406.544773" y="567.018417" style="fill: #1f77b4; stroke: #1f77b4"/>
     <use xlink:href="#m80f1702e56" x="495.405" y="522.988588" style="fill: #1f77b4; stroke: #1f77b4"/>
     <use xlink:href="#m80f1702e56" x="584.265227" y="478.95876" style="fill: #1f77b4; stroke: #1f77b4"/>
     <use xlink:href="#m80f1702e56" x="673.125455" y="478.95876" style="fill: #1f77b4; stroke: #1f77b4"/>
     <use xlink:href="#m80f1702e56" x="761.985682" y="478.95876" style="fill: #1f77b4; stroke: #1f77b4"/>
     <use xlink:href="#m80f1702e56" x="850.845909" y="478.95876" style="fill: #1f77b4; stroke: #1f77b4"/>
    </g>
   </g>
   <g id="PathCollection_2">
    <defs>
     <path id="m62fcbac0dc" d="M 0 3 
C 0.795609 3 1.55874 2.683901 2.12132 2.12132 
C 2.683901 1.55874 3 0.795609 3 0 
C 3 -0.795609 2.683901 -1.55874 2.12132 -2.12132 
C 1.55874 -2.683901 0.795609 -3 0 -3 
C -0.795609 -3 -1.55874 -2.683901 -2.12132 -2.12132 
C -2.683901 -1.55874 -3 -0.795609 -3 0 
C -3 0.795609 -2.683901 1.55874 -2.12132 2.12132 
C -1.55874 2.683901 -0.795609 3 0 3 
z
" style="stroke: #ff7f0e"/>
    </defs>
    <g clip-path="url(#p6bcd6ea3a9)">
     <use xlink:href="#m62fcbac0dc" x="139.964091" y="101.811376" style="fill: #ff7f0e; stroke: #ff7f0e"/>
     <use xlink:href="#m62fcbac0dc" x="228.824318" y="80.860695" style="fill: #ff7f0e; stroke: #ff7f0e"/>
     <use xlink:href="#m62fcbac0dc" x="317.684545" y="113.550867" style="fill: #ff7f0e; stroke: #ff7f0e"/>
     <use xlink:href="#m62fcbac0dc" x="406.544773" y="51.929091" style="fill: #ff7f0e; stroke: #ff7f0e"/>
     <use xlink:href="#m62fcbac0dc" x="495.405" y="90.127012" style="fill: #ff7f0e; stroke: #ff7f0e"/>
     <use xlink:href="#m62fcbac0dc" x="584.265227" y="128.324932" style="fill: #ff7f0e; stroke: #ff7f0e"/>
     <use xlink:href="#m62fcbac0dc" x="673.125455" y="128.324932" style="fill: #ff7f0e; stroke: #ff7f0e"/>
     <use xlink:href="#m62fcbac0dc" x="761.985682" y="128.324932" style="fill: #ff7f0e; stroke: #ff7f0e"/>
     <use xlink:href="#m62fcbac0dc" x="850.845909" y="128.324932" style="fill: #ff7f0e; stroke: #ff7f0e"/>
    </g>
   </g>
   <g id="matplotlib.axis_1">
    <g id="xtick_1">
     <g id="line2d_1">
      <defs>
       <path id="m3385fdae1e" d="M 0 0 
L 0 3.5 
" style="stroke: #000000; stroke-width: 0.8"/>
      </defs>
      <g>
       <use xlink:href="#m3385fdae1e" x="139.964091" y="643.48" style="stroke: #000000; stroke-width: 0.8"/>
      </g>
     </g>
     <g id="text_1">
      <!-- 7 -->
      <g transform="translate(132.965341 667.196563) scale(0.22 -0.22)">
       <defs>
        <path id="DejaVuSans-37" d="M 525 4666 
L 3525 4666 
L 3525 4397 
L 1831 0 
L 1172 0 
L 2766 4134 
L 525 4134 
L 525 4666 
z
" transform="scale(0.015625)"/>
       </defs>
       <use xlink:href="#DejaVuSans-37"/>
      </g>
     </g>
    </g>
    <g id="xtick_2">
     <g id="line2d_2">
      <g>
       <use xlink:href="#m3385fdae1e" x="228.824318" y="643.48" style="stroke: #000000; stroke-width: 0.8"/>
      </g>
     </g>
     <g id="text_2">
      <!-- 8 -->
      <g transform="translate(221.825568 667.196563) scale(0.22 -0.22)">
       <defs>
        <path id="DejaVuSans-38" d="M 2034 2216 
Q 1584 2216 1326 1975 
Q 1069 1734 1069 1313 
Q 1069 891 1326 650 
Q 1584 409 2034 409 
Q 2484 409 2743 651 
Q 3003 894 3003 1313 
Q 3003 1734 2745 1975 
Q 2488 2216 2034 2216 
z
M 1403 2484 
Q 997 2584 770 2862 
Q 544 3141 544 3541 
Q 544 4100 942 4425 
Q 1341 4750 2034 4750 
Q 2731 4750 3128 4425 
Q 3525 4100 3525 3541 
Q 3525 3141 3298 2862 
Q 3072 2584 2669 2484 
Q 3125 2378 3379 2068 
Q 3634 1759 3634 1313 
Q 3634 634 3220 271 
Q 2806 -91 2034 -91 
Q 1263 -91 848 271 
Q 434 634 434 1313 
Q 434 1759 690 2068 
Q 947 2378 1403 2484 
z
M 1172 3481 
Q 1172 3119 1398 2916 
Q 1625 2713 2034 2713 
Q 2441 2713 2670 2916 
Q 2900 3119 2900 3481 
Q 2900 3844 2670 4047 
Q 2441 4250 2034 4250 
Q 1625 4250 1398 4047 
Q 1172 3844 1172 3481 
z
" transform="scale(0.015625)"/>
       </defs>
       <use xlink:href="#DejaVuSans-38"/>
      </g>
     </g>
    </g>
    <g id="xtick_3">
     <g id="line2d_3">
      <g>
       <use xlink:href="#m3385fdae1e" x="317.684545" y="643.48" style="stroke: #000000; stroke-width: 0.8"/>
      </g>
     </g>
     <g id="text_3">
      <!-- 9 -->
      <g transform="translate(310.685795 667.196563) scale(0.22 -0.22)">
       <defs>
        <path id="DejaVuSans-39" d="M 703 97 
L 703 672 
Q 941 559 1184 500 
Q 1428 441 1663 441 
Q 2288 441 2617 861 
Q 2947 1281 2994 2138 
Q 2813 1869 2534 1725 
Q 2256 1581 1919 1581 
Q 1219 1581 811 2004 
Q 403 2428 403 3163 
Q 403 3881 828 4315 
Q 1253 4750 1959 4750 
Q 2769 4750 3195 4129 
Q 3622 3509 3622 2328 
Q 3622 1225 3098 567 
Q 2575 -91 1691 -91 
Q 1453 -91 1209 -44 
Q 966 3 703 97 
z
M 1959 2075 
Q 2384 2075 2632 2365 
Q 2881 2656 2881 3163 
Q 2881 3666 2632 3958 
Q 2384 4250 1959 4250 
Q 1534 4250 1286 3958 
Q 1038 3666 1038 3163 
Q 1038 2656 1286 2365 
Q 1534 2075 1959 2075 
z
" transform="scale(0.015625)"/>
       </defs>
       <use xlink:href="#DejaVuSans-39"/>
      </g>
     </g>
    </g>
    <g id="xtick_4">
     <g id="line2d_4">
      <g>
       <use xlink:href="#m3385fdae1e" x="406.544773" y="643.48" style="stroke: #000000; stroke-width: 0.8"/>
      </g>
     </g>
     <g id="text_4">
      <!-- 10 -->
      <g transform="translate(392.547273 667.196563) scale(0.22 -0.22)">
       <defs>
        <path id="DejaVuSans-31" d="M 794 531 
L 1825 531 
L 1825 4091 
L 703 3866 
L 703 4441 
L 1819 4666 
L 2450 4666 
L 2450 531 
L 3481 531 
L 3481 0 
L 794 0 
L 794 531 
z
" transform="scale(0.015625)"/>
        <path id="DejaVuSans-30" d="M 2034 4250 
Q 1547 4250 1301 3770 
Q 1056 3291 1056 2328 
Q 1056 1369 1301 889 
Q 1547 409 2034 409 
Q 2525 409 2770 889 
Q 3016 1369 3016 2328 
Q 3016 3291 2770 3770 
Q 2525 4250 2034 4250 
z
M 2034 4750 
Q 2819 4750 3233 4129 
Q 3647 3509 3647 2328 
Q 3647 1150 3233 529 
Q 2819 -91 2034 -91 
Q 1250 -91 836 529 
Q 422 1150 422 2328 
Q 422 3509 836 4129 
Q 1250 4750 2034 4750 
z
" transform="scale(0.015625)"/>
       </defs>
       <use xlink:href="#DejaVuSans-31"/>
       <use xlink:href="#DejaVuSans-30" x="63.623047"/>
      </g>
     </g>
    </g>
    <g id="xtick_5">
     <g id="line2d_5">
      <g>
       <use xlink:href="#m3385fdae1e" x="495.405" y="643.48" style="stroke: #000000; stroke-width: 0.8"/>
      </g>
     </g>
     <g id="text_5">
      <!-- 11 -->
      <g transform="translate(481.4075 667.196563) scale(0.22 -0.22)">
       <use xlink:href="#DejaVuSans-31"/>
       <use xlink:href="#DejaVuSans-31" x="63.623047"/>
      </g>
     </g>
    </g>
    <g id="xtick_6">
     <g id="line2d_6">
      <g>
       <use xlink:href="#m3385fdae1e" x="584.265227" y="643.48" style="stroke: #000000; stroke-width: 0.8"/>
      </g>
     </g>
     <g id="text_6">
      <!-- 12 -->
      <g transform="translate(570.267727 667.196563) scale(0.22 -0.22)">
       <defs>
        <path id="DejaVuSans-32" d="M 1228 531 
L 3431 531 
L 3431 0 
L 469 0 
L 469 531 
Q 828 903 1448 1529 
Q 2069 2156 2228 2338 
Q 2531 2678 2651 2914 
Q 2772 3150 2772 3378 
Q 2772 3750 2511 3984 
Q 2250 4219 1831 4219 
Q 1534 4219 1204 4116 
Q 875 4013 500 3803 
L 500 4441 
Q 881 4594 1212 4672 
Q 1544 4750 1819 4750 
Q 2544 4750 2975 4387 
Q 3406 4025 3406 3419 
Q 3406 3131 3298 2873 
Q 3191 2616 2906 2266 
Q 2828 2175 2409 1742 
Q 1991 1309 1228 531 
z
" transform="scale(0.015625)"/>
       </defs>
       <use xlink:href="#DejaVuSans-31"/>
       <use xlink:href="#DejaVuSans-32" x="63.623047"/>
      </g>
     </g>
    </g>
    <g id="xtick_7">
     <g id="line2d_7">
      <g>
       <use xlink:href="#m3385fdae1e" x="673.125455" y="643.48" style="stroke: #000000; stroke-width: 0.8"/>
      </g>
     </g>
     <g id="text_7">
      <!-- 13 -->
      <g transform="translate(659.127955 667.196563) scale(0.22 -0.22)">
       <defs>
        <path id="DejaVuSans-33" d="M 2597 2516 
Q 3050 2419 3304 2112 
Q 3559 1806 3559 1356 
Q 3559 666 3084 287 
Q 2609 -91 1734 -91 
Q 1441 -91 1130 -33 
Q 819 25 488 141 
L 488 750 
Q 750 597 1062 519 
Q 1375 441 1716 441 
Q 2309 441 2620 675 
Q 2931 909 2931 1356 
Q 2931 1769 2642 2001 
Q 2353 2234 1838 2234 
L 1294 2234 
L 1294 2753 
L 1863 2753 
Q 2328 2753 2575 2939 
Q 2822 3125 2822 3475 
Q 2822 3834 2567 4026 
Q 2313 4219 1838 4219 
Q 1578 4219 1281 4162 
Q 984 4106 628 3988 
L 628 4550 
Q 988 4650 1302 4700 
Q 1616 4750 1894 4750 
Q 2613 4750 3031 4423 
Q 3450 4097 3450 3541 
Q 3450 3153 3228 2886 
Q 3006 2619 2597 2516 
z
" transform="scale(0.015625)"/>
       </defs>
       <use xlink:href="#DejaVuSans-31"/>
       <use xlink:href="#DejaVuSans-33" x="63.623047"/>
      </g>
     </g>
    </g>
    <g id="xtick_8">
     <g id="line2d_8">
      <g>
       <use xlink:href="#m3385fdae1e" x="761.985682" y="643.48" style="stroke: #000000; stroke-width: 0.8"/>
      </g>
     </g>
     <g id="text_8">
      <!-- 14 -->
      <g transform="translate(747.988182 667.196563) scale(0.22 -0.22)">
       <defs>
        <path id="DejaVuSans-34" d="M 2419 4116 
L 825 1625 
L 2419 1625 
L 2419 4116 
z
M 2253 4666 
L 3047 4666 
L 3047 1625 
L 3713 1625 
L 3713 1100 
L 3047 1100 
L 3047 0 
L 2419 0 
L 2419 1100 
L 313 1100 
L 313 1709 
L 2253 4666 
z
" transform="scale(0.015625)"/>
       </defs>
       <use xlink:href="#DejaVuSans-31"/>
       <use xlink:href="#DejaVuSans-34" x="63.623047"/>
      </g>
     </g>
    </g>
    <g id="xtick_9">
     <g id="line2d_9">
      <g>
       <use xlink:href="#m3385fdae1e" x="850.845909" y="643.48" style="stroke: #000000; stroke-width: 0.8"/>
      </g>
     </g>
     <g id="text_9">
      <!-- 15 -->
      <g transform="translate(836.848409 667.196563) scale(0.22 -0.22)">
       <defs>
        <path id="DejaVuSans-35" d="M 691 4666 
L 3169 4666 
L 3169 4134 
L 1269 4134 
L 1269 2991 
Q 1406 3038 1543 3061 
Q 1681 3084 1819 3084 
Q 2600 3084 3056 2656 
Q 3513 2228 3513 1497 
Q 3513 744 3044 326 
Q 2575 -91 1722 -91 
Q 1428 -91 1123 -41 
Q 819 9 494 109 
L 494 744 
Q 775 591 1075 516 
Q 1375 441 1709 441 
Q 2250 441 2565 725 
Q 2881 1009 2881 1497 
Q 2881 1984 2565 2268 
Q 2250 2553 1709 2553 
Q 1456 2553 1204 2497 
Q 953 2441 691 2322 
L 691 4666 
z
" transform="scale(0.015625)"/>
       </defs>
       <use xlink:href="#DejaVuSans-31"/>
       <use xlink:href="#DejaVuSans-35" x="63.623047"/>
      </g>
     </g>
    </g>
    <g id="text_10">
     <!-- Time (days) -->
     <g transform="translate(430.446563 692.488438) scale(0.22 -0.22)">
      <defs>
       <path id="DejaVuSans-54" d="M -19 4666 
L 3928 4666 
L 3928 4134 
L 2272 4134 
L 2272 0 
L 1638 0 
L 1638 4134 
L -19 4134 
L -19 4666 
z
" transform="scale(0.015625)"/>
       <path id="DejaVuSans-69" d="M 603 3500 
L 1178 3500 
L 1178 0 
L 603 0 
L 603 3500 
z
M 603 4863 
L 1178 4863 
L 1178 4134 
L 603 4134 
L 603 4863 
z
" transform="scale(0.015625)"/>
       <path id="DejaVuSans-6d" d="M 3328 2828 
Q 3544 3216 3844 3400 
Q 4144 3584 4550 3584 
Q 5097 3584 5394 3201 
Q 5691 2819 5691 2113 
L 5691 0 
L 5113 0 
L 5113 2094 
Q 5113 2597 4934 2840 
Q 4756 3084 4391 3084 
Q 3944 3084 3684 2787 
Q 3425 2491 3425 1978 
L 3425 0 
L 2847 0 
L 2847 2094 
Q 2847 2600 2669 2842 
Q 2491 3084 2119 3084 
Q 1678 3084 1418 2786 
Q 1159 2488 1159 1978 
L 1159 0 
L 581 0 
L 581 3500 
L 1159 3500 
L 1159 2956 
Q 1356 3278 1631 3431 
Q 1906 3584 2284 3584 
Q 2666 3584 2933 3390 
Q 3200 3197 3328 2828 
z
" transform="scale(0.015625)"/>
       <path id="DejaVuSans-65" d="M 3597 1894 
L 3597 1613 
L 953 1613 
Q 991 1019 1311 708 
Q 1631 397 2203 397 
Q 2534 397 2845 478 
Q 3156 559 3463 722 
L 3463 178 
Q 3153 47 2828 -22 
Q 2503 -91 2169 -91 
Q 1331 -91 842 396 
Q 353 884 353 1716 
Q 353 2575 817 3079 
Q 1281 3584 2069 3584 
Q 2775 3584 3186 3129 
Q 3597 2675 3597 1894 
z
M 3022 2063 
Q 3016 2534 2758 2815 
Q 2500 3097 2075 3097 
Q 1594 3097 1305 2825 
Q 1016 2553 972 2059 
L 3022 2063 
z
" transform="scale(0.015625)"/>
       <path id="DejaVuSans-20" transform="scale(0.015625)"/>
       <path id="DejaVuSans-28" d="M 1984 4856 
Q 1566 4138 1362 3434 
Q 1159 2731 1159 2009 
Q 1159 1288 1364 580 
Q 1569 -128 1984 -844 
L 1484 -844 
Q 1016 -109 783 600 
Q 550 1309 550 2009 
Q 550 2706 781 3412 
Q 1013 4119 1484 4856 
L 1984 4856 
z
" transform="scale(0.015625)"/>
       <path id="DejaVuSans-64" d="M 2906 2969 
L 2906 4863 
L 3481 4863 
L 3481 0 
L 2906 0 
L 2906 525 
Q 2725 213 2448 61 
Q 2172 -91 1784 -91 
Q 1150 -91 751 415 
Q 353 922 353 1747 
Q 353 2572 751 3078 
Q 1150 3584 1784 3584 
Q 2172 3584 2448 3432 
Q 2725 3281 2906 2969 
z
M 947 1747 
Q 947 1113 1208 752 
Q 1469 391 1925 391 
Q 2381 391 2643 752 
Q 2906 1113 2906 1747 
Q 2906 2381 2643 2742 
Q 2381 3103 1925 3103 
Q 1469 3103 1208 2742 
Q 947 2381 947 1747 
z
" transform="scale(0.015625)"/>
       <path id="DejaVuSans-61" d="M 2194 1759 
Q 1497 1759 1228 1600 
Q 959 1441 959 1056 
Q 959 750 1161 570 
Q 1363 391 1709 391 
Q 2188 391 2477 730 
Q 2766 1069 2766 1631 
L 2766 1759 
L 2194 1759 
z
M 3341 1997 
L 3341 0 
L 2766 0 
L 2766 531 
Q 2569 213 2275 61 
Q 1981 -91 1556 -91 
Q 1019 -91 701 211 
Q 384 513 384 1019 
Q 384 1609 779 1909 
Q 1175 2209 1959 2209 
L 2766 2209 
L 2766 2266 
Q 2766 2663 2505 2880 
Q 2244 3097 1772 3097 
Q 1472 3097 1187 3025 
Q 903 2953 641 2809 
L 641 3341 
Q 956 3463 1253 3523 
Q 1550 3584 1831 3584 
Q 2591 3584 2966 3190 
Q 3341 2797 3341 1997 
z
" transform="scale(0.015625)"/>
       <path id="DejaVuSans-79" d="M 2059 -325 
Q 1816 -950 1584 -1140 
Q 1353 -1331 966 -1331 
L 506 -1331 
L 506 -850 
L 844 -850 
Q 1081 -850 1212 -737 
Q 1344 -625 1503 -206 
L 1606 56 
L 191 3500 
L 800 3500 
L 1894 763 
L 2988 3500 
L 3597 3500 
L 2059 -325 
z
" transform="scale(0.015625)"/>
       <path id="DejaVuSans-73" d="M 2834 3397 
L 2834 2853 
Q 2591 2978 2328 3040 
Q 2066 3103 1784 3103 
Q 1356 3103 1142 2972 
Q 928 2841 928 2578 
Q 928 2378 1081 2264 
Q 1234 2150 1697 2047 
L 1894 2003 
Q 2506 1872 2764 1633 
Q 3022 1394 3022 966 
Q 3022 478 2636 193 
Q 2250 -91 1575 -91 
Q 1294 -91 989 -36 
Q 684 19 347 128 
L 347 722 
Q 666 556 975 473 
Q 1284 391 1588 391 
Q 1994 391 2212 530 
Q 2431 669 2431 922 
Q 2431 1156 2273 1281 
Q 2116 1406 1581 1522 
L 1381 1569 
Q 847 1681 609 1914 
Q 372 2147 372 2553 
Q 372 3047 722 3315 
Q 1072 3584 1716 3584 
Q 2034 3584 2315 3537 
Q 2597 3491 2834 3397 
z
" transform="scale(0.015625)"/>
       <path id="DejaVuSans-29" d="M 513 4856 
L 1013 4856 
Q 1481 4119 1714 3412 
Q 1947 2706 1947 2009 
Q 1947 1309 1714 600 
Q 1481 -109 1013 -844 
L 513 -844 
Q 928 -128 1133 580 
Q 1338 1288 1338 2009 
Q 1338 2731 1133 3434 
Q 928 4138 513 4856 
z
" transform="scale(0.015625)"/>
      </defs>
      <use xlink:href="#DejaVuSans-54"/>
      <use xlink:href="#DejaVuSans-69" x="57.958984"/>
      <use xlink:href="#DejaVuSans-6d" x="85.742188"/>
      <use xlink:href="#DejaVuSans-65" x="183.154297"/>
      <use xlink:href="#DejaVuSans-20" x="244.677734"/>
      <use xlink:href="#DejaVuSans-28" x="276.464844"/>
      <use xlink:href="#DejaVuSans-64" x="315.478516"/>
      <use xlink:href="#DejaVuSans-61" x="378.955078"/>
      <use xlink:href="#DejaVuSans-79" x="440.234375"/>
      <use xlink:href="#DejaVuSans-73" x="499.414062"/>
      <use xlink:href="#DejaVuSans-29" x="551.513672"/>
     </g>
    </g>
   </g>
   <g id="matplotlib.axis_2">
    <g id="ytick_1">
     <g id="line2d_10">
      <defs>
       <path id="ma600d9e374" d="M 0 0 
L -3.5 0 
" style="stroke: #000000; stroke-width: 0.8"/>
      </defs>
      <g>
       <use xlink:href="#ma600d9e374" x="104.42" y="615.655789" style="stroke: #000000; stroke-width: 0.8"/>
      </g>
     </g>
     <g id="text_11">
      <!-- 0.00 -->
      <g transform="translate(48.435625 624.01407) scale(0.22 -0.22)">
       <defs>
        <path id="DejaVuSans-2e" d="M 684 794 
L 1344 794 
L 1344 0 
L 684 0 
L 684 794 
z
" transform="scale(0.015625)"/>
       </defs>
       <use xlink:href="#DejaVuSans-30"/>
       <use xlink:href="#DejaVuSans-2e" x="63.623047"/>
       <use xlink:href="#DejaVuSans-30" x="95.410156"/>
       <use xlink:href="#DejaVuSans-30" x="159.033203"/>
      </g>
     </g>
    </g>
    <g id="ytick_2">
     <g id="line2d_11">
      <g>
       <use xlink:href="#ma600d9e374" x="104.42" y="535.500127" style="stroke: #000000; stroke-width: 0.8"/>
      </g>
     </g>
     <g id="text_12">
      <!-- 0.25 -->
      <g transform="translate(48.435625 543.858409) scale(0.22 -0.22)">
       <use xlink:href="#DejaVuSans-30"/>
       <use xlink:href="#DejaVuSans-2e" x="63.623047"/>
       <use xlink:href="#DejaVuSans-32" x="95.410156"/>
       <use xlink:href="#DejaVuSans-35" x="159.033203"/>
      </g>
     </g>
    </g>
    <g id="ytick_3">
     <g id="line2d_12">
      <g>
       <use xlink:href="#ma600d9e374" x="104.42" y="455.344465" style="stroke: #000000; stroke-width: 0.8"/>
      </g>
     </g>
     <g id="text_13">
      <!-- 0.50 -->
      <g transform="translate(48.435625 463.702747) scale(0.22 -0.22)">
       <use xlink:href="#DejaVuSans-30"/>
       <use xlink:href="#DejaVuSans-2e" x="63.623047"/>
       <use xlink:href="#DejaVuSans-35" x="95.410156"/>
       <use xlink:href="#DejaVuSans-30" x="159.033203"/>
      </g>
     </g>
    </g>
    <g id="ytick_4">
     <g id="line2d_13">
      <g>
       <use xlink:href="#ma600d9e374" x="104.42" y="375.188804" style="stroke: #000000; stroke-width: 0.8"/>
      </g>
     </g>
     <g id="text_14">
      <!-- 0.75 -->
      <g transform="translate(48.435625 383.547085) scale(0.22 -0.22)">
       <use xlink:href="#DejaVuSans-30"/>
       <use xlink:href="#DejaVuSans-2e" x="63.623047"/>
       <use xlink:href="#DejaVuSans-37" x="95.410156"/>
       <use xlink:href="#DejaVuSans-35" x="159.033203"/>
      </g>
     </g>
    </g>
    <g id="ytick_5">
     <g id="line2d_14">
      <g>
       <use xlink:href="#ma600d9e374" x="104.42" y="295.033142" style="stroke: #000000; stroke-width: 0.8"/>
      </g>
     </g>
     <g id="text_15">
      <!-- 1.00 -->
      <g transform="translate(48.435625 303.391423) scale(0.22 -0.22)">
       <use xlink:href="#DejaVuSans-31"/>
       <use xlink:href="#DejaVuSans-2e" x="63.623047"/>
       <use xlink:href="#DejaVuSans-30" x="95.410156"/>
       <use xlink:href="#DejaVuSans-30" x="159.033203"/>
      </g>
     </g>
    </g>
    <g id="ytick_6">
     <g id="line2d_15">
      <g>
       <use xlink:href="#ma600d9e374" x="104.42" y="214.87748" style="stroke: #000000; stroke-width: 0.8"/>
      </g>
     </g>
     <g id="text_16">
      <!-- 1.25 -->
      <g transform="translate(48.435625 223.235761) scale(0.22 -0.22)">
       <use xlink:href="#DejaVuSans-31"/>
       <use xlink:href="#DejaVuSans-2e" x="63.623047"/>
       <use xlink:href="#DejaVuSans-32" x="95.410156"/>
       <use xlink:href="#DejaVuSans-35" x="159.033203"/>
      </g>
     </g>
    </g>
    <g id="ytick_7">
     <g id="line2d_16">
      <g>
       <use xlink:href="#ma600d9e374" x="104.42" y="134.721818" style="stroke: #000000; stroke-width: 0.8"/>
      </g>
     </g>
     <g id="text_17">
      <!-- 1.50 -->
      <g transform="translate(48.435625 143.080099) scale(0.22 -0.22)">
       <use xlink:href="#DejaVuSans-31"/>
       <use xlink:href="#DejaVuSans-2e" x="63.623047"/>
       <use xlink:href="#DejaVuSans-35" x="95.410156"/>
       <use xlink:href="#DejaVuSans-30" x="159.033203"/>
      </g>
     </g>
    </g>
    <g id="ytick_8">
     <g id="line2d_17">
      <g>
       <use xlink:href="#ma600d9e374" x="104.42" y="54.566156" style="stroke: #000000; stroke-width: 0.8"/>
      </g>
     </g>
     <g id="text_18">
      <!-- 1.75 -->
      <g transform="translate(48.435625 62.924438) scale(0.22 -0.22)">
       <use xlink:href="#DejaVuSans-31"/>
       <use xlink:href="#DejaVuSans-2e" x="63.623047"/>
       <use xlink:href="#DejaVuSans-37" x="95.410156"/>
       <use xlink:href="#DejaVuSans-35" x="159.033203"/>
      </g>
     </g>
    </g>
    <g id="text_19">
     <!-- X:A -->
     <g transform="translate(39.860313 352.385312) rotate(-90) scale(0.22 -0.22)">
      <defs>
       <path id="DejaVuSans-58" d="M 403 4666 
L 1081 4666 
L 2241 2931 
L 3406 4666 
L 4084 4666 
L 2584 2425 
L 4184 0 
L 3506 0 
L 2194 1984 
L 872 0 
L 191 0 
L 1856 2491 
L 403 4666 
z
" transform="scale(0.015625)"/>
       <path id="DejaVuSans-3a" d="M 750 794 
L 1409 794 
L 1409 0 
L 750 0 
L 750 794 
z
M 750 3309 
L 1409 3309 
L 1409 2516 
L 750 2516 
L 750 3309 
z
" transform="scale(0.015625)"/>
       <path id="DejaVuSans-41" d="M 2188 4044 
L 1331 1722 
L 3047 1722 
L 2188 4044 
z
M 1831 4666 
L 2547 4666 
L 4325 0 
L 3669 0 
L 3244 1197 
L 1141 1197 
L 716 0 
L 50 0 
L 1831 4666 
z
" transform="scale(0.015625)"/>
      </defs>
      <use xlink:href="#DejaVuSans-58"/>
      <use xlink:href="#DejaVuSans-3a" x="68.505859"/>
      <use xlink:href="#DejaVuSans-41" x="102.197266"/>
     </g>
    </g>
   </g>
   <g id="line2d_18">
    <path d="M 139.964091 615.310909 
L 147.144715 565.323571 
L 154.32534 541.425697 
L 161.505964 529.981608 
L 168.686589 524.517327 
L 175.867213 521.923502 
L 183.047837 520.651271 
L 190.228462 520.076027 
L 197.409086 519.77475 
L 204.589711 519.637485 
L 211.770335 519.590185 
L 218.95096 519.537551 
L 226.131584 519.522677 
L 233.312208 519.536019 
L 240.492833 519.5208 
L 247.673457 519.495366 
L 254.854082 519.497718 
L 262.034706 519.527504 
L 269.215331 519.546917 
L 276.395955 519.501099 
L 283.576579 519.450351 
L 290.757204 519.463508 
L 297.937828 519.539163 
L 305.118453 519.605307 
L 312.299077 519.550785 
L 319.479702 519.476525 
L 326.660326 519.488485 
L 333.84095 519.567806 
L 341.021575 519.578272 
L 348.202199 519.500651 
L 355.382824 519.476827 
L 362.563448 519.532537 
L 369.744073 519.586427 
L 376.924697 519.521392 
L 384.105321 519.459243 
L 391.285946 519.485814 
L 398.46657 519.574406 
L 405.647195 519.588761 
L 412.827819 519.482098 
L 420.008444 519.434733 
L 427.189068 519.509066 
L 434.369692 519.624348 
L 441.550317 519.581588 
L 448.730941 519.462849 
L 455.911566 519.455801 
L 463.09219 519.567915 
L 470.272815 519.635036 
L 477.453439 519.528591 
L 484.634063 519.470166 
L 491.814688 519.52486 
L 498.995312 519.6053 
L 506.175937 519.546893 
L 513.356561 519.483668 
L 520.537185 519.504034 
L 527.71781 519.573564 
L 534.898434 519.557108 
L 542.079059 519.484626 
L 549.259683 519.475744 
L 556.440308 519.541829 
L 563.620932 519.592268 
L 570.801556 519.514092 
L 577.982181 519.444404 
L 585.162805 519.478527 
L 592.34343 519.585816 
L 599.524054 519.611029 
L 606.704679 519.488685 
L 613.885303 519.430124 
L 621.065927 519.51051 
L 628.246552 519.637732 
L 635.427176 519.588708 
L 642.607801 519.475592 
L 649.788425 519.476792 
L 656.96905 519.58123 
L 664.149674 519.608407 
L 671.330298 519.514762 
L 678.510923 519.484368 
L 685.691547 519.543562 
L 692.872172 519.589709 
L 700.052796 519.521324 
L 707.233421 519.479041 
L 714.414045 519.514624 
L 721.594669 519.579064 
L 728.775294 519.54493 
L 735.955918 519.468768 
L 743.136543 519.46752 
L 750.317167 519.548094 
L 757.497792 519.609436 
L 764.678416 519.519266 
L 771.85904 519.43125 
L 779.039665 519.466957 
L 786.220289 519.595963 
L 793.400914 519.637095 
L 800.581538 519.504996 
L 807.762163 519.441338 
L 814.942787 519.522534 
L 822.123411 519.641114 
L 829.304036 519.586651 
L 836.48466 519.529618 
L 843.665285 519.538008 
L 850.845909 519.553046 
" clip-path="url(#p6bcd6ea3a9)" style="fill: none; stroke: #d0e1f2; stroke-width: 1.5; stroke-linecap: square"/>
   </g>
   <g id="line2d_19">
    <path d="M 139.964091 101.811376 
L 147.144715 102.008877 
L 154.32534 102.206301 
L 161.505964 102.40365 
L 168.686589 102.600923 
L 175.867213 102.798121 
L 183.047837 102.995242 
L 190.228462 103.192288 
L 197.409086 103.389258 
L 204.589711 103.586152 
L 211.770335 103.78297 
L 218.95096 103.979713 
L 226.131584 104.17638 
L 233.312208 104.372972 
L 240.492833 104.569488 
L 247.673457 104.765929 
L 254.854082 104.962294 
L 262.034706 105.158583 
L 269.215331 105.354798 
L 276.395955 105.550936 
L 283.576579 105.747 
L 290.757204 105.942988 
L 297.937828 106.1389 
L 305.118453 106.334738 
L 312.299077 106.5305 
L 319.479702 106.726187 
L 326.660326 106.921798 
L 333.84095 107.117335 
L 341.021575 107.312796 
L 348.202199 107.508182 
L 355.382824 107.703493 
L 362.563448 107.898729 
L 369.744073 108.09389 
L 376.924697 108.288976 
L 384.105321 108.483987 
L 391.285946 108.678923 
L 398.46657 108.873784 
L 405.647195 109.06857 
L 412.827819 109.263282 
L 420.008444 109.457918 
L 427.189068 109.65248 
L 434.369692 109.846967 
L 441.550317 110.041379 
L 448.730941 110.235716 
L 455.911566 110.429979 
L 463.09219 110.624167 
L 470.272815 110.81828 
L 477.453439 111.012319 
L 484.634063 111.206283 
L 491.814688 111.400173 
L 498.995312 111.593988 
L 506.175937 111.787729 
L 513.356561 111.981395 
L 520.537185 112.174987 
L 527.71781 112.368504 
L 534.898434 112.561947 
L 542.079059 112.755316 
L 549.259683 112.94861 
L 556.440308 113.14183 
L 563.620932 113.334976 
L 570.801556 113.528047 
L 577.982181 113.721044 
L 585.162805 113.913967 
L 592.34343 114.106816 
L 599.524054 114.299591 
L 606.704679 114.492292 
L 613.885303 114.684919 
L 621.065927 114.877471 
L 628.246552 115.06995 
L 635.427176 115.262354 
L 642.607801 115.454685 
L 649.788425 115.646942 
L 656.96905 115.839125 
L 664.149674 116.031234 
L 671.330298 116.223269 
L 678.510923 116.41523 
L 685.691547 116.607118 
L 692.872172 116.798932 
L 700.052796 116.990672 
L 707.233421 117.182338 
L 714.414045 117.373931 
L 721.594669 117.56545 
L 728.775294 117.756895 
L 735.955918 117.948267 
L 743.136543 118.139565 
L 750.317167 118.33079 
L 757.497792 118.521942 
L 764.678416 118.713019 
L 771.85904 118.904024 
L 779.039665 119.094955 
L 786.220289 119.285812 
L 793.400914 119.476597 
L 800.581538 119.667307 
L 807.762163 119.857945 
L 814.942787 120.048509 
L 822.123411 120.239 
L 829.304036 120.429418 
L 836.48466 120.619763 
L 843.665285 120.810034 
L 850.845909 121.000233 
" clip-path="url(#p6bcd6ea3a9)" style="fill: none; stroke: #fdd9b4; stroke-width: 1.5; stroke-linecap: square"/>
   </g>
   <g id="line2d_20">
    <path d="M 139.964091 615.310909 
L 147.144715 613.388642 
L 154.32534 611.466198 
L 161.505964 609.543643 
L 168.686589 607.620981 
L 175.867213 605.698249 
L 183.047837 603.775481 
L 190.228462 601.852693 
L 197.409086 599.929903 
L 204.589711 598.007105 
L 211.770335 596.084295 
L 218.95096 594.161481 
L 226.131584 592.238676 
L 233.312208 590.315876 
L 240.492833 588.393071 
L 247.673457 586.470258 
L 254.854082 584.547441 
L 262.034706 582.624626 
L 269.215331 580.701828 
L 276.395955 578.779052 
L 283.576579 576.856275 
L 290.757204 574.933482 
L 297.937828 573.010673 
L 305.118453 571.08786 
L 312.299077 569.165072 
L 319.479702 567.24235 
L 326.660326 565.319711 
L 333.84095 563.397124 
L 341.021575 561.474601 
L 348.202199 559.552181 
L 355.382824 557.629936 
L 362.563448 555.707941 
L 369.744073 553.786243 
L 376.924697 551.864931 
L 384.105321 549.944136 
L 391.285946 548.024033 
L 398.46657 546.104841 
L 405.647195 544.186795 
L 412.827819 542.270175 
L 420.008444 540.355366 
L 427.189068 538.442858 
L 434.369692 536.533248 
L 441.550317 534.627241 
L 448.730941 532.725631 
L 455.911566 530.829366 
L 463.09219 528.939594 
L 470.272815 527.057672 
L 477.453439 525.185159 
L 484.634063 523.32379 
L 491.814688 521.475526 
L 498.995312 519.642551 
L 506.175937 517.827275 
L 513.356561 516.032311 
L 520.537185 514.260389 
L 527.71781 512.514389 
L 534.898434 510.797183 
L 542.079059 509.111618 
L 549.259683 507.460506 
L 556.440308 505.846464 
L 563.620932 504.271865 
L 570.801556 502.73876 
L 577.982181 501.248817 
L 585.162805 499.803318 
L 592.34343 498.403158 
L 599.524054 497.048813 
L 606.704679 495.74033 
L 613.885303 494.477431 
L 621.065927 493.259537 
L 628.246552 492.085756 
L 635.427176 490.954954 
L 642.607801 489.865847 
L 649.788425 488.81701 
L 656.96905 487.806946 
L 664.149674 486.834088 
L 671.330298 485.896809 
L 678.510923 484.993509 
L 685.691547 484.122602 
L 692.872172 483.282541 
L 700.052796 482.471826 
L 707.233421 481.688998 
L 714.414045 480.932645 
L 721.594669 480.201416 
L 728.775294 479.494057 
L 735.955918 478.809378 
L 743.136543 478.14624 
L 750.317167 477.50356 
L 757.497792 476.880306 
L 764.678416 476.275499 
L 771.85904 475.688234 
L 779.039665 475.117682 
L 786.220289 474.563054 
L 793.400914 474.023594 
L 800.581538 473.498582 
L 807.762163 472.987329 
L 814.942787 472.489203 
L 822.123411 472.003633 
L 829.304036 471.530072 
L 836.48466 471.067991 
L 843.665285 470.616886 
L 850.845909 470.17628 
" clip-path="url(#p6bcd6ea3a9)" style="fill: none; stroke: #79b5d9; stroke-width: 1.5; stroke-linecap: square"/>
   </g>
   <g id="line2d_21">
    <path d="M 139.964091 101.811376 
L 147.144715 93.029812 
L 154.32534 87.781811 
L 161.505964 85.536598 
L 168.686589 84.291564 
L 175.867213 83.179464 
L 183.047837 82.61128 
L 190.228462 82.315351 
L 197.409086 82.038193 
L 204.589711 81.884558 
L 211.770335 81.890606 
L 218.95096 81.959269 
L 226.131584 81.897273 
L 233.312208 81.769955 
L 240.492833 81.707124 
L 247.673457 81.754336 
L 254.854082 81.882161 
L 262.034706 81.986186 
L 269.215331 81.874772 
L 276.395955 81.501984 
L 283.576579 81.201445 
L 290.757204 81.189174 
L 297.937828 81.518031 
L 305.118453 82.077716 
L 312.299077 82.594771 
L 319.479702 82.632579 
L 326.660326 82.152779 
L 333.84095 81.822404 
L 341.021575 81.838146 
L 348.202199 82.115854 
L 355.382824 82.291189 
L 362.563448 82.121207 
L 369.744073 82.015055 
L 376.924697 82.089592 
L 384.105321 82.320288 
L 391.285946 82.545162 
L 398.46657 82.524293 
L 405.647195 82.457721 
L 412.827819 82.666797 
L 420.008444 83.264012 
L 427.189068 84.150506 
L 434.369692 85.016062 
L 441.550317 85.461714 
L 448.730941 85.913942 
L 455.911566 86.798785 
L 463.09219 88.179576 
L 470.272815 89.787112 
L 477.453439 91.123712 
L 484.634063 92.460802 
L 491.814688 94.19685 
L 498.995312 96.381433 
L 506.175937 98.741127 
L 513.356561 100.774863 
L 520.537185 102.693859 
L 527.71781 104.785117 
L 534.898434 107.085925 
L 542.079059 109.431071 
L 549.259683 111.46476 
L 556.440308 113.2601 
L 563.620932 114.976627 
L 570.801556 116.589411 
L 577.982181 118.081514 
L 585.162805 119.443997 
L 592.34343 120.68645 
L 599.524054 121.881214 
L 606.704679 122.91952 
L 613.885303 123.741057 
L 621.065927 124.39427 
L 628.246552 125.03636 
L 635.427176 125.787009 
L 642.607801 126.462567 
L 649.788425 126.962559 
L 656.96905 127.294727 
L 664.149674 127.574454 
L 671.330298 128.008787 
L 678.510923 128.568257 
L 685.691547 129.013264 
L 692.872172 129.222146 
L 700.052796 129.204869 
L 707.233421 129.103028 
L 714.414045 129.189845 
L 721.594669 129.722411 
L 728.775294 130.349145 
L 735.955918 130.694952 
L 743.136543 130.615115 
L 750.317167 130.195157 
L 757.497792 129.750841 
L 764.678416 129.827188 
L 771.85904 130.512902 
L 779.039665 131.105517 
L 786.220289 131.261455 
L 793.400914 130.947166 
L 800.581538 130.439123 
L 807.762163 130.323826 
L 814.942787 130.826923 
L 822.123411 131.24293 
L 829.304036 131.360325 
L 836.48466 131.191623 
L 843.665285 130.970764 
L 850.845909 131.08503 
" clip-path="url(#p6bcd6ea3a9)" style="fill: none; stroke: #fd9649; stroke-width: 1.5; stroke-linecap: square"/>
   </g>
   <g id="line2d_22">
    <path d="M 139.964091 615.310909 
L 147.144715 613.375618 
L 154.32534 611.440305 
L 161.505964 609.504973 
L 168.686589 607.569631 
L 175.867213 605.634286 
L 183.047837 603.698938 
L 190.228462 601.763585 
L 197.409086 599.828228 
L 204.589711 597.892872 
L 211.770335 595.957518 
L 218.95096 594.022165 
L 226.131584 592.086809 
L 233.312208 590.151451 
L 240.492833 588.216091 
L 247.673457 586.280733 
L 254.854082 584.345381 
L 262.034706 582.410035 
L 269.215331 580.474689 
L 276.395955 578.539341 
L 283.576579 576.603991 
L 290.757204 574.668641 
L 297.937828 572.733301 
L 305.118453 570.79798 
L 312.299077 568.862695 
L 319.479702 566.927456 
L 326.660326 564.992267 
L 333.84095 563.057141 
L 341.021575 561.122109 
L 348.202199 559.187216 
L 355.382824 557.25252 
L 362.563448 555.318098 
L 369.744073 553.384027 
L 376.924697 551.45041 
L 384.105321 549.517392 
L 391.285946 547.585169 
L 398.46657 545.653982 
L 405.647195 543.724124 
L 412.827819 541.795967 
L 420.008444 539.869921 
L 427.189068 537.946517 
L 434.369692 536.026431 
L 441.550317 534.110478 
L 448.730941 532.199618 
L 455.911566 530.294954 
L 463.09219 528.397784 
L 470.272815 526.509635 
L 477.453439 524.632249 
L 484.634063 522.7676 
L 491.814688 520.917888 
L 498.995312 519.08554 
L 506.175937 517.273215 
L 513.356561 515.483754 
L 520.537185 513.720076 
L 527.71781 511.98525 
L 534.898434 510.282251 
L 542.079059 508.613937 
L 549.259683 506.983043 
L 556.440308 505.392158 
L 563.620932 503.843442 
L 570.801556 502.338688 
L 577.982181 500.879276 
L 585.162805 499.466162 
L 592.34343 498.099872 
L 599.524054 496.780518 
L 606.704679 495.507839 
L 613.885303 494.281127 
L 621.065927 493.099461 
L 628.246552 491.961735 
L 635.427176 490.866657 
L 642.607801 489.812752 
L 649.788425 488.79838 
L 656.96905 487.821921 
L 664.149674 486.881688 
L 671.330298 485.976005 
L 678.510923 485.103241 
L 685.691547 484.261805 
L 692.872172 483.450151 
L 700.052796 482.666774 
L 707.233421 481.910219 
L 714.414045 481.17911 
L 721.594669 480.472135 
L 728.775294 479.788054 
L 735.955918 479.125699 
L 743.136543 478.483971 
L 750.317167 477.861841 
L 757.497792 477.258317 
L 764.678416 476.672473 
L 771.85904 476.103438 
L 779.039665 475.550395 
L 786.220289 475.01258 
L 793.400914 474.489282 
L 800.581538 473.979817 
L 807.762163 473.483547 
L 814.942787 472.999867 
L 822.123411 472.528211 
L 829.304036 472.068047 
L 836.48466 471.618881 
L 843.665285 471.180249 
L 850.845909 470.751701 
" clip-path="url(#p6bcd6ea3a9)" style="fill: none; stroke: #2575b7; stroke-width: 1.5; stroke-linecap: square"/>
   </g>
   <g id="line2d_23">
    <path d="M 139.964091 101.811376 
L 147.144715 103.804833 
L 154.32534 105.077303 
L 161.505964 105.712244 
L 168.686589 106.007719 
L 175.867213 106.341647 
L 183.047837 106.583735 
L 190.228462 106.681276 
L 197.409086 106.674028 
L 204.589711 106.683355 
L 211.770335 106.777713 
L 218.95096 106.862159 
L 226.131584 106.887731 
L 233.312208 106.844123 
L 240.492833 106.759691 
L 247.673457 106.701449 
L 254.854082 106.777823 
L 262.034706 106.995171 
L 269.215331 107.192843 
L 276.395955 107.260693 
L 283.576579 107.153037 
L 290.757204 106.888656 
L 297.937828 106.550789 
L 305.118453 106.287143 
L 312.299077 106.309884 
L 319.479702 106.629316 
L 326.660326 106.911945 
L 333.84095 106.999043 
L 341.021575 106.861583 
L 348.202199 106.600234 
L 355.382824 106.445367 
L 362.563448 106.617267 
L 369.744073 106.834134 
L 376.924697 106.942021 
L 384.105321 106.893193 
L 391.285946 106.72852 
L 398.46657 106.577472 
L 405.647195 106.641576 
L 412.827819 106.866911 
L 420.008444 107.050191 
L 427.189068 107.082374 
L 434.369692 106.939803 
L 441.550317 106.684203 
L 448.730941 106.462683 
L 455.911566 106.506198 
L 463.09219 106.883991 
L 470.272815 107.270425 
L 477.453439 107.423085 
L 484.634063 107.246719 
L 491.814688 106.793227 
L 498.995312 106.26167 
L 506.175937 105.998265 
L 513.356561 106.328536 
L 520.537185 106.753979 
L 527.71781 106.972653 
L 534.898434 106.899039 
L 542.079059 106.618458 
L 549.259683 106.387061 
L 556.440308 106.532417 
L 563.620932 106.770107 
L 570.801556 106.901781 
L 577.982181 106.873252 
L 585.162805 106.724136 
L 592.34343 106.587856 
L 599.524054 106.663121 
L 606.704679 106.86049 
L 613.885303 107.005609 
L 621.065927 107.014649 
L 628.246552 106.87899 
L 635.427176 106.665216 
L 642.607801 106.515118 
L 649.788425 106.634 
L 656.96905 106.985025 
L 664.149674 107.28496 
L 671.330298 107.355455 
L 678.510923 107.141627 
L 685.691547 106.712058 
L 692.872172 106.258798 
L 700.052796 106.097361 
L 707.233421 106.444496 
L 714.414045 106.825425 
L 721.594669 106.997699 
L 728.775294 106.895107 
L 735.955918 106.610281 
L 743.136543 106.394694 
L 750.317167 106.550719 
L 757.497792 106.790657 
L 764.678416 106.922041 
L 771.85904 106.888177 
L 779.039665 106.72792 
L 786.220289 106.575674 
L 793.400914 106.640608 
L 800.581538 106.851715 
L 807.762163 107.015627 
L 814.942787 107.036446 
L 822.123411 106.899134 
L 829.304036 106.669508 
L 836.48466 106.494247 
L 843.665285 106.562729 
L 850.845909 106.6638 
" clip-path="url(#p6bcd6ea3a9)" style="fill: none; stroke: #dc4c03; stroke-width: 1.5; stroke-linecap: square"/>
   </g>
   <g id="line2d_24">
    <path d="M 139.964091 615.310909 
L 147.144715 613.382641 
L 154.32534 611.454892 
L 161.505964 609.527662 
L 168.686589 607.60095 
L 175.867213 605.674756 
L 183.047837 603.749081 
L 190.228462 601.823924 
L 197.409086 599.899284 
L 204.589711 597.975163 
L 211.770335 596.051559 
L 218.95096 594.128472 
L 226.131584 592.205903 
L 233.312208 590.283852 
L 240.492833 588.362317 
L 247.673457 586.4413 
L 254.854082 584.5208 
L 262.034706 582.600818 
L 269.215331 580.681354 
L 276.395955 578.76241 
L 283.576579 576.843985 
L 290.757204 574.926082 
L 297.937828 573.008705 
L 305.118453 571.091859 
L 312.299077 569.175553 
L 319.479702 567.259794 
L 326.660326 565.344598 
L 333.84095 563.429983 
L 341.021575 561.515974 
L 348.202199 559.602608 
L 355.382824 557.68993 
L 362.563448 555.778003 
L 369.744073 553.866901 
L 376.924697 551.956725 
L 384.105321 550.047606 
L 391.285946 548.139709 
L 398.46657 546.23324 
L 405.647195 544.328452 
L 412.827819 542.425648 
L 420.008444 540.525221 
L 427.189068 538.627656 
L 434.369692 536.73353 
L 441.550317 534.843519 
L 448.730941 532.958444 
L 455.911566 531.079269 
L 463.09219 529.207138 
L 470.272815 527.343377 
L 477.453439 525.489497 
L 484.634063 523.647223 
L 491.814688 521.818505 
L 498.995312 520.00549 
L 506.175937 518.210522 
L 513.356561 516.436134 
L 520.537185 514.684995 
L 527.71781 512.959925 
L 534.898434 511.263725 
L 542.079059 509.599149 
L 549.259683 507.968905 
L 556.440308 506.375537 
L 563.620932 504.821347 
L 570.801556 503.308322 
L 577.982181 501.83808 
L 585.162805 500.411867 
L 592.34343 499.030558 
L 599.524054 497.694625 
L 606.704679 496.404109 
L 613.885303 495.158745 
L 621.065927 493.957986 
L 628.246552 492.800998 
L 635.427176 491.686675 
L 642.607801 490.613775 
L 649.788425 489.580898 
L 656.96905 488.58658 
L 664.149674 487.629308 
L 671.330298 486.707522 
L 678.510923 485.819628 
L 685.691547 484.964074 
L 692.872172 484.139332 
L 700.052796 483.343922 
L 707.233421 482.576412 
L 714.414045 481.835425 
L 721.594669 481.119633 
L 728.775294 480.427779 
L 735.955918 479.758672 
L 743.136543 479.111181 
L 750.317167 478.48423 
L 757.497792 477.876807 
L 764.678416 477.287954 
L 771.85904 476.716771 
L 779.039665 476.162411 
L 786.220289 475.624075 
L 793.400914 475.101005 
L 800.581538 474.592493 
L 807.762163 474.097871 
L 814.942787 473.61651 
L 822.123411 473.147819 
L 829.304036 472.691239 
L 836.48466 472.246243 
L 843.665285 471.812333 
L 850.845909 471.389042 
" clip-path="url(#p6bcd6ea3a9)" style="fill: none; stroke: #08306b; stroke-width: 1.5; stroke-linecap: square"/>
   </g>
   <g id="line2d_25">
    <path d="M 139.964091 101.811376 
L 147.144715 92.760782 
L 154.32534 87.407676 
L 161.505964 85.090743 
L 168.686589 83.737223 
L 175.867213 82.592114 
L 183.047837 82.012472 
L 190.228462 81.705361 
L 197.409086 81.419287 
L 204.589711 81.265138 
L 211.770335 81.272062 
L 218.95096 81.334848 
L 226.131584 81.262885 
L 233.312208 81.13932 
L 240.492833 81.084469 
L 247.673457 81.137077 
L 254.854082 81.262645 
L 262.034706 81.35343 
L 269.215331 81.217759 
L 276.395955 80.858178 
L 283.576579 80.591559 
L 290.757204 80.60755 
L 297.937828 80.942711 
L 305.118453 81.480515 
L 312.299077 81.951345 
L 319.479702 81.932924 
L 326.660326 81.466196 
L 333.84095 81.159635 
L 341.021575 81.197405 
L 348.202199 81.491196 
L 355.382824 81.68023 
L 362.563448 81.503452 
L 369.744073 81.380811 
L 376.924697 81.44907 
L 384.105321 81.692979 
L 391.285946 81.951044 
L 398.46657 81.959001 
L 405.647195 81.871919 
L 412.827819 82.042676 
L 420.008444 82.611851 
L 427.189068 83.499857 
L 434.369692 84.406944 
L 441.550317 84.89561 
L 448.730941 85.323074 
L 455.911566 86.16604 
L 463.09219 87.522604 
L 470.272815 89.1512 
L 477.453439 90.531435 
L 484.634063 91.838002 
L 491.814688 93.529954 
L 498.995312 95.6999 
L 506.175937 98.100796 
L 513.356561 100.197655 
L 520.537185 102.109578 
L 527.71781 104.192987 
L 534.898434 106.516744 
L 542.079059 108.92503 
L 549.259683 111.0407 
L 556.440308 112.860529 
L 563.620932 114.611996 
L 570.801556 116.286695 
L 577.982181 117.864756 
L 585.162805 119.314847 
L 592.34343 120.61861 
L 599.524054 121.906724 
L 606.704679 123.032244 
L 613.885303 123.893493 
L 621.065927 124.523697 
L 628.246552 125.09099 
L 635.427176 125.867318 
L 642.607801 126.749987 
L 649.788425 127.432989 
L 656.96905 127.798396 
L 664.149674 127.920038 
L 671.330298 128.063503 
L 678.510923 128.599425 
L 685.691547 129.277405 
L 692.872172 129.738864 
L 700.052796 129.85465 
L 707.233421 129.710078 
L 714.414045 129.604922 
L 721.594669 129.977688 
L 728.775294 130.559382 
L 735.955918 130.939983 
L 743.136543 130.972808 
L 750.317167 130.73748 
L 757.497792 130.539932 
L 764.678416 130.829239 
L 771.85904 131.314156 
L 779.039665 131.611882 
L 786.220289 131.597978 
L 793.400914 131.356203 
L 800.581538 131.178517 
L 807.762163 131.448572 
L 814.942787 131.848265 
L 822.123411 132.067662 
L 829.304036 132.011555 
L 836.48466 131.76716 
L 843.665285 131.60412 
L 850.845909 131.791678 
" clip-path="url(#p6bcd6ea3a9)" style="fill: none; stroke: #7f2704; stroke-width: 1.5; stroke-linecap: square"/>
   </g>
   <g id="patch_3">
    <path d="M 104.42 643.48 
L 104.42 23.76 
" style="fill: none; stroke: #000000; stroke-width: 0.8; stroke-linejoin: miter; stroke-linecap: square"/>
   </g>
   <g id="patch_4">
    <path d="M 886.39 643.48 
L 886.39 23.76 
" style="fill: none; stroke: #000000; stroke-width: 0.8; stroke-linejoin: miter; stroke-linecap: square"/>
   </g>
   <g id="patch_5">
    <path d="M 104.42 643.48 
L 886.39 643.48 
" style="fill: none; stroke: #000000; stroke-width: 0.8; stroke-linejoin: miter; stroke-linecap: square"/>
   </g>
   <g id="patch_6">
    <path d="M 104.42 23.76 
L 886.39 23.76 
" style="fill: none; stroke: #000000; stroke-width: 0.8; stroke-linejoin: miter; stroke-linecap: square"/>
   </g>
   <g id="legend_1">
    <g id="patch_7">
     <path d="M 901.79 364.27875 
L 1051.867813 364.27875 
Q 1056.267813 364.27875 1056.267813 359.87875 
L 1056.267813 39.16 
Q 1056.267813 34.76 1051.867813 34.76 
L 901.79 34.76 
Q 897.39 34.76 897.39 39.16 
L 897.39 359.87875 
Q 897.39 364.27875 901.79 364.27875 
z
" style="fill: #ffffff; opacity: 0.8; stroke: #cccccc; stroke-linejoin: miter"/>
    </g>
    <g id="PathCollection_3">
     <g>
      <use xlink:href="#m80f1702e56" x="928.19" y="54.501563" style="fill: #1f77b4; stroke: #1f77b4"/>
     </g>
    </g>
    <g id="text_20">
     <!-- Xi -->
     <g transform="translate(967.79 60.276563) scale(0.22 -0.22)">
      <use xlink:href="#DejaVuSans-58"/>
      <use xlink:href="#DejaVuSans-69" x="68.505859"/>
     </g>
    </g>
    <g id="PathCollection_4">
     <g>
      <use xlink:href="#m62fcbac0dc" x="928.19" y="86.793438" style="fill: #ff7f0e; stroke: #ff7f0e"/>
     </g>
    </g>
    <g id="text_21">
     <!-- Xa -->
     <g transform="translate(967.79 92.568438) scale(0.22 -0.22)">
      <use xlink:href="#DejaVuSans-58"/>
      <use xlink:href="#DejaVuSans-61" x="68.505859"/>
     </g>
    </g>
    <g id="line2d_26">
     <path d="M 906.19 117.160313 
L 928.19 117.160313 
L 950.19 117.160313 
" style="fill: none; stroke: #d0e1f2; stroke-width: 1.5; stroke-linecap: square"/>
    </g>
    <g id="text_22">
     <!-- Xi-AAII -->
     <g transform="translate(967.79 124.860313) scale(0.22 -0.22)">
      <defs>
       <path id="DejaVuSans-2d" d="M 313 2009 
L 1997 2009 
L 1997 1497 
L 313 1497 
L 313 2009 
z
" transform="scale(0.015625)"/>
       <path id="DejaVuSans-49" d="M 628 4666 
L 1259 4666 
L 1259 0 
L 628 0 
L 628 4666 
z
" transform="scale(0.015625)"/>
      </defs>
      <use xlink:href="#DejaVuSans-58"/>
      <use xlink:href="#DejaVuSans-69" x="68.505859"/>
      <use xlink:href="#DejaVuSans-2d" x="96.289062"/>
      <use xlink:href="#DejaVuSans-41" x="130.123047"/>
      <use xlink:href="#DejaVuSans-41" x="201.28125"/>
      <use xlink:href="#DejaVuSans-49" x="269.689453"/>
      <use xlink:href="#DejaVuSans-49" x="299.181641"/>
     </g>
    </g>
    <g id="line2d_27">
     <path d="M 906.19 149.452188 
L 928.19 149.452188 
L 950.19 149.452188 
" style="fill: none; stroke: #fdd9b4; stroke-width: 1.5; stroke-linecap: square"/>
    </g>
    <g id="text_23">
     <!-- Xa-AAII -->
     <g transform="translate(967.79 157.152188) scale(0.22 -0.22)">
      <use xlink:href="#DejaVuSans-58"/>
      <use xlink:href="#DejaVuSans-61" x="68.505859"/>
      <use xlink:href="#DejaVuSans-2d" x="129.785156"/>
      <use xlink:href="#DejaVuSans-41" x="163.619141"/>
      <use xlink:href="#DejaVuSans-41" x="234.777344"/>
      <use xlink:href="#DejaVuSans-49" x="303.185547"/>
      <use xlink:href="#DejaVuSans-49" x="332.677734"/>
     </g>
    </g>
    <g id="line2d_28">
     <path d="M 906.19 181.744063 
L 928.19 181.744063 
L 950.19 181.744063 
" style="fill: none; stroke: #79b5d9; stroke-width: 1.5; stroke-linecap: square"/>
    </g>
    <g id="text_24">
     <!-- Xi-AIII -->
     <g transform="translate(967.79 189.444063) scale(0.22 -0.22)">
      <use xlink:href="#DejaVuSans-58"/>
      <use xlink:href="#DejaVuSans-69" x="68.505859"/>
      <use xlink:href="#DejaVuSans-2d" x="96.289062"/>
      <use xlink:href="#DejaVuSans-41" x="130.123047"/>
      <use xlink:href="#DejaVuSans-49" x="198.53125"/>
      <use xlink:href="#DejaVuSans-49" x="228.023438"/>
      <use xlink:href="#DejaVuSans-49" x="257.515625"/>
     </g>
    </g>
    <g id="line2d_29">
     <path d="M 906.19 214.035938 
L 928.19 214.035938 
L 950.19 214.035938 
" style="fill: none; stroke: #fd9649; stroke-width: 1.5; stroke-linecap: square"/>
    </g>
    <g id="text_25">
     <!-- Xa-AIII -->
     <g transform="translate(967.79 221.735938) scale(0.22 -0.22)">
      <use xlink:href="#DejaVuSans-58"/>
      <use xlink:href="#DejaVuSans-61" x="68.505859"/>
      <use xlink:href="#DejaVuSans-2d" x="129.785156"/>
      <use xlink:href="#DejaVuSans-41" x="163.619141"/>
      <use xlink:href="#DejaVuSans-49" x="232.027344"/>
      <use xlink:href="#DejaVuSans-49" x="261.519531"/>
      <use xlink:href="#DejaVuSans-49" x="291.011719"/>
     </g>
    </g>
    <g id="line2d_30">
     <path d="M 906.19 246.327813 
L 928.19 246.327813 
L 950.19 246.327813 
" style="fill: none; stroke: #2575b7; stroke-width: 1.5; stroke-linecap: square"/>
    </g>
    <g id="text_26">
     <!-- Xi-IAII -->
     <g transform="translate(967.79 254.027813) scale(0.22 -0.22)">
      <use xlink:href="#DejaVuSans-58"/>
      <use xlink:href="#DejaVuSans-69" x="68.505859"/>
      <use xlink:href="#DejaVuSans-2d" x="96.289062"/>
      <use xlink:href="#DejaVuSans-49" x="132.373047"/>
      <use xlink:href="#DejaVuSans-41" x="161.865234"/>
      <use xlink:href="#DejaVuSans-49" x="230.273438"/>
      <use xlink:href="#DejaVuSans-49" x="259.765625"/>
     </g>
    </g>
    <g id="line2d_31">
     <path d="M 906.19 278.619688 
L 928.19 278.619688 
L 950.19 278.619688 
" style="fill: none; stroke: #dc4c03; stroke-width: 1.5; stroke-linecap: square"/>
    </g>
    <g id="text_27">
     <!-- Xa-IAII -->
     <g transform="translate(967.79 286.319688) scale(0.22 -0.22)">
      <use xlink:href="#DejaVuSans-58"/>
      <use xlink:href="#DejaVuSans-61" x="68.505859"/>
      <use xlink:href="#DejaVuSans-2d" x="129.785156"/>
      <use xlink:href="#DejaVuSans-49" x="165.869141"/>
      <use xlink:href="#DejaVuSans-41" x="195.361328"/>
      <use xlink:href="#DejaVuSans-49" x="263.769531"/>
      <use xlink:href="#DejaVuSans-49" x="293.261719"/>
     </g>
    </g>
    <g id="line2d_32">
     <path d="M 906.19 310.911563 
L 928.19 310.911563 
L 950.19 310.911563 
" style="fill: none; stroke: #08306b; stroke-width: 1.5; stroke-linecap: square"/>
    </g>
    <g id="text_28">
     <!-- Xi-IIII -->
     <g transform="translate(967.79 318.611563) scale(0.22 -0.22)">
      <use xlink:href="#DejaVuSans-58"/>
      <use xlink:href="#DejaVuSans-69" x="68.505859"/>
      <use xlink:href="#DejaVuSans-2d" x="96.289062"/>
      <use xlink:href="#DejaVuSans-49" x="132.373047"/>
      <use xlink:href="#DejaVuSans-49" x="161.865234"/>
      <use xlink:href="#DejaVuSans-49" x="191.357422"/>
      <use xlink:href="#DejaVuSans-49" x="220.849609"/>
     </g>
    </g>
    <g id="line2d_33">
     <path d="M 906.19 343.203438 
L 928.19 343.203438 
L 950.19 343.203438 
" style="fill: none; stroke: #7f2704; stroke-width: 1.5; stroke-linecap: square"/>
    </g>
    <g id="text_29">
     <!-- Xa-IIII -->
     <g transform="translate(967.79 350.903438) scale(0.22 -0.22)">
      <use xlink:href="#DejaVuSans-58"/>
      <use xlink:href="#DejaVuSans-61" x="68.505859"/>
      <use xlink:href="#DejaVuSans-2d" x="129.785156"/>
      <use xlink:href="#DejaVuSans-49" x="165.869141"/>
      <use xlink:href="#DejaVuSans-49" x="195.361328"/>
      <use xlink:href="#DejaVuSans-49" x="224.853516"/>
      <use xlink:href="#DejaVuSans-49" x="254.345703"/>
     </g>
    </g>
   </g>
  </g>
 </g>
 <defs>
  <clipPath id="p6bcd6ea3a9">
   <rect x="104.42" y="23.76" width="781.97" height="619.72"/>
  </clipPath>
 </defs>
</svg>
