<?xml version="1.0" encoding="utf-8" standalone="no"?>
<!DOCTYPE svg PUBLIC "-//W3C//DTD SVG 1.1//EN"
  "http://www.w3.org/Graphics/SVG/1.1/DTD/svg11.dtd">
<svg xmlns:xlink="http://www.w3.org/1999/xlink" width="1080pt" height="720pt" viewBox="0 0 1080 720" xmlns="http://www.w3.org/2000/svg" version="1.1">
 <metadata>
  <rdf:RDF xmlns:dc="http://purl.org/dc/elements/1.1/" xmlns:cc="http://creativecommons.org/ns#" xmlns:rdf="http://www.w3.org/1999/02/22-rdf-syntax-ns#">
   <cc:Work>
    <dc:type rdf:resource="http://purl.org/dc/dcmitype/StillImage"/>
    <dc:date>2023-01-10T19:25:24.527951</dc:date>
    <dc:format>image/svg+xml</dc:format>
    <dc:creator>
     <cc:Agent>
      <dc:title>Matplotlib v3.6.2, https://matplotlib.org/</dc:title>
     </cc:Agent>
    </dc:creator>
   </cc:Work>
  </rdf:RDF>
 </metadata>
 <defs>
  <style type="text/css">*{stroke-linejoin: round; stroke-linecap: butt}</style>
 </defs>
 <g id="figure_1">
  <g id="patch_1">
   <path d="M 0 720 
L 1080 720 
L 1080 0 
L 0 0 
z
" style="fill: #ffffff"/>
  </g>
  <g id="axes_1">
   <g id="patch_2">
    <path d="M 135 640.8 
L 972 640.8 
L 972 86.4 
L 135 86.4 
z
" style="fill: #ffffff"/>
   </g>
   <g id="PathCollection_1">
    <defs>
     <path id="m80f1702e56" d="M 0 3 
C 0.795609 3 1.55874 2.683901 2.12132 2.12132 
C 2.683901 1.55874 3 0.795609 3 0 
C 3 -0.795609 2.683901 -1.55874 2.12132 -2.12132 
C 1.55874 -2.683901 0.795609 -3 0 -3 
C -0.795609 -3 -1.55874 -2.683901 -2.12132 -2.12132 
C -2.683901 -1.55874 -3 -0.795609 -3 0 
C -3 0.795609 -2.683901 1.55874 -2.12132 2.12132 
C -1.55874 2.683901 -0.795609 3 0 3 
z
" style="stroke: #1f77b4"/>
    </defs>
    <g clip-path="url(#p294e5309c2)">
     <use xlink:href="#m80f1702e56" x="173.045455" y="615.6" style="fill: #1f77b4; stroke: #1f77b4"/>
     <use xlink:href="#m80f1702e56" x="268.159091" y="584.907945" style="fill: #1f77b4; stroke: #1f77b4"/>
     <use xlink:href="#m80f1702e56" x="363.272727" y="574.503077" style="fill: #1f77b4; stroke: #1f77b4"/>
     <use xlink:href="#m80f1702e56" x="458.386364" y="572.397655" style="fill: #1f77b4; stroke: #1f77b4"/>
     <use xlink:href="#m80f1702e56" x="553.5" y="533.008677" style="fill: #1f77b4; stroke: #1f77b4"/>
     <use xlink:href="#m80f1702e56" x="648.613636" y="493.6197" style="fill: #1f77b4; stroke: #1f77b4"/>
     <use xlink:href="#m80f1702e56" x="743.727273" y="282.013022" style="fill: #1f77b4; stroke: #1f77b4"/>
     <use xlink:href="#m80f1702e56" x="838.840909" y="282.013022" style="fill: #1f77b4; stroke: #1f77b4"/>
     <use xlink:href="#m80f1702e56" x="933.954545" y="282.013022" style="fill: #1f77b4; stroke: #1f77b4"/>
    </g>
   </g>
   <g id="PathCollection_2">
    <defs>
     <path id="m62fcbac0dc" d="M 0 3 
C 0.795609 3 1.55874 2.683901 2.12132 2.12132 
C 2.683901 1.55874 3 0.795609 3 0 
C 3 -0.795609 2.683901 -1.55874 2.12132 -2.12132 
C 1.55874 -2.683901 0.795609 -3 0 -3 
C -0.795609 -3 -1.55874 -2.683901 -2.12132 -2.12132 
C -2.683901 -1.55874 -3 -0.795609 -3 0 
C -3 0.795609 -2.683901 1.55874 -2.12132 2.12132 
C -1.55874 2.683901 -0.795609 3 0 3 
z
" style="stroke: #ff7f0e"/>
    </defs>
    <g clip-path="url(#p294e5309c2)">
     <use xlink:href="#m62fcbac0dc" x="173.045455" y="156.22457" style="fill: #ff7f0e; stroke: #ff7f0e"/>
     <use xlink:href="#m62fcbac0dc" x="268.159091" y="137.482142" style="fill: #ff7f0e; stroke: #ff7f0e"/>
     <use xlink:href="#m62fcbac0dc" x="363.272727" y="166.726691" style="fill: #ff7f0e; stroke: #ff7f0e"/>
     <use xlink:href="#m62fcbac0dc" x="458.386364" y="111.6" style="fill: #ff7f0e; stroke: #ff7f0e"/>
     <use xlink:href="#m62fcbac0dc" x="553.5" y="145.771767" style="fill: #ff7f0e; stroke: #ff7f0e"/>
     <use xlink:href="#m62fcbac0dc" x="648.613636" y="179.943533" style="fill: #ff7f0e; stroke: #ff7f0e"/>
     <use xlink:href="#m62fcbac0dc" x="743.727273" y="307.727781" style="fill: #ff7f0e; stroke: #ff7f0e"/>
     <use xlink:href="#m62fcbac0dc" x="838.840909" y="307.727781" style="fill: #ff7f0e; stroke: #ff7f0e"/>
     <use xlink:href="#m62fcbac0dc" x="933.954545" y="307.727781" style="fill: #ff7f0e; stroke: #ff7f0e"/>
    </g>
   </g>
   <g id="matplotlib.axis_1">
    <g id="xtick_1">
     <g id="line2d_1">
      <defs>
       <path id="m3385fdae1e" d="M 0 0 
L 0 3.5 
" style="stroke: #000000; stroke-width: 0.8"/>
      </defs>
      <g>
       <use xlink:href="#m3385fdae1e" x="173.045455" y="640.8" style="stroke: #000000; stroke-width: 0.8"/>
      </g>
     </g>
     <g id="text_1">
      <!-- 7 -->
      <g transform="translate(166.046705 664.516562) scale(0.22 -0.22)">
       <defs>
        <path id="DejaVuSans-37" d="M 525 4666 
L 3525 4666 
L 3525 4397 
L 1831 0 
L 1172 0 
L 2766 4134 
L 525 4134 
L 525 4666 
z
" transform="scale(0.015625)"/>
       </defs>
       <use xlink:href="#DejaVuSans-37"/>
      </g>
     </g>
    </g>
    <g id="xtick_2">
     <g id="line2d_2">
      <g>
       <use xlink:href="#m3385fdae1e" x="268.159091" y="640.8" style="stroke: #000000; stroke-width: 0.8"/>
      </g>
     </g>
     <g id="text_2">
      <!-- 8 -->
      <g transform="translate(261.160341 664.516562) scale(0.22 -0.22)">
       <defs>
        <path id="DejaVuSans-38" d="M 2034 2216 
Q 1584 2216 1326 1975 
Q 1069 1734 1069 1313 
Q 1069 891 1326 650 
Q 1584 409 2034 409 
Q 2484 409 2743 651 
Q 3003 894 3003 1313 
Q 3003 1734 2745 1975 
Q 2488 2216 2034 2216 
z
M 1403 2484 
Q 997 2584 770 2862 
Q 544 3141 544 3541 
Q 544 4100 942 4425 
Q 1341 4750 2034 4750 
Q 2731 4750 3128 4425 
Q 3525 4100 3525 3541 
Q 3525 3141 3298 2862 
Q 3072 2584 2669 2484 
Q 3125 2378 3379 2068 
Q 3634 1759 3634 1313 
Q 3634 634 3220 271 
Q 2806 -91 2034 -91 
Q 1263 -91 848 271 
Q 434 634 434 1313 
Q 434 1759 690 2068 
Q 947 2378 1403 2484 
z
M 1172 3481 
Q 1172 3119 1398 2916 
Q 1625 2713 2034 2713 
Q 2441 2713 2670 2916 
Q 2900 3119 2900 3481 
Q 2900 3844 2670 4047 
Q 2441 4250 2034 4250 
Q 1625 4250 1398 4047 
Q 1172 3844 1172 3481 
z
" transform="scale(0.015625)"/>
       </defs>
       <use xlink:href="#DejaVuSans-38"/>
      </g>
     </g>
    </g>
    <g id="xtick_3">
     <g id="line2d_3">
      <g>
       <use xlink:href="#m3385fdae1e" x="363.272727" y="640.8" style="stroke: #000000; stroke-width: 0.8"/>
      </g>
     </g>
     <g id="text_3">
      <!-- 9 -->
      <g transform="translate(356.273977 664.516562) scale(0.22 -0.22)">
       <defs>
        <path id="DejaVuSans-39" d="M 703 97 
L 703 672 
Q 941 559 1184 500 
Q 1428 441 1663 441 
Q 2288 441 2617 861 
Q 2947 1281 2994 2138 
Q 2813 1869 2534 1725 
Q 2256 1581 1919 1581 
Q 1219 1581 811 2004 
Q 403 2428 403 3163 
Q 403 3881 828 4315 
Q 1253 4750 1959 4750 
Q 2769 4750 3195 4129 
Q 3622 3509 3622 2328 
Q 3622 1225 3098 567 
Q 2575 -91 1691 -91 
Q 1453 -91 1209 -44 
Q 966 3 703 97 
z
M 1959 2075 
Q 2384 2075 2632 2365 
Q 2881 2656 2881 3163 
Q 2881 3666 2632 3958 
Q 2384 4250 1959 4250 
Q 1534 4250 1286 3958 
Q 1038 3666 1038 3163 
Q 1038 2656 1286 2365 
Q 1534 2075 1959 2075 
z
" transform="scale(0.015625)"/>
       </defs>
       <use xlink:href="#DejaVuSans-39"/>
      </g>
     </g>
    </g>
    <g id="xtick_4">
     <g id="line2d_4">
      <g>
       <use xlink:href="#m3385fdae1e" x="458.386364" y="640.8" style="stroke: #000000; stroke-width: 0.8"/>
      </g>
     </g>
     <g id="text_4">
      <!-- 10 -->
      <g transform="translate(444.388864 664.516562) scale(0.22 -0.22)">
       <defs>
        <path id="DejaVuSans-31" d="M 794 531 
L 1825 531 
L 1825 4091 
L 703 3866 
L 703 4441 
L 1819 4666 
L 2450 4666 
L 2450 531 
L 3481 531 
L 3481 0 
L 794 0 
L 794 531 
z
" transform="scale(0.015625)"/>
        <path id="DejaVuSans-30" d="M 2034 4250 
Q 1547 4250 1301 3770 
Q 1056 3291 1056 2328 
Q 1056 1369 1301 889 
Q 1547 409 2034 409 
Q 2525 409 2770 889 
Q 3016 1369 3016 2328 
Q 3016 3291 2770 3770 
Q 2525 4250 2034 4250 
z
M 2034 4750 
Q 2819 4750 3233 4129 
Q 3647 3509 3647 2328 
Q 3647 1150 3233 529 
Q 2819 -91 2034 -91 
Q 1250 -91 836 529 
Q 422 1150 422 2328 
Q 422 3509 836 4129 
Q 1250 4750 2034 4750 
z
" transform="scale(0.015625)"/>
       </defs>
       <use xlink:href="#DejaVuSans-31"/>
       <use xlink:href="#DejaVuSans-30" x="63.623047"/>
      </g>
     </g>
    </g>
    <g id="xtick_5">
     <g id="line2d_5">
      <g>
       <use xlink:href="#m3385fdae1e" x="553.5" y="640.8" style="stroke: #000000; stroke-width: 0.8"/>
      </g>
     </g>
     <g id="text_5">
      <!-- 11 -->
      <g transform="translate(539.5025 664.516562) scale(0.22 -0.22)">
       <use xlink:href="#DejaVuSans-31"/>
       <use xlink:href="#DejaVuSans-31" x="63.623047"/>
      </g>
     </g>
    </g>
    <g id="xtick_6">
     <g id="line2d_6">
      <g>
       <use xlink:href="#m3385fdae1e" x="648.613636" y="640.8" style="stroke: #000000; stroke-width: 0.8"/>
      </g>
     </g>
     <g id="text_6">
      <!-- 12 -->
      <g transform="translate(634.616136 664.516562) scale(0.22 -0.22)">
       <defs>
        <path id="DejaVuSans-32" d="M 1228 531 
L 3431 531 
L 3431 0 
L 469 0 
L 469 531 
Q 828 903 1448 1529 
Q 2069 2156 2228 2338 
Q 2531 2678 2651 2914 
Q 2772 3150 2772 3378 
Q 2772 3750 2511 3984 
Q 2250 4219 1831 4219 
Q 1534 4219 1204 4116 
Q 875 4013 500 3803 
L 500 4441 
Q 881 4594 1212 4672 
Q 1544 4750 1819 4750 
Q 2544 4750 2975 4387 
Q 3406 4025 3406 3419 
Q 3406 3131 3298 2873 
Q 3191 2616 2906 2266 
Q 2828 2175 2409 1742 
Q 1991 1309 1228 531 
z
" transform="scale(0.015625)"/>
       </defs>
       <use xlink:href="#DejaVuSans-31"/>
       <use xlink:href="#DejaVuSans-32" x="63.623047"/>
      </g>
     </g>
    </g>
    <g id="xtick_7">
     <g id="line2d_7">
      <g>
       <use xlink:href="#m3385fdae1e" x="743.727273" y="640.8" style="stroke: #000000; stroke-width: 0.8"/>
      </g>
     </g>
     <g id="text_7">
      <!-- 13 -->
      <g transform="translate(729.729773 664.516562) scale(0.22 -0.22)">
       <defs>
        <path id="DejaVuSans-33" d="M 2597 2516 
Q 3050 2419 3304 2112 
Q 3559 1806 3559 1356 
Q 3559 666 3084 287 
Q 2609 -91 1734 -91 
Q 1441 -91 1130 -33 
Q 819 25 488 141 
L 488 750 
Q 750 597 1062 519 
Q 1375 441 1716 441 
Q 2309 441 2620 675 
Q 2931 909 2931 1356 
Q 2931 1769 2642 2001 
Q 2353 2234 1838 2234 
L 1294 2234 
L 1294 2753 
L 1863 2753 
Q 2328 2753 2575 2939 
Q 2822 3125 2822 3475 
Q 2822 3834 2567 4026 
Q 2313 4219 1838 4219 
Q 1578 4219 1281 4162 
Q 984 4106 628 3988 
L 628 4550 
Q 988 4650 1302 4700 
Q 1616 4750 1894 4750 
Q 2613 4750 3031 4423 
Q 3450 4097 3450 3541 
Q 3450 3153 3228 2886 
Q 3006 2619 2597 2516 
z
" transform="scale(0.015625)"/>
       </defs>
       <use xlink:href="#DejaVuSans-31"/>
       <use xlink:href="#DejaVuSans-33" x="63.623047"/>
      </g>
     </g>
    </g>
    <g id="xtick_8">
     <g id="line2d_8">
      <g>
       <use xlink:href="#m3385fdae1e" x="838.840909" y="640.8" style="stroke: #000000; stroke-width: 0.8"/>
      </g>
     </g>
     <g id="text_8">
      <!-- 14 -->
      <g transform="translate(824.843409 664.516562) scale(0.22 -0.22)">
       <defs>
        <path id="DejaVuSans-34" d="M 2419 4116 
L 825 1625 
L 2419 1625 
L 2419 4116 
z
M 2253 4666 
L 3047 4666 
L 3047 1625 
L 3713 1625 
L 3713 1100 
L 3047 1100 
L 3047 0 
L 2419 0 
L 2419 1100 
L 313 1100 
L 313 1709 
L 2253 4666 
z
" transform="scale(0.015625)"/>
       </defs>
       <use xlink:href="#DejaVuSans-31"/>
       <use xlink:href="#DejaVuSans-34" x="63.623047"/>
      </g>
     </g>
    </g>
    <g id="xtick_9">
     <g id="line2d_9">
      <g>
       <use xlink:href="#m3385fdae1e" x="933.954545" y="640.8" style="stroke: #000000; stroke-width: 0.8"/>
      </g>
     </g>
     <g id="text_9">
      <!-- 15 -->
      <g transform="translate(919.957045 664.516562) scale(0.22 -0.22)">
       <defs>
        <path id="DejaVuSans-35" d="M 691 4666 
L 3169 4666 
L 3169 4134 
L 1269 4134 
L 1269 2991 
Q 1406 3038 1543 3061 
Q 1681 3084 1819 3084 
Q 2600 3084 3056 2656 
Q 3513 2228 3513 1497 
Q 3513 744 3044 326 
Q 2575 -91 1722 -91 
Q 1428 -91 1123 -41 
Q 819 9 494 109 
L 494 744 
Q 775 591 1075 516 
Q 1375 441 1709 441 
Q 2250 441 2565 725 
Q 2881 1009 2881 1497 
Q 2881 1984 2565 2268 
Q 2250 2553 1709 2553 
Q 1456 2553 1204 2497 
Q 953 2441 691 2322 
L 691 4666 
z
" transform="scale(0.015625)"/>
       </defs>
       <use xlink:href="#DejaVuSans-31"/>
       <use xlink:href="#DejaVuSans-35" x="63.623047"/>
      </g>
     </g>
    </g>
    <g id="text_10">
     <!-- Time (days) -->
     <g transform="translate(488.541562 689.808437) scale(0.22 -0.22)">
      <defs>
       <path id="DejaVuSans-54" d="M -19 4666 
L 3928 4666 
L 3928 4134 
L 2272 4134 
L 2272 0 
L 1638 0 
L 1638 4134 
L -19 4134 
L -19 4666 
z
" transform="scale(0.015625)"/>
       <path id="DejaVuSans-69" d="M 603 3500 
L 1178 3500 
L 1178 0 
L 603 0 
L 603 3500 
z
M 603 4863 
L 1178 4863 
L 1178 4134 
L 603 4134 
L 603 4863 
z
" transform="scale(0.015625)"/>
       <path id="DejaVuSans-6d" d="M 3328 2828 
Q 3544 3216 3844 3400 
Q 4144 3584 4550 3584 
Q 5097 3584 5394 3201 
Q 5691 2819 5691 2113 
L 5691 0 
L 5113 0 
L 5113 2094 
Q 5113 2597 4934 2840 
Q 4756 3084 4391 3084 
Q 3944 3084 3684 2787 
Q 3425 2491 3425 1978 
L 3425 0 
L 2847 0 
L 2847 2094 
Q 2847 2600 2669 2842 
Q 2491 3084 2119 3084 
Q 1678 3084 1418 2786 
Q 1159 2488 1159 1978 
L 1159 0 
L 581 0 
L 581 3500 
L 1159 3500 
L 1159 2956 
Q 1356 3278 1631 3431 
Q 1906 3584 2284 3584 
Q 2666 3584 2933 3390 
Q 3200 3197 3328 2828 
z
" transform="scale(0.015625)"/>
       <path id="DejaVuSans-65" d="M 3597 1894 
L 3597 1613 
L 953 1613 
Q 991 1019 1311 708 
Q 1631 397 2203 397 
Q 2534 397 2845 478 
Q 3156 559 3463 722 
L 3463 178 
Q 3153 47 2828 -22 
Q 2503 -91 2169 -91 
Q 1331 -91 842 396 
Q 353 884 353 1716 
Q 353 2575 817 3079 
Q 1281 3584 2069 3584 
Q 2775 3584 3186 3129 
Q 3597 2675 3597 1894 
z
M 3022 2063 
Q 3016 2534 2758 2815 
Q 2500 3097 2075 3097 
Q 1594 3097 1305 2825 
Q 1016 2553 972 2059 
L 3022 2063 
z
" transform="scale(0.015625)"/>
       <path id="DejaVuSans-20" transform="scale(0.015625)"/>
       <path id="DejaVuSans-28" d="M 1984 4856 
Q 1566 4138 1362 3434 
Q 1159 2731 1159 2009 
Q 1159 1288 1364 580 
Q 1569 -128 1984 -844 
L 1484 -844 
Q 1016 -109 783 600 
Q 550 1309 550 2009 
Q 550 2706 781 3412 
Q 1013 4119 1484 4856 
L 1984 4856 
z
" transform="scale(0.015625)"/>
       <path id="DejaVuSans-64" d="M 2906 2969 
L 2906 4863 
L 3481 4863 
L 3481 0 
L 2906 0 
L 2906 525 
Q 2725 213 2448 61 
Q 2172 -91 1784 -91 
Q 1150 -91 751 415 
Q 353 922 353 1747 
Q 353 2572 751 3078 
Q 1150 3584 1784 3584 
Q 2172 3584 2448 3432 
Q 2725 3281 2906 2969 
z
M 947 1747 
Q 947 1113 1208 752 
Q 1469 391 1925 391 
Q 2381 391 2643 752 
Q 2906 1113 2906 1747 
Q 2906 2381 2643 2742 
Q 2381 3103 1925 3103 
Q 1469 3103 1208 2742 
Q 947 2381 947 1747 
z
" transform="scale(0.015625)"/>
       <path id="DejaVuSans-61" d="M 2194 1759 
Q 1497 1759 1228 1600 
Q 959 1441 959 1056 
Q 959 750 1161 570 
Q 1363 391 1709 391 
Q 2188 391 2477 730 
Q 2766 1069 2766 1631 
L 2766 1759 
L 2194 1759 
z
M 3341 1997 
L 3341 0 
L 2766 0 
L 2766 531 
Q 2569 213 2275 61 
Q 1981 -91 1556 -91 
Q 1019 -91 701 211 
Q 384 513 384 1019 
Q 384 1609 779 1909 
Q 1175 2209 1959 2209 
L 2766 2209 
L 2766 2266 
Q 2766 2663 2505 2880 
Q 2244 3097 1772 3097 
Q 1472 3097 1187 3025 
Q 903 2953 641 2809 
L 641 3341 
Q 956 3463 1253 3523 
Q 1550 3584 1831 3584 
Q 2591 3584 2966 3190 
Q 3341 2797 3341 1997 
z
" transform="scale(0.015625)"/>
       <path id="DejaVuSans-79" d="M 2059 -325 
Q 1816 -950 1584 -1140 
Q 1353 -1331 966 -1331 
L 506 -1331 
L 506 -850 
L 844 -850 
Q 1081 -850 1212 -737 
Q 1344 -625 1503 -206 
L 1606 56 
L 191 3500 
L 800 3500 
L 1894 763 
L 2988 3500 
L 3597 3500 
L 2059 -325 
z
" transform="scale(0.015625)"/>
       <path id="DejaVuSans-73" d="M 2834 3397 
L 2834 2853 
Q 2591 2978 2328 3040 
Q 2066 3103 1784 3103 
Q 1356 3103 1142 2972 
Q 928 2841 928 2578 
Q 928 2378 1081 2264 
Q 1234 2150 1697 2047 
L 1894 2003 
Q 2506 1872 2764 1633 
Q 3022 1394 3022 966 
Q 3022 478 2636 193 
Q 2250 -91 1575 -91 
Q 1294 -91 989 -36 
Q 684 19 347 128 
L 347 722 
Q 666 556 975 473 
Q 1284 391 1588 391 
Q 1994 391 2212 530 
Q 2431 669 2431 922 
Q 2431 1156 2273 1281 
Q 2116 1406 1581 1522 
L 1381 1569 
Q 847 1681 609 1914 
Q 372 2147 372 2553 
Q 372 3047 722 3315 
Q 1072 3584 1716 3584 
Q 2034 3584 2315 3537 
Q 2597 3491 2834 3397 
z
" transform="scale(0.015625)"/>
       <path id="DejaVuSans-29" d="M 513 4856 
L 1013 4856 
Q 1481 4119 1714 3412 
Q 1947 2706 1947 2009 
Q 1947 1309 1714 600 
Q 1481 -109 1013 -844 
L 513 -844 
Q 928 -128 1133 580 
Q 1338 1288 1338 2009 
Q 1338 2731 1133 3434 
Q 928 4138 513 4856 
z
" transform="scale(0.015625)"/>
      </defs>
      <use xlink:href="#DejaVuSans-54"/>
      <use xlink:href="#DejaVuSans-69" x="57.958984"/>
      <use xlink:href="#DejaVuSans-6d" x="85.742188"/>
      <use xlink:href="#DejaVuSans-65" x="183.154297"/>
      <use xlink:href="#DejaVuSans-20" x="244.677734"/>
      <use xlink:href="#DejaVuSans-28" x="276.464844"/>
      <use xlink:href="#DejaVuSans-64" x="315.478516"/>
      <use xlink:href="#DejaVuSans-61" x="378.955078"/>
      <use xlink:href="#DejaVuSans-79" x="440.234375"/>
      <use xlink:href="#DejaVuSans-73" x="499.414062"/>
      <use xlink:href="#DejaVuSans-29" x="551.513672"/>
     </g>
    </g>
   </g>
   <g id="matplotlib.axis_2">
    <g id="ytick_1">
     <g id="line2d_10">
      <defs>
       <path id="ma600d9e374" d="M 0 0 
L -3.5 0 
" style="stroke: #000000; stroke-width: 0.8"/>
      </defs>
      <g>
       <use xlink:href="#ma600d9e374" x="135" y="615.908529" style="stroke: #000000; stroke-width: 0.8"/>
      </g>
     </g>
     <g id="text_11">
      <!-- 0.00 -->
      <g transform="translate(79.015625 624.26681) scale(0.22 -0.22)">
       <defs>
        <path id="DejaVuSans-2e" d="M 684 794 
L 1344 794 
L 1344 0 
L 684 0 
L 684 794 
z
" transform="scale(0.015625)"/>
       </defs>
       <use xlink:href="#DejaVuSans-30"/>
       <use xlink:href="#DejaVuSans-2e" x="63.623047"/>
       <use xlink:href="#DejaVuSans-30" x="95.410156"/>
       <use xlink:href="#DejaVuSans-30" x="159.033203"/>
      </g>
     </g>
    </g>
    <g id="ytick_2">
     <g id="line2d_11">
      <g>
       <use xlink:href="#ma600d9e374" x="135" y="544.201469" style="stroke: #000000; stroke-width: 0.8"/>
      </g>
     </g>
     <g id="text_12">
      <!-- 0.25 -->
      <g transform="translate(79.015625 552.559751) scale(0.22 -0.22)">
       <use xlink:href="#DejaVuSans-30"/>
       <use xlink:href="#DejaVuSans-2e" x="63.623047"/>
       <use xlink:href="#DejaVuSans-32" x="95.410156"/>
       <use xlink:href="#DejaVuSans-35" x="159.033203"/>
      </g>
     </g>
    </g>
    <g id="ytick_3">
     <g id="line2d_12">
      <g>
       <use xlink:href="#ma600d9e374" x="135" y="472.49441" style="stroke: #000000; stroke-width: 0.8"/>
      </g>
     </g>
     <g id="text_13">
      <!-- 0.50 -->
      <g transform="translate(79.015625 480.852691) scale(0.22 -0.22)">
       <use xlink:href="#DejaVuSans-30"/>
       <use xlink:href="#DejaVuSans-2e" x="63.623047"/>
       <use xlink:href="#DejaVuSans-35" x="95.410156"/>
       <use xlink:href="#DejaVuSans-30" x="159.033203"/>
      </g>
     </g>
    </g>
    <g id="ytick_4">
     <g id="line2d_13">
      <g>
       <use xlink:href="#ma600d9e374" x="135" y="400.78735" style="stroke: #000000; stroke-width: 0.8"/>
      </g>
     </g>
     <g id="text_14">
      <!-- 0.75 -->
      <g transform="translate(79.015625 409.145632) scale(0.22 -0.22)">
       <use xlink:href="#DejaVuSans-30"/>
       <use xlink:href="#DejaVuSans-2e" x="63.623047"/>
       <use xlink:href="#DejaVuSans-37" x="95.410156"/>
       <use xlink:href="#DejaVuSans-35" x="159.033203"/>
      </g>
     </g>
    </g>
    <g id="ytick_5">
     <g id="line2d_14">
      <g>
       <use xlink:href="#ma600d9e374" x="135" y="329.080291" style="stroke: #000000; stroke-width: 0.8"/>
      </g>
     </g>
     <g id="text_15">
      <!-- 1.00 -->
      <g transform="translate(79.015625 337.438572) scale(0.22 -0.22)">
       <use xlink:href="#DejaVuSans-31"/>
       <use xlink:href="#DejaVuSans-2e" x="63.623047"/>
       <use xlink:href="#DejaVuSans-30" x="95.410156"/>
       <use xlink:href="#DejaVuSans-30" x="159.033203"/>
      </g>
     </g>
    </g>
    <g id="ytick_6">
     <g id="line2d_15">
      <g>
       <use xlink:href="#ma600d9e374" x="135" y="257.373231" style="stroke: #000000; stroke-width: 0.8"/>
      </g>
     </g>
     <g id="text_16">
      <!-- 1.25 -->
      <g transform="translate(79.015625 265.731513) scale(0.22 -0.22)">
       <use xlink:href="#DejaVuSans-31"/>
       <use xlink:href="#DejaVuSans-2e" x="63.623047"/>
       <use xlink:href="#DejaVuSans-32" x="95.410156"/>
       <use xlink:href="#DejaVuSans-35" x="159.033203"/>
      </g>
     </g>
    </g>
    <g id="ytick_7">
     <g id="line2d_16">
      <g>
       <use xlink:href="#ma600d9e374" x="135" y="185.666172" style="stroke: #000000; stroke-width: 0.8"/>
      </g>
     </g>
     <g id="text_17">
      <!-- 1.50 -->
      <g transform="translate(79.015625 194.024453) scale(0.22 -0.22)">
       <use xlink:href="#DejaVuSans-31"/>
       <use xlink:href="#DejaVuSans-2e" x="63.623047"/>
       <use xlink:href="#DejaVuSans-35" x="95.410156"/>
       <use xlink:href="#DejaVuSans-30" x="159.033203"/>
      </g>
     </g>
    </g>
    <g id="ytick_8">
     <g id="line2d_17">
      <g>
       <use xlink:href="#ma600d9e374" x="135" y="113.959112" style="stroke: #000000; stroke-width: 0.8"/>
      </g>
     </g>
     <g id="text_18">
      <!-- 1.75 -->
      <g transform="translate(79.015625 122.317393) scale(0.22 -0.22)">
       <use xlink:href="#DejaVuSans-31"/>
       <use xlink:href="#DejaVuSans-2e" x="63.623047"/>
       <use xlink:href="#DejaVuSans-37" x="95.410156"/>
       <use xlink:href="#DejaVuSans-35" x="159.033203"/>
      </g>
     </g>
    </g>
    <g id="text_19">
     <!-- X:A -->
     <g transform="translate(70.440313 382.365312) rotate(-90) scale(0.22 -0.22)">
      <defs>
       <path id="DejaVuSans-58" d="M 403 4666 
L 1081 4666 
L 2241 2931 
L 3406 4666 
L 4084 4666 
L 2584 2425 
L 4184 0 
L 3506 0 
L 2194 1984 
L 872 0 
L 191 0 
L 1856 2491 
L 403 4666 
z
" transform="scale(0.015625)"/>
       <path id="DejaVuSans-3a" d="M 750 794 
L 1409 794 
L 1409 0 
L 750 0 
L 750 794 
z
M 750 3309 
L 1409 3309 
L 1409 2516 
L 750 2516 
L 750 3309 
z
" transform="scale(0.015625)"/>
       <path id="DejaVuSans-41" d="M 2188 4044 
L 1331 1722 
L 3047 1722 
L 2188 4044 
z
M 1831 4666 
L 2547 4666 
L 4325 0 
L 3669 0 
L 3244 1197 
L 1141 1197 
L 716 0 
L 50 0 
L 1831 4666 
z
" transform="scale(0.015625)"/>
      </defs>
      <use xlink:href="#DejaVuSans-58"/>
      <use xlink:href="#DejaVuSans-3a" x="68.505859"/>
      <use xlink:href="#DejaVuSans-41" x="102.197266"/>
     </g>
    </g>
   </g>
   <g id="line2d_18">
    <path d="M 173.045455 615.6 
L 180.731405 612.356259 
L 188.417355 609.112526 
L 196.103306 605.8688 
L 203.789256 602.625081 
L 211.475207 599.381368 
L 219.161157 596.137663 
L 226.847107 592.893964 
L 234.533058 589.650272 
L 242.219008 586.406586 
L 249.904959 583.162906 
L 257.590909 579.919232 
L 265.27686 576.675564 
L 272.96281 573.431901 
L 280.64876 570.188245 
L 288.334711 566.944594 
L 296.020661 563.700948 
L 303.706612 560.457307 
L 311.392562 557.213672 
L 319.078512 553.970041 
L 326.764463 550.726416 
L 334.450413 547.482795 
L 342.136364 544.239179 
L 349.822314 540.995567 
L 357.508264 537.751981 
L 365.194215 534.508431 
L 372.880165 531.264913 
L 380.566116 528.021422 
L 388.252066 524.777954 
L 395.938017 521.534505 
L 403.623967 518.29107 
L 411.309917 515.047646 
L 418.995868 511.804229 
L 426.681818 508.560817 
L 434.367769 505.317406 
L 442.053719 502.073993 
L 449.739669 498.830576 
L 457.42562 495.587153 
L 465.11157 492.343721 
L 472.797521 489.100278 
L 480.483471 485.856824 
L 488.169421 482.613357 
L 495.855372 479.369875 
L 503.541322 476.126377 
L 511.227273 472.882864 
L 518.913223 469.639335 
L 526.599174 466.395789 
L 534.285124 463.152226 
L 541.971074 459.908648 
L 549.657025 456.665053 
L 557.342975 453.421444 
L 565.028926 450.177822 
L 572.714876 446.934186 
L 580.400826 443.69054 
L 588.086777 440.446884 
L 595.772727 437.203221 
L 603.458678 433.959553 
L 611.144628 430.715882 
L 618.830579 427.472211 
L 626.516529 424.228543 
L 634.202479 420.984881 
L 641.88843 417.741229 
L 649.57438 414.497589 
L 657.260331 411.253967 
L 664.946281 408.010365 
L 672.632231 404.766789 
L 680.318182 401.523243 
L 688.004132 398.279731 
L 695.690083 395.036259 
L 703.376033 391.792833 
L 711.061983 388.549456 
L 718.747934 385.306137 
L 726.433884 382.062879 
L 734.119835 378.81969 
L 741.805785 375.576577 
L 749.491736 372.333545 
L 757.177686 369.090601 
L 764.863636 365.847754 
L 772.549587 362.60501 
L 780.235537 359.362377 
L 787.921488 356.119863 
L 795.607438 352.877475 
L 803.293388 349.635223 
L 810.979339 346.393116 
L 818.665289 343.15116 
L 826.35124 339.909367 
L 834.03719 336.667745 
L 841.72314 333.426304 
L 849.409091 330.185053 
L 857.095041 326.944003 
L 864.780992 323.703163 
L 872.466942 320.462545 
L 880.152893 317.222159 
L 887.838843 313.982017 
L 895.524793 310.742128 
L 903.210744 307.502505 
L 910.896694 304.263159 
L 918.582645 301.024103 
L 926.268595 297.785348 
L 933.954545 294.546908 
" clip-path="url(#p294e5309c2)" style="fill: none; stroke: #d0e1f2; stroke-width: 1.5; stroke-linecap: square"/>
   </g>
   <g id="line2d_19">
    <path d="M 173.045455 156.22457 
L 180.731405 157.559404 
L 188.417355 158.890362 
L 196.103306 160.217454 
L 203.789256 161.540694 
L 211.475207 162.86009 
L 219.161157 164.175656 
L 226.847107 165.487401 
L 234.533058 166.795337 
L 242.219008 168.099476 
L 249.904959 169.399827 
L 257.590909 170.696402 
L 265.27686 171.989213 
L 272.96281 173.278269 
L 280.64876 174.563582 
L 288.334711 175.845163 
L 296.020661 177.123022 
L 303.706612 178.397171 
L 311.392562 179.667619 
L 319.078512 180.934379 
L 326.764463 182.19746 
L 334.450413 183.456874 
L 342.136364 184.71263 
L 349.822314 185.96474 
L 357.508264 187.213214 
L 365.194215 188.458064 
L 372.880165 189.6993 
L 380.566116 190.936931 
L 388.252066 192.17097 
L 395.938017 193.401425 
L 403.623967 194.628308 
L 411.309917 195.851628 
L 418.995868 197.071397 
L 426.681818 198.287623 
L 434.367769 199.500318 
L 442.053719 200.709492 
L 449.739669 201.915154 
L 457.42562 203.117316 
L 465.11157 204.315986 
L 472.797521 205.511176 
L 480.483471 206.702895 
L 488.169421 207.891154 
L 495.855372 209.075962 
L 503.541322 210.257329 
L 511.227273 211.435265 
L 518.913223 212.609781 
L 526.599174 213.780886 
L 534.285124 214.94859 
L 541.971074 216.112903 
L 549.657025 217.273835 
L 557.342975 218.431395 
L 565.028926 219.585594 
L 572.714876 220.736441 
L 580.400826 221.883946 
L 588.086777 223.028118 
L 595.772727 224.168968 
L 603.458678 225.306504 
L 611.144628 226.440737 
L 618.830579 227.571676 
L 626.516529 228.699331 
L 634.202479 229.823711 
L 641.88843 230.944826 
L 649.57438 232.062685 
L 657.260331 233.177298 
L 664.946281 234.288673 
L 672.632231 235.396822 
L 680.318182 236.501752 
L 688.004132 237.603474 
L 695.690083 238.701996 
L 703.376033 239.797328 
L 711.061983 240.889479 
L 718.747934 241.978459 
L 726.433884 243.064276 
L 734.119835 244.14694 
L 741.805785 245.22646 
L 749.491736 246.302846 
L 757.177686 247.376105 
L 764.863636 248.446248 
L 772.549587 249.513284 
L 780.235537 250.577221 
L 787.921488 251.638068 
L 795.607438 252.695835 
L 803.293388 253.75053 
L 810.979339 254.802163 
L 818.665289 255.850742 
L 826.35124 256.896276 
L 834.03719 257.938774 
L 841.72314 258.978244 
L 849.409091 260.014697 
L 857.095041 261.04814 
L 864.780992 262.078581 
L 872.466942 263.106031 
L 880.152893 264.130497 
L 887.838843 265.151988 
L 895.524793 266.170514 
L 903.210744 267.186081 
L 910.896694 268.1987 
L 918.582645 269.208378 
L 926.268595 270.215124 
L 933.954545 271.218947 
" clip-path="url(#p294e5309c2)" style="fill: none; stroke: #fdd9b4; stroke-width: 1.5; stroke-linecap: square"/>
   </g>
   <g id="line2d_20">
    <path d="M 173.045455 615.6 
L 180.731405 612.314188 
L 188.417355 609.028271 
L 196.103306 605.742299 
L 203.789256 602.456323 
L 211.475207 599.170374 
L 219.161157 595.884461 
L 226.847107 592.598582 
L 234.533058 589.31275 
L 242.219008 586.026964 
L 249.904959 582.741217 
L 257.590909 579.455511 
L 265.27686 576.169855 
L 272.96281 572.884254 
L 280.64876 569.59869 
L 288.334711 566.313155 
L 296.020661 563.027657 
L 303.706612 559.742216 
L 311.392562 556.456842 
L 319.078512 553.171501 
L 326.764463 549.886188 
L 334.450413 546.600923 
L 342.136364 543.31572 
L 349.822314 540.030554 
L 357.508264 536.745422 
L 365.194215 533.460336 
L 372.880165 530.175311 
L 380.566116 526.890325 
L 388.252066 523.605369 
L 395.938017 520.320453 
L 403.623967 517.035603 
L 411.309917 513.750812 
L 418.995868 510.466045 
L 426.681818 507.181297 
L 434.367769 503.896597 
L 442.053719 500.611986 
L 449.739669 497.327417 
L 457.42562 494.042873 
L 465.11157 490.758376 
L 472.797521 487.47395 
L 480.483471 484.189568 
L 488.169421 480.905226 
L 495.855372 477.620944 
L 503.541322 474.336735 
L 511.227273 471.052576 
L 518.913223 467.768462 
L 526.599174 464.484419 
L 534.285124 461.200471 
L 541.971074 457.916591 
L 549.657025 454.632776 
L 557.342975 451.349054 
L 565.028926 448.065438 
L 572.714876 444.781909 
L 580.400826 441.49847 
L 588.086777 438.215151 
L 595.772727 434.93195 
L 603.458678 431.648851 
L 611.144628 428.365861 
L 618.830579 425.083 
L 626.516529 421.80025 
L 634.202479 418.517605 
L 641.88843 415.235068 
L 649.57438 411.952635 
L 657.260331 408.670294 
L 664.946281 405.388042 
L 672.632231 402.105875 
L 680.318182 398.823784 
L 688.004132 395.541765 
L 695.690083 392.259814 
L 703.376033 388.977925 
L 711.061983 385.696096 
L 718.747934 382.414325 
L 726.433884 379.132609 
L 734.119835 375.850944 
L 741.805785 372.569329 
L 749.491736 369.287765 
L 757.177686 366.00625 
L 764.863636 362.724782 
L 772.549587 359.443362 
L 780.235537 356.161988 
L 787.921488 352.88066 
L 795.607438 349.599379 
L 803.293388 346.318143 
L 810.979339 343.036953 
L 818.665289 339.755808 
L 826.35124 336.474708 
L 834.03719 333.193653 
L 841.72314 329.912642 
L 849.409091 326.631677 
L 857.095041 323.350756 
L 864.780992 320.06988 
L 872.466942 316.789049 
L 880.152893 313.508262 
L 887.838843 310.22752 
L 895.524793 306.946822 
L 903.210744 303.666168 
L 910.896694 300.385559 
L 918.582645 297.104995 
L 926.268595 293.824475 
L 933.954545 290.543999 
" clip-path="url(#p294e5309c2)" style="fill: none; stroke: #79b5d9; stroke-width: 1.5; stroke-linecap: square"/>
   </g>
   <g id="line2d_21">
    <path d="M 173.045455 156.22457 
L 180.731405 145.461195 
L 188.417355 140.891385 
L 196.103306 138.559567 
L 203.789256 137.56977 
L 211.475207 137.071144 
L 219.161157 136.782209 
L 226.847107 136.788231 
L 234.533058 136.721381 
L 242.219008 136.593982 
L 249.904959 136.614631 
L 257.590909 136.740345 
L 265.27686 136.689498 
L 272.96281 136.363483 
L 280.64876 136.243145 
L 288.334711 136.524719 
L 296.020661 137.014693 
L 303.706612 137.12981 
L 311.392562 136.658806 
L 319.078512 136.48661 
L 326.764463 136.789692 
L 334.450413 136.977482 
L 342.136364 136.654244 
L 349.822314 136.540509 
L 357.508264 136.753255 
L 365.194215 136.8814 
L 372.880165 136.568922 
L 380.566116 136.412111 
L 388.252066 136.657609 
L 395.938017 137.035532 
L 403.623967 136.825498 
L 411.309917 136.260952 
L 418.995868 136.29306 
L 426.681818 137.031355 
L 434.367769 137.675827 
L 442.053719 137.211623 
L 449.739669 136.930265 
L 457.42562 137.32321 
L 465.11157 137.771724 
L 472.797521 137.629857 
L 480.483471 137.769851 
L 488.169421 138.34108 
L 495.855372 138.834258 
L 503.541322 138.956543 
L 511.227273 139.521091 
L 518.913223 140.743903 
L 526.599174 142.0163 
L 534.285124 142.713068 
L 541.971074 143.916727 
L 549.657025 145.940526 
L 557.342975 147.998432 
L 565.028926 149.762478 
L 572.714876 152.408694 
L 580.400826 155.981584 
L 588.086777 159.306825 
L 595.772727 162.69745 
L 603.458678 167.334694 
L 611.144628 172.768902 
L 618.830579 177.648916 
L 626.516529 183.129396 
L 634.202479 189.707696 
L 641.88843 196.331617 
L 649.57438 202.765472 
L 657.260331 209.861017 
L 664.946281 217.327257 
L 672.632231 224.364013 
L 680.318182 231.439498 
L 688.004132 238.619442 
L 695.690083 245.578655 
L 703.376033 252.488098 
L 711.061983 258.951216 
L 718.747934 264.502995 
L 726.433884 269.545108 
L 734.119835 275.059653 
L 741.805785 280.225049 
L 749.491736 284.501425 
L 757.177686 288.57064 
L 764.863636 292.52652 
L 772.549587 295.806392 
L 780.235537 298.738761 
L 787.921488 301.756938 
L 795.607438 304.233109 
L 803.293388 306.151364 
L 810.979339 308.242545 
L 818.665289 310.267424 
L 826.35124 311.706998 
L 834.03719 312.873704 
L 841.72314 314.395359 
L 849.409091 315.659748 
L 857.095041 316.450634 
L 864.780992 317.248202 
L 872.466942 318.318411 
L 880.152893 319.076117 
L 887.838843 319.47639 
L 895.524793 320.035176 
L 903.210744 320.806619 
L 910.896694 321.268299 
L 918.582645 321.421273 
L 926.268595 321.760975 
L 933.954545 322.191051 
" clip-path="url(#p294e5309c2)" style="fill: none; stroke: #fd9649; stroke-width: 1.5; stroke-linecap: square"/>
   </g>
   <g id="line2d_22">
    <path d="M 173.045455 615.6 
L 180.731405 609.531469 
L 188.417355 607.340051 
L 196.103306 605.282686 
L 203.789256 603.333862 
L 211.475207 601.478873 
L 219.161157 599.704849 
L 226.847107 597.999552 
L 234.533058 596.351377 
L 242.219008 594.749352 
L 249.904959 593.183138 
L 257.590909 591.64303 
L 265.27686 590.120829 
L 272.96281 588.610538 
L 280.64876 587.106017 
L 288.334711 585.6014 
L 296.020661 584.091099 
L 303.706612 582.569805 
L 311.392562 581.032489 
L 319.078512 579.474402 
L 326.764463 577.891073 
L 334.450413 576.27831 
L 342.136364 574.633793 
L 349.822314 572.958082 
L 357.508264 571.24515 
L 365.194215 569.488998 
L 372.880165 567.684259 
L 380.566116 565.826192 
L 388.252066 563.910692 
L 395.938017 561.934279 
L 403.623967 559.894107 
L 411.309917 557.787957 
L 418.995868 555.614243 
L 426.681818 553.372008 
L 434.367769 551.060924 
L 442.053719 548.681296 
L 449.739669 546.234185 
L 457.42562 543.720682 
L 465.11157 541.132798 
L 472.797521 538.461336 
L 480.483471 535.698302 
L 488.169421 532.836899 
L 495.855372 529.871533 
L 503.541322 526.797805 
L 511.227273 523.61252 
L 518.913223 520.313679 
L 526.599174 516.900485 
L 534.285124 513.37334 
L 541.971074 509.733844 
L 549.657025 505.984799 
L 557.342975 502.130205 
L 565.028926 498.171942 
L 572.714876 494.098944 
L 580.400826 489.898529 
L 588.086777 485.559778 
L 595.772727 481.073522 
L 603.458678 476.432339 
L 611.144628 471.630556 
L 618.830579 466.664246 
L 626.516529 461.531231 
L 634.202479 456.23108 
L 641.88843 450.765112 
L 649.57438 445.13639 
L 657.260331 439.349728 
L 664.946281 433.411652 
L 672.632231 427.320112 
L 680.318182 421.059372 
L 688.004132 414.616934 
L 695.690083 407.983587 
L 703.376033 401.153407 
L 711.061983 394.123759 
L 718.747934 386.895294 
L 726.433884 379.471951 
L 734.119835 371.860955 
L 741.805785 364.072822 
L 749.491736 356.121351 
L 757.177686 348.023632 
L 764.863636 339.800041 
L 772.549587 331.472297 
L 780.235537 323.035342 
L 787.921488 314.604895 
L 795.607438 306.335037 
L 803.293388 298.371612 
L 810.979339 290.852221 
L 818.665289 283.906227 
L 826.35124 277.654754 
L 834.03719 272.210686 
L 841.72314 267.678667 
L 849.409091 264.177693 
L 857.095041 261.844191 
L 864.780992 260.705772 
L 872.466942 260.716886 
L 880.152893 261.761341 
L 887.838843 263.652297 
L 895.524793 266.132273 
L 903.210744 268.873139 
L 910.896694 271.476125 
L 918.582645 273.519601 
L 926.268595 275.409005 
L 933.954545 277.311959 
" clip-path="url(#p294e5309c2)" style="fill: none; stroke: #2575b7; stroke-width: 1.5; stroke-linecap: square"/>
   </g>
   <g id="line2d_23">
    <path d="M 173.045455 156.22457 
L 180.731405 157.902206 
L 188.417355 159.573719 
L 196.103306 161.239132 
L 203.789256 162.898466 
L 211.475207 164.551745 
L 219.161157 166.19899 
L 226.847107 167.840224 
L 234.533058 169.475468 
L 242.219008 171.104744 
L 249.904959 172.728073 
L 257.590909 174.345479 
L 265.27686 175.956981 
L 272.96281 177.562603 
L 280.64876 179.162364 
L 288.334711 180.756287 
L 296.020661 182.344393 
L 303.706612 183.926704 
L 311.392562 185.503239 
L 319.078512 187.074021 
L 326.764463 188.63907 
L 334.450413 190.198408 
L 342.136364 191.752054 
L 349.822314 193.300031 
L 357.508264 194.842358 
L 365.194215 196.379056 
L 372.880165 197.910147 
L 380.566116 199.435649 
L 388.252066 200.955584 
L 395.938017 202.469972 
L 403.623967 203.978833 
L 411.309917 205.482187 
L 418.995868 206.980055 
L 426.681818 208.472456 
L 434.367769 209.959411 
L 442.053719 211.440939 
L 449.739669 212.91706 
L 457.42562 214.387792 
L 465.11157 215.853156 
L 472.797521 217.313173 
L 480.483471 218.767861 
L 488.169421 220.21724 
L 495.855372 221.661331 
L 503.541322 223.100153 
L 511.227273 224.533723 
L 518.913223 225.962061 
L 526.599174 227.385184 
L 534.285124 228.803111 
L 541.971074 230.215859 
L 549.657025 231.623445 
L 557.342975 233.025886 
L 565.028926 234.423139 
L 572.714876 235.815178 
L 580.400826 237.202099 
L 588.086777 238.583974 
L 595.772727 239.960853 
L 603.458678 241.332757 
L 611.144628 242.699683 
L 618.830579 244.061604 
L 626.516529 245.418467 
L 634.202479 246.770193 
L 641.88843 248.11668 
L 649.57438 249.457797 
L 657.260331 250.793393 
L 664.946281 252.123236 
L 672.632231 253.440989 
L 680.318182 254.746746 
L 688.004132 256.045435 
L 695.690083 257.340238 
L 703.376033 258.632586 
L 711.061983 259.922162 
L 718.747934 261.2069 
L 726.433884 262.482988 
L 734.119835 263.744862 
L 741.805785 264.98521 
L 749.491736 266.194973 
L 757.177686 267.363342 
L 764.863636 268.477761 
L 772.549587 269.524121 
L 780.235537 270.490149 
L 787.921488 271.351979 
L 795.607438 272.082778 
L 803.293388 272.657444 
L 810.979339 273.052608 
L 818.665289 273.246631 
L 826.35124 273.219609 
L 834.03719 272.953367 
L 841.72314 272.431465 
L 849.409091 271.619214 
L 857.095041 270.566743 
L 864.780992 269.450862 
L 872.466942 268.407312 
L 880.152893 267.525702 
L 887.838843 266.849504 
L 895.524793 266.376054 
L 903.210744 266.056556 
L 910.896694 265.796075 
L 918.582645 265.466636 
L 926.268595 265.162114 
L 933.954545 264.943738 
" clip-path="url(#p294e5309c2)" style="fill: none; stroke: #dc4c03; stroke-width: 1.5; stroke-linecap: square"/>
   </g>
   <g id="line2d_24">
    <path d="M 173.045455 615.6 
L 180.731405 601.90194 
L 188.417355 591.5513 
L 196.103306 583.559792 
L 203.789256 577.277946 
L 211.475207 572.292966 
L 219.161157 568.254527 
L 226.847107 564.948207 
L 234.533058 562.237366 
L 242.219008 559.97299 
L 249.904959 558.030349 
L 257.590909 556.374294 
L 265.27686 554.963853 
L 272.96281 553.735126 
L 280.64876 552.619676 
L 288.334711 551.617858 
L 296.020661 550.731379 
L 303.706612 549.943349 
L 311.392562 549.218763 
L 319.078512 548.519896 
L 326.764463 547.862681 
L 334.450413 547.261169 
L 342.136364 546.714629 
L 349.822314 546.20799 
L 357.508264 545.71184 
L 365.194215 545.200537 
L 372.880165 544.701137 
L 380.566116 544.23767 
L 388.252066 543.81717 
L 395.938017 543.429717 
L 403.623967 543.048436 
L 411.309917 542.6305 
L 418.995868 542.17771 
L 426.681818 541.738507 
L 434.367769 541.335775 
L 442.053719 540.968201 
L 449.739669 540.610276 
L 457.42562 540.21229 
L 465.11157 539.744831 
L 472.797521 539.270205 
L 480.483471 538.829959 
L 488.169421 538.430336 
L 495.855372 538.042281 
L 503.541322 537.601445 
L 511.227273 537.052051 
L 518.913223 536.476857 
L 526.599174 535.921197 
L 534.285124 535.381084 
L 541.971074 534.805414 
L 549.657025 534.106995 
L 557.342975 533.312992 
L 565.028926 532.496529 
L 572.714876 531.663443 
L 580.400826 530.752473 
L 588.086777 529.637575 
L 595.772727 528.290355 
L 603.458678 526.789847 
L 611.144628 525.085762 
L 618.830579 522.993812 
L 626.516529 520.275906 
L 634.202479 516.865269 
L 641.88843 512.472859 
L 649.57438 506.459499 
L 657.260331 498.0108 
L 664.946281 486.325682 
L 672.632231 470.750389 
L 680.318182 452.146409 
L 688.004132 432.862722 
L 695.690083 414.196041 
L 703.376033 396.267238 
L 711.061983 379.550337 
L 718.747934 364.753377 
L 726.433884 351.784605 
L 734.119835 340.293275 
L 741.805785 330.165362 
L 749.491736 321.356802 
L 757.177686 313.724042 
L 764.863636 307.083769 
L 772.549587 301.304522 
L 780.235537 296.292616 
L 787.921488 291.986068 
L 795.607438 288.280294 
L 803.293388 285.081146 
L 810.979339 282.316111 
L 818.665289 279.925739 
L 826.35124 277.863642 
L 834.03719 276.096459 
L 841.72314 274.582253 
L 849.409091 273.277124 
L 857.095041 272.15277 
L 864.780992 271.184223 
L 872.466942 270.349845 
L 880.152893 269.631331 
L 887.838843 269.01371 
L 895.524793 268.485339 
L 903.210744 268.036769 
L 910.896694 267.650912 
L 918.582645 267.31746 
L 926.268595 267.02947 
L 933.954545 266.781163 
" clip-path="url(#p294e5309c2)" style="fill: none; stroke: #08306b; stroke-width: 1.5; stroke-linecap: square"/>
   </g>
   <g id="line2d_25">
    <path d="M 173.045455 156.22457 
L 180.731405 145.754318 
L 188.417355 138.45832 
L 196.103306 133.372937 
L 203.789256 129.827478 
L 211.475207 127.400811 
L 219.161157 125.737985 
L 226.847107 124.630094 
L 234.533058 123.967481 
L 242.219008 123.611151 
L 249.904959 123.432116 
L 257.590909 123.427073 
L 265.27686 123.580849 
L 272.96281 123.826236 
L 280.64876 124.073838 
L 288.334711 124.35181 
L 296.020661 124.694874 
L 303.706612 125.094159 
L 311.392562 125.497651 
L 319.078512 125.841264 
L 326.764463 126.173239 
L 334.450413 126.541079 
L 342.136364 126.956441 
L 349.822314 127.395854 
L 357.508264 127.80072 
L 365.194215 128.117092 
L 372.880165 128.415995 
L 380.566116 128.765165 
L 388.252066 129.189658 
L 395.938017 129.671913 
L 403.623967 130.151745 
L 411.309917 130.528679 
L 418.995868 130.809152 
L 426.681818 131.121306 
L 434.367769 131.530901 
L 442.053719 132.041422 
L 449.739669 132.594073 
L 457.42562 133.067781 
L 465.11157 133.389015 
L 472.797521 133.72648 
L 480.483471 134.201721 
L 488.169421 134.842473 
L 495.855372 135.582675 
L 503.541322 136.262468 
L 511.227273 136.743692 
L 518.913223 137.262224 
L 526.599174 137.963734 
L 534.285124 138.863131 
L 541.971074 139.850173 
L 549.657025 140.718893 
L 557.342975 141.582278 
L 565.028926 142.70243 
L 572.714876 144.172645 
L 580.400826 145.916463 
L 588.086777 147.695107 
L 595.772727 149.595119 
L 603.458678 152.061207 
L 611.144628 155.294028 
L 618.830579 159.258259 
L 626.516529 163.998047 
L 634.202479 170.38415 
L 641.88843 179.239889 
L 649.57438 191.175728 
L 657.260331 206.850555 
L 664.946281 225.896256 
L 672.632231 245.616709 
L 680.318182 263.656155 
L 688.004132 278.218115 
L 695.690083 289.168587 
L 703.376033 297.012244 
L 711.061983 302.410931 
L 718.747934 306.311714 
L 726.433884 309.195169 
L 734.119835 311.187857 
L 741.805785 312.531139 
L 749.491736 313.507751 
L 757.177686 314.248647 
L 764.863636 314.755946 
L 772.549587 315.069033 
L 780.235537 315.261933 
L 787.921488 315.434928 
L 795.607438 315.591825 
L 803.293388 315.702875 
L 810.979339 315.761328 
L 818.665289 315.775677 
L 826.35124 315.769649 
L 834.03719 315.782169 
L 841.72314 315.826147 
L 849.409091 315.871498 
L 857.095041 315.903132 
L 864.780992 315.912878 
L 872.466942 315.899479 
L 880.152893 315.868597 
L 887.838843 315.83281 
L 895.524793 315.811614 
L 903.210744 315.82559 
L 910.896694 315.843491 
L 918.582645 315.855639 
L 926.268595 315.863485 
L 933.954545 315.869029 
" clip-path="url(#p294e5309c2)" style="fill: none; stroke: #7f2704; stroke-width: 1.5; stroke-linecap: square"/>
   </g>
   <g id="patch_3">
    <path d="M 135 640.8 
L 135 86.4 
" style="fill: none; stroke: #000000; stroke-width: 0.8; stroke-linejoin: miter; stroke-linecap: square"/>
   </g>
   <g id="patch_4">
    <path d="M 972 640.8 
L 972 86.4 
" style="fill: none; stroke: #000000; stroke-width: 0.8; stroke-linejoin: miter; stroke-linecap: square"/>
   </g>
   <g id="patch_5">
    <path d="M 135 640.8 
L 972 640.8 
" style="fill: none; stroke: #000000; stroke-width: 0.8; stroke-linejoin: miter; stroke-linecap: square"/>
   </g>
   <g id="patch_6">
    <path d="M 135 86.4 
L 972 86.4 
" style="fill: none; stroke: #000000; stroke-width: 0.8; stroke-linejoin: miter; stroke-linecap: square"/>
   </g>
   <g id="legend_1">
    <g id="patch_7">
     <path d="M 150.4 528.359375 
L 300.477813 528.359375 
Q 304.877813 528.359375 304.877813 523.959375 
L 304.877813 203.240625 
Q 304.877813 198.840625 300.477813 198.840625 
L 150.4 198.840625 
Q 146 198.840625 146 203.240625 
L 146 523.959375 
Q 146 528.359375 150.4 528.359375 
z
" style="fill: #ffffff; opacity: 0.8; stroke: #cccccc; stroke-linejoin: miter"/>
    </g>
    <g id="PathCollection_3">
     <g>
      <use xlink:href="#m80f1702e56" x="176.8" y="218.582187" style="fill: #1f77b4; stroke: #1f77b4"/>
     </g>
    </g>
    <g id="text_20">
     <!-- Xi -->
     <g transform="translate(216.4 224.357187) scale(0.22 -0.22)">
      <use xlink:href="#DejaVuSans-58"/>
      <use xlink:href="#DejaVuSans-69" x="68.505859"/>
     </g>
    </g>
    <g id="PathCollection_4">
     <g>
      <use xlink:href="#m62fcbac0dc" x="176.8" y="250.874062" style="fill: #ff7f0e; stroke: #ff7f0e"/>
     </g>
    </g>
    <g id="text_21">
     <!-- Xa -->
     <g transform="translate(216.4 256.649062) scale(0.22 -0.22)">
      <use xlink:href="#DejaVuSans-58"/>
      <use xlink:href="#DejaVuSans-61" x="68.505859"/>
     </g>
    </g>
    <g id="line2d_26">
     <path d="M 154.8 281.240937 
L 176.8 281.240937 
L 198.8 281.240937 
" style="fill: none; stroke: #d0e1f2; stroke-width: 1.5; stroke-linecap: square"/>
    </g>
    <g id="text_22">
     <!-- Xi-AAII -->
     <g transform="translate(216.4 288.940937) scale(0.22 -0.22)">
      <defs>
       <path id="DejaVuSans-2d" d="M 313 2009 
L 1997 2009 
L 1997 1497 
L 313 1497 
L 313 2009 
z
" transform="scale(0.015625)"/>
       <path id="DejaVuSans-49" d="M 628 4666 
L 1259 4666 
L 1259 0 
L 628 0 
L 628 4666 
z
" transform="scale(0.015625)"/>
      </defs>
      <use xlink:href="#DejaVuSans-58"/>
      <use xlink:href="#DejaVuSans-69" x="68.505859"/>
      <use xlink:href="#DejaVuSans-2d" x="96.289062"/>
      <use xlink:href="#DejaVuSans-41" x="130.123047"/>
      <use xlink:href="#DejaVuSans-41" x="201.28125"/>
      <use xlink:href="#DejaVuSans-49" x="269.689453"/>
      <use xlink:href="#DejaVuSans-49" x="299.181641"/>
     </g>
    </g>
    <g id="line2d_27">
     <path d="M 154.8 313.532812 
L 176.8 313.532812 
L 198.8 313.532812 
" style="fill: none; stroke: #fdd9b4; stroke-width: 1.5; stroke-linecap: square"/>
    </g>
    <g id="text_23">
     <!-- Xa-AAII -->
     <g transform="translate(216.4 321.232812) scale(0.22 -0.22)">
      <use xlink:href="#DejaVuSans-58"/>
      <use xlink:href="#DejaVuSans-61" x="68.505859"/>
      <use xlink:href="#DejaVuSans-2d" x="129.785156"/>
      <use xlink:href="#DejaVuSans-41" x="163.619141"/>
      <use xlink:href="#DejaVuSans-41" x="234.777344"/>
      <use xlink:href="#DejaVuSans-49" x="303.185547"/>
      <use xlink:href="#DejaVuSans-49" x="332.677734"/>
     </g>
    </g>
    <g id="line2d_28">
     <path d="M 154.8 345.824687 
L 176.8 345.824687 
L 198.8 345.824687 
" style="fill: none; stroke: #79b5d9; stroke-width: 1.5; stroke-linecap: square"/>
    </g>
    <g id="text_24">
     <!-- Xi-AIII -->
     <g transform="translate(216.4 353.524687) scale(0.22 -0.22)">
      <use xlink:href="#DejaVuSans-58"/>
      <use xlink:href="#DejaVuSans-69" x="68.505859"/>
      <use xlink:href="#DejaVuSans-2d" x="96.289062"/>
      <use xlink:href="#DejaVuSans-41" x="130.123047"/>
      <use xlink:href="#DejaVuSans-49" x="198.53125"/>
      <use xlink:href="#DejaVuSans-49" x="228.023438"/>
      <use xlink:href="#DejaVuSans-49" x="257.515625"/>
     </g>
    </g>
    <g id="line2d_29">
     <path d="M 154.8 378.116562 
L 176.8 378.116562 
L 198.8 378.116562 
" style="fill: none; stroke: #fd9649; stroke-width: 1.5; stroke-linecap: square"/>
    </g>
    <g id="text_25">
     <!-- Xa-AIII -->
     <g transform="translate(216.4 385.816562) scale(0.22 -0.22)">
      <use xlink:href="#DejaVuSans-58"/>
      <use xlink:href="#DejaVuSans-61" x="68.505859"/>
      <use xlink:href="#DejaVuSans-2d" x="129.785156"/>
      <use xlink:href="#DejaVuSans-41" x="163.619141"/>
      <use xlink:href="#DejaVuSans-49" x="232.027344"/>
      <use xlink:href="#DejaVuSans-49" x="261.519531"/>
      <use xlink:href="#DejaVuSans-49" x="291.011719"/>
     </g>
    </g>
    <g id="line2d_30">
     <path d="M 154.8 410.408437 
L 176.8 410.408437 
L 198.8 410.408437 
" style="fill: none; stroke: #2575b7; stroke-width: 1.5; stroke-linecap: square"/>
    </g>
    <g id="text_26">
     <!-- Xi-IAII -->
     <g transform="translate(216.4 418.108437) scale(0.22 -0.22)">
      <use xlink:href="#DejaVuSans-58"/>
      <use xlink:href="#DejaVuSans-69" x="68.505859"/>
      <use xlink:href="#DejaVuSans-2d" x="96.289062"/>
      <use xlink:href="#DejaVuSans-49" x="132.373047"/>
      <use xlink:href="#DejaVuSans-41" x="161.865234"/>
      <use xlink:href="#DejaVuSans-49" x="230.273438"/>
      <use xlink:href="#DejaVuSans-49" x="259.765625"/>
     </g>
    </g>
    <g id="line2d_31">
     <path d="M 154.8 442.700312 
L 176.8 442.700312 
L 198.8 442.700312 
" style="fill: none; stroke: #dc4c03; stroke-width: 1.5; stroke-linecap: square"/>
    </g>
    <g id="text_27">
     <!-- Xa-IAII -->
     <g transform="translate(216.4 450.400312) scale(0.22 -0.22)">
      <use xlink:href="#DejaVuSans-58"/>
      <use xlink:href="#DejaVuSans-61" x="68.505859"/>
      <use xlink:href="#DejaVuSans-2d" x="129.785156"/>
      <use xlink:href="#DejaVuSans-49" x="165.869141"/>
      <use xlink:href="#DejaVuSans-41" x="195.361328"/>
      <use xlink:href="#DejaVuSans-49" x="263.769531"/>
      <use xlink:href="#DejaVuSans-49" x="293.261719"/>
     </g>
    </g>
    <g id="line2d_32">
     <path d="M 154.8 474.992188 
L 176.8 474.992188 
L 198.8 474.992188 
" style="fill: none; stroke: #08306b; stroke-width: 1.5; stroke-linecap: square"/>
    </g>
    <g id="text_28">
     <!-- Xi-IIII -->
     <g transform="translate(216.4 482.692187) scale(0.22 -0.22)">
      <use xlink:href="#DejaVuSans-58"/>
      <use xlink:href="#DejaVuSans-69" x="68.505859"/>
      <use xlink:href="#DejaVuSans-2d" x="96.289062"/>
      <use xlink:href="#DejaVuSans-49" x="132.373047"/>
      <use xlink:href="#DejaVuSans-49" x="161.865234"/>
      <use xlink:href="#DejaVuSans-49" x="191.357422"/>
      <use xlink:href="#DejaVuSans-49" x="220.849609"/>
     </g>
    </g>
    <g id="line2d_33">
     <path d="M 154.8 507.284062 
L 176.8 507.284062 
L 198.8 507.284062 
" style="fill: none; stroke: #7f2704; stroke-width: 1.5; stroke-linecap: square"/>
    </g>
    <g id="text_29">
     <!-- Xa-IIII -->
     <g transform="translate(216.4 514.984062) scale(0.22 -0.22)">
      <use xlink:href="#DejaVuSans-58"/>
      <use xlink:href="#DejaVuSans-61" x="68.505859"/>
      <use xlink:href="#DejaVuSans-2d" x="129.785156"/>
      <use xlink:href="#DejaVuSans-49" x="165.869141"/>
      <use xlink:href="#DejaVuSans-49" x="195.361328"/>
      <use xlink:href="#DejaVuSans-49" x="224.853516"/>
      <use xlink:href="#DejaVuSans-49" x="254.345703"/>
     </g>
    </g>
   </g>
  </g>
 </g>
 <defs>
  <clipPath id="p294e5309c2">
   <rect x="135" y="86.4" width="837" height="554.4"/>
  </clipPath>
 </defs>
</svg>
