<?xml version="1.0" encoding="utf-8" standalone="no"?>
<!DOCTYPE svg PUBLIC "-//W3C//DTD SVG 1.1//EN"
  "http://www.w3.org/Graphics/SVG/1.1/DTD/svg11.dtd">
<svg xmlns:xlink="http://www.w3.org/1999/xlink" width="1080pt" height="720pt" viewBox="0 0 1080 720" xmlns="http://www.w3.org/2000/svg" version="1.1">
 <metadata>
  <rdf:RDF xmlns:dc="http://purl.org/dc/elements/1.1/" xmlns:cc="http://creativecommons.org/ns#" xmlns:rdf="http://www.w3.org/1999/02/22-rdf-syntax-ns#">
   <cc:Work>
    <dc:type rdf:resource="http://purl.org/dc/dcmitype/StillImage"/>
    <dc:date>2023-01-10T19:25:23.270617</dc:date>
    <dc:format>image/svg+xml</dc:format>
    <dc:creator>
     <cc:Agent>
      <dc:title>Matplotlib v3.6.2, https://matplotlib.org/</dc:title>
     </cc:Agent>
    </dc:creator>
   </cc:Work>
  </rdf:RDF>
 </metadata>
 <defs>
  <style type="text/css">*{stroke-linejoin: round; stroke-linecap: butt}</style>
 </defs>
 <g id="figure_1">
  <g id="patch_1">
   <path d="M 0 720 
L 1080 720 
L 1080 0 
L 0 0 
z
" style="fill: #ffffff"/>
  </g>
  <g id="axes_1">
   <g id="patch_2">
    <path d="M 135 640.8 
L 972 640.8 
L 972 86.4 
L 135 86.4 
z
" style="fill: #ffffff"/>
   </g>
   <g id="PathCollection_1">
    <defs>
     <path id="m80f1702e56" d="M 0 3 
C 0.795609 3 1.55874 2.683901 2.12132 2.12132 
C 2.683901 1.55874 3 0.795609 3 0 
C 3 -0.795609 2.683901 -1.55874 2.12132 -2.12132 
C 1.55874 -2.683901 0.795609 -3 0 -3 
C -0.795609 -3 -1.55874 -2.683901 -2.12132 -2.12132 
C -2.683901 -1.55874 -3 -0.795609 -3 0 
C -3 0.795609 -2.683901 1.55874 -2.12132 2.12132 
C -1.55874 2.683901 -0.795609 3 0 3 
z
" style="stroke: #1f77b4"/>
    </defs>
    <g clip-path="url(#p294e5309c2)">
     <use xlink:href="#m80f1702e56" x="173.045455" y="615.6" style="fill: #1f77b4; stroke: #1f77b4"/>
     <use xlink:href="#m80f1702e56" x="268.159091" y="584.907945" style="fill: #1f77b4; stroke: #1f77b4"/>
     <use xlink:href="#m80f1702e56" x="363.272727" y="574.503077" style="fill: #1f77b4; stroke: #1f77b4"/>
     <use xlink:href="#m80f1702e56" x="458.386364" y="572.397655" style="fill: #1f77b4; stroke: #1f77b4"/>
     <use xlink:href="#m80f1702e56" x="553.5" y="533.008677" style="fill: #1f77b4; stroke: #1f77b4"/>
     <use xlink:href="#m80f1702e56" x="648.613636" y="493.6197" style="fill: #1f77b4; stroke: #1f77b4"/>
     <use xlink:href="#m80f1702e56" x="743.727273" y="282.013022" style="fill: #1f77b4; stroke: #1f77b4"/>
     <use xlink:href="#m80f1702e56" x="838.840909" y="282.013022" style="fill: #1f77b4; stroke: #1f77b4"/>
     <use xlink:href="#m80f1702e56" x="933.954545" y="282.013022" style="fill: #1f77b4; stroke: #1f77b4"/>
    </g>
   </g>
   <g id="PathCollection_2">
    <defs>
     <path id="m62fcbac0dc" d="M 0 3 
C 0.795609 3 1.55874 2.683901 2.12132 2.12132 
C 2.683901 1.55874 3 0.795609 3 0 
C 3 -0.795609 2.683901 -1.55874 2.12132 -2.12132 
C 1.55874 -2.683901 0.795609 -3 0 -3 
C -0.795609 -3 -1.55874 -2.683901 -2.12132 -2.12132 
C -2.683901 -1.55874 -3 -0.795609 -3 0 
C -3 0.795609 -2.683901 1.55874 -2.12132 2.12132 
C -1.55874 2.683901 -0.795609 3 0 3 
z
" style="stroke: #ff7f0e"/>
    </defs>
    <g clip-path="url(#p294e5309c2)">
     <use xlink:href="#m62fcbac0dc" x="173.045455" y="156.22457" style="fill: #ff7f0e; stroke: #ff7f0e"/>
     <use xlink:href="#m62fcbac0dc" x="268.159091" y="137.482142" style="fill: #ff7f0e; stroke: #ff7f0e"/>
     <use xlink:href="#m62fcbac0dc" x="363.272727" y="166.726691" style="fill: #ff7f0e; stroke: #ff7f0e"/>
     <use xlink:href="#m62fcbac0dc" x="458.386364" y="111.6" style="fill: #ff7f0e; stroke: #ff7f0e"/>
     <use xlink:href="#m62fcbac0dc" x="553.5" y="145.771767" style="fill: #ff7f0e; stroke: #ff7f0e"/>
     <use xlink:href="#m62fcbac0dc" x="648.613636" y="179.943533" style="fill: #ff7f0e; stroke: #ff7f0e"/>
     <use xlink:href="#m62fcbac0dc" x="743.727273" y="307.727781" style="fill: #ff7f0e; stroke: #ff7f0e"/>
     <use xlink:href="#m62fcbac0dc" x="838.840909" y="307.727781" style="fill: #ff7f0e; stroke: #ff7f0e"/>
     <use xlink:href="#m62fcbac0dc" x="933.954545" y="307.727781" style="fill: #ff7f0e; stroke: #ff7f0e"/>
    </g>
   </g>
   <g id="matplotlib.axis_1">
    <g id="xtick_1">
     <g id="line2d_1">
      <defs>
       <path id="m3385fdae1e" d="M 0 0 
L 0 3.5 
" style="stroke: #000000; stroke-width: 0.8"/>
      </defs>
      <g>
       <use xlink:href="#m3385fdae1e" x="173.045455" y="640.8" style="stroke: #000000; stroke-width: 0.8"/>
      </g>
     </g>
     <g id="text_1">
      <!-- 7 -->
      <g transform="translate(166.046705 664.516562) scale(0.22 -0.22)">
       <defs>
        <path id="DejaVuSans-37" d="M 525 4666 
L 3525 4666 
L 3525 4397 
L 1831 0 
L 1172 0 
L 2766 4134 
L 525 4134 
L 525 4666 
z
" transform="scale(0.015625)"/>
       </defs>
       <use xlink:href="#DejaVuSans-37"/>
      </g>
     </g>
    </g>
    <g id="xtick_2">
     <g id="line2d_2">
      <g>
       <use xlink:href="#m3385fdae1e" x="268.159091" y="640.8" style="stroke: #000000; stroke-width: 0.8"/>
      </g>
     </g>
     <g id="text_2">
      <!-- 8 -->
      <g transform="translate(261.160341 664.516562) scale(0.22 -0.22)">
       <defs>
        <path id="DejaVuSans-38" d="M 2034 2216 
Q 1584 2216 1326 1975 
Q 1069 1734 1069 1313 
Q 1069 891 1326 650 
Q 1584 409 2034 409 
Q 2484 409 2743 651 
Q 3003 894 3003 1313 
Q 3003 1734 2745 1975 
Q 2488 2216 2034 2216 
z
M 1403 2484 
Q 997 2584 770 2862 
Q 544 3141 544 3541 
Q 544 4100 942 4425 
Q 1341 4750 2034 4750 
Q 2731 4750 3128 4425 
Q 3525 4100 3525 3541 
Q 3525 3141 3298 2862 
Q 3072 2584 2669 2484 
Q 3125 2378 3379 2068 
Q 3634 1759 3634 1313 
Q 3634 634 3220 271 
Q 2806 -91 2034 -91 
Q 1263 -91 848 271 
Q 434 634 434 1313 
Q 434 1759 690 2068 
Q 947 2378 1403 2484 
z
M 1172 3481 
Q 1172 3119 1398 2916 
Q 1625 2713 2034 2713 
Q 2441 2713 2670 2916 
Q 2900 3119 2900 3481 
Q 2900 3844 2670 4047 
Q 2441 4250 2034 4250 
Q 1625 4250 1398 4047 
Q 1172 3844 1172 3481 
z
" transform="scale(0.015625)"/>
       </defs>
       <use xlink:href="#DejaVuSans-38"/>
      </g>
     </g>
    </g>
    <g id="xtick_3">
     <g id="line2d_3">
      <g>
       <use xlink:href="#m3385fdae1e" x="363.272727" y="640.8" style="stroke: #000000; stroke-width: 0.8"/>
      </g>
     </g>
     <g id="text_3">
      <!-- 9 -->
      <g transform="translate(356.273977 664.516562) scale(0.22 -0.22)">
       <defs>
        <path id="DejaVuSans-39" d="M 703 97 
L 703 672 
Q 941 559 1184 500 
Q 1428 441 1663 441 
Q 2288 441 2617 861 
Q 2947 1281 2994 2138 
Q 2813 1869 2534 1725 
Q 2256 1581 1919 1581 
Q 1219 1581 811 2004 
Q 403 2428 403 3163 
Q 403 3881 828 4315 
Q 1253 4750 1959 4750 
Q 2769 4750 3195 4129 
Q 3622 3509 3622 2328 
Q 3622 1225 3098 567 
Q 2575 -91 1691 -91 
Q 1453 -91 1209 -44 
Q 966 3 703 97 
z
M 1959 2075 
Q 2384 2075 2632 2365 
Q 2881 2656 2881 3163 
Q 2881 3666 2632 3958 
Q 2384 4250 1959 4250 
Q 1534 4250 1286 3958 
Q 1038 3666 1038 3163 
Q 1038 2656 1286 2365 
Q 1534 2075 1959 2075 
z
" transform="scale(0.015625)"/>
       </defs>
       <use xlink:href="#DejaVuSans-39"/>
      </g>
     </g>
    </g>
    <g id="xtick_4">
     <g id="line2d_4">
      <g>
       <use xlink:href="#m3385fdae1e" x="458.386364" y="640.8" style="stroke: #000000; stroke-width: 0.8"/>
      </g>
     </g>
     <g id="text_4">
      <!-- 10 -->
      <g transform="translate(444.388864 664.516562) scale(0.22 -0.22)">
       <defs>
        <path id="DejaVuSans-31" d="M 794 531 
L 1825 531 
L 1825 4091 
L 703 3866 
L 703 4441 
L 1819 4666 
L 2450 4666 
L 2450 531 
L 3481 531 
L 3481 0 
L 794 0 
L 794 531 
z
" transform="scale(0.015625)"/>
        <path id="DejaVuSans-30" d="M 2034 4250 
Q 1547 4250 1301 3770 
Q 1056 3291 1056 2328 
Q 1056 1369 1301 889 
Q 1547 409 2034 409 
Q 2525 409 2770 889 
Q 3016 1369 3016 2328 
Q 3016 3291 2770 3770 
Q 2525 4250 2034 4250 
z
M 2034 4750 
Q 2819 4750 3233 4129 
Q 3647 3509 3647 2328 
Q 3647 1150 3233 529 
Q 2819 -91 2034 -91 
Q 1250 -91 836 529 
Q 422 1150 422 2328 
Q 422 3509 836 4129 
Q 1250 4750 2034 4750 
z
" transform="scale(0.015625)"/>
       </defs>
       <use xlink:href="#DejaVuSans-31"/>
       <use xlink:href="#DejaVuSans-30" x="63.623047"/>
      </g>
     </g>
    </g>
    <g id="xtick_5">
     <g id="line2d_5">
      <g>
       <use xlink:href="#m3385fdae1e" x="553.5" y="640.8" style="stroke: #000000; stroke-width: 0.8"/>
      </g>
     </g>
     <g id="text_5">
      <!-- 11 -->
      <g transform="translate(539.5025 664.516562) scale(0.22 -0.22)">
       <use xlink:href="#DejaVuSans-31"/>
       <use xlink:href="#DejaVuSans-31" x="63.623047"/>
      </g>
     </g>
    </g>
    <g id="xtick_6">
     <g id="line2d_6">
      <g>
       <use xlink:href="#m3385fdae1e" x="648.613636" y="640.8" style="stroke: #000000; stroke-width: 0.8"/>
      </g>
     </g>
     <g id="text_6">
      <!-- 12 -->
      <g transform="translate(634.616136 664.516562) scale(0.22 -0.22)">
       <defs>
        <path id="DejaVuSans-32" d="M 1228 531 
L 3431 531 
L 3431 0 
L 469 0 
L 469 531 
Q 828 903 1448 1529 
Q 2069 2156 2228 2338 
Q 2531 2678 2651 2914 
Q 2772 3150 2772 3378 
Q 2772 3750 2511 3984 
Q 2250 4219 1831 4219 
Q 1534 4219 1204 4116 
Q 875 4013 500 3803 
L 500 4441 
Q 881 4594 1212 4672 
Q 1544 4750 1819 4750 
Q 2544 4750 2975 4387 
Q 3406 4025 3406 3419 
Q 3406 3131 3298 2873 
Q 3191 2616 2906 2266 
Q 2828 2175 2409 1742 
Q 1991 1309 1228 531 
z
" transform="scale(0.015625)"/>
       </defs>
       <use xlink:href="#DejaVuSans-31"/>
       <use xlink:href="#DejaVuSans-32" x="63.623047"/>
      </g>
     </g>
    </g>
    <g id="xtick_7">
     <g id="line2d_7">
      <g>
       <use xlink:href="#m3385fdae1e" x="743.727273" y="640.8" style="stroke: #000000; stroke-width: 0.8"/>
      </g>
     </g>
     <g id="text_7">
      <!-- 13 -->
      <g transform="translate(729.729773 664.516562) scale(0.22 -0.22)">
       <defs>
        <path id="DejaVuSans-33" d="M 2597 2516 
Q 3050 2419 3304 2112 
Q 3559 1806 3559 1356 
Q 3559 666 3084 287 
Q 2609 -91 1734 -91 
Q 1441 -91 1130 -33 
Q 819 25 488 141 
L 488 750 
Q 750 597 1062 519 
Q 1375 441 1716 441 
Q 2309 441 2620 675 
Q 2931 909 2931 1356 
Q 2931 1769 2642 2001 
Q 2353 2234 1838 2234 
L 1294 2234 
L 1294 2753 
L 1863 2753 
Q 2328 2753 2575 2939 
Q 2822 3125 2822 3475 
Q 2822 3834 2567 4026 
Q 2313 4219 1838 4219 
Q 1578 4219 1281 4162 
Q 984 4106 628 3988 
L 628 4550 
Q 988 4650 1302 4700 
Q 1616 4750 1894 4750 
Q 2613 4750 3031 4423 
Q 3450 4097 3450 3541 
Q 3450 3153 3228 2886 
Q 3006 2619 2597 2516 
z
" transform="scale(0.015625)"/>
       </defs>
       <use xlink:href="#DejaVuSans-31"/>
       <use xlink:href="#DejaVuSans-33" x="63.623047"/>
      </g>
     </g>
    </g>
    <g id="xtick_8">
     <g id="line2d_8">
      <g>
       <use xlink:href="#m3385fdae1e" x="838.840909" y="640.8" style="stroke: #000000; stroke-width: 0.8"/>
      </g>
     </g>
     <g id="text_8">
      <!-- 14 -->
      <g transform="translate(824.843409 664.516562) scale(0.22 -0.22)">
       <defs>
        <path id="DejaVuSans-34" d="M 2419 4116 
L 825 1625 
L 2419 1625 
L 2419 4116 
z
M 2253 4666 
L 3047 4666 
L 3047 1625 
L 3713 1625 
L 3713 1100 
L 3047 1100 
L 3047 0 
L 2419 0 
L 2419 1100 
L 313 1100 
L 313 1709 
L 2253 4666 
z
" transform="scale(0.015625)"/>
       </defs>
       <use xlink:href="#DejaVuSans-31"/>
       <use xlink:href="#DejaVuSans-34" x="63.623047"/>
      </g>
     </g>
    </g>
    <g id="xtick_9">
     <g id="line2d_9">
      <g>
       <use xlink:href="#m3385fdae1e" x="933.954545" y="640.8" style="stroke: #000000; stroke-width: 0.8"/>
      </g>
     </g>
     <g id="text_9">
      <!-- 15 -->
      <g transform="translate(919.957045 664.516562) scale(0.22 -0.22)">
       <defs>
        <path id="DejaVuSans-35" d="M 691 4666 
L 3169 4666 
L 3169 4134 
L 1269 4134 
L 1269 2991 
Q 1406 3038 1543 3061 
Q 1681 3084 1819 3084 
Q 2600 3084 3056 2656 
Q 3513 2228 3513 1497 
Q 3513 744 3044 326 
Q 2575 -91 1722 -91 
Q 1428 -91 1123 -41 
Q 819 9 494 109 
L 494 744 
Q 775 591 1075 516 
Q 1375 441 1709 441 
Q 2250 441 2565 725 
Q 2881 1009 2881 1497 
Q 2881 1984 2565 2268 
Q 2250 2553 1709 2553 
Q 1456 2553 1204 2497 
Q 953 2441 691 2322 
L 691 4666 
z
" transform="scale(0.015625)"/>
       </defs>
       <use xlink:href="#DejaVuSans-31"/>
       <use xlink:href="#DejaVuSans-35" x="63.623047"/>
      </g>
     </g>
    </g>
    <g id="text_10">
     <!-- Time (days) -->
     <g transform="translate(488.541562 689.808437) scale(0.22 -0.22)">
      <defs>
       <path id="DejaVuSans-54" d="M -19 4666 
L 3928 4666 
L 3928 4134 
L 2272 4134 
L 2272 0 
L 1638 0 
L 1638 4134 
L -19 4134 
L -19 4666 
z
" transform="scale(0.015625)"/>
       <path id="DejaVuSans-69" d="M 603 3500 
L 1178 3500 
L 1178 0 
L 603 0 
L 603 3500 
z
M 603 4863 
L 1178 4863 
L 1178 4134 
L 603 4134 
L 603 4863 
z
" transform="scale(0.015625)"/>
       <path id="DejaVuSans-6d" d="M 3328 2828 
Q 3544 3216 3844 3400 
Q 4144 3584 4550 3584 
Q 5097 3584 5394 3201 
Q 5691 2819 5691 2113 
L 5691 0 
L 5113 0 
L 5113 2094 
Q 5113 2597 4934 2840 
Q 4756 3084 4391 3084 
Q 3944 3084 3684 2787 
Q 3425 2491 3425 1978 
L 3425 0 
L 2847 0 
L 2847 2094 
Q 2847 2600 2669 2842 
Q 2491 3084 2119 3084 
Q 1678 3084 1418 2786 
Q 1159 2488 1159 1978 
L 1159 0 
L 581 0 
L 581 3500 
L 1159 3500 
L 1159 2956 
Q 1356 3278 1631 3431 
Q 1906 3584 2284 3584 
Q 2666 3584 2933 3390 
Q 3200 3197 3328 2828 
z
" transform="scale(0.015625)"/>
       <path id="DejaVuSans-65" d="M 3597 1894 
L 3597 1613 
L 953 1613 
Q 991 1019 1311 708 
Q 1631 397 2203 397 
Q 2534 397 2845 478 
Q 3156 559 3463 722 
L 3463 178 
Q 3153 47 2828 -22 
Q 2503 -91 2169 -91 
Q 1331 -91 842 396 
Q 353 884 353 1716 
Q 353 2575 817 3079 
Q 1281 3584 2069 3584 
Q 2775 3584 3186 3129 
Q 3597 2675 3597 1894 
z
M 3022 2063 
Q 3016 2534 2758 2815 
Q 2500 3097 2075 3097 
Q 1594 3097 1305 2825 
Q 1016 2553 972 2059 
L 3022 2063 
z
" transform="scale(0.015625)"/>
       <path id="DejaVuSans-20" transform="scale(0.015625)"/>
       <path id="DejaVuSans-28" d="M 1984 4856 
Q 1566 4138 1362 3434 
Q 1159 2731 1159 2009 
Q 1159 1288 1364 580 
Q 1569 -128 1984 -844 
L 1484 -844 
Q 1016 -109 783 600 
Q 550 1309 550 2009 
Q 550 2706 781 3412 
Q 1013 4119 1484 4856 
L 1984 4856 
z
" transform="scale(0.015625)"/>
       <path id="DejaVuSans-64" d="M 2906 2969 
L 2906 4863 
L 3481 4863 
L 3481 0 
L 2906 0 
L 2906 525 
Q 2725 213 2448 61 
Q 2172 -91 1784 -91 
Q 1150 -91 751 415 
Q 353 922 353 1747 
Q 353 2572 751 3078 
Q 1150 3584 1784 3584 
Q 2172 3584 2448 3432 
Q 2725 3281 2906 2969 
z
M 947 1747 
Q 947 1113 1208 752 
Q 1469 391 1925 391 
Q 2381 391 2643 752 
Q 2906 1113 2906 1747 
Q 2906 2381 2643 2742 
Q 2381 3103 1925 3103 
Q 1469 3103 1208 2742 
Q 947 2381 947 1747 
z
" transform="scale(0.015625)"/>
       <path id="DejaVuSans-61" d="M 2194 1759 
Q 1497 1759 1228 1600 
Q 959 1441 959 1056 
Q 959 750 1161 570 
Q 1363 391 1709 391 
Q 2188 391 2477 730 
Q 2766 1069 2766 1631 
L 2766 1759 
L 2194 1759 
z
M 3341 1997 
L 3341 0 
L 2766 0 
L 2766 531 
Q 2569 213 2275 61 
Q 1981 -91 1556 -91 
Q 1019 -91 701 211 
Q 384 513 384 1019 
Q 384 1609 779 1909 
Q 1175 2209 1959 2209 
L 2766 2209 
L 2766 2266 
Q 2766 2663 2505 2880 
Q 2244 3097 1772 3097 
Q 1472 3097 1187 3025 
Q 903 2953 641 2809 
L 641 3341 
Q 956 3463 1253 3523 
Q 1550 3584 1831 3584 
Q 2591 3584 2966 3190 
Q 3341 2797 3341 1997 
z
" transform="scale(0.015625)"/>
       <path id="DejaVuSans-79" d="M 2059 -325 
Q 1816 -950 1584 -1140 
Q 1353 -1331 966 -1331 
L 506 -1331 
L 506 -850 
L 844 -850 
Q 1081 -850 1212 -737 
Q 1344 -625 1503 -206 
L 1606 56 
L 191 3500 
L 800 3500 
L 1894 763 
L 2988 3500 
L 3597 3500 
L 2059 -325 
z
" transform="scale(0.015625)"/>
       <path id="DejaVuSans-73" d="M 2834 3397 
L 2834 2853 
Q 2591 2978 2328 3040 
Q 2066 3103 1784 3103 
Q 1356 3103 1142 2972 
Q 928 2841 928 2578 
Q 928 2378 1081 2264 
Q 1234 2150 1697 2047 
L 1894 2003 
Q 2506 1872 2764 1633 
Q 3022 1394 3022 966 
Q 3022 478 2636 193 
Q 2250 -91 1575 -91 
Q 1294 -91 989 -36 
Q 684 19 347 128 
L 347 722 
Q 666 556 975 473 
Q 1284 391 1588 391 
Q 1994 391 2212 530 
Q 2431 669 2431 922 
Q 2431 1156 2273 1281 
Q 2116 1406 1581 1522 
L 1381 1569 
Q 847 1681 609 1914 
Q 372 2147 372 2553 
Q 372 3047 722 3315 
Q 1072 3584 1716 3584 
Q 2034 3584 2315 3537 
Q 2597 3491 2834 3397 
z
" transform="scale(0.015625)"/>
       <path id="DejaVuSans-29" d="M 513 4856 
L 1013 4856 
Q 1481 4119 1714 3412 
Q 1947 2706 1947 2009 
Q 1947 1309 1714 600 
Q 1481 -109 1013 -844 
L 513 -844 
Q 928 -128 1133 580 
Q 1338 1288 1338 2009 
Q 1338 2731 1133 3434 
Q 928 4138 513 4856 
z
" transform="scale(0.015625)"/>
      </defs>
      <use xlink:href="#DejaVuSans-54"/>
      <use xlink:href="#DejaVuSans-69" x="57.958984"/>
      <use xlink:href="#DejaVuSans-6d" x="85.742188"/>
      <use xlink:href="#DejaVuSans-65" x="183.154297"/>
      <use xlink:href="#DejaVuSans-20" x="244.677734"/>
      <use xlink:href="#DejaVuSans-28" x="276.464844"/>
      <use xlink:href="#DejaVuSans-64" x="315.478516"/>
      <use xlink:href="#DejaVuSans-61" x="378.955078"/>
      <use xlink:href="#DejaVuSans-79" x="440.234375"/>
      <use xlink:href="#DejaVuSans-73" x="499.414062"/>
      <use xlink:href="#DejaVuSans-29" x="551.513672"/>
     </g>
    </g>
   </g>
   <g id="matplotlib.axis_2">
    <g id="ytick_1">
     <g id="line2d_10">
      <defs>
       <path id="ma600d9e374" d="M 0 0 
L -3.5 0 
" style="stroke: #000000; stroke-width: 0.8"/>
      </defs>
      <g>
       <use xlink:href="#ma600d9e374" x="135" y="615.908529" style="stroke: #000000; stroke-width: 0.8"/>
      </g>
     </g>
     <g id="text_11">
      <!-- 0.00 -->
      <g transform="translate(79.015625 624.26681) scale(0.22 -0.22)">
       <defs>
        <path id="DejaVuSans-2e" d="M 684 794 
L 1344 794 
L 1344 0 
L 684 0 
L 684 794 
z
" transform="scale(0.015625)"/>
       </defs>
       <use xlink:href="#DejaVuSans-30"/>
       <use xlink:href="#DejaVuSans-2e" x="63.623047"/>
       <use xlink:href="#DejaVuSans-30" x="95.410156"/>
       <use xlink:href="#DejaVuSans-30" x="159.033203"/>
      </g>
     </g>
    </g>
    <g id="ytick_2">
     <g id="line2d_11">
      <g>
       <use xlink:href="#ma600d9e374" x="135" y="544.201469" style="stroke: #000000; stroke-width: 0.8"/>
      </g>
     </g>
     <g id="text_12">
      <!-- 0.25 -->
      <g transform="translate(79.015625 552.559751) scale(0.22 -0.22)">
       <use xlink:href="#DejaVuSans-30"/>
       <use xlink:href="#DejaVuSans-2e" x="63.623047"/>
       <use xlink:href="#DejaVuSans-32" x="95.410156"/>
       <use xlink:href="#DejaVuSans-35" x="159.033203"/>
      </g>
     </g>
    </g>
    <g id="ytick_3">
     <g id="line2d_12">
      <g>
       <use xlink:href="#ma600d9e374" x="135" y="472.49441" style="stroke: #000000; stroke-width: 0.8"/>
      </g>
     </g>
     <g id="text_13">
      <!-- 0.50 -->
      <g transform="translate(79.015625 480.852691) scale(0.22 -0.22)">
       <use xlink:href="#DejaVuSans-30"/>
       <use xlink:href="#DejaVuSans-2e" x="63.623047"/>
       <use xlink:href="#DejaVuSans-35" x="95.410156"/>
       <use xlink:href="#DejaVuSans-30" x="159.033203"/>
      </g>
     </g>
    </g>
    <g id="ytick_4">
     <g id="line2d_13">
      <g>
       <use xlink:href="#ma600d9e374" x="135" y="400.78735" style="stroke: #000000; stroke-width: 0.8"/>
      </g>
     </g>
     <g id="text_14">
      <!-- 0.75 -->
      <g transform="translate(79.015625 409.145632) scale(0.22 -0.22)">
       <use xlink:href="#DejaVuSans-30"/>
       <use xlink:href="#DejaVuSans-2e" x="63.623047"/>
       <use xlink:href="#DejaVuSans-37" x="95.410156"/>
       <use xlink:href="#DejaVuSans-35" x="159.033203"/>
      </g>
     </g>
    </g>
    <g id="ytick_5">
     <g id="line2d_14">
      <g>
       <use xlink:href="#ma600d9e374" x="135" y="329.080291" style="stroke: #000000; stroke-width: 0.8"/>
      </g>
     </g>
     <g id="text_15">
      <!-- 1.00 -->
      <g transform="translate(79.015625 337.438572) scale(0.22 -0.22)">
       <use xlink:href="#DejaVuSans-31"/>
       <use xlink:href="#DejaVuSans-2e" x="63.623047"/>
       <use xlink:href="#DejaVuSans-30" x="95.410156"/>
       <use xlink:href="#DejaVuSans-30" x="159.033203"/>
      </g>
     </g>
    </g>
    <g id="ytick_6">
     <g id="line2d_15">
      <g>
       <use xlink:href="#ma600d9e374" x="135" y="257.373231" style="stroke: #000000; stroke-width: 0.8"/>
      </g>
     </g>
     <g id="text_16">
      <!-- 1.25 -->
      <g transform="translate(79.015625 265.731513) scale(0.22 -0.22)">
       <use xlink:href="#DejaVuSans-31"/>
       <use xlink:href="#DejaVuSans-2e" x="63.623047"/>
       <use xlink:href="#DejaVuSans-32" x="95.410156"/>
       <use xlink:href="#DejaVuSans-35" x="159.033203"/>
      </g>
     </g>
    </g>
    <g id="ytick_7">
     <g id="line2d_16">
      <g>
       <use xlink:href="#ma600d9e374" x="135" y="185.666172" style="stroke: #000000; stroke-width: 0.8"/>
      </g>
     </g>
     <g id="text_17">
      <!-- 1.50 -->
      <g transform="translate(79.015625 194.024453) scale(0.22 -0.22)">
       <use xlink:href="#DejaVuSans-31"/>
       <use xlink:href="#DejaVuSans-2e" x="63.623047"/>
       <use xlink:href="#DejaVuSans-35" x="95.410156"/>
       <use xlink:href="#DejaVuSans-30" x="159.033203"/>
      </g>
     </g>
    </g>
    <g id="ytick_8">
     <g id="line2d_17">
      <g>
       <use xlink:href="#ma600d9e374" x="135" y="113.959112" style="stroke: #000000; stroke-width: 0.8"/>
      </g>
     </g>
     <g id="text_18">
      <!-- 1.75 -->
      <g transform="translate(79.015625 122.317393) scale(0.22 -0.22)">
       <use xlink:href="#DejaVuSans-31"/>
       <use xlink:href="#DejaVuSans-2e" x="63.623047"/>
       <use xlink:href="#DejaVuSans-37" x="95.410156"/>
       <use xlink:href="#DejaVuSans-35" x="159.033203"/>
      </g>
     </g>
    </g>
    <g id="text_19">
     <!-- X:A -->
     <g transform="translate(70.440313 382.365312) rotate(-90) scale(0.22 -0.22)">
      <defs>
       <path id="DejaVuSans-58" d="M 403 4666 
L 1081 4666 
L 2241 2931 
L 3406 4666 
L 4084 4666 
L 2584 2425 
L 4184 0 
L 3506 0 
L 2194 1984 
L 872 0 
L 191 0 
L 1856 2491 
L 403 4666 
z
" transform="scale(0.015625)"/>
       <path id="DejaVuSans-3a" d="M 750 794 
L 1409 794 
L 1409 0 
L 750 0 
L 750 794 
z
M 750 3309 
L 1409 3309 
L 1409 2516 
L 750 2516 
L 750 3309 
z
" transform="scale(0.015625)"/>
       <path id="DejaVuSans-41" d="M 2188 4044 
L 1331 1722 
L 3047 1722 
L 2188 4044 
z
M 1831 4666 
L 2547 4666 
L 4325 0 
L 3669 0 
L 3244 1197 
L 1141 1197 
L 716 0 
L 50 0 
L 1831 4666 
z
" transform="scale(0.015625)"/>
      </defs>
      <use xlink:href="#DejaVuSans-58"/>
      <use xlink:href="#DejaVuSans-3a" x="68.505859"/>
      <use xlink:href="#DejaVuSans-41" x="102.197266"/>
     </g>
    </g>
   </g>
   <g id="line2d_18">
    <path d="M 173.045455 615.6 
L 180.731405 615.527326 
L 188.417355 615.441046 
L 196.103306 615.339151 
L 203.789256 615.219361 
L 211.475207 615.079194 
L 219.161157 614.915972 
L 226.847107 614.726819 
L 234.533058 614.508689 
L 242.219008 614.258296 
L 249.904959 613.971702 
L 257.590909 613.644739 
L 265.27686 613.273061 
L 272.96281 612.852137 
L 280.64876 612.377257 
L 288.334711 611.843532 
L 296.020661 611.245889 
L 303.706612 610.579321 
L 311.392562 609.838394 
L 319.078512 609.016459 
L 326.764463 608.106984 
L 334.450413 607.103596 
L 342.136364 606.000088 
L 349.822314 604.790416 
L 357.508264 603.468701 
L 365.194215 602.029227 
L 372.880165 600.466442 
L 380.566116 598.774957 
L 388.252066 596.950055 
L 395.938017 594.987153 
L 403.623967 592.880281 
L 411.309917 590.624191 
L 418.995868 588.214428 
L 426.681818 585.647335 
L 434.367769 582.920049 
L 442.053719 580.030505 
L 449.739669 576.977433 
L 457.42562 573.760359 
L 465.11157 570.379605 
L 472.797521 566.836289 
L 480.483471 563.132326 
L 488.169421 559.270426 
L 495.855372 555.253315 
L 503.541322 551.081726 
L 511.227273 546.760025 
L 518.913223 542.293242 
L 526.599174 537.686608 
L 534.285124 532.945559 
L 541.971074 528.075733 
L 549.657025 523.082972 
L 557.342975 517.973321 
L 565.028926 512.753028 
L 572.714876 507.428545 
L 580.400826 502.006526 
L 588.086777 496.493829 
L 595.772727 490.897515 
L 603.458678 485.224848 
L 611.144628 479.483298 
L 618.830579 473.680533 
L 626.516529 467.824429 
L 634.202479 461.923063 
L 641.88843 455.984716 
L 649.57438 450.017676 
L 657.260331 444.02751 
L 664.946281 438.019756 
L 672.632231 432.000249 
L 680.318182 425.974626 
L 688.004132 419.948325 
L 695.690083 413.926591 
L 703.376033 407.914469 
L 711.061983 401.916809 
L 718.747934 395.938263 
L 726.433884 389.983286 
L 734.119835 384.056136 
L 741.805785 378.160876 
L 749.491736 372.301369 
L 757.177686 366.481284 
L 764.863636 360.704091 
L 772.549587 354.973064 
L 780.235537 349.291279 
L 787.921488 343.661618 
L 795.607438 338.086762 
L 803.293388 332.569198 
L 810.979339 327.111215 
L 818.665289 321.714906 
L 826.35124 316.382166 
L 834.03719 311.114693 
L 841.72314 305.913988 
L 849.409091 300.781357 
L 857.095041 295.717907 
L 864.780992 290.724549 
L 872.466942 285.801996 
L 880.152893 280.950766 
L 887.838843 276.171178 
L 895.524793 271.463356 
L 903.210744 266.827225 
L 910.896694 262.262516 
L 918.582645 257.769498 
L 926.268595 253.349018 
L 933.954545 249.001064 
" clip-path="url(#p294e5309c2)" style="fill: none; stroke: #d0e1f2; stroke-width: 1.5; stroke-linecap: square"/>
   </g>
   <g id="line2d_19">
    <path d="M 173.045455 156.22457 
L 180.731405 157.754009 
L 188.417355 159.276379 
L 196.103306 160.791709 
L 203.789256 162.300025 
L 211.475207 163.801351 
L 219.161157 165.295712 
L 226.847107 166.783128 
L 234.533058 168.263621 
L 242.219008 169.737209 
L 249.904959 171.203908 
L 257.590909 172.66373 
L 265.27686 174.116688 
L 272.96281 175.562792 
L 280.64876 177.002049 
L 288.334711 178.434464 
L 296.020661 179.860044 
L 303.706612 181.278789 
L 311.392562 182.6907 
L 319.078512 184.09577 
L 326.764463 185.493992 
L 334.450413 186.885358 
L 342.136364 188.269856 
L 349.822314 189.647475 
L 357.508264 191.018201 
L 365.194215 192.382021 
L 372.880165 193.738917 
L 380.566116 195.088872 
L 388.252066 196.43187 
L 395.938017 197.767894 
L 403.623967 199.096915 
L 411.309917 200.418908 
L 418.995868 201.733849 
L 426.681818 203.041714 
L 434.367769 204.342483 
L 442.053719 205.636135 
L 449.739669 206.922652 
L 457.42562 208.202017 
L 465.11157 209.474214 
L 472.797521 210.739229 
L 480.483471 211.99705 
L 488.169421 213.247666 
L 495.855372 214.491067 
L 503.541322 215.727247 
L 511.227273 216.956201 
L 518.913223 218.17793 
L 526.599174 219.392435 
L 534.285124 220.599722 
L 541.971074 221.799797 
L 549.657025 222.992672 
L 557.342975 224.178361 
L 565.028926 225.35688 
L 572.714876 226.528248 
L 580.400826 227.692487 
L 588.086777 228.849624 
L 595.772727 229.999686 
L 603.458678 231.142704 
L 611.144628 232.278712 
L 618.830579 233.407747 
L 626.516529 234.529849 
L 634.202479 235.645061 
L 641.88843 236.753427 
L 649.57438 237.854994 
L 657.260331 238.949788 
L 664.946281 240.037855 
L 672.632231 241.119252 
L 680.318182 242.194035 
L 688.004132 243.262258 
L 695.690083 244.323977 
L 703.376033 245.379248 
L 711.061983 246.428126 
L 718.747934 247.470665 
L 726.433884 248.506922 
L 734.119835 249.53695 
L 741.805785 250.560806 
L 749.491736 251.578544 
L 757.177686 252.590219 
L 764.863636 253.595886 
L 772.549587 254.595599 
L 780.235537 255.589413 
L 787.921488 256.577382 
L 795.607438 257.559562 
L 803.293388 258.536005 
L 810.979339 259.506768 
L 818.665289 260.471904 
L 826.35124 261.431467 
L 834.03719 262.385511 
L 841.72314 263.334091 
L 849.409091 264.27726 
L 857.095041 265.215072 
L 864.780992 266.147581 
L 872.466942 267.074841 
L 880.152893 267.996906 
L 887.838843 268.913828 
L 895.524793 269.825663 
L 903.210744 270.732462 
L 910.896694 271.63428 
L 918.582645 272.531163 
L 926.268595 273.423153 
L 933.954545 274.310297 
" clip-path="url(#p294e5309c2)" style="fill: none; stroke: #fdd9b4; stroke-width: 1.5; stroke-linecap: square"/>
   </g>
   <g id="line2d_20">
    <path d="M 173.045455 615.6 
L 180.731405 607.142352 
L 188.417355 601.068148 
L 196.103306 596.540432 
L 203.789256 593.022282 
L 211.475207 590.226692 
L 219.161157 587.946056 
L 226.847107 586.027419 
L 234.533058 584.390949 
L 242.219008 582.981392 
L 249.904959 581.75053 
L 257.590909 580.657621 
L 265.27686 579.670243 
L 272.96281 578.772731 
L 280.64876 577.952498 
L 288.334711 577.197236 
L 296.020661 576.496229 
L 303.706612 575.840348 
L 311.392562 575.222056 
L 319.078512 574.635419 
L 326.764463 574.075998 
L 334.450413 573.539913 
L 342.136364 573.023557 
L 349.822314 572.523602 
L 357.508264 572.037005 
L 365.194215 571.561002 
L 372.880165 571.093113 
L 380.566116 570.631139 
L 388.252066 570.173158 
L 395.938017 569.717102 
L 403.623967 569.260841 
L 411.309917 568.802336 
L 418.995868 568.339474 
L 426.681818 567.870077 
L 434.367769 567.391895 
L 442.053719 566.902609 
L 449.739669 566.399821 
L 457.42562 565.880448 
L 465.11157 565.341412 
L 472.797521 564.779319 
L 480.483471 564.189997 
L 488.169421 563.568504 
L 495.855372 562.909118 
L 503.541322 562.205344 
L 511.227273 561.449833 
L 518.913223 560.630535 
L 526.599174 559.738865 
L 534.285124 558.763908 
L 541.971074 557.687908 
L 549.657025 556.486269 
L 557.342975 555.127555 
L 565.028926 553.573491 
L 572.714876 551.778955 
L 580.400826 549.643307 
L 588.086777 547.114222 
L 595.772727 544.12127 
L 603.458678 540.475655 
L 611.144628 535.870217 
L 618.830579 529.879429 
L 626.516529 521.959401 
L 634.202479 511.449756 
L 641.88843 497.522719 
L 649.57438 479.221609 
L 657.260331 456.703922 
L 664.946281 431.464966 
L 672.632231 405.785496 
L 680.318182 381.782118 
L 688.004132 360.750656 
L 695.690083 343.148185 
L 703.376033 328.841269 
L 711.061983 317.474444 
L 718.747934 308.562912 
L 726.433884 301.639571 
L 734.119835 296.317777 
L 741.805785 292.241736 
L 749.491736 289.110868 
L 757.177686 286.735359 
L 764.863636 284.951177 
L 772.549587 283.600418 
L 780.235537 282.551813 
L 787.921488 281.753888 
L 795.607438 281.166832 
L 803.293388 280.742781 
L 810.979339 280.425817 
L 818.665289 280.159826 
L 826.35124 279.938901 
L 834.03719 279.772983 
L 841.72314 279.663484 
L 849.409091 279.603361 
L 857.095041 279.577111 
L 864.780992 279.560774 
L 872.466942 279.524314 
L 880.152893 279.481319 
L 887.838843 279.446268 
L 895.524793 279.421333 
L 903.210744 279.40694 
L 910.896694 279.401759 
L 918.582645 279.40271 
L 926.268595 279.404962 
L 933.954545 279.401932 
" clip-path="url(#p294e5309c2)" style="fill: none; stroke: #79b5d9; stroke-width: 1.5; stroke-linecap: square"/>
   </g>
   <g id="line2d_21">
    <path d="M 173.045455 156.22457 
L 180.731405 151.904126 
L 188.417355 149.088813 
L 196.103306 147.284889 
L 203.789256 146.113429 
L 211.475207 145.396812 
L 219.161157 144.990418 
L 226.847107 144.718179 
L 234.533058 144.528703 
L 242.219008 144.462696 
L 249.904959 144.509152 
L 257.590909 144.600857 
L 265.27686 144.626593 
L 272.96281 144.608787 
L 280.64876 144.609736 
L 288.334711 144.655654 
L 296.020661 144.749118 
L 303.706612 144.869065 
L 311.392562 144.970794 
L 319.078512 144.988805 
L 326.764463 144.922363 
L 334.450413 144.84916 
L 342.136364 144.826406 
L 349.822314 144.884883 
L 357.508264 145.028946 
L 365.194215 145.236523 
L 372.880165 145.459114 
L 380.566116 145.621793 
L 388.252066 145.624152 
L 395.938017 145.471069 
L 403.623967 145.312059 
L 411.309917 145.244837 
L 418.995868 145.314693 
L 426.681818 145.514489 
L 434.367769 145.784667 
L 442.053719 146.013238 
L 449.739669 146.037648 
L 457.42562 145.863599 
L 465.11157 145.684861 
L 472.797521 145.613558 
L 480.483471 145.701788 
L 488.169421 145.941626 
L 495.855372 146.265118 
L 503.541322 146.544287 
L 511.227273 146.593093 
L 518.913223 146.409065 
L 526.599174 146.218491 
L 534.285124 146.161322 
L 541.971074 146.306155 
L 549.657025 146.650235 
L 557.342975 147.119449 
L 565.028926 147.568334 
L 572.714876 147.780084 
L 580.400826 147.716546 
L 588.086777 147.666773 
L 595.772727 147.811686 
L 603.458678 148.26873 
L 611.144628 149.091866 
L 618.830579 150.271576 
L 626.516529 151.734863 
L 634.202479 153.350975 
L 641.88843 155.546825 
L 649.57438 159.231714 
L 657.260331 165.039522 
L 664.946281 173.427337 
L 672.632231 184.594227 
L 680.318182 198.108618 
L 688.004132 213.013745 
L 695.690083 227.955308 
L 703.376033 242.303 
L 711.061983 255.584318 
L 718.747934 267.007807 
L 726.433884 276.659316 
L 734.119835 284.824929 
L 741.805785 291.49901 
L 749.491736 296.773735 
L 757.177686 301.027223 
L 764.863636 304.480371 
L 772.549587 307.187216 
L 780.235537 309.212478 
L 787.921488 310.785805 
L 795.607438 312.033078 
L 803.293388 313.028037 
L 810.979339 313.792319 
L 818.665289 314.32858 
L 826.35124 314.726129 
L 834.03719 315.035957 
L 841.72314 315.290363 
L 849.409091 315.506754 
L 857.095041 315.687648 
L 864.780992 315.820672 
L 872.466942 315.878047 
L 880.152893 315.849654 
L 887.838843 315.804131 
L 895.524793 315.797339 
L 903.210744 315.856182 
L 910.896694 315.978609 
L 918.582645 316.13361 
L 926.268595 316.261218 
L 933.954545 316.272509 
" clip-path="url(#p294e5309c2)" style="fill: none; stroke: #fd9649; stroke-width: 1.5; stroke-linecap: square"/>
   </g>
   <g id="line2d_22">
    <path d="M 173.045455 615.6 
L 180.731405 595.214247 
L 188.417355 583.143283 
L 196.103306 576.002144 
L 203.789256 571.759843 
L 211.475207 569.263891 
L 219.161157 567.770394 
L 226.847107 566.891866 
L 234.533058 566.377009 
L 242.219008 566.05426 
L 249.904959 565.875621 
L 257.590909 565.770128 
L 265.27686 565.69178 
L 272.96281 565.647895 
L 280.64876 565.629337 
L 288.334711 565.610652 
L 296.020661 565.58712 
L 303.706612 565.569969 
L 311.392562 565.561301 
L 319.078512 565.556164 
L 326.764463 565.542667 
L 334.450413 565.515847 
L 342.136364 565.486876 
L 349.822314 565.462856 
L 357.508264 565.44553 
L 365.194215 565.431278 
L 372.880165 565.41112 
L 380.566116 565.370741 
L 388.252066 565.303369 
L 395.938017 565.228447 
L 403.623967 565.160403 
L 411.309917 565.102919 
L 418.995868 565.048929 
L 426.681818 564.980618 
L 434.367769 564.869425 
L 442.053719 564.695998 
L 449.739669 564.496144 
L 457.42562 564.299882 
L 465.11157 564.115419 
L 472.797521 563.929145 
L 480.483471 563.70564 
L 488.169421 563.38767 
L 495.855372 562.944673 
L 503.541322 562.437116 
L 511.227273 561.891253 
L 518.913223 561.303262 
L 526.599174 560.639479 
L 534.285124 559.836392 
L 541.971074 558.82315 
L 549.657025 557.642928 
L 557.342975 556.264956 
L 565.028926 554.640915 
L 572.714876 552.723939 
L 580.400826 550.468618 
L 588.086777 547.833907 
L 595.772727 544.733251 
L 603.458678 541.018911 
L 611.144628 536.592803 
L 618.830579 531.416716 
L 626.516529 525.385468 
L 634.202479 518.166108 
L 641.88843 509.579431 
L 649.57438 499.65416 
L 657.260331 488.385077 
L 664.946281 475.326192 
L 672.632231 460.350756 
L 680.318182 443.810271 
L 688.004132 426.013898 
L 695.690083 406.878606 
L 703.376033 386.7895 
L 711.061983 366.607304 
L 718.747934 346.994579 
L 726.433884 328.620406 
L 734.119835 312.191759 
L 741.805785 298.375634 
L 749.491736 287.62264 
L 757.177686 279.811323 
L 764.863636 274.714234 
L 772.549587 272.084182 
L 780.235537 271.475334 
L 787.921488 271.799891 
L 795.607438 272.49713 
L 803.293388 273.667961 
L 810.979339 274.999045 
L 818.665289 276.039193 
L 826.35124 276.697491 
L 834.03719 277.110875 
L 841.72314 277.275342 
L 849.409091 277.269879 
L 857.095041 277.205682 
L 864.780992 277.149646 
L 872.466942 277.124358 
L 880.152893 277.097149 
L 887.838843 277.011857 
L 895.524793 276.930677 
L 903.210744 276.894459 
L 910.896694 276.906019 
L 918.582645 276.930141 
L 926.268595 276.908956 
L 933.954545 276.880666 
" clip-path="url(#p294e5309c2)" style="fill: none; stroke: #2575b7; stroke-width: 1.5; stroke-linecap: square"/>
   </g>
   <g id="line2d_23">
    <path d="M 173.045455 156.22457 
L 180.731405 156.225705 
L 188.417355 156.227024 
L 196.103306 156.228559 
L 203.789256 156.230344 
L 211.475207 156.232421 
L 219.161157 156.234837 
L 226.847107 156.237647 
L 234.533058 156.240916 
L 242.219008 156.244719 
L 249.904959 156.249142 
L 257.590909 156.254288 
L 265.27686 156.260273 
L 272.96281 156.267236 
L 280.64876 156.275334 
L 288.334711 156.284756 
L 296.020661 156.295715 
L 303.706612 156.30846 
L 311.392562 156.323284 
L 319.078512 156.34053 
L 326.764463 156.36059 
L 334.450413 156.383929 
L 342.136364 156.411061 
L 349.822314 156.4426 
L 357.508264 156.47928 
L 365.194215 156.521957 
L 372.880165 156.57161 
L 380.566116 156.62934 
L 388.252066 156.696469 
L 395.938017 156.774482 
L 403.623967 156.865127 
L 411.309917 156.970494 
L 418.995868 157.093017 
L 426.681818 157.235472 
L 434.367769 157.400978 
L 442.053719 157.593223 
L 449.739669 157.816426 
L 457.42562 158.075473 
L 465.11157 158.376158 
L 472.797521 158.725186 
L 480.483471 159.130171 
L 488.169421 159.599635 
L 495.855372 160.143349 
L 503.541322 160.772761 
L 511.227273 161.50086 
L 518.913223 162.342501 
L 526.599174 163.31441 
L 534.285124 164.43518 
L 541.971074 165.725251 
L 549.657025 167.20767 
L 557.342975 168.908541 
L 565.028926 170.855444 
L 572.714876 173.077301 
L 580.400826 175.604381 
L 588.086777 178.468073 
L 595.772727 181.699809 
L 603.458678 185.329492 
L 611.144628 189.382734 
L 618.830579 193.880545 
L 626.516529 198.837228 
L 634.202479 204.258239 
L 641.88843 210.137909 
L 649.57438 216.459013 
L 657.260331 223.192563 
L 664.946281 230.299687 
L 672.632231 237.731152 
L 680.318182 245.426561 
L 688.004132 253.308688 
L 695.690083 261.313487 
L 703.376033 269.326438 
L 711.061983 277.157833 
L 718.747934 284.557428 
L 726.433884 291.239472 
L 734.119835 296.859005 
L 741.805785 301.009255 
L 749.491736 303.518989 
L 757.177686 304.67986 
L 764.863636 304.772142 
L 772.549587 304.020137 
L 780.235537 302.821266 
L 787.921488 301.732129 
L 795.607438 300.944984 
L 803.293388 300.270257 
L 810.979339 299.774347 
L 818.665289 299.532192 
L 826.35124 299.478321 
L 834.03719 299.515408 
L 841.72314 299.650354 
L 849.409091 299.793555 
L 857.095041 299.868267 
L 864.780992 299.863066 
L 872.466942 299.831844 
L 880.152893 299.868516 
L 887.838843 299.922492 
L 895.524793 299.960044 
L 903.210744 299.973257 
L 910.896694 299.966344 
L 918.582645 299.955637 
L 926.268595 299.963109 
L 933.954545 299.970334 
" clip-path="url(#p294e5309c2)" style="fill: none; stroke: #dc4c03; stroke-width: 1.5; stroke-linecap: square"/>
   </g>
   <g id="line2d_24">
    <path d="M 173.045455 615.6 
L 180.731405 607.77762 
L 188.417355 602.495883 
L 196.103306 598.655873 
L 203.789256 595.707669 
L 211.475207 593.371683 
L 219.161157 591.449944 
L 226.847107 589.828481 
L 234.533058 588.443131 
L 242.219008 587.240426 
L 249.904959 586.176691 
L 257.590909 585.219515 
L 265.27686 584.352358 
L 272.96281 583.560924 
L 280.64876 582.83236 
L 288.334711 582.155649 
L 296.020661 581.521609 
L 303.706612 580.922896 
L 311.392562 580.354174 
L 319.078512 579.811457 
L 326.764463 579.291021 
L 334.450413 578.78933 
L 342.136364 578.303037 
L 349.822314 577.828983 
L 357.508264 577.364199 
L 365.194215 576.905902 
L 372.880165 576.451833 
L 380.566116 576.000717 
L 388.252066 575.551143 
L 395.938017 575.101353 
L 403.623967 574.649237 
L 411.309917 574.192339 
L 418.995868 573.727852 
L 426.681818 573.25279 
L 434.367769 572.765509 
L 442.053719 572.26455 
L 449.739669 571.747624 
L 457.42562 571.211632 
L 465.11157 570.652657 
L 472.797521 570.065967 
L 480.483471 569.446013 
L 488.169421 568.787011 
L 495.855372 568.084727 
L 503.541322 567.333166 
L 511.227273 566.52365 
L 518.913223 565.644817 
L 526.599174 564.682619 
L 534.285124 563.620322 
L 541.971074 562.435644 
L 549.657025 561.10567 
L 557.342975 559.607053 
L 565.028926 557.898744 
L 572.714876 555.921508 
L 580.400826 553.597923 
L 588.086777 550.832386 
L 595.772727 547.500713 
L 603.458678 543.426942 
L 611.144628 538.35192 
L 618.830579 531.896703 
L 626.516529 523.56184 
L 634.202479 512.727377 
L 641.88843 498.653348 
L 649.57438 480.668721 
L 657.260331 458.606442 
L 664.946281 433.297712 
L 672.632231 406.716524 
L 680.318182 381.175762 
L 688.004132 358.220073 
L 695.690083 338.740973 
L 703.376033 322.911419 
L 711.061983 310.381929 
L 718.747934 300.693663 
L 726.433884 293.338572 
L 734.119835 287.776782 
L 741.805785 283.603726 
L 749.491736 280.519872 
L 757.177686 278.241165 
L 764.863636 276.523729 
L 772.549587 275.254999 
L 780.235537 274.348327 
L 787.921488 273.702894 
L 795.607438 273.206576 
L 803.293388 272.808855 
L 810.979339 272.51696 
L 818.665289 272.324935 
L 826.35124 272.211918 
L 834.03719 272.142142 
L 841.72314 272.066584 
L 849.409091 271.980359 
L 857.095041 271.907509 
L 864.780992 271.859154 
L 872.466942 271.839445 
L 880.152893 271.845562 
L 887.838843 271.867717 
L 895.524793 271.889148 
L 903.210744 271.886142 
L 910.896694 271.865833 
L 918.582645 271.851158 
L 926.268595 271.840814 
L 933.954545 271.83329 
" clip-path="url(#p294e5309c2)" style="fill: none; stroke: #08306b; stroke-width: 1.5; stroke-linecap: square"/>
   </g>
   <g id="line2d_25">
    <path d="M 173.045455 156.22457 
L 180.731405 151.31888 
L 188.417355 148.304817 
L 196.103306 146.497402 
L 203.789256 145.424231 
L 211.475207 144.864185 
L 219.161157 144.573898 
L 226.847107 144.386732 
L 234.533058 144.34867 
L 242.219008 144.452804 
L 249.904959 144.603909 
L 257.590909 144.661863 
L 265.27686 144.692524 
L 272.96281 144.758242 
L 280.64876 144.878328 
L 288.334711 145.037653 
L 296.020661 145.186648 
L 303.706612 145.245607 
L 311.392562 145.215568 
L 319.078512 145.186756 
L 326.764463 145.220777 
L 334.450413 145.34463 
L 342.136364 145.550711 
L 349.822314 145.796809 
L 357.508264 146.006111 
L 365.194215 146.067235 
L 372.880165 145.944164 
L 380.566116 145.804774 
L 388.252066 145.771971 
L 395.938017 145.897944 
L 403.623967 146.164158 
L 411.309917 146.481363 
L 418.995868 146.689584 
L 426.681818 146.605376 
L 434.367769 146.386814 
L 442.053719 146.249006 
L 449.739669 146.304793 
L 457.42562 146.572994 
L 465.11157 146.978411 
L 472.797521 147.351826 
L 480.483471 147.431745 
L 488.169421 147.194021 
L 495.855372 146.964902 
L 503.541322 146.938748 
L 511.227273 147.189823 
L 518.913223 147.672293 
L 526.599174 148.220227 
L 534.285124 148.5476 
L 541.971074 148.441188 
L 549.657025 148.286227 
L 557.342975 148.323216 
L 565.028926 148.657504 
L 572.714876 149.270387 
L 580.400826 150.01911 
L 588.086777 150.636865 
L 595.772727 150.945949 
L 603.458678 151.340618 
L 611.144628 152.089768 
L 618.830579 153.377817 
L 626.516529 155.312387 
L 634.202479 157.924309 
L 641.88843 161.168451 
L 649.57438 165.421636 
L 657.260331 171.694214 
L 664.946281 180.405834 
L 672.632231 191.303966 
L 680.318182 203.720485 
L 688.004132 217.165271 
L 695.690083 230.819304 
L 703.376033 243.425208 
L 711.061983 254.332659 
L 718.747934 263.953537 
L 726.433884 272.201923 
L 734.119835 278.611688 
L 741.805785 283.678732 
L 749.491736 287.772683 
L 757.177686 290.974039 
L 764.863636 293.336946 
L 772.549587 295.150511 
L 780.235537 296.583266 
L 787.921488 297.703479 
L 795.607438 298.492318 
L 803.293388 299.046938 
L 810.979339 299.468208 
L 818.665289 299.806836 
L 826.35124 300.085986 
L 834.03719 300.301273 
L 841.72314 300.419754 
L 849.409091 300.414828 
L 857.095041 300.375425 
L 864.780992 300.379589 
L 872.466942 300.46548 
L 880.152893 300.631382 
L 887.838843 300.835698 
L 895.524793 300.996951 
L 903.210744 300.993878 
L 910.896694 300.887596 
L 918.582645 300.827086 
L 926.268595 300.803984 
L 933.954545 300.792618 
" clip-path="url(#p294e5309c2)" style="fill: none; stroke: #7f2704; stroke-width: 1.5; stroke-linecap: square"/>
   </g>
   <g id="patch_3">
    <path d="M 135 640.8 
L 135 86.4 
" style="fill: none; stroke: #000000; stroke-width: 0.8; stroke-linejoin: miter; stroke-linecap: square"/>
   </g>
   <g id="patch_4">
    <path d="M 972 640.8 
L 972 86.4 
" style="fill: none; stroke: #000000; stroke-width: 0.8; stroke-linejoin: miter; stroke-linecap: square"/>
   </g>
   <g id="patch_5">
    <path d="M 135 640.8 
L 972 640.8 
" style="fill: none; stroke: #000000; stroke-width: 0.8; stroke-linejoin: miter; stroke-linecap: square"/>
   </g>
   <g id="patch_6">
    <path d="M 135 86.4 
L 972 86.4 
" style="fill: none; stroke: #000000; stroke-width: 0.8; stroke-linejoin: miter; stroke-linecap: square"/>
   </g>
   <g id="legend_1">
    <g id="patch_7">
     <path d="M 150.4 528.359375 
L 318.806563 528.359375 
Q 323.206563 528.359375 323.206563 523.959375 
L 323.206563 203.240625 
Q 323.206563 198.840625 318.806563 198.840625 
L 150.4 198.840625 
Q 146 198.840625 146 203.240625 
L 146 523.959375 
Q 146 528.359375 150.4 528.359375 
z
" style="fill: #ffffff; opacity: 0.8; stroke: #cccccc; stroke-linejoin: miter"/>
    </g>
    <g id="PathCollection_3">
     <g>
      <use xlink:href="#m80f1702e56" x="176.8" y="218.582187" style="fill: #1f77b4; stroke: #1f77b4"/>
     </g>
    </g>
    <g id="text_20">
     <!-- Xi -->
     <g transform="translate(216.4 224.357187) scale(0.22 -0.22)">
      <use xlink:href="#DejaVuSans-58"/>
      <use xlink:href="#DejaVuSans-69" x="68.505859"/>
     </g>
    </g>
    <g id="PathCollection_4">
     <g>
      <use xlink:href="#m62fcbac0dc" x="176.8" y="250.874062" style="fill: #ff7f0e; stroke: #ff7f0e"/>
     </g>
    </g>
    <g id="text_21">
     <!-- Xa -->
     <g transform="translate(216.4 256.649062) scale(0.22 -0.22)">
      <use xlink:href="#DejaVuSans-58"/>
      <use xlink:href="#DejaVuSans-61" x="68.505859"/>
     </g>
    </g>
    <g id="line2d_26">
     <path d="M 154.8 281.240937 
L 176.8 281.240937 
L 198.8 281.240937 
" style="fill: none; stroke: #d0e1f2; stroke-width: 1.5; stroke-linecap: square"/>
    </g>
    <g id="text_22">
     <!-- Xi-AAAA -->
     <g transform="translate(216.4 288.940937) scale(0.22 -0.22)">
      <defs>
       <path id="DejaVuSans-2d" d="M 313 2009 
L 1997 2009 
L 1997 1497 
L 313 1497 
L 313 2009 
z
" transform="scale(0.015625)"/>
      </defs>
      <use xlink:href="#DejaVuSans-58"/>
      <use xlink:href="#DejaVuSans-69" x="68.505859"/>
      <use xlink:href="#DejaVuSans-2d" x="96.289062"/>
      <use xlink:href="#DejaVuSans-41" x="130.123047"/>
      <use xlink:href="#DejaVuSans-41" x="201.28125"/>
      <use xlink:href="#DejaVuSans-41" x="272.439453"/>
      <use xlink:href="#DejaVuSans-41" x="343.597656"/>
     </g>
    </g>
    <g id="line2d_27">
     <path d="M 154.8 313.532812 
L 176.8 313.532812 
L 198.8 313.532812 
" style="fill: none; stroke: #fdd9b4; stroke-width: 1.5; stroke-linecap: square"/>
    </g>
    <g id="text_23">
     <!-- Xa-AAAA -->
     <g transform="translate(216.4 321.232812) scale(0.22 -0.22)">
      <use xlink:href="#DejaVuSans-58"/>
      <use xlink:href="#DejaVuSans-61" x="68.505859"/>
      <use xlink:href="#DejaVuSans-2d" x="129.785156"/>
      <use xlink:href="#DejaVuSans-41" x="163.619141"/>
      <use xlink:href="#DejaVuSans-41" x="234.777344"/>
      <use xlink:href="#DejaVuSans-41" x="305.935547"/>
      <use xlink:href="#DejaVuSans-41" x="377.09375"/>
     </g>
    </g>
    <g id="line2d_28">
     <path d="M 154.8 345.824687 
L 176.8 345.824687 
L 198.8 345.824687 
" style="fill: none; stroke: #79b5d9; stroke-width: 1.5; stroke-linecap: square"/>
    </g>
    <g id="text_24">
     <!-- Xi-AIAA -->
     <g transform="translate(216.4 353.524687) scale(0.22 -0.22)">
      <defs>
       <path id="DejaVuSans-49" d="M 628 4666 
L 1259 4666 
L 1259 0 
L 628 0 
L 628 4666 
z
" transform="scale(0.015625)"/>
      </defs>
      <use xlink:href="#DejaVuSans-58"/>
      <use xlink:href="#DejaVuSans-69" x="68.505859"/>
      <use xlink:href="#DejaVuSans-2d" x="96.289062"/>
      <use xlink:href="#DejaVuSans-41" x="130.123047"/>
      <use xlink:href="#DejaVuSans-49" x="198.53125"/>
      <use xlink:href="#DejaVuSans-41" x="228.023438"/>
      <use xlink:href="#DejaVuSans-41" x="299.181641"/>
     </g>
    </g>
    <g id="line2d_29">
     <path d="M 154.8 378.116562 
L 176.8 378.116562 
L 198.8 378.116562 
" style="fill: none; stroke: #fd9649; stroke-width: 1.5; stroke-linecap: square"/>
    </g>
    <g id="text_25">
     <!-- Xa-AIAA -->
     <g transform="translate(216.4 385.816562) scale(0.22 -0.22)">
      <use xlink:href="#DejaVuSans-58"/>
      <use xlink:href="#DejaVuSans-61" x="68.505859"/>
      <use xlink:href="#DejaVuSans-2d" x="129.785156"/>
      <use xlink:href="#DejaVuSans-41" x="163.619141"/>
      <use xlink:href="#DejaVuSans-49" x="232.027344"/>
      <use xlink:href="#DejaVuSans-41" x="261.519531"/>
      <use xlink:href="#DejaVuSans-41" x="332.677734"/>
     </g>
    </g>
    <g id="line2d_30">
     <path d="M 154.8 410.408437 
L 176.8 410.408437 
L 198.8 410.408437 
" style="fill: none; stroke: #2575b7; stroke-width: 1.5; stroke-linecap: square"/>
    </g>
    <g id="text_26">
     <!-- Xi-IAAA -->
     <g transform="translate(216.4 418.108437) scale(0.22 -0.22)">
      <use xlink:href="#DejaVuSans-58"/>
      <use xlink:href="#DejaVuSans-69" x="68.505859"/>
      <use xlink:href="#DejaVuSans-2d" x="96.289062"/>
      <use xlink:href="#DejaVuSans-49" x="132.373047"/>
      <use xlink:href="#DejaVuSans-41" x="161.865234"/>
      <use xlink:href="#DejaVuSans-41" x="233.023438"/>
      <use xlink:href="#DejaVuSans-41" x="304.181641"/>
     </g>
    </g>
    <g id="line2d_31">
     <path d="M 154.8 442.700312 
L 176.8 442.700312 
L 198.8 442.700312 
" style="fill: none; stroke: #dc4c03; stroke-width: 1.5; stroke-linecap: square"/>
    </g>
    <g id="text_27">
     <!-- Xa-IAAA -->
     <g transform="translate(216.4 450.400312) scale(0.22 -0.22)">
      <use xlink:href="#DejaVuSans-58"/>
      <use xlink:href="#DejaVuSans-61" x="68.505859"/>
      <use xlink:href="#DejaVuSans-2d" x="129.785156"/>
      <use xlink:href="#DejaVuSans-49" x="165.869141"/>
      <use xlink:href="#DejaVuSans-41" x="195.361328"/>
      <use xlink:href="#DejaVuSans-41" x="266.519531"/>
      <use xlink:href="#DejaVuSans-41" x="337.677734"/>
     </g>
    </g>
    <g id="line2d_32">
     <path d="M 154.8 474.992188 
L 176.8 474.992188 
L 198.8 474.992188 
" style="fill: none; stroke: #08306b; stroke-width: 1.5; stroke-linecap: square"/>
    </g>
    <g id="text_28">
     <!-- Xi-IIAA -->
     <g transform="translate(216.4 482.692187) scale(0.22 -0.22)">
      <use xlink:href="#DejaVuSans-58"/>
      <use xlink:href="#DejaVuSans-69" x="68.505859"/>
      <use xlink:href="#DejaVuSans-2d" x="96.289062"/>
      <use xlink:href="#DejaVuSans-49" x="132.373047"/>
      <use xlink:href="#DejaVuSans-49" x="161.865234"/>
      <use xlink:href="#DejaVuSans-41" x="191.357422"/>
      <use xlink:href="#DejaVuSans-41" x="262.515625"/>
     </g>
    </g>
    <g id="line2d_33">
     <path d="M 154.8 507.284062 
L 176.8 507.284062 
L 198.8 507.284062 
" style="fill: none; stroke: #7f2704; stroke-width: 1.5; stroke-linecap: square"/>
    </g>
    <g id="text_29">
     <!-- Xa-IIAA -->
     <g transform="translate(216.4 514.984062) scale(0.22 -0.22)">
      <use xlink:href="#DejaVuSans-58"/>
      <use xlink:href="#DejaVuSans-61" x="68.505859"/>
      <use xlink:href="#DejaVuSans-2d" x="129.785156"/>
      <use xlink:href="#DejaVuSans-49" x="165.869141"/>
      <use xlink:href="#DejaVuSans-49" x="195.361328"/>
      <use xlink:href="#DejaVuSans-41" x="224.853516"/>
      <use xlink:href="#DejaVuSans-41" x="296.011719"/>
     </g>
    </g>
   </g>
  </g>
 </g>
 <defs>
  <clipPath id="p294e5309c2">
   <rect x="135" y="86.4" width="837" height="554.4"/>
  </clipPath>
 </defs>
</svg>
