<?xml version="1.0" encoding="utf-8" standalone="no"?>
<!DOCTYPE svg PUBLIC "-//W3C//DTD SVG 1.1//EN"
  "http://www.w3.org/Graphics/SVG/1.1/DTD/svg11.dtd">
<svg xmlns:xlink="http://www.w3.org/1999/xlink" width="1080pt" height="720pt" viewBox="0 0 1080 720" xmlns="http://www.w3.org/2000/svg" version="1.1">
 <metadata>
  <rdf:RDF xmlns:dc="http://purl.org/dc/elements/1.1/" xmlns:cc="http://creativecommons.org/ns#" xmlns:rdf="http://www.w3.org/1999/02/22-rdf-syntax-ns#">
   <cc:Work>
    <dc:type rdf:resource="http://purl.org/dc/dcmitype/StillImage"/>
    <dc:date>2023-01-10T19:25:23.904287</dc:date>
    <dc:format>image/svg+xml</dc:format>
    <dc:creator>
     <cc:Agent>
      <dc:title>Matplotlib v3.6.2, https://matplotlib.org/</dc:title>
     </cc:Agent>
    </dc:creator>
   </cc:Work>
  </rdf:RDF>
 </metadata>
 <defs>
  <style type="text/css">*{stroke-linejoin: round; stroke-linecap: butt}</style>
 </defs>
 <g id="figure_1">
  <g id="patch_1">
   <path d="M 0 720 
L 1080 720 
L 1080 0 
L 0 0 
z
" style="fill: #ffffff"/>
  </g>
  <g id="axes_1">
   <g id="patch_2">
    <path d="M 135 640.8 
L 972 640.8 
L 972 86.4 
L 135 86.4 
z
" style="fill: #ffffff"/>
   </g>
   <g id="PathCollection_1">
    <defs>
     <path id="m80f1702e56" d="M 0 3 
C 0.795609 3 1.55874 2.683901 2.12132 2.12132 
C 2.683901 1.55874 3 0.795609 3 0 
C 3 -0.795609 2.683901 -1.55874 2.12132 -2.12132 
C 1.55874 -2.683901 0.795609 -3 0 -3 
C -0.795609 -3 -1.55874 -2.683901 -2.12132 -2.12132 
C -2.683901 -1.55874 -3 -0.795609 -3 0 
C -3 0.795609 -2.683901 1.55874 -2.12132 2.12132 
C -1.55874 2.683901 -0.795609 3 0 3 
z
" style="stroke: #1f77b4"/>
    </defs>
    <g clip-path="url(#p294e5309c2)">
     <use xlink:href="#m80f1702e56" x="173.045455" y="615.6" style="fill: #1f77b4; stroke: #1f77b4"/>
     <use xlink:href="#m80f1702e56" x="268.159091" y="584.907945" style="fill: #1f77b4; stroke: #1f77b4"/>
     <use xlink:href="#m80f1702e56" x="363.272727" y="574.503077" style="fill: #1f77b4; stroke: #1f77b4"/>
     <use xlink:href="#m80f1702e56" x="458.386364" y="572.397655" style="fill: #1f77b4; stroke: #1f77b4"/>
     <use xlink:href="#m80f1702e56" x="553.5" y="533.008677" style="fill: #1f77b4; stroke: #1f77b4"/>
     <use xlink:href="#m80f1702e56" x="648.613636" y="493.6197" style="fill: #1f77b4; stroke: #1f77b4"/>
     <use xlink:href="#m80f1702e56" x="743.727273" y="493.6197" style="fill: #1f77b4; stroke: #1f77b4"/>
     <use xlink:href="#m80f1702e56" x="838.840909" y="493.6197" style="fill: #1f77b4; stroke: #1f77b4"/>
     <use xlink:href="#m80f1702e56" x="933.954545" y="493.6197" style="fill: #1f77b4; stroke: #1f77b4"/>
    </g>
   </g>
   <g id="PathCollection_2">
    <defs>
     <path id="m62fcbac0dc" d="M 0 3 
C 0.795609 3 1.55874 2.683901 2.12132 2.12132 
C 2.683901 1.55874 3 0.795609 3 0 
C 3 -0.795609 2.683901 -1.55874 2.12132 -2.12132 
C 1.55874 -2.683901 0.795609 -3 0 -3 
C -0.795609 -3 -1.55874 -2.683901 -2.12132 -2.12132 
C -2.683901 -1.55874 -3 -0.795609 -3 0 
C -3 0.795609 -2.683901 1.55874 -2.12132 2.12132 
C -1.55874 2.683901 -0.795609 3 0 3 
z
" style="stroke: #ff7f0e"/>
    </defs>
    <g clip-path="url(#p294e5309c2)">
     <use xlink:href="#m62fcbac0dc" x="173.045455" y="156.22457" style="fill: #ff7f0e; stroke: #ff7f0e"/>
     <use xlink:href="#m62fcbac0dc" x="268.159091" y="137.482142" style="fill: #ff7f0e; stroke: #ff7f0e"/>
     <use xlink:href="#m62fcbac0dc" x="363.272727" y="166.726691" style="fill: #ff7f0e; stroke: #ff7f0e"/>
     <use xlink:href="#m62fcbac0dc" x="458.386364" y="111.6" style="fill: #ff7f0e; stroke: #ff7f0e"/>
     <use xlink:href="#m62fcbac0dc" x="553.5" y="145.771767" style="fill: #ff7f0e; stroke: #ff7f0e"/>
     <use xlink:href="#m62fcbac0dc" x="648.613636" y="179.943533" style="fill: #ff7f0e; stroke: #ff7f0e"/>
     <use xlink:href="#m62fcbac0dc" x="743.727273" y="179.943533" style="fill: #ff7f0e; stroke: #ff7f0e"/>
     <use xlink:href="#m62fcbac0dc" x="838.840909" y="179.943533" style="fill: #ff7f0e; stroke: #ff7f0e"/>
     <use xlink:href="#m62fcbac0dc" x="933.954545" y="179.943533" style="fill: #ff7f0e; stroke: #ff7f0e"/>
    </g>
   </g>
   <g id="matplotlib.axis_1">
    <g id="xtick_1">
     <g id="line2d_1">
      <defs>
       <path id="m3385fdae1e" d="M 0 0 
L 0 3.5 
" style="stroke: #000000; stroke-width: 0.8"/>
      </defs>
      <g>
       <use xlink:href="#m3385fdae1e" x="173.045455" y="640.8" style="stroke: #000000; stroke-width: 0.8"/>
      </g>
     </g>
     <g id="text_1">
      <!-- 7 -->
      <g transform="translate(166.046705 664.516562) scale(0.22 -0.22)">
       <defs>
        <path id="DejaVuSans-37" d="M 525 4666 
L 3525 4666 
L 3525 4397 
L 1831 0 
L 1172 0 
L 2766 4134 
L 525 4134 
L 525 4666 
z
" transform="scale(0.015625)"/>
       </defs>
       <use xlink:href="#DejaVuSans-37"/>
      </g>
     </g>
    </g>
    <g id="xtick_2">
     <g id="line2d_2">
      <g>
       <use xlink:href="#m3385fdae1e" x="268.159091" y="640.8" style="stroke: #000000; stroke-width: 0.8"/>
      </g>
     </g>
     <g id="text_2">
      <!-- 8 -->
      <g transform="translate(261.160341 664.516562) scale(0.22 -0.22)">
       <defs>
        <path id="DejaVuSans-38" d="M 2034 2216 
Q 1584 2216 1326 1975 
Q 1069 1734 1069 1313 
Q 1069 891 1326 650 
Q 1584 409 2034 409 
Q 2484 409 2743 651 
Q 3003 894 3003 1313 
Q 3003 1734 2745 1975 
Q 2488 2216 2034 2216 
z
M 1403 2484 
Q 997 2584 770 2862 
Q 544 3141 544 3541 
Q 544 4100 942 4425 
Q 1341 4750 2034 4750 
Q 2731 4750 3128 4425 
Q 3525 4100 3525 3541 
Q 3525 3141 3298 2862 
Q 3072 2584 2669 2484 
Q 3125 2378 3379 2068 
Q 3634 1759 3634 1313 
Q 3634 634 3220 271 
Q 2806 -91 2034 -91 
Q 1263 -91 848 271 
Q 434 634 434 1313 
Q 434 1759 690 2068 
Q 947 2378 1403 2484 
z
M 1172 3481 
Q 1172 3119 1398 2916 
Q 1625 2713 2034 2713 
Q 2441 2713 2670 2916 
Q 2900 3119 2900 3481 
Q 2900 3844 2670 4047 
Q 2441 4250 2034 4250 
Q 1625 4250 1398 4047 
Q 1172 3844 1172 3481 
z
" transform="scale(0.015625)"/>
       </defs>
       <use xlink:href="#DejaVuSans-38"/>
      </g>
     </g>
    </g>
    <g id="xtick_3">
     <g id="line2d_3">
      <g>
       <use xlink:href="#m3385fdae1e" x="363.272727" y="640.8" style="stroke: #000000; stroke-width: 0.8"/>
      </g>
     </g>
     <g id="text_3">
      <!-- 9 -->
      <g transform="translate(356.273977 664.516562) scale(0.22 -0.22)">
       <defs>
        <path id="DejaVuSans-39" d="M 703 97 
L 703 672 
Q 941 559 1184 500 
Q 1428 441 1663 441 
Q 2288 441 2617 861 
Q 2947 1281 2994 2138 
Q 2813 1869 2534 1725 
Q 2256 1581 1919 1581 
Q 1219 1581 811 2004 
Q 403 2428 403 3163 
Q 403 3881 828 4315 
Q 1253 4750 1959 4750 
Q 2769 4750 3195 4129 
Q 3622 3509 3622 2328 
Q 3622 1225 3098 567 
Q 2575 -91 1691 -91 
Q 1453 -91 1209 -44 
Q 966 3 703 97 
z
M 1959 2075 
Q 2384 2075 2632 2365 
Q 2881 2656 2881 3163 
Q 2881 3666 2632 3958 
Q 2384 4250 1959 4250 
Q 1534 4250 1286 3958 
Q 1038 3666 1038 3163 
Q 1038 2656 1286 2365 
Q 1534 2075 1959 2075 
z
" transform="scale(0.015625)"/>
       </defs>
       <use xlink:href="#DejaVuSans-39"/>
      </g>
     </g>
    </g>
    <g id="xtick_4">
     <g id="line2d_4">
      <g>
       <use xlink:href="#m3385fdae1e" x="458.386364" y="640.8" style="stroke: #000000; stroke-width: 0.8"/>
      </g>
     </g>
     <g id="text_4">
      <!-- 10 -->
      <g transform="translate(444.388864 664.516562) scale(0.22 -0.22)">
       <defs>
        <path id="DejaVuSans-31" d="M 794 531 
L 1825 531 
L 1825 4091 
L 703 3866 
L 703 4441 
L 1819 4666 
L 2450 4666 
L 2450 531 
L 3481 531 
L 3481 0 
L 794 0 
L 794 531 
z
" transform="scale(0.015625)"/>
        <path id="DejaVuSans-30" d="M 2034 4250 
Q 1547 4250 1301 3770 
Q 1056 3291 1056 2328 
Q 1056 1369 1301 889 
Q 1547 409 2034 409 
Q 2525 409 2770 889 
Q 3016 1369 3016 2328 
Q 3016 3291 2770 3770 
Q 2525 4250 2034 4250 
z
M 2034 4750 
Q 2819 4750 3233 4129 
Q 3647 3509 3647 2328 
Q 3647 1150 3233 529 
Q 2819 -91 2034 -91 
Q 1250 -91 836 529 
Q 422 1150 422 2328 
Q 422 3509 836 4129 
Q 1250 4750 2034 4750 
z
" transform="scale(0.015625)"/>
       </defs>
       <use xlink:href="#DejaVuSans-31"/>
       <use xlink:href="#DejaVuSans-30" x="63.623047"/>
      </g>
     </g>
    </g>
    <g id="xtick_5">
     <g id="line2d_5">
      <g>
       <use xlink:href="#m3385fdae1e" x="553.5" y="640.8" style="stroke: #000000; stroke-width: 0.8"/>
      </g>
     </g>
     <g id="text_5">
      <!-- 11 -->
      <g transform="translate(539.5025 664.516562) scale(0.22 -0.22)">
       <use xlink:href="#DejaVuSans-31"/>
       <use xlink:href="#DejaVuSans-31" x="63.623047"/>
      </g>
     </g>
    </g>
    <g id="xtick_6">
     <g id="line2d_6">
      <g>
       <use xlink:href="#m3385fdae1e" x="648.613636" y="640.8" style="stroke: #000000; stroke-width: 0.8"/>
      </g>
     </g>
     <g id="text_6">
      <!-- 12 -->
      <g transform="translate(634.616136 664.516562) scale(0.22 -0.22)">
       <defs>
        <path id="DejaVuSans-32" d="M 1228 531 
L 3431 531 
L 3431 0 
L 469 0 
L 469 531 
Q 828 903 1448 1529 
Q 2069 2156 2228 2338 
Q 2531 2678 2651 2914 
Q 2772 3150 2772 3378 
Q 2772 3750 2511 3984 
Q 2250 4219 1831 4219 
Q 1534 4219 1204 4116 
Q 875 4013 500 3803 
L 500 4441 
Q 881 4594 1212 4672 
Q 1544 4750 1819 4750 
Q 2544 4750 2975 4387 
Q 3406 4025 3406 3419 
Q 3406 3131 3298 2873 
Q 3191 2616 2906 2266 
Q 2828 2175 2409 1742 
Q 1991 1309 1228 531 
z
" transform="scale(0.015625)"/>
       </defs>
       <use xlink:href="#DejaVuSans-31"/>
       <use xlink:href="#DejaVuSans-32" x="63.623047"/>
      </g>
     </g>
    </g>
    <g id="xtick_7">
     <g id="line2d_7">
      <g>
       <use xlink:href="#m3385fdae1e" x="743.727273" y="640.8" style="stroke: #000000; stroke-width: 0.8"/>
      </g>
     </g>
     <g id="text_7">
      <!-- 13 -->
      <g transform="translate(729.729773 664.516562) scale(0.22 -0.22)">
       <defs>
        <path id="DejaVuSans-33" d="M 2597 2516 
Q 3050 2419 3304 2112 
Q 3559 1806 3559 1356 
Q 3559 666 3084 287 
Q 2609 -91 1734 -91 
Q 1441 -91 1130 -33 
Q 819 25 488 141 
L 488 750 
Q 750 597 1062 519 
Q 1375 441 1716 441 
Q 2309 441 2620 675 
Q 2931 909 2931 1356 
Q 2931 1769 2642 2001 
Q 2353 2234 1838 2234 
L 1294 2234 
L 1294 2753 
L 1863 2753 
Q 2328 2753 2575 2939 
Q 2822 3125 2822 3475 
Q 2822 3834 2567 4026 
Q 2313 4219 1838 4219 
Q 1578 4219 1281 4162 
Q 984 4106 628 3988 
L 628 4550 
Q 988 4650 1302 4700 
Q 1616 4750 1894 4750 
Q 2613 4750 3031 4423 
Q 3450 4097 3450 3541 
Q 3450 3153 3228 2886 
Q 3006 2619 2597 2516 
z
" transform="scale(0.015625)"/>
       </defs>
       <use xlink:href="#DejaVuSans-31"/>
       <use xlink:href="#DejaVuSans-33" x="63.623047"/>
      </g>
     </g>
    </g>
    <g id="xtick_8">
     <g id="line2d_8">
      <g>
       <use xlink:href="#m3385fdae1e" x="838.840909" y="640.8" style="stroke: #000000; stroke-width: 0.8"/>
      </g>
     </g>
     <g id="text_8">
      <!-- 14 -->
      <g transform="translate(824.843409 664.516562) scale(0.22 -0.22)">
       <defs>
        <path id="DejaVuSans-34" d="M 2419 4116 
L 825 1625 
L 2419 1625 
L 2419 4116 
z
M 2253 4666 
L 3047 4666 
L 3047 1625 
L 3713 1625 
L 3713 1100 
L 3047 1100 
L 3047 0 
L 2419 0 
L 2419 1100 
L 313 1100 
L 313 1709 
L 2253 4666 
z
" transform="scale(0.015625)"/>
       </defs>
       <use xlink:href="#DejaVuSans-31"/>
       <use xlink:href="#DejaVuSans-34" x="63.623047"/>
      </g>
     </g>
    </g>
    <g id="xtick_9">
     <g id="line2d_9">
      <g>
       <use xlink:href="#m3385fdae1e" x="933.954545" y="640.8" style="stroke: #000000; stroke-width: 0.8"/>
      </g>
     </g>
     <g id="text_9">
      <!-- 15 -->
      <g transform="translate(919.957045 664.516562) scale(0.22 -0.22)">
       <defs>
        <path id="DejaVuSans-35" d="M 691 4666 
L 3169 4666 
L 3169 4134 
L 1269 4134 
L 1269 2991 
Q 1406 3038 1543 3061 
Q 1681 3084 1819 3084 
Q 2600 3084 3056 2656 
Q 3513 2228 3513 1497 
Q 3513 744 3044 326 
Q 2575 -91 1722 -91 
Q 1428 -91 1123 -41 
Q 819 9 494 109 
L 494 744 
Q 775 591 1075 516 
Q 1375 441 1709 441 
Q 2250 441 2565 725 
Q 2881 1009 2881 1497 
Q 2881 1984 2565 2268 
Q 2250 2553 1709 2553 
Q 1456 2553 1204 2497 
Q 953 2441 691 2322 
L 691 4666 
z
" transform="scale(0.015625)"/>
       </defs>
       <use xlink:href="#DejaVuSans-31"/>
       <use xlink:href="#DejaVuSans-35" x="63.623047"/>
      </g>
     </g>
    </g>
    <g id="text_10">
     <!-- Time (days) -->
     <g transform="translate(488.541562 689.808437) scale(0.22 -0.22)">
      <defs>
       <path id="DejaVuSans-54" d="M -19 4666 
L 3928 4666 
L 3928 4134 
L 2272 4134 
L 2272 0 
L 1638 0 
L 1638 4134 
L -19 4134 
L -19 4666 
z
" transform="scale(0.015625)"/>
       <path id="DejaVuSans-69" d="M 603 3500 
L 1178 3500 
L 1178 0 
L 603 0 
L 603 3500 
z
M 603 4863 
L 1178 4863 
L 1178 4134 
L 603 4134 
L 603 4863 
z
" transform="scale(0.015625)"/>
       <path id="DejaVuSans-6d" d="M 3328 2828 
Q 3544 3216 3844 3400 
Q 4144 3584 4550 3584 
Q 5097 3584 5394 3201 
Q 5691 2819 5691 2113 
L 5691 0 
L 5113 0 
L 5113 2094 
Q 5113 2597 4934 2840 
Q 4756 3084 4391 3084 
Q 3944 3084 3684 2787 
Q 3425 2491 3425 1978 
L 3425 0 
L 2847 0 
L 2847 2094 
Q 2847 2600 2669 2842 
Q 2491 3084 2119 3084 
Q 1678 3084 1418 2786 
Q 1159 2488 1159 1978 
L 1159 0 
L 581 0 
L 581 3500 
L 1159 3500 
L 1159 2956 
Q 1356 3278 1631 3431 
Q 1906 3584 2284 3584 
Q 2666 3584 2933 3390 
Q 3200 3197 3328 2828 
z
" transform="scale(0.015625)"/>
       <path id="DejaVuSans-65" d="M 3597 1894 
L 3597 1613 
L 953 1613 
Q 991 1019 1311 708 
Q 1631 397 2203 397 
Q 2534 397 2845 478 
Q 3156 559 3463 722 
L 3463 178 
Q 3153 47 2828 -22 
Q 2503 -91 2169 -91 
Q 1331 -91 842 396 
Q 353 884 353 1716 
Q 353 2575 817 3079 
Q 1281 3584 2069 3584 
Q 2775 3584 3186 3129 
Q 3597 2675 3597 1894 
z
M 3022 2063 
Q 3016 2534 2758 2815 
Q 2500 3097 2075 3097 
Q 1594 3097 1305 2825 
Q 1016 2553 972 2059 
L 3022 2063 
z
" transform="scale(0.015625)"/>
       <path id="DejaVuSans-20" transform="scale(0.015625)"/>
       <path id="DejaVuSans-28" d="M 1984 4856 
Q 1566 4138 1362 3434 
Q 1159 2731 1159 2009 
Q 1159 1288 1364 580 
Q 1569 -128 1984 -844 
L 1484 -844 
Q 1016 -109 783 600 
Q 550 1309 550 2009 
Q 550 2706 781 3412 
Q 1013 4119 1484 4856 
L 1984 4856 
z
" transform="scale(0.015625)"/>
       <path id="DejaVuSans-64" d="M 2906 2969 
L 2906 4863 
L 3481 4863 
L 3481 0 
L 2906 0 
L 2906 525 
Q 2725 213 2448 61 
Q 2172 -91 1784 -91 
Q 1150 -91 751 415 
Q 353 922 353 1747 
Q 353 2572 751 3078 
Q 1150 3584 1784 3584 
Q 2172 3584 2448 3432 
Q 2725 3281 2906 2969 
z
M 947 1747 
Q 947 1113 1208 752 
Q 1469 391 1925 391 
Q 2381 391 2643 752 
Q 2906 1113 2906 1747 
Q 2906 2381 2643 2742 
Q 2381 3103 1925 3103 
Q 1469 3103 1208 2742 
Q 947 2381 947 1747 
z
" transform="scale(0.015625)"/>
       <path id="DejaVuSans-61" d="M 2194 1759 
Q 1497 1759 1228 1600 
Q 959 1441 959 1056 
Q 959 750 1161 570 
Q 1363 391 1709 391 
Q 2188 391 2477 730 
Q 2766 1069 2766 1631 
L 2766 1759 
L 2194 1759 
z
M 3341 1997 
L 3341 0 
L 2766 0 
L 2766 531 
Q 2569 213 2275 61 
Q 1981 -91 1556 -91 
Q 1019 -91 701 211 
Q 384 513 384 1019 
Q 384 1609 779 1909 
Q 1175 2209 1959 2209 
L 2766 2209 
L 2766 2266 
Q 2766 2663 2505 2880 
Q 2244 3097 1772 3097 
Q 1472 3097 1187 3025 
Q 903 2953 641 2809 
L 641 3341 
Q 956 3463 1253 3523 
Q 1550 3584 1831 3584 
Q 2591 3584 2966 3190 
Q 3341 2797 3341 1997 
z
" transform="scale(0.015625)"/>
       <path id="DejaVuSans-79" d="M 2059 -325 
Q 1816 -950 1584 -1140 
Q 1353 -1331 966 -1331 
L 506 -1331 
L 506 -850 
L 844 -850 
Q 1081 -850 1212 -737 
Q 1344 -625 1503 -206 
L 1606 56 
L 191 3500 
L 800 3500 
L 1894 763 
L 2988 3500 
L 3597 3500 
L 2059 -325 
z
" transform="scale(0.015625)"/>
       <path id="DejaVuSans-73" d="M 2834 3397 
L 2834 2853 
Q 2591 2978 2328 3040 
Q 2066 3103 1784 3103 
Q 1356 3103 1142 2972 
Q 928 2841 928 2578 
Q 928 2378 1081 2264 
Q 1234 2150 1697 2047 
L 1894 2003 
Q 2506 1872 2764 1633 
Q 3022 1394 3022 966 
Q 3022 478 2636 193 
Q 2250 -91 1575 -91 
Q 1294 -91 989 -36 
Q 684 19 347 128 
L 347 722 
Q 666 556 975 473 
Q 1284 391 1588 391 
Q 1994 391 2212 530 
Q 2431 669 2431 922 
Q 2431 1156 2273 1281 
Q 2116 1406 1581 1522 
L 1381 1569 
Q 847 1681 609 1914 
Q 372 2147 372 2553 
Q 372 3047 722 3315 
Q 1072 3584 1716 3584 
Q 2034 3584 2315 3537 
Q 2597 3491 2834 3397 
z
" transform="scale(0.015625)"/>
       <path id="DejaVuSans-29" d="M 513 4856 
L 1013 4856 
Q 1481 4119 1714 3412 
Q 1947 2706 1947 2009 
Q 1947 1309 1714 600 
Q 1481 -109 1013 -844 
L 513 -844 
Q 928 -128 1133 580 
Q 1338 1288 1338 2009 
Q 1338 2731 1133 3434 
Q 928 4138 513 4856 
z
" transform="scale(0.015625)"/>
      </defs>
      <use xlink:href="#DejaVuSans-54"/>
      <use xlink:href="#DejaVuSans-69" x="57.958984"/>
      <use xlink:href="#DejaVuSans-6d" x="85.742188"/>
      <use xlink:href="#DejaVuSans-65" x="183.154297"/>
      <use xlink:href="#DejaVuSans-20" x="244.677734"/>
      <use xlink:href="#DejaVuSans-28" x="276.464844"/>
      <use xlink:href="#DejaVuSans-64" x="315.478516"/>
      <use xlink:href="#DejaVuSans-61" x="378.955078"/>
      <use xlink:href="#DejaVuSans-79" x="440.234375"/>
      <use xlink:href="#DejaVuSans-73" x="499.414062"/>
      <use xlink:href="#DejaVuSans-29" x="551.513672"/>
     </g>
    </g>
   </g>
   <g id="matplotlib.axis_2">
    <g id="ytick_1">
     <g id="line2d_10">
      <defs>
       <path id="ma600d9e374" d="M 0 0 
L -3.5 0 
" style="stroke: #000000; stroke-width: 0.8"/>
      </defs>
      <g>
       <use xlink:href="#ma600d9e374" x="135" y="615.908529" style="stroke: #000000; stroke-width: 0.8"/>
      </g>
     </g>
     <g id="text_11">
      <!-- 0.00 -->
      <g transform="translate(79.015625 624.26681) scale(0.22 -0.22)">
       <defs>
        <path id="DejaVuSans-2e" d="M 684 794 
L 1344 794 
L 1344 0 
L 684 0 
L 684 794 
z
" transform="scale(0.015625)"/>
       </defs>
       <use xlink:href="#DejaVuSans-30"/>
       <use xlink:href="#DejaVuSans-2e" x="63.623047"/>
       <use xlink:href="#DejaVuSans-30" x="95.410156"/>
       <use xlink:href="#DejaVuSans-30" x="159.033203"/>
      </g>
     </g>
    </g>
    <g id="ytick_2">
     <g id="line2d_11">
      <g>
       <use xlink:href="#ma600d9e374" x="135" y="544.201469" style="stroke: #000000; stroke-width: 0.8"/>
      </g>
     </g>
     <g id="text_12">
      <!-- 0.25 -->
      <g transform="translate(79.015625 552.559751) scale(0.22 -0.22)">
       <use xlink:href="#DejaVuSans-30"/>
       <use xlink:href="#DejaVuSans-2e" x="63.623047"/>
       <use xlink:href="#DejaVuSans-32" x="95.410156"/>
       <use xlink:href="#DejaVuSans-35" x="159.033203"/>
      </g>
     </g>
    </g>
    <g id="ytick_3">
     <g id="line2d_12">
      <g>
       <use xlink:href="#ma600d9e374" x="135" y="472.49441" style="stroke: #000000; stroke-width: 0.8"/>
      </g>
     </g>
     <g id="text_13">
      <!-- 0.50 -->
      <g transform="translate(79.015625 480.852691) scale(0.22 -0.22)">
       <use xlink:href="#DejaVuSans-30"/>
       <use xlink:href="#DejaVuSans-2e" x="63.623047"/>
       <use xlink:href="#DejaVuSans-35" x="95.410156"/>
       <use xlink:href="#DejaVuSans-30" x="159.033203"/>
      </g>
     </g>
    </g>
    <g id="ytick_4">
     <g id="line2d_13">
      <g>
       <use xlink:href="#ma600d9e374" x="135" y="400.78735" style="stroke: #000000; stroke-width: 0.8"/>
      </g>
     </g>
     <g id="text_14">
      <!-- 0.75 -->
      <g transform="translate(79.015625 409.145632) scale(0.22 -0.22)">
       <use xlink:href="#DejaVuSans-30"/>
       <use xlink:href="#DejaVuSans-2e" x="63.623047"/>
       <use xlink:href="#DejaVuSans-37" x="95.410156"/>
       <use xlink:href="#DejaVuSans-35" x="159.033203"/>
      </g>
     </g>
    </g>
    <g id="ytick_5">
     <g id="line2d_14">
      <g>
       <use xlink:href="#ma600d9e374" x="135" y="329.080291" style="stroke: #000000; stroke-width: 0.8"/>
      </g>
     </g>
     <g id="text_15">
      <!-- 1.00 -->
      <g transform="translate(79.015625 337.438572) scale(0.22 -0.22)">
       <use xlink:href="#DejaVuSans-31"/>
       <use xlink:href="#DejaVuSans-2e" x="63.623047"/>
       <use xlink:href="#DejaVuSans-30" x="95.410156"/>
       <use xlink:href="#DejaVuSans-30" x="159.033203"/>
      </g>
     </g>
    </g>
    <g id="ytick_6">
     <g id="line2d_15">
      <g>
       <use xlink:href="#ma600d9e374" x="135" y="257.373231" style="stroke: #000000; stroke-width: 0.8"/>
      </g>
     </g>
     <g id="text_16">
      <!-- 1.25 -->
      <g transform="translate(79.015625 265.731513) scale(0.22 -0.22)">
       <use xlink:href="#DejaVuSans-31"/>
       <use xlink:href="#DejaVuSans-2e" x="63.623047"/>
       <use xlink:href="#DejaVuSans-32" x="95.410156"/>
       <use xlink:href="#DejaVuSans-35" x="159.033203"/>
      </g>
     </g>
    </g>
    <g id="ytick_7">
     <g id="line2d_16">
      <g>
       <use xlink:href="#ma600d9e374" x="135" y="185.666172" style="stroke: #000000; stroke-width: 0.8"/>
      </g>
     </g>
     <g id="text_17">
      <!-- 1.50 -->
      <g transform="translate(79.015625 194.024453) scale(0.22 -0.22)">
       <use xlink:href="#DejaVuSans-31"/>
       <use xlink:href="#DejaVuSans-2e" x="63.623047"/>
       <use xlink:href="#DejaVuSans-35" x="95.410156"/>
       <use xlink:href="#DejaVuSans-30" x="159.033203"/>
      </g>
     </g>
    </g>
    <g id="ytick_8">
     <g id="line2d_17">
      <g>
       <use xlink:href="#ma600d9e374" x="135" y="113.959112" style="stroke: #000000; stroke-width: 0.8"/>
      </g>
     </g>
     <g id="text_18">
      <!-- 1.75 -->
      <g transform="translate(79.015625 122.317393) scale(0.22 -0.22)">
       <use xlink:href="#DejaVuSans-31"/>
       <use xlink:href="#DejaVuSans-2e" x="63.623047"/>
       <use xlink:href="#DejaVuSans-37" x="95.410156"/>
       <use xlink:href="#DejaVuSans-35" x="159.033203"/>
      </g>
     </g>
    </g>
    <g id="text_19">
     <!-- X:A -->
     <g transform="translate(70.440313 382.365312) rotate(-90) scale(0.22 -0.22)">
      <defs>
       <path id="DejaVuSans-58" d="M 403 4666 
L 1081 4666 
L 2241 2931 
L 3406 4666 
L 4084 4666 
L 2584 2425 
L 4184 0 
L 3506 0 
L 2194 1984 
L 872 0 
L 191 0 
L 1856 2491 
L 403 4666 
z
" transform="scale(0.015625)"/>
       <path id="DejaVuSans-3a" d="M 750 794 
L 1409 794 
L 1409 0 
L 750 0 
L 750 794 
z
M 750 3309 
L 1409 3309 
L 1409 2516 
L 750 2516 
L 750 3309 
z
" transform="scale(0.015625)"/>
       <path id="DejaVuSans-41" d="M 2188 4044 
L 1331 1722 
L 3047 1722 
L 2188 4044 
z
M 1831 4666 
L 2547 4666 
L 4325 0 
L 3669 0 
L 3244 1197 
L 1141 1197 
L 716 0 
L 50 0 
L 1831 4666 
z
" transform="scale(0.015625)"/>
      </defs>
      <use xlink:href="#DejaVuSans-58"/>
      <use xlink:href="#DejaVuSans-3a" x="68.505859"/>
      <use xlink:href="#DejaVuSans-41" x="102.197266"/>
     </g>
    </g>
   </g>
   <g id="line2d_18">
    <path d="M 173.045455 615.6 
L 180.731405 613.488791 
L 188.417355 611.397942 
L 196.103306 609.327492 
L 203.789256 607.277309 
L 211.475207 605.247217 
L 219.161157 603.237036 
L 226.847107 601.246582 
L 234.533058 599.27567 
L 242.219008 597.324116 
L 249.904959 595.391736 
L 257.590909 593.478346 
L 265.27686 591.583761 
L 272.96281 589.707799 
L 280.64876 587.850275 
L 288.334711 586.011013 
L 296.020661 584.189834 
L 303.706612 582.386563 
L 311.392562 580.601024 
L 319.078512 578.833045 
L 326.764463 577.082454 
L 334.450413 575.349081 
L 342.136364 573.632756 
L 349.822314 571.933313 
L 357.508264 570.250586 
L 365.194215 568.58441 
L 372.880165 566.934623 
L 380.566116 565.301066 
L 388.252066 563.683579 
L 395.938017 562.082005 
L 403.623967 560.496187 
L 411.309917 558.925971 
L 418.995868 557.371204 
L 426.681818 555.831734 
L 434.367769 554.307411 
L 442.053719 552.798085 
L 449.739669 551.30361 
L 457.42562 549.823838 
L 465.11157 548.358626 
L 472.797521 546.907829 
L 480.483471 545.471307 
L 488.169421 544.048918 
L 495.855372 542.640526 
L 503.541322 541.245992 
L 511.227273 539.865182 
L 518.913223 538.497959 
L 526.599174 537.144191 
L 534.285124 535.803746 
L 541.971074 534.476491 
L 549.657025 533.162298 
L 557.342975 531.861036 
L 565.028926 530.57258 
L 572.714876 529.296803 
L 580.400826 528.033579 
L 588.086777 526.782784 
L 595.772727 525.544297 
L 603.458678 524.317998 
L 611.144628 523.103766 
L 618.830579 521.901484 
L 626.516529 520.711035 
L 634.202479 519.532301 
L 641.88843 518.365169 
L 649.57438 517.209523 
L 657.260331 516.065251 
L 664.946281 514.93224 
L 672.632231 513.810379 
L 680.318182 512.699558 
L 688.004132 511.599668 
L 695.690083 510.510601 
L 703.376033 509.432251 
L 711.061983 508.364514 
L 718.747934 507.307285 
L 726.433884 506.260462 
L 734.119835 505.223942 
L 741.805785 504.197624 
L 749.491736 503.181408 
L 757.177686 502.175193 
L 764.863636 501.178881 
L 772.549587 500.192375 
L 780.235537 499.215577 
L 787.921488 498.248392 
L 795.607438 497.290724 
L 803.293388 496.34248 
L 810.979339 495.403569 
L 818.665289 494.473899 
L 826.35124 493.553379 
L 834.03719 492.64192 
L 841.72314 491.739432 
L 849.409091 490.845827 
L 857.095041 489.961018 
L 864.780992 489.084918 
L 872.466942 488.21744 
L 880.152893 487.3585 
L 887.838843 486.508013 
L 895.524793 485.665896 
L 903.210744 484.832065 
L 910.896694 484.006442 
L 918.582645 483.188945 
L 926.268595 482.379494 
L 933.954545 481.57801 
" clip-path="url(#p294e5309c2)" style="fill: none; stroke: #d0e1f2; stroke-width: 1.5; stroke-linecap: square"/>
   </g>
   <g id="line2d_19">
    <path d="M 173.045455 156.22457 
L 180.731405 157.074996 
L 188.417355 157.734107 
L 196.103306 158.245872 
L 203.789256 158.658321 
L 211.475207 159.042694 
L 219.161157 159.372073 
L 226.847107 159.619594 
L 234.533058 159.772418 
L 242.219008 159.831727 
L 249.904959 159.812728 
L 257.590909 159.744649 
L 265.27686 159.670741 
L 272.96281 159.648279 
L 280.64876 159.724465 
L 288.334711 159.81731 
L 296.020661 159.899794 
L 303.706612 159.963048 
L 311.392562 160.00202 
L 319.078512 160.015471 
L 326.764463 160.005982 
L 334.450413 159.979948 
L 342.136364 159.947581 
L 349.822314 159.922908 
L 357.508264 159.923774 
L 365.194215 159.95785 
L 372.880165 160.005851 
L 380.566116 160.05616 
L 388.252066 160.099675 
L 395.938017 160.12968 
L 403.623967 160.141842 
L 411.309917 160.134212 
L 418.995868 160.107226 
L 426.681818 160.063704 
L 434.367769 160.00885 
L 442.053719 159.950251 
L 449.739669 159.897881 
L 457.42562 159.864094 
L 465.11157 159.863633 
L 472.797521 159.911888 
L 480.483471 160.000276 
L 488.169421 160.104625 
L 495.855372 160.204715 
L 503.541322 160.284659 
L 511.227273 160.33291 
L 518.913223 160.342255 
L 526.599174 160.30982 
L 534.285124 160.237064 
L 541.971074 160.129786 
L 549.657025 159.998121 
L 557.342975 159.856538 
L 565.028926 159.723846 
L 572.714876 159.623189 
L 580.400826 159.582046 
L 588.086777 159.631996 
L 595.772727 159.75679 
L 603.458678 159.904049 
L 611.144628 160.044177 
L 618.830579 160.154726 
L 626.516529 160.220389 
L 634.202479 160.233009 
L 641.88843 160.191572 
L 649.57438 160.10221 
L 657.260331 159.978199 
L 664.946281 159.839964 
L 672.632231 159.71507 
L 680.318182 159.638233 
L 688.004132 159.651311 
L 695.690083 159.756263 
L 703.376033 159.887296 
L 711.061983 160.016249 
L 718.747934 160.121763 
L 726.433884 160.188909 
L 734.119835 160.209184 
L 741.805785 160.180517 
L 749.491736 160.10726 
L 757.177686 160.000197 
L 764.863636 159.87654 
L 772.549587 159.759928 
L 780.235537 159.680428 
L 787.921488 159.674536 
L 795.607438 159.763405 
L 803.293388 159.894858 
L 810.979339 160.034833 
L 818.665289 160.157913 
L 826.35124 160.245303 
L 834.03719 160.284835 
L 841.72314 160.270964 
L 849.409091 160.20477 
L 857.095041 160.093958 
L 864.780992 159.952856 
L 872.466942 159.80242 
L 880.152893 159.670227 
L 887.838843 159.590481 
L 895.524793 159.604009 
L 903.210744 159.690969 
L 910.896694 159.760454 
L 918.582645 159.81417 
L 926.268595 159.855549 
L 933.954545 159.887997 
" clip-path="url(#p294e5309c2)" style="fill: none; stroke: #fdd9b4; stroke-width: 1.5; stroke-linecap: square"/>
   </g>
   <g id="line2d_20">
    <path d="M 173.045455 615.6 
L 180.731405 613.692987 
L 188.417355 611.695165 
L 196.103306 609.641862 
L 203.789256 607.559027 
L 211.475207 605.459627 
L 219.161157 603.355882 
L 226.847107 601.257752 
L 234.533058 599.16598 
L 242.219008 597.081777 
L 249.904959 595.009044 
L 257.590909 592.952797 
L 265.27686 590.911402 
L 272.96281 588.882815 
L 280.64876 586.866465 
L 288.334711 584.863143 
L 296.020661 582.875003 
L 303.706612 580.90519 
L 311.392562 578.952884 
L 319.078512 577.014602 
L 326.764463 575.088026 
L 334.450413 573.172097 
L 342.136364 571.267014 
L 349.822314 569.374233 
L 357.508264 567.49647 
L 365.194215 565.637697 
L 372.880165 563.80218 
L 380.566116 561.985276 
L 388.252066 560.179252 
L 395.938017 558.379644 
L 403.623967 556.585322 
L 411.309917 554.798485 
L 418.995868 553.024666 
L 426.681818 551.272727 
L 434.367769 549.554498 
L 442.053719 547.867984 
L 449.739669 546.194648 
L 457.42562 544.52211 
L 465.11157 542.845581 
L 472.797521 541.167867 
L 480.483471 539.499366 
L 488.169421 537.858068 
L 495.855372 536.268672 
L 503.541322 534.719572 
L 511.227273 533.18539 
L 518.913223 531.657972 
L 526.599174 530.137045 
L 534.285124 528.630212 
L 541.971074 527.152949 
L 549.657025 525.72201 
L 557.342975 524.32265 
L 565.028926 522.944961 
L 572.714876 521.585909 
L 580.400826 520.247799 
L 588.086777 518.938278 
L 595.772727 517.670328 
L 603.458678 516.451345 
L 611.144628 515.268771 
L 618.830579 514.113303 
L 626.516529 512.981429 
L 634.202479 511.875426 
L 641.88843 510.80336 
L 649.57438 509.779087 
L 657.260331 508.81339 
L 664.946281 507.890403 
L 672.632231 506.998604 
L 680.318182 506.132344 
L 688.004132 505.29155 
L 695.690083 504.481727 
L 703.376033 503.713956 
L 711.061983 503.000812 
L 718.747934 502.328815 
L 726.433884 501.68663 
L 734.119835 501.068734 
L 741.805785 500.473612 
L 749.491736 499.903766 
L 757.177686 499.365709 
L 764.863636 498.868518 
L 772.549587 498.404852 
L 780.235537 497.965313 
L 787.921488 497.545048 
L 795.607438 497.141927 
L 803.293388 496.756544 
L 810.979339 496.392214 
L 818.665289 496.054976 
L 826.35124 495.745869 
L 834.03719 495.455994 
L 841.72314 495.18032 
L 849.409091 494.91585 
L 857.095041 494.661628 
L 864.780992 494.418731 
L 872.466942 494.190277 
L 880.152893 493.981417 
L 887.838843 493.791108 
L 895.524793 493.611707 
L 903.210744 493.441066 
L 910.896694 493.278093 
L 918.582645 493.122747 
L 926.268595 492.976038 
L 933.954545 492.840028 
" clip-path="url(#p294e5309c2)" style="fill: none; stroke: #79b5d9; stroke-width: 1.5; stroke-linecap: square"/>
   </g>
   <g id="line2d_21">
    <path d="M 173.045455 156.22457 
L 180.731405 152.142726 
L 188.417355 149.525623 
L 196.103306 147.847956 
L 203.789256 146.746411 
L 211.475207 146.061098 
L 219.161157 145.627646 
L 226.847107 145.314379 
L 234.533058 145.117096 
L 242.219008 145.019937 
L 249.904959 144.971603 
L 257.590909 144.906469 
L 265.27686 144.845622 
L 272.96281 144.813076 
L 280.64876 144.814495 
L 288.334711 144.838819 
L 296.020661 144.858264 
L 303.706612 144.833145 
L 311.392562 144.773018 
L 319.078512 144.719056 
L 326.764463 144.698336 
L 334.450413 144.72285 
L 342.136364 144.789505 
L 349.822314 144.880125 
L 357.508264 144.961447 
L 365.194215 144.985125 
L 372.880165 144.900563 
L 380.566116 144.765721 
L 388.252066 144.673858 
L 395.938017 144.679343 
L 403.623967 144.79705 
L 411.309917 145.002352 
L 418.995868 145.231123 
L 426.681818 145.379739 
L 434.367769 145.311533 
L 442.053719 145.06427 
L 449.739669 144.861199 
L 457.42562 144.851827 
L 465.11157 145.097134 
L 472.797521 145.569569 
L 480.483471 146.153048 
L 488.169421 146.642958 
L 495.855372 146.756639 
L 503.541322 146.645695 
L 511.227273 146.634269 
L 518.913223 146.838461 
L 526.599174 147.274379 
L 534.285124 147.858135 
L 541.971074 148.405845 
L 549.657025 148.718845 
L 557.342975 149.007052 
L 565.028926 149.417961 
L 572.714876 150.007887 
L 580.400826 150.761664 
L 588.086777 151.592649 
L 595.772727 152.34277 
L 603.458678 152.927305 
L 611.144628 153.530374 
L 618.830579 154.290543 
L 626.516529 155.263663 
L 634.202479 156.422878 
L 641.88843 157.658618 
L 649.57438 158.778603 
L 657.260331 159.629396 
L 664.946281 160.434615 
L 672.632231 161.362534 
L 680.318182 162.490087 
L 688.004132 163.806655 
L 695.690083 165.214064 
L 703.376033 166.526586 
L 711.061983 167.533055 
L 718.747934 168.425499 
L 726.433884 169.371925 
L 734.119835 170.445215 
L 741.805785 171.64946 
L 749.491736 172.919966 
L 757.177686 174.123247 
L 764.863636 175.081439 
L 772.549587 175.89742 
L 780.235537 176.716281 
L 787.921488 177.60414 
L 795.607438 178.577855 
L 803.293388 179.605019 
L 810.979339 180.603966 
L 818.665289 181.443768 
L 826.35124 182.084517 
L 834.03719 182.673447 
L 841.72314 183.289587 
L 849.409091 183.973264 
L 857.095041 184.726112 
L 864.780992 185.511072 
L 872.466942 186.252393 
L 880.152893 186.83563 
L 887.838843 187.266867 
L 895.524793 187.68361 
L 903.210744 188.118087 
L 910.896694 188.581207 
L 918.582645 189.062562 
L 926.268595 189.530432 
L 933.954545 189.931779 
" clip-path="url(#p294e5309c2)" style="fill: none; stroke: #fd9649; stroke-width: 1.5; stroke-linecap: square"/>
   </g>
   <g id="line2d_22">
    <path d="M 173.045455 615.6 
L 180.731405 613.454257 
L 188.417355 611.331117 
L 196.103306 609.230338 
L 203.789256 607.151677 
L 211.475207 605.094886 
L 219.161157 603.059731 
L 226.847107 601.045979 
L 234.533058 599.053402 
L 242.219008 597.081771 
L 249.904959 595.13086 
L 257.590909 593.200445 
L 265.27686 591.290302 
L 272.96281 589.400212 
L 280.64876 587.529956 
L 288.334711 585.679315 
L 296.020661 583.848075 
L 303.706612 582.036021 
L 311.392562 580.242943 
L 319.078512 578.46863 
L 326.764463 576.712873 
L 334.450413 574.975467 
L 342.136364 573.256205 
L 349.822314 571.554887 
L 357.508264 569.871309 
L 365.194215 568.205274 
L 372.880165 566.556583 
L 380.566116 564.92504 
L 388.252066 563.310452 
L 395.938017 561.712627 
L 403.623967 560.131373 
L 411.309917 558.566503 
L 418.995868 557.017829 
L 426.681818 555.485167 
L 434.367769 553.968333 
L 442.053719 552.467128 
L 449.739669 550.981283 
L 457.42562 549.510622 
L 465.11157 548.054988 
L 472.797521 546.614223 
L 480.483471 545.18817 
L 488.169421 543.776672 
L 495.855372 542.379573 
L 503.541322 540.996717 
L 511.227273 539.627947 
L 518.913223 538.273109 
L 526.599174 536.932049 
L 534.285124 535.60461 
L 541.971074 534.29064 
L 549.657025 532.989985 
L 557.342975 531.70249 
L 565.028926 530.428005 
L 572.714876 529.166374 
L 580.400826 527.917448 
L 588.086777 526.681073 
L 595.772727 525.457098 
L 603.458678 524.245373 
L 611.144628 523.045747 
L 618.830579 521.858068 
L 626.516529 520.682189 
L 634.202479 519.517958 
L 641.88843 518.365227 
L 649.57438 517.223847 
L 657.260331 516.093671 
L 664.946281 514.974549 
L 672.632231 513.866334 
L 680.318182 512.768879 
L 688.004132 511.682038 
L 695.690083 510.605664 
L 703.376033 509.53961 
L 711.061983 508.483732 
L 718.747934 507.437883 
L 726.433884 506.40192 
L 734.119835 505.375697 
L 741.805785 504.35907 
L 749.491736 503.351896 
L 757.177686 502.354032 
L 764.863636 501.365333 
L 772.549587 500.385659 
L 780.235537 499.414866 
L 787.921488 498.452812 
L 795.607438 497.499357 
L 803.293388 496.55436 
L 810.979339 495.617679 
L 818.665289 494.689174 
L 826.35124 493.768705 
L 834.03719 492.856134 
L 841.72314 491.95132 
L 849.409091 491.054126 
L 857.095041 490.164412 
L 864.780992 489.282041 
L 872.466942 488.406875 
L 880.152893 487.538777 
L 887.838843 486.67761 
L 895.524793 485.823237 
L 903.210744 484.975524 
L 910.896694 484.134333 
L 918.582645 483.29953 
L 926.268595 482.470979 
L 933.954545 481.648547 
" clip-path="url(#p294e5309c2)" style="fill: none; stroke: #2575b7; stroke-width: 1.5; stroke-linecap: square"/>
   </g>
   <g id="line2d_23">
    <path d="M 173.045455 156.22457 
L 180.731405 156.257867 
L 188.417355 156.292463 
L 196.103306 156.328408 
L 203.789256 156.365753 
L 211.475207 156.40456 
L 219.161157 156.444875 
L 226.847107 156.486744 
L 234.533058 156.530215 
L 242.219008 156.575339 
L 249.904959 156.622172 
L 257.590909 156.670768 
L 265.27686 156.721186 
L 272.96281 156.77349 
L 280.64876 156.827741 
L 288.334711 156.884008 
L 296.020661 156.942359 
L 303.706612 157.002866 
L 311.392562 157.065603 
L 319.078512 157.130649 
L 326.764463 157.198081 
L 334.450413 157.267982 
L 342.136364 157.340438 
L 349.822314 157.415534 
L 357.508264 157.493362 
L 365.194215 157.574013 
L 372.880165 157.657583 
L 380.566116 157.744168 
L 388.252066 157.83387 
L 395.938017 157.92679 
L 403.623967 158.023035 
L 411.309917 158.122712 
L 418.995868 158.225931 
L 426.681818 158.332806 
L 434.367769 158.443452 
L 442.053719 158.557974 
L 449.739669 158.676412 
L 457.42562 158.798861 
L 465.11157 158.925438 
L 472.797521 159.056268 
L 480.483471 159.191488 
L 488.169421 159.331246 
L 495.855372 159.475698 
L 503.541322 159.625011 
L 511.227273 159.779364 
L 518.913223 159.938945 
L 526.599174 160.103952 
L 534.285124 160.274593 
L 541.971074 160.451088 
L 549.657025 160.633665 
L 557.342975 160.822565 
L 565.028926 161.018036 
L 572.714876 161.220338 
L 580.400826 161.429743 
L 588.086777 161.646531 
L 595.772727 161.870992 
L 603.458678 162.103427 
L 611.144628 162.344148 
L 618.830579 162.593477 
L 626.516529 162.851746 
L 634.202479 163.119296 
L 641.88843 163.396481 
L 649.57438 163.683663 
L 657.260331 163.981215 
L 664.946281 164.289521 
L 672.632231 164.608974 
L 680.318182 164.939978 
L 688.004132 165.282948 
L 695.690083 165.638307 
L 703.376033 166.006491 
L 711.061983 166.387945 
L 718.747934 166.783124 
L 726.433884 167.192493 
L 734.119835 167.616529 
L 741.805785 168.055717 
L 749.491736 168.510554 
L 757.177686 168.981548 
L 764.863636 169.469213 
L 772.549587 169.974079 
L 780.235537 170.496683 
L 787.921488 171.037572 
L 795.607438 171.597305 
L 803.293388 172.17645 
L 810.979339 172.775585 
L 818.665289 173.3953 
L 826.35124 174.036194 
L 834.03719 174.698876 
L 841.72314 175.383967 
L 849.409091 176.092095 
L 857.095041 176.823903 
L 864.780992 177.58004 
L 872.466942 178.361167 
L 880.152893 179.167955 
L 887.838843 180.001086 
L 895.524793 180.861252 
L 903.210744 181.749155 
L 910.896694 182.665506 
L 918.582645 183.61103 
L 926.268595 184.586457 
L 933.954545 185.592533 
" clip-path="url(#p294e5309c2)" style="fill: none; stroke: #dc4c03; stroke-width: 1.5; stroke-linecap: square"/>
   </g>
   <g id="line2d_24">
    <path d="M 173.045455 615.6 
L 180.731405 613.385279 
L 188.417355 611.196535 
L 196.103306 609.033269 
L 203.789256 606.894983 
L 211.475207 604.781322 
L 219.161157 602.691974 
L 226.847107 600.626592 
L 234.533058 598.584823 
L 242.219008 596.566406 
L 249.904959 594.571077 
L 257.590909 592.598552 
L 265.27686 590.648536 
L 272.96281 588.720728 
L 280.64876 586.814881 
L 288.334711 584.930753 
L 296.020661 583.068092 
L 303.706612 581.226636 
L 311.392562 579.406113 
L 319.078512 577.606242 
L 326.764463 575.826739 
L 334.450413 574.067397 
L 342.136364 572.328022 
L 349.822314 570.608398 
L 357.508264 568.908291 
L 365.194215 567.227443 
L 372.880165 565.565577 
L 380.566116 563.922393 
L 388.252066 562.297634 
L 395.938017 560.691182 
L 403.623967 559.102862 
L 411.309917 557.532468 
L 418.995868 555.979767 
L 426.681818 554.444494 
L 434.367769 552.926368 
L 442.053719 551.425228 
L 449.739669 549.940919 
L 457.42562 548.473256 
L 465.11157 547.022035 
L 472.797521 545.587034 
L 480.483471 544.168011 
L 488.169421 542.764755 
L 495.855372 541.377125 
L 503.541322 540.004967 
L 511.227273 538.648108 
L 518.913223 537.306357 
L 526.599174 535.979505 
L 534.285124 534.667327 
L 541.971074 533.369603 
L 549.657025 532.086218 
L 557.342975 530.817056 
L 565.028926 529.561977 
L 572.714876 528.320814 
L 580.400826 527.093371 
L 588.086777 525.879427 
L 595.772727 524.678741 
L 603.458678 523.49118 
L 611.144628 522.316684 
L 618.830579 521.155146 
L 626.516529 520.006424 
L 634.202479 518.870344 
L 641.88843 517.746694 
L 649.57438 516.63523 
L 657.260331 515.535835 
L 664.946281 514.448461 
L 672.632231 513.373002 
L 680.318182 512.309323 
L 688.004132 511.257261 
L 695.690083 510.216623 
L 703.376033 509.187216 
L 711.061983 508.168971 
L 718.747934 507.161801 
L 726.433884 506.165592 
L 734.119835 505.180211 
L 741.805785 504.205505 
L 749.491736 503.241305 
L 757.177686 502.287474 
L 764.863636 501.343941 
L 772.549587 500.410614 
L 780.235537 499.487387 
L 787.921488 498.574134 
L 795.607438 497.670717 
L 803.293388 496.776979 
L 810.979339 495.892782 
L 818.665289 495.018067 
L 826.35124 494.152765 
L 834.03719 493.296786 
L 841.72314 492.450022 
L 849.409091 491.612342 
L 857.095041 490.783599 
L 864.780992 489.96363 
L 872.466942 489.152368 
L 880.152893 488.349779 
L 887.838843 487.555802 
L 895.524793 486.770345 
L 903.210744 485.993293 
L 910.896694 485.224503 
L 918.582645 484.463808 
L 926.268595 483.711154 
L 933.954545 482.966508 
" clip-path="url(#p294e5309c2)" style="fill: none; stroke: #08306b; stroke-width: 1.5; stroke-linecap: square"/>
   </g>
   <g id="line2d_25">
    <path d="M 173.045455 156.22457 
L 180.731405 149.59729 
L 188.417355 145.436783 
L 196.103306 142.93119 
L 203.789256 141.242273 
L 211.475207 140.148465 
L 219.161157 139.573209 
L 226.847107 139.282989 
L 234.533058 139.007159 
L 242.219008 138.825992 
L 249.904959 138.788262 
L 257.590909 138.86967 
L 265.27686 138.97713 
L 272.96281 138.998262 
L 280.64876 139.007524 
L 288.334711 139.08617 
L 296.020661 139.267184 
L 303.706612 139.536753 
L 311.392562 139.834269 
L 319.078512 140.052258 
L 326.764463 140.066781 
L 334.450413 140.023672 
L 342.136364 140.108235 
L 349.822314 140.417557 
L 357.508264 140.960507 
L 365.194215 141.657737 
L 372.880165 142.341683 
L 380.566116 142.756566 
L 388.252066 142.789732 
L 395.938017 142.834103 
L 403.623967 143.069084 
L 411.309917 143.546369 
L 418.995868 144.195615 
L 426.681818 144.824438 
L 434.367769 145.166928 
L 442.053719 145.404286 
L 449.739669 145.729583 
L 457.42562 146.209534 
L 465.11157 146.831032 
L 472.797521 147.501147 
L 480.483471 148.047218 
L 488.169421 148.394615 
L 495.855372 148.737555 
L 503.541322 149.203903 
L 511.227273 149.843351 
L 518.913223 150.627422 
L 526.599174 151.449468 
L 534.285124 152.124671 
L 541.971074 152.491921 
L 549.657025 152.771636 
L 557.342975 153.189417 
L 565.028926 153.856975 
L 572.714876 154.773073 
L 580.400826 155.823527 
L 588.086777 156.781201 
L 595.772727 157.324149 
L 603.458678 157.564312 
L 611.144628 157.876876 
L 618.830579 158.45679 
L 626.516529 159.351023 
L 634.202479 160.458562 
L 641.88843 161.530417 
L 649.57438 162.180509 
L 657.260331 162.516914 
L 664.946281 162.927159 
L 672.632231 163.556072 
L 680.318182 164.423161 
L 688.004132 165.422616 
L 695.690083 166.323308 
L 703.376033 166.878655 
L 711.061983 167.359319 
L 718.747934 167.940749 
L 726.433884 168.686099 
L 734.119835 169.572967 
L 741.805785 170.493395 
L 749.491736 171.253942 
L 757.177686 171.793858 
L 764.863636 172.328156 
L 772.549587 172.974107 
L 780.235537 173.774877 
L 787.921488 174.699521 
L 795.607438 175.642988 
L 803.293388 176.426118 
L 810.979339 176.935659 
L 818.665289 177.393305 
L 826.35124 177.970987 
L 834.03719 178.748576 
L 841.72314 179.714289 
L 849.409091 180.764697 
L 857.095041 181.704715 
L 864.780992 182.279202 
L 872.466942 182.6321 
L 880.152893 183.057731 
L 887.838843 183.711856 
L 895.524793 184.628403 
L 903.210744 185.719472 
L 910.896694 186.775328 
L 918.582645 187.469628 
L 926.268595 187.978694 
L 933.954545 188.558333 
" clip-path="url(#p294e5309c2)" style="fill: none; stroke: #7f2704; stroke-width: 1.5; stroke-linecap: square"/>
   </g>
   <g id="patch_3">
    <path d="M 135 640.8 
L 135 86.4 
" style="fill: none; stroke: #000000; stroke-width: 0.8; stroke-linejoin: miter; stroke-linecap: square"/>
   </g>
   <g id="patch_4">
    <path d="M 972 640.8 
L 972 86.4 
" style="fill: none; stroke: #000000; stroke-width: 0.8; stroke-linejoin: miter; stroke-linecap: square"/>
   </g>
   <g id="patch_5">
    <path d="M 135 640.8 
L 972 640.8 
" style="fill: none; stroke: #000000; stroke-width: 0.8; stroke-linejoin: miter; stroke-linecap: square"/>
   </g>
   <g id="patch_6">
    <path d="M 135 86.4 
L 972 86.4 
" style="fill: none; stroke: #000000; stroke-width: 0.8; stroke-linejoin: miter; stroke-linecap: square"/>
   </g>
   <g id="legend_1">
    <g id="patch_7">
     <path d="M 150.4 528.359375 
L 318.806563 528.359375 
Q 323.206563 528.359375 323.206563 523.959375 
L 323.206563 203.240625 
Q 323.206563 198.840625 318.806563 198.840625 
L 150.4 198.840625 
Q 146 198.840625 146 203.240625 
L 146 523.959375 
Q 146 528.359375 150.4 528.359375 
z
" style="fill: #ffffff; opacity: 0.8; stroke: #cccccc; stroke-linejoin: miter"/>
    </g>
    <g id="PathCollection_3">
     <g>
      <use xlink:href="#m80f1702e56" x="176.8" y="218.582187" style="fill: #1f77b4; stroke: #1f77b4"/>
     </g>
    </g>
    <g id="text_20">
     <!-- Xi -->
     <g transform="translate(216.4 224.357187) scale(0.22 -0.22)">
      <use xlink:href="#DejaVuSans-58"/>
      <use xlink:href="#DejaVuSans-69" x="68.505859"/>
     </g>
    </g>
    <g id="PathCollection_4">
     <g>
      <use xlink:href="#m62fcbac0dc" x="176.8" y="250.874062" style="fill: #ff7f0e; stroke: #ff7f0e"/>
     </g>
    </g>
    <g id="text_21">
     <!-- Xa -->
     <g transform="translate(216.4 256.649062) scale(0.22 -0.22)">
      <use xlink:href="#DejaVuSans-58"/>
      <use xlink:href="#DejaVuSans-61" x="68.505859"/>
     </g>
    </g>
    <g id="line2d_26">
     <path d="M 154.8 281.240937 
L 176.8 281.240937 
L 198.8 281.240937 
" style="fill: none; stroke: #d0e1f2; stroke-width: 1.5; stroke-linecap: square"/>
    </g>
    <g id="text_22">
     <!-- Xi-AAAA -->
     <g transform="translate(216.4 288.940937) scale(0.22 -0.22)">
      <defs>
       <path id="DejaVuSans-2d" d="M 313 2009 
L 1997 2009 
L 1997 1497 
L 313 1497 
L 313 2009 
z
" transform="scale(0.015625)"/>
      </defs>
      <use xlink:href="#DejaVuSans-58"/>
      <use xlink:href="#DejaVuSans-69" x="68.505859"/>
      <use xlink:href="#DejaVuSans-2d" x="96.289062"/>
      <use xlink:href="#DejaVuSans-41" x="130.123047"/>
      <use xlink:href="#DejaVuSans-41" x="201.28125"/>
      <use xlink:href="#DejaVuSans-41" x="272.439453"/>
      <use xlink:href="#DejaVuSans-41" x="343.597656"/>
     </g>
    </g>
    <g id="line2d_27">
     <path d="M 154.8 313.532812 
L 176.8 313.532812 
L 198.8 313.532812 
" style="fill: none; stroke: #fdd9b4; stroke-width: 1.5; stroke-linecap: square"/>
    </g>
    <g id="text_23">
     <!-- Xa-AAAA -->
     <g transform="translate(216.4 321.232812) scale(0.22 -0.22)">
      <use xlink:href="#DejaVuSans-58"/>
      <use xlink:href="#DejaVuSans-61" x="68.505859"/>
      <use xlink:href="#DejaVuSans-2d" x="129.785156"/>
      <use xlink:href="#DejaVuSans-41" x="163.619141"/>
      <use xlink:href="#DejaVuSans-41" x="234.777344"/>
      <use xlink:href="#DejaVuSans-41" x="305.935547"/>
      <use xlink:href="#DejaVuSans-41" x="377.09375"/>
     </g>
    </g>
    <g id="line2d_28">
     <path d="M 154.8 345.824687 
L 176.8 345.824687 
L 198.8 345.824687 
" style="fill: none; stroke: #79b5d9; stroke-width: 1.5; stroke-linecap: square"/>
    </g>
    <g id="text_24">
     <!-- Xi-AIAA -->
     <g transform="translate(216.4 353.524687) scale(0.22 -0.22)">
      <defs>
       <path id="DejaVuSans-49" d="M 628 4666 
L 1259 4666 
L 1259 0 
L 628 0 
L 628 4666 
z
" transform="scale(0.015625)"/>
      </defs>
      <use xlink:href="#DejaVuSans-58"/>
      <use xlink:href="#DejaVuSans-69" x="68.505859"/>
      <use xlink:href="#DejaVuSans-2d" x="96.289062"/>
      <use xlink:href="#DejaVuSans-41" x="130.123047"/>
      <use xlink:href="#DejaVuSans-49" x="198.53125"/>
      <use xlink:href="#DejaVuSans-41" x="228.023438"/>
      <use xlink:href="#DejaVuSans-41" x="299.181641"/>
     </g>
    </g>
    <g id="line2d_29">
     <path d="M 154.8 378.116562 
L 176.8 378.116562 
L 198.8 378.116562 
" style="fill: none; stroke: #fd9649; stroke-width: 1.5; stroke-linecap: square"/>
    </g>
    <g id="text_25">
     <!-- Xa-AIAA -->
     <g transform="translate(216.4 385.816562) scale(0.22 -0.22)">
      <use xlink:href="#DejaVuSans-58"/>
      <use xlink:href="#DejaVuSans-61" x="68.505859"/>
      <use xlink:href="#DejaVuSans-2d" x="129.785156"/>
      <use xlink:href="#DejaVuSans-41" x="163.619141"/>
      <use xlink:href="#DejaVuSans-49" x="232.027344"/>
      <use xlink:href="#DejaVuSans-41" x="261.519531"/>
      <use xlink:href="#DejaVuSans-41" x="332.677734"/>
     </g>
    </g>
    <g id="line2d_30">
     <path d="M 154.8 410.408437 
L 176.8 410.408437 
L 198.8 410.408437 
" style="fill: none; stroke: #2575b7; stroke-width: 1.5; stroke-linecap: square"/>
    </g>
    <g id="text_26">
     <!-- Xi-IAAA -->
     <g transform="translate(216.4 418.108437) scale(0.22 -0.22)">
      <use xlink:href="#DejaVuSans-58"/>
      <use xlink:href="#DejaVuSans-69" x="68.505859"/>
      <use xlink:href="#DejaVuSans-2d" x="96.289062"/>
      <use xlink:href="#DejaVuSans-49" x="132.373047"/>
      <use xlink:href="#DejaVuSans-41" x="161.865234"/>
      <use xlink:href="#DejaVuSans-41" x="233.023438"/>
      <use xlink:href="#DejaVuSans-41" x="304.181641"/>
     </g>
    </g>
    <g id="line2d_31">
     <path d="M 154.8 442.700312 
L 176.8 442.700312 
L 198.8 442.700312 
" style="fill: none; stroke: #dc4c03; stroke-width: 1.5; stroke-linecap: square"/>
    </g>
    <g id="text_27">
     <!-- Xa-IAAA -->
     <g transform="translate(216.4 450.400312) scale(0.22 -0.22)">
      <use xlink:href="#DejaVuSans-58"/>
      <use xlink:href="#DejaVuSans-61" x="68.505859"/>
      <use xlink:href="#DejaVuSans-2d" x="129.785156"/>
      <use xlink:href="#DejaVuSans-49" x="165.869141"/>
      <use xlink:href="#DejaVuSans-41" x="195.361328"/>
      <use xlink:href="#DejaVuSans-41" x="266.519531"/>
      <use xlink:href="#DejaVuSans-41" x="337.677734"/>
     </g>
    </g>
    <g id="line2d_32">
     <path d="M 154.8 474.992188 
L 176.8 474.992188 
L 198.8 474.992188 
" style="fill: none; stroke: #08306b; stroke-width: 1.5; stroke-linecap: square"/>
    </g>
    <g id="text_28">
     <!-- Xi-IIAA -->
     <g transform="translate(216.4 482.692187) scale(0.22 -0.22)">
      <use xlink:href="#DejaVuSans-58"/>
      <use xlink:href="#DejaVuSans-69" x="68.505859"/>
      <use xlink:href="#DejaVuSans-2d" x="96.289062"/>
      <use xlink:href="#DejaVuSans-49" x="132.373047"/>
      <use xlink:href="#DejaVuSans-49" x="161.865234"/>
      <use xlink:href="#DejaVuSans-41" x="191.357422"/>
      <use xlink:href="#DejaVuSans-41" x="262.515625"/>
     </g>
    </g>
    <g id="line2d_33">
     <path d="M 154.8 507.284062 
L 176.8 507.284062 
L 198.8 507.284062 
" style="fill: none; stroke: #7f2704; stroke-width: 1.5; stroke-linecap: square"/>
    </g>
    <g id="text_29">
     <!-- Xa-IIAA -->
     <g transform="translate(216.4 514.984062) scale(0.22 -0.22)">
      <use xlink:href="#DejaVuSans-58"/>
      <use xlink:href="#DejaVuSans-61" x="68.505859"/>
      <use xlink:href="#DejaVuSans-2d" x="129.785156"/>
      <use xlink:href="#DejaVuSans-49" x="165.869141"/>
      <use xlink:href="#DejaVuSans-49" x="195.361328"/>
      <use xlink:href="#DejaVuSans-41" x="224.853516"/>
      <use xlink:href="#DejaVuSans-41" x="296.011719"/>
     </g>
    </g>
   </g>
  </g>
 </g>
 <defs>
  <clipPath id="p294e5309c2">
   <rect x="135" y="86.4" width="837" height="554.4"/>
  </clipPath>
 </defs>
</svg>
