<?xml version="1.0" encoding="utf-8" standalone="no"?>
<!DOCTYPE svg PUBLIC "-//W3C//DTD SVG 1.1//EN"
  "http://www.w3.org/Graphics/SVG/1.1/DTD/svg11.dtd">
<svg xmlns:xlink="http://www.w3.org/1999/xlink" width="1080pt" height="720pt" viewBox="0 0 1080 720" xmlns="http://www.w3.org/2000/svg" version="1.1">
 <metadata>
  <rdf:RDF xmlns:dc="http://purl.org/dc/elements/1.1/" xmlns:cc="http://creativecommons.org/ns#" xmlns:rdf="http://www.w3.org/1999/02/22-rdf-syntax-ns#">
   <cc:Work>
    <dc:type rdf:resource="http://purl.org/dc/dcmitype/StillImage"/>
    <dc:date>2023-01-10T19:23:32.162162</dc:date>
    <dc:format>image/svg+xml</dc:format>
    <dc:creator>
     <cc:Agent>
      <dc:title>Matplotlib v3.6.2, https://matplotlib.org/</dc:title>
     </cc:Agent>
    </dc:creator>
   </cc:Work>
  </rdf:RDF>
 </metadata>
 <defs>
  <style type="text/css">*{stroke-linejoin: round; stroke-linecap: butt}</style>
 </defs>
 <g id="figure_1">
  <g id="patch_1">
   <path d="M 0 720 
L 1080 720 
L 1080 0 
L 0 0 
z
" style="fill: #ffffff"/>
  </g>
  <g id="axes_1">
   <g id="patch_2">
    <path d="M 135 640.8 
L 972 640.8 
L 972 86.4 
L 135 86.4 
z
" style="fill: #ffffff"/>
   </g>
   <g id="PathCollection_1">
    <defs>
     <path id="m80f1702e56" d="M 0 3 
C 0.795609 3 1.55874 2.683901 2.12132 2.12132 
C 2.683901 1.55874 3 0.795609 3 0 
C 3 -0.795609 2.683901 -1.55874 2.12132 -2.12132 
C 1.55874 -2.683901 0.795609 -3 0 -3 
C -0.795609 -3 -1.55874 -2.683901 -2.12132 -2.12132 
C -2.683901 -1.55874 -3 -0.795609 -3 0 
C -3 0.795609 -2.683901 1.55874 -2.12132 2.12132 
C -1.55874 2.683901 -0.795609 3 0 3 
z
" style="stroke: #1f77b4"/>
    </defs>
    <g clip-path="url(#p294e5309c2)">
     <use xlink:href="#m80f1702e56" x="173.045455" y="615.6" style="fill: #1f77b4; stroke: #1f77b4"/>
     <use xlink:href="#m80f1702e56" x="268.159091" y="587.751317" style="fill: #1f77b4; stroke: #1f77b4"/>
     <use xlink:href="#m80f1702e56" x="363.272727" y="578.310376" style="fill: #1f77b4; stroke: #1f77b4"/>
     <use xlink:href="#m80f1702e56" x="458.386364" y="576.400004" style="fill: #1f77b4; stroke: #1f77b4"/>
     <use xlink:href="#m80f1702e56" x="553.5" y="540.660099" style="fill: #1f77b4; stroke: #1f77b4"/>
     <use xlink:href="#m80f1702e56" x="648.613636" y="504.920194" style="fill: #1f77b4; stroke: #1f77b4"/>
     <use xlink:href="#m80f1702e56" x="743.727273" y="312.917173" style="fill: #1f77b4; stroke: #1f77b4"/>
     <use xlink:href="#m80f1702e56" x="838.840909" y="312.917173" style="fill: #1f77b4; stroke: #1f77b4"/>
     <use xlink:href="#m80f1702e56" x="933.954545" y="312.917173" style="fill: #1f77b4; stroke: #1f77b4"/>
    </g>
   </g>
   <g id="PathCollection_2">
    <defs>
     <path id="m62fcbac0dc" d="M 0 3 
C 0.795609 3 1.55874 2.683901 2.12132 2.12132 
C 2.683901 1.55874 3 0.795609 3 0 
C 3 -0.795609 2.683901 -1.55874 2.12132 -2.12132 
C 1.55874 -2.683901 0.795609 -3 0 -3 
C -0.795609 -3 -1.55874 -2.683901 -2.12132 -2.12132 
C -2.683901 -1.55874 -3 -0.795609 -3 0 
C -3 0.795609 -2.683901 1.55874 -2.12132 2.12132 
C -1.55874 2.683901 -0.795609 3 0 3 
z
" style="stroke: #ff7f0e"/>
    </defs>
    <g clip-path="url(#p294e5309c2)">
     <use xlink:href="#m62fcbac0dc" x="173.045455" y="198.78201" style="fill: #ff7f0e; stroke: #ff7f0e"/>
     <use xlink:href="#m62fcbac0dc" x="268.159091" y="181.775917" style="fill: #ff7f0e; stroke: #ff7f0e"/>
     <use xlink:href="#m62fcbac0dc" x="363.272727" y="208.311193" style="fill: #ff7f0e; stroke: #ff7f0e"/>
     <use xlink:href="#m62fcbac0dc" x="458.386364" y="158.291547" style="fill: #ff7f0e; stroke: #ff7f0e"/>
     <use xlink:href="#m62fcbac0dc" x="553.5" y="189.297574" style="fill: #ff7f0e; stroke: #ff7f0e"/>
     <use xlink:href="#m62fcbac0dc" x="648.613636" y="220.303602" style="fill: #ff7f0e; stroke: #ff7f0e"/>
     <use xlink:href="#m62fcbac0dc" x="743.727273" y="336.249666" style="fill: #ff7f0e; stroke: #ff7f0e"/>
     <use xlink:href="#m62fcbac0dc" x="838.840909" y="336.249666" style="fill: #ff7f0e; stroke: #ff7f0e"/>
     <use xlink:href="#m62fcbac0dc" x="933.954545" y="336.249666" style="fill: #ff7f0e; stroke: #ff7f0e"/>
    </g>
   </g>
   <g id="matplotlib.axis_1">
    <g id="xtick_1">
     <g id="line2d_1">
      <defs>
       <path id="m3385fdae1e" d="M 0 0 
L 0 3.5 
" style="stroke: #000000; stroke-width: 0.8"/>
      </defs>
      <g>
       <use xlink:href="#m3385fdae1e" x="173.045455" y="640.8" style="stroke: #000000; stroke-width: 0.8"/>
      </g>
     </g>
     <g id="text_1">
      <!-- 7 -->
      <g transform="translate(166.046705 664.516562) scale(0.22 -0.22)">
       <defs>
        <path id="DejaVuSans-37" d="M 525 4666 
L 3525 4666 
L 3525 4397 
L 1831 0 
L 1172 0 
L 2766 4134 
L 525 4134 
L 525 4666 
z
" transform="scale(0.015625)"/>
       </defs>
       <use xlink:href="#DejaVuSans-37"/>
      </g>
     </g>
    </g>
    <g id="xtick_2">
     <g id="line2d_2">
      <g>
       <use xlink:href="#m3385fdae1e" x="268.159091" y="640.8" style="stroke: #000000; stroke-width: 0.8"/>
      </g>
     </g>
     <g id="text_2">
      <!-- 8 -->
      <g transform="translate(261.160341 664.516562) scale(0.22 -0.22)">
       <defs>
        <path id="DejaVuSans-38" d="M 2034 2216 
Q 1584 2216 1326 1975 
Q 1069 1734 1069 1313 
Q 1069 891 1326 650 
Q 1584 409 2034 409 
Q 2484 409 2743 651 
Q 3003 894 3003 1313 
Q 3003 1734 2745 1975 
Q 2488 2216 2034 2216 
z
M 1403 2484 
Q 997 2584 770 2862 
Q 544 3141 544 3541 
Q 544 4100 942 4425 
Q 1341 4750 2034 4750 
Q 2731 4750 3128 4425 
Q 3525 4100 3525 3541 
Q 3525 3141 3298 2862 
Q 3072 2584 2669 2484 
Q 3125 2378 3379 2068 
Q 3634 1759 3634 1313 
Q 3634 634 3220 271 
Q 2806 -91 2034 -91 
Q 1263 -91 848 271 
Q 434 634 434 1313 
Q 434 1759 690 2068 
Q 947 2378 1403 2484 
z
M 1172 3481 
Q 1172 3119 1398 2916 
Q 1625 2713 2034 2713 
Q 2441 2713 2670 2916 
Q 2900 3119 2900 3481 
Q 2900 3844 2670 4047 
Q 2441 4250 2034 4250 
Q 1625 4250 1398 4047 
Q 1172 3844 1172 3481 
z
" transform="scale(0.015625)"/>
       </defs>
       <use xlink:href="#DejaVuSans-38"/>
      </g>
     </g>
    </g>
    <g id="xtick_3">
     <g id="line2d_3">
      <g>
       <use xlink:href="#m3385fdae1e" x="363.272727" y="640.8" style="stroke: #000000; stroke-width: 0.8"/>
      </g>
     </g>
     <g id="text_3">
      <!-- 9 -->
      <g transform="translate(356.273977 664.516562) scale(0.22 -0.22)">
       <defs>
        <path id="DejaVuSans-39" d="M 703 97 
L 703 672 
Q 941 559 1184 500 
Q 1428 441 1663 441 
Q 2288 441 2617 861 
Q 2947 1281 2994 2138 
Q 2813 1869 2534 1725 
Q 2256 1581 1919 1581 
Q 1219 1581 811 2004 
Q 403 2428 403 3163 
Q 403 3881 828 4315 
Q 1253 4750 1959 4750 
Q 2769 4750 3195 4129 
Q 3622 3509 3622 2328 
Q 3622 1225 3098 567 
Q 2575 -91 1691 -91 
Q 1453 -91 1209 -44 
Q 966 3 703 97 
z
M 1959 2075 
Q 2384 2075 2632 2365 
Q 2881 2656 2881 3163 
Q 2881 3666 2632 3958 
Q 2384 4250 1959 4250 
Q 1534 4250 1286 3958 
Q 1038 3666 1038 3163 
Q 1038 2656 1286 2365 
Q 1534 2075 1959 2075 
z
" transform="scale(0.015625)"/>
       </defs>
       <use xlink:href="#DejaVuSans-39"/>
      </g>
     </g>
    </g>
    <g id="xtick_4">
     <g id="line2d_4">
      <g>
       <use xlink:href="#m3385fdae1e" x="458.386364" y="640.8" style="stroke: #000000; stroke-width: 0.8"/>
      </g>
     </g>
     <g id="text_4">
      <!-- 10 -->
      <g transform="translate(444.388864 664.516562) scale(0.22 -0.22)">
       <defs>
        <path id="DejaVuSans-31" d="M 794 531 
L 1825 531 
L 1825 4091 
L 703 3866 
L 703 4441 
L 1819 4666 
L 2450 4666 
L 2450 531 
L 3481 531 
L 3481 0 
L 794 0 
L 794 531 
z
" transform="scale(0.015625)"/>
        <path id="DejaVuSans-30" d="M 2034 4250 
Q 1547 4250 1301 3770 
Q 1056 3291 1056 2328 
Q 1056 1369 1301 889 
Q 1547 409 2034 409 
Q 2525 409 2770 889 
Q 3016 1369 3016 2328 
Q 3016 3291 2770 3770 
Q 2525 4250 2034 4250 
z
M 2034 4750 
Q 2819 4750 3233 4129 
Q 3647 3509 3647 2328 
Q 3647 1150 3233 529 
Q 2819 -91 2034 -91 
Q 1250 -91 836 529 
Q 422 1150 422 2328 
Q 422 3509 836 4129 
Q 1250 4750 2034 4750 
z
" transform="scale(0.015625)"/>
       </defs>
       <use xlink:href="#DejaVuSans-31"/>
       <use xlink:href="#DejaVuSans-30" x="63.623047"/>
      </g>
     </g>
    </g>
    <g id="xtick_5">
     <g id="line2d_5">
      <g>
       <use xlink:href="#m3385fdae1e" x="553.5" y="640.8" style="stroke: #000000; stroke-width: 0.8"/>
      </g>
     </g>
     <g id="text_5">
      <!-- 11 -->
      <g transform="translate(539.5025 664.516562) scale(0.22 -0.22)">
       <use xlink:href="#DejaVuSans-31"/>
       <use xlink:href="#DejaVuSans-31" x="63.623047"/>
      </g>
     </g>
    </g>
    <g id="xtick_6">
     <g id="line2d_6">
      <g>
       <use xlink:href="#m3385fdae1e" x="648.613636" y="640.8" style="stroke: #000000; stroke-width: 0.8"/>
      </g>
     </g>
     <g id="text_6">
      <!-- 12 -->
      <g transform="translate(634.616136 664.516562) scale(0.22 -0.22)">
       <defs>
        <path id="DejaVuSans-32" d="M 1228 531 
L 3431 531 
L 3431 0 
L 469 0 
L 469 531 
Q 828 903 1448 1529 
Q 2069 2156 2228 2338 
Q 2531 2678 2651 2914 
Q 2772 3150 2772 3378 
Q 2772 3750 2511 3984 
Q 2250 4219 1831 4219 
Q 1534 4219 1204 4116 
Q 875 4013 500 3803 
L 500 4441 
Q 881 4594 1212 4672 
Q 1544 4750 1819 4750 
Q 2544 4750 2975 4387 
Q 3406 4025 3406 3419 
Q 3406 3131 3298 2873 
Q 3191 2616 2906 2266 
Q 2828 2175 2409 1742 
Q 1991 1309 1228 531 
z
" transform="scale(0.015625)"/>
       </defs>
       <use xlink:href="#DejaVuSans-31"/>
       <use xlink:href="#DejaVuSans-32" x="63.623047"/>
      </g>
     </g>
    </g>
    <g id="xtick_7">
     <g id="line2d_7">
      <g>
       <use xlink:href="#m3385fdae1e" x="743.727273" y="640.8" style="stroke: #000000; stroke-width: 0.8"/>
      </g>
     </g>
     <g id="text_7">
      <!-- 13 -->
      <g transform="translate(729.729773 664.516562) scale(0.22 -0.22)">
       <defs>
        <path id="DejaVuSans-33" d="M 2597 2516 
Q 3050 2419 3304 2112 
Q 3559 1806 3559 1356 
Q 3559 666 3084 287 
Q 2609 -91 1734 -91 
Q 1441 -91 1130 -33 
Q 819 25 488 141 
L 488 750 
Q 750 597 1062 519 
Q 1375 441 1716 441 
Q 2309 441 2620 675 
Q 2931 909 2931 1356 
Q 2931 1769 2642 2001 
Q 2353 2234 1838 2234 
L 1294 2234 
L 1294 2753 
L 1863 2753 
Q 2328 2753 2575 2939 
Q 2822 3125 2822 3475 
Q 2822 3834 2567 4026 
Q 2313 4219 1838 4219 
Q 1578 4219 1281 4162 
Q 984 4106 628 3988 
L 628 4550 
Q 988 4650 1302 4700 
Q 1616 4750 1894 4750 
Q 2613 4750 3031 4423 
Q 3450 4097 3450 3541 
Q 3450 3153 3228 2886 
Q 3006 2619 2597 2516 
z
" transform="scale(0.015625)"/>
       </defs>
       <use xlink:href="#DejaVuSans-31"/>
       <use xlink:href="#DejaVuSans-33" x="63.623047"/>
      </g>
     </g>
    </g>
    <g id="xtick_8">
     <g id="line2d_8">
      <g>
       <use xlink:href="#m3385fdae1e" x="838.840909" y="640.8" style="stroke: #000000; stroke-width: 0.8"/>
      </g>
     </g>
     <g id="text_8">
      <!-- 14 -->
      <g transform="translate(824.843409 664.516562) scale(0.22 -0.22)">
       <defs>
        <path id="DejaVuSans-34" d="M 2419 4116 
L 825 1625 
L 2419 1625 
L 2419 4116 
z
M 2253 4666 
L 3047 4666 
L 3047 1625 
L 3713 1625 
L 3713 1100 
L 3047 1100 
L 3047 0 
L 2419 0 
L 2419 1100 
L 313 1100 
L 313 1709 
L 2253 4666 
z
" transform="scale(0.015625)"/>
       </defs>
       <use xlink:href="#DejaVuSans-31"/>
       <use xlink:href="#DejaVuSans-34" x="63.623047"/>
      </g>
     </g>
    </g>
    <g id="xtick_9">
     <g id="line2d_9">
      <g>
       <use xlink:href="#m3385fdae1e" x="933.954545" y="640.8" style="stroke: #000000; stroke-width: 0.8"/>
      </g>
     </g>
     <g id="text_9">
      <!-- 15 -->
      <g transform="translate(919.957045 664.516562) scale(0.22 -0.22)">
       <defs>
        <path id="DejaVuSans-35" d="M 691 4666 
L 3169 4666 
L 3169 4134 
L 1269 4134 
L 1269 2991 
Q 1406 3038 1543 3061 
Q 1681 3084 1819 3084 
Q 2600 3084 3056 2656 
Q 3513 2228 3513 1497 
Q 3513 744 3044 326 
Q 2575 -91 1722 -91 
Q 1428 -91 1123 -41 
Q 819 9 494 109 
L 494 744 
Q 775 591 1075 516 
Q 1375 441 1709 441 
Q 2250 441 2565 725 
Q 2881 1009 2881 1497 
Q 2881 1984 2565 2268 
Q 2250 2553 1709 2553 
Q 1456 2553 1204 2497 
Q 953 2441 691 2322 
L 691 4666 
z
" transform="scale(0.015625)"/>
       </defs>
       <use xlink:href="#DejaVuSans-31"/>
       <use xlink:href="#DejaVuSans-35" x="63.623047"/>
      </g>
     </g>
    </g>
    <g id="text_10">
     <!-- Time (days) -->
     <g transform="translate(488.541562 689.808437) scale(0.22 -0.22)">
      <defs>
       <path id="DejaVuSans-54" d="M -19 4666 
L 3928 4666 
L 3928 4134 
L 2272 4134 
L 2272 0 
L 1638 0 
L 1638 4134 
L -19 4134 
L -19 4666 
z
" transform="scale(0.015625)"/>
       <path id="DejaVuSans-69" d="M 603 3500 
L 1178 3500 
L 1178 0 
L 603 0 
L 603 3500 
z
M 603 4863 
L 1178 4863 
L 1178 4134 
L 603 4134 
L 603 4863 
z
" transform="scale(0.015625)"/>
       <path id="DejaVuSans-6d" d="M 3328 2828 
Q 3544 3216 3844 3400 
Q 4144 3584 4550 3584 
Q 5097 3584 5394 3201 
Q 5691 2819 5691 2113 
L 5691 0 
L 5113 0 
L 5113 2094 
Q 5113 2597 4934 2840 
Q 4756 3084 4391 3084 
Q 3944 3084 3684 2787 
Q 3425 2491 3425 1978 
L 3425 0 
L 2847 0 
L 2847 2094 
Q 2847 2600 2669 2842 
Q 2491 3084 2119 3084 
Q 1678 3084 1418 2786 
Q 1159 2488 1159 1978 
L 1159 0 
L 581 0 
L 581 3500 
L 1159 3500 
L 1159 2956 
Q 1356 3278 1631 3431 
Q 1906 3584 2284 3584 
Q 2666 3584 2933 3390 
Q 3200 3197 3328 2828 
z
" transform="scale(0.015625)"/>
       <path id="DejaVuSans-65" d="M 3597 1894 
L 3597 1613 
L 953 1613 
Q 991 1019 1311 708 
Q 1631 397 2203 397 
Q 2534 397 2845 478 
Q 3156 559 3463 722 
L 3463 178 
Q 3153 47 2828 -22 
Q 2503 -91 2169 -91 
Q 1331 -91 842 396 
Q 353 884 353 1716 
Q 353 2575 817 3079 
Q 1281 3584 2069 3584 
Q 2775 3584 3186 3129 
Q 3597 2675 3597 1894 
z
M 3022 2063 
Q 3016 2534 2758 2815 
Q 2500 3097 2075 3097 
Q 1594 3097 1305 2825 
Q 1016 2553 972 2059 
L 3022 2063 
z
" transform="scale(0.015625)"/>
       <path id="DejaVuSans-20" transform="scale(0.015625)"/>
       <path id="DejaVuSans-28" d="M 1984 4856 
Q 1566 4138 1362 3434 
Q 1159 2731 1159 2009 
Q 1159 1288 1364 580 
Q 1569 -128 1984 -844 
L 1484 -844 
Q 1016 -109 783 600 
Q 550 1309 550 2009 
Q 550 2706 781 3412 
Q 1013 4119 1484 4856 
L 1984 4856 
z
" transform="scale(0.015625)"/>
       <path id="DejaVuSans-64" d="M 2906 2969 
L 2906 4863 
L 3481 4863 
L 3481 0 
L 2906 0 
L 2906 525 
Q 2725 213 2448 61 
Q 2172 -91 1784 -91 
Q 1150 -91 751 415 
Q 353 922 353 1747 
Q 353 2572 751 3078 
Q 1150 3584 1784 3584 
Q 2172 3584 2448 3432 
Q 2725 3281 2906 2969 
z
M 947 1747 
Q 947 1113 1208 752 
Q 1469 391 1925 391 
Q 2381 391 2643 752 
Q 2906 1113 2906 1747 
Q 2906 2381 2643 2742 
Q 2381 3103 1925 3103 
Q 1469 3103 1208 2742 
Q 947 2381 947 1747 
z
" transform="scale(0.015625)"/>
       <path id="DejaVuSans-61" d="M 2194 1759 
Q 1497 1759 1228 1600 
Q 959 1441 959 1056 
Q 959 750 1161 570 
Q 1363 391 1709 391 
Q 2188 391 2477 730 
Q 2766 1069 2766 1631 
L 2766 1759 
L 2194 1759 
z
M 3341 1997 
L 3341 0 
L 2766 0 
L 2766 531 
Q 2569 213 2275 61 
Q 1981 -91 1556 -91 
Q 1019 -91 701 211 
Q 384 513 384 1019 
Q 384 1609 779 1909 
Q 1175 2209 1959 2209 
L 2766 2209 
L 2766 2266 
Q 2766 2663 2505 2880 
Q 2244 3097 1772 3097 
Q 1472 3097 1187 3025 
Q 903 2953 641 2809 
L 641 3341 
Q 956 3463 1253 3523 
Q 1550 3584 1831 3584 
Q 2591 3584 2966 3190 
Q 3341 2797 3341 1997 
z
" transform="scale(0.015625)"/>
       <path id="DejaVuSans-79" d="M 2059 -325 
Q 1816 -950 1584 -1140 
Q 1353 -1331 966 -1331 
L 506 -1331 
L 506 -850 
L 844 -850 
Q 1081 -850 1212 -737 
Q 1344 -625 1503 -206 
L 1606 56 
L 191 3500 
L 800 3500 
L 1894 763 
L 2988 3500 
L 3597 3500 
L 2059 -325 
z
" transform="scale(0.015625)"/>
       <path id="DejaVuSans-73" d="M 2834 3397 
L 2834 2853 
Q 2591 2978 2328 3040 
Q 2066 3103 1784 3103 
Q 1356 3103 1142 2972 
Q 928 2841 928 2578 
Q 928 2378 1081 2264 
Q 1234 2150 1697 2047 
L 1894 2003 
Q 2506 1872 2764 1633 
Q 3022 1394 3022 966 
Q 3022 478 2636 193 
Q 2250 -91 1575 -91 
Q 1294 -91 989 -36 
Q 684 19 347 128 
L 347 722 
Q 666 556 975 473 
Q 1284 391 1588 391 
Q 1994 391 2212 530 
Q 2431 669 2431 922 
Q 2431 1156 2273 1281 
Q 2116 1406 1581 1522 
L 1381 1569 
Q 847 1681 609 1914 
Q 372 2147 372 2553 
Q 372 3047 722 3315 
Q 1072 3584 1716 3584 
Q 2034 3584 2315 3537 
Q 2597 3491 2834 3397 
z
" transform="scale(0.015625)"/>
       <path id="DejaVuSans-29" d="M 513 4856 
L 1013 4856 
Q 1481 4119 1714 3412 
Q 1947 2706 1947 2009 
Q 1947 1309 1714 600 
Q 1481 -109 1013 -844 
L 513 -844 
Q 928 -128 1133 580 
Q 1338 1288 1338 2009 
Q 1338 2731 1133 3434 
Q 928 4138 513 4856 
z
" transform="scale(0.015625)"/>
      </defs>
      <use xlink:href="#DejaVuSans-54"/>
      <use xlink:href="#DejaVuSans-69" x="57.958984"/>
      <use xlink:href="#DejaVuSans-6d" x="85.742188"/>
      <use xlink:href="#DejaVuSans-65" x="183.154297"/>
      <use xlink:href="#DejaVuSans-20" x="244.677734"/>
      <use xlink:href="#DejaVuSans-28" x="276.464844"/>
      <use xlink:href="#DejaVuSans-64" x="315.478516"/>
      <use xlink:href="#DejaVuSans-61" x="378.955078"/>
      <use xlink:href="#DejaVuSans-79" x="440.234375"/>
      <use xlink:href="#DejaVuSans-73" x="499.414062"/>
      <use xlink:href="#DejaVuSans-29" x="551.513672"/>
     </g>
    </g>
   </g>
   <g id="matplotlib.axis_2">
    <g id="ytick_1">
     <g id="line2d_10">
      <defs>
       <path id="ma600d9e374" d="M 0 0 
L -3.5 0 
" style="stroke: #000000; stroke-width: 0.8"/>
      </defs>
      <g>
       <use xlink:href="#ma600d9e374" x="135" y="615.879946" style="stroke: #000000; stroke-width: 0.8"/>
      </g>
     </g>
     <g id="text_11">
      <!-- 0.00 -->
      <g transform="translate(79.015625 624.238227) scale(0.22 -0.22)">
       <defs>
        <path id="DejaVuSans-2e" d="M 684 794 
L 1344 794 
L 1344 0 
L 684 0 
L 684 794 
z
" transform="scale(0.015625)"/>
       </defs>
       <use xlink:href="#DejaVuSans-30"/>
       <use xlink:href="#DejaVuSans-2e" x="63.623047"/>
       <use xlink:href="#DejaVuSans-30" x="95.410156"/>
       <use xlink:href="#DejaVuSans-30" x="159.033203"/>
      </g>
     </g>
    </g>
    <g id="ytick_2">
     <g id="line2d_11">
      <g>
       <use xlink:href="#ma600d9e374" x="135" y="550.815969" style="stroke: #000000; stroke-width: 0.8"/>
      </g>
     </g>
     <g id="text_12">
      <!-- 0.25 -->
      <g transform="translate(79.015625 559.17425) scale(0.22 -0.22)">
       <use xlink:href="#DejaVuSans-30"/>
       <use xlink:href="#DejaVuSans-2e" x="63.623047"/>
       <use xlink:href="#DejaVuSans-32" x="95.410156"/>
       <use xlink:href="#DejaVuSans-35" x="159.033203"/>
      </g>
     </g>
    </g>
    <g id="ytick_3">
     <g id="line2d_12">
      <g>
       <use xlink:href="#ma600d9e374" x="135" y="485.751992" style="stroke: #000000; stroke-width: 0.8"/>
      </g>
     </g>
     <g id="text_13">
      <!-- 0.50 -->
      <g transform="translate(79.015625 494.110273) scale(0.22 -0.22)">
       <use xlink:href="#DejaVuSans-30"/>
       <use xlink:href="#DejaVuSans-2e" x="63.623047"/>
       <use xlink:href="#DejaVuSans-35" x="95.410156"/>
       <use xlink:href="#DejaVuSans-30" x="159.033203"/>
      </g>
     </g>
    </g>
    <g id="ytick_4">
     <g id="line2d_13">
      <g>
       <use xlink:href="#ma600d9e374" x="135" y="420.688015" style="stroke: #000000; stroke-width: 0.8"/>
      </g>
     </g>
     <g id="text_14">
      <!-- 0.75 -->
      <g transform="translate(79.015625 429.046296) scale(0.22 -0.22)">
       <use xlink:href="#DejaVuSans-30"/>
       <use xlink:href="#DejaVuSans-2e" x="63.623047"/>
       <use xlink:href="#DejaVuSans-37" x="95.410156"/>
       <use xlink:href="#DejaVuSans-35" x="159.033203"/>
      </g>
     </g>
    </g>
    <g id="ytick_5">
     <g id="line2d_14">
      <g>
       <use xlink:href="#ma600d9e374" x="135" y="355.624038" style="stroke: #000000; stroke-width: 0.8"/>
      </g>
     </g>
     <g id="text_15">
      <!-- 1.00 -->
      <g transform="translate(79.015625 363.982319) scale(0.22 -0.22)">
       <use xlink:href="#DejaVuSans-31"/>
       <use xlink:href="#DejaVuSans-2e" x="63.623047"/>
       <use xlink:href="#DejaVuSans-30" x="95.410156"/>
       <use xlink:href="#DejaVuSans-30" x="159.033203"/>
      </g>
     </g>
    </g>
    <g id="ytick_6">
     <g id="line2d_15">
      <g>
       <use xlink:href="#ma600d9e374" x="135" y="290.560061" style="stroke: #000000; stroke-width: 0.8"/>
      </g>
     </g>
     <g id="text_16">
      <!-- 1.25 -->
      <g transform="translate(79.015625 298.918342) scale(0.22 -0.22)">
       <use xlink:href="#DejaVuSans-31"/>
       <use xlink:href="#DejaVuSans-2e" x="63.623047"/>
       <use xlink:href="#DejaVuSans-32" x="95.410156"/>
       <use xlink:href="#DejaVuSans-35" x="159.033203"/>
      </g>
     </g>
    </g>
    <g id="ytick_7">
     <g id="line2d_16">
      <g>
       <use xlink:href="#ma600d9e374" x="135" y="225.496084" style="stroke: #000000; stroke-width: 0.8"/>
      </g>
     </g>
     <g id="text_17">
      <!-- 1.50 -->
      <g transform="translate(79.015625 233.854365) scale(0.22 -0.22)">
       <use xlink:href="#DejaVuSans-31"/>
       <use xlink:href="#DejaVuSans-2e" x="63.623047"/>
       <use xlink:href="#DejaVuSans-35" x="95.410156"/>
       <use xlink:href="#DejaVuSans-30" x="159.033203"/>
      </g>
     </g>
    </g>
    <g id="ytick_8">
     <g id="line2d_17">
      <g>
       <use xlink:href="#ma600d9e374" x="135" y="160.432106" style="stroke: #000000; stroke-width: 0.8"/>
      </g>
     </g>
     <g id="text_18">
      <!-- 1.75 -->
      <g transform="translate(79.015625 168.790388) scale(0.22 -0.22)">
       <use xlink:href="#DejaVuSans-31"/>
       <use xlink:href="#DejaVuSans-2e" x="63.623047"/>
       <use xlink:href="#DejaVuSans-37" x="95.410156"/>
       <use xlink:href="#DejaVuSans-35" x="159.033203"/>
      </g>
     </g>
    </g>
    <g id="ytick_9">
     <g id="line2d_18">
      <g>
       <use xlink:href="#ma600d9e374" x="135" y="95.368129" style="stroke: #000000; stroke-width: 0.8"/>
      </g>
     </g>
     <g id="text_19">
      <!-- 2.00 -->
      <g transform="translate(79.015625 103.726411) scale(0.22 -0.22)">
       <use xlink:href="#DejaVuSans-32"/>
       <use xlink:href="#DejaVuSans-2e" x="63.623047"/>
       <use xlink:href="#DejaVuSans-30" x="95.410156"/>
       <use xlink:href="#DejaVuSans-30" x="159.033203"/>
      </g>
     </g>
    </g>
    <g id="text_20">
     <!-- X:A -->
     <g transform="translate(70.440313 382.365312) rotate(-90) scale(0.22 -0.22)">
      <defs>
       <path id="DejaVuSans-58" d="M 403 4666 
L 1081 4666 
L 2241 2931 
L 3406 4666 
L 4084 4666 
L 2584 2425 
L 4184 0 
L 3506 0 
L 2194 1984 
L 872 0 
L 191 0 
L 1856 2491 
L 403 4666 
z
" transform="scale(0.015625)"/>
       <path id="DejaVuSans-3a" d="M 750 794 
L 1409 794 
L 1409 0 
L 750 0 
L 750 794 
z
M 750 3309 
L 1409 3309 
L 1409 2516 
L 750 2516 
L 750 3309 
z
" transform="scale(0.015625)"/>
       <path id="DejaVuSans-41" d="M 2188 4044 
L 1331 1722 
L 3047 1722 
L 2188 4044 
z
M 1831 4666 
L 2547 4666 
L 4325 0 
L 3669 0 
L 3244 1197 
L 1141 1197 
L 716 0 
L 50 0 
L 1831 4666 
z
" transform="scale(0.015625)"/>
      </defs>
      <use xlink:href="#DejaVuSans-58"/>
      <use xlink:href="#DejaVuSans-3a" x="68.505859"/>
      <use xlink:href="#DejaVuSans-41" x="102.197266"/>
     </g>
    </g>
   </g>
   <g id="line2d_19">
    <path d="M 173.045455 615.6 
L 180.731405 608.5023 
L 188.417355 603.709874 
L 196.103306 600.22561 
L 203.789256 597.550533 
L 211.475207 595.430958 
L 219.161157 593.687253 
L 226.847107 592.216005 
L 234.533058 590.958996 
L 242.219008 589.867712 
L 249.904959 588.902524 
L 257.590909 588.034023 
L 265.27686 587.247201 
L 272.96281 586.529087 
L 280.64876 585.868018 
L 288.334711 585.253999 
L 296.020661 584.678698 
L 303.706612 584.135451 
L 311.392562 583.619416 
L 319.078512 583.126978 
L 326.764463 582.654756 
L 334.450413 582.199542 
L 342.136364 581.7583 
L 349.822314 581.328164 
L 357.508264 580.906438 
L 365.194215 580.490599 
L 372.880165 580.078596 
L 380.566116 579.669272 
L 388.252066 579.261348 
L 395.938017 578.853227 
L 403.623967 578.442996 
L 411.309917 578.028426 
L 418.995868 577.60697 
L 426.681818 577.175918 
L 434.367769 576.733781 
L 442.053719 576.279231 
L 449.739669 575.810194 
L 457.42562 575.323857 
L 465.11157 574.816667 
L 472.797521 574.284329 
L 480.483471 573.721808 
L 488.169421 573.123858 
L 495.855372 572.486635 
L 503.541322 571.8047 
L 511.227273 571.070179 
L 518.913223 570.272763 
L 526.599174 569.399705 
L 534.285124 568.435821 
L 541.971074 567.360894 
L 549.657025 566.154131 
L 557.342975 564.794349 
L 565.028926 563.244302 
L 572.714876 561.45024 
L 580.400826 559.341917 
L 588.086777 556.832584 
L 595.772727 553.809564 
L 603.458678 550.113196 
L 611.144628 545.508334 
L 618.830579 539.65114 
L 626.516529 532.088436 
L 634.202479 522.257699 
L 641.88843 509.487515 
L 649.57438 493.169019 
L 657.260331 473.150633 
L 664.946281 450.186553 
L 672.632231 426.067898 
L 680.318182 402.893283 
L 688.004132 382.064253 
L 695.690083 364.389735 
L 703.376033 350.026662 
L 711.061983 338.657928 
L 718.747934 329.867203 
L 726.433884 323.193502 
L 734.119835 318.146967 
L 741.805785 314.360511 
L 749.491736 311.562351 
L 757.177686 309.494748 
L 764.863636 307.936419 
L 772.549587 306.785226 
L 780.235537 305.96255 
L 787.921488 305.376911 
L 795.607438 304.926573 
L 803.293388 304.565698 
L 810.979339 304.300845 
L 818.665289 304.126609 
L 826.35124 304.024062 
L 834.03719 303.96075 
L 841.72314 303.892193 
L 849.409091 303.813956 
L 857.095041 303.747854 
L 864.780992 303.703979 
L 872.466942 303.686096 
L 880.152893 303.691647 
L 887.838843 303.711749 
L 895.524793 303.731194 
L 903.210744 303.728467 
L 910.896694 303.710039 
L 918.582645 303.696724 
L 926.268595 303.687338 
L 933.954545 303.680512 
" clip-path="url(#p294e5309c2)" style="fill: none; stroke: #d0e1f2; stroke-width: 1.5; stroke-linecap: square"/>
   </g>
   <g id="line2d_20">
    <path d="M 173.045455 198.78201 
L 180.731405 194.330792 
L 188.417355 191.595958 
L 196.103306 189.955985 
L 203.789256 188.982235 
L 211.475207 188.474073 
L 219.161157 188.210679 
L 226.847107 188.040852 
L 234.533058 188.006316 
L 242.219008 188.100803 
L 249.904959 188.237909 
L 257.590909 188.290494 
L 265.27686 188.318315 
L 272.96281 188.377945 
L 280.64876 188.486906 
L 288.334711 188.631471 
L 296.020661 188.766662 
L 303.706612 188.820159 
L 311.392562 188.792903 
L 319.078512 188.76676 
L 326.764463 188.79763 
L 334.450413 188.910009 
L 342.136364 189.096998 
L 349.822314 189.320297 
L 357.508264 189.510208 
L 365.194215 189.56567 
L 372.880165 189.454 
L 380.566116 189.327523 
L 388.252066 189.29776 
L 395.938017 189.412062 
L 403.623967 189.653614 
L 411.309917 189.941432 
L 418.995868 190.130363 
L 426.681818 190.053957 
L 434.367769 189.855643 
L 442.053719 189.730602 
L 449.739669 189.78122 
L 457.42562 190.024575 
L 465.11157 190.392433 
L 472.797521 190.731254 
L 480.483471 190.803769 
L 488.169421 190.588068 
L 495.855372 190.380175 
L 503.541322 190.356444 
L 511.227273 190.584259 
L 518.913223 191.022032 
L 526.599174 191.519205 
L 534.285124 191.816249 
L 541.971074 191.719695 
L 549.657025 191.57909 
L 557.342975 191.612652 
L 565.028926 191.915971 
L 572.714876 192.472076 
L 580.400826 193.151436 
L 588.086777 193.711961 
L 595.772727 193.99241 
L 603.458678 194.350516 
L 611.144628 195.030264 
L 618.830579 196.198985 
L 626.516529 197.954333 
L 634.202479 200.324281 
L 641.88843 203.26788 
L 649.57438 207.127042 
L 657.260331 212.818515 
L 664.946281 220.723074 
L 672.632231 230.611581 
L 680.318182 241.87781 
L 688.004132 254.077045 
L 695.690083 266.466141 
L 703.376033 277.90421 
L 711.061983 287.801173 
L 718.747934 296.530754 
L 726.433884 304.014993 
L 734.119835 309.830945 
L 741.805785 314.428568 
L 749.491736 318.143247 
L 757.177686 321.048024 
L 764.863636 323.192027 
L 772.549587 324.837579 
L 780.235537 326.137601 
L 787.921488 327.154035 
L 795.607438 327.869795 
L 803.293388 328.373034 
L 810.979339 328.755276 
L 818.665289 329.062533 
L 826.35124 329.315822 
L 834.03719 329.511164 
L 841.72314 329.61867 
L 849.409091 329.614199 
L 857.095041 329.578447 
L 864.780992 329.582225 
L 872.466942 329.660159 
L 880.152893 329.810692 
L 887.838843 329.996079 
L 895.524793 330.142393 
L 903.210744 330.139605 
L 910.896694 330.043169 
L 918.582645 329.988265 
L 926.268595 329.967304 
L 933.954545 329.95699 
" clip-path="url(#p294e5309c2)" style="fill: none; stroke: #fdd9b4; stroke-width: 1.5; stroke-linecap: square"/>
   </g>
   <g id="line2d_21">
    <path d="M 173.045455 615.6 
L 180.731405 607.17488 
L 188.417355 601.557698 
L 196.103306 597.521555 
L 203.789256 594.470889 
L 211.475207 592.077898 
L 219.161157 590.121234 
L 226.847107 588.491484 
L 234.533058 587.115346 
L 242.219008 585.929964 
L 249.904959 584.882959 
L 257.590909 583.943118 
L 265.27686 583.097051 
L 272.96281 582.330146 
L 280.64876 581.629186 
L 288.334711 580.982346 
L 296.020661 580.379194 
L 303.706612 579.810691 
L 311.392562 579.270197 
L 319.078512 578.755486 
L 326.764463 578.263159 
L 334.450413 577.789864 
L 342.136364 577.33247 
L 349.822314 576.888069 
L 357.508264 576.453972 
L 365.194215 576.027711 
L 372.880165 575.60704 
L 380.566116 575.189931 
L 388.252066 574.77421 
L 395.938017 574.358021 
L 403.623967 573.940192 
L 411.309917 573.519291 
L 418.995868 573.093626 
L 426.681818 572.661239 
L 434.367769 572.219911 
L 442.053719 571.767155 
L 449.739669 571.300224 
L 457.42562 570.816106 
L 465.11157 570.311525 
L 472.797521 569.782941 
L 480.483471 569.226551 
L 488.169421 568.638283 
L 495.855372 568.004806 
L 503.541322 567.321243 
L 511.227273 566.590094 
L 518.913223 565.807961 
L 526.599174 564.965548 
L 534.285124 564.047661 
L 541.971074 563.033208 
L 549.657025 561.895198 
L 557.342975 560.600745 
L 565.028926 559.111061 
L 572.714876 557.381463 
L 580.400826 555.361369 
L 588.086777 552.985457 
L 595.772727 550.13831 
L 603.458678 546.682161 
L 611.144628 542.387028 
L 618.830579 536.922065 
L 626.516529 529.855569 
L 634.202479 520.654974 
L 641.88843 508.686858 
L 649.57438 493.259514 
L 657.260331 474.179311 
L 664.946281 452.118791 
L 672.632231 428.571745 
L 680.318182 405.822187 
L 688.004132 385.579652 
L 695.690083 368.409163 
L 703.376033 354.50611 
L 711.061983 343.62961 
L 718.747934 335.19531 
L 726.433884 328.774682 
L 734.119835 324.014198 
L 741.805785 320.527729 
L 749.491736 317.91037 
L 757.177686 315.941 
L 764.863636 314.51065 
L 772.549587 313.492471 
L 780.235537 312.744739 
L 787.921488 312.15139 
L 795.607438 311.704197 
L 803.293388 311.397512 
L 810.979339 311.206675 
L 818.665289 311.088014 
L 826.35124 310.979444 
L 834.03719 310.863658 
L 841.72314 310.769066 
L 849.409091 310.705874 
L 857.095041 310.676358 
L 864.780992 310.674858 
L 872.466942 310.687787 
L 880.152893 310.693622 
L 887.838843 310.672861 
L 895.524793 310.65209 
L 903.210744 310.637116 
L 910.896694 310.627967 
L 918.582645 310.623548 
L 926.268595 310.621638 
L 933.954545 310.618895 
" clip-path="url(#p294e5309c2)" style="fill: none; stroke: #b7d4ea; stroke-width: 1.5; stroke-linecap: square"/>
   </g>
   <g id="line2d_22">
    <path d="M 173.045455 198.78201 
L 180.731405 194.667687 
L 188.417355 191.634003 
L 196.103306 189.437414 
L 203.789256 187.872304 
L 211.475207 186.780824 
L 219.161157 186.025601 
L 226.847107 185.518978 
L 234.533058 185.214018 
L 242.219008 185.057173 
L 249.904959 184.987145 
L 257.590909 184.949342 
L 265.27686 184.949586 
L 272.96281 185.001153 
L 280.64876 185.105281 
L 288.334711 185.251164 
L 296.020661 185.415956 
L 303.706612 185.564769 
L 311.392562 185.668379 
L 319.078512 185.759118 
L 326.764463 185.851799 
L 334.450413 185.954748 
L 342.136364 186.072351 
L 349.822314 186.205045 
L 357.508264 186.349328 
L 365.194215 186.497749 
L 372.880165 186.638916 
L 380.566116 186.757491 
L 388.252066 186.842754 
L 395.938017 186.90923 
L 403.623967 186.971773 
L 411.309917 187.042167 
L 418.995868 187.129185 
L 426.681818 187.238589 
L 434.367769 187.373135 
L 442.053719 187.532567 
L 449.739669 187.713619 
L 457.42562 187.910017 
L 465.11157 188.112476 
L 472.797521 188.308703 
L 480.483471 188.483393 
L 488.169421 188.618239 
L 495.855372 188.713087 
L 503.541322 188.798924 
L 511.227273 188.899847 
L 518.913223 189.035167 
L 526.599174 189.219406 
L 534.285124 189.462304 
L 541.971074 189.76881 
L 549.657025 190.13909 
L 557.342975 190.568522 
L 565.028926 191.047697 
L 572.714876 191.562421 
L 580.400826 192.093712 
L 588.086777 192.640044 
L 595.772727 193.304907 
L 603.458678 194.125861 
L 611.144628 195.167022 
L 618.830579 196.537363 
L 626.516529 198.390712 
L 634.202479 200.925752 
L 641.88843 204.386021 
L 649.57438 209.058482 
L 657.260331 215.432454 
L 664.946281 223.918379 
L 672.632231 234.405948 
L 680.318182 246.251678 
L 688.004132 258.601209 
L 695.690083 270.826346 
L 703.376033 282.391439 
L 711.061983 292.842518 
L 718.747934 301.869108 
L 726.433884 309.625803 
L 734.119835 316.316739 
L 741.805785 321.97599 
L 749.491736 326.512088 
L 757.177686 330.162362 
L 764.863636 333.144097 
L 772.549587 335.576608 
L 780.235537 337.521696 
L 787.921488 339.044153 
L 795.607438 340.253573 
L 803.293388 341.22048 
L 810.979339 341.996363 
L 818.665289 342.613676 
L 826.35124 343.086344 
L 834.03719 343.450021 
L 841.72314 343.737662 
L 849.409091 343.963232 
L 857.095041 344.138801 
L 864.780992 344.274549 
L 872.466942 344.37876 
L 880.152893 344.457828 
L 887.838843 344.516988 
L 895.524793 344.563197 
L 903.210744 344.600255 
L 910.896694 344.630599 
L 918.582645 344.655678 
L 926.268595 344.675959 
L 933.954545 344.690925 
" clip-path="url(#p294e5309c2)" style="fill: none; stroke: #fdc38d; stroke-width: 1.5; stroke-linecap: square"/>
   </g>
   <g id="line2d_23">
    <path d="M 173.045455 615.6 
L 180.731405 604.305707 
L 188.417355 595.153786 
L 196.103306 587.838462 
L 203.789256 582.073676 
L 211.475207 577.583204 
L 219.161157 574.132393 
L 226.847107 571.554172 
L 234.533058 569.673182 
L 242.219008 568.300467 
L 249.904959 567.265262 
L 257.590909 566.502211 
L 265.27686 565.959015 
L 272.96281 565.573229 
L 280.64876 565.275591 
L 288.334711 565.043022 
L 296.020661 564.871512 
L 303.706612 564.748924 
L 311.392562 564.658589 
L 319.078512 564.580215 
L 326.764463 564.50865 
L 334.450413 564.447198 
L 342.136364 564.395535 
L 349.822314 564.350768 
L 357.508264 564.307426 
L 365.194215 564.257467 
L 372.880165 564.195354 
L 380.566116 564.124947 
L 388.252066 564.047031 
L 395.938017 563.960897 
L 403.623967 563.864392 
L 411.309917 563.753917 
L 418.995868 563.624427 
L 426.681818 563.469434 
L 434.367769 563.282124 
L 442.053719 563.06489 
L 449.739669 562.81217 
L 457.42562 562.513777 
L 465.11157 562.157383 
L 472.797521 561.728526 
L 480.483471 561.210603 
L 488.169421 560.584873 
L 495.855372 559.830457 
L 503.541322 558.924338 
L 511.227273 557.841359 
L 518.913223 556.554225 
L 526.599174 555.026253 
L 534.285124 553.19274 
L 541.971074 550.991221 
L 549.657025 548.37048 
L 557.342975 545.290544 
L 565.028926 541.722693 
L 572.714876 537.649451 
L 580.400826 533.066627 
L 588.086777 527.991918 
L 595.772727 522.440392 
L 603.458678 516.433176 
L 611.144628 510.00001 
L 618.830579 503.179248 
L 626.516529 496.017854 
L 634.202479 488.571533 
L 641.88843 480.899789 
L 649.57438 473.040118 
L 657.260331 465.027268 
L 664.946281 456.899851 
L 672.632231 448.700343 
L 680.318182 440.475086 
L 688.004132 432.274286 
L 695.690083 424.152013 
L 703.376033 416.166202 
L 711.061983 408.373562 
L 718.747934 400.774971 
L 726.433884 393.39217 
L 734.119835 386.2547 
L 741.805785 379.386438 
L 749.491736 372.805598 
L 757.177686 366.524733 
L 764.863636 360.550732 
L 772.549587 354.884822 
L 780.235537 349.522567 
L 787.921488 344.453869 
L 795.607438 339.657006 
L 803.293388 335.127038 
L 810.979339 330.87831 
L 818.665289 326.918884 
L 826.35124 323.250378 
L 834.03719 319.867973 
L 841.72314 316.760407 
L 849.409091 313.909978 
L 857.095041 311.292543 
L 864.780992 308.877519 
L 872.466942 306.627882 
L 880.152893 304.50822 
L 887.838843 302.547321 
L 895.524793 300.748294 
L 903.210744 299.102169 
L 910.896694 297.598987 
L 918.582645 296.227805 
L 926.268595 294.976696 
L 933.954545 293.832747 
" clip-path="url(#p294e5309c2)" style="fill: none; stroke: #94c4df; stroke-width: 1.5; stroke-linecap: square"/>
   </g>
   <g id="line2d_24">
    <path d="M 173.045455 198.78201 
L 180.731405 195.56468 
L 188.417355 192.377084 
L 196.103306 189.216994 
L 203.789256 186.126364 
L 211.475207 183.203339 
L 219.161157 180.559393 
L 226.847107 178.221917 
L 234.533058 176.24039 
L 242.219008 174.695665 
L 249.904959 173.577762 
L 257.590909 172.73723 
L 265.27686 172.12144 
L 272.96281 171.676735 
L 280.64876 171.348597 
L 288.334711 171.105926 
L 296.020661 170.938467 
L 303.706612 170.832712 
L 311.392562 170.771272 
L 319.078512 170.733706 
L 326.764463 170.714612 
L 334.450413 170.718609 
L 342.136364 170.747108 
L 349.822314 170.798974 
L 357.508264 170.870526 
L 365.194215 170.955539 
L 372.880165 171.051342 
L 380.566116 171.166456 
L 388.252066 171.306448 
L 395.938017 171.476531 
L 403.623967 171.681627 
L 411.309917 171.926369 
L 418.995868 172.215099 
L 426.681818 172.55187 
L 434.367769 172.941641 
L 442.053719 173.401184 
L 449.739669 173.943657 
L 457.42562 174.583159 
L 465.11157 175.33738 
L 472.797521 176.227604 
L 480.483471 177.278706 
L 488.169421 178.519157 
L 495.855372 179.981016 
L 503.541322 181.699938 
L 511.227273 183.715169 
L 518.913223 186.069549 
L 526.599174 188.793192 
L 534.285124 191.879059 
L 541.971074 195.308268 
L 549.657025 199.047904 
L 557.342975 203.051006 
L 565.028926 207.256569 
L 572.714876 211.589545 
L 580.400826 215.966515 
L 588.086777 220.353628 
L 595.772727 224.733104 
L 603.458678 229.088316 
L 611.144628 233.407176 
L 618.830579 237.68214 
L 626.516529 241.910202 
L 634.202479 246.092804 
L 641.88843 250.230407 
L 649.57438 254.322231 
L 657.260331 258.368621 
L 664.946281 262.369946 
L 672.632231 266.326604 
L 680.318182 270.239016 
L 688.004132 274.10763 
L 695.690083 277.932919 
L 703.376033 281.715383 
L 711.061983 285.455541 
L 718.747934 289.153853 
L 726.433884 292.810774 
L 734.119835 296.426766 
L 741.805785 300.002287 
L 749.491736 303.53779 
L 757.177686 307.03372 
L 764.863636 310.490523 
L 772.549587 313.908635 
L 780.235537 317.288489 
L 787.921488 320.630515 
L 795.607438 323.935135 
L 803.293388 327.202769 
L 810.979339 330.433829 
L 818.665289 333.628725 
L 826.35124 336.787861 
L 834.03719 339.911638 
L 841.72314 343.000451 
L 849.409091 346.054691 
L 857.095041 349.074747 
L 864.780992 352.061001 
L 872.466942 355.013831 
L 880.152893 357.933611 
L 887.838843 360.820711 
L 895.524793 363.675497 
L 903.210744 366.498331 
L 910.896694 369.289569 
L 918.582645 372.049566 
L 926.268595 374.778672 
L 933.954545 377.477231 
" clip-path="url(#p294e5309c2)" style="fill: none; stroke: #fda762; stroke-width: 1.5; stroke-linecap: square"/>
   </g>
   <g id="line2d_25">
    <path d="M 173.045455 615.6 
L 180.731405 600.022999 
L 188.417355 592.509233 
L 196.103306 588.242145 
L 203.789256 585.810868 
L 211.475207 584.408265 
L 219.161157 583.584761 
L 226.847107 583.08145 
L 234.533058 582.770359 
L 242.219008 582.539891 
L 249.904959 582.369872 
L 257.590909 582.229644 
L 265.27686 582.085116 
L 272.96281 581.943058 
L 280.64876 581.802374 
L 288.334711 581.650435 
L 296.020661 581.476722 
L 303.706612 581.288368 
L 311.392562 581.086635 
L 319.078512 580.868939 
L 326.764463 580.628855 
L 334.450413 580.361132 
L 342.136364 580.073388 
L 349.822314 579.755365 
L 357.508264 579.398273 
L 365.194215 578.997286 
L 372.880165 578.551536 
L 380.566116 578.064123 
L 388.252066 577.542103 
L 395.938017 576.988653 
L 403.623967 576.375926 
L 411.309917 575.681722 
L 418.995868 574.90364 
L 426.681818 574.059076 
L 434.367769 573.169361 
L 442.053719 572.19082 
L 449.739669 571.082657 
L 457.42562 569.839932 
L 465.11157 568.493593 
L 472.797521 567.078623 
L 480.483471 565.523483 
L 488.169421 563.774493 
L 495.855372 561.835459 
L 503.541322 559.766178 
L 511.227273 557.57161 
L 518.913223 555.131489 
L 526.599174 552.401394 
L 534.285124 549.435241 
L 541.971074 546.342516 
L 549.657025 543.007131 
L 557.342975 539.304315 
L 565.028926 535.253781 
L 572.714876 531.008643 
L 580.400826 526.545462 
L 588.086777 521.684192 
L 595.772727 516.41469 
L 603.458678 510.901262 
L 611.144628 505.196325 
L 618.830579 499.107491 
L 626.516529 492.615315 
L 634.202479 485.897774 
L 641.88843 479.065841 
L 649.57438 471.940272 
L 657.260331 464.49863 
L 664.946281 456.906212 
L 672.632231 449.335243 
L 680.318182 441.653407 
L 688.004132 433.837872 
L 695.690083 425.984886 
L 703.376033 418.259229 
L 711.061983 410.604381 
L 718.747934 403.101432 
L 726.433884 395.813071 
L 734.119835 388.739159 
L 741.805785 381.813635 
L 749.491736 375.053379 
L 757.177686 368.692341 
L 764.863636 362.777994 
L 772.549587 357.122834 
L 780.235537 351.529242 
L 787.921488 346.318015 
L 795.607438 341.656584 
L 803.293388 337.397135 
L 810.979339 333.151001 
L 818.665289 329.087521 
L 826.35124 325.538877 
L 834.03719 322.493556 
L 841.72314 319.59855 
L 849.409091 316.611515 
L 857.095041 313.943169 
L 864.780992 311.739094 
L 872.466942 309.844328 
L 880.152893 307.860682 
L 887.838843 305.911835 
L 895.524793 304.291485 
L 903.210744 303.022253 
L 910.896694 301.876337 
L 918.582645 300.614178 
L 926.268595 299.496671 
L 933.954545 298.513457 
" clip-path="url(#p294e5309c2)" style="fill: none; stroke: #6aaed6; stroke-width: 1.5; stroke-linecap: square"/>
   </g>
   <g id="line2d_26">
    <path d="M 173.045455 198.78201 
L 180.731405 164.843398 
L 188.417355 164.922067 
L 196.103306 165.013265 
L 203.789256 165.11356 
L 211.475207 165.223685 
L 219.161157 165.344557 
L 226.847107 165.477187 
L 234.533058 165.622678 
L 242.219008 165.782235 
L 249.904959 165.957162 
L 257.590909 166.148876 
L 265.27686 166.358913 
L 272.96281 166.588932 
L 280.64876 166.840723 
L 288.334711 167.116221 
L 296.020661 167.417501 
L 303.706612 167.746793 
L 311.392562 168.10648 
L 319.078512 168.499109 
L 326.764463 168.927389 
L 334.450413 169.394179 
L 342.136364 169.902501 
L 349.822314 170.455603 
L 357.508264 171.056855 
L 365.194215 171.709736 
L 372.880165 172.417838 
L 380.566116 173.184863 
L 388.252066 174.014627 
L 395.938017 174.911022 
L 403.623967 175.87798 
L 411.309917 176.919407 
L 418.995868 178.039122 
L 426.681818 179.240857 
L 434.367769 180.528216 
L 442.053719 181.904602 
L 449.739669 183.373149 
L 457.42562 184.936628 
L 465.11157 186.597444 
L 472.797521 188.357604 
L 480.483471 190.218613 
L 488.169421 192.181447 
L 495.855372 194.246498 
L 503.541322 196.413576 
L 511.227273 198.681892 
L 518.913223 201.050022 
L 526.599174 203.515953 
L 534.285124 206.077083 
L 541.971074 208.730241 
L 549.657025 211.471744 
L 557.342975 214.297446 
L 565.028926 217.202824 
L 572.714876 220.182989 
L 580.400826 223.232779 
L 588.086777 226.346824 
L 595.772727 229.519648 
L 603.458678 232.745693 
L 611.144628 236.019379 
L 618.830579 239.335177 
L 626.516529 242.687677 
L 634.202479 246.071603 
L 641.88843 249.481848 
L 649.57438 252.913521 
L 657.260331 256.361969 
L 664.946281 259.822787 
L 672.632231 263.291826 
L 680.318182 266.765209 
L 688.004132 270.239328 
L 695.690083 273.710841 
L 703.376033 277.176668 
L 711.061983 280.633985 
L 718.747934 284.080221 
L 726.433884 287.513026 
L 734.119835 290.930271 
L 741.805785 294.330047 
L 749.491736 297.710637 
L 757.177686 301.070509 
L 764.863636 304.408294 
L 772.549587 307.722783 
L 780.235537 311.012915 
L 787.921488 314.277761 
L 795.607438 317.516513 
L 803.293388 320.72847 
L 810.979339 323.913037 
L 818.665289 327.069713 
L 826.35124 330.198078 
L 834.03719 333.297786 
L 841.72314 336.368558 
L 849.409091 339.410183 
L 857.095041 342.422501 
L 864.780992 345.405402 
L 872.466942 348.35882 
L 880.152893 351.28273 
L 887.838843 354.177143 
L 895.524793 357.042103 
L 903.210744 359.877678 
L 910.896694 362.683964 
L 918.582645 365.46108 
L 926.268595 368.209163 
L 933.954545 370.928368 
" clip-path="url(#p294e5309c2)" style="fill: none; stroke: #fd8c3b; stroke-width: 1.5; stroke-linecap: square"/>
   </g>
   <g id="line2d_27">
    <path d="M 173.045455 615.6 
L 180.731405 603.170955 
L 188.417355 593.779219 
L 196.103306 586.528059 
L 203.789256 580.828176 
L 211.475207 576.305015 
L 219.161157 572.640704 
L 226.847107 569.640688 
L 234.533058 567.180985 
L 242.219008 565.126385 
L 249.904959 563.363714 
L 257.590909 561.86108 
L 265.27686 560.581305 
L 272.96281 559.466409 
L 280.64876 558.454296 
L 288.334711 557.545288 
L 296.020661 556.740935 
L 303.706612 556.02591 
L 311.392562 555.36845 
L 319.078512 554.734328 
L 326.764463 554.137999 
L 334.450413 553.592212 
L 342.136364 553.096304 
L 349.822314 552.636602 
L 357.508264 552.186416 
L 365.194215 551.722481 
L 372.880165 551.269346 
L 380.566116 550.848816 
L 388.252066 550.467272 
L 395.938017 550.115714 
L 403.623967 549.769755 
L 411.309917 549.390537 
L 418.995868 548.979695 
L 426.681818 548.58118 
L 434.367769 548.215758 
L 442.053719 547.882237 
L 449.739669 547.557471 
L 457.42562 547.196355 
L 465.11157 546.772202 
L 472.797521 546.341547 
L 480.483471 545.942086 
L 488.169421 545.579484 
L 495.855372 545.22738 
L 503.541322 544.827384 
L 511.227273 544.328886 
L 518.913223 543.80698 
L 526.599174 543.302798 
L 534.285124 542.812721 
L 541.971074 542.290382 
L 549.657025 541.656667 
L 557.342975 540.936222 
L 565.028926 540.195397 
L 572.714876 539.43949 
L 580.400826 538.612914 
L 588.086777 537.601303 
L 595.772727 536.378892 
L 603.458678 535.017394 
L 611.144628 533.471178 
L 618.830579 531.573031 
L 626.516529 529.106917 
L 634.202479 526.012248 
L 641.88843 522.026759 
L 649.57438 516.570489 
L 657.260331 508.904494 
L 664.946281 498.301908 
L 672.632231 484.16954 
L 680.318182 467.289069 
L 688.004132 449.791862 
L 695.690083 432.854499 
L 703.376033 416.586654 
L 711.061983 401.41844 
L 718.747934 387.9923 
L 726.433884 376.22498 
L 734.119835 365.79823 
L 741.805785 356.608586 
L 749.491736 348.616068 
L 757.177686 341.690422 
L 764.863636 335.665317 
L 772.549587 330.421471 
L 780.235537 325.873877 
L 787.921488 321.966297 
L 795.607438 318.603833 
L 803.293388 315.70106 
L 810.979339 313.192183 
L 818.665289 311.02326 
L 826.35124 309.152199 
L 834.03719 307.548732 
L 841.72314 306.174805 
L 849.409091 304.990586 
L 857.095041 303.970394 
L 864.780992 303.091575 
L 872.466942 302.334495 
L 880.152893 301.682546 
L 887.838843 301.122142 
L 895.524793 300.642721 
L 903.210744 300.235707 
L 910.896694 299.885597 
L 918.582645 299.583037 
L 926.268595 299.321727 
L 933.954545 299.096423 
" clip-path="url(#p294e5309c2)" style="fill: none; stroke: #4a98c9; stroke-width: 1.5; stroke-linecap: square"/>
   </g>
   <g id="line2d_28">
    <path d="M 173.045455 198.78201 
L 180.731405 189.281742 
L 188.417355 182.66166 
L 196.103306 178.047396 
L 203.789256 174.830395 
L 211.475207 172.62854 
L 219.161157 171.119761 
L 226.847107 170.114508 
L 234.533058 169.51328 
L 242.219008 169.189962 
L 249.904959 169.027512 
L 257.590909 169.022937 
L 265.27686 169.162466 
L 272.96281 169.385121 
L 280.64876 169.609784 
L 288.334711 169.862005 
L 296.020661 170.173286 
L 303.706612 170.53558 
L 311.392562 170.901693 
L 319.078512 171.213473 
L 326.764463 171.514692 
L 334.450413 171.848455 
L 342.136364 172.225337 
L 349.822314 172.624042 
L 357.508264 172.991401 
L 365.194215 173.278464 
L 372.880165 173.549675 
L 380.566116 173.866497 
L 388.252066 174.251665 
L 395.938017 174.689242 
L 403.623967 175.124622 
L 411.309917 175.466636 
L 418.995868 175.721125 
L 426.681818 176.004361 
L 434.367769 176.376011 
L 442.053719 176.839236 
L 449.739669 177.340688 
L 457.42562 177.770511 
L 465.11157 178.061985 
L 472.797521 178.368187 
L 480.483471 178.7994 
L 488.169421 179.380792 
L 495.855372 180.05242 
L 503.541322 180.669236 
L 511.227273 181.105878 
L 518.913223 181.576372 
L 526.599174 182.212893 
L 534.285124 183.028969 
L 541.971074 183.924569 
L 549.657025 184.712809 
L 557.342975 185.496208 
L 565.028926 186.512587 
L 572.714876 187.846599 
L 580.400826 189.428866 
L 588.086777 191.042733 
L 595.772727 192.766724 
L 603.458678 195.004349 
L 611.144628 197.937675 
L 618.830579 201.534652 
L 626.516529 205.835336 
L 634.202479 211.629818 
L 641.88843 219.665144 
L 649.57438 230.495224 
L 657.260331 244.717904 
L 664.946281 261.999174 
L 672.632231 279.892685 
L 680.318182 296.260922 
L 688.004132 309.473833 
L 695.690083 319.409833 
L 703.376033 326.526838 
L 711.061983 331.425379 
L 718.747934 334.964786 
L 726.433884 337.581113 
L 734.119835 339.389194 
L 741.805785 340.608032 
L 749.491736 341.494169 
L 757.177686 342.166426 
L 764.863636 342.626728 
L 772.549587 342.91081 
L 780.235537 343.085839 
L 787.921488 343.242808 
L 795.607438 343.38517 
L 803.293388 343.485932 
L 810.979339 343.53897 
L 818.665289 343.551989 
L 826.35124 343.54652 
L 834.03719 343.55788 
L 841.72314 343.597784 
L 849.409091 343.638933 
L 857.095041 343.667637 
L 864.780992 343.67648 
L 872.466942 343.664322 
L 880.152893 343.636301 
L 887.838843 343.603829 
L 895.524793 343.584597 
L 903.210744 343.597278 
L 910.896694 343.613521 
L 918.582645 343.624544 
L 926.268595 343.631663 
L 933.954545 343.636694 
" clip-path="url(#p294e5309c2)" style="fill: none; stroke: #f3701b; stroke-width: 1.5; stroke-linecap: square"/>
   </g>
   <g id="line2d_29">
    <path d="M 173.045455 615.6 
L 180.731405 609.117323 
L 188.417355 608.011665 
L 196.103306 607.432547 
L 203.789256 607.022901 
L 211.475207 606.667966 
L 219.161157 606.310331 
L 226.847107 605.927833 
L 234.533058 605.505584 
L 242.219008 605.038176 
L 249.904959 604.518766 
L 257.590909 603.94541 
L 265.27686 603.324833 
L 272.96281 602.661996 
L 280.64876 601.940838 
L 288.334711 601.156693 
L 296.020661 600.321885 
L 303.706612 599.451072 
L 311.392562 598.521062 
L 319.078512 597.51702 
L 326.764463 596.44538 
L 334.450413 595.329383 
L 342.136364 594.15488 
L 349.822314 592.892346 
L 357.508264 591.539018 
L 365.194215 590.119488 
L 372.880165 588.646012 
L 380.566116 587.075899 
L 388.252066 585.390561 
L 395.938017 583.606144 
L 403.623967 581.761222 
L 411.309917 579.823865 
L 418.995868 577.751655 
L 426.681818 575.545167 
L 434.367769 573.247517 
L 442.053719 570.873557 
L 449.739669 568.358498 
L 457.42562 565.677982 
L 465.11157 562.860261 
L 472.797521 559.967392 
L 480.483471 556.954191 
L 488.169421 553.759305 
L 495.855372 550.383974 
L 503.541322 546.891905 
L 511.227273 543.323297 
L 518.913223 539.589449 
L 526.599174 535.650031 
L 534.285124 531.536828 
L 541.971074 527.344893 
L 549.657025 523.05855 
L 557.342975 518.583294 
L 565.028926 513.900998 
L 572.714876 509.072876 
L 580.400826 504.208491 
L 588.086777 499.245547 
L 595.772727 494.098723 
L 603.458678 488.7658 
L 611.144628 483.326355 
L 618.830579 477.89715 
L 626.516529 472.401053 
L 634.202479 466.758871 
L 641.88843 460.969754 
L 649.57438 455.109124 
L 657.260331 449.304079 
L 664.946281 443.50704 
L 672.632231 437.637845 
L 680.318182 431.68131 
L 688.004132 425.681061 
L 695.690083 419.73954 
L 703.376033 413.902428 
L 711.061983 408.093052 
L 718.747934 402.295436 
L 726.433884 396.51618 
L 734.119835 390.784448 
L 741.805785 385.151975 
L 749.491736 379.604238 
L 757.177686 374.093449 
L 764.863636 368.728571 
L 772.549587 363.56715 
L 780.235537 358.610666 
L 787.921488 353.804537 
L 795.607438 349.038117 
L 803.293388 344.210494 
L 810.979339 339.48581 
L 818.665289 335.009927 
L 826.35124 330.822807 
L 834.03719 326.860132 
L 841.72314 322.953308 
L 849.409091 318.964843 
L 857.095041 315.103305 
L 864.780992 311.513964 
L 872.466942 308.225597 
L 880.152893 305.151531 
L 887.838843 302.089644 
L 895.524793 298.92651 
L 903.210744 295.898664 
L 910.896694 293.144182 
L 918.582645 290.682374 
L 926.268595 288.413807 
L 933.954545 286.120303 
" clip-path="url(#p294e5309c2)" style="fill: none; stroke: #2e7ebc; stroke-width: 1.5; stroke-linecap: square"/>
   </g>
   <g id="line2d_30">
    <path d="M 173.045455 198.78201 
L 180.731405 118.118106 
L 188.417355 111.793793 
L 196.103306 111.6 
L 203.789256 112.895722 
L 211.475207 114.87037 
L 219.161157 117.223038 
L 226.847107 119.84099 
L 234.533058 122.638702 
L 242.219008 125.556286 
L 249.904959 128.550571 
L 257.590909 131.588182 
L 265.27686 134.646055 
L 272.96281 137.709175 
L 280.64876 140.768237 
L 288.334711 143.816849 
L 296.020661 146.850943 
L 303.706612 149.868518 
L 311.392562 152.868515 
L 319.078512 155.850273 
L 326.764463 158.813402 
L 334.450413 161.757772 
L 342.136364 164.683371 
L 349.822314 167.59024 
L 357.508264 170.478444 
L 365.194215 173.348074 
L 372.880165 176.199236 
L 380.566116 179.03204 
L 388.252066 181.8466 
L 395.938017 184.64303 
L 403.623967 187.421444 
L 411.309917 190.181959 
L 418.995868 192.924688 
L 426.681818 195.649747 
L 434.367769 198.357249 
L 442.053719 201.047307 
L 449.739669 203.720033 
L 457.42562 206.37554 
L 465.11157 209.013937 
L 472.797521 211.635335 
L 480.483471 214.239843 
L 488.169421 216.827571 
L 495.855372 219.398627 
L 503.541322 221.953117 
L 511.227273 224.49115 
L 518.913223 227.012829 
L 526.599174 229.518262 
L 534.285124 232.007553 
L 541.971074 234.480805 
L 549.657025 236.938123 
L 557.342975 239.379608 
L 565.028926 241.805363 
L 572.714876 244.215489 
L 580.400826 246.610087 
L 588.086777 248.989257 
L 595.772727 251.353098 
L 603.458678 253.701709 
L 611.144628 256.035188 
L 618.830579 258.353633 
L 626.516529 260.65714 
L 634.202479 262.945806 
L 641.88843 265.219726 
L 649.57438 267.478996 
L 657.260331 269.723709 
L 664.946281 271.95396 
L 672.632231 274.169842 
L 680.318182 276.371447 
L 688.004132 278.558867 
L 695.690083 280.732194 
L 703.376033 282.891518 
L 711.061983 285.03693 
L 718.747934 287.168519 
L 726.433884 289.286375 
L 734.119835 291.390586 
L 741.805785 293.481239 
L 749.491736 295.558422 
L 757.177686 297.622223 
L 764.863636 299.672726 
L 772.549587 301.710019 
L 780.235537 303.734185 
L 787.921488 305.745309 
L 795.607438 307.743477 
L 803.293388 309.72877 
L 810.979339 311.701272 
L 818.665289 313.661066 
L 826.35124 315.608233 
L 834.03719 317.542854 
L 841.72314 319.465011 
L 849.409091 321.374783 
L 857.095041 323.272251 
L 864.780992 325.157494 
L 872.466942 327.030591 
L 880.152893 328.891619 
L 887.838843 330.740657 
L 895.524793 332.577781 
L 903.210744 334.40307 
L 910.896694 336.216598 
L 918.582645 338.018442 
L 926.268595 339.808676 
L 933.954545 341.587376 
" clip-path="url(#p294e5309c2)" style="fill: none; stroke: #e25508; stroke-width: 1.5; stroke-linecap: square"/>
   </g>
   <g id="line2d_31">
    <path d="M 173.045455 615.6 
L 180.731405 612.913416 
L 188.417355 610.256824 
L 196.103306 607.626712 
L 203.789256 605.016374 
L 211.475207 602.424838 
L 219.161157 599.851861 
L 226.847107 597.297055 
L 234.533058 594.75988 
L 242.219008 592.239651 
L 249.904959 589.735537 
L 257.590909 587.246557 
L 265.27686 584.771585 
L 272.96281 582.309344 
L 280.64876 579.858414 
L 288.334711 577.417224 
L 296.020661 574.984058 
L 303.706612 572.557052 
L 311.392562 570.134194 
L 319.078512 567.713325 
L 326.764463 565.292139 
L 334.450413 562.868181 
L 342.136364 560.438851 
L 349.822314 558.001399 
L 357.508264 555.552931 
L 365.194215 553.09042 
L 372.880165 550.616316 
L 380.566116 548.133914 
L 388.252066 545.642921 
L 395.938017 543.142977 
L 403.623967 540.633654 
L 411.309917 538.114459 
L 418.995868 535.584829 
L 426.681818 533.044137 
L 434.367769 530.491686 
L 442.053719 527.926713 
L 449.739669 525.348388 
L 457.42562 522.755814 
L 465.11157 520.148026 
L 472.797521 517.523993 
L 480.483471 514.882615 
L 488.169421 512.222728 
L 495.855372 509.543097 
L 503.541322 506.842423 
L 511.227273 504.119338 
L 518.913223 501.372408 
L 526.599174 498.600606 
L 534.285124 495.803928 
L 541.971074 492.982028 
L 549.657025 490.13448 
L 557.342975 487.260789 
L 565.028926 484.360391 
L 572.714876 481.432652 
L 580.400826 478.476869 
L 588.086777 475.492269 
L 595.772727 472.478009 
L 603.458678 469.433178 
L 611.144628 466.356795 
L 618.830579 463.247808 
L 626.516529 460.105098 
L 634.202479 456.927474 
L 641.88843 453.713677 
L 649.57438 450.462378 
L 657.260331 447.17218 
L 664.946281 443.841615 
L 672.632231 440.469144 
L 680.318182 437.053162 
L 688.004132 433.591992 
L 695.690083 430.083888 
L 703.376033 426.527036 
L 711.061983 422.921289 
L 718.747934 419.270638 
L 726.433884 415.572961 
L 734.119835 411.825576 
L 741.805785 408.02583 
L 749.491736 404.171099 
L 757.177686 400.258786 
L 764.863636 396.286324 
L 772.549587 392.25117 
L 780.235537 388.150814 
L 787.921488 383.982772 
L 795.607438 379.744586 
L 803.293388 375.43383 
L 810.979339 371.048104 
L 818.665289 366.585035 
L 826.35124 362.042281 
L 834.03719 357.417526 
L 841.72314 352.708483 
L 849.409091 347.912892 
L 857.095041 343.028522 
L 864.780992 338.05317 
L 872.466942 332.984662 
L 880.152893 327.82085 
L 887.838843 322.559615 
L 895.524793 317.198868 
L 903.210744 311.736545 
L 910.896694 306.170613 
L 918.582645 300.499065 
L 926.268595 294.719922 
L 933.954545 288.830829 
" clip-path="url(#p294e5309c2)" style="fill: none; stroke: #1764ab; stroke-width: 1.5; stroke-linecap: square"/>
   </g>
   <g id="line2d_32">
    <path d="M 173.045455 198.78201 
L 180.731405 195.65911 
L 188.417355 192.745297 
L 196.103306 190.037756 
L 203.789256 187.518966 
L 211.475207 185.187733 
L 219.161157 183.044889 
L 226.847107 181.090563 
L 234.533058 179.324182 
L 242.219008 177.744471 
L 249.904959 176.349451 
L 257.590909 175.136442 
L 265.27686 174.10206 
L 272.96281 173.24222 
L 280.64876 172.552133 
L 288.334711 172.02631 
L 296.020661 171.658556 
L 303.706612 171.441977 
L 311.392562 171.368974 
L 319.078512 171.431246 
L 326.764463 171.619791 
L 334.450413 171.924903 
L 342.136364 172.336173 
L 349.822314 172.842492 
L 357.508264 173.432045 
L 365.194215 174.092387 
L 372.880165 174.831945 
L 380.566116 175.663259 
L 388.252066 176.585523 
L 395.938017 177.597714 
L 403.623967 178.698593 
L 411.309917 179.886707 
L 418.995868 181.160385 
L 426.681818 182.517743 
L 434.367769 183.956678 
L 442.053719 185.474874 
L 449.739669 187.069798 
L 457.42562 188.738703 
L 465.11157 190.478623 
L 472.797521 192.286379 
L 480.483471 194.158576 
L 488.169421 196.091602 
L 495.855372 198.08163 
L 503.541322 200.124618 
L 511.227273 202.216308 
L 518.913223 204.352225 
L 526.599174 206.530471 
L 534.285124 208.753996 
L 541.971074 211.023039 
L 549.657025 213.337634 
L 557.342975 215.697689 
L 565.028926 218.102979 
L 572.714876 220.553149 
L 580.400826 223.047716 
L 588.086777 225.586063 
L 595.772727 228.167444 
L 603.458678 230.790984 
L 611.144628 233.455677 
L 618.830579 236.160384 
L 626.516529 238.90384 
L 634.202479 241.684647 
L 641.88843 244.501276 
L 649.57438 247.352069 
L 657.260331 250.235238 
L 664.946281 253.148862 
L 672.632231 256.090894 
L 680.318182 259.059153 
L 688.004132 262.051328 
L 695.690083 265.064979 
L 703.376033 268.097535 
L 711.061983 271.150932 
L 718.747934 274.238724 
L 726.433884 277.358876 
L 734.119835 280.508046 
L 741.805785 283.683123 
L 749.491736 286.881223 
L 757.177686 290.099693 
L 764.863636 293.336107 
L 772.549587 296.588269 
L 780.235537 299.854211 
L 787.921488 303.132195 
L 795.607438 306.420711 
L 803.293388 309.718479 
L 810.979339 313.024447 
L 818.665289 316.337792 
L 826.35124 319.65792 
L 834.03719 322.984466 
L 841.72314 326.317295 
L 849.409091 329.656498 
L 857.095041 333.002399 
L 864.780992 336.355547 
L 872.466942 339.716722 
L 880.152893 343.086933 
L 887.838843 346.467418 
L 895.524793 349.859642 
L 903.210744 353.265302 
L 910.896694 356.68632 
L 918.582645 360.124851 
L 926.268595 363.583277 
L 933.954545 367.063408 
" clip-path="url(#p294e5309c2)" style="fill: none; stroke: #c54102; stroke-width: 1.5; stroke-linecap: square"/>
   </g>
   <g id="line2d_33">
    <path d="M 173.045455 615.6 
L 180.731405 599.824502 
L 188.417355 589.972579 
L 196.103306 583.398671 
L 203.789256 578.777785 
L 211.475207 575.446906 
L 219.161157 572.937512 
L 226.847107 571.047888 
L 234.533058 569.533057 
L 242.219008 568.33599 
L 249.904959 567.377604 
L 257.590909 566.532641 
L 265.27686 565.841581 
L 272.96281 565.278473 
L 280.64876 564.733545 
L 288.334711 564.250132 
L 296.020661 563.879143 
L 303.706612 563.544471 
L 311.392562 563.141147 
L 319.078512 562.816582 
L 326.764463 562.618453 
L 334.450413 562.386155 
L 342.136364 562.065278 
L 349.822314 561.847515 
L 357.508264 561.671769 
L 365.194215 561.414785 
L 372.880165 561.214068 
L 380.566116 561.056349 
L 388.252066 560.831738 
L 395.938017 560.634525 
L 403.623967 560.505792 
L 411.309917 560.32983 
L 418.995868 560.079272 
L 426.681818 559.942351 
L 434.367769 559.877193 
L 442.053719 559.649554 
L 449.739669 559.44143 
L 457.42562 559.325132 
L 465.11157 559.113837 
L 472.797521 558.919693 
L 480.483471 558.768462 
L 488.169421 558.541254 
L 495.855372 558.330653 
L 503.541322 558.175079 
L 511.227273 557.938747 
L 518.913223 557.66583 
L 526.599174 557.474821 
L 534.285124 557.214925 
L 541.971074 556.854636 
L 549.657025 556.605812 
L 557.342975 556.306463 
L 565.028926 555.841043 
L 572.714876 555.454404 
L 580.400826 554.947463 
L 588.086777 554.325149 
L 595.772727 553.700035 
L 603.458678 552.772571 
L 611.144628 551.714748 
L 618.830579 550.456747 
L 626.516529 548.420537 
L 634.202479 545.587451 
L 641.88843 540.690549 
L 649.57438 531.133604 
L 657.260331 510.405174 
L 664.946281 476.399279 
L 672.632231 443.052368 
L 680.318182 413.518687 
L 688.004132 390.067887 
L 695.690083 371.446669 
L 703.376033 356.992032 
L 711.061983 345.749399 
L 718.747934 337.122159 
L 726.433884 330.496722 
L 734.119835 325.392907 
L 741.805785 321.496403 
L 749.491736 318.517039 
L 757.177686 316.229979 
L 764.863636 314.473824 
L 772.549587 313.139205 
L 780.235537 312.163901 
L 787.921488 311.418145 
L 795.607438 310.793659 
L 803.293388 310.252501 
L 810.979339 309.827069 
L 818.665289 309.608426 
L 826.35124 309.501717 
L 834.03719 309.344645 
L 841.72314 309.136805 
L 849.409091 309.030512 
L 857.095041 309.030912 
L 864.780992 308.992818 
L 872.466942 308.901948 
L 880.152893 308.844636 
L 887.838843 308.887453 
L 895.524793 308.9092 
L 903.210744 308.855211 
L 910.896694 308.762547 
L 918.582645 308.753226 
L 926.268595 308.78209 
L 933.954545 308.79208 
" clip-path="url(#p294e5309c2)" style="fill: none; stroke: #084a91; stroke-width: 1.5; stroke-linecap: square"/>
   </g>
   <g id="line2d_34">
    <path d="M 173.045455 198.78201 
L 180.731405 185.880974 
L 188.417355 179.693488 
L 196.103306 176.757415 
L 203.789256 175.375179 
L 211.475207 174.84206 
L 219.161157 174.68512 
L 226.847107 174.832845 
L 234.533058 175.023205 
L 242.219008 175.322584 
L 249.904959 175.698041 
L 257.590909 175.956519 
L 265.27686 176.282523 
L 272.96281 176.67787 
L 280.64876 176.906838 
L 288.334711 177.120136 
L 296.020661 177.489149 
L 303.706612 177.834187 
L 311.392562 177.88279 
L 319.078512 178.058754 
L 326.764463 178.515354 
L 334.450413 178.815031 
L 342.136364 178.807804 
L 349.822314 179.040057 
L 357.508264 179.35208 
L 365.194215 179.402548 
L 372.880165 179.582395 
L 380.566116 179.860885 
L 388.252066 179.928189 
L 395.938017 180.057132 
L 403.623967 180.372791 
L 411.309917 180.542776 
L 418.995868 180.482319 
L 426.681818 180.756076 
L 434.367769 181.247974 
L 442.053719 181.263643 
L 449.739669 181.337758 
L 457.42562 181.692592 
L 465.11157 181.785109 
L 472.797521 181.946202 
L 480.483471 182.25854 
L 488.169421 182.371784 
L 495.855372 182.568765 
L 503.541322 182.975583 
L 511.227273 183.18618 
L 518.913223 183.340767 
L 526.599174 183.820112 
L 534.285124 184.17342 
L 541.971074 184.311113 
L 549.657025 184.928201 
L 557.342975 185.546793 
L 565.028926 185.829223 
L 572.714876 186.60657 
L 580.400826 187.318866 
L 588.086777 188.075424 
L 595.772727 189.397072 
L 603.458678 190.515136 
L 611.144628 192.367047 
L 618.830579 195.388662 
L 626.516529 198.768179 
L 634.202479 204.942118 
L 641.88843 215.618815 
L 649.57438 237.603465 
L 657.260331 274.407787 
L 664.946281 306.160275 
L 672.632231 323.784756 
L 680.318182 332.084929 
L 688.004132 336.339164 
L 695.690083 338.303019 
L 703.376033 339.343602 
L 711.061983 339.74481 
L 718.747934 339.999279 
L 726.433884 340.138662 
L 734.119835 340.136993 
L 741.805785 340.172771 
L 749.491736 340.24368 
L 757.177686 340.244101 
L 764.863636 340.179235 
L 772.549587 340.159328 
L 780.235537 340.318778 
L 787.921488 340.453264 
L 795.607438 340.394922 
L 803.293388 340.154116 
L 810.979339 339.919446 
L 818.665289 340.02229 
L 826.35124 340.259568 
L 834.03719 340.275875 
L 841.72314 340.092471 
L 849.409091 340.065346 
L 857.095041 340.225583 
L 864.780992 340.265241 
L 872.466942 340.160105 
L 880.152893 340.105035 
L 887.838843 340.253664 
L 895.524793 340.344524 
L 903.210744 340.258302 
L 910.896694 340.077991 
L 918.582645 340.074043 
L 926.268595 340.150545 
L 933.954545 340.183169 
" clip-path="url(#p294e5309c2)" style="fill: none; stroke: #9e3303; stroke-width: 1.5; stroke-linecap: square"/>
   </g>
   <g id="line2d_35">
    <path d="M 173.045455 615.6 
L 180.731405 612.97338 
L 188.417355 610.449118 
L 196.103306 607.989843 
L 203.789256 605.572786 
L 211.475207 603.18749 
L 219.161157 600.821355 
L 226.847107 598.461832 
L 234.533058 596.107839 
L 242.219008 593.758252 
L 249.904959 591.410058 
L 257.590909 589.058517 
L 265.27686 586.701079 
L 272.96281 584.339144 
L 280.64876 581.973022 
L 288.334711 579.602001 
L 296.020661 577.224346 
L 303.706612 574.83732 
L 311.392562 572.439521 
L 319.078512 570.032632 
L 326.764463 567.617736 
L 334.450413 565.195031 
L 342.136364 562.763838 
L 349.822314 560.322593 
L 357.508264 557.868851 
L 365.194215 555.399514 
L 372.880165 552.914839 
L 380.566116 550.417731 
L 388.252066 547.909993 
L 395.938017 545.392196 
L 403.623967 542.863675 
L 411.309917 540.322532 
L 418.995868 537.765638 
L 426.681818 535.188626 
L 434.367769 532.587993 
L 442.053719 529.96792 
L 449.739669 527.332382 
L 457.42562 524.683515 
L 465.11157 522.021668 
L 472.797521 519.345401 
L 480.483471 516.651482 
L 488.169421 513.93489 
L 495.855372 511.188931 
L 503.541322 508.414455 
L 511.227273 505.617886 
L 518.913223 502.802114 
L 526.599174 499.968124 
L 534.285124 497.114998 
L 541.971074 494.239913 
L 549.657025 491.33814 
L 557.342975 488.403066 
L 565.028926 485.434074 
L 572.714876 482.436966 
L 580.400826 479.413812 
L 588.086777 476.365135 
L 595.772727 473.289906 
L 603.458678 470.185552 
L 611.144628 467.047949 
L 618.830579 463.871475 
L 626.516529 460.655382 
L 634.202479 457.403608 
L 641.88843 454.1177 
L 649.57438 450.797893 
L 657.260331 447.443104 
L 664.946281 444.050938 
L 672.632231 440.617683 
L 680.318182 437.138313 
L 688.004132 433.608591 
L 695.690083 430.031557 
L 703.376033 426.409331 
L 711.061983 422.742598 
L 718.747934 419.030718 
L 726.433884 415.27173 
L 734.119835 411.462348 
L 741.805785 407.597962 
L 749.491736 403.672639 
L 757.177686 399.681436 
L 764.863636 395.6276 
L 772.549587 391.513038 
L 780.235537 387.338106 
L 787.921488 383.101777 
L 795.607438 378.801643 
L 803.293388 374.433908 
L 810.979339 369.993397 
L 818.665289 365.473547 
L 826.35124 360.866723 
L 834.03719 356.174544 
L 841.72314 351.398591 
L 849.409091 346.536713 
L 857.095041 341.586158 
L 864.780992 336.543576 
L 872.466942 331.405013 
L 880.152893 326.165915 
L 887.838843 320.821127 
L 895.524793 315.364892 
L 903.210744 309.791081 
L 910.896694 304.097863 
L 918.582645 298.281245 
L 926.268595 292.335723 
L 933.954545 286.256118 
" clip-path="url(#p294e5309c2)" style="fill: none; stroke: #08306b; stroke-width: 1.5; stroke-linecap: square"/>
   </g>
   <g id="line2d_36">
    <path d="M 173.045455 198.78201 
L 180.731405 186.691379 
L 188.417355 178.391614 
L 196.103306 172.705779 
L 203.789256 168.834812 
L 211.475207 166.372232 
L 219.161157 164.871166 
L 226.847107 163.897146 
L 234.533058 163.378134 
L 242.219008 163.274958 
L 249.904959 163.482764 
L 257.590909 163.834576 
L 265.27686 164.242898 
L 272.96281 164.774709 
L 280.64876 165.45858 
L 288.334711 166.282634 
L 296.020661 167.194542 
L 303.706612 168.102176 
L 311.392562 168.967606 
L 319.078512 169.873789 
L 326.764463 170.879614 
L 334.450413 172.009806 
L 342.136364 173.254924 
L 349.822314 174.571361 
L 357.508264 175.881346 
L 365.194215 177.083485 
L 372.880165 178.210341 
L 380.566116 179.386018 
L 388.252066 180.693283 
L 395.938017 182.170218 
L 403.623967 183.810219 
L 411.309917 185.561992 
L 418.995868 187.329559 
L 426.681818 188.972255 
L 434.367769 190.387754 
L 442.053719 191.750982 
L 449.739669 193.211768 
L 457.42562 194.858756 
L 465.11157 196.721759 
L 472.797521 198.77176 
L 480.483471 200.920908 
L 488.169421 203.022522 
L 495.855372 204.875186 
L 503.541322 206.539866 
L 511.227273 208.242554 
L 518.913223 210.086742 
L 526.599174 212.120455 
L 534.285124 214.336246 
L 541.971074 216.6712 
L 549.657025 219.006933 
L 557.342975 221.17014 
L 565.028926 223.174686 
L 572.714876 225.211605 
L 580.400826 227.354767 
L 588.086777 229.638627 
L 595.772727 232.05823 
L 603.458678 234.569206 
L 611.144628 237.087774 
L 618.830579 239.492253 
L 626.516529 241.798705 
L 634.202479 244.132019 
L 641.88843 246.549552 
L 649.57438 249.080167 
L 657.260331 251.724225 
L 664.946281 254.453594 
L 672.632231 257.211642 
L 680.318182 259.91324 
L 688.004132 262.49873 
L 695.690083 265.073635 
L 703.376033 267.703522 
L 711.061983 270.427159 
L 718.747934 273.259952 
L 726.433884 276.193939 
L 734.119835 279.197795 
L 741.805785 282.216827 
L 749.491736 285.172978 
L 757.177686 288.015594 
L 764.863636 290.850355 
L 772.549587 293.734601 
L 780.235537 296.702655 
L 787.921488 299.770202 
L 795.607438 302.934287 
L 803.293388 306.173316 
L 810.979339 309.447053 
L 818.665289 312.696625 
L 826.35124 315.849454 
L 834.03719 318.97932 
L 841.72314 322.150523 
L 849.409091 325.370951 
L 857.095041 328.644281 
L 864.780992 331.969972 
L 872.466942 335.34327 
L 880.152893 338.755208 
L 887.838843 342.192601 
L 895.524793 345.638051 
L 903.210744 349.072437 
L 910.896694 352.526885 
L 918.582645 356.011466 
L 926.268595 359.522102 
L 933.954545 363.060728 
" clip-path="url(#p294e5309c2)" style="fill: none; stroke: #7f2704; stroke-width: 1.5; stroke-linecap: square"/>
   </g>
   <g id="patch_3">
    <path d="M 135 640.8 
L 135 86.4 
" style="fill: none; stroke: #000000; stroke-width: 0.8; stroke-linejoin: miter; stroke-linecap: square"/>
   </g>
   <g id="patch_4">
    <path d="M 972 640.8 
L 972 86.4 
" style="fill: none; stroke: #000000; stroke-width: 0.8; stroke-linejoin: miter; stroke-linecap: square"/>
   </g>
   <g id="patch_5">
    <path d="M 135 640.8 
L 972 640.8 
" style="fill: none; stroke: #000000; stroke-width: 0.8; stroke-linejoin: miter; stroke-linecap: square"/>
   </g>
   <g id="patch_6">
    <path d="M 135 86.4 
L 972 86.4 
" style="fill: none; stroke: #000000; stroke-width: 0.8; stroke-linejoin: miter; stroke-linecap: square"/>
   </g>
   <g id="legend_1">
    <g id="patch_7">
     <path d="M 803.813437 749.8375 
L 956.6 749.8375 
Q 961 749.8375 961 745.4375 
L 961 101.8 
Q 961 97.4 956.6 97.4 
L 803.813437 97.4 
Q 799.413437 97.4 799.413437 101.8 
L 799.413437 745.4375 
Q 799.413437 749.8375 803.813437 749.8375 
z
" style="fill: #ffffff; opacity: 0.8; stroke: #cccccc; stroke-linejoin: miter"/>
    </g>
    <g id="PathCollection_3">
     <g>
      <use xlink:href="#m80f1702e56" x="830.213437" y="117.141563" style="fill: #1f77b4; stroke: #1f77b4"/>
     </g>
    </g>
    <g id="text_21">
     <!-- Xi -->
     <g transform="translate(869.813437 122.916563) scale(0.22 -0.22)">
      <use xlink:href="#DejaVuSans-58"/>
      <use xlink:href="#DejaVuSans-69" x="68.505859"/>
     </g>
    </g>
    <g id="PathCollection_4">
     <g>
      <use xlink:href="#m62fcbac0dc" x="830.213437" y="149.433438" style="fill: #ff7f0e; stroke: #ff7f0e"/>
     </g>
    </g>
    <g id="text_22">
     <!-- Xa -->
     <g transform="translate(869.813437 155.208438) scale(0.22 -0.22)">
      <use xlink:href="#DejaVuSans-58"/>
      <use xlink:href="#DejaVuSans-61" x="68.505859"/>
     </g>
    </g>
    <g id="line2d_37">
     <path d="M 808.213437 179.800313 
L 830.213437 179.800313 
L 852.213437 179.800313 
" style="fill: none; stroke: #d0e1f2; stroke-width: 1.5; stroke-linecap: square"/>
    </g>
    <g id="text_23">
     <!-- Xi-IIAA -->
     <g transform="translate(869.813437 187.500313) scale(0.22 -0.22)">
      <defs>
       <path id="DejaVuSans-2d" d="M 313 2009 
L 1997 2009 
L 1997 1497 
L 313 1497 
L 313 2009 
z
" transform="scale(0.015625)"/>
       <path id="DejaVuSans-49" d="M 628 4666 
L 1259 4666 
L 1259 0 
L 628 0 
L 628 4666 
z
" transform="scale(0.015625)"/>
      </defs>
      <use xlink:href="#DejaVuSans-58"/>
      <use xlink:href="#DejaVuSans-69" x="68.505859"/>
      <use xlink:href="#DejaVuSans-2d" x="96.289062"/>
      <use xlink:href="#DejaVuSans-49" x="132.373047"/>
      <use xlink:href="#DejaVuSans-49" x="161.865234"/>
      <use xlink:href="#DejaVuSans-41" x="191.357422"/>
      <use xlink:href="#DejaVuSans-41" x="262.515625"/>
     </g>
    </g>
    <g id="line2d_38">
     <path d="M 808.213437 212.092188 
L 830.213437 212.092188 
L 852.213437 212.092188 
" style="fill: none; stroke: #fdd9b4; stroke-width: 1.5; stroke-linecap: square"/>
    </g>
    <g id="text_24">
     <!-- Xa-IIAA -->
     <g transform="translate(869.813437 219.792188) scale(0.22 -0.22)">
      <use xlink:href="#DejaVuSans-58"/>
      <use xlink:href="#DejaVuSans-61" x="68.505859"/>
      <use xlink:href="#DejaVuSans-2d" x="129.785156"/>
      <use xlink:href="#DejaVuSans-49" x="165.869141"/>
      <use xlink:href="#DejaVuSans-49" x="195.361328"/>
      <use xlink:href="#DejaVuSans-41" x="224.853516"/>
      <use xlink:href="#DejaVuSans-41" x="296.011719"/>
     </g>
    </g>
    <g id="line2d_39">
     <path d="M 808.213437 244.384063 
L 830.213437 244.384063 
L 852.213437 244.384063 
" style="fill: none; stroke: #b7d4ea; stroke-width: 1.5; stroke-linecap: square"/>
    </g>
    <g id="text_25">
     <!-- Xi-IIAI -->
     <g transform="translate(869.813437 252.084063) scale(0.22 -0.22)">
      <use xlink:href="#DejaVuSans-58"/>
      <use xlink:href="#DejaVuSans-69" x="68.505859"/>
      <use xlink:href="#DejaVuSans-2d" x="96.289062"/>
      <use xlink:href="#DejaVuSans-49" x="132.373047"/>
      <use xlink:href="#DejaVuSans-49" x="161.865234"/>
      <use xlink:href="#DejaVuSans-41" x="191.357422"/>
      <use xlink:href="#DejaVuSans-49" x="259.765625"/>
     </g>
    </g>
    <g id="line2d_40">
     <path d="M 808.213437 276.675938 
L 830.213437 276.675938 
L 852.213437 276.675938 
" style="fill: none; stroke: #fdc38d; stroke-width: 1.5; stroke-linecap: square"/>
    </g>
    <g id="text_26">
     <!-- Xa-IIAI -->
     <g transform="translate(869.813437 284.375938) scale(0.22 -0.22)">
      <use xlink:href="#DejaVuSans-58"/>
      <use xlink:href="#DejaVuSans-61" x="68.505859"/>
      <use xlink:href="#DejaVuSans-2d" x="129.785156"/>
      <use xlink:href="#DejaVuSans-49" x="165.869141"/>
      <use xlink:href="#DejaVuSans-49" x="195.361328"/>
      <use xlink:href="#DejaVuSans-41" x="224.853516"/>
      <use xlink:href="#DejaVuSans-49" x="293.261719"/>
     </g>
    </g>
    <g id="line2d_41">
     <path d="M 808.213437 308.967813 
L 830.213437 308.967813 
L 852.213437 308.967813 
" style="fill: none; stroke: #94c4df; stroke-width: 1.5; stroke-linecap: square"/>
    </g>
    <g id="text_27">
     <!-- Xi-IIAN -->
     <g transform="translate(869.813437 316.667813) scale(0.22 -0.22)">
      <defs>
       <path id="DejaVuSans-4e" d="M 628 4666 
L 1478 4666 
L 3547 763 
L 3547 4666 
L 4159 4666 
L 4159 0 
L 3309 0 
L 1241 3903 
L 1241 0 
L 628 0 
L 628 4666 
z
" transform="scale(0.015625)"/>
      </defs>
      <use xlink:href="#DejaVuSans-58"/>
      <use xlink:href="#DejaVuSans-69" x="68.505859"/>
      <use xlink:href="#DejaVuSans-2d" x="96.289062"/>
      <use xlink:href="#DejaVuSans-49" x="132.373047"/>
      <use xlink:href="#DejaVuSans-49" x="161.865234"/>
      <use xlink:href="#DejaVuSans-41" x="191.357422"/>
      <use xlink:href="#DejaVuSans-4e" x="259.765625"/>
     </g>
    </g>
    <g id="line2d_42">
     <path d="M 808.213437 341.259688 
L 830.213437 341.259688 
L 852.213437 341.259688 
" style="fill: none; stroke: #fda762; stroke-width: 1.5; stroke-linecap: square"/>
    </g>
    <g id="text_28">
     <!-- Xa-IIAN -->
     <g transform="translate(869.813437 348.959688) scale(0.22 -0.22)">
      <use xlink:href="#DejaVuSans-58"/>
      <use xlink:href="#DejaVuSans-61" x="68.505859"/>
      <use xlink:href="#DejaVuSans-2d" x="129.785156"/>
      <use xlink:href="#DejaVuSans-49" x="165.869141"/>
      <use xlink:href="#DejaVuSans-49" x="195.361328"/>
      <use xlink:href="#DejaVuSans-41" x="224.853516"/>
      <use xlink:href="#DejaVuSans-4e" x="293.261719"/>
     </g>
    </g>
    <g id="line2d_43">
     <path d="M 808.213437 373.551563 
L 830.213437 373.551563 
L 852.213437 373.551563 
" style="fill: none; stroke: #6aaed6; stroke-width: 1.5; stroke-linecap: square"/>
    </g>
    <g id="text_29">
     <!-- Xi-IIIA -->
     <g transform="translate(869.813437 381.251563) scale(0.22 -0.22)">
      <use xlink:href="#DejaVuSans-58"/>
      <use xlink:href="#DejaVuSans-69" x="68.505859"/>
      <use xlink:href="#DejaVuSans-2d" x="96.289062"/>
      <use xlink:href="#DejaVuSans-49" x="132.373047"/>
      <use xlink:href="#DejaVuSans-49" x="161.865234"/>
      <use xlink:href="#DejaVuSans-49" x="191.357422"/>
      <use xlink:href="#DejaVuSans-41" x="220.849609"/>
     </g>
    </g>
    <g id="line2d_44">
     <path d="M 808.213437 405.843438 
L 830.213437 405.843438 
L 852.213437 405.843438 
" style="fill: none; stroke: #fd8c3b; stroke-width: 1.5; stroke-linecap: square"/>
    </g>
    <g id="text_30">
     <!-- Xa-IIIA -->
     <g transform="translate(869.813437 413.543438) scale(0.22 -0.22)">
      <use xlink:href="#DejaVuSans-58"/>
      <use xlink:href="#DejaVuSans-61" x="68.505859"/>
      <use xlink:href="#DejaVuSans-2d" x="129.785156"/>
      <use xlink:href="#DejaVuSans-49" x="165.869141"/>
      <use xlink:href="#DejaVuSans-49" x="195.361328"/>
      <use xlink:href="#DejaVuSans-49" x="224.853516"/>
      <use xlink:href="#DejaVuSans-41" x="254.345703"/>
     </g>
    </g>
    <g id="line2d_45">
     <path d="M 808.213437 438.135313 
L 830.213437 438.135313 
L 852.213437 438.135313 
" style="fill: none; stroke: #4a98c9; stroke-width: 1.5; stroke-linecap: square"/>
    </g>
    <g id="text_31">
     <!-- Xi-IIII -->
     <g transform="translate(869.813437 445.835313) scale(0.22 -0.22)">
      <use xlink:href="#DejaVuSans-58"/>
      <use xlink:href="#DejaVuSans-69" x="68.505859"/>
      <use xlink:href="#DejaVuSans-2d" x="96.289062"/>
      <use xlink:href="#DejaVuSans-49" x="132.373047"/>
      <use xlink:href="#DejaVuSans-49" x="161.865234"/>
      <use xlink:href="#DejaVuSans-49" x="191.357422"/>
      <use xlink:href="#DejaVuSans-49" x="220.849609"/>
     </g>
    </g>
    <g id="line2d_46">
     <path d="M 808.213437 470.427188 
L 830.213437 470.427188 
L 852.213437 470.427188 
" style="fill: none; stroke: #f3701b; stroke-width: 1.5; stroke-linecap: square"/>
    </g>
    <g id="text_32">
     <!-- Xa-IIII -->
     <g transform="translate(869.813437 478.127188) scale(0.22 -0.22)">
      <use xlink:href="#DejaVuSans-58"/>
      <use xlink:href="#DejaVuSans-61" x="68.505859"/>
      <use xlink:href="#DejaVuSans-2d" x="129.785156"/>
      <use xlink:href="#DejaVuSans-49" x="165.869141"/>
      <use xlink:href="#DejaVuSans-49" x="195.361328"/>
      <use xlink:href="#DejaVuSans-49" x="224.853516"/>
      <use xlink:href="#DejaVuSans-49" x="254.345703"/>
     </g>
    </g>
    <g id="line2d_47">
     <path d="M 808.213437 502.719063 
L 830.213437 502.719063 
L 852.213437 502.719063 
" style="fill: none; stroke: #2e7ebc; stroke-width: 1.5; stroke-linecap: square"/>
    </g>
    <g id="text_33">
     <!-- Xi-IIIN -->
     <g transform="translate(869.813437 510.419063) scale(0.22 -0.22)">
      <use xlink:href="#DejaVuSans-58"/>
      <use xlink:href="#DejaVuSans-69" x="68.505859"/>
      <use xlink:href="#DejaVuSans-2d" x="96.289062"/>
      <use xlink:href="#DejaVuSans-49" x="132.373047"/>
      <use xlink:href="#DejaVuSans-49" x="161.865234"/>
      <use xlink:href="#DejaVuSans-49" x="191.357422"/>
      <use xlink:href="#DejaVuSans-4e" x="220.849609"/>
     </g>
    </g>
    <g id="line2d_48">
     <path d="M 808.213437 535.010938 
L 830.213437 535.010938 
L 852.213437 535.010938 
" style="fill: none; stroke: #e25508; stroke-width: 1.5; stroke-linecap: square"/>
    </g>
    <g id="text_34">
     <!-- Xa-IIIN -->
     <g transform="translate(869.813437 542.710938) scale(0.22 -0.22)">
      <use xlink:href="#DejaVuSans-58"/>
      <use xlink:href="#DejaVuSans-61" x="68.505859"/>
      <use xlink:href="#DejaVuSans-2d" x="129.785156"/>
      <use xlink:href="#DejaVuSans-49" x="165.869141"/>
      <use xlink:href="#DejaVuSans-49" x="195.361328"/>
      <use xlink:href="#DejaVuSans-49" x="224.853516"/>
      <use xlink:href="#DejaVuSans-4e" x="254.345703"/>
     </g>
    </g>
    <g id="line2d_49">
     <path d="M 808.213437 567.302813 
L 830.213437 567.302813 
L 852.213437 567.302813 
" style="fill: none; stroke: #1764ab; stroke-width: 1.5; stroke-linecap: square"/>
    </g>
    <g id="text_35">
     <!-- Xi-IINA -->
     <g transform="translate(869.813437 575.002813) scale(0.22 -0.22)">
      <use xlink:href="#DejaVuSans-58"/>
      <use xlink:href="#DejaVuSans-69" x="68.505859"/>
      <use xlink:href="#DejaVuSans-2d" x="96.289062"/>
      <use xlink:href="#DejaVuSans-49" x="132.373047"/>
      <use xlink:href="#DejaVuSans-49" x="161.865234"/>
      <use xlink:href="#DejaVuSans-4e" x="191.357422"/>
      <use xlink:href="#DejaVuSans-41" x="266.162109"/>
     </g>
    </g>
    <g id="line2d_50">
     <path d="M 808.213437 599.594688 
L 830.213437 599.594688 
L 852.213437 599.594688 
" style="fill: none; stroke: #c54102; stroke-width: 1.5; stroke-linecap: square"/>
    </g>
    <g id="text_36">
     <!-- Xa-IINA -->
     <g transform="translate(869.813437 607.294688) scale(0.22 -0.22)">
      <use xlink:href="#DejaVuSans-58"/>
      <use xlink:href="#DejaVuSans-61" x="68.505859"/>
      <use xlink:href="#DejaVuSans-2d" x="129.785156"/>
      <use xlink:href="#DejaVuSans-49" x="165.869141"/>
      <use xlink:href="#DejaVuSans-49" x="195.361328"/>
      <use xlink:href="#DejaVuSans-4e" x="224.853516"/>
      <use xlink:href="#DejaVuSans-41" x="299.658203"/>
     </g>
    </g>
    <g id="line2d_51">
     <path d="M 808.213437 631.886563 
L 830.213437 631.886563 
L 852.213437 631.886563 
" style="fill: none; stroke: #084a91; stroke-width: 1.5; stroke-linecap: square"/>
    </g>
    <g id="text_37">
     <!-- Xi-IINI -->
     <g transform="translate(869.813437 639.586563) scale(0.22 -0.22)">
      <use xlink:href="#DejaVuSans-58"/>
      <use xlink:href="#DejaVuSans-69" x="68.505859"/>
      <use xlink:href="#DejaVuSans-2d" x="96.289062"/>
      <use xlink:href="#DejaVuSans-49" x="132.373047"/>
      <use xlink:href="#DejaVuSans-49" x="161.865234"/>
      <use xlink:href="#DejaVuSans-4e" x="191.357422"/>
      <use xlink:href="#DejaVuSans-49" x="266.162109"/>
     </g>
    </g>
    <g id="line2d_52">
     <path d="M 808.213437 664.178438 
L 830.213437 664.178438 
L 852.213437 664.178438 
" style="fill: none; stroke: #9e3303; stroke-width: 1.5; stroke-linecap: square"/>
    </g>
    <g id="text_38">
     <!-- Xa-IINI -->
     <g transform="translate(869.813437 671.878438) scale(0.22 -0.22)">
      <use xlink:href="#DejaVuSans-58"/>
      <use xlink:href="#DejaVuSans-61" x="68.505859"/>
      <use xlink:href="#DejaVuSans-2d" x="129.785156"/>
      <use xlink:href="#DejaVuSans-49" x="165.869141"/>
      <use xlink:href="#DejaVuSans-49" x="195.361328"/>
      <use xlink:href="#DejaVuSans-4e" x="224.853516"/>
      <use xlink:href="#DejaVuSans-49" x="299.658203"/>
     </g>
    </g>
    <g id="line2d_53">
     <path d="M 808.213437 696.470313 
L 830.213437 696.470313 
L 852.213437 696.470313 
" style="fill: none; stroke: #08306b; stroke-width: 1.5; stroke-linecap: square"/>
    </g>
    <g id="text_39">
     <!-- Xi-IINN -->
     <g transform="translate(869.813437 704.170313) scale(0.22 -0.22)">
      <use xlink:href="#DejaVuSans-58"/>
      <use xlink:href="#DejaVuSans-69" x="68.505859"/>
      <use xlink:href="#DejaVuSans-2d" x="96.289062"/>
      <use xlink:href="#DejaVuSans-49" x="132.373047"/>
      <use xlink:href="#DejaVuSans-49" x="161.865234"/>
      <use xlink:href="#DejaVuSans-4e" x="191.357422"/>
      <use xlink:href="#DejaVuSans-4e" x="266.162109"/>
     </g>
    </g>
    <g id="line2d_54">
     <path style="fill: none; stroke: #7f2704; stroke-width: 1.5; stroke-linecap: square"/>
    </g>
    <g id="text_40">
     <!-- Xa-IINN -->
     <g transform="translate(869.813437 736.462188) scale(0.22 -0.22)">
      <use xlink:href="#DejaVuSans-58"/>
      <use xlink:href="#DejaVuSans-61" x="68.505859"/>
      <use xlink:href="#DejaVuSans-2d" x="129.785156"/>
      <use xlink:href="#DejaVuSans-49" x="165.869141"/>
      <use xlink:href="#DejaVuSans-49" x="195.361328"/>
      <use xlink:href="#DejaVuSans-4e" x="224.853516"/>
      <use xlink:href="#DejaVuSans-4e" x="299.658203"/>
     </g>
    </g>
   </g>
  </g>
 </g>
 <defs>
  <clipPath id="p294e5309c2">
   <rect x="135" y="86.4" width="837" height="554.4"/>
  </clipPath>
 </defs>
</svg>
