<?xml version="1.0" encoding="utf-8" standalone="no"?>
<!DOCTYPE svg PUBLIC "-//W3C//DTD SVG 1.1//EN"
  "http://www.w3.org/Graphics/SVG/1.1/DTD/svg11.dtd">
<svg xmlns:xlink="http://www.w3.org/1999/xlink" width="720pt" height="720pt" viewBox="0 0 720 720" xmlns="http://www.w3.org/2000/svg" version="1.1">
 <metadata>
  <rdf:RDF xmlns:dc="http://purl.org/dc/elements/1.1/" xmlns:cc="http://creativecommons.org/ns#" xmlns:rdf="http://www.w3.org/1999/02/22-rdf-syntax-ns#">
   <cc:Work>
    <dc:type rdf:resource="http://purl.org/dc/dcmitype/StillImage"/>
    <dc:date>2022-12-23T17:24:44.575507</dc:date>
    <dc:format>image/svg+xml</dc:format>
    <dc:creator>
     <cc:Agent>
      <dc:title>Matplotlib v3.6.2, https://matplotlib.org/</dc:title>
     </cc:Agent>
    </dc:creator>
   </cc:Work>
  </rdf:RDF>
 </metadata>
 <defs>
  <style type="text/css">*{stroke-linejoin: round; stroke-linecap: butt}</style>
 </defs>
 <g id="figure_1">
  <g id="patch_1">
   <path d="M 0 720 
L 720 720 
L 720 0 
L 0 0 
z
" style="fill: #ffffff"/>
  </g>
  <g id="axes_1">
   <g id="patch_2">
    <path d="M 90 640.8 
L 648 640.8 
L 648 86.4 
L 90 86.4 
z
" style="fill: #ffffff"/>
   </g>
   <g id="PathCollection_1">
    <defs>
     <path id="C0_0_28e711b086" d="M 0 3 
C 0.795609 3 1.55874 2.683901 2.12132 2.12132 
C 2.683901 1.55874 3 0.795609 3 -0 
C 3 -0.795609 2.683901 -1.55874 2.12132 -2.12132 
C 1.55874 -2.683901 0.795609 -3 0 -3 
C -0.795609 -3 -1.55874 -2.683901 -2.12132 -2.12132 
C -2.683901 -1.55874 -3 -0.795609 -3 0 
C -3 0.795609 -2.683901 1.55874 -2.12132 2.12132 
C -1.55874 2.683901 -0.795609 3 0 3 
z
"/>
    </defs>
    <g clip-path="url(#pa8cf9c0bc7)">
     <use xlink:href="#C0_0_28e711b086" x="281.097419" y="302.850061" style="fill: #1f77b4; stroke: #ffffff; stroke-width: 0.48"/>
    </g>
    <g clip-path="url(#pa8cf9c0bc7)">
     <use xlink:href="#C0_0_28e711b086" x="481.488609" y="355.22378" style="fill: #1f77b4; stroke: #ffffff; stroke-width: 0.48"/>
    </g>
    <g clip-path="url(#pa8cf9c0bc7)">
     <use xlink:href="#C0_0_28e711b086" x="278.751616" y="311.412818" style="fill: #1f77b4; stroke: #ffffff; stroke-width: 0.48"/>
    </g>
    <g clip-path="url(#pa8cf9c0bc7)">
     <use xlink:href="#C0_0_28e711b086" x="286.143797" y="228.537551" style="fill: #1f77b4; stroke: #ffffff; stroke-width: 0.48"/>
    </g>
    <g clip-path="url(#pa8cf9c0bc7)">
     <use xlink:href="#C0_0_28e711b086" x="122.495388" y="248.382772" style="fill: #1f77b4; stroke: #ffffff; stroke-width: 0.48"/>
    </g>
    <g clip-path="url(#pa8cf9c0bc7)">
     <use xlink:href="#C0_0_28e711b086" x="374.482807" y="357.571479" style="fill: #1f77b4; stroke: #ffffff; stroke-width: 0.48"/>
    </g>
    <g clip-path="url(#pa8cf9c0bc7)">
     <use xlink:href="#C0_0_28e711b086" x="189.542125" y="263.41927" style="fill: #1f77b4; stroke: #ffffff; stroke-width: 0.48"/>
    </g>
    <g clip-path="url(#pa8cf9c0bc7)">
     <use xlink:href="#C0_0_28e711b086" x="347.336142" y="305.554045" style="fill: #1f77b4; stroke: #ffffff; stroke-width: 0.48"/>
    </g>
    <g clip-path="url(#pa8cf9c0bc7)">
     <use xlink:href="#C0_0_28e711b086" x="315.645421" y="401.663308" style="fill: #1f77b4; stroke: #ffffff; stroke-width: 0.48"/>
    </g>
    <g clip-path="url(#pa8cf9c0bc7)">
     <use xlink:href="#C0_0_28e711b086" x="249.539176" y="195.805378" style="fill: #1f77b4; stroke: #ffffff; stroke-width: 0.48"/>
    </g>
    <g clip-path="url(#pa8cf9c0bc7)">
     <use xlink:href="#C0_0_28e711b086" x="269.849857" y="208.709077" style="fill: #1f77b4; stroke: #ffffff; stroke-width: 0.48"/>
    </g>
    <g clip-path="url(#pa8cf9c0bc7)">
     <use xlink:href="#C0_0_28e711b086" x="157.563714" y="343.149344" style="fill: #1f77b4; stroke: #ffffff; stroke-width: 0.48"/>
    </g>
    <g clip-path="url(#pa8cf9c0bc7)">
     <use xlink:href="#C0_0_28e711b086" x="166.988766" y="296.467385" style="fill: #1f77b4; stroke: #ffffff; stroke-width: 0.48"/>
    </g>
    <g clip-path="url(#pa8cf9c0bc7)">
     <use xlink:href="#C0_0_28e711b086" x="187.33448" y="304.471859" style="fill: #1f77b4; stroke: #ffffff; stroke-width: 0.48"/>
    </g>
    <g clip-path="url(#pa8cf9c0bc7)">
     <use xlink:href="#C0_0_28e711b086" x="258.958882" y="291.493303" style="fill: #1f77b4; stroke: #ffffff; stroke-width: 0.48"/>
    </g>
    <g clip-path="url(#pa8cf9c0bc7)">
     <use xlink:href="#C0_0_28e711b086" x="325.223098" y="450.169261" style="fill: #1f77b4; stroke: #ffffff; stroke-width: 0.48"/>
    </g>
    <g clip-path="url(#pa8cf9c0bc7)">
     <use xlink:href="#C0_0_28e711b086" x="234.914333" y="368.237326" style="fill: #1f77b4; stroke: #ffffff; stroke-width: 0.48"/>
    </g>
    <g clip-path="url(#pa8cf9c0bc7)">
     <use xlink:href="#C0_0_28e711b086" x="291.311995" y="542.844545" style="fill: #1f77b4; stroke: #ffffff; stroke-width: 0.48"/>
    </g>
    <g clip-path="url(#pa8cf9c0bc7)">
     <use xlink:href="#C0_0_28e711b086" x="284.112038" y="435.139305" style="fill: #1f77b4; stroke: #ffffff; stroke-width: 0.48"/>
    </g>
    <g clip-path="url(#pa8cf9c0bc7)">
     <use xlink:href="#C0_0_28e711b086" x="310.000486" y="517.640875" style="fill: #1f77b4; stroke: #ffffff; stroke-width: 0.48"/>
    </g>
    <g clip-path="url(#pa8cf9c0bc7)">
     <use xlink:href="#C0_0_28e711b086" x="290.111625" y="528.538226" style="fill: #1f77b4; stroke: #ffffff; stroke-width: 0.48"/>
    </g>
    <g clip-path="url(#pa8cf9c0bc7)">
     <use xlink:href="#C0_0_28e711b086" x="223.15283" y="516.100832" style="fill: #1f77b4; stroke: #ffffff; stroke-width: 0.48"/>
    </g>
    <g clip-path="url(#pa8cf9c0bc7)">
     <use xlink:href="#C0_0_28e711b086" x="307.656297" y="477.835763" style="fill: #1f77b4; stroke: #ffffff; stroke-width: 0.48"/>
    </g>
    <g clip-path="url(#pa8cf9c0bc7)">
     <use xlink:href="#C0_0_28e711b086" x="343.646714" y="464.743187" style="fill: #1f77b4; stroke: #ffffff; stroke-width: 0.48"/>
    </g>
    <g clip-path="url(#pa8cf9c0bc7)">
     <use xlink:href="#C0_0_28e711b086" x="229.246723" y="395.820207" style="fill: #1f77b4; stroke: #ffffff; stroke-width: 0.48"/>
    </g>
    <g clip-path="url(#pa8cf9c0bc7)">
     <use xlink:href="#C0_0_28e711b086" x="358.215339" y="345.645481" style="fill: #1f77b4; stroke: #ffffff; stroke-width: 0.48"/>
    </g>
    <g clip-path="url(#pa8cf9c0bc7)">
     <use xlink:href="#C0_0_28e711b086" x="347.666962" y="511.387265" style="fill: #1f77b4; stroke: #ffffff; stroke-width: 0.48"/>
    </g>
    <g clip-path="url(#pa8cf9c0bc7)">
     <use xlink:href="#C0_0_28e711b086" x="390.14989" y="332.022296" style="fill: #1f77b4; stroke: #ffffff; stroke-width: 0.48"/>
    </g>
    <g clip-path="url(#pa8cf9c0bc7)">
     <use xlink:href="#C0_0_28e711b086" x="328.731522" y="405.807998" style="fill: #1f77b4; stroke: #ffffff; stroke-width: 0.48"/>
    </g>
    <g clip-path="url(#pa8cf9c0bc7)">
     <use xlink:href="#C0_0_28e711b086" x="191.510546" y="308.456409" style="fill: #1f77b4; stroke: #ffffff; stroke-width: 0.48"/>
    </g>
    <g clip-path="url(#pa8cf9c0bc7)">
     <use xlink:href="#C0_0_28e711b086" x="231.10065" y="324.008957" style="fill: #1f77b4; stroke: #ffffff; stroke-width: 0.48"/>
    </g>
    <g clip-path="url(#pa8cf9c0bc7)">
     <use xlink:href="#C0_0_28e711b086" x="224.158867" y="372.229163" style="fill: #1f77b4; stroke: #ffffff; stroke-width: 0.48"/>
    </g>
    <g clip-path="url(#pa8cf9c0bc7)">
     <use xlink:href="#C0_0_28e711b086" x="320.70712" y="410.018883" style="fill: #1f77b4; stroke: #ffffff; stroke-width: 0.48"/>
    </g>
    <g clip-path="url(#pa8cf9c0bc7)">
     <use xlink:href="#C0_0_28e711b086" x="302.042641" y="540.619398" style="fill: #1f77b4; stroke: #ffffff; stroke-width: 0.48"/>
    </g>
    <g clip-path="url(#pa8cf9c0bc7)">
     <use xlink:href="#C0_0_28e711b086" x="392.156249" y="603.083849" style="fill: #1f77b4; stroke: #ffffff; stroke-width: 0.48"/>
    </g>
    <g clip-path="url(#pa8cf9c0bc7)">
     <use xlink:href="#C0_0_28e711b086" x="254.590098" y="433.658292" style="fill: #1f77b4; stroke: #ffffff; stroke-width: 0.48"/>
    </g>
    <g clip-path="url(#pa8cf9c0bc7)">
     <use xlink:href="#C0_0_28e711b086" x="322.099829" y="390.585603" style="fill: #1f77b4; stroke: #ffffff; stroke-width: 0.48"/>
    </g>
    <g clip-path="url(#pa8cf9c0bc7)">
     <use xlink:href="#C0_0_28e711b086" x="362.271399" y="433.151394" style="fill: #1f77b4; stroke: #ffffff; stroke-width: 0.48"/>
    </g>
    <g clip-path="url(#pa8cf9c0bc7)">
     <use xlink:href="#C0_0_28e711b086" x="282.822994" y="392.443864" style="fill: #1f77b4; stroke: #ffffff; stroke-width: 0.48"/>
    </g>
    <g clip-path="url(#pa8cf9c0bc7)">
     <use xlink:href="#C0_0_28e711b086" x="234.863919" y="396.562573" style="fill: #1f77b4; stroke: #ffffff; stroke-width: 0.48"/>
    </g>
    <g clip-path="url(#pa8cf9c0bc7)">
     <use xlink:href="#C0_0_28e711b086" x="360.009825" y="469.447365" style="fill: #1f77b4; stroke: #ffffff; stroke-width: 0.48"/>
    </g>
    <g clip-path="url(#pa8cf9c0bc7)">
     <use xlink:href="#C0_0_28e711b086" x="282.790897" y="447.957639" style="fill: #1f77b4; stroke: #ffffff; stroke-width: 0.48"/>
    </g>
    <g clip-path="url(#pa8cf9c0bc7)">
     <use xlink:href="#C0_0_28e711b086" x="297.707565" y="460.866365" style="fill: #1f77b4; stroke: #ffffff; stroke-width: 0.48"/>
    </g>
    <g clip-path="url(#pa8cf9c0bc7)">
     <use xlink:href="#C0_0_28e711b086" x="297.679752" y="506.088669" style="fill: #1f77b4; stroke: #ffffff; stroke-width: 0.48"/>
    </g>
    <g clip-path="url(#pa8cf9c0bc7)">
     <use xlink:href="#C0_0_28e711b086" x="291.620863" y="353.962644" style="fill: #1f77b4; stroke: #ffffff; stroke-width: 0.48"/>
    </g>
    <g clip-path="url(#pa8cf9c0bc7)">
     <use xlink:href="#C0_0_28e711b086" x="238.442047" y="599.097553" style="fill: #1f77b4; stroke: #ffffff; stroke-width: 0.48"/>
    </g>
    <g clip-path="url(#pa8cf9c0bc7)">
     <use xlink:href="#C0_0_28e711b086" x="256.197438" y="497.040508" style="fill: #1f77b4; stroke: #ffffff; stroke-width: 0.48"/>
    </g>
    <g clip-path="url(#pa8cf9c0bc7)">
     <use xlink:href="#C0_0_28e711b086" x="343.016924" y="512.21518" style="fill: #1f77b4; stroke: #ffffff; stroke-width: 0.48"/>
    </g>
    <g clip-path="url(#pa8cf9c0bc7)">
     <use xlink:href="#C0_0_28e711b086" x="268.663159" y="401.299711" style="fill: #1f77b4; stroke: #ffffff; stroke-width: 0.48"/>
    </g>
    <g clip-path="url(#pa8cf9c0bc7)">
     <use xlink:href="#C0_0_28e711b086" x="311.136045" y="195.798977" style="fill: #1f77b4; stroke: #ffffff; stroke-width: 0.48"/>
    </g>
    <g clip-path="url(#pa8cf9c0bc7)">
     <use xlink:href="#C0_0_28e711b086" x="305.104971" y="386.151689" style="fill: #1f77b4; stroke: #ffffff; stroke-width: 0.48"/>
    </g>
    <g clip-path="url(#pa8cf9c0bc7)">
     <use xlink:href="#C0_0_28e711b086" x="210.934317" y="434.599877" style="fill: #1f77b4; stroke: #ffffff; stroke-width: 0.48"/>
    </g>
    <g clip-path="url(#pa8cf9c0bc7)">
     <use xlink:href="#C0_0_28e711b086" x="296.511738" y="529.686332" style="fill: #1f77b4; stroke: #ffffff; stroke-width: 0.48"/>
    </g>
    <g clip-path="url(#pa8cf9c0bc7)">
     <use xlink:href="#C0_0_28e711b086" x="237.139842" y="576.709775" style="fill: #1f77b4; stroke: #ffffff; stroke-width: 0.48"/>
    </g>
    <g clip-path="url(#pa8cf9c0bc7)">
     <use xlink:href="#C0_0_28e711b086" x="289.55648" y="416.378676" style="fill: #1f77b4; stroke: #ffffff; stroke-width: 0.48"/>
    </g>
    <g clip-path="url(#pa8cf9c0bc7)">
     <use xlink:href="#C0_0_28e711b086" x="265.079861" y="446.370379" style="fill: #1f77b4; stroke: #ffffff; stroke-width: 0.48"/>
    </g>
    <g clip-path="url(#pa8cf9c0bc7)">
     <use xlink:href="#C0_0_28e711b086" x="238.467908" y="212.15839" style="fill: #1f77b4; stroke: #ffffff; stroke-width: 0.48"/>
    </g>
    <g clip-path="url(#pa8cf9c0bc7)">
     <use xlink:href="#C0_0_28e711b086" x="325.817216" y="403.959751" style="fill: #1f77b4; stroke: #ffffff; stroke-width: 0.48"/>
    </g>
    <g clip-path="url(#pa8cf9c0bc7)">
     <use xlink:href="#C0_0_28e711b086" x="232.372169" y="481.873109" style="fill: #1f77b4; stroke: #ffffff; stroke-width: 0.48"/>
    </g>
    <g clip-path="url(#pa8cf9c0bc7)">
     <use xlink:href="#C0_0_28e711b086" x="343.800597" y="395.048347" style="fill: #1f77b4; stroke: #ffffff; stroke-width: 0.48"/>
    </g>
    <g clip-path="url(#pa8cf9c0bc7)">
     <use xlink:href="#C0_0_28e711b086" x="175.630482" y="376.947381" style="fill: #1f77b4; stroke: #ffffff; stroke-width: 0.48"/>
    </g>
    <g clip-path="url(#pa8cf9c0bc7)">
     <use xlink:href="#C0_0_28e711b086" x="318.599666" y="223.792011" style="fill: #1f77b4; stroke: #ffffff; stroke-width: 0.48"/>
    </g>
    <g clip-path="url(#pa8cf9c0bc7)">
     <use xlink:href="#C0_0_28e711b086" x="364.104876" y="414.654869" style="fill: #1f77b4; stroke: #ffffff; stroke-width: 0.48"/>
    </g>
    <g clip-path="url(#pa8cf9c0bc7)">
     <use xlink:href="#C0_0_28e711b086" x="267.186185" y="407.700558" style="fill: #1f77b4; stroke: #ffffff; stroke-width: 0.48"/>
    </g>
    <g clip-path="url(#pa8cf9c0bc7)">
     <use xlink:href="#C0_0_28e711b086" x="184.855908" y="350.250133" style="fill: #1f77b4; stroke: #ffffff; stroke-width: 0.48"/>
    </g>
    <g clip-path="url(#pa8cf9c0bc7)">
     <use xlink:href="#C0_0_28e711b086" x="330.373387" y="340.176994" style="fill: #1f77b4; stroke: #ffffff; stroke-width: 0.48"/>
    </g>
    <g clip-path="url(#pa8cf9c0bc7)">
     <use xlink:href="#C0_0_28e711b086" x="216.637444" y="545.735679" style="fill: #1f77b4; stroke: #ffffff; stroke-width: 0.48"/>
    </g>
    <g clip-path="url(#pa8cf9c0bc7)">
     <use xlink:href="#C0_0_28e711b086" x="385.781045" y="393.527298" style="fill: #1f77b4; stroke: #ffffff; stroke-width: 0.48"/>
    </g>
    <g clip-path="url(#pa8cf9c0bc7)">
     <use xlink:href="#C0_0_28e711b086" x="223.920058" y="424.921922" style="fill: #1f77b4; stroke: #ffffff; stroke-width: 0.48"/>
    </g>
    <g clip-path="url(#pa8cf9c0bc7)">
     <use xlink:href="#C0_0_28e711b086" x="286.338997" y="374.703234" style="fill: #1f77b4; stroke: #ffffff; stroke-width: 0.48"/>
    </g>
    <g clip-path="url(#pa8cf9c0bc7)">
     <use xlink:href="#C0_0_28e711b086" x="222.28521" y="393.647362" style="fill: #1f77b4; stroke: #ffffff; stroke-width: 0.48"/>
    </g>
    <g clip-path="url(#pa8cf9c0bc7)">
     <use xlink:href="#C0_0_28e711b086" x="288.659736" y="362.138505" style="fill: #1f77b4; stroke: #ffffff; stroke-width: 0.48"/>
    </g>
    <g clip-path="url(#pa8cf9c0bc7)">
     <use xlink:href="#C0_0_28e711b086" x="297.587899" y="352.026864" style="fill: #1f77b4; stroke: #ffffff; stroke-width: 0.48"/>
    </g>
    <g clip-path="url(#pa8cf9c0bc7)">
     <use xlink:href="#C0_0_28e711b086" x="252.522924" y="441.673112" style="fill: #1f77b4; stroke: #ffffff; stroke-width: 0.48"/>
    </g>
    <g clip-path="url(#pa8cf9c0bc7)">
     <use xlink:href="#C0_0_28e711b086" x="202.160987" y="369.80846" style="fill: #1f77b4; stroke: #ffffff; stroke-width: 0.48"/>
    </g>
    <g clip-path="url(#pa8cf9c0bc7)">
     <use xlink:href="#C0_0_28e711b086" x="294.254917" y="509.653385" style="fill: #1f77b4; stroke: #ffffff; stroke-width: 0.48"/>
    </g>
    <g clip-path="url(#pa8cf9c0bc7)">
     <use xlink:href="#C0_0_28e711b086" x="210.725239" y="362.293917" style="fill: #1f77b4; stroke: #ffffff; stroke-width: 0.48"/>
    </g>
    <g clip-path="url(#pa8cf9c0bc7)">
     <use xlink:href="#C0_0_28e711b086" x="313.339494" y="482.90716" style="fill: #1f77b4; stroke: #ffffff; stroke-width: 0.48"/>
    </g>
    <g clip-path="url(#pa8cf9c0bc7)">
     <use xlink:href="#C0_0_28e711b086" x="324.718568" y="446.109789" style="fill: #1f77b4; stroke: #ffffff; stroke-width: 0.48"/>
    </g>
    <g clip-path="url(#pa8cf9c0bc7)">
     <use xlink:href="#C0_0_28e711b086" x="258.721603" y="352.565165" style="fill: #1f77b4; stroke: #ffffff; stroke-width: 0.48"/>
    </g>
    <g clip-path="url(#pa8cf9c0bc7)">
     <use xlink:href="#C0_0_28e711b086" x="249.758131" y="320.157726" style="fill: #1f77b4; stroke: #ffffff; stroke-width: 0.48"/>
    </g>
    <g clip-path="url(#pa8cf9c0bc7)">
     <use xlink:href="#C0_0_28e711b086" x="198.134468" y="481.480155" style="fill: #1f77b4; stroke: #ffffff; stroke-width: 0.48"/>
    </g>
    <g clip-path="url(#pa8cf9c0bc7)">
     <use xlink:href="#C0_0_28e711b086" x="245.021438" y="460.533551" style="fill: #1f77b4; stroke: #ffffff; stroke-width: 0.48"/>
    </g>
    <g clip-path="url(#pa8cf9c0bc7)">
     <use xlink:href="#C0_0_28e711b086" x="213.82006" y="496.336664" style="fill: #1f77b4; stroke: #ffffff; stroke-width: 0.48"/>
    </g>
    <g clip-path="url(#pa8cf9c0bc7)">
     <use xlink:href="#C0_0_28e711b086" x="436.454931" y="349.315062" style="fill: #1f77b4; stroke: #ffffff; stroke-width: 0.48"/>
    </g>
    <g clip-path="url(#pa8cf9c0bc7)">
     <use xlink:href="#C0_0_28e711b086" x="209.783838" y="396.198653" style="fill: #1f77b4; stroke: #ffffff; stroke-width: 0.48"/>
    </g>
    <g clip-path="url(#pa8cf9c0bc7)">
     <use xlink:href="#C0_0_28e711b086" x="259.602175" y="494.430282" style="fill: #1f77b4; stroke: #ffffff; stroke-width: 0.48"/>
    </g>
    <g clip-path="url(#pa8cf9c0bc7)">
     <use xlink:href="#C0_0_28e711b086" x="265.096606" y="290.603898" style="fill: #1f77b4; stroke: #ffffff; stroke-width: 0.48"/>
    </g>
    <g clip-path="url(#pa8cf9c0bc7)">
     <use xlink:href="#C0_0_28e711b086" x="217.551697" y="490.937174" style="fill: #1f77b4; stroke: #ffffff; stroke-width: 0.48"/>
    </g>
    <g clip-path="url(#pa8cf9c0bc7)">
     <use xlink:href="#C0_0_28e711b086" x="304.271643" y="382.558813" style="fill: #1f77b4; stroke: #ffffff; stroke-width: 0.48"/>
    </g>
    <g clip-path="url(#pa8cf9c0bc7)">
     <use xlink:href="#C0_0_28e711b086" x="140.330157" y="184.144219" style="fill: #1f77b4; stroke: #ffffff; stroke-width: 0.48"/>
    </g>
    <g clip-path="url(#pa8cf9c0bc7)">
     <use xlink:href="#C0_0_28e711b086" x="172.853234" y="288.462682" style="fill: #ff7f0e; stroke: #ffffff; stroke-width: 0.48"/>
    </g>
    <g clip-path="url(#pa8cf9c0bc7)">
     <use xlink:href="#C0_0_28e711b086" x="405.921519" y="242.239605" style="fill: #ff7f0e; stroke: #ffffff; stroke-width: 0.48"/>
    </g>
    <g clip-path="url(#pa8cf9c0bc7)">
     <use xlink:href="#C0_0_28e711b086" x="372.865941" y="183.490067" style="fill: #ff7f0e; stroke: #ffffff; stroke-width: 0.48"/>
    </g>
    <g clip-path="url(#pa8cf9c0bc7)">
     <use xlink:href="#C0_0_28e711b086" x="259.661539" y="237.062735" style="fill: #ff7f0e; stroke: #ffffff; stroke-width: 0.48"/>
    </g>
    <g clip-path="url(#pa8cf9c0bc7)">
     <use xlink:href="#C0_0_28e711b086" x="427.198632" y="314.626704" style="fill: #ff7f0e; stroke: #ffffff; stroke-width: 0.48"/>
    </g>
    <g clip-path="url(#pa8cf9c0bc7)">
     <use xlink:href="#C0_0_28e711b086" x="381.568081" y="287.174084" style="fill: #ff7f0e; stroke: #ffffff; stroke-width: 0.48"/>
    </g>
    <g clip-path="url(#pa8cf9c0bc7)">
     <use xlink:href="#C0_0_28e711b086" x="218.740956" y="280.609617" style="fill: #ff7f0e; stroke: #ffffff; stroke-width: 0.48"/>
    </g>
    <g clip-path="url(#pa8cf9c0bc7)">
     <use xlink:href="#C0_0_28e711b086" x="341.421021" y="423.561232" style="fill: #ff7f0e; stroke: #ffffff; stroke-width: 0.48"/>
    </g>
    <g clip-path="url(#pa8cf9c0bc7)">
     <use xlink:href="#C0_0_28e711b086" x="261.068146" y="279.956219" style="fill: #ff7f0e; stroke: #ffffff; stroke-width: 0.48"/>
    </g>
    <g clip-path="url(#pa8cf9c0bc7)">
     <use xlink:href="#C0_0_28e711b086" x="206.058693" y="533.101922" style="fill: #ff7f0e; stroke: #ffffff; stroke-width: 0.48"/>
    </g>
    <g clip-path="url(#pa8cf9c0bc7)">
     <use xlink:href="#C0_0_28e711b086" x="192.317833" y="384.536432" style="fill: #ff7f0e; stroke: #ffffff; stroke-width: 0.48"/>
    </g>
    <g clip-path="url(#pa8cf9c0bc7)">
     <use xlink:href="#C0_0_28e711b086" x="240.940528" y="437.018264" style="fill: #ff7f0e; stroke: #ffffff; stroke-width: 0.48"/>
    </g>
    <g clip-path="url(#pa8cf9c0bc7)">
     <use xlink:href="#C0_0_28e711b086" x="436.918075" y="355.308353" style="fill: #ff7f0e; stroke: #ffffff; stroke-width: 0.48"/>
    </g>
    <g clip-path="url(#pa8cf9c0bc7)">
     <use xlink:href="#C0_0_28e711b086" x="285.658184" y="395.581964" style="fill: #ff7f0e; stroke: #ffffff; stroke-width: 0.48"/>
    </g>
    <g clip-path="url(#pa8cf9c0bc7)">
     <use xlink:href="#C0_0_28e711b086" x="312.080573" y="385.699657" style="fill: #ff7f0e; stroke: #ffffff; stroke-width: 0.48"/>
    </g>
    <g clip-path="url(#pa8cf9c0bc7)">
     <use xlink:href="#C0_0_28e711b086" x="185.859387" y="407.607587" style="fill: #ff7f0e; stroke: #ffffff; stroke-width: 0.48"/>
    </g>
    <g clip-path="url(#pa8cf9c0bc7)">
     <use xlink:href="#C0_0_28e711b086" x="251.154395" y="341.926047" style="fill: #ff7f0e; stroke: #ffffff; stroke-width: 0.48"/>
    </g>
    <g clip-path="url(#pa8cf9c0bc7)">
     <use xlink:href="#C0_0_28e711b086" x="202.845423" y="533.970659" style="fill: #ff7f0e; stroke: #ffffff; stroke-width: 0.48"/>
    </g>
    <g clip-path="url(#pa8cf9c0bc7)">
     <use xlink:href="#C0_0_28e711b086" x="363.706172" y="318.72248" style="fill: #ff7f0e; stroke: #ffffff; stroke-width: 0.48"/>
    </g>
    <g clip-path="url(#pa8cf9c0bc7)">
     <use xlink:href="#C0_0_28e711b086" x="366.451076" y="390.477431" style="fill: #ff7f0e; stroke: #ffffff; stroke-width: 0.48"/>
    </g>
    <g clip-path="url(#pa8cf9c0bc7)">
     <use xlink:href="#C0_0_28e711b086" x="439.860911" y="547.606193" style="fill: #ff7f0e; stroke: #ffffff; stroke-width: 0.48"/>
    </g>
    <g clip-path="url(#pa8cf9c0bc7)">
     <use xlink:href="#C0_0_28e711b086" x="291.07393" y="324.725862" style="fill: #ff7f0e; stroke: #ffffff; stroke-width: 0.48"/>
    </g>
    <g clip-path="url(#pa8cf9c0bc7)">
     <use xlink:href="#C0_0_28e711b086" x="360.033487" y="256.492209" style="fill: #ff7f0e; stroke: #ffffff; stroke-width: 0.48"/>
    </g>
    <g clip-path="url(#pa8cf9c0bc7)">
     <use xlink:href="#C0_0_28e711b086" x="274.729251" y="374.07704" style="fill: #ff7f0e; stroke: #ffffff; stroke-width: 0.48"/>
    </g>
    <g clip-path="url(#pa8cf9c0bc7)">
     <use xlink:href="#C0_0_28e711b086" x="369.439587" y="387.90234" style="fill: #ff7f0e; stroke: #ffffff; stroke-width: 0.48"/>
    </g>
    <g clip-path="url(#pa8cf9c0bc7)">
     <use xlink:href="#C0_0_28e711b086" x="229.390658" y="421.203351" style="fill: #ff7f0e; stroke: #ffffff; stroke-width: 0.48"/>
    </g>
    <g clip-path="url(#pa8cf9c0bc7)">
     <use xlink:href="#C0_0_28e711b086" x="153.327856" y="397.426642" style="fill: #ff7f0e; stroke: #ffffff; stroke-width: 0.48"/>
    </g>
    <g clip-path="url(#pa8cf9c0bc7)">
     <use xlink:href="#C0_0_28e711b086" x="290.025777" y="615.6" style="fill: #ff7f0e; stroke: #ffffff; stroke-width: 0.48"/>
    </g>
    <g clip-path="url(#pa8cf9c0bc7)">
     <use xlink:href="#C0_0_28e711b086" x="352.364422" y="517.201019" style="fill: #ff7f0e; stroke: #ffffff; stroke-width: 0.48"/>
    </g>
    <g clip-path="url(#pa8cf9c0bc7)">
     <use xlink:href="#C0_0_28e711b086" x="223.446538" y="357.239636" style="fill: #ff7f0e; stroke: #ffffff; stroke-width: 0.48"/>
    </g>
    <g clip-path="url(#pa8cf9c0bc7)">
     <use xlink:href="#C0_0_28e711b086" x="250.006046" y="471.592953" style="fill: #ff7f0e; stroke: #ffffff; stroke-width: 0.48"/>
    </g>
    <g clip-path="url(#pa8cf9c0bc7)">
     <use xlink:href="#C0_0_28e711b086" x="294.920024" y="350.311049" style="fill: #ff7f0e; stroke: #ffffff; stroke-width: 0.48"/>
    </g>
    <g clip-path="url(#pa8cf9c0bc7)">
     <use xlink:href="#C0_0_28e711b086" x="215.905485" y="345.890587" style="fill: #ff7f0e; stroke: #ffffff; stroke-width: 0.48"/>
    </g>
    <g clip-path="url(#pa8cf9c0bc7)">
     <use xlink:href="#C0_0_28e711b086" x="217.394807" y="422.807246" style="fill: #ff7f0e; stroke: #ffffff; stroke-width: 0.48"/>
    </g>
    <g clip-path="url(#pa8cf9c0bc7)">
     <use xlink:href="#C0_0_28e711b086" x="297.832424" y="316.377385" style="fill: #ff7f0e; stroke: #ffffff; stroke-width: 0.48"/>
    </g>
    <g clip-path="url(#pa8cf9c0bc7)">
     <use xlink:href="#C0_0_28e711b086" x="245.372492" y="404.637305" style="fill: #ff7f0e; stroke: #ffffff; stroke-width: 0.48"/>
    </g>
    <g clip-path="url(#pa8cf9c0bc7)">
     <use xlink:href="#C0_0_28e711b086" x="418.67079" y="463.381765" style="fill: #ff7f0e; stroke: #ffffff; stroke-width: 0.48"/>
    </g>
    <g clip-path="url(#pa8cf9c0bc7)">
     <use xlink:href="#C0_0_28e711b086" x="354.377716" y="405.523259" style="fill: #ff7f0e; stroke: #ffffff; stroke-width: 0.48"/>
    </g>
    <g clip-path="url(#pa8cf9c0bc7)">
     <use xlink:href="#C0_0_28e711b086" x="181.272104" y="362.093527" style="fill: #ff7f0e; stroke: #ffffff; stroke-width: 0.48"/>
    </g>
    <g clip-path="url(#pa8cf9c0bc7)">
     <use xlink:href="#C0_0_28e711b086" x="292.654122" y="434.301175" style="fill: #ff7f0e; stroke: #ffffff; stroke-width: 0.48"/>
    </g>
    <g clip-path="url(#pa8cf9c0bc7)">
     <use xlink:href="#C0_0_28e711b086" x="335.989406" y="559.10046" style="fill: #ff7f0e; stroke: #ffffff; stroke-width: 0.48"/>
    </g>
    <g clip-path="url(#pa8cf9c0bc7)">
     <use xlink:href="#C0_0_28e711b086" x="285.946277" y="452.071386" style="fill: #ff7f0e; stroke: #ffffff; stroke-width: 0.48"/>
    </g>
    <g clip-path="url(#pa8cf9c0bc7)">
     <use xlink:href="#C0_0_28e711b086" x="193.311313" y="400.065864" style="fill: #ff7f0e; stroke: #ffffff; stroke-width: 0.48"/>
    </g>
    <g clip-path="url(#pa8cf9c0bc7)">
     <use xlink:href="#C0_0_28e711b086" x="235.897127" y="424.824699" style="fill: #ff7f0e; stroke: #ffffff; stroke-width: 0.48"/>
    </g>
    <g clip-path="url(#pa8cf9c0bc7)">
     <use xlink:href="#C0_0_28e711b086" x="244.082073" y="393.56324" style="fill: #ff7f0e; stroke: #ffffff; stroke-width: 0.48"/>
    </g>
    <g clip-path="url(#pa8cf9c0bc7)">
     <use xlink:href="#C0_0_28e711b086" x="269.045246" y="403.10695" style="fill: #ff7f0e; stroke: #ffffff; stroke-width: 0.48"/>
    </g>
    <g clip-path="url(#pa8cf9c0bc7)">
     <use xlink:href="#C0_0_28e711b086" x="303.276934" y="291.336668" style="fill: #ff7f0e; stroke: #ffffff; stroke-width: 0.48"/>
    </g>
    <g clip-path="url(#pa8cf9c0bc7)">
     <use xlink:href="#C0_0_28e711b086" x="333.440172" y="489.64806" style="fill: #ff7f0e; stroke: #ffffff; stroke-width: 0.48"/>
    </g>
    <g clip-path="url(#pa8cf9c0bc7)">
     <use xlink:href="#C0_0_28e711b086" x="240.208085" y="355.241523" style="fill: #ff7f0e; stroke: #ffffff; stroke-width: 0.48"/>
    </g>
    <g clip-path="url(#pa8cf9c0bc7)">
     <use xlink:href="#C0_0_28e711b086" x="313.285822" y="478.222732" style="fill: #ff7f0e; stroke: #ffffff; stroke-width: 0.48"/>
    </g>
    <g clip-path="url(#pa8cf9c0bc7)">
     <use xlink:href="#C0_0_28e711b086" x="268.716597" y="447.311978" style="fill: #ff7f0e; stroke: #ffffff; stroke-width: 0.48"/>
    </g>
    <g clip-path="url(#pa8cf9c0bc7)">
     <use xlink:href="#C0_0_28e711b086" x="297.459339" y="370.127568" style="fill: #ff7f0e; stroke: #ffffff; stroke-width: 0.48"/>
    </g>
    <g clip-path="url(#pa8cf9c0bc7)">
     <use xlink:href="#C0_0_28e711b086" x="284.625786" y="353.41713" style="fill: #ff7f0e; stroke: #ffffff; stroke-width: 0.48"/>
    </g>
    <g clip-path="url(#pa8cf9c0bc7)">
     <use xlink:href="#C0_0_28e711b086" x="293.847586" y="423.376735" style="fill: #ff7f0e; stroke: #ffffff; stroke-width: 0.48"/>
    </g>
    <g clip-path="url(#pa8cf9c0bc7)">
     <use xlink:href="#C0_0_28e711b086" x="142.646709" y="401.145939" style="fill: #ff7f0e; stroke: #ffffff; stroke-width: 0.48"/>
    </g>
    <g clip-path="url(#pa8cf9c0bc7)">
     <use xlink:href="#C0_0_28e711b086" x="382.242348" y="362.524254" style="fill: #ff7f0e; stroke: #ffffff; stroke-width: 0.48"/>
    </g>
    <g clip-path="url(#pa8cf9c0bc7)">
     <use xlink:href="#C0_0_28e711b086" x="115.363636" y="456.688599" style="fill: #ff7f0e; stroke: #ffffff; stroke-width: 0.48"/>
    </g>
    <g clip-path="url(#pa8cf9c0bc7)">
     <use xlink:href="#C0_0_28e711b086" x="340.7002" y="450.774698" style="fill: #ff7f0e; stroke: #ffffff; stroke-width: 0.48"/>
    </g>
    <g clip-path="url(#pa8cf9c0bc7)">
     <use xlink:href="#C0_0_28e711b086" x="306.309079" y="382.560312" style="fill: #ff7f0e; stroke: #ffffff; stroke-width: 0.48"/>
    </g>
    <g clip-path="url(#pa8cf9c0bc7)">
     <use xlink:href="#C0_0_28e711b086" x="442.33232" y="529.901873" style="fill: #ff7f0e; stroke: #ffffff; stroke-width: 0.48"/>
    </g>
    <g clip-path="url(#pa8cf9c0bc7)">
     <use xlink:href="#C0_0_28e711b086" x="212.397988" y="459.71389" style="fill: #ff7f0e; stroke: #ffffff; stroke-width: 0.48"/>
    </g>
    <g clip-path="url(#pa8cf9c0bc7)">
     <use xlink:href="#C0_0_28e711b086" x="170.865342" y="434.787947" style="fill: #ff7f0e; stroke: #ffffff; stroke-width: 0.48"/>
    </g>
    <g clip-path="url(#pa8cf9c0bc7)">
     <use xlink:href="#C0_0_28e711b086" x="331.276221" y="412.69432" style="fill: #ff7f0e; stroke: #ffffff; stroke-width: 0.48"/>
    </g>
    <g clip-path="url(#pa8cf9c0bc7)">
     <use xlink:href="#C0_0_28e711b086" x="241.364401" y="417.27614" style="fill: #ff7f0e; stroke: #ffffff; stroke-width: 0.48"/>
    </g>
    <g clip-path="url(#pa8cf9c0bc7)">
     <use xlink:href="#C0_0_28e711b086" x="302.338332" y="441.374197" style="fill: #ff7f0e; stroke: #ffffff; stroke-width: 0.48"/>
    </g>
    <g clip-path="url(#pa8cf9c0bc7)">
     <use xlink:href="#C0_0_28e711b086" x="394.332271" y="432.707759" style="fill: #ff7f0e; stroke: #ffffff; stroke-width: 0.48"/>
    </g>
    <g clip-path="url(#pa8cf9c0bc7)">
     <use xlink:href="#C0_0_28e711b086" x="449.558802" y="333.141152" style="fill: #ff7f0e; stroke: #ffffff; stroke-width: 0.48"/>
    </g>
    <g clip-path="url(#pa8cf9c0bc7)">
     <use xlink:href="#C0_0_28e711b086" x="264.773922" y="297.489594" style="fill: #ff7f0e; stroke: #ffffff; stroke-width: 0.48"/>
    </g>
    <g clip-path="url(#pa8cf9c0bc7)">
     <use xlink:href="#C0_0_28e711b086" x="284.759066" y="443.819923" style="fill: #ff7f0e; stroke: #ffffff; stroke-width: 0.48"/>
    </g>
    <g clip-path="url(#pa8cf9c0bc7)">
     <use xlink:href="#C0_0_28e711b086" x="622.636364" y="111.6" style="fill: #ff7f0e; stroke: #ffffff; stroke-width: 0.48"/>
    </g>
    <g clip-path="url(#pa8cf9c0bc7)">
     <use xlink:href="#C0_0_28e711b086" x="271.621968" y="472.291012" style="fill: #ff7f0e; stroke: #ffffff; stroke-width: 0.48"/>
    </g>
    <g clip-path="url(#pa8cf9c0bc7)">
     <use xlink:href="#C0_0_28e711b086" x="266.266426" y="526.433731" style="fill: #ff7f0e; stroke: #ffffff; stroke-width: 0.48"/>
    </g>
    <g clip-path="url(#pa8cf9c0bc7)">
     <use xlink:href="#C0_0_28e711b086" x="288.530058" y="394.251832" style="fill: #ff7f0e; stroke: #ffffff; stroke-width: 0.48"/>
    </g>
    <g clip-path="url(#pa8cf9c0bc7)">
     <use xlink:href="#C0_0_28e711b086" x="257.292537" y="468.748137" style="fill: #ff7f0e; stroke: #ffffff; stroke-width: 0.48"/>
    </g>
    <g clip-path="url(#pa8cf9c0bc7)">
     <use xlink:href="#C0_0_28e711b086" x="418.301518" y="346.590777" style="fill: #ff7f0e; stroke: #ffffff; stroke-width: 0.48"/>
    </g>
    <g clip-path="url(#pa8cf9c0bc7)">
     <use xlink:href="#C0_0_28e711b086" x="363.318341" y="431.110334" style="fill: #ff7f0e; stroke: #ffffff; stroke-width: 0.48"/>
    </g>
    <g clip-path="url(#pa8cf9c0bc7)">
     <use xlink:href="#C0_0_28e711b086" x="384.847671" y="394.3209" style="fill: #ff7f0e; stroke: #ffffff; stroke-width: 0.48"/>
    </g>
    <g clip-path="url(#pa8cf9c0bc7)">
     <use xlink:href="#C0_0_28e711b086" x="258.396804" y="392.123941" style="fill: #ff7f0e; stroke: #ffffff; stroke-width: 0.48"/>
    </g>
    <g clip-path="url(#pa8cf9c0bc7)">
     <use xlink:href="#C0_0_28e711b086" x="313.772815" y="423.14597" style="fill: #ff7f0e; stroke: #ffffff; stroke-width: 0.48"/>
    </g>
    <g clip-path="url(#pa8cf9c0bc7)">
     <use xlink:href="#C0_0_28e711b086" x="350.625775" y="447.016498" style="fill: #ff7f0e; stroke: #ffffff; stroke-width: 0.48"/>
    </g>
    <g clip-path="url(#pa8cf9c0bc7)">
     <use xlink:href="#C0_0_28e711b086" x="260.822904" y="308.665906" style="fill: #ff7f0e; stroke: #ffffff; stroke-width: 0.48"/>
    </g>
    <g clip-path="url(#pa8cf9c0bc7)">
     <use xlink:href="#C0_0_28e711b086" x="295.188383" y="540.273187" style="fill: #ff7f0e; stroke: #ffffff; stroke-width: 0.48"/>
    </g>
    <g clip-path="url(#pa8cf9c0bc7)">
     <use xlink:href="#C0_0_28e711b086" x="276.622218" y="497.025915" style="fill: #ff7f0e; stroke: #ffffff; stroke-width: 0.48"/>
    </g>
    <g clip-path="url(#pa8cf9c0bc7)">
     <use xlink:href="#C0_0_28e711b086" x="255.645965" y="495.899953" style="fill: #ff7f0e; stroke: #ffffff; stroke-width: 0.48"/>
    </g>
    <g clip-path="url(#pa8cf9c0bc7)">
     <use xlink:href="#C0_0_28e711b086" x="268.500403" y="300.079621" style="fill: #ff7f0e; stroke: #ffffff; stroke-width: 0.48"/>
    </g>
    <g clip-path="url(#pa8cf9c0bc7)">
     <use xlink:href="#C0_0_28e711b086" x="327.258299" y="317.956345" style="fill: #ff7f0e; stroke: #ffffff; stroke-width: 0.48"/>
    </g>
    <g clip-path="url(#pa8cf9c0bc7)">
     <use xlink:href="#C0_0_28e711b086" x="286.966722" y="275.105766" style="fill: #ff7f0e; stroke: #ffffff; stroke-width: 0.48"/>
    </g>
    <g clip-path="url(#pa8cf9c0bc7)">
     <use xlink:href="#C0_0_28e711b086" x="333.39916" y="527.355354" style="fill: #ff7f0e; stroke: #ffffff; stroke-width: 0.48"/>
    </g>
    <g clip-path="url(#pa8cf9c0bc7)">
     <use xlink:href="#C0_0_28e711b086" x="405.182946" y="562.059256" style="fill: #ff7f0e; stroke: #ffffff; stroke-width: 0.48"/>
    </g>
    <g clip-path="url(#pa8cf9c0bc7)">
     <use xlink:href="#C0_0_28e711b086" x="339.372925" y="499.89799" style="fill: #ff7f0e; stroke: #ffffff; stroke-width: 0.48"/>
    </g>
    <g clip-path="url(#pa8cf9c0bc7)">
     <use xlink:href="#C0_0_28e711b086" x="263.121168" y="385.295876" style="fill: #ff7f0e; stroke: #ffffff; stroke-width: 0.48"/>
    </g>
    <g clip-path="url(#pa8cf9c0bc7)">
     <use xlink:href="#C0_0_28e711b086" x="210.73647" y="345.797137" style="fill: #ff7f0e; stroke: #ffffff; stroke-width: 0.48"/>
    </g>
   </g>
   <g id="PathCollection_2"/>
   <g id="PathCollection_3"/>
   <g id="matplotlib.axis_1">
    <g id="xtick_1">
     <g id="line2d_1">
      <defs>
       <path id="m3385fdae1e" d="M 0 0 
L 0 3.5 
" style="stroke: #000000; stroke-width: 0.8"/>
      </defs>
      <g>
       <use xlink:href="#m3385fdae1e" x="165.055231" y="640.8" style="stroke: #000000; stroke-width: 0.8"/>
      </g>
     </g>
     <g id="text_1">
      <!-- −2 -->
      <g transform="translate(148.838825 664.516562) scale(0.22 -0.22)">
       <defs>
        <path id="DejaVuSans-2212" d="M 678 2272 
L 4684 2272 
L 4684 1741 
L 678 1741 
L 678 2272 
z
" transform="scale(0.015625)"/>
        <path id="DejaVuSans-32" d="M 1228 531 
L 3431 531 
L 3431 0 
L 469 0 
L 469 531 
Q 828 903 1448 1529 
Q 2069 2156 2228 2338 
Q 2531 2678 2651 2914 
Q 2772 3150 2772 3378 
Q 2772 3750 2511 3984 
Q 2250 4219 1831 4219 
Q 1534 4219 1204 4116 
Q 875 4013 500 3803 
L 500 4441 
Q 881 4594 1212 4672 
Q 1544 4750 1819 4750 
Q 2544 4750 2975 4387 
Q 3406 4025 3406 3419 
Q 3406 3131 3298 2873 
Q 3191 2616 2906 2266 
Q 2828 2175 2409 1742 
Q 1991 1309 1228 531 
z
" transform="scale(0.015625)"/>
       </defs>
       <use xlink:href="#DejaVuSans-2212"/>
       <use xlink:href="#DejaVuSans-32" x="83.789062"/>
      </g>
     </g>
    </g>
    <g id="xtick_2">
     <g id="line2d_2">
      <g>
       <use xlink:href="#m3385fdae1e" x="286.536447" y="640.8" style="stroke: #000000; stroke-width: 0.8"/>
      </g>
     </g>
     <g id="text_2">
      <!-- 0 -->
      <g transform="translate(279.537697 664.516562) scale(0.22 -0.22)">
       <defs>
        <path id="DejaVuSans-30" d="M 2034 4250 
Q 1547 4250 1301 3770 
Q 1056 3291 1056 2328 
Q 1056 1369 1301 889 
Q 1547 409 2034 409 
Q 2525 409 2770 889 
Q 3016 1369 3016 2328 
Q 3016 3291 2770 3770 
Q 2525 4250 2034 4250 
z
M 2034 4750 
Q 2819 4750 3233 4129 
Q 3647 3509 3647 2328 
Q 3647 1150 3233 529 
Q 2819 -91 2034 -91 
Q 1250 -91 836 529 
Q 422 1150 422 2328 
Q 422 3509 836 4129 
Q 1250 4750 2034 4750 
z
" transform="scale(0.015625)"/>
       </defs>
       <use xlink:href="#DejaVuSans-30"/>
      </g>
     </g>
    </g>
    <g id="xtick_3">
     <g id="line2d_3">
      <g>
       <use xlink:href="#m3385fdae1e" x="408.017663" y="640.8" style="stroke: #000000; stroke-width: 0.8"/>
      </g>
     </g>
     <g id="text_3">
      <!-- 2 -->
      <g transform="translate(401.018913 664.516562) scale(0.22 -0.22)">
       <use xlink:href="#DejaVuSans-32"/>
      </g>
     </g>
    </g>
    <g id="xtick_4">
     <g id="line2d_4">
      <g>
       <use xlink:href="#m3385fdae1e" x="529.498878" y="640.8" style="stroke: #000000; stroke-width: 0.8"/>
      </g>
     </g>
     <g id="text_4">
      <!-- 4 -->
      <g transform="translate(522.500128 664.516562) scale(0.22 -0.22)">
       <defs>
        <path id="DejaVuSans-34" d="M 2419 4116 
L 825 1625 
L 2419 1625 
L 2419 4116 
z
M 2253 4666 
L 3047 4666 
L 3047 1625 
L 3713 1625 
L 3713 1100 
L 3047 1100 
L 3047 0 
L 2419 0 
L 2419 1100 
L 313 1100 
L 313 1709 
L 2253 4666 
z
" transform="scale(0.015625)"/>
       </defs>
       <use xlink:href="#DejaVuSans-34"/>
      </g>
     </g>
    </g>
    <g id="text_5">
     <!-- PC1 -->
     <g transform="translate(347.6875 689.808437) scale(0.22 -0.22)">
      <defs>
       <path id="DejaVuSans-50" d="M 1259 4147 
L 1259 2394 
L 2053 2394 
Q 2494 2394 2734 2622 
Q 2975 2850 2975 3272 
Q 2975 3691 2734 3919 
Q 2494 4147 2053 4147 
L 1259 4147 
z
M 628 4666 
L 2053 4666 
Q 2838 4666 3239 4311 
Q 3641 3956 3641 3272 
Q 3641 2581 3239 2228 
Q 2838 1875 2053 1875 
L 1259 1875 
L 1259 0 
L 628 0 
L 628 4666 
z
" transform="scale(0.015625)"/>
       <path id="DejaVuSans-43" d="M 4122 4306 
L 4122 3641 
Q 3803 3938 3442 4084 
Q 3081 4231 2675 4231 
Q 1875 4231 1450 3742 
Q 1025 3253 1025 2328 
Q 1025 1406 1450 917 
Q 1875 428 2675 428 
Q 3081 428 3442 575 
Q 3803 722 4122 1019 
L 4122 359 
Q 3791 134 3420 21 
Q 3050 -91 2638 -91 
Q 1578 -91 968 557 
Q 359 1206 359 2328 
Q 359 3453 968 4101 
Q 1578 4750 2638 4750 
Q 3056 4750 3426 4639 
Q 3797 4528 4122 4306 
z
" transform="scale(0.015625)"/>
       <path id="DejaVuSans-31" d="M 794 531 
L 1825 531 
L 1825 4091 
L 703 3866 
L 703 4441 
L 1819 4666 
L 2450 4666 
L 2450 531 
L 3481 531 
L 3481 0 
L 794 0 
L 794 531 
z
" transform="scale(0.015625)"/>
      </defs>
      <use xlink:href="#DejaVuSans-50"/>
      <use xlink:href="#DejaVuSans-43" x="60.302734"/>
      <use xlink:href="#DejaVuSans-31" x="130.126953"/>
     </g>
    </g>
   </g>
   <g id="matplotlib.axis_2">
    <g id="ytick_1">
     <g id="line2d_5">
      <defs>
       <path id="ma600d9e374" d="M 0 0 
L -3.5 0 
" style="stroke: #000000; stroke-width: 0.8"/>
      </defs>
      <g>
       <use xlink:href="#ma600d9e374" x="90" y="639.21865" style="stroke: #000000; stroke-width: 0.8"/>
      </g>
     </g>
     <g id="text_6">
      <!-- −3 -->
      <g transform="translate(50.567188 647.576931) scale(0.22 -0.22)">
       <defs>
        <path id="DejaVuSans-33" d="M 2597 2516 
Q 3050 2419 3304 2112 
Q 3559 1806 3559 1356 
Q 3559 666 3084 287 
Q 2609 -91 1734 -91 
Q 1441 -91 1130 -33 
Q 819 25 488 141 
L 488 750 
Q 750 597 1062 519 
Q 1375 441 1716 441 
Q 2309 441 2620 675 
Q 2931 909 2931 1356 
Q 2931 1769 2642 2001 
Q 2353 2234 1838 2234 
L 1294 2234 
L 1294 2753 
L 1863 2753 
Q 2328 2753 2575 2939 
Q 2822 3125 2822 3475 
Q 2822 3834 2567 4026 
Q 2313 4219 1838 4219 
Q 1578 4219 1281 4162 
Q 984 4106 628 3988 
L 628 4550 
Q 988 4650 1302 4700 
Q 1616 4750 1894 4750 
Q 2613 4750 3031 4423 
Q 3450 4097 3450 3541 
Q 3450 3153 3228 2886 
Q 3006 2619 2597 2516 
z
" transform="scale(0.015625)"/>
       </defs>
       <use xlink:href="#DejaVuSans-2212"/>
       <use xlink:href="#DejaVuSans-33" x="83.789062"/>
      </g>
     </g>
    </g>
    <g id="ytick_2">
     <g id="line2d_6">
      <g>
       <use xlink:href="#ma600d9e374" x="90" y="559.239917" style="stroke: #000000; stroke-width: 0.8"/>
      </g>
     </g>
     <g id="text_7">
      <!-- −2 -->
      <g transform="translate(50.567188 567.598198) scale(0.22 -0.22)">
       <use xlink:href="#DejaVuSans-2212"/>
       <use xlink:href="#DejaVuSans-32" x="83.789062"/>
      </g>
     </g>
    </g>
    <g id="ytick_3">
     <g id="line2d_7">
      <g>
       <use xlink:href="#ma600d9e374" x="90" y="479.261184" style="stroke: #000000; stroke-width: 0.8"/>
      </g>
     </g>
     <g id="text_8">
      <!-- −1 -->
      <g transform="translate(50.567188 487.619466) scale(0.22 -0.22)">
       <use xlink:href="#DejaVuSans-2212"/>
       <use xlink:href="#DejaVuSans-31" x="83.789062"/>
      </g>
     </g>
    </g>
    <g id="ytick_4">
     <g id="line2d_8">
      <g>
       <use xlink:href="#ma600d9e374" x="90" y="399.282452" style="stroke: #000000; stroke-width: 0.8"/>
      </g>
     </g>
     <g id="text_9">
      <!-- 0 -->
      <g transform="translate(69.0025 407.640733) scale(0.22 -0.22)">
       <use xlink:href="#DejaVuSans-30"/>
      </g>
     </g>
    </g>
    <g id="ytick_5">
     <g id="line2d_9">
      <g>
       <use xlink:href="#ma600d9e374" x="90" y="319.303719" style="stroke: #000000; stroke-width: 0.8"/>
      </g>
     </g>
     <g id="text_10">
      <!-- 1 -->
      <g transform="translate(69.0025 327.662) scale(0.22 -0.22)">
       <use xlink:href="#DejaVuSans-31"/>
      </g>
     </g>
    </g>
    <g id="ytick_6">
     <g id="line2d_10">
      <g>
       <use xlink:href="#ma600d9e374" x="90" y="239.324986" style="stroke: #000000; stroke-width: 0.8"/>
      </g>
     </g>
     <g id="text_11">
      <!-- 2 -->
      <g transform="translate(69.0025 247.683267) scale(0.22 -0.22)">
       <use xlink:href="#DejaVuSans-32"/>
      </g>
     </g>
    </g>
    <g id="ytick_7">
     <g id="line2d_11">
      <g>
       <use xlink:href="#ma600d9e374" x="90" y="159.346253" style="stroke: #000000; stroke-width: 0.8"/>
      </g>
     </g>
     <g id="text_12">
      <!-- 3 -->
      <g transform="translate(69.0025 167.704534) scale(0.22 -0.22)">
       <use xlink:href="#DejaVuSans-33"/>
      </g>
     </g>
    </g>
    <g id="text_13">
     <!-- PC2 -->
     <g transform="translate(41.991875 384.9125) rotate(-90) scale(0.22 -0.22)">
      <use xlink:href="#DejaVuSans-50"/>
      <use xlink:href="#DejaVuSans-43" x="60.302734"/>
      <use xlink:href="#DejaVuSans-32" x="130.126953"/>
     </g>
    </g>
   </g>
   <g id="patch_3">
    <path d="M 90 640.8 
L 90 86.4 
" style="fill: none; stroke: #000000; stroke-width: 0.8; stroke-linejoin: miter; stroke-linecap: square"/>
   </g>
   <g id="patch_4">
    <path d="M 648 640.8 
L 648 86.4 
" style="fill: none; stroke: #000000; stroke-width: 0.8; stroke-linejoin: miter; stroke-linecap: square"/>
   </g>
   <g id="patch_5">
    <path d="M 90 640.8 
L 648 640.8 
" style="fill: none; stroke: #000000; stroke-width: 0.8; stroke-linejoin: miter; stroke-linecap: square"/>
   </g>
   <g id="patch_6">
    <path d="M 90 86.4 
L 648 86.4 
" style="fill: none; stroke: #000000; stroke-width: 0.8; stroke-linejoin: miter; stroke-linecap: square"/>
   </g>
   <g id="legend_1">
    <g id="patch_7">
     <path d="M 493.068437 629.8 
L 632.6 629.8 
Q 637 629.8 637 625.4 
L 637 530.724375 
Q 637 526.324375 632.6 526.324375 
L 493.068437 526.324375 
Q 488.668437 526.324375 488.668437 530.724375 
L 488.668437 625.4 
Q 488.668437 629.8 493.068437 629.8 
z
" style="fill: #ffffff; opacity: 0.8; stroke: #cccccc; stroke-linejoin: miter"/>
    </g>
    <g id="text_14">
     <!-- cat -->
     <g transform="translate(545.732656 551.840937) scale(0.22 -0.22)">
      <defs>
       <path id="DejaVuSans-63" d="M 3122 3366 
L 3122 2828 
Q 2878 2963 2633 3030 
Q 2388 3097 2138 3097 
Q 1578 3097 1268 2742 
Q 959 2388 959 1747 
Q 959 1106 1268 751 
Q 1578 397 2138 397 
Q 2388 397 2633 464 
Q 2878 531 3122 666 
L 3122 134 
Q 2881 22 2623 -34 
Q 2366 -91 2075 -91 
Q 1284 -91 818 406 
Q 353 903 353 1747 
Q 353 2603 823 3093 
Q 1294 3584 2113 3584 
Q 2378 3584 2631 3529 
Q 2884 3475 3122 3366 
z
" transform="scale(0.015625)"/>
       <path id="DejaVuSans-61" d="M 2194 1759 
Q 1497 1759 1228 1600 
Q 959 1441 959 1056 
Q 959 750 1161 570 
Q 1363 391 1709 391 
Q 2188 391 2477 730 
Q 2766 1069 2766 1631 
L 2766 1759 
L 2194 1759 
z
M 3341 1997 
L 3341 0 
L 2766 0 
L 2766 531 
Q 2569 213 2275 61 
Q 1981 -91 1556 -91 
Q 1019 -91 701 211 
Q 384 513 384 1019 
Q 384 1609 779 1909 
Q 1175 2209 1959 2209 
L 2766 2209 
L 2766 2266 
Q 2766 2663 2505 2880 
Q 2244 3097 1772 3097 
Q 1472 3097 1187 3025 
Q 903 2953 641 2809 
L 641 3341 
Q 956 3463 1253 3523 
Q 1550 3584 1831 3584 
Q 2591 3584 2966 3190 
Q 3341 2797 3341 1997 
z
" transform="scale(0.015625)"/>
       <path id="DejaVuSans-74" d="M 1172 4494 
L 1172 3500 
L 2356 3500 
L 2356 3053 
L 1172 3053 
L 1172 1153 
Q 1172 725 1289 603 
Q 1406 481 1766 481 
L 2356 481 
L 2356 0 
L 1766 0 
Q 1100 0 847 248 
Q 594 497 594 1153 
L 594 3053 
L 172 3053 
L 172 3500 
L 594 3500 
L 594 4494 
L 1172 4494 
z
" transform="scale(0.015625)"/>
      </defs>
      <use xlink:href="#DejaVuSans-63"/>
      <use xlink:href="#DejaVuSans-61" x="54.980469"/>
      <use xlink:href="#DejaVuSans-74" x="116.259766"/>
     </g>
    </g>
    <g id="PathCollection_4">
     <defs>
      <path id="m80f1702e56" d="M 0 3 
C 0.795609 3 1.55874 2.683901 2.12132 2.12132 
C 2.683901 1.55874 3 0.795609 3 0 
C 3 -0.795609 2.683901 -1.55874 2.12132 -2.12132 
C 1.55874 -2.683901 0.795609 -3 0 -3 
C -0.795609 -3 -1.55874 -2.683901 -2.12132 -2.12132 
C -2.683901 -1.55874 -3 -0.795609 -3 0 
C -3 0.795609 -2.683901 1.55874 -2.12132 2.12132 
C -1.55874 2.683901 -0.795609 3 0 3 
z
" style="stroke: #1f77b4"/>
     </defs>
     <g>
      <use xlink:href="#m80f1702e56" x="519.468437" y="578.357813" style="fill: #1f77b4; stroke: #1f77b4"/>
     </g>
    </g>
    <g id="text_15">
     <!-- iPSC -->
     <g transform="translate(559.068437 584.132812) scale(0.22 -0.22)">
      <defs>
       <path id="DejaVuSans-69" d="M 603 3500 
L 1178 3500 
L 1178 0 
L 603 0 
L 603 3500 
z
M 603 4863 
L 1178 4863 
L 1178 4134 
L 603 4134 
L 603 4863 
z
" transform="scale(0.015625)"/>
       <path id="DejaVuSans-53" d="M 3425 4513 
L 3425 3897 
Q 3066 4069 2747 4153 
Q 2428 4238 2131 4238 
Q 1616 4238 1336 4038 
Q 1056 3838 1056 3469 
Q 1056 3159 1242 3001 
Q 1428 2844 1947 2747 
L 2328 2669 
Q 3034 2534 3370 2195 
Q 3706 1856 3706 1288 
Q 3706 609 3251 259 
Q 2797 -91 1919 -91 
Q 1588 -91 1214 -16 
Q 841 59 441 206 
L 441 856 
Q 825 641 1194 531 
Q 1563 422 1919 422 
Q 2459 422 2753 634 
Q 3047 847 3047 1241 
Q 3047 1584 2836 1778 
Q 2625 1972 2144 2069 
L 1759 2144 
Q 1053 2284 737 2584 
Q 422 2884 422 3419 
Q 422 4038 858 4394 
Q 1294 4750 2059 4750 
Q 2388 4750 2728 4690 
Q 3069 4631 3425 4513 
z
" transform="scale(0.015625)"/>
      </defs>
      <use xlink:href="#DejaVuSans-69"/>
      <use xlink:href="#DejaVuSans-50" x="27.783203"/>
      <use xlink:href="#DejaVuSans-53" x="88.085938"/>
      <use xlink:href="#DejaVuSans-43" x="151.5625"/>
     </g>
    </g>
    <g id="PathCollection_5">
     <defs>
      <path id="m62fcbac0dc" d="M 0 3 
C 0.795609 3 1.55874 2.683901 2.12132 2.12132 
C 2.683901 1.55874 3 0.795609 3 0 
C 3 -0.795609 2.683901 -1.55874 2.12132 -2.12132 
C 1.55874 -2.683901 0.795609 -3 0 -3 
C -0.795609 -3 -1.55874 -2.683901 -2.12132 -2.12132 
C -2.683901 -1.55874 -3 -0.795609 -3 0 
C -3 0.795609 -2.683901 1.55874 -2.12132 2.12132 
C -1.55874 2.683901 -0.795609 3 0 3 
z
" style="stroke: #ff7f0e"/>
     </defs>
     <g>
      <use xlink:href="#m62fcbac0dc" x="519.468437" y="610.649688" style="fill: #ff7f0e; stroke: #ff7f0e"/>
     </g>
    </g>
    <g id="text_16">
     <!-- Partial -->
     <g transform="translate(559.068437 616.424688) scale(0.22 -0.22)">
      <defs>
       <path id="DejaVuSans-72" d="M 2631 2963 
Q 2534 3019 2420 3045 
Q 2306 3072 2169 3072 
Q 1681 3072 1420 2755 
Q 1159 2438 1159 1844 
L 1159 0 
L 581 0 
L 581 3500 
L 1159 3500 
L 1159 2956 
Q 1341 3275 1631 3429 
Q 1922 3584 2338 3584 
Q 2397 3584 2469 3576 
Q 2541 3569 2628 3553 
L 2631 2963 
z
" transform="scale(0.015625)"/>
       <path id="DejaVuSans-6c" d="M 603 4863 
L 1178 4863 
L 1178 0 
L 603 0 
L 603 4863 
z
" transform="scale(0.015625)"/>
      </defs>
      <use xlink:href="#DejaVuSans-50"/>
      <use xlink:href="#DejaVuSans-61" x="55.802734"/>
      <use xlink:href="#DejaVuSans-72" x="117.082031"/>
      <use xlink:href="#DejaVuSans-74" x="158.195312"/>
      <use xlink:href="#DejaVuSans-69" x="197.404297"/>
      <use xlink:href="#DejaVuSans-61" x="225.1875"/>
      <use xlink:href="#DejaVuSans-6c" x="286.466797"/>
     </g>
    </g>
   </g>
  </g>
 </g>
 <defs>
  <clipPath id="pa8cf9c0bc7">
   <rect x="90" y="86.4" width="558" height="554.4"/>
  </clipPath>
 </defs>
</svg>
